<?xml version="1.0" encoding="UTF-8" standalone="no"?>
<!DOCTYPE svg PUBLIC "-//W3C//DTD SVG 1.1//EN"
 "http://www.w3.org/Graphics/SVG/1.1/DTD/svg11.dtd">
<!-- Generated by graphviz version 3.0.0 (20220226.1711)
 -->
<!-- Title: Collision.cpp Pages: 1 -->
<svg width="1548pt" height="420pt"
 viewBox="0.00 0.00 1548.00 420.00" xmlns="http://www.w3.org/2000/svg" xmlns:xlink="http://www.w3.org/1999/xlink">
<g id="graph0" class="graph" transform="scale(1 1) rotate(0) translate(4 416)">
<title>Collision.cpp</title>
<!-- Node1 -->
<g id="node1" class="node">
<title>Node1</title>
<g id="a_node1"><a xlink:title=" ">
<polygon fill="#bfbfbf" stroke="black" points="1208,-392.5 1208,-411.5 1280,-411.5 1280,-392.5 1208,-392.5"/>
<text text-anchor="middle" x="1244" y="-399.5" font-family="Helvetica,sans-Serif" font-size="10.00">Collision.cpp</text>
</a>
</g>
</g>
<!-- Node2 -->
<g id="node2" class="node">
<title>Node2</title>
<g id="a_node2"><a xlink:href="_collision_8h.html" target="_top" xlink:title=" ">
<polygon fill="none" stroke="black" points="1213,-336.5 1213,-355.5 1275,-355.5 1275,-336.5 1213,-336.5"/>
<text text-anchor="middle" x="1244" y="-343.5" font-family="Helvetica,sans-Serif" font-size="10.00">Collision.h</text>
</a>
</g>
</g>
<!-- Node1&#45;&gt;Node2 -->
<g id="edge1" class="edge">
<title>Node1&#45;&gt;Node2</title>
<path fill="none" stroke="midnightblue" d="M1244,-392.08C1244,-385.01 1244,-374.86 1244,-365.99"/>
<polygon fill="midnightblue" stroke="midnightblue" points="1247.5,-365.75 1244,-355.75 1240.5,-365.75 1247.5,-365.75"/>
</g>
<!-- Node3 -->
<g id="node3" class="node">
<title>Node3</title>
<g id="a_node3"><a xlink:href="_i_n_c_l_u_d_e_s_8h.html" target="_top" xlink:title=" ">
<polygon fill="none" stroke="black" points="767,-56.5 767,-75.5 849,-75.5 849,-56.5 767,-56.5"/>
<text text-anchor="middle" x="808" y="-63.5" font-family="Helvetica,sans-Serif" font-size="10.00">../INCLUDES.h</text>
</a>
</g>
</g>
<!-- Node2&#45;&gt;Node3 -->
<g id="edge2" class="edge">
<title>Node2&#45;&gt;Node3</title>
<path fill="none" stroke="midnightblue" d="M1245.45,-336.47C1249.56,-309.48 1258.96,-224.39 1225,-168 1202.04,-129.88 1183.59,-127.83 1142,-112 1046.75,-75.74 926.5,-67.99 859.36,-66.74"/>
<polygon fill="midnightblue" stroke="midnightblue" points="859.1,-63.24 849.05,-66.59 859,-70.24 859.1,-63.24"/>
</g>
<!-- Node26 -->
<g id="node26" class="node">
<title>Node26</title>
<g id="a_node26"><a xlink:href="_level_8h.html" target="_top" xlink:title=" ">
<polygon fill="none" stroke="black" points="889,-280.5 889,-299.5 969,-299.5 969,-280.5 889,-280.5"/>
<text text-anchor="middle" x="929" y="-287.5" font-family="Helvetica,sans-Serif" font-size="10.00">../Level/Level.h</text>
</a>
</g>
</g>
<!-- Node2&#45;&gt;Node26 -->
<g id="edge26" class="edge">
<title>Node2&#45;&gt;Node26</title>
<path fill="none" stroke="midnightblue" d="M1212.93,-339.67C1158.42,-330.33 1045.09,-310.9 979.29,-299.62"/>
<polygon fill="midnightblue" stroke="midnightblue" points="979.6,-296.12 969.15,-297.88 978.42,-303.02 979.6,-296.12"/>
</g>
<!-- Node34 -->
<g id="node34" class="node">
<title>Node34</title>
<g id="a_node34"><a xlink:href="_nemo_8h.html" target="_top" xlink:title=" ">
<polygon fill="none" stroke="black" points="1126,-168.5 1126,-187.5 1216,-187.5 1216,-168.5 1126,-168.5"/>
<text text-anchor="middle" x="1171" y="-175.5" font-family="Helvetica,sans-Serif" font-size="10.00">../Player/Nemo.h</text>
</a>
</g>
</g>
<!-- Node2&#45;&gt;Node34 -->
<g id="edge55" class="edge">
<title>Node2&#45;&gt;Node34</title>
<path fill="none" stroke="midnightblue" d="M1240.08,-336.08C1228.53,-309.83 1194.55,-232.55 1178.97,-197.12"/>
<polygon fill="midnightblue" stroke="midnightblue" points="1182,-195.31 1174.77,-187.57 1175.59,-198.13 1182,-195.31"/>
</g>
<!-- Node4 -->
<g id="node4" class="node">
<title>Node4</title>
<g id="a_node4"><a xlink:title=" ">
<polygon fill="none" stroke="#bfbfbf" points="1029.5,-0.5 1029.5,-19.5 1078.5,-19.5 1078.5,-0.5 1029.5,-0.5"/>
<text text-anchor="middle" x="1054" y="-7.5" font-family="Helvetica,sans-Serif" font-size="10.00">string.h</text>
</a>
</g>
</g>
<!-- Node3&#45;&gt;Node4 -->
<g id="edge3" class="edge">
<title>Node3&#45;&gt;Node4</title>
<path fill="none" stroke="midnightblue" d="M849.17,-56.89C889.9,-48.73 954.22,-35.46 1019.15,-20.11"/>
<polygon fill="midnightblue" stroke="midnightblue" points="1020.24,-23.45 1029.15,-17.73 1018.61,-16.64 1020.24,-23.45"/>
</g>
<!-- Node5 -->
<g id="node5" class="node">
<title>Node5</title>
<g id="a_node5"><a xlink:title=" ">
<polygon fill="none" stroke="#bfbfbf" points="1097,-0.5 1097,-19.5 1145,-19.5 1145,-0.5 1097,-0.5"/>
<text text-anchor="middle" x="1121" y="-7.5" font-family="Helvetica,sans-Serif" font-size="10.00">raylib.h</text>
</a>
</g>
</g>
<!-- Node3&#45;&gt;Node5 -->
<g id="edge4" class="edge">
<title>Node3&#45;&gt;Node5</title>
<path fill="none" stroke="midnightblue" d="M849.06,-59.8C901.94,-52.8 996.81,-39.2 1087.08,-20.01"/>
<polygon fill="midnightblue" stroke="midnightblue" points="1087.88,-23.41 1096.92,-17.89 1086.41,-16.57 1087.88,-23.41"/>
</g>
<!-- Node6 -->
<g id="node6" class="node">
<title>Node6</title>
<g id="a_node6"><a xlink:title=" ">
<polygon fill="none" stroke="#bfbfbf" points="1163,-0.5 1163,-19.5 1223,-19.5 1223,-0.5 1163,-0.5"/>
<text text-anchor="middle" x="1193" y="-7.5" font-family="Helvetica,sans-Serif" font-size="10.00">raymath.h</text>
</a>
</g>
</g>
<!-- Node3&#45;&gt;Node6 -->
<g id="edge5" class="edge">
<title>Node3&#45;&gt;Node6</title>
<path fill="none" stroke="midnightblue" d="M849.21,-60.95C912.42,-54.46 1037.27,-40.51 1152.75,-20.07"/>
<polygon fill="midnightblue" stroke="midnightblue" points="1153.6,-23.48 1162.83,-18.27 1152.37,-16.59 1153.6,-23.48"/>
</g>
<!-- Node7 -->
<g id="node7" class="node">
<title>Node7</title>
<g id="a_node7"><a xlink:title=" ">
<polygon fill="none" stroke="#bfbfbf" points="1241,-0.5 1241,-19.5 1289,-19.5 1289,-0.5 1241,-0.5"/>
<text text-anchor="middle" x="1265" y="-7.5" font-family="Helvetica,sans-Serif" font-size="10.00">stdlib.h</text>
</a>
</g>
</g>
<!-- Node3&#45;&gt;Node7 -->
<g id="edge6" class="edge">
<title>Node3&#45;&gt;Node7</title>
<path fill="none" stroke="midnightblue" d="M849.25,-62.83C923.71,-58.43 1085.57,-46.69 1230.96,-19.91"/>
<polygon fill="midnightblue" stroke="midnightblue" points="1231.77,-23.32 1240.95,-18.04 1230.48,-16.44 1231.77,-23.32"/>
</g>
<!-- Node8 -->
<g id="node8" class="node">
<title>Node8</title>
<g id="a_node8"><a xlink:title=" ">
<polygon fill="none" stroke="#bfbfbf" points="1307.5,-0.5 1307.5,-19.5 1352.5,-19.5 1352.5,-0.5 1307.5,-0.5"/>
<text text-anchor="middle" x="1330" y="-7.5" font-family="Helvetica,sans-Serif" font-size="10.00">cstdlib</text>
</a>
</g>
</g>
<!-- Node3&#45;&gt;Node8 -->
<g id="edge7" class="edge">
<title>Node3&#45;&gt;Node8</title>
<path fill="none" stroke="midnightblue" d="M849.32,-63.75C932.49,-60.68 1126.01,-50.8 1297.44,-19.74"/>
<polygon fill="midnightblue" stroke="midnightblue" points="1298.19,-23.16 1307.39,-17.91 1296.93,-16.28 1298.19,-23.16"/>
</g>
<!-- Node9 -->
<g id="node9" class="node">
<title>Node9</title>
<g id="a_node9"><a xlink:title=" ">
<polygon fill="none" stroke="#bfbfbf" points="0,-0.5 0,-19.5 46,-19.5 46,-0.5 0,-0.5"/>
<text text-anchor="middle" x="23" y="-7.5" font-family="Helvetica,sans-Serif" font-size="10.00">stdio.h</text>
</a>
</g>
</g>
<!-- Node3&#45;&gt;Node9 -->
<g id="edge8" class="edge">
<title>Node3&#45;&gt;Node9</title>
<path fill="none" stroke="midnightblue" d="M766.84,-65.62C654.22,-66.67 331.62,-65.3 56.47,-19.88"/>
<polygon fill="midnightblue" stroke="midnightblue" points="56.73,-16.37 46.29,-18.17 55.57,-23.28 56.73,-16.37"/>
</g>
<!-- Node10 -->
<g id="node10" class="node">
<title>Node10</title>
<g id="a_node10"><a xlink:title=" ">
<polygon fill="none" stroke="#bfbfbf" points="1490,-0.5 1490,-19.5 1540,-19.5 1540,-0.5 1490,-0.5"/>
<text text-anchor="middle" x="1515" y="-7.5" font-family="Helvetica,sans-Serif" font-size="10.00">config.h</text>
</a>
</g>
</g>
<!-- Node3&#45;&gt;Node10 -->
<g id="edge9" class="edge">
<title>Node3&#45;&gt;Node10</title>
<path fill="none" stroke="midnightblue" d="M849.28,-64.99C953.61,-64.36 1236.25,-59.05 1479.76,-19.88"/>
<polygon fill="midnightblue" stroke="midnightblue" points="1480.56,-23.29 1489.87,-18.23 1479.43,-16.38 1480.56,-23.29"/>
</g>
<!-- Node11 -->
<g id="node11" class="node">
<title>Node11</title>
<g id="a_node11"><a xlink:title=" ">
<polygon fill="none" stroke="#bfbfbf" points="64.5,-0.5 64.5,-19.5 123.5,-19.5 123.5,-0.5 64.5,-0.5"/>
<text text-anchor="middle" x="94" y="-7.5" font-family="Helvetica,sans-Serif" font-size="10.00">process.h</text>
</a>
</g>
</g>
<!-- Node3&#45;&gt;Node11 -->
<g id="edge10" class="edge">
<title>Node3&#45;&gt;Node11</title>
<path fill="none" stroke="midnightblue" d="M766.98,-64.64C662.64,-63.2 378.63,-56.16 133.93,-20.06"/>
<polygon fill="midnightblue" stroke="midnightblue" points="134.19,-16.56 123.78,-18.55 133.15,-23.49 134.19,-16.56"/>
</g>
<!-- Node12 -->
<g id="node12" class="node">
<title>Node12</title>
<g id="a_node12"><a xlink:title=" ">
<polygon fill="none" stroke="#bfbfbf" points="141.5,-0.5 141.5,-19.5 182.5,-19.5 182.5,-0.5 141.5,-0.5"/>
<text text-anchor="middle" x="162" y="-7.5" font-family="Helvetica,sans-Serif" font-size="10.00">string</text>
</a>
</g>
</g>
<!-- Node3&#45;&gt;Node12 -->
<g id="edge11" class="edge">
<title>Node3&#45;&gt;Node12</title>
<path fill="none" stroke="midnightblue" d="M766.88,-65.08C668.79,-64.62 413.44,-59.54 192.35,-19.6"/>
<polygon fill="midnightblue" stroke="midnightblue" points="192.98,-16.16 182.51,-17.8 191.72,-23.04 192.98,-16.16"/>
</g>
<!-- Node13 -->
<g id="node13" class="node">
<title>Node13</title>
<g id="a_node13"><a xlink:title=" ">
<polygon fill="none" stroke="#bfbfbf" points="201,-0.5 201,-19.5 239,-19.5 239,-0.5 201,-0.5"/>
<text text-anchor="middle" x="220" y="-7.5" font-family="Helvetica,sans-Serif" font-size="10.00">array</text>
</a>
</g>
</g>
<!-- Node3&#45;&gt;Node13 -->
<g id="edge12" class="edge">
<title>Node3&#45;&gt;Node13</title>
<path fill="none" stroke="midnightblue" d="M766.8,-64.92C675.06,-64.07 447.09,-58.11 249.13,-19.76"/>
<polygon fill="midnightblue" stroke="midnightblue" points="249.61,-16.29 239.13,-17.79 248.26,-23.16 249.61,-16.29"/>
</g>
<!-- Node14 -->
<g id="node14" class="node">
<title>Node14</title>
<g id="a_node14"><a xlink:title=" ">
<polygon fill="none" stroke="#bfbfbf" points="257,-0.5 257,-19.5 299,-19.5 299,-0.5 257,-0.5"/>
<text text-anchor="middle" x="278" y="-7.5" font-family="Helvetica,sans-Serif" font-size="10.00">vector</text>
</a>
</g>
</g>
<!-- Node3&#45;&gt;Node14 -->
<g id="edge13" class="edge">
<title>Node3&#45;&gt;Node14</title>
<path fill="none" stroke="midnightblue" d="M766.78,-64.1C682.35,-61.64 483.71,-52.78 309.05,-19.82"/>
<polygon fill="midnightblue" stroke="midnightblue" points="309.65,-16.38 299.17,-17.93 308.33,-23.25 309.65,-16.38"/>
</g>
<!-- Node15 -->
<g id="node15" class="node">
<title>Node15</title>
<g id="a_node15"><a xlink:title=" ">
<polygon fill="none" stroke="#bfbfbf" points="317,-0.5 317,-19.5 361,-19.5 361,-0.5 317,-0.5"/>
<text text-anchor="middle" x="339" y="-7.5" font-family="Helvetica,sans-Serif" font-size="10.00">cmath</text>
</a>
</g>
</g>
<!-- Node3&#45;&gt;Node15 -->
<g id="edge14" class="edge">
<title>Node3&#45;&gt;Node15</title>
<path fill="none" stroke="midnightblue" d="M766.88,-63.25C690.53,-59.46 521.7,-48.59 371.12,-19.89"/>
<polygon fill="midnightblue" stroke="midnightblue" points="371.72,-16.44 361.23,-17.97 370.39,-23.31 371.72,-16.44"/>
</g>
<!-- Node16 -->
<g id="node16" class="node">
<title>Node16</title>
<g id="a_node16"><a xlink:title=" ">
<polygon fill="none" stroke="#bfbfbf" points="379,-0.5 379,-19.5 431,-19.5 431,-0.5 379,-0.5"/>
<text text-anchor="middle" x="405" y="-7.5" font-family="Helvetica,sans-Serif" font-size="10.00">memory</text>
</a>
</g>
</g>
<!-- Node3&#45;&gt;Node16 -->
<g id="edge15" class="edge">
<title>Node3&#45;&gt;Node16</title>
<path fill="none" stroke="midnightblue" d="M766.89,-61.73C700.4,-56.06 565.02,-42.94 441.31,-20.03"/>
<polygon fill="midnightblue" stroke="midnightblue" points="441.77,-16.56 431.29,-18.15 440.47,-23.44 441.77,-16.56"/>
</g>
<!-- Node17 -->
<g id="node17" class="node">
<title>Node17</title>
<g id="a_node17"><a xlink:title=" ">
<polygon fill="none" stroke="#bfbfbf" points="449.5,-0.5 449.5,-19.5 490.5,-19.5 490.5,-0.5 449.5,-0.5"/>
<text text-anchor="middle" x="470" y="-7.5" font-family="Helvetica,sans-Serif" font-size="10.00">ctime</text>
</a>
</g>
</g>
<!-- Node3&#45;&gt;Node17 -->
<g id="edge16" class="edge">
<title>Node3&#45;&gt;Node17</title>
<path fill="none" stroke="midnightblue" d="M766.8,-60.92C709.31,-54.8 601.66,-41.82 500.62,-19.82"/>
<polygon fill="midnightblue" stroke="midnightblue" points="501.07,-16.34 490.55,-17.6 499.56,-23.17 501.07,-16.34"/>
</g>
<!-- Node18 -->
<g id="node18" class="node">
<title>Node18</title>
<g id="a_node18"><a xlink:title=" ">
<polygon fill="none" stroke="#bfbfbf" points="509,-0.5 509,-19.5 555,-19.5 555,-0.5 509,-0.5"/>
<text text-anchor="middle" x="532" y="-7.5" font-family="Helvetica,sans-Serif" font-size="10.00">chrono</text>
</a>
</g>
</g>
<!-- Node3&#45;&gt;Node18 -->
<g id="edge17" class="edge">
<title>Node3&#45;&gt;Node18</title>
<path fill="none" stroke="midnightblue" d="M766.75,-58.58C720.04,-51.05 641.48,-37.59 564.83,-20.02"/>
<polygon fill="midnightblue" stroke="midnightblue" points="565.54,-16.59 555.01,-17.74 563.96,-23.41 565.54,-16.59"/>
</g>
<!-- Node19 -->
<g id="node19" class="node">
<title>Node19</title>
<g id="a_node19"><a xlink:title=" ">
<polygon fill="none" stroke="#bfbfbf" points="573,-0.5 573,-19.5 625,-19.5 625,-0.5 573,-0.5"/>
<text text-anchor="middle" x="599" y="-7.5" font-family="Helvetica,sans-Serif" font-size="10.00">sstream</text>
</a>
</g>
</g>
<!-- Node3&#45;&gt;Node19 -->
<g id="edge18" class="edge">
<title>Node3&#45;&gt;Node19</title>
<path fill="none" stroke="midnightblue" d="M774.88,-56.44C736.66,-46.57 674.03,-30.38 634.73,-20.23"/>
<polygon fill="midnightblue" stroke="midnightblue" points="635.59,-16.84 625.03,-17.73 633.83,-23.62 635.59,-16.84"/>
</g>
<!-- Node20 -->
<g id="node20" class="node">
<title>Node20</title>
<g id="a_node20"><a xlink:title=" ">
<polygon fill="none" stroke="#bfbfbf" points="643.5,-0.5 643.5,-19.5 692.5,-19.5 692.5,-0.5 643.5,-0.5"/>
<text text-anchor="middle" x="668" y="-7.5" font-family="Helvetica,sans-Serif" font-size="10.00">fstream</text>
</a>
</g>
</g>
<!-- Node3&#45;&gt;Node20 -->
<g id="edge19" class="edge">
<title>Node3&#45;&gt;Node20</title>
<path fill="none" stroke="midnightblue" d="M785.82,-56.44C762.57,-47.48 725.85,-33.31 699.58,-23.18"/>
<polygon fill="midnightblue" stroke="midnightblue" points="700.67,-19.85 690.08,-19.52 698.15,-26.38 700.67,-19.85"/>
</g>
<!-- Node21 -->
<g id="node21" class="node">
<title>Node21</title>
<g id="a_node21"><a xlink:title=" ">
<polygon fill="none" stroke="#bfbfbf" points="711,-0.5 711,-19.5 765,-19.5 765,-0.5 711,-0.5"/>
<text text-anchor="middle" x="738" y="-7.5" font-family="Helvetica,sans-Serif" font-size="10.00">iostream</text>
</a>
</g>
</g>
<!-- Node3&#45;&gt;Node21 -->
<g id="edge20" class="edge">
<title>Node3&#45;&gt;Node21</title>
<path fill="none" stroke="midnightblue" d="M796.75,-56.32C786.2,-48.18 770.2,-35.84 757.56,-26.09"/>
<polygon fill="midnightblue" stroke="midnightblue" points="759.51,-23.17 749.45,-19.83 755.23,-28.71 759.51,-23.17"/>
</g>
<!-- Node22 -->
<g id="node22" class="node">
<title>Node22</title>
<g id="a_node22"><a xlink:title=" ">
<polygon fill="none" stroke="#bfbfbf" points="783,-0.5 783,-19.5 833,-19.5 833,-0.5 783,-0.5"/>
<text text-anchor="middle" x="808" y="-7.5" font-family="Helvetica,sans-Serif" font-size="10.00">iomanip</text>
</a>
</g>
</g>
<!-- Node3&#45;&gt;Node22 -->
<g id="edge21" class="edge">
<title>Node3&#45;&gt;Node22</title>
<path fill="none" stroke="midnightblue" d="M808,-56.08C808,-49.01 808,-38.86 808,-29.99"/>
<polygon fill="midnightblue" stroke="midnightblue" points="811.5,-29.75 808,-19.75 804.5,-29.75 811.5,-29.75"/>
</g>
<!-- Node23 -->
<g id="node23" class="node">
<title>Node23</title>
<g id="a_node23"><a xlink:title=" ">
<polygon fill="none" stroke="#bfbfbf" points="851,-0.5 851,-19.5 895,-19.5 895,-0.5 851,-0.5"/>
<text text-anchor="middle" x="873" y="-7.5" font-family="Helvetica,sans-Serif" font-size="10.00">thread</text>
</a>
</g>
</g>
<!-- Node3&#45;&gt;Node23 -->
<g id="edge22" class="edge">
<title>Node3&#45;&gt;Node23</title>
<path fill="none" stroke="midnightblue" d="M818.44,-56.32C828.15,-48.26 842.82,-36.08 854.5,-26.37"/>
<polygon fill="midnightblue" stroke="midnightblue" points="856.91,-28.92 862.37,-19.83 852.44,-23.53 856.91,-28.92"/>
</g>
<!-- Node24 -->
<g id="node24" class="node">
<title>Node24</title>
<g id="a_node24"><a xlink:title=" ">
<polygon fill="none" stroke="#bfbfbf" points="913,-0.5 913,-19.5 1011,-19.5 1011,-0.5 913,-0.5"/>
<text text-anchor="middle" x="962" y="-7.5" font-family="Helvetica,sans-Serif" font-size="10.00">nlohmann/json.hpp</text>
</a>
</g>
</g>
<!-- Node3&#45;&gt;Node24 -->
<g id="edge23" class="edge">
<title>Node3&#45;&gt;Node24</title>
<path fill="none" stroke="midnightblue" d="M832.4,-56.44C858.2,-47.4 899.08,-33.06 928.02,-22.92"/>
<polygon fill="midnightblue" stroke="midnightblue" points="929.43,-26.13 937.71,-19.52 927.12,-19.52 929.43,-26.13"/>
</g>
<!-- Node25 -->
<g id="node25" class="node">
<title>Node25</title>
<g id="a_node25"><a xlink:href="_game_audio_8h.html" target="_top" xlink:title=" ">
<polygon fill="none" stroke="black" points="1370.5,-0.5 1370.5,-19.5 1471.5,-19.5 1471.5,-0.5 1370.5,-0.5"/>
<text text-anchor="middle" x="1421" y="-7.5" font-family="Helvetica,sans-Serif" font-size="10.00">Level/GameAudio.h</text>
</a>
</g>
</g>
<!-- Node3&#45;&gt;Node25 -->
<g id="edge24" class="edge">
<title>Node3&#45;&gt;Node25</title>
<path fill="none" stroke="midnightblue" d="M849.11,-62.36C940.2,-56.66 1165.14,-41.93 1353,-20 1355.34,-19.73 1357.74,-19.43 1360.16,-19.12"/>
<polygon fill="midnightblue" stroke="midnightblue" points="1360.79,-22.56 1370.23,-17.76 1359.85,-15.63 1360.79,-22.56"/>
</g>
<!-- Node25&#45;&gt;Node3 -->
<g id="edge25" class="edge">
<title>Node25&#45;&gt;Node3</title>
<path fill="none" stroke="midnightblue" d="M1375.06,-19.51C1373.69,-19.68 1372.34,-19.84 1371,-20 1183.31,-41.91 958.61,-56.63 859.31,-62.34"/>
<polygon fill="midnightblue" stroke="midnightblue" points="859.03,-58.85 849.24,-62.91 859.43,-65.84 859.03,-58.85"/>
</g>
<!-- Node26&#45;&gt;Node3 -->
<g id="edge44" class="edge">
<title>Node26&#45;&gt;Node3</title>
<path fill="none" stroke="midnightblue" d="M888.95,-289.44C812.64,-289.34 650.87,-284.25 616,-244 557,-175.91 705.3,-106.87 774.61,-79.39"/>
<polygon fill="midnightblue" stroke="midnightblue" points="776.18,-82.53 784.23,-75.64 773.64,-76.01 776.18,-82.53"/>
</g>
<!-- Node26&#45;&gt;Node10 -->
<g id="edge54" class="edge">
<title>Node26&#45;&gt;Node10</title>
<path fill="none" stroke="midnightblue" d="M969.21,-286.22C1017.31,-281.8 1099.55,-270.74 1165,-244 1305.56,-186.57 1448.78,-68.64 1497.53,-26.44"/>
<polygon fill="midnightblue" stroke="midnightblue" points="1500.04,-28.9 1505.27,-19.69 1495.43,-23.62 1500.04,-28.9"/>
</g>
<!-- Node27 -->
<g id="node27" class="node">
<title>Node27</title>
<g id="a_node27"><a xlink:href="_combat_2_mumy_8h.html" target="_top" xlink:title=" ">
<polygon fill="none" stroke="black" points="880,-224.5 880,-243.5 978,-243.5 978,-224.5 880,-224.5"/>
<text text-anchor="middle" x="929" y="-231.5" font-family="Helvetica,sans-Serif" font-size="10.00">../Combat/Mumy.h</text>
</a>
</g>
</g>
<!-- Node26&#45;&gt;Node27 -->
<g id="edge27" class="edge">
<title>Node26&#45;&gt;Node27</title>
<path fill="none" stroke="midnightblue" d="M929,-280.08C929,-273.01 929,-262.86 929,-253.99"/>
<polygon fill="midnightblue" stroke="midnightblue" points="932.5,-253.75 929,-243.75 925.5,-253.75 932.5,-253.75"/>
</g>
<!-- Node30 -->
<g id="node30" class="node">
<title>Node30</title>
<g id="a_node30"><a xlink:href="_sprite_8h.html" target="_top" xlink:title=" ">
<polygon fill="none" stroke="black" points="764,-112.5 764,-131.5 852,-131.5 852,-112.5 764,-112.5"/>
<text text-anchor="middle" x="808" y="-119.5" font-family="Helvetica,sans-Serif" font-size="10.00">../Sprite/Sprite.h</text>
</a>
</g>
</g>
<!-- Node26&#45;&gt;Node30 -->
<g id="edge51" class="edge">
<title>Node26&#45;&gt;Node30</title>
<path fill="none" stroke="midnightblue" d="M888.89,-289.16C815.04,-288.5 662.08,-282.41 629,-244 584.18,-191.96 695.04,-152.46 761.82,-134.19"/>
<polygon fill="midnightblue" stroke="midnightblue" points="762.97,-137.5 771.73,-131.54 761.16,-130.74 762.97,-137.5"/>
</g>
<!-- Node31 -->
<g id="node31" class="node">
<title>Node31</title>
<g id="a_node31"><a xlink:href="_player_8h.html" target="_top" xlink:title=" ">
<polygon fill="none" stroke="black" points="764,-224.5 764,-243.5 862,-243.5 862,-224.5 764,-224.5"/>
<text text-anchor="middle" x="813" y="-231.5" font-family="Helvetica,sans-Serif" font-size="10.00">../Combat/Player.h</text>
</a>
</g>
</g>
<!-- Node26&#45;&gt;Node31 -->
<g id="edge34" class="edge">
<title>Node26&#45;&gt;Node31</title>
<path fill="none" stroke="midnightblue" d="M910.62,-280.44C891.78,-271.68 862.27,-257.94 840.62,-247.86"/>
<polygon fill="midnightblue" stroke="midnightblue" points="841.84,-244.56 831.29,-243.52 838.88,-250.91 841.84,-244.56"/>
</g>
<!-- Node32 -->
<g id="node32" class="node">
<title>Node32</title>
<g id="a_node32"><a xlink:href="_combat_2_shadow_8h.html" target="_top" xlink:title=" ">
<polygon fill="none" stroke="black" points="996.5,-224.5 996.5,-243.5 1101.5,-243.5 1101.5,-224.5 996.5,-224.5"/>
<text text-anchor="middle" x="1049" y="-231.5" font-family="Helvetica,sans-Serif" font-size="10.00">../Combat/Shadow.h</text>
</a>
</g>
</g>
<!-- Node26&#45;&gt;Node32 -->
<g id="edge38" class="edge">
<title>Node26&#45;&gt;Node32</title>
<path fill="none" stroke="midnightblue" d="M948.01,-280.44C967.59,-271.64 998.31,-257.81 1020.73,-247.72"/>
<polygon fill="midnightblue" stroke="midnightblue" points="1022.39,-250.81 1030.07,-243.52 1019.52,-244.43 1022.39,-250.81"/>
</g>
<!-- Node33 -->
<g id="node33" class="node">
<title>Node33</title>
<g id="a_node33"><a xlink:href="_combat_2_pharaoh_8h.html" target="_top" xlink:title=" ">
<polygon fill="none" stroke="black" points="638.5,-224.5 638.5,-243.5 745.5,-243.5 745.5,-224.5 638.5,-224.5"/>
<text text-anchor="middle" x="692" y="-231.5" font-family="Helvetica,sans-Serif" font-size="10.00">../Combat/Pharaoh.h</text>
</a>
</g>
</g>
<!-- Node26&#45;&gt;Node33 -->
<g id="edge41" class="edge">
<title>Node26&#45;&gt;Node33</title>
<path fill="none" stroke="midnightblue" d="M891.45,-280.44C850.19,-271.04 783.86,-255.93 739.13,-245.74"/>
<polygon fill="midnightblue" stroke="midnightblue" points="739.91,-242.33 729.38,-243.52 738.35,-249.15 739.91,-242.33"/>
</g>
<!-- Node26&#45;&gt;Node34 -->
<g id="edge45" class="edge">
<title>Node26&#45;&gt;Node34</title>
<path fill="none" stroke="midnightblue" d="M969.44,-285.04C1024.13,-278.95 1117.86,-265.65 1144,-244 1157.95,-232.45 1164.8,-212.48 1168.09,-197.72"/>
<polygon fill="midnightblue" stroke="midnightblue" points="1171.57,-198.14 1169.97,-187.67 1164.69,-196.85 1171.57,-198.14"/>
</g>
<!-- Node35 -->
<g id="node35" class="node">
<title>Node35</title>
<g id="a_node35"><a xlink:href="_u_i_8h.html" target="_top" xlink:title=" ">
<polygon fill="none" stroke="black" points="1074,-112.5 1074,-131.5 1108,-131.5 1108,-112.5 1074,-112.5"/>
<text text-anchor="middle" x="1091" y="-119.5" font-family="Helvetica,sans-Serif" font-size="10.00">UI.h</text>
</a>
</g>
</g>
<!-- Node26&#45;&gt;Node35 -->
<g id="edge49" class="edge">
<title>Node26&#45;&gt;Node35</title>
<path fill="none" stroke="midnightblue" d="M969.35,-284.76C1017.52,-278.78 1093.74,-266.04 1111,-244 1123.27,-228.32 1106.94,-170.97 1097.25,-141.2"/>
<polygon fill="midnightblue" stroke="midnightblue" points="1100.53,-139.99 1094.04,-131.61 1093.89,-142.21 1100.53,-139.99"/>
</g>
<!-- Node36 -->
<g id="node36" class="node">
<title>Node36</title>
<g id="a_node36"><a xlink:href="_endscreen_8h.html" target="_top" xlink:title=" ">
<polygon fill="none" stroke="black" points="438.5,-112.5 438.5,-131.5 543.5,-131.5 543.5,-112.5 438.5,-112.5"/>
<text text-anchor="middle" x="491" y="-119.5" font-family="Helvetica,sans-Serif" font-size="10.00">../Level/Endscreen.h</text>
</a>
</g>
</g>
<!-- Node26&#45;&gt;Node36 -->
<g id="edge52" class="edge">
<title>Node26&#45;&gt;Node36</title>
<path fill="none" stroke="midnightblue" d="M888.7,-288.64C804.07,-287.18 611.27,-279.89 558,-244 521.77,-219.59 503.2,-168.76 495.48,-141.39"/>
<polygon fill="midnightblue" stroke="midnightblue" points="498.82,-140.33 492.89,-131.55 492.05,-142.11 498.82,-140.33"/>
</g>
<!-- Node27&#45;&gt;Node3 -->
<g id="edge28" class="edge">
<title>Node27&#45;&gt;Node3</title>
<path fill="none" stroke="midnightblue" d="M927.48,-224.25C923.3,-202.63 909.79,-145.95 878,-112 865.97,-99.15 849.52,-88.33 835.6,-80.53"/>
<polygon fill="midnightblue" stroke="midnightblue" points="836.91,-77.26 826.45,-75.62 833.61,-83.43 836.91,-77.26"/>
</g>
<!-- Node28 -->
<g id="node28" class="node">
<title>Node28</title>
<g id="a_node28"><a xlink:title=" ">
<polygon fill="none" stroke="#bfbfbf" points="957,-168.5 957,-187.5 1003,-187.5 1003,-168.5 957,-168.5"/>
<text text-anchor="middle" x="980" y="-175.5" font-family="Helvetica,sans-Serif" font-size="10.00">cstring</text>
</a>
</g>
</g>
<!-- Node27&#45;&gt;Node28 -->
<g id="edge29" class="edge">
<title>Node27&#45;&gt;Node28</title>
<path fill="none" stroke="midnightblue" d="M937.42,-224.08C944.85,-216.22 955.85,-204.57 964.81,-195.08"/>
<polygon fill="midnightblue" stroke="midnightblue" points="967.41,-197.42 971.74,-187.75 962.32,-192.62 967.41,-197.42"/>
</g>
<!-- Node29 -->
<g id="node29" class="node">
<title>Node29</title>
<g id="a_node29"><a xlink:href="_game_character_8h.html" target="_top" xlink:title=" ">
<polygon fill="none" stroke="black" points="807.5,-168.5 807.5,-187.5 900.5,-187.5 900.5,-168.5 807.5,-168.5"/>
<text text-anchor="middle" x="854" y="-175.5" font-family="Helvetica,sans-Serif" font-size="10.00">GameCharacter.h</text>
</a>
</g>
</g>
<!-- Node27&#45;&gt;Node29 -->
<g id="edge30" class="edge">
<title>Node27&#45;&gt;Node29</title>
<path fill="none" stroke="midnightblue" d="M916.95,-224.32C905.54,-216.11 888.17,-203.6 874.57,-193.81"/>
<polygon fill="midnightblue" stroke="midnightblue" points="876.43,-190.84 866.27,-187.83 872.34,-196.52 876.43,-190.84"/>
</g>
<!-- Node29&#45;&gt;Node3 -->
<g id="edge31" class="edge">
<title>Node29&#45;&gt;Node3</title>
<path fill="none" stroke="midnightblue" d="M857.75,-168.12C862.63,-155.14 869.58,-130.54 861,-112 855.08,-99.21 843.53,-88.72 832.72,-81.1"/>
<polygon fill="midnightblue" stroke="midnightblue" points="834.62,-78.16 824.33,-75.61 830.79,-84.02 834.62,-78.16"/>
</g>
<!-- Node29&#45;&gt;Node30 -->
<g id="edge32" class="edge">
<title>Node29&#45;&gt;Node30</title>
<path fill="none" stroke="midnightblue" d="M846.4,-168.08C839.77,-160.3 829.98,-148.8 821.94,-139.37"/>
<polygon fill="midnightblue" stroke="midnightblue" points="824.6,-137.09 815.45,-131.75 819.27,-141.63 824.6,-137.09"/>
</g>
<!-- Node30&#45;&gt;Node3 -->
<g id="edge33" class="edge">
<title>Node30&#45;&gt;Node3</title>
<path fill="none" stroke="midnightblue" d="M808,-112.08C808,-105.01 808,-94.86 808,-85.99"/>
<polygon fill="midnightblue" stroke="midnightblue" points="811.5,-85.75 808,-75.75 804.5,-85.75 811.5,-85.75"/>
</g>
<!-- Node31&#45;&gt;Node3 -->
<g id="edge35" class="edge">
<title>Node31&#45;&gt;Node3</title>
<path fill="none" stroke="midnightblue" d="M805.81,-224.25C792.63,-207.57 765,-169.51 755,-132 752.71,-123.41 751.27,-120.07 755,-112 760.92,-99.21 772.47,-88.72 783.28,-81.1"/>
<polygon fill="midnightblue" stroke="midnightblue" points="785.21,-84.02 791.67,-75.61 781.38,-78.16 785.21,-84.02"/>
</g>
<!-- Node31&#45;&gt;Node29 -->
<g id="edge36" class="edge">
<title>Node31&#45;&gt;Node29</title>
<path fill="none" stroke="midnightblue" d="M819.77,-224.08C825.56,-216.46 834.06,-205.26 841.14,-195.94"/>
<polygon fill="midnightblue" stroke="midnightblue" points="844.1,-197.83 847.36,-187.75 838.52,-193.6 844.1,-197.83"/>
</g>
<!-- Node31&#45;&gt;Node30 -->
<g id="edge37" class="edge">
<title>Node31&#45;&gt;Node30</title>
<path fill="none" stroke="midnightblue" d="M809.14,-224.25C805.44,-215.33 800.11,-201.01 798,-188 795.46,-172.33 798.63,-154.5 802.05,-141.49"/>
<polygon fill="midnightblue" stroke="midnightblue" points="805.43,-142.42 804.87,-131.84 798.71,-140.46 805.43,-142.42"/>
</g>
<!-- Node32&#45;&gt;Node3 -->
<g id="edge39" class="edge">
<title>Node32&#45;&gt;Node3</title>
<path fill="none" stroke="midnightblue" d="M1045.99,-224.36C1040.89,-210.81 1029.37,-184.4 1012,-168 963.91,-122.6 891.52,-93.39 847.15,-78.61"/>
<polygon fill="midnightblue" stroke="midnightblue" points="848.18,-75.27 837.59,-75.51 846.02,-81.93 848.18,-75.27"/>
</g>
<!-- Node32&#45;&gt;Node29 -->
<g id="edge40" class="edge">
<title>Node32&#45;&gt;Node29</title>
<path fill="none" stroke="midnightblue" d="M1018.1,-224.44C984.73,-215.2 931.41,-200.44 894.65,-190.26"/>
<polygon fill="midnightblue" stroke="midnightblue" points="895.33,-186.81 884.75,-187.52 893.46,-193.56 895.33,-186.81"/>
</g>
<!-- Node33&#45;&gt;Node3 -->
<g id="edge42" class="edge">
<title>Node33&#45;&gt;Node3</title>
<path fill="none" stroke="midnightblue" d="M694.51,-224.3C700.89,-203.27 719.37,-148.66 749,-112 758.87,-99.78 772.72,-89 784.52,-81.05"/>
<polygon fill="midnightblue" stroke="midnightblue" points="786.55,-83.91 793.05,-75.55 782.75,-78.03 786.55,-83.91"/>
</g>
<!-- Node33&#45;&gt;Node29 -->
<g id="edge43" class="edge">
<title>Node33&#45;&gt;Node29</title>
<path fill="none" stroke="midnightblue" d="M717.67,-224.44C744.92,-215.36 788.18,-200.94 818.65,-190.78"/>
<polygon fill="midnightblue" stroke="midnightblue" points="820.07,-194 828.45,-187.52 817.86,-187.36 820.07,-194"/>
</g>
<!-- Node34&#45;&gt;Node3 -->
<g id="edge48" class="edge">
<title>Node34&#45;&gt;Node3</title>
<path fill="none" stroke="midnightblue" d="M1166.43,-168.07C1158.52,-153.61 1140.8,-125.35 1117,-112 1073.93,-87.85 935.67,-75.28 859.52,-70.04"/>
<polygon fill="midnightblue" stroke="midnightblue" points="859.41,-66.53 849.2,-69.35 858.94,-73.51 859.41,-66.53"/>
</g>
<!-- Node34&#45;&gt;Node25 -->
<g id="edge47" class="edge">
<title>Node34&#45;&gt;Node25</title>
<path fill="none" stroke="midnightblue" d="M1176.16,-168.22C1189.65,-146.01 1228.26,-87.18 1276,-56 1301.36,-39.44 1333.16,-28.68 1360.51,-21.85"/>
<polygon fill="midnightblue" stroke="midnightblue" points="1361.45,-25.23 1370.37,-19.51 1359.83,-18.42 1361.45,-25.23"/>
</g>
<!-- Node34&#45;&gt;Node30 -->
<g id="edge46" class="edge">
<title>Node34&#45;&gt;Node30</title>
<path fill="none" stroke="midnightblue" d="M1125.76,-170.27C1058.92,-160.33 933.97,-141.74 862.28,-131.07"/>
<polygon fill="midnightblue" stroke="midnightblue" points="862.51,-127.57 852.1,-129.56 861.48,-134.49 862.51,-127.57"/>
</g>
<!-- Node35&#45;&gt;Node3 -->
<g id="edge50" class="edge">
<title>Node35&#45;&gt;Node3</title>
<path fill="none" stroke="midnightblue" d="M1073.73,-116.58C1067.53,-115.05 1060.47,-113.38 1054,-112 986.86,-97.71 908.82,-83.9 858.95,-75.44"/>
<polygon fill="midnightblue" stroke="midnightblue" points="859.5,-71.98 849.06,-73.77 858.33,-78.88 859.5,-71.98"/>
</g>
<!-- Node36&#45;&gt;Node3 -->
<g id="edge53" class="edge">
<title>Node36&#45;&gt;Node3</title>
<path fill="none" stroke="midnightblue" d="M541.23,-112.44C600.15,-102.41 697.3,-85.86 756.68,-75.74"/>
<polygon fill="midnightblue" stroke="midnightblue" points="757.32,-79.18 766.59,-74.05 756.15,-72.28 757.32,-79.18"/>
</g>
</g>
</svg>
