<?xml version="1.0" encoding="UTF-8" standalone="no"?>
<!DOCTYPE svg PUBLIC "-//W3C//DTD SVG 1.1//EN"
 "http://www.w3.org/Graphics/SVG/1.1/DTD/svg11.dtd">
<!-- Generated by graphviz version 3.0.0 (20220226.1711)
 -->
<!-- Title: Collision.h Pages: 1 -->
<svg width="1548pt" height="420pt"
 viewBox="0.00 0.00 1548.00 420.00" xmlns="http://www.w3.org/2000/svg" xmlns:xlink="http://www.w3.org/1999/xlink">
<g id="graph0" class="graph" transform="scale(1 1) rotate(0) translate(4 416)">
<title>Collision.h</title>
<!-- Node1 -->
<g id="node1" class="node">
<title>Node1</title>
<g id="a_node1"><a xlink:title=" ">
<polygon fill="#bfbfbf" stroke="black" points="942,-392.5 942,-411.5 1004,-411.5 1004,-392.5 942,-392.5"/>
<text text-anchor="middle" x="973" y="-399.5" font-family="Helvetica,sans-Serif" font-size="10.00">Collision.h</text>
</a>
</g>
</g>
<!-- Node2 -->
<g id="node2" class="node">
<title>Node2</title>
<g id="a_node2"><a xlink:href="_i_n_c_l_u_d_e_s_8h.html" target="_top" xlink:title=" ">
<polygon fill="none" stroke="black" points="680,-56.5 680,-75.5 762,-75.5 762,-56.5 680,-56.5"/>
<text text-anchor="middle" x="721" y="-63.5" font-family="Helvetica,sans-Serif" font-size="10.00">../INCLUDES.h</text>
</a>
</g>
</g>
<!-- Node1&#45;&gt;Node2 -->
<g id="edge1" class="edge">
<title>Node1&#45;&gt;Node2</title>
<path fill="none" stroke="midnightblue" d="M973,-392.44C973,-373.94 973,-328.81 973,-291 973,-291 973,-291 973,-177 973,-146.77 975.48,-132.2 953,-112 926.96,-88.61 832.57,-76.41 772.51,-70.87"/>
<polygon fill="midnightblue" stroke="midnightblue" points="772.72,-67.38 762.45,-69.98 772.1,-74.35 772.72,-67.38"/>
</g>
<!-- Node25 -->
<g id="node25" class="node">
<title>Node25</title>
<g id="a_node25"><a xlink:href="_level_8h.html" target="_top" xlink:title=" ">
<polygon fill="none" stroke="black" points="566,-280.5 566,-299.5 646,-299.5 646,-280.5 566,-280.5"/>
<text text-anchor="middle" x="606" y="-287.5" font-family="Helvetica,sans-Serif" font-size="10.00">../Level/Level.h</text>
</a>
</g>
</g>
<!-- Node1&#45;&gt;Node25 -->
<g id="edge25" class="edge">
<title>Node1&#45;&gt;Node25</title>
<path fill="none" stroke="midnightblue" d="M944.51,-392.46C879.12,-372.86 718.26,-324.65 644.31,-302.48"/>
<polygon fill="midnightblue" stroke="midnightblue" points="645.06,-299.05 634.47,-299.53 643.05,-305.76 645.06,-299.05"/>
</g>
<!-- Node33 -->
<g id="node33" class="node">
<title>Node33</title>
<g id="a_node33"><a xlink:href="_nemo_8h.html" target="_top" xlink:title=" ">
<polygon fill="none" stroke="black" points="275,-168.5 275,-187.5 365,-187.5 365,-168.5 275,-168.5"/>
<text text-anchor="middle" x="320" y="-175.5" font-family="Helvetica,sans-Serif" font-size="10.00">../Player/Nemo.h</text>
</a>
</g>
</g>
<!-- Node1&#45;&gt;Node33 -->
<g id="edge59" class="edge">
<title>Node1&#45;&gt;Node33</title>
<path fill="none" stroke="midnightblue" d="M941.92,-395.16C899.21,-387.02 820.04,-371.5 753,-356 558.91,-311.14 441,-401.48 319,-244 308.87,-230.92 310.67,-211.5 314.06,-197.29"/>
<polygon fill="midnightblue" stroke="midnightblue" points="317.44,-198.21 316.79,-187.64 310.7,-196.31 317.44,-198.21"/>
</g>
<!-- Node36 -->
<g id="node36" class="node">
<title>Node36</title>
<g id="a_node36"><a xlink:href="_map_8h.html" target="_top" xlink:title=" ">
<polygon fill="none" stroke="black" points="1001.5,-336.5 1001.5,-355.5 1078.5,-355.5 1078.5,-336.5 1001.5,-336.5"/>
<text text-anchor="middle" x="1040" y="-343.5" font-family="Helvetica,sans-Serif" font-size="10.00">../Level/Map.h</text>
</a>
</g>
</g>
<!-- Node1&#45;&gt;Node36 -->
<g id="edge54" class="edge">
<title>Node1&#45;&gt;Node36</title>
<path fill="none" stroke="midnightblue" d="M983.76,-392.32C993.77,-384.26 1008.89,-372.08 1020.93,-362.37"/>
<polygon fill="midnightblue" stroke="midnightblue" points="1023.45,-364.83 1029.04,-355.83 1019.06,-359.38 1023.45,-364.83"/>
</g>
<!-- Node37 -->
<g id="node37" class="node">
<title>Node37</title>
<g id="a_node37"><a xlink:href="_dialogue_8h.html" target="_top" xlink:title=" ">
<polygon fill="none" stroke="black" points="1115,-280.5 1115,-299.5 1211,-299.5 1211,-280.5 1115,-280.5"/>
<text text-anchor="middle" x="1163" y="-287.5" font-family="Helvetica,sans-Serif" font-size="10.00">../Level/Dialogue.h</text>
</a>
</g>
</g>
<!-- Node1&#45;&gt;Node37 -->
<g id="edge60" class="edge">
<title>Node1&#45;&gt;Node37</title>
<path fill="none" stroke="midnightblue" d="M1002.34,-392.4C1026.13,-384.74 1060.02,-372.24 1087,-356 1110.09,-342.1 1133.13,-321.15 1147.68,-306.82"/>
<polygon fill="midnightblue" stroke="midnightblue" points="1150.27,-309.18 1154.84,-299.62 1145.31,-304.24 1150.27,-309.18"/>
</g>
<!-- Node3 -->
<g id="node3" class="node">
<title>Node3</title>
<g id="a_node3"><a xlink:title=" ">
<polygon fill="none" stroke="#bfbfbf" points="1096.5,-0.5 1096.5,-19.5 1145.5,-19.5 1145.5,-0.5 1096.5,-0.5"/>
<text text-anchor="middle" x="1121" y="-7.5" font-family="Helvetica,sans-Serif" font-size="10.00">string.h</text>
</a>
</g>
</g>
<!-- Node2&#45;&gt;Node3 -->
<g id="edge2" class="edge">
<title>Node2&#45;&gt;Node3</title>
<path fill="none" stroke="midnightblue" d="M762.18,-61.78C828.43,-56.2 962.9,-43.23 1086.22,-19.9"/>
<polygon fill="midnightblue" stroke="midnightblue" points="1087.05,-23.3 1096.21,-17.98 1085.73,-16.43 1087.05,-23.3"/>
</g>
<!-- Node4 -->
<g id="node4" class="node">
<title>Node4</title>
<g id="a_node4"><a xlink:title=" ">
<polygon fill="none" stroke="#bfbfbf" points="1164,-0.5 1164,-19.5 1212,-19.5 1212,-0.5 1164,-0.5"/>
<text text-anchor="middle" x="1188" y="-7.5" font-family="Helvetica,sans-Serif" font-size="10.00">raylib.h</text>
</a>
</g>
</g>
<!-- Node2&#45;&gt;Node4 -->
<g id="edge3" class="edge">
<title>Node2&#45;&gt;Node4</title>
<path fill="none" stroke="midnightblue" d="M762.2,-62.85C839.52,-58.35 1011.45,-46.11 1154,-20 1154.1,-19.98 1154.2,-19.96 1154.3,-19.94"/>
<polygon fill="midnightblue" stroke="midnightblue" points="1154.92,-23.39 1163.96,-17.86 1153.44,-16.55 1154.92,-23.39"/>
</g>
<!-- Node5 -->
<g id="node5" class="node">
<title>Node5</title>
<g id="a_node5"><a xlink:title=" ">
<polygon fill="none" stroke="#bfbfbf" points="1230,-0.5 1230,-19.5 1290,-19.5 1290,-0.5 1230,-0.5"/>
<text text-anchor="middle" x="1260" y="-7.5" font-family="Helvetica,sans-Serif" font-size="10.00">raymath.h</text>
</a>
</g>
</g>
<!-- Node2&#45;&gt;Node5 -->
<g id="edge4" class="edge">
<title>Node2&#45;&gt;Node5</title>
<path fill="none" stroke="midnightblue" d="M762.07,-63.21C846.21,-59.14 1044.35,-47.44 1219.91,-19.96"/>
<polygon fill="midnightblue" stroke="midnightblue" points="1220.52,-23.41 1229.85,-18.39 1219.42,-16.5 1220.52,-23.41"/>
</g>
<!-- Node6 -->
<g id="node6" class="node">
<title>Node6</title>
<g id="a_node6"><a xlink:title=" ">
<polygon fill="none" stroke="#bfbfbf" points="1308,-0.5 1308,-19.5 1356,-19.5 1356,-0.5 1308,-0.5"/>
<text text-anchor="middle" x="1332" y="-7.5" font-family="Helvetica,sans-Serif" font-size="10.00">stdlib.h</text>
</a>
</g>
</g>
<!-- Node2&#45;&gt;Node6 -->
<g id="edge5" class="edge">
<title>Node2&#45;&gt;Node6</title>
<path fill="none" stroke="midnightblue" d="M762.33,-64.45C856.1,-62.63 1092.15,-54.83 1297.88,-19.86"/>
<polygon fill="midnightblue" stroke="midnightblue" points="1298.71,-23.27 1307.97,-18.12 1297.52,-16.37 1298.71,-23.27"/>
</g>
<!-- Node7 -->
<g id="node7" class="node">
<title>Node7</title>
<g id="a_node7"><a xlink:title=" ">
<polygon fill="none" stroke="#bfbfbf" points="187.5,-0.5 187.5,-19.5 232.5,-19.5 232.5,-0.5 187.5,-0.5"/>
<text text-anchor="middle" x="210" y="-7.5" font-family="Helvetica,sans-Serif" font-size="10.00">cstdlib</text>
</a>
</g>
</g>
<!-- Node2&#45;&gt;Node7 -->
<g id="edge6" class="edge">
<title>Node2&#45;&gt;Node7</title>
<path fill="none" stroke="midnightblue" d="M679.97,-63.64C598.36,-60.4 409.89,-50.23 242.58,-19.75"/>
<polygon fill="midnightblue" stroke="midnightblue" points="243.08,-16.28 232.61,-17.9 241.8,-23.16 243.08,-16.28"/>
</g>
<!-- Node8 -->
<g id="node8" class="node">
<title>Node8</title>
<g id="a_node8"><a xlink:title=" ">
<polygon fill="none" stroke="#bfbfbf" points="251,-0.5 251,-19.5 297,-19.5 297,-0.5 251,-0.5"/>
<text text-anchor="middle" x="274" y="-7.5" font-family="Helvetica,sans-Serif" font-size="10.00">stdio.h</text>
</a>
</g>
</g>
<!-- Node2&#45;&gt;Node8 -->
<g id="edge7" class="edge">
<title>Node2&#45;&gt;Node8</title>
<path fill="none" stroke="midnightblue" d="M679.72,-62.8C606.49,-58.41 448.98,-46.75 307.47,-19.99"/>
<polygon fill="midnightblue" stroke="midnightblue" points="307.79,-16.49 297.31,-18.04 306.47,-23.36 307.79,-16.49"/>
</g>
<!-- Node9 -->
<g id="node9" class="node">
<title>Node9</title>
<g id="a_node9"><a xlink:title=" ">
<polygon fill="none" stroke="#bfbfbf" points="0,-0.5 0,-19.5 50,-19.5 50,-0.5 0,-0.5"/>
<text text-anchor="middle" x="25" y="-7.5" font-family="Helvetica,sans-Serif" font-size="10.00">config.h</text>
</a>
</g>
</g>
<!-- Node2&#45;&gt;Node9 -->
<g id="edge8" class="edge">
<title>Node2&#45;&gt;Node9</title>
<path fill="none" stroke="midnightblue" d="M679.63,-64.92C576.39,-64.14 299.16,-58.46 60.06,-19.85"/>
<polygon fill="midnightblue" stroke="midnightblue" points="60.57,-16.39 50.13,-18.23 59.44,-23.3 60.57,-16.39"/>
</g>
<!-- Node10 -->
<g id="node10" class="node">
<title>Node10</title>
<g id="a_node10"><a xlink:title=" ">
<polygon fill="none" stroke="#bfbfbf" points="315.5,-0.5 315.5,-19.5 374.5,-19.5 374.5,-0.5 315.5,-0.5"/>
<text text-anchor="middle" x="345" y="-7.5" font-family="Helvetica,sans-Serif" font-size="10.00">process.h</text>
</a>
</g>
</g>
<!-- Node2&#45;&gt;Node10 -->
<g id="edge9" class="edge">
<title>Node2&#45;&gt;Node10</title>
<path fill="none" stroke="midnightblue" d="M679.95,-60.88C618,-54.36 496.76,-40.47 384.91,-20.21"/>
<polygon fill="midnightblue" stroke="midnightblue" points="385.28,-16.72 374.81,-18.36 384.02,-23.61 385.28,-16.72"/>
</g>
<!-- Node11 -->
<g id="node11" class="node">
<title>Node11</title>
<g id="a_node11"><a xlink:title=" ">
<polygon fill="none" stroke="#bfbfbf" points="392.5,-0.5 392.5,-19.5 433.5,-19.5 433.5,-0.5 392.5,-0.5"/>
<text text-anchor="middle" x="413" y="-7.5" font-family="Helvetica,sans-Serif" font-size="10.00">string</text>
</a>
</g>
</g>
<!-- Node2&#45;&gt;Node11 -->
<g id="edge10" class="edge">
<title>Node2&#45;&gt;Node11</title>
<path fill="none" stroke="midnightblue" d="M679.69,-60.03C627.03,-53.32 533.05,-40.09 443.35,-19.8"/>
<polygon fill="midnightblue" stroke="midnightblue" points="444.09,-16.38 433.56,-17.56 442.53,-23.2 444.09,-16.38"/>
</g>
<!-- Node12 -->
<g id="node12" class="node">
<title>Node12</title>
<g id="a_node12"><a xlink:title=" ">
<polygon fill="none" stroke="#bfbfbf" points="452,-0.5 452,-19.5 490,-19.5 490,-0.5 452,-0.5"/>
<text text-anchor="middle" x="471" y="-7.5" font-family="Helvetica,sans-Serif" font-size="10.00">array</text>
</a>
</g>
</g>
<!-- Node2&#45;&gt;Node12 -->
<g id="edge11" class="edge">
<title>Node2&#45;&gt;Node12</title>
<path fill="none" stroke="midnightblue" d="M679.77,-58.06C637.06,-50.55 568.23,-37.59 500.22,-20.09"/>
<polygon fill="midnightblue" stroke="midnightblue" points="500.76,-16.62 490.2,-17.48 498.99,-23.39 500.76,-16.62"/>
</g>
<!-- Node13 -->
<g id="node13" class="node">
<title>Node13</title>
<g id="a_node13"><a xlink:title=" ">
<polygon fill="none" stroke="#bfbfbf" points="508,-0.5 508,-19.5 550,-19.5 550,-0.5 508,-0.5"/>
<text text-anchor="middle" x="529" y="-7.5" font-family="Helvetica,sans-Serif" font-size="10.00">vector</text>
</a>
</g>
</g>
<!-- Node2&#45;&gt;Node13 -->
<g id="edge12" class="edge">
<title>Node2&#45;&gt;Node13</title>
<path fill="none" stroke="midnightblue" d="M689.59,-56.48C658.89,-48.11 610.59,-34.82 560.08,-20.27"/>
<polygon fill="midnightblue" stroke="midnightblue" points="560.87,-16.86 550.29,-17.45 558.93,-23.58 560.87,-16.86"/>
</g>
<!-- Node14 -->
<g id="node14" class="node">
<title>Node14</title>
<g id="a_node14"><a xlink:title=" ">
<polygon fill="none" stroke="#bfbfbf" points="568,-0.5 568,-19.5 612,-19.5 612,-0.5 568,-0.5"/>
<text text-anchor="middle" x="590" y="-7.5" font-family="Helvetica,sans-Serif" font-size="10.00">cmath</text>
</a>
</g>
</g>
<!-- Node2&#45;&gt;Node14 -->
<g id="edge13" class="edge">
<title>Node2&#45;&gt;Node14</title>
<path fill="none" stroke="midnightblue" d="M700.24,-56.44C678.68,-47.56 644.74,-33.56 620.21,-23.45"/>
<polygon fill="midnightblue" stroke="midnightblue" points="621.24,-20.09 610.66,-19.52 618.57,-26.56 621.24,-20.09"/>
</g>
<!-- Node15 -->
<g id="node15" class="node">
<title>Node15</title>
<g id="a_node15"><a xlink:title=" ">
<polygon fill="none" stroke="#bfbfbf" points="630,-0.5 630,-19.5 682,-19.5 682,-0.5 630,-0.5"/>
<text text-anchor="middle" x="656" y="-7.5" font-family="Helvetica,sans-Serif" font-size="10.00">memory</text>
</a>
</g>
</g>
<!-- Node2&#45;&gt;Node15 -->
<g id="edge14" class="edge">
<title>Node2&#45;&gt;Node15</title>
<path fill="none" stroke="midnightblue" d="M710.56,-56.32C700.85,-48.26 686.18,-36.08 674.5,-26.37"/>
<polygon fill="midnightblue" stroke="midnightblue" points="676.56,-23.53 666.63,-19.83 672.09,-28.92 676.56,-23.53"/>
</g>
<!-- Node16 -->
<g id="node16" class="node">
<title>Node16</title>
<g id="a_node16"><a xlink:title=" ">
<polygon fill="none" stroke="#bfbfbf" points="700.5,-0.5 700.5,-19.5 741.5,-19.5 741.5,-0.5 700.5,-0.5"/>
<text text-anchor="middle" x="721" y="-7.5" font-family="Helvetica,sans-Serif" font-size="10.00">ctime</text>
</a>
</g>
</g>
<!-- Node2&#45;&gt;Node16 -->
<g id="edge15" class="edge">
<title>Node2&#45;&gt;Node16</title>
<path fill="none" stroke="midnightblue" d="M721,-56.08C721,-49.01 721,-38.86 721,-29.99"/>
<polygon fill="midnightblue" stroke="midnightblue" points="724.5,-29.75 721,-19.75 717.5,-29.75 724.5,-29.75"/>
</g>
<!-- Node17 -->
<g id="node17" class="node">
<title>Node17</title>
<g id="a_node17"><a xlink:title=" ">
<polygon fill="none" stroke="#bfbfbf" points="760,-0.5 760,-19.5 806,-19.5 806,-0.5 760,-0.5"/>
<text text-anchor="middle" x="783" y="-7.5" font-family="Helvetica,sans-Serif" font-size="10.00">chrono</text>
</a>
</g>
</g>
<!-- Node2&#45;&gt;Node17 -->
<g id="edge16" class="edge">
<title>Node2&#45;&gt;Node17</title>
<path fill="none" stroke="midnightblue" d="M730.96,-56.32C740.13,-48.34 753.94,-36.31 765.03,-26.65"/>
<polygon fill="midnightblue" stroke="midnightblue" points="767.62,-29.04 772.86,-19.83 763.02,-23.76 767.62,-29.04"/>
</g>
<!-- Node18 -->
<g id="node18" class="node">
<title>Node18</title>
<g id="a_node18"><a xlink:title=" ">
<polygon fill="none" stroke="#bfbfbf" points="824,-0.5 824,-19.5 876,-19.5 876,-0.5 824,-0.5"/>
<text text-anchor="middle" x="850" y="-7.5" font-family="Helvetica,sans-Serif" font-size="10.00">sstream</text>
</a>
</g>
</g>
<!-- Node2&#45;&gt;Node18 -->
<g id="edge17" class="edge">
<title>Node2&#45;&gt;Node18</title>
<path fill="none" stroke="midnightblue" d="M741.44,-56.44C762.67,-47.56 796.1,-33.56 820.25,-23.45"/>
<polygon fill="midnightblue" stroke="midnightblue" points="821.78,-26.61 829.66,-19.52 819.08,-20.15 821.78,-26.61"/>
</g>
<!-- Node19 -->
<g id="node19" class="node">
<title>Node19</title>
<g id="a_node19"><a xlink:title=" ">
<polygon fill="none" stroke="#bfbfbf" points="1374.5,-0.5 1374.5,-19.5 1423.5,-19.5 1423.5,-0.5 1374.5,-0.5"/>
<text text-anchor="middle" x="1399" y="-7.5" font-family="Helvetica,sans-Serif" font-size="10.00">fstream</text>
</a>
</g>
</g>
<!-- Node2&#45;&gt;Node19 -->
<g id="edge18" class="edge">
<title>Node2&#45;&gt;Node19</title>
<path fill="none" stroke="midnightblue" d="M762.38,-64.81C863.64,-63.76 1131.97,-57.52 1364.25,-19.78"/>
<polygon fill="midnightblue" stroke="midnightblue" points="1364.94,-23.21 1374.24,-18.13 1363.8,-16.31 1364.94,-23.21"/>
</g>
<!-- Node20 -->
<g id="node20" class="node">
<title>Node20</title>
<g id="a_node20"><a xlink:title=" ">
<polygon fill="none" stroke="#bfbfbf" points="894,-0.5 894,-19.5 948,-19.5 948,-0.5 894,-0.5"/>
<text text-anchor="middle" x="921" y="-7.5" font-family="Helvetica,sans-Serif" font-size="10.00">iostream</text>
</a>
</g>
</g>
<!-- Node2&#45;&gt;Node20 -->
<g id="edge19" class="edge">
<title>Node2&#45;&gt;Node20</title>
<path fill="none" stroke="midnightblue" d="M752.69,-56.44C788.33,-46.82 846.15,-31.21 883.87,-21.02"/>
<polygon fill="midnightblue" stroke="midnightblue" points="885.21,-24.29 893.95,-18.3 883.38,-17.53 885.21,-24.29"/>
</g>
<!-- Node21 -->
<g id="node21" class="node">
<title>Node21</title>
<g id="a_node21"><a xlink:title=" ">
<polygon fill="none" stroke="#bfbfbf" points="966,-0.5 966,-19.5 1016,-19.5 1016,-0.5 966,-0.5"/>
<text text-anchor="middle" x="991" y="-7.5" font-family="Helvetica,sans-Serif" font-size="10.00">iomanip</text>
</a>
</g>
</g>
<!-- Node2&#45;&gt;Node21 -->
<g id="edge20" class="edge">
<title>Node2&#45;&gt;Node21</title>
<path fill="none" stroke="midnightblue" d="M762.11,-58.07C807.31,-50.24 882.29,-36.67 955.89,-20.13"/>
<polygon fill="midnightblue" stroke="midnightblue" points="956.82,-23.51 965.8,-17.88 955.27,-16.68 956.82,-23.51"/>
</g>
<!-- Node22 -->
<g id="node22" class="node">
<title>Node22</title>
<g id="a_node22"><a xlink:title=" ">
<polygon fill="none" stroke="#bfbfbf" points="1034,-0.5 1034,-19.5 1078,-19.5 1078,-0.5 1034,-0.5"/>
<text text-anchor="middle" x="1056" y="-7.5" font-family="Helvetica,sans-Serif" font-size="10.00">thread</text>
</a>
</g>
</g>
<!-- Node2&#45;&gt;Node22 -->
<g id="edge21" class="edge">
<title>Node2&#45;&gt;Node22</title>
<path fill="none" stroke="midnightblue" d="M762.13,-60.7C818.97,-54.38 924.85,-41.18 1023.87,-20"/>
<polygon fill="midnightblue" stroke="midnightblue" points="1024.71,-23.4 1033.74,-17.85 1023.23,-16.56 1024.71,-23.4"/>
</g>
<!-- Node23 -->
<g id="node23" class="node">
<title>Node23</title>
<g id="a_node23"><a xlink:title=" ">
<polygon fill="none" stroke="#bfbfbf" points="1442,-0.5 1442,-19.5 1540,-19.5 1540,-0.5 1442,-0.5"/>
<text text-anchor="middle" x="1491" y="-7.5" font-family="Helvetica,sans-Serif" font-size="10.00">nlohmann/json.hpp</text>
</a>
</g>
</g>
<!-- Node2&#45;&gt;Node23 -->
<g id="edge22" class="edge">
<title>Node2&#45;&gt;Node23</title>
<path fill="none" stroke="midnightblue" d="M762.05,-63.71C870.01,-60.04 1170.97,-48.01 1431.95,-20.01"/>
<polygon fill="midnightblue" stroke="midnightblue" points="1432.43,-23.48 1441.99,-18.92 1431.67,-16.52 1432.43,-23.48"/>
</g>
<!-- Node24 -->
<g id="node24" class="node">
<title>Node24</title>
<g id="a_node24"><a xlink:href="_game_audio_8h.html" target="_top" xlink:title=" ">
<polygon fill="none" stroke="black" points="68.5,-0.5 68.5,-19.5 169.5,-19.5 169.5,-0.5 68.5,-0.5"/>
<text text-anchor="middle" x="119" y="-7.5" font-family="Helvetica,sans-Serif" font-size="10.00">Level/GameAudio.h</text>
</a>
</g>
</g>
<!-- Node2&#45;&gt;Node24 -->
<g id="edge23" class="edge">
<title>Node2&#45;&gt;Node24</title>
<path fill="none" stroke="midnightblue" d="M679.81,-62.84C589.28,-57.56 366.78,-42.85 174.92,-20.67"/>
<polygon fill="midnightblue" stroke="midnightblue" points="175.28,-17.19 164.94,-19.51 174.47,-24.14 175.28,-17.19"/>
</g>
<!-- Node24&#45;&gt;Node2 -->
<g id="edge24" class="edge">
<title>Node24&#45;&gt;Node2</title>
<path fill="none" stroke="midnightblue" d="M169.77,-17.75C175.61,-18.57 181.44,-19.35 187,-20 363.8,-40.79 574.11,-55.33 669.53,-61.58"/>
<polygon fill="midnightblue" stroke="midnightblue" points="669.57,-65.09 679.77,-62.24 670.02,-58.1 669.57,-65.09"/>
</g>
<!-- Node25&#45;&gt;Node2 -->
<g id="edge43" class="edge">
<title>Node25&#45;&gt;Node2</title>
<path fill="none" stroke="midnightblue" d="M565.98,-285.93C497.51,-280.14 361.18,-266.19 319,-244 282.55,-224.83 246.47,-204.25 266,-168 287.46,-128.17 308.53,-127.59 351,-112 408.28,-90.98 581.95,-76.51 669.45,-70.34"/>
<polygon fill="midnightblue" stroke="midnightblue" points="669.95,-73.82 679.68,-69.63 669.46,-66.84 669.95,-73.82"/>
</g>
<!-- Node25&#45;&gt;Node9 -->
<g id="edge53" class="edge">
<title>Node25&#45;&gt;Node9</title>
<path fill="none" stroke="midnightblue" d="M565.71,-288.84C445.56,-287.29 98,-274.54 98,-179 98,-179 98,-179 98,-121 98,-81.78 65.38,-45.84 43.75,-26.32"/>
<polygon fill="midnightblue" stroke="midnightblue" points="45.93,-23.58 36.09,-19.67 41.35,-28.87 45.93,-23.58"/>
</g>
<!-- Node26 -->
<g id="node26" class="node">
<title>Node26</title>
<g id="a_node26"><a xlink:href="_combat_2_mumy_8h.html" target="_top" xlink:title=" ">
<polygon fill="none" stroke="black" points="497,-224.5 497,-243.5 595,-243.5 595,-224.5 497,-224.5"/>
<text text-anchor="middle" x="546" y="-231.5" font-family="Helvetica,sans-Serif" font-size="10.00">../Combat/Mumy.h</text>
</a>
</g>
</g>
<!-- Node25&#45;&gt;Node26 -->
<g id="edge26" class="edge">
<title>Node25&#45;&gt;Node26</title>
<path fill="none" stroke="midnightblue" d="M596.36,-280.32C587.49,-272.34 574.13,-260.31 563.39,-250.65"/>
<polygon fill="midnightblue" stroke="midnightblue" points="565.59,-247.92 555.82,-243.83 560.91,-253.13 565.59,-247.92"/>
</g>
<!-- Node29 -->
<g id="node29" class="node">
<title>Node29</title>
<g id="a_node29"><a xlink:href="_sprite_8h.html" target="_top" xlink:title=" ">
<polygon fill="none" stroke="black" points="425,-112.5 425,-131.5 513,-131.5 513,-112.5 425,-112.5"/>
<text text-anchor="middle" x="469" y="-119.5" font-family="Helvetica,sans-Serif" font-size="10.00">../Sprite/Sprite.h</text>
</a>
</g>
</g>
<!-- Node25&#45;&gt;Node29 -->
<g id="edge50" class="edge">
<title>Node25&#45;&gt;Node29</title>
<path fill="none" stroke="midnightblue" d="M565.76,-284.06C539.61,-278.66 506.98,-267.42 488,-244 464.21,-214.64 464.29,-167.74 466.57,-141.79"/>
<polygon fill="midnightblue" stroke="midnightblue" points="470.06,-142.1 467.65,-131.78 463.1,-141.34 470.06,-142.1"/>
</g>
<!-- Node30 -->
<g id="node30" class="node">
<title>Node30</title>
<g id="a_node30"><a xlink:href="_player_8h.html" target="_top" xlink:title=" ">
<polygon fill="none" stroke="black" points="343,-224.5 343,-243.5 441,-243.5 441,-224.5 343,-224.5"/>
<text text-anchor="middle" x="392" y="-231.5" font-family="Helvetica,sans-Serif" font-size="10.00">../Combat/Player.h</text>
</a>
</g>
</g>
<!-- Node25&#45;&gt;Node30 -->
<g id="edge33" class="edge">
<title>Node25&#45;&gt;Node30</title>
<path fill="none" stroke="midnightblue" d="M572.09,-280.44C535.15,-271.12 475.95,-256.18 435.58,-246"/>
<polygon fill="midnightblue" stroke="midnightblue" points="436.3,-242.57 425.75,-243.52 434.59,-249.36 436.3,-242.57"/>
</g>
<!-- Node31 -->
<g id="node31" class="node">
<title>Node31</title>
<g id="a_node31"><a xlink:href="_combat_2_shadow_8h.html" target="_top" xlink:title=" ">
<polygon fill="none" stroke="black" points="613.5,-224.5 613.5,-243.5 718.5,-243.5 718.5,-224.5 613.5,-224.5"/>
<text text-anchor="middle" x="666" y="-231.5" font-family="Helvetica,sans-Serif" font-size="10.00">../Combat/Shadow.h</text>
</a>
</g>
</g>
<!-- Node25&#45;&gt;Node31 -->
<g id="edge37" class="edge">
<title>Node25&#45;&gt;Node31</title>
<path fill="none" stroke="midnightblue" d="M615.64,-280.32C624.51,-272.34 637.87,-260.31 648.61,-250.65"/>
<polygon fill="midnightblue" stroke="midnightblue" points="651.09,-253.13 656.18,-243.83 646.41,-247.92 651.09,-253.13"/>
</g>
<!-- Node32 -->
<g id="node32" class="node">
<title>Node32</title>
<g id="a_node32"><a xlink:href="_combat_2_pharaoh_8h.html" target="_top" xlink:title=" ">
<polygon fill="none" stroke="black" points="736.5,-224.5 736.5,-243.5 843.5,-243.5 843.5,-224.5 736.5,-224.5"/>
<text text-anchor="middle" x="790" y="-231.5" font-family="Helvetica,sans-Serif" font-size="10.00">../Combat/Pharaoh.h</text>
</a>
</g>
</g>
<!-- Node25&#45;&gt;Node32 -->
<g id="edge40" class="edge">
<title>Node25&#45;&gt;Node32</title>
<path fill="none" stroke="midnightblue" d="M635.16,-280.44C666.51,-271.24 716.53,-256.56 751.2,-246.39"/>
<polygon fill="midnightblue" stroke="midnightblue" points="752.37,-249.69 760.98,-243.52 750.4,-242.97 752.37,-249.69"/>
</g>
<!-- Node25&#45;&gt;Node33 -->
<g id="edge44" class="edge">
<title>Node25&#45;&gt;Node33</title>
<path fill="none" stroke="midnightblue" d="M565.78,-287.74C498.34,-284.78 366.61,-275.08 334,-244 321.74,-232.31 318.93,-212.66 318.77,-198.02"/>
<polygon fill="midnightblue" stroke="midnightblue" points="322.28,-197.7 319.08,-187.6 315.29,-197.49 322.28,-197.7"/>
</g>
<!-- Node34 -->
<g id="node34" class="node">
<title>Node34</title>
<g id="a_node34"><a xlink:href="_u_i_8h.html" target="_top" xlink:title=" ">
<polygon fill="none" stroke="black" points="787,-112.5 787,-131.5 821,-131.5 821,-112.5 787,-112.5"/>
<text text-anchor="middle" x="804" y="-119.5" font-family="Helvetica,sans-Serif" font-size="10.00">UI.h</text>
</a>
</g>
</g>
<!-- Node25&#45;&gt;Node34 -->
<g id="edge48" class="edge">
<title>Node25&#45;&gt;Node34</title>
<path fill="none" stroke="midnightblue" d="M646.08,-287.67C708.95,-284.64 826.25,-274.89 852,-244 878.52,-212.19 842.46,-163.9 819.84,-139.04"/>
<polygon fill="midnightblue" stroke="midnightblue" points="822.2,-136.44 812.79,-131.57 817.1,-141.24 822.2,-136.44"/>
</g>
<!-- Node35 -->
<g id="node35" class="node">
<title>Node35</title>
<g id="a_node35"><a xlink:href="_endscreen_8h.html" target="_top" xlink:title=" ">
<polygon fill="none" stroke="black" points="839.5,-112.5 839.5,-131.5 944.5,-131.5 944.5,-112.5 839.5,-112.5"/>
<text text-anchor="middle" x="892" y="-119.5" font-family="Helvetica,sans-Serif" font-size="10.00">../Level/Endscreen.h</text>
</a>
</g>
</g>
<!-- Node25&#45;&gt;Node35 -->
<g id="edge51" class="edge">
<title>Node25&#45;&gt;Node35</title>
<path fill="none" stroke="midnightblue" d="M646.11,-287.69C712.26,-284.66 840.01,-274.88 871,-244 898.09,-217.01 897.53,-168.43 894.76,-141.78"/>
<polygon fill="midnightblue" stroke="midnightblue" points="898.23,-141.31 893.52,-131.82 891.29,-142.18 898.23,-141.31"/>
</g>
<!-- Node26&#45;&gt;Node2 -->
<g id="edge27" class="edge">
<title>Node26&#45;&gt;Node2</title>
<path fill="none" stroke="midnightblue" d="M550.65,-224.38C557.94,-211.3 573.01,-186.07 590,-168 623.58,-132.28 670.62,-99.29 698.24,-81.27"/>
<polygon fill="midnightblue" stroke="midnightblue" points="700.31,-84.11 706.82,-75.75 696.52,-78.22 700.31,-84.11"/>
</g>
<!-- Node27 -->
<g id="node27" class="node">
<title>Node27</title>
<g id="a_node27"><a xlink:title=" ">
<polygon fill="none" stroke="#bfbfbf" points="497,-168.5 497,-187.5 543,-187.5 543,-168.5 497,-168.5"/>
<text text-anchor="middle" x="520" y="-175.5" font-family="Helvetica,sans-Serif" font-size="10.00">cstring</text>
</a>
</g>
</g>
<!-- Node26&#45;&gt;Node27 -->
<g id="edge28" class="edge">
<title>Node26&#45;&gt;Node27</title>
<path fill="none" stroke="midnightblue" d="M541.71,-224.08C538.15,-216.69 532.98,-205.95 528.58,-196.81"/>
<polygon fill="midnightblue" stroke="midnightblue" points="531.71,-195.24 524.21,-187.75 525.4,-198.28 531.71,-195.24"/>
</g>
<!-- Node28 -->
<g id="node28" class="node">
<title>Node28</title>
<g id="a_node28"><a xlink:href="_game_character_8h.html" target="_top" xlink:title=" ">
<polygon fill="none" stroke="black" points="599.5,-168.5 599.5,-187.5 692.5,-187.5 692.5,-168.5 599.5,-168.5"/>
<text text-anchor="middle" x="646" y="-175.5" font-family="Helvetica,sans-Serif" font-size="10.00">GameCharacter.h</text>
</a>
</g>
</g>
<!-- Node26&#45;&gt;Node28 -->
<g id="edge29" class="edge">
<title>Node26&#45;&gt;Node28</title>
<path fill="none" stroke="midnightblue" d="M562.07,-224.32C577.96,-215.74 602.51,-202.49 620.96,-192.52"/>
<polygon fill="midnightblue" stroke="midnightblue" points="622.84,-195.49 629.97,-187.65 619.51,-189.33 622.84,-195.49"/>
</g>
<!-- Node28&#45;&gt;Node2 -->
<g id="edge30" class="edge">
<title>Node28&#45;&gt;Node2</title>
<path fill="none" stroke="midnightblue" d="M651.89,-168.37C664.26,-150.22 693.18,-107.8 709.42,-83.99"/>
<polygon fill="midnightblue" stroke="midnightblue" points="712.4,-85.83 715.14,-75.59 706.62,-81.88 712.4,-85.83"/>
</g>
<!-- Node28&#45;&gt;Node29 -->
<g id="edge31" class="edge">
<title>Node28&#45;&gt;Node29</title>
<path fill="none" stroke="midnightblue" d="M617.95,-168.44C587.92,-159.28 540.09,-144.69 506.76,-134.52"/>
<polygon fill="midnightblue" stroke="midnightblue" points="507.5,-131.09 496.91,-131.52 505.46,-137.78 507.5,-131.09"/>
</g>
<!-- Node29&#45;&gt;Node2 -->
<g id="edge32" class="edge">
<title>Node29&#45;&gt;Node2</title>
<path fill="none" stroke="midnightblue" d="M508.93,-112.44C552.89,-103.02 623.63,-87.87 671.18,-77.68"/>
<polygon fill="midnightblue" stroke="midnightblue" points="672.21,-81.03 681.26,-75.52 670.75,-74.19 672.21,-81.03"/>
</g>
<!-- Node30&#45;&gt;Node2 -->
<g id="edge34" class="edge">
<title>Node30&#45;&gt;Node2</title>
<path fill="none" stroke="midnightblue" d="M390.73,-224.44C387.98,-202.23 384.04,-142.42 416,-112 451.53,-78.18 592.5,-69.72 669.74,-67.64"/>
<polygon fill="midnightblue" stroke="midnightblue" points="669.83,-71.14 679.74,-67.4 669.66,-64.15 669.83,-71.14"/>
</g>
<!-- Node30&#45;&gt;Node28 -->
<g id="edge35" class="edge">
<title>Node30&#45;&gt;Node28</title>
<path fill="none" stroke="midnightblue" d="M432.25,-224.44C476.65,-215 548.15,-199.8 596.09,-189.61"/>
<polygon fill="midnightblue" stroke="midnightblue" points="596.89,-193.02 605.94,-187.52 595.43,-186.17 596.89,-193.02"/>
</g>
<!-- Node30&#45;&gt;Node29 -->
<g id="edge36" class="edge">
<title>Node30&#45;&gt;Node29</title>
<path fill="none" stroke="midnightblue" d="M398.04,-224.37C410.75,-206.22 440.44,-163.8 457.11,-139.99"/>
<polygon fill="midnightblue" stroke="midnightblue" points="460.12,-141.79 462.99,-131.59 454.38,-137.78 460.12,-141.79"/>
</g>
<!-- Node31&#45;&gt;Node2 -->
<g id="edge38" class="edge">
<title>Node31&#45;&gt;Node2</title>
<path fill="none" stroke="midnightblue" d="M675.02,-224.24C683.17,-215.76 694.81,-202.15 701,-188 715.88,-153.98 719.77,-110.16 720.74,-85.68"/>
<polygon fill="midnightblue" stroke="midnightblue" points="724.24,-85.71 721.01,-75.62 717.24,-85.52 724.24,-85.71"/>
</g>
<!-- Node31&#45;&gt;Node28 -->
<g id="edge39" class="edge">
<title>Node31&#45;&gt;Node28</title>
<path fill="none" stroke="midnightblue" d="M662.7,-224.08C660.02,-216.85 656.15,-206.41 652.81,-197.4"/>
<polygon fill="midnightblue" stroke="midnightblue" points="656,-195.91 649.24,-187.75 649.43,-198.34 656,-195.91"/>
</g>
<!-- Node32&#45;&gt;Node2 -->
<g id="edge41" class="edge">
<title>Node32&#45;&gt;Node2</title>
<path fill="none" stroke="midnightblue" d="M786.29,-224.08C775.38,-197.83 743.26,-120.55 728.53,-85.12"/>
<polygon fill="midnightblue" stroke="midnightblue" points="731.63,-83.46 724.56,-75.57 725.17,-86.15 731.63,-83.46"/>
</g>
<!-- Node32&#45;&gt;Node28 -->
<g id="edge42" class="edge">
<title>Node32&#45;&gt;Node28</title>
<path fill="none" stroke="midnightblue" d="M767.18,-224.44C743.17,-215.44 705.17,-201.19 678.13,-191.05"/>
<polygon fill="midnightblue" stroke="midnightblue" points="679.3,-187.75 668.71,-187.52 676.84,-194.3 679.3,-187.75"/>
</g>
<!-- Node33&#45;&gt;Node2 -->
<g id="edge47" class="edge">
<title>Node33&#45;&gt;Node2</title>
<path fill="none" stroke="midnightblue" d="M324.9,-168.49C333.7,-154.11 353.62,-125.29 379,-112 428.42,-86.13 587,-74.08 669.72,-69.44"/>
<polygon fill="midnightblue" stroke="midnightblue" points="670.1,-72.92 679.9,-68.88 669.72,-65.93 670.1,-72.92"/>
</g>
<!-- Node33&#45;&gt;Node24 -->
<g id="edge46" class="edge">
<title>Node33&#45;&gt;Node24</title>
<path fill="none" stroke="midnightblue" d="M309.48,-168.31C277.05,-141.53 178.37,-60.03 137.27,-26.09"/>
<polygon fill="midnightblue" stroke="midnightblue" points="139.36,-23.27 129.42,-19.61 134.9,-28.67 139.36,-23.27"/>
</g>
<!-- Node33&#45;&gt;Node29 -->
<g id="edge45" class="edge">
<title>Node33&#45;&gt;Node29</title>
<path fill="none" stroke="midnightblue" d="M343.61,-168.44C368.46,-159.44 407.77,-145.19 435.75,-135.05"/>
<polygon fill="midnightblue" stroke="midnightblue" points="437.29,-138.21 445.5,-131.52 434.91,-131.63 437.29,-138.21"/>
</g>
<!-- Node34&#45;&gt;Node2 -->
<g id="edge49" class="edge">
<title>Node34&#45;&gt;Node2</title>
<path fill="none" stroke="midnightblue" d="M790.66,-112.32C777.84,-103.98 758.22,-91.21 743.06,-81.35"/>
<polygon fill="midnightblue" stroke="midnightblue" points="744.59,-78.17 734.3,-75.65 740.78,-84.04 744.59,-78.17"/>
</g>
<!-- Node35&#45;&gt;Node2 -->
<g id="edge52" class="edge">
<title>Node35&#45;&gt;Node2</title>
<path fill="none" stroke="midnightblue" d="M864.9,-112.44C836.01,-103.32 790.08,-88.81 757.89,-78.65"/>
<polygon fill="midnightblue" stroke="midnightblue" points="758.56,-75.19 747.97,-75.52 756.45,-81.87 758.56,-75.19"/>
</g>
<!-- Node36&#45;&gt;Node2 -->
<g id="edge55" class="edge">
<title>Node36&#45;&gt;Node2</title>
<path fill="none" stroke="midnightblue" d="M1036.09,-336.36C1028.17,-318.07 1011,-273.91 1011,-235 1011,-235 1011,-235 1011,-177 1011,-146.2 1010.7,-131.66 987,-112 955.07,-85.52 839.95,-74.14 772.06,-69.64"/>
<polygon fill="midnightblue" stroke="midnightblue" points="772.2,-66.14 762,-69 771.76,-73.13 772.2,-66.14"/>
</g>
<!-- Node36&#45;&gt;Node19 -->
<g id="edge57" class="edge">
<title>Node36&#45;&gt;Node19</title>
<path fill="none" stroke="midnightblue" d="M1041.18,-336.46C1043.62,-317.99 1049,-272.94 1049,-235 1049,-235 1049,-235 1049,-121 1049,-90.2 1048.86,-75.12 1073,-56 1122.05,-17.15 1285.86,-31.04 1364.19,-19.67"/>
<polygon fill="midnightblue" stroke="midnightblue" points="1364.93,-23.1 1374.21,-17.98 1363.76,-16.19 1364.93,-23.1"/>
</g>
<!-- Node36&#45;&gt;Node23 -->
<g id="edge58" class="edge">
<title>Node36&#45;&gt;Node23</title>
<path fill="none" stroke="midnightblue" d="M1046.54,-336.41C1059.45,-318.56 1087,-275.7 1087,-235 1087,-235 1087,-235 1087,-121 1087,-85.71 1319.46,-40.67 1431.71,-20.97"/>
<polygon fill="midnightblue" stroke="midnightblue" points="1432.62,-24.37 1441.87,-19.2 1431.41,-17.47 1432.62,-24.37"/>
</g>
<!-- Node36&#45;&gt;Node25 -->
<g id="edge56" class="edge">
<title>Node36&#45;&gt;Node25</title>
<path fill="none" stroke="midnightblue" d="M1001.49,-340.21C922.86,-330.43 743.94,-308.16 656.28,-297.26"/>
<polygon fill="midnightblue" stroke="midnightblue" points="656.67,-293.78 646.31,-296.02 655.8,-300.72 656.67,-293.78"/>
</g>
<!-- Node37&#45;&gt;Node2 -->
<g id="edge61" class="edge">
<title>Node37&#45;&gt;Node2</title>
<path fill="none" stroke="midnightblue" d="M1159.27,-280.49C1145.97,-251.25 1097.71,-154.39 1025,-112 983.12,-87.59 847.54,-75.16 772.37,-70"/>
<polygon fill="midnightblue" stroke="midnightblue" points="772.39,-66.5 762.18,-69.32 771.93,-73.48 772.39,-66.5"/>
</g>
</g>
</svg>
