<?xml version="1.0" encoding="UTF-8" standalone="no"?>
<!DOCTYPE svg PUBLIC "-//W3C//DTD SVG 1.1//EN"
 "http://www.w3.org/Graphics/SVG/1.1/DTD/svg11.dtd">
<!-- Generated by graphviz version 3.0.0 (20220226.1711)
 -->
<!-- Title: Pharaoh.h Pages: 1 -->
<svg width="410pt" height="308pt"
 viewBox="0.00 0.00 409.50 308.00" xmlns="http://www.w3.org/2000/svg" xmlns:xlink="http://www.w3.org/1999/xlink">
<g id="graph0" class="graph" transform="scale(1 1) rotate(0) translate(4 304)">
<title>Pharaoh.h</title>
<!-- Node1 -->
<g id="node1" class="node">
<title>Node1</title>
<g id="a_node1"><a xlink:title=" ">
<polygon fill="#bfbfbf" stroke="black" points="232.5,-280.5 232.5,-299.5 293.5,-299.5 293.5,-280.5 232.5,-280.5"/>
<text text-anchor="middle" x="263" y="-287.5" font-family="Helvetica,sans-Serif" font-size="10.00">Pharaoh.h</text>
</a>
</g>
</g>
<!-- Node2 -->
<g id="node2" class="node">
<title>Node2</title>
<g id="a_node2"><a xlink:href="_level_8h.html" target="_top" xlink:title=" ">
<polygon fill="none" stroke="black" points="201.5,-224.5 201.5,-243.5 248.5,-243.5 248.5,-224.5 201.5,-224.5"/>
<text text-anchor="middle" x="225" y="-231.5" font-family="Helvetica,sans-Serif" font-size="10.00">Level.h</text>
</a>
</g>
</g>
<!-- Node1&#45;&gt;Node2 -->
<g id="edge1" class="edge">
<title>Node1&#45;&gt;Node2</title>
<path fill="none" stroke="midnightblue" d="M250.94,-271.86C244.36,-262.5 236.49,-251.33 231.16,-243.75"/>
<polygon fill="midnightblue" stroke="midnightblue" points="248.11,-273.92 256.73,-280.08 253.83,-269.89 248.11,-273.92"/>
</g>
<!-- Node12 -->
<g id="node12" class="node">
<title>Node12</title>
<g id="a_node12"><a xlink:href="_combat_2_pharaoh_8cpp.html" target="_top" xlink:title=" ">
<polygon fill="none" stroke="black" points="266.5,-224.5 266.5,-243.5 337.5,-243.5 337.5,-224.5 266.5,-224.5"/>
<text text-anchor="middle" x="302" y="-231.5" font-family="Helvetica,sans-Serif" font-size="10.00">Pharaoh.cpp</text>
</a>
</g>
</g>
<!-- Node1&#45;&gt;Node12 -->
<g id="edge14" class="edge">
<title>Node1&#45;&gt;Node12</title>
<path fill="none" stroke="midnightblue" d="M275.38,-271.86C282.14,-262.5 290.21,-251.33 295.68,-243.75"/>
<polygon fill="midnightblue" stroke="midnightblue" points="272.46,-269.93 269.44,-280.08 278.13,-274.03 272.46,-269.93"/>
</g>
<!-- Node3 -->
<g id="node3" class="node">
<title>Node3</title>
<g id="a_node3"><a xlink:href="_collision_8h.html" target="_top" xlink:title=" ">
<polygon fill="none" stroke="black" points="85,-112.5 85,-131.5 147,-131.5 147,-112.5 85,-112.5"/>
<text text-anchor="middle" x="116" y="-119.5" font-family="Helvetica,sans-Serif" font-size="10.00">Collision.h</text>
</a>
</g>
</g>
<!-- Node2&#45;&gt;Node3 -->
<g id="edge2" class="edge">
<title>Node2&#45;&gt;Node3</title>
<path fill="none" stroke="midnightblue" d="M201.19,-219.12C188.43,-211.01 172.94,-200.02 161,-188 143.4,-170.27 128.08,-144.9 120.69,-131.71"/>
<polygon fill="midnightblue" stroke="midnightblue" points="199.55,-222.22 209.9,-224.49 203.22,-216.26 199.55,-222.22"/>
</g>
<!-- Node7 -->
<g id="node7" class="node">
<title>Node7</title>
<g id="a_node7"><a xlink:href="main_8cpp.html" target="_top" xlink:title=" ">
<polygon fill="none" stroke="black" points="158,-0.5 158,-19.5 214,-19.5 214,-0.5 158,-0.5"/>
<text text-anchor="middle" x="186" y="-7.5" font-family="Helvetica,sans-Serif" font-size="10.00">main.cpp</text>
</a>
</g>
</g>
<!-- Node2&#45;&gt;Node7 -->
<g id="edge13" class="edge">
<title>Node2&#45;&gt;Node7</title>
<path fill="none" stroke="midnightblue" d="M210.24,-216.4C204.03,-208.4 197.46,-198.3 194,-188 173.32,-126.48 181.3,-46.13 184.74,-19.78"/>
<polygon fill="midnightblue" stroke="midnightblue" points="207.6,-218.7 216.66,-224.19 213,-214.25 207.6,-218.7"/>
</g>
<!-- Node8 -->
<g id="node8" class="node">
<title>Node8</title>
<g id="a_node8"><a xlink:href="_level_8cpp.html" target="_top" xlink:title=" ">
<polygon fill="none" stroke="black" points="265.5,-168.5 265.5,-187.5 322.5,-187.5 322.5,-168.5 265.5,-168.5"/>
<text text-anchor="middle" x="294" y="-175.5" font-family="Helvetica,sans-Serif" font-size="10.00">Level.cpp</text>
</a>
</g>
</g>
<!-- Node2&#45;&gt;Node8 -->
<g id="edge7" class="edge">
<title>Node2&#45;&gt;Node8</title>
<path fill="none" stroke="midnightblue" d="M244.04,-218.1C256.46,-208.38 272.24,-196.03 282.71,-187.83"/>
<polygon fill="midnightblue" stroke="midnightblue" points="241.8,-215.4 236.09,-224.32 246.12,-220.92 241.8,-215.4"/>
</g>
<!-- Node9 -->
<g id="node9" class="node">
<title>Node9</title>
<g id="a_node9"><a xlink:href="_map_8h.html" target="_top" xlink:title=" ">
<polygon fill="none" stroke="black" points="203,-168.5 203,-187.5 247,-187.5 247,-168.5 203,-168.5"/>
<text text-anchor="middle" x="225" y="-175.5" font-family="Helvetica,sans-Serif" font-size="10.00">Map.h</text>
</a>
</g>
</g>
<!-- Node2&#45;&gt;Node9 -->
<g id="edge8" class="edge">
<title>Node2&#45;&gt;Node9</title>
<path fill="none" stroke="midnightblue" d="M225,-213.8C225,-204.91 225,-194.78 225,-187.75"/>
<polygon fill="midnightblue" stroke="midnightblue" points="221.5,-214.08 225,-224.08 228.5,-214.08 221.5,-214.08"/>
</g>
<!-- Node11 -->
<g id="node11" class="node">
<title>Node11</title>
<g id="a_node11"><a xlink:href="_nemo_8cpp.html" target="_top" xlink:title=" ">
<polygon fill="none" stroke="black" points="340.5,-168.5 340.5,-187.5 401.5,-187.5 401.5,-168.5 340.5,-168.5"/>
<text text-anchor="middle" x="371" y="-175.5" font-family="Helvetica,sans-Serif" font-size="10.00">Nemo.cpp</text>
</a>
</g>
</g>
<!-- Node2&#45;&gt;Node11 -->
<g id="edge12" class="edge">
<title>Node2&#45;&gt;Node11</title>
<path fill="none" stroke="midnightblue" d="M257.7,-220.91C285.15,-210.75 323.67,-196.51 347.97,-187.52"/>
<polygon fill="midnightblue" stroke="midnightblue" points="256.3,-217.69 248.13,-224.44 258.73,-224.26 256.3,-217.69"/>
</g>
<!-- Node4 -->
<g id="node4" class="node">
<title>Node4</title>
<g id="a_node4"><a xlink:href="_collision_8cpp.html" target="_top" xlink:title=" ">
<polygon fill="none" stroke="black" points="0,-56.5 0,-75.5 72,-75.5 72,-56.5 0,-56.5"/>
<text text-anchor="middle" x="36" y="-63.5" font-family="Helvetica,sans-Serif" font-size="10.00">Collision.cpp</text>
</a>
</g>
</g>
<!-- Node3&#45;&gt;Node4 -->
<g id="edge3" class="edge">
<title>Node3&#45;&gt;Node4</title>
<path fill="none" stroke="midnightblue" d="M94.7,-106.62C80.08,-96.76 61.17,-83.99 48.82,-75.65"/>
<polygon fill="midnightblue" stroke="midnightblue" points="92.9,-109.63 103.15,-112.32 96.82,-103.83 92.9,-109.63"/>
</g>
<!-- Node5 -->
<g id="node5" class="node">
<title>Node5</title>
<g id="a_node5"><a xlink:href="_puzzle_8h.html" target="_top" xlink:title=" ">
<polygon fill="none" stroke="black" points="90.5,-56.5 90.5,-75.5 145.5,-75.5 145.5,-56.5 90.5,-56.5"/>
<text text-anchor="middle" x="118" y="-63.5" font-family="Helvetica,sans-Serif" font-size="10.00">Puzzle.h</text>
</a>
</g>
</g>
<!-- Node3&#45;&gt;Node5 -->
<g id="edge4" class="edge">
<title>Node3&#45;&gt;Node5</title>
<path fill="none" stroke="midnightblue" d="M116.71,-101.8C117.04,-92.91 117.42,-82.78 117.68,-75.75"/>
<polygon fill="midnightblue" stroke="midnightblue" points="113.2,-101.96 116.33,-112.08 120.2,-102.22 113.2,-101.96"/>
</g>
<!-- Node6 -->
<g id="node6" class="node">
<title>Node6</title>
<g id="a_node6"><a xlink:href="_puzzle_8cpp.html" target="_top" xlink:title=" ">
<polygon fill="none" stroke="black" points="74.5,-0.5 74.5,-19.5 139.5,-19.5 139.5,-0.5 74.5,-0.5"/>
<text text-anchor="middle" x="107" y="-7.5" font-family="Helvetica,sans-Serif" font-size="10.00">Puzzle.cpp</text>
</a>
</g>
</g>
<!-- Node5&#45;&gt;Node6 -->
<g id="edge5" class="edge">
<title>Node5&#45;&gt;Node6</title>
<path fill="none" stroke="midnightblue" d="M114.15,-46.1C112.32,-37.14 110.23,-26.86 108.78,-19.75"/>
<polygon fill="midnightblue" stroke="midnightblue" points="110.76,-46.98 116.18,-56.08 117.62,-45.59 110.76,-46.98"/>
</g>
<!-- Node5&#45;&gt;Node7 -->
<g id="edge6" class="edge">
<title>Node5&#45;&gt;Node7</title>
<path fill="none" stroke="midnightblue" d="M136.76,-50.1C149,-40.38 164.56,-28.03 174.88,-19.83"/>
<polygon fill="midnightblue" stroke="midnightblue" points="134.58,-47.36 128.93,-56.32 138.93,-52.85 134.58,-47.36"/>
</g>
<!-- Node9&#45;&gt;Node3 -->
<g id="edge9" class="edge">
<title>Node9&#45;&gt;Node3</title>
<path fill="none" stroke="midnightblue" d="M198.48,-163.86C178.27,-153.85 151.01,-140.35 133.47,-131.65"/>
<polygon fill="midnightblue" stroke="midnightblue" points="196.97,-167.02 207.49,-168.32 200.08,-160.75 196.97,-167.02"/>
</g>
<!-- Node9&#45;&gt;Node7 -->
<g id="edge11" class="edge">
<title>Node9&#45;&gt;Node7</title>
<path fill="none" stroke="midnightblue" d="M220.52,-157.93C212.06,-121.92 194.04,-45.23 188.01,-19.57"/>
<polygon fill="midnightblue" stroke="midnightblue" points="217.21,-159.14 222.9,-168.08 224.02,-157.54 217.21,-159.14"/>
</g>
<!-- Node10 -->
<g id="node10" class="node">
<title>Node10</title>
<g id="a_node10"><a xlink:href="_map_8cpp.html" target="_top" xlink:title=" ">
<polygon fill="none" stroke="black" points="241,-112.5 241,-131.5 295,-131.5 295,-112.5 241,-112.5"/>
<text text-anchor="middle" x="268" y="-119.5" font-family="Helvetica,sans-Serif" font-size="10.00">Map.cpp</text>
</a>
</g>
</g>
<!-- Node9&#45;&gt;Node10 -->
<g id="edge10" class="edge">
<title>Node9&#45;&gt;Node10</title>
<path fill="none" stroke="midnightblue" d="M238.42,-160.14C245.91,-150.74 254.94,-139.4 261.03,-131.75"/>
<polygon fill="midnightblue" stroke="midnightblue" points="235.59,-158.08 232.1,-168.08 241.07,-162.44 235.59,-158.08"/>
</g>
</g>
</svg>
