<?xml version="1.0" encoding="UTF-8" standalone="no"?>
<!DOCTYPE svg PUBLIC "-//W3C//DTD SVG 1.1//EN"
 "http://www.w3.org/Graphics/SVG/1.1/DTD/svg11.dtd">
<!-- Generated by graphviz version 3.0.0 (20220226.1711)
 -->
<!-- Title: Shadow.h Pages: 1 -->
<svg width="349pt" height="252pt"
 viewBox="0.00 0.00 348.50 252.00" xmlns="http://www.w3.org/2000/svg" xmlns:xlink="http://www.w3.org/1999/xlink">
<g id="graph0" class="graph" transform="scale(1 1) rotate(0) translate(4 248)">
<title>Shadow.h</title>
<!-- Node1 -->
<g id="node1" class="node">
<title>Node1</title>
<g id="a_node1"><a xlink:title=" ">
<polygon fill="#bfbfbf" stroke="black" points="212.5,-224.5 212.5,-243.5 271.5,-243.5 271.5,-224.5 212.5,-224.5"/>
<text text-anchor="middle" x="242" y="-231.5" font-family="Helvetica,sans-Serif" font-size="10.00">Shadow.h</text>
</a>
</g>
</g>
<!-- Node2 -->
<g id="node2" class="node">
<title>Node2</title>
<g id="a_node2"><a xlink:href="_level_8h.html" target="_top" xlink:title=" ">
<polygon fill="none" stroke="black" points="180.5,-168.5 180.5,-187.5 227.5,-187.5 227.5,-168.5 180.5,-168.5"/>
<text text-anchor="middle" x="204" y="-175.5" font-family="Helvetica,sans-Serif" font-size="10.00">Level.h</text>
</a>
</g>
</g>
<!-- Node1&#45;&gt;Node2 -->
<g id="edge1" class="edge">
<title>Node1&#45;&gt;Node2</title>
<path fill="none" stroke="midnightblue" d="M229.94,-215.86C223.36,-206.5 215.49,-195.33 210.16,-187.75"/>
<polygon fill="midnightblue" stroke="midnightblue" points="227.11,-217.92 235.73,-224.08 232.83,-213.89 227.11,-217.92"/>
</g>
<!-- Node10 -->
<g id="node10" class="node">
<title>Node10</title>
<g id="a_node10"><a xlink:href="_combat_2_shadow_8cpp.html" target="_top" xlink:title=" ">
<polygon fill="none" stroke="black" points="246,-168.5 246,-187.5 316,-187.5 316,-168.5 246,-168.5"/>
<text text-anchor="middle" x="281" y="-175.5" font-family="Helvetica,sans-Serif" font-size="10.00">Shadow.cpp</text>
</a>
</g>
</g>
<!-- Node1&#45;&gt;Node10 -->
<g id="edge10" class="edge">
<title>Node1&#45;&gt;Node10</title>
<path fill="none" stroke="midnightblue" d="M254.38,-215.86C261.14,-206.5 269.21,-195.33 274.68,-187.75"/>
<polygon fill="midnightblue" stroke="midnightblue" points="251.46,-213.93 248.44,-224.08 257.13,-218.03 251.46,-213.93"/>
</g>
<!-- Node3 -->
<g id="node3" class="node">
<title>Node3</title>
<g id="a_node3"><a xlink:href="_collision_8h.html" target="_top" xlink:title=" ">
<polygon fill="none" stroke="black" points="86,-112.5 86,-131.5 148,-131.5 148,-112.5 86,-112.5"/>
<text text-anchor="middle" x="117" y="-119.5" font-family="Helvetica,sans-Serif" font-size="10.00">Collision.h</text>
</a>
</g>
</g>
<!-- Node2&#45;&gt;Node3 -->
<g id="edge2" class="edge">
<title>Node2&#45;&gt;Node3</title>
<path fill="none" stroke="midnightblue" d="M181.28,-162.9C165.33,-153 144.5,-140.07 130.94,-131.65"/>
<polygon fill="midnightblue" stroke="midnightblue" points="179.68,-166.02 190.02,-168.32 183.37,-160.08 179.68,-166.02"/>
</g>
<!-- Node7 -->
<g id="node7" class="node">
<title>Node7</title>
<g id="a_node7"><a xlink:href="main_8cpp.html" target="_top" xlink:title=" ">
<polygon fill="none" stroke="black" points="148,-0.5 148,-19.5 204,-19.5 204,-0.5 148,-0.5"/>
<text text-anchor="middle" x="176" y="-7.5" font-family="Helvetica,sans-Serif" font-size="10.00">main.cpp</text>
</a>
</g>
</g>
<!-- Node2&#45;&gt;Node7 -->
<g id="edge9" class="edge">
<title>Node2&#45;&gt;Node7</title>
<path fill="none" stroke="midnightblue" d="M200.12,-158.51C198.46,-150.39 196.56,-140.74 195,-132 187.49,-89.92 180.06,-39.33 177.21,-19.53"/>
<polygon fill="midnightblue" stroke="midnightblue" points="196.71,-159.31 202.17,-168.39 203.57,-157.89 196.71,-159.31"/>
</g>
<!-- Node8 -->
<g id="node8" class="node">
<title>Node8</title>
<g id="a_node8"><a xlink:href="_level_8cpp.html" target="_top" xlink:title=" ">
<polygon fill="none" stroke="black" points="204.5,-112.5 204.5,-131.5 261.5,-131.5 261.5,-112.5 204.5,-112.5"/>
<text text-anchor="middle" x="233" y="-119.5" font-family="Helvetica,sans-Serif" font-size="10.00">Level.cpp</text>
</a>
</g>
</g>
<!-- Node2&#45;&gt;Node8 -->
<g id="edge7" class="edge">
<title>Node2&#45;&gt;Node8</title>
<path fill="none" stroke="midnightblue" d="M213.68,-158.98C218.6,-149.82 224.36,-139.09 228.3,-131.75"/>
<polygon fill="midnightblue" stroke="midnightblue" points="210.44,-157.62 208.79,-168.08 216.6,-160.93 210.44,-157.62"/>
</g>
<!-- Node9 -->
<g id="node9" class="node">
<title>Node9</title>
<g id="a_node9"><a xlink:href="_nemo_8cpp.html" target="_top" xlink:title=" ">
<polygon fill="none" stroke="black" points="279.5,-112.5 279.5,-131.5 340.5,-131.5 340.5,-112.5 279.5,-112.5"/>
<text text-anchor="middle" x="310" y="-119.5" font-family="Helvetica,sans-Serif" font-size="10.00">Nemo.cpp</text>
</a>
</g>
</g>
<!-- Node2&#45;&gt;Node9 -->
<g id="edge8" class="edge">
<title>Node2&#45;&gt;Node9</title>
<path fill="none" stroke="midnightblue" d="M230.06,-163.73C249.68,-153.73 276.03,-140.31 293.01,-131.65"/>
<polygon fill="midnightblue" stroke="midnightblue" points="228.35,-160.67 221.03,-168.32 231.53,-166.9 228.35,-160.67"/>
</g>
<!-- Node4 -->
<g id="node4" class="node">
<title>Node4</title>
<g id="a_node4"><a xlink:href="_collision_8cpp.html" target="_top" xlink:title=" ">
<polygon fill="none" stroke="black" points="0,-56.5 0,-75.5 72,-75.5 72,-56.5 0,-56.5"/>
<text text-anchor="middle" x="36" y="-63.5" font-family="Helvetica,sans-Serif" font-size="10.00">Collision.cpp</text>
</a>
</g>
</g>
<!-- Node3&#45;&gt;Node4 -->
<g id="edge3" class="edge">
<title>Node3&#45;&gt;Node4</title>
<path fill="none" stroke="midnightblue" d="M95.43,-106.62C80.64,-96.76 61.49,-83.99 48.98,-75.65"/>
<polygon fill="midnightblue" stroke="midnightblue" points="93.72,-109.69 103.99,-112.32 97.61,-103.86 93.72,-109.69"/>
</g>
<!-- Node5 -->
<g id="node5" class="node">
<title>Node5</title>
<g id="a_node5"><a xlink:href="_puzzle_8h.html" target="_top" xlink:title=" ">
<polygon fill="none" stroke="black" points="90.5,-56.5 90.5,-75.5 145.5,-75.5 145.5,-56.5 90.5,-56.5"/>
<text text-anchor="middle" x="118" y="-63.5" font-family="Helvetica,sans-Serif" font-size="10.00">Puzzle.h</text>
</a>
</g>
</g>
<!-- Node3&#45;&gt;Node5 -->
<g id="edge4" class="edge">
<title>Node3&#45;&gt;Node5</title>
<path fill="none" stroke="midnightblue" d="M117.36,-101.8C117.52,-92.91 117.71,-82.78 117.84,-75.75"/>
<polygon fill="midnightblue" stroke="midnightblue" points="113.85,-102.02 117.17,-112.08 120.85,-102.15 113.85,-102.02"/>
</g>
<!-- Node6 -->
<g id="node6" class="node">
<title>Node6</title>
<g id="a_node6"><a xlink:href="_puzzle_8cpp.html" target="_top" xlink:title=" ">
<polygon fill="none" stroke="black" points="64.5,-0.5 64.5,-19.5 129.5,-19.5 129.5,-0.5 64.5,-0.5"/>
<text text-anchor="middle" x="97" y="-7.5" font-family="Helvetica,sans-Serif" font-size="10.00">Puzzle.cpp</text>
</a>
</g>
</g>
<!-- Node5&#45;&gt;Node6 -->
<g id="edge5" class="edge">
<title>Node5&#45;&gt;Node6</title>
<path fill="none" stroke="midnightblue" d="M110.88,-46.69C107.34,-37.59 103.23,-27.01 100.4,-19.75"/>
<polygon fill="midnightblue" stroke="midnightblue" points="107.65,-48.03 114.53,-56.08 114.17,-45.49 107.65,-48.03"/>
</g>
<!-- Node5&#45;&gt;Node7 -->
<g id="edge6" class="edge">
<title>Node5&#45;&gt;Node7</title>
<path fill="none" stroke="midnightblue" d="M134.91,-49.25C145.2,-39.67 157.97,-27.79 166.51,-19.83"/>
<polygon fill="midnightblue" stroke="midnightblue" points="132.25,-46.95 127.32,-56.32 137.02,-52.07 132.25,-46.95"/>
</g>
</g>
</svg>
