<?xml version="1.0" encoding="UTF-8" standalone="no"?>
<!DOCTYPE svg PUBLIC "-//W3C//DTD SVG 1.1//EN"
 "http://www.w3.org/Graphics/SVG/1.1/DTD/svg11.dtd">
<!-- Generated by graphviz version 3.0.0 (20220226.1711)
 -->
<!-- Title: Mumy.h Pages: 1 -->
<svg width="1548pt" height="140pt"
 viewBox="0.00 0.00 1548.00 140.00" xmlns="http://www.w3.org/2000/svg" xmlns:xlink="http://www.w3.org/1999/xlink">
<g id="graph0" class="graph" transform="scale(1 1) rotate(0) translate(4 136)">
<title>Mumy.h</title>
<!-- Node1 -->
<g id="node1" class="node">
<title>Node1</title>
<g id="a_node1"><a xlink:title=" ">
<polygon fill="#bfbfbf" stroke="black" points="722.5,-112.5 722.5,-131.5 774.5,-131.5 774.5,-112.5 722.5,-112.5"/>
<text text-anchor="middle" x="748.5" y="-119.5" font-family="Helvetica,sans-Serif" font-size="10.00">Mumy.h</text>
</a>
</g>
</g>
<!-- Node2 -->
<g id="node2" class="node">
<title>Node2</title>
<g id="a_node2"><a xlink:href="_i_n_c_l_u_d_e_s_8h.html" target="_top" xlink:title=" ">
<polygon fill="none" stroke="black" points="707.5,-56.5 707.5,-75.5 789.5,-75.5 789.5,-56.5 707.5,-56.5"/>
<text text-anchor="middle" x="748.5" y="-63.5" font-family="Helvetica,sans-Serif" font-size="10.00">../INCLUDES.h</text>
</a>
</g>
</g>
<!-- Node1&#45;&gt;Node2 -->
<g id="edge1" class="edge">
<title>Node1&#45;&gt;Node2</title>
<path fill="none" stroke="midnightblue" d="M748.5,-112.08C748.5,-105.01 748.5,-94.86 748.5,-85.99"/>
<polygon fill="midnightblue" stroke="midnightblue" points="752,-85.75 748.5,-75.75 745,-85.75 752,-85.75"/>
</g>
<!-- Node3 -->
<g id="node3" class="node">
<title>Node3</title>
<g id="a_node3"><a xlink:title=" ">
<polygon fill="none" stroke="#bfbfbf" points="0,-0.5 0,-19.5 49,-19.5 49,-0.5 0,-0.5"/>
<text text-anchor="middle" x="24.5" y="-7.5" font-family="Helvetica,sans-Serif" font-size="10.00">string.h</text>
</a>
</g>
</g>
<!-- Node2&#45;&gt;Node3 -->
<g id="edge2" class="edge">
<title>Node2&#45;&gt;Node3</title>
<path fill="none" stroke="midnightblue" d="M707.36,-65.08C601.32,-64.71 310.08,-59.95 59.29,-19.78"/>
<polygon fill="midnightblue" stroke="midnightblue" points="59.69,-16.3 49.26,-18.15 58.57,-23.21 59.69,-16.3"/>
</g>
<!-- Node4 -->
<g id="node4" class="node">
<title>Node4</title>
<g id="a_node4"><a xlink:title=" ">
<polygon fill="none" stroke="#bfbfbf" points="67.5,-0.5 67.5,-19.5 115.5,-19.5 115.5,-0.5 67.5,-0.5"/>
<text text-anchor="middle" x="91.5" y="-7.5" font-family="Helvetica,sans-Serif" font-size="10.00">raylib.h</text>
</a>
</g>
</g>
<!-- Node2&#45;&gt;Node4 -->
<g id="edge3" class="edge">
<title>Node2&#45;&gt;Node4</title>
<path fill="none" stroke="midnightblue" d="M707.28,-64.78C608.34,-63.68 349.57,-57.3 125.5,-19.83"/>
<polygon fill="midnightblue" stroke="midnightblue" points="125.97,-16.36 115.53,-18.13 124.8,-23.26 125.97,-16.36"/>
</g>
<!-- Node5 -->
<g id="node5" class="node">
<title>Node5</title>
<g id="a_node5"><a xlink:title=" ">
<polygon fill="none" stroke="#bfbfbf" points="133.5,-0.5 133.5,-19.5 193.5,-19.5 193.5,-0.5 133.5,-0.5"/>
<text text-anchor="middle" x="163.5" y="-7.5" font-family="Helvetica,sans-Serif" font-size="10.00">raymath.h</text>
</a>
</g>
</g>
<!-- Node2&#45;&gt;Node5 -->
<g id="edge4" class="edge">
<title>Node2&#45;&gt;Node5</title>
<path fill="none" stroke="midnightblue" d="M707.16,-63.63C617.27,-60.22 397.21,-49.5 203.72,-19.97"/>
<polygon fill="midnightblue" stroke="midnightblue" points="204.07,-16.48 193.65,-18.41 203,-23.4 204.07,-16.48"/>
</g>
<!-- Node6 -->
<g id="node6" class="node">
<title>Node6</title>
<g id="a_node6"><a xlink:title=" ">
<polygon fill="none" stroke="#bfbfbf" points="211.5,-0.5 211.5,-19.5 259.5,-19.5 259.5,-0.5 211.5,-0.5"/>
<text text-anchor="middle" x="235.5" y="-7.5" font-family="Helvetica,sans-Serif" font-size="10.00">stdlib.h</text>
</a>
</g>
</g>
<!-- Node2&#45;&gt;Node6 -->
<g id="edge5" class="edge">
<title>Node2&#45;&gt;Node6</title>
<path fill="none" stroke="midnightblue" d="M707.4,-63.54C625.66,-60.12 436.85,-49.66 269.51,-19.88"/>
<polygon fill="midnightblue" stroke="midnightblue" points="270,-16.41 259.54,-18.07 268.76,-23.3 270,-16.41"/>
</g>
<!-- Node7 -->
<g id="node7" class="node">
<title>Node7</title>
<g id="a_node7"><a xlink:title=" ">
<polygon fill="none" stroke="#bfbfbf" points="278,-0.5 278,-19.5 323,-19.5 323,-0.5 278,-0.5"/>
<text text-anchor="middle" x="300.5" y="-7.5" font-family="Helvetica,sans-Serif" font-size="10.00">cstdlib</text>
</a>
</g>
</g>
<!-- Node2&#45;&gt;Node7 -->
<g id="edge6" class="edge">
<title>Node2&#45;&gt;Node7</title>
<path fill="none" stroke="midnightblue" d="M707.42,-62.83C634.14,-58.46 476.01,-46.83 333.36,-19.83"/>
<polygon fill="midnightblue" stroke="midnightblue" points="333.6,-16.31 323.11,-17.86 332.27,-23.19 333.6,-16.31"/>
</g>
<!-- Node8 -->
<g id="node8" class="node">
<title>Node8</title>
<g id="a_node8"><a xlink:title=" ">
<polygon fill="none" stroke="#bfbfbf" points="341.5,-0.5 341.5,-19.5 387.5,-19.5 387.5,-0.5 341.5,-0.5"/>
<text text-anchor="middle" x="364.5" y="-7.5" font-family="Helvetica,sans-Serif" font-size="10.00">stdio.h</text>
</a>
</g>
</g>
<!-- Node2&#45;&gt;Node8 -->
<g id="edge7" class="edge">
<title>Node2&#45;&gt;Node8</title>
<path fill="none" stroke="midnightblue" d="M707.26,-61.71C643,-56.15 514.98,-43.35 397.69,-19.98"/>
<polygon fill="midnightblue" stroke="midnightblue" points="398.32,-16.54 387.82,-17.99 396.93,-23.4 398.32,-16.54"/>
</g>
<!-- Node9 -->
<g id="node9" class="node">
<title>Node9</title>
<g id="a_node9"><a xlink:title=" ">
<polygon fill="none" stroke="#bfbfbf" points="405.5,-0.5 405.5,-19.5 455.5,-19.5 455.5,-0.5 405.5,-0.5"/>
<text text-anchor="middle" x="430.5" y="-7.5" font-family="Helvetica,sans-Serif" font-size="10.00">config.h</text>
</a>
</g>
</g>
<!-- Node2&#45;&gt;Node9 -->
<g id="edge8" class="edge">
<title>Node2&#45;&gt;Node9</title>
<path fill="none" stroke="midnightblue" d="M707.34,-59.82C653.83,-52.78 557.31,-39.09 465.68,-20.07"/>
<polygon fill="midnightblue" stroke="midnightblue" points="466.19,-16.6 455.68,-17.97 464.75,-23.45 466.19,-16.6"/>
</g>
<!-- Node10 -->
<g id="node10" class="node">
<title>Node10</title>
<g id="a_node10"><a xlink:title=" ">
<polygon fill="none" stroke="#bfbfbf" points="474,-0.5 474,-19.5 533,-19.5 533,-0.5 474,-0.5"/>
<text text-anchor="middle" x="503.5" y="-7.5" font-family="Helvetica,sans-Serif" font-size="10.00">process.h</text>
</a>
</g>
</g>
<!-- Node2&#45;&gt;Node10 -->
<g id="edge9" class="edge">
<title>Node2&#45;&gt;Node10</title>
<path fill="none" stroke="midnightblue" d="M707.99,-56.43C668.35,-47.98 605.98,-34.56 543.4,-20.4"/>
<polygon fill="midnightblue" stroke="midnightblue" points="543.89,-16.93 533.36,-18.13 542.34,-23.75 543.89,-16.93"/>
</g>
<!-- Node11 -->
<g id="node11" class="node">
<title>Node11</title>
<g id="a_node11"><a xlink:title=" ">
<polygon fill="none" stroke="#bfbfbf" points="551,-0.5 551,-19.5 592,-19.5 592,-0.5 551,-0.5"/>
<text text-anchor="middle" x="571.5" y="-7.5" font-family="Helvetica,sans-Serif" font-size="10.00">string</text>
</a>
</g>
</g>
<!-- Node2&#45;&gt;Node11 -->
<g id="edge10" class="edge">
<title>Node2&#45;&gt;Node11</title>
<path fill="none" stroke="midnightblue" d="M720.45,-56.44C688.12,-46.58 635.17,-30.42 601.88,-20.27"/>
<polygon fill="midnightblue" stroke="midnightblue" points="602.81,-16.89 592.23,-17.32 600.77,-23.59 602.81,-16.89"/>
</g>
<!-- Node12 -->
<g id="node12" class="node">
<title>Node12</title>
<g id="a_node12"><a xlink:title=" ">
<polygon fill="none" stroke="#bfbfbf" points="610.5,-0.5 610.5,-19.5 648.5,-19.5 648.5,-0.5 610.5,-0.5"/>
<text text-anchor="middle" x="629.5" y="-7.5" font-family="Helvetica,sans-Serif" font-size="10.00">array</text>
</a>
</g>
</g>
<!-- Node2&#45;&gt;Node12 -->
<g id="edge11" class="edge">
<title>Node2&#45;&gt;Node12</title>
<path fill="none" stroke="midnightblue" d="M729.64,-56.44C710.23,-47.64 679.77,-33.81 657.54,-23.72"/>
<polygon fill="midnightblue" stroke="midnightblue" points="658.82,-20.46 648.27,-19.52 655.93,-26.84 658.82,-20.46"/>
</g>
<!-- Node13 -->
<g id="node13" class="node">
<title>Node13</title>
<g id="a_node13"><a xlink:title=" ">
<polygon fill="none" stroke="#bfbfbf" points="666.5,-0.5 666.5,-19.5 708.5,-19.5 708.5,-0.5 666.5,-0.5"/>
<text text-anchor="middle" x="687.5" y="-7.5" font-family="Helvetica,sans-Serif" font-size="10.00">vector</text>
</a>
</g>
</g>
<!-- Node2&#45;&gt;Node13 -->
<g id="edge12" class="edge">
<title>Node2&#45;&gt;Node13</title>
<path fill="none" stroke="midnightblue" d="M738.7,-56.32C729.68,-48.34 716.09,-36.31 705.18,-26.65"/>
<polygon fill="midnightblue" stroke="midnightblue" points="707.29,-23.84 697.48,-19.83 702.65,-29.08 707.29,-23.84"/>
</g>
<!-- Node14 -->
<g id="node14" class="node">
<title>Node14</title>
<g id="a_node14"><a xlink:title=" ">
<polygon fill="none" stroke="#bfbfbf" points="726.5,-0.5 726.5,-19.5 770.5,-19.5 770.5,-0.5 726.5,-0.5"/>
<text text-anchor="middle" x="748.5" y="-7.5" font-family="Helvetica,sans-Serif" font-size="10.00">cmath</text>
</a>
</g>
</g>
<!-- Node2&#45;&gt;Node14 -->
<g id="edge13" class="edge">
<title>Node2&#45;&gt;Node14</title>
<path fill="none" stroke="midnightblue" d="M748.5,-56.08C748.5,-49.01 748.5,-38.86 748.5,-29.99"/>
<polygon fill="midnightblue" stroke="midnightblue" points="752,-29.75 748.5,-19.75 745,-29.75 752,-29.75"/>
</g>
<!-- Node15 -->
<g id="node15" class="node">
<title>Node15</title>
<g id="a_node15"><a xlink:title=" ">
<polygon fill="none" stroke="#bfbfbf" points="788.5,-0.5 788.5,-19.5 840.5,-19.5 840.5,-0.5 788.5,-0.5"/>
<text text-anchor="middle" x="814.5" y="-7.5" font-family="Helvetica,sans-Serif" font-size="10.00">memory</text>
</a>
</g>
</g>
<!-- Node2&#45;&gt;Node15 -->
<g id="edge14" class="edge">
<title>Node2&#45;&gt;Node15</title>
<path fill="none" stroke="midnightblue" d="M759.1,-56.32C768.96,-48.26 783.85,-36.08 795.72,-26.37"/>
<polygon fill="midnightblue" stroke="midnightblue" points="798.18,-28.88 803.7,-19.83 793.75,-23.46 798.18,-28.88"/>
</g>
<!-- Node16 -->
<g id="node16" class="node">
<title>Node16</title>
<g id="a_node16"><a xlink:title=" ">
<polygon fill="none" stroke="#bfbfbf" points="859,-0.5 859,-19.5 900,-19.5 900,-0.5 859,-0.5"/>
<text text-anchor="middle" x="879.5" y="-7.5" font-family="Helvetica,sans-Serif" font-size="10.00">ctime</text>
</a>
</g>
</g>
<!-- Node2&#45;&gt;Node16 -->
<g id="edge15" class="edge">
<title>Node2&#45;&gt;Node16</title>
<path fill="none" stroke="midnightblue" d="M769.26,-56.44C790.82,-47.56 824.76,-33.56 849.29,-23.45"/>
<polygon fill="midnightblue" stroke="midnightblue" points="850.93,-26.56 858.84,-19.52 848.26,-20.09 850.93,-26.56"/>
</g>
<!-- Node17 -->
<g id="node17" class="node">
<title>Node17</title>
<g id="a_node17"><a xlink:title=" ">
<polygon fill="none" stroke="#bfbfbf" points="918.5,-0.5 918.5,-19.5 964.5,-19.5 964.5,-0.5 918.5,-0.5"/>
<text text-anchor="middle" x="941.5" y="-7.5" font-family="Helvetica,sans-Serif" font-size="10.00">chrono</text>
</a>
</g>
</g>
<!-- Node2&#45;&gt;Node17 -->
<g id="edge16" class="edge">
<title>Node2&#45;&gt;Node17</title>
<path fill="none" stroke="midnightblue" d="M779.07,-56.47C809.5,-47.98 857.79,-34.49 908.58,-20.25"/>
<polygon fill="midnightblue" stroke="midnightblue" points="909.75,-23.56 918.43,-17.49 907.86,-16.82 909.75,-23.56"/>
</g>
<!-- Node18 -->
<g id="node18" class="node">
<title>Node18</title>
<g id="a_node18"><a xlink:title=" ">
<polygon fill="none" stroke="#bfbfbf" points="982.5,-0.5 982.5,-19.5 1034.5,-19.5 1034.5,-0.5 982.5,-0.5"/>
<text text-anchor="middle" x="1008.5" y="-7.5" font-family="Helvetica,sans-Serif" font-size="10.00">sstream</text>
</a>
</g>
</g>
<!-- Node2&#45;&gt;Node18 -->
<g id="edge17" class="edge">
<title>Node2&#45;&gt;Node18</title>
<path fill="none" stroke="midnightblue" d="M789.7,-57.46C832.9,-49.39 902.96,-35.87 972.38,-20.17"/>
<polygon fill="midnightblue" stroke="midnightblue" points="973.19,-23.57 982.16,-17.94 971.64,-16.75 973.19,-23.57"/>
</g>
<!-- Node19 -->
<g id="node19" class="node">
<title>Node19</title>
<g id="a_node19"><a xlink:title=" ">
<polygon fill="none" stroke="#bfbfbf" points="1053,-0.5 1053,-19.5 1102,-19.5 1102,-0.5 1053,-0.5"/>
<text text-anchor="middle" x="1077.5" y="-7.5" font-family="Helvetica,sans-Serif" font-size="10.00">fstream</text>
</a>
</g>
</g>
<!-- Node2&#45;&gt;Node19 -->
<g id="edge18" class="edge">
<title>Node2&#45;&gt;Node19</title>
<path fill="none" stroke="midnightblue" d="M789.79,-60.12C845.17,-53.27 946.69,-39.62 1042.81,-19.94"/>
<polygon fill="midnightblue" stroke="midnightblue" points="1043.61,-23.35 1052.69,-17.9 1042.19,-16.5 1043.61,-23.35"/>
</g>
<!-- Node20 -->
<g id="node20" class="node">
<title>Node20</title>
<g id="a_node20"><a xlink:title=" ">
<polygon fill="none" stroke="#bfbfbf" points="1120.5,-0.5 1120.5,-19.5 1174.5,-19.5 1174.5,-0.5 1120.5,-0.5"/>
<text text-anchor="middle" x="1147.5" y="-7.5" font-family="Helvetica,sans-Serif" font-size="10.00">iostream</text>
</a>
</g>
</g>
<!-- Node2&#45;&gt;Node20 -->
<g id="edge19" class="edge">
<title>Node2&#45;&gt;Node20</title>
<path fill="none" stroke="midnightblue" d="M789.58,-61.55C855.34,-55.67 988.44,-42.3 1110.55,-19.97"/>
<polygon fill="midnightblue" stroke="midnightblue" points="1111.26,-23.4 1120.45,-18.14 1109.98,-16.52 1111.26,-23.4"/>
</g>
<!-- Node21 -->
<g id="node21" class="node">
<title>Node21</title>
<g id="a_node21"><a xlink:title=" ">
<polygon fill="none" stroke="#bfbfbf" points="1192.5,-0.5 1192.5,-19.5 1242.5,-19.5 1242.5,-0.5 1192.5,-0.5"/>
<text text-anchor="middle" x="1217.5" y="-7.5" font-family="Helvetica,sans-Serif" font-size="10.00">iomanip</text>
</a>
</g>
</g>
<!-- Node2&#45;&gt;Node21 -->
<g id="edge20" class="edge">
<title>Node2&#45;&gt;Node21</title>
<path fill="none" stroke="midnightblue" d="M789.58,-62.89C865.45,-58.52 1032.72,-46.75 1182.51,-19.91"/>
<polygon fill="midnightblue" stroke="midnightblue" points="1183.14,-23.36 1192.35,-18.12 1181.88,-16.47 1183.14,-23.36"/>
</g>
<!-- Node22 -->
<g id="node22" class="node">
<title>Node22</title>
<g id="a_node22"><a xlink:title=" ">
<polygon fill="none" stroke="#bfbfbf" points="1260.5,-0.5 1260.5,-19.5 1304.5,-19.5 1304.5,-0.5 1260.5,-0.5"/>
<text text-anchor="middle" x="1282.5" y="-7.5" font-family="Helvetica,sans-Serif" font-size="10.00">thread</text>
</a>
</g>
</g>
<!-- Node2&#45;&gt;Node22 -->
<g id="edge21" class="edge">
<title>Node2&#45;&gt;Node22</title>
<path fill="none" stroke="midnightblue" d="M789.62,-64.01C874.32,-61.39 1074.37,-52.23 1250.32,-19.87"/>
<polygon fill="midnightblue" stroke="midnightblue" points="1251.09,-23.29 1260.27,-18.01 1249.8,-16.41 1251.09,-23.29"/>
</g>
<!-- Node23 -->
<g id="node23" class="node">
<title>Node23</title>
<g id="a_node23"><a xlink:title=" ">
<polygon fill="none" stroke="#bfbfbf" points="1322.5,-0.5 1322.5,-19.5 1420.5,-19.5 1420.5,-0.5 1322.5,-0.5"/>
<text text-anchor="middle" x="1371.5" y="-7.5" font-family="Helvetica,sans-Serif" font-size="10.00">nlohmann/json.hpp</text>
</a>
</g>
</g>
<!-- Node2&#45;&gt;Node23 -->
<g id="edge22" class="edge">
<title>Node2&#45;&gt;Node23</title>
<path fill="none" stroke="midnightblue" d="M789.72,-62.77C881.59,-57.58 1110.28,-43.4 1312.28,-20.06"/>
<polygon fill="midnightblue" stroke="midnightblue" points="1312.96,-23.5 1322.49,-18.87 1312.15,-16.55 1312.96,-23.5"/>
</g>
<!-- Node24 -->
<g id="node24" class="node">
<title>Node24</title>
<g id="a_node24"><a xlink:href="_game_audio_8h.html" target="_top" xlink:title=" ">
<polygon fill="none" stroke="black" points="1439,-0.5 1439,-19.5 1540,-19.5 1540,-0.5 1439,-0.5"/>
<text text-anchor="middle" x="1489.5" y="-7.5" font-family="Helvetica,sans-Serif" font-size="10.00">Level/GameAudio.h</text>
</a>
</g>
</g>
<!-- Node2&#45;&gt;Node24 -->
<g id="edge23" class="edge">
<title>Node2&#45;&gt;Node24</title>
<path fill="none" stroke="midnightblue" d="M789.88,-63.28C895.4,-58.88 1182.24,-45.7 1420.5,-20 1423.16,-19.71 1425.88,-19.4 1428.63,-19.05"/>
<polygon fill="midnightblue" stroke="midnightblue" points="1429.23,-22.51 1438.69,-17.74 1428.32,-15.57 1429.23,-22.51"/>
</g>
<!-- Node24&#45;&gt;Node2 -->
<g id="edge24" class="edge">
<title>Node24&#45;&gt;Node2</title>
<path fill="none" stroke="midnightblue" d="M1442.63,-19.54C1441.24,-19.7 1439.86,-19.85 1438.5,-20 1200.89,-45.63 914.95,-58.81 799.94,-63.24"/>
<polygon fill="midnightblue" stroke="midnightblue" points="799.54,-59.76 789.68,-63.63 799.8,-66.75 799.54,-59.76"/>
</g>
</g>
</svg>
