<?xml version="1.0" encoding="UTF-8" standalone="no"?>
<!DOCTYPE svg PUBLIC "-//W3C//DTD SVG 1.1//EN"
 "http://www.w3.org/Graphics/SVG/1.1/DTD/svg11.dtd">
<!-- Generated by graphviz version 3.0.0 (20220226.1711)
 -->
<!-- Title: GameCharacter.h Pages: 1 -->
<svg width="464pt" height="308pt"
 viewBox="0.00 0.00 464.00 308.00" xmlns="http://www.w3.org/2000/svg" xmlns:xlink="http://www.w3.org/1999/xlink">
<g id="graph0" class="graph" transform="scale(1 1) rotate(0) translate(4 304)">
<title>GameCharacter.h</title>
<!-- Node1 -->
<g id="node1" class="node">
<title>Node1</title>
<g id="a_node1"><a xlink:title=" ">
<polygon fill="#bfbfbf" stroke="black" points="181.5,-280.5 181.5,-299.5 274.5,-299.5 274.5,-280.5 181.5,-280.5"/>
<text text-anchor="middle" x="228" y="-287.5" font-family="Helvetica,sans-Serif" font-size="10.00">GameCharacter.h</text>
</a>
</g>
</g>
<!-- Node2 -->
<g id="node2" class="node">
<title>Node2</title>
<g id="a_node2"><a xlink:href="_game_character_8cpp.html" target="_top" xlink:title=" ">
<polygon fill="none" stroke="black" points="0,-224.5 0,-243.5 104,-243.5 104,-224.5 0,-224.5"/>
<text text-anchor="middle" x="52" y="-231.5" font-family="Helvetica,sans-Serif" font-size="10.00">GameCharacter.cpp</text>
</a>
</g>
</g>
<!-- Node1&#45;&gt;Node2 -->
<g id="edge1" class="edge">
<title>Node1&#45;&gt;Node2</title>
<path fill="none" stroke="midnightblue" d="M190.31,-277.44C157.13,-267.26 109.57,-252.66 79.76,-243.52"/>
<polygon fill="midnightblue" stroke="midnightblue" points="189.53,-280.86 200.11,-280.44 191.58,-274.16 189.53,-280.86"/>
</g>
<!-- Node3 -->
<g id="node3" class="node">
<title>Node3</title>
<g id="a_node3"><a xlink:href="_combat_2_mumy_8h.html" target="_top" xlink:title=" ">
<polygon fill="none" stroke="black" points="350,-224.5 350,-243.5 402,-243.5 402,-224.5 350,-224.5"/>
<text text-anchor="middle" x="376" y="-231.5" font-family="Helvetica,sans-Serif" font-size="10.00">Mumy.h</text>
</a>
</g>
</g>
<!-- Node1&#45;&gt;Node3 -->
<g id="edge2" class="edge">
<title>Node1&#45;&gt;Node3</title>
<path fill="none" stroke="midnightblue" d="M261.15,-276.91C288.97,-266.75 328.02,-252.51 352.66,-243.52"/>
<polygon fill="midnightblue" stroke="midnightblue" points="259.65,-273.73 251.45,-280.44 262.04,-280.3 259.65,-273.73"/>
</g>
<!-- Node13 -->
<g id="node13" class="node">
<title>Node13</title>
<g id="a_node13"><a xlink:href="_combat_2_pharaoh_8h.html" target="_top" xlink:title=" ">
<polygon fill="none" stroke="black" points="122.5,-224.5 122.5,-243.5 183.5,-243.5 183.5,-224.5 122.5,-224.5"/>
<text text-anchor="middle" x="153" y="-231.5" font-family="Helvetica,sans-Serif" font-size="10.00">Pharaoh.h</text>
</a>
</g>
</g>
<!-- Node1&#45;&gt;Node13 -->
<g id="edge13" class="edge">
<title>Node1&#45;&gt;Node13</title>
<path fill="none" stroke="midnightblue" d="M207.69,-274.38C194.14,-264.62 176.76,-252.11 165.27,-243.83"/>
<polygon fill="midnightblue" stroke="midnightblue" points="205.79,-277.32 215.95,-280.32 209.88,-271.64 205.79,-277.32"/>
</g>
<!-- Node15 -->
<g id="node15" class="node">
<title>Node15</title>
<g id="a_node15"><a xlink:href="_player_8h.html" target="_top" xlink:title=" ">
<polygon fill="none" stroke="black" points="201.5,-224.5 201.5,-243.5 254.5,-243.5 254.5,-224.5 201.5,-224.5"/>
<text text-anchor="middle" x="228" y="-231.5" font-family="Helvetica,sans-Serif" font-size="10.00">Player.h</text>
</a>
</g>
</g>
<!-- Node1&#45;&gt;Node15 -->
<g id="edge16" class="edge">
<title>Node1&#45;&gt;Node15</title>
<path fill="none" stroke="midnightblue" d="M228,-269.8C228,-260.91 228,-250.78 228,-243.75"/>
<polygon fill="midnightblue" stroke="midnightblue" points="224.5,-270.08 228,-280.08 231.5,-270.08 224.5,-270.08"/>
</g>
<!-- Node17 -->
<g id="node17" class="node">
<title>Node17</title>
<g id="a_node17"><a xlink:href="_combat_2_shadow_8h.html" target="_top" xlink:title=" ">
<polygon fill="none" stroke="black" points="272.5,-224.5 272.5,-243.5 331.5,-243.5 331.5,-224.5 272.5,-224.5"/>
<text text-anchor="middle" x="302" y="-231.5" font-family="Helvetica,sans-Serif" font-size="10.00">Shadow.h</text>
</a>
</g>
</g>
<!-- Node1&#45;&gt;Node17 -->
<g id="edge19" class="edge">
<title>Node1&#45;&gt;Node17</title>
<path fill="none" stroke="midnightblue" d="M248.03,-274.38C261.41,-264.62 278.56,-252.11 289.89,-243.83"/>
<polygon fill="midnightblue" stroke="midnightblue" points="245.9,-271.6 239.89,-280.32 250.03,-277.26 245.9,-271.6"/>
</g>
<!-- Node4 -->
<g id="node4" class="node">
<title>Node4</title>
<g id="a_node4"><a xlink:href="_level_8h.html" target="_top" xlink:title=" ">
<polygon fill="none" stroke="black" points="240.5,-168.5 240.5,-187.5 287.5,-187.5 287.5,-168.5 240.5,-168.5"/>
<text text-anchor="middle" x="264" y="-175.5" font-family="Helvetica,sans-Serif" font-size="10.00">Level.h</text>
</a>
</g>
</g>
<!-- Node3&#45;&gt;Node4 -->
<g id="edge3" class="edge">
<title>Node3&#45;&gt;Node4</title>
<path fill="none" stroke="midnightblue" d="M348.75,-219.86C327.98,-209.85 299.98,-196.35 281.95,-187.65"/>
<polygon fill="midnightblue" stroke="midnightblue" points="347.48,-223.13 358.01,-224.32 350.52,-216.83 347.48,-223.13"/>
</g>
<!-- Node12 -->
<g id="node12" class="node">
<title>Node12</title>
<g id="a_node12"><a xlink:href="_combat_2_mumy_8cpp.html" target="_top" xlink:title=" ">
<polygon fill="none" stroke="black" points="394,-168.5 394,-187.5 456,-187.5 456,-168.5 394,-168.5"/>
<text text-anchor="middle" x="425" y="-175.5" font-family="Helvetica,sans-Serif" font-size="10.00">Mumy.cpp</text>
</a>
</g>
</g>
<!-- Node3&#45;&gt;Node12 -->
<g id="edge12" class="edge">
<title>Node3&#45;&gt;Node12</title>
<path fill="none" stroke="midnightblue" d="M391.03,-216.43C399.62,-206.97 410.04,-195.48 417.06,-187.75"/>
<polygon fill="midnightblue" stroke="midnightblue" points="388.22,-214.33 384.09,-224.08 393.4,-219.03 388.22,-214.33"/>
</g>
<!-- Node5 -->
<g id="node5" class="node">
<title>Node5</title>
<g id="a_node5"><a xlink:href="_collision_8h.html" target="_top" xlink:title=" ">
<polygon fill="none" stroke="black" points="140,-112.5 140,-131.5 202,-131.5 202,-112.5 140,-112.5"/>
<text text-anchor="middle" x="171" y="-119.5" font-family="Helvetica,sans-Serif" font-size="10.00">Collision.h</text>
</a>
</g>
</g>
<!-- Node4&#45;&gt;Node5 -->
<g id="edge4" class="edge">
<title>Node4&#45;&gt;Node5</title>
<path fill="none" stroke="midnightblue" d="M240.19,-163.18C223.08,-153.24 200.53,-140.15 185.9,-131.65"/>
<polygon fill="midnightblue" stroke="midnightblue" points="238.65,-166.33 249.06,-168.32 242.17,-160.28 238.65,-166.33"/>
</g>
<!-- Node9 -->
<g id="node9" class="node">
<title>Node9</title>
<g id="a_node9"><a xlink:href="main_8cpp.html" target="_top" xlink:title=" ">
<polygon fill="none" stroke="black" points="173,-0.5 173,-19.5 229,-19.5 229,-0.5 173,-0.5"/>
<text text-anchor="middle" x="201" y="-7.5" font-family="Helvetica,sans-Serif" font-size="10.00">main.cpp</text>
</a>
</g>
</g>
<!-- Node4&#45;&gt;Node9 -->
<g id="edge11" class="edge">
<title>Node4&#45;&gt;Node9</title>
<path fill="none" stroke="midnightblue" d="M256.94,-158.39C243.35,-122.59 214.03,-45.34 204.25,-19.57"/>
<polygon fill="midnightblue" stroke="midnightblue" points="253.79,-159.97 260.61,-168.08 260.34,-157.48 253.79,-159.97"/>
</g>
<!-- Node10 -->
<g id="node10" class="node">
<title>Node10</title>
<g id="a_node10"><a xlink:href="_level_8cpp.html" target="_top" xlink:title=" ">
<polygon fill="none" stroke="black" points="263.5,-112.5 263.5,-131.5 320.5,-131.5 320.5,-112.5 263.5,-112.5"/>
<text text-anchor="middle" x="292" y="-119.5" font-family="Helvetica,sans-Serif" font-size="10.00">Level.cpp</text>
</a>
</g>
</g>
<!-- Node4&#45;&gt;Node10 -->
<g id="edge9" class="edge">
<title>Node4&#45;&gt;Node10</title>
<path fill="none" stroke="midnightblue" d="M273.34,-158.98C278.09,-149.82 283.66,-139.09 287.46,-131.75"/>
<polygon fill="midnightblue" stroke="midnightblue" points="270.12,-157.59 268.62,-168.08 276.33,-160.82 270.12,-157.59"/>
</g>
<!-- Node11 -->
<g id="node11" class="node">
<title>Node11</title>
<g id="a_node11"><a xlink:href="_nemo_8cpp.html" target="_top" xlink:title=" ">
<polygon fill="none" stroke="black" points="338.5,-112.5 338.5,-131.5 399.5,-131.5 399.5,-112.5 338.5,-112.5"/>
<text text-anchor="middle" x="369" y="-119.5" font-family="Helvetica,sans-Serif" font-size="10.00">Nemo.cpp</text>
</a>
</g>
</g>
<!-- Node4&#45;&gt;Node11 -->
<g id="edge10" class="edge">
<title>Node4&#45;&gt;Node11</title>
<path fill="none" stroke="midnightblue" d="M289.81,-163.73C309.25,-153.73 335.35,-140.31 352.17,-131.65"/>
<polygon fill="midnightblue" stroke="midnightblue" points="288.16,-160.64 280.87,-168.32 291.36,-166.86 288.16,-160.64"/>
</g>
<!-- Node6 -->
<g id="node6" class="node">
<title>Node6</title>
<g id="a_node6"><a xlink:href="_collision_8cpp.html" target="_top" xlink:title=" ">
<polygon fill="none" stroke="black" points="135,-56.5 135,-75.5 207,-75.5 207,-56.5 135,-56.5"/>
<text text-anchor="middle" x="171" y="-63.5" font-family="Helvetica,sans-Serif" font-size="10.00">Collision.cpp</text>
</a>
</g>
</g>
<!-- Node5&#45;&gt;Node6 -->
<g id="edge5" class="edge">
<title>Node5&#45;&gt;Node6</title>
<path fill="none" stroke="midnightblue" d="M171,-101.8C171,-92.91 171,-82.78 171,-75.75"/>
<polygon fill="midnightblue" stroke="midnightblue" points="167.5,-102.08 171,-112.08 174.5,-102.08 167.5,-102.08"/>
</g>
<!-- Node7 -->
<g id="node7" class="node">
<title>Node7</title>
<g id="a_node7"><a xlink:href="_puzzle_8h.html" target="_top" xlink:title=" ">
<polygon fill="none" stroke="black" points="61.5,-56.5 61.5,-75.5 116.5,-75.5 116.5,-56.5 61.5,-56.5"/>
<text text-anchor="middle" x="89" y="-63.5" font-family="Helvetica,sans-Serif" font-size="10.00">Puzzle.h</text>
</a>
</g>
</g>
<!-- Node5&#45;&gt;Node7 -->
<g id="edge6" class="edge">
<title>Node5&#45;&gt;Node7</title>
<path fill="none" stroke="midnightblue" d="M149.17,-106.62C134.19,-96.76 114.8,-83.99 102.14,-75.65"/>
<polygon fill="midnightblue" stroke="midnightblue" points="147.55,-109.75 157.83,-112.32 151.4,-103.9 147.55,-109.75"/>
</g>
<!-- Node8 -->
<g id="node8" class="node">
<title>Node8</title>
<g id="a_node8"><a xlink:href="_puzzle_8cpp.html" target="_top" xlink:title=" ">
<polygon fill="none" stroke="black" points="56.5,-0.5 56.5,-19.5 121.5,-19.5 121.5,-0.5 56.5,-0.5"/>
<text text-anchor="middle" x="89" y="-7.5" font-family="Helvetica,sans-Serif" font-size="10.00">Puzzle.cpp</text>
</a>
</g>
</g>
<!-- Node7&#45;&gt;Node8 -->
<g id="edge7" class="edge">
<title>Node7&#45;&gt;Node8</title>
<path fill="none" stroke="midnightblue" d="M89,-45.8C89,-36.91 89,-26.78 89,-19.75"/>
<polygon fill="midnightblue" stroke="midnightblue" points="85.5,-46.08 89,-56.08 92.5,-46.08 85.5,-46.08"/>
</g>
<!-- Node7&#45;&gt;Node9 -->
<g id="edge8" class="edge">
<title>Node7&#45;&gt;Node9</title>
<path fill="none" stroke="midnightblue" d="M116.25,-51.86C137.02,-41.85 165.02,-28.35 183.05,-19.65"/>
<polygon fill="midnightblue" stroke="midnightblue" points="114.48,-48.83 106.99,-56.32 117.52,-55.13 114.48,-48.83"/>
</g>
<!-- Node13&#45;&gt;Node4 -->
<g id="edge14" class="edge">
<title>Node13&#45;&gt;Node4</title>
<path fill="none" stroke="midnightblue" d="M180.01,-219.86C200.59,-209.85 228.34,-196.35 246.21,-187.65"/>
<polygon fill="midnightblue" stroke="midnightblue" points="178.3,-216.8 170.83,-224.32 181.36,-223.1 178.3,-216.8"/>
</g>
<!-- Node14 -->
<g id="node14" class="node">
<title>Node14</title>
<g id="a_node14"><a xlink:href="_combat_2_pharaoh_8cpp.html" target="_top" xlink:title=" ">
<polygon fill="none" stroke="black" points="70.5,-168.5 70.5,-187.5 141.5,-187.5 141.5,-168.5 70.5,-168.5"/>
<text text-anchor="middle" x="106" y="-175.5" font-family="Helvetica,sans-Serif" font-size="10.00">Pharaoh.cpp</text>
</a>
</g>
</g>
<!-- Node13&#45;&gt;Node14 -->
<g id="edge15" class="edge">
<title>Node13&#45;&gt;Node14</title>
<path fill="none" stroke="midnightblue" d="M138.58,-216.43C130.34,-206.97 120.35,-195.48 113.62,-187.75"/>
<polygon fill="midnightblue" stroke="midnightblue" points="136.03,-218.84 145.24,-224.08 141.31,-214.24 136.03,-218.84"/>
</g>
<!-- Node15&#45;&gt;Node4 -->
<g id="edge17" class="edge">
<title>Node15&#45;&gt;Node4</title>
<path fill="none" stroke="midnightblue" d="M239.62,-215.57C245.82,-206.27 253.17,-195.25 258.17,-187.75"/>
<polygon fill="midnightblue" stroke="midnightblue" points="236.58,-213.82 233.94,-224.08 242.4,-217.7 236.58,-213.82"/>
</g>
<!-- Node16 -->
<g id="node16" class="node">
<title>Node16</title>
<g id="a_node16"><a xlink:href="_player_8cpp.html" target="_top" xlink:title=" ">
<polygon fill="none" stroke="black" points="159.5,-168.5 159.5,-187.5 222.5,-187.5 222.5,-168.5 159.5,-168.5"/>
<text text-anchor="middle" x="191" y="-175.5" font-family="Helvetica,sans-Serif" font-size="10.00">Player.cpp</text>
</a>
</g>
</g>
<!-- Node15&#45;&gt;Node16 -->
<g id="edge18" class="edge">
<title>Node15&#45;&gt;Node16</title>
<path fill="none" stroke="midnightblue" d="M216.05,-215.57C209.69,-206.27 202.13,-195.25 197,-187.75"/>
<polygon fill="midnightblue" stroke="midnightblue" points="213.35,-217.81 221.89,-224.08 219.13,-213.86 213.35,-217.81"/>
</g>
<!-- Node17&#45;&gt;Node4 -->
<g id="edge20" class="edge">
<title>Node17&#45;&gt;Node4</title>
<path fill="none" stroke="midnightblue" d="M289.94,-215.86C283.36,-206.5 275.49,-195.33 270.16,-187.75"/>
<polygon fill="midnightblue" stroke="midnightblue" points="287.11,-217.92 295.73,-224.08 292.83,-213.89 287.11,-217.92"/>
</g>
<!-- Node18 -->
<g id="node18" class="node">
<title>Node18</title>
<g id="a_node18"><a xlink:href="_combat_2_shadow_8cpp.html" target="_top" xlink:title=" ">
<polygon fill="none" stroke="black" points="306,-168.5 306,-187.5 376,-187.5 376,-168.5 306,-168.5"/>
<text text-anchor="middle" x="341" y="-175.5" font-family="Helvetica,sans-Serif" font-size="10.00">Shadow.cpp</text>
</a>
</g>
</g>
<!-- Node17&#45;&gt;Node18 -->
<g id="edge21" class="edge">
<title>Node17&#45;&gt;Node18</title>
<path fill="none" stroke="midnightblue" d="M314.38,-215.86C321.14,-206.5 329.21,-195.33 334.68,-187.75"/>
<polygon fill="midnightblue" stroke="midnightblue" points="311.46,-213.93 308.44,-224.08 317.13,-218.03 311.46,-213.93"/>
</g>
</g>
</svg>
