<?xml version="1.0" encoding="UTF-8" standalone="no"?>
<!DOCTYPE svg PUBLIC "-//W3C//DTD SVG 1.1//EN"
 "http://www.w3.org/Graphics/SVG/1.1/DTD/svg11.dtd">
<!-- Generated by graphviz version 3.0.0 (20220226.1711)
 -->
<!-- Title: GameAudio.h Pages: 1 -->
<svg width="1486pt" height="476pt"
 viewBox="0.00 0.00 1486.00 476.00" xmlns="http://www.w3.org/2000/svg" xmlns:xlink="http://www.w3.org/1999/xlink">
<g id="graph0" class="graph" transform="scale(1 1) rotate(0) translate(4 472)">
<title>GameAudio.h</title>
<!-- Node1 -->
<g id="node1" class="node">
<title>Node1</title>
<g id="a_node1"><a xlink:title=" ">
<polygon fill="#bfbfbf" stroke="black" points="728,-448.5 728,-467.5 804,-467.5 804,-448.5 728,-448.5"/>
<text text-anchor="middle" x="766" y="-455.5" font-family="Helvetica,sans-Serif" font-size="10.00">GameAudio.h</text>
</a>
</g>
</g>
<!-- Node2 -->
<g id="node2" class="node">
<title>Node2</title>
<g id="a_node2"><a xlink:href="_game_audio_8cpp.html" target="_top" xlink:title=" ">
<polygon fill="none" stroke="black" points="0,-392.5 0,-411.5 86,-411.5 86,-392.5 0,-392.5"/>
<text text-anchor="middle" x="43" y="-399.5" font-family="Helvetica,sans-Serif" font-size="10.00">GameAudio.cpp</text>
</a>
</g>
</g>
<!-- Node1&#45;&gt;Node2 -->
<g id="edge1" class="edge">
<title>Node1&#45;&gt;Node2</title>
<path fill="none" stroke="midnightblue" d="M717.88,-455.22C608.06,-450.84 330.66,-437.95 100,-412 95.52,-411.5 90.85,-410.89 86.21,-410.24"/>
<polygon fill="midnightblue" stroke="midnightblue" points="717.84,-458.72 727.97,-455.62 718.12,-451.73 717.84,-458.72"/>
</g>
<!-- Node3 -->
<g id="node3" class="node">
<title>Node3</title>
<g id="a_node3"><a xlink:href="_i_n_c_l_u_d_e_s_8h.html" target="_top" xlink:title=" ">
<polygon fill="none" stroke="black" points="729.5,-392.5 729.5,-411.5 802.5,-411.5 802.5,-392.5 729.5,-392.5"/>
<text text-anchor="middle" x="766" y="-399.5" font-family="Helvetica,sans-Serif" font-size="10.00">INCLUDES.h</text>
</a>
</g>
</g>
<!-- Node1&#45;&gt;Node3 -->
<g id="edge2" class="edge">
<title>Node1&#45;&gt;Node3</title>
<path fill="none" stroke="midnightblue" d="M759.53,-438.1C758.9,-429.14 759.34,-418.86 760.87,-411.75"/>
<polygon fill="midnightblue" stroke="midnightblue" points="756.07,-438.62 760.83,-448.08 763.01,-437.71 756.07,-438.62"/>
</g>
<!-- Node8 -->
<g id="node8" class="node">
<title>Node8</title>
<g id="a_node8"><a xlink:href="main_8cpp.html" target="_top" xlink:title=" ">
<polygon fill="none" stroke="black" points="1005,-0.5 1005,-19.5 1061,-19.5 1061,-0.5 1005,-0.5"/>
<text text-anchor="middle" x="1033" y="-7.5" font-family="Helvetica,sans-Serif" font-size="10.00">main.cpp</text>
</a>
</g>
</g>
<!-- Node1&#45;&gt;Node8 -->
<g id="edge67" class="edge">
<title>Node1&#45;&gt;Node8</title>
<path fill="none" stroke="midnightblue" d="M814.33,-454.64C974.52,-446.2 1478,-414.31 1478,-347 1478,-347 1478,-347 1478,-121 1478,-34.75 1158.99,-15.7 1061.17,-11.88"/>
<polygon fill="midnightblue" stroke="midnightblue" points="814.08,-451.15 804.28,-455.17 814.45,-458.14 814.08,-451.15"/>
</g>
<!-- Node28 -->
<g id="node28" class="node">
<title>Node28</title>
<g id="a_node28"><a xlink:href="_nemo_8h.html" target="_top" xlink:title=" ">
<polygon fill="none" stroke="black" points="206,-224.5 206,-243.5 256,-243.5 256,-224.5 206,-224.5"/>
<text text-anchor="middle" x="231" y="-231.5" font-family="Helvetica,sans-Serif" font-size="10.00">Nemo.h</text>
</a>
</g>
</g>
<!-- Node1&#45;&gt;Node28 -->
<g id="edge66" class="edge">
<title>Node1&#45;&gt;Node28</title>
<path fill="none" stroke="midnightblue" d="M717.86,-457.76C624.22,-457.09 413.98,-444.89 268,-356 240.73,-339.39 233.6,-330.12 223,-300 216.2,-280.7 222.92,-256.4 227.51,-243.68"/>
<polygon fill="midnightblue" stroke="midnightblue" points="717.88,-461.26 727.89,-457.79 717.9,-454.26 717.88,-461.26"/>
</g>
<!-- Node3&#45;&gt;Node1 -->
<g id="edge15" class="edge">
<title>Node3&#45;&gt;Node1</title>
<path fill="none" stroke="midnightblue" d="M772.46,-421.69C773.11,-430.64 772.68,-440.93 771.17,-448.08"/>
<polygon fill="midnightblue" stroke="midnightblue" points="775.92,-421.2 771.13,-411.75 768.98,-422.13 775.92,-421.2"/>
</g>
<!-- Node4 -->
<g id="node4" class="node">
<title>Node4</title>
<g id="a_node4"><a xlink:href="_collision_8h.html" target="_top" xlink:title=" ">
<polygon fill="none" stroke="black" points="213,-112.5 213,-131.5 275,-131.5 275,-112.5 213,-112.5"/>
<text text-anchor="middle" x="244" y="-119.5" font-family="Helvetica,sans-Serif" font-size="10.00">Collision.h</text>
</a>
</g>
</g>
<!-- Node3&#45;&gt;Node4 -->
<g id="edge3" class="edge">
<title>Node3&#45;&gt;Node4</title>
<path fill="none" stroke="midnightblue" d="M719.32,-399.27C612.2,-394.9 351.56,-381.89 268,-356 211.55,-338.51 152,-350.1 152,-291 152,-291 152,-291 152,-233 152,-185.7 202.68,-148.02 228.81,-131.73"/>
<polygon fill="midnightblue" stroke="midnightblue" points="719.37,-402.78 729.5,-399.68 719.65,-395.78 719.37,-402.78"/>
</g>
<!-- Node6 -->
<g id="node6" class="node">
<title>Node6</title>
<g id="a_node6"><a xlink:href="_puzzle_8h.html" target="_top" xlink:title=" ">
<polygon fill="none" stroke="black" points="132.5,-56.5 132.5,-75.5 187.5,-75.5 187.5,-56.5 132.5,-56.5"/>
<text text-anchor="middle" x="160" y="-63.5" font-family="Helvetica,sans-Serif" font-size="10.00">Puzzle.h</text>
</a>
</g>
</g>
<!-- Node3&#45;&gt;Node6 -->
<g id="edge49" class="edge">
<title>Node3&#45;&gt;Node6</title>
<path fill="none" stroke="midnightblue" d="M719.34,-400.35C598.56,-398.19 278.15,-389.4 178,-356 127,-338.99 76,-344.76 76,-291 76,-291 76,-291 76,-177 76,-130.86 123.25,-92.06 146.88,-75.54"/>
<polygon fill="midnightblue" stroke="midnightblue" points="719.32,-403.85 729.38,-400.52 719.44,-396.85 719.32,-403.85"/>
</g>
<!-- Node3&#45;&gt;Node8 -->
<g id="edge65" class="edge">
<title>Node3&#45;&gt;Node8</title>
<path fill="none" stroke="midnightblue" d="M813.16,-399.48C947.78,-394.87 1327.41,-379.89 1378,-356 1414.1,-338.95 1440,-330.92 1440,-291 1440,-291 1440,-291 1440,-121 1440,-42.41 1153.59,-18.27 1061.3,-12.53"/>
<polygon fill="midnightblue" stroke="midnightblue" points="812.65,-396 802.78,-399.83 812.89,-402.99 812.65,-396"/>
</g>
<!-- Node9 -->
<g id="node9" class="node">
<title>Node9</title>
<g id="a_node9"><a xlink:href="_endscreen_8h.html" target="_top" xlink:title=" ">
<polygon fill="none" stroke="black" points="569.5,-336.5 569.5,-355.5 640.5,-355.5 640.5,-336.5 569.5,-336.5"/>
<text text-anchor="middle" x="605" y="-343.5" font-family="Helvetica,sans-Serif" font-size="10.00">Endscreen.h</text>
</a>
</g>
</g>
<!-- Node3&#45;&gt;Node9 -->
<g id="edge8" class="edge">
<title>Node3&#45;&gt;Node9</title>
<path fill="none" stroke="midnightblue" d="M730.74,-389.17C700.42,-379 657.43,-364.59 630.39,-355.52"/>
<polygon fill="midnightblue" stroke="midnightblue" points="729.9,-392.58 740.49,-392.44 732.12,-385.95 729.9,-392.58"/>
</g>
<!-- Node11 -->
<g id="node11" class="node">
<title>Node11</title>
<g id="a_node11"><a xlink:href="_level_8h.html" target="_top" xlink:title=" ">
<polygon fill="none" stroke="black" points="502.5,-168.5 502.5,-187.5 549.5,-187.5 549.5,-168.5 502.5,-168.5"/>
<text text-anchor="middle" x="526" y="-175.5" font-family="Helvetica,sans-Serif" font-size="10.00">Level.h</text>
</a>
</g>
</g>
<!-- Node3&#45;&gt;Node11 -->
<g id="edge33" class="edge">
<title>Node3&#45;&gt;Node11</title>
<path fill="none" stroke="midnightblue" d="M718.94,-396.17C665.55,-389.78 582.93,-376.83 560,-356 510.2,-310.76 520.07,-216.67 524.51,-187.69"/>
<polygon fill="midnightblue" stroke="midnightblue" points="718.86,-399.69 729.2,-397.36 719.67,-392.73 718.86,-399.69"/>
</g>
<!-- Node14 -->
<g id="node14" class="node">
<title>Node14</title>
<g id="a_node14"><a xlink:href="_game_character_8h.html" target="_top" xlink:title=" ">
<polygon fill="none" stroke="black" points="664.5,-280.5 664.5,-299.5 757.5,-299.5 757.5,-280.5 664.5,-280.5"/>
<text text-anchor="middle" x="711" y="-287.5" font-family="Helvetica,sans-Serif" font-size="10.00">GameCharacter.h</text>
</a>
</g>
</g>
<!-- Node3&#45;&gt;Node14 -->
<g id="edge16" class="edge">
<title>Node3&#45;&gt;Node14</title>
<path fill="none" stroke="midnightblue" d="M757.16,-383.32C745.18,-359.37 724.27,-317.55 715.3,-299.59"/>
<polygon fill="midnightblue" stroke="midnightblue" points="754.08,-384.99 761.68,-392.37 760.34,-381.86 754.08,-384.99"/>
</g>
<!-- Node16 -->
<g id="node16" class="node">
<title>Node16</title>
<g id="a_node16"><a xlink:href="_combat_2_mumy_8h.html" target="_top" xlink:title=" ">
<polygon fill="none" stroke="black" points="764,-224.5 764,-243.5 816,-243.5 816,-224.5 764,-224.5"/>
<text text-anchor="middle" x="790" y="-231.5" font-family="Helvetica,sans-Serif" font-size="10.00">Mumy.h</text>
</a>
</g>
</g>
<!-- Node3&#45;&gt;Node16 -->
<g id="edge34" class="edge">
<title>Node3&#45;&gt;Node16</title>
<path fill="none" stroke="midnightblue" d="M782.18,-384.96C789.1,-376.98 796.4,-366.75 800,-356 813.47,-315.83 799.62,-264.15 793.05,-243.79"/>
<polygon fill="midnightblue" stroke="midnightblue" points="779.52,-382.68 775.29,-392.39 784.65,-387.44 779.52,-382.68"/>
</g>
<!-- Node18 -->
<g id="node18" class="node">
<title>Node18</title>
<g id="a_node18"><a xlink:href="_combat_2_pharaoh_8h.html" target="_top" xlink:title=" ">
<polygon fill="none" stroke="black" points="834.5,-224.5 834.5,-243.5 895.5,-243.5 895.5,-224.5 834.5,-224.5"/>
<text text-anchor="middle" x="865" y="-231.5" font-family="Helvetica,sans-Serif" font-size="10.00">Pharaoh.h</text>
</a>
</g>
</g>
<!-- Node3&#45;&gt;Node18 -->
<g id="edge44" class="edge">
<title>Node3&#45;&gt;Node18</title>
<path fill="none" stroke="midnightblue" d="M786.91,-386.27C797.07,-378.26 808.83,-367.62 817,-356 843.38,-318.47 858.11,-264.38 863.07,-243.59"/>
<polygon fill="midnightblue" stroke="midnightblue" points="784.73,-383.53 778.86,-392.35 788.95,-389.12 784.73,-383.53"/>
</g>
<!-- Node20 -->
<g id="node20" class="node">
<title>Node20</title>
<g id="a_node20"><a xlink:href="_player_8h.html" target="_top" xlink:title=" ">
<polygon fill="none" stroke="black" points="416.5,-224.5 416.5,-243.5 469.5,-243.5 469.5,-224.5 416.5,-224.5"/>
<text text-anchor="middle" x="443" y="-231.5" font-family="Helvetica,sans-Serif" font-size="10.00">Player.h</text>
</a>
</g>
</g>
<!-- Node3&#45;&gt;Node20 -->
<g id="edge48" class="edge">
<title>Node3&#45;&gt;Node20</title>
<path fill="none" stroke="midnightblue" d="M719.29,-399.28C648.54,-395.74 518.75,-385.34 484,-356 449.09,-326.52 443.81,-266.14 443.09,-243.67"/>
<polygon fill="midnightblue" stroke="midnightblue" points="719.13,-402.77 729.29,-399.75 719.46,-395.78 719.13,-402.77"/>
</g>
<!-- Node22 -->
<g id="node22" class="node">
<title>Node22</title>
<g id="a_node22"><a xlink:href="_combat_2_shadow_8h.html" target="_top" xlink:title=" ">
<polygon fill="none" stroke="black" points="686.5,-224.5 686.5,-243.5 745.5,-243.5 745.5,-224.5 686.5,-224.5"/>
<text text-anchor="middle" x="716" y="-231.5" font-family="Helvetica,sans-Serif" font-size="10.00">Shadow.h</text>
</a>
</g>
</g>
<!-- Node3&#45;&gt;Node22 -->
<g id="edge50" class="edge">
<title>Node3&#45;&gt;Node22</title>
<path fill="none" stroke="midnightblue" d="M770.48,-382.48C775.45,-357.88 780.97,-313.62 766,-280 758.87,-264 742.93,-251.3 730.95,-243.53"/>
<polygon fill="midnightblue" stroke="midnightblue" points="767.05,-381.77 768.3,-392.29 773.88,-383.29 767.05,-381.77"/>
</g>
<!-- Node24 -->
<g id="node24" class="node">
<title>Node24</title>
<g id="a_node24"><a xlink:href="_inventory_8h.html" target="_top" xlink:title=" ">
<polygon fill="none" stroke="black" points="895.5,-336.5 895.5,-355.5 958.5,-355.5 958.5,-336.5 895.5,-336.5"/>
<text text-anchor="middle" x="927" y="-343.5" font-family="Helvetica,sans-Serif" font-size="10.00">Inventory.h</text>
</a>
</g>
</g>
<!-- Node3&#45;&gt;Node24 -->
<g id="edge30" class="edge">
<title>Node3&#45;&gt;Node24</title>
<path fill="none" stroke="midnightblue" d="M801.26,-389.17C831.58,-379 874.57,-364.59 901.61,-355.52"/>
<polygon fill="midnightblue" stroke="midnightblue" points="799.88,-385.95 791.51,-392.44 802.1,-392.58 799.88,-385.95"/>
</g>
<!-- Node26 -->
<g id="node26" class="node">
<title>Node26</title>
<g id="a_node26"><a xlink:href="_enemy_01_overworld_01_sprites_2_mumy_8h.html" target="_top" xlink:title=" ">
<polygon fill="none" stroke="black" points="1063,-336.5 1063,-355.5 1115,-355.5 1115,-336.5 1063,-336.5"/>
<text text-anchor="middle" x="1089" y="-343.5" font-family="Helvetica,sans-Serif" font-size="10.00">Mumy.h</text>
</a>
</g>
</g>
<!-- Node3&#45;&gt;Node26 -->
<g id="edge35" class="edge">
<title>Node3&#45;&gt;Node26</title>
<path fill="none" stroke="midnightblue" d="M812.69,-393.98C868,-385.54 962.87,-370.67 1044,-356 1050.12,-354.89 1056.68,-353.63 1062.86,-352.4"/>
<polygon fill="midnightblue" stroke="midnightblue" points="811.86,-390.57 802.5,-395.53 812.92,-397.49 811.86,-390.57"/>
</g>
<!-- Node3&#45;&gt;Node28 -->
<g id="edge38" class="edge">
<title>Node3&#45;&gt;Node28</title>
<path fill="none" stroke="midnightblue" d="M718.85,-401.04C640.68,-399.97 479.96,-392.96 350,-356 294.55,-340.23 264.48,-348.3 233,-300 221.78,-282.79 225.5,-257.19 228.59,-243.84"/>
<polygon fill="midnightblue" stroke="midnightblue" points="719.29,-404.54 729.32,-401.15 719.36,-397.54 719.29,-404.54"/>
</g>
<!-- Node29 -->
<g id="node29" class="node">
<title>Node29</title>
<g id="a_node29"><a xlink:href="_enemy_01_overworld_01_sprites_2_pharaoh_8h.html" target="_top" xlink:title=" ">
<polygon fill="none" stroke="black" points="1181.5,-336.5 1181.5,-355.5 1242.5,-355.5 1242.5,-336.5 1181.5,-336.5"/>
<text text-anchor="middle" x="1212" y="-343.5" font-family="Helvetica,sans-Serif" font-size="10.00">Pharaoh.h</text>
</a>
</g>
</g>
<!-- Node3&#45;&gt;Node29 -->
<g id="edge45" class="edge">
<title>Node3&#45;&gt;Node29</title>
<path fill="none" stroke="midnightblue" d="M812.97,-395.31C904.59,-384.22 1104.85,-359.97 1181.41,-350.7"/>
<polygon fill="midnightblue" stroke="midnightblue" points="812.38,-391.86 802.88,-396.54 813.23,-398.81 812.38,-391.86"/>
</g>
<!-- Node31 -->
<g id="node31" class="node">
<title>Node31</title>
<g id="a_node31"><a xlink:href="_enemy_01_overworld_01_sprites_2_shadow_8h.html" target="_top" xlink:title=" ">
<polygon fill="none" stroke="black" points="1309.5,-336.5 1309.5,-355.5 1368.5,-355.5 1368.5,-336.5 1309.5,-336.5"/>
<text text-anchor="middle" x="1339" y="-343.5" font-family="Helvetica,sans-Serif" font-size="10.00">Shadow.h</text>
</a>
</g>
</g>
<!-- Node3&#45;&gt;Node31 -->
<g id="edge51" class="edge">
<title>Node3&#45;&gt;Node31</title>
<path fill="none" stroke="midnightblue" d="M812.62,-396.85C899.22,-389.11 1090.74,-371.81 1252,-356 1271.04,-354.13 1292.41,-351.92 1309.21,-350.16"/>
<polygon fill="midnightblue" stroke="midnightblue" points="812.24,-393.37 802.59,-397.75 812.86,-400.34 812.24,-393.37"/>
</g>
<!-- Node33 -->
<g id="node33" class="node">
<title>Node33</title>
<g id="a_node33"><a xlink:href="_sprite_8h.html" target="_top" xlink:title=" ">
<polygon fill="none" stroke="black" points="359,-336.5 359,-355.5 409,-355.5 409,-336.5 359,-336.5"/>
<text text-anchor="middle" x="384" y="-343.5" font-family="Helvetica,sans-Serif" font-size="10.00">Sprite.h</text>
</a>
</g>
</g>
<!-- Node3&#45;&gt;Node33 -->
<g id="edge54" class="edge">
<title>Node3&#45;&gt;Node33</title>
<path fill="none" stroke="midnightblue" d="M719.11,-394.47C656.74,-385.78 543.06,-369.87 446,-356 433.83,-354.26 420.33,-352.3 409.03,-350.66"/>
<polygon fill="midnightblue" stroke="midnightblue" points="718.65,-397.94 729.04,-395.86 719.62,-391.01 718.65,-397.94"/>
</g>
<!-- Node35 -->
<g id="node35" class="node">
<title>Node35</title>
<g id="a_node35"><a xlink:href="_u_i_8h.html" target="_top" xlink:title=" ">
<polygon fill="none" stroke="black" points="1020,-224.5 1020,-243.5 1054,-243.5 1054,-224.5 1020,-224.5"/>
<text text-anchor="middle" x="1037" y="-231.5" font-family="Helvetica,sans-Serif" font-size="10.00">UI.h</text>
</a>
</g>
</g>
<!-- Node3&#45;&gt;Node35 -->
<g id="edge61" class="edge">
<title>Node3&#45;&gt;Node35</title>
<path fill="none" stroke="midnightblue" d="M812.78,-400.21C856.39,-397.38 921.51,-387.6 968,-356 1009.4,-327.86 1028.96,-266.12 1034.93,-243.51"/>
<polygon fill="midnightblue" stroke="midnightblue" points="812.52,-396.72 802.73,-400.77 812.91,-403.71 812.52,-396.72"/>
</g>
<!-- Node5 -->
<g id="node5" class="node">
<title>Node5</title>
<g id="a_node5"><a xlink:href="_collision_8cpp.html" target="_top" xlink:title=" ">
<polygon fill="none" stroke="black" points="206,-56.5 206,-75.5 278,-75.5 278,-56.5 206,-56.5"/>
<text text-anchor="middle" x="242" y="-63.5" font-family="Helvetica,sans-Serif" font-size="10.00">Collision.cpp</text>
</a>
</g>
</g>
<!-- Node4&#45;&gt;Node5 -->
<g id="edge4" class="edge">
<title>Node4&#45;&gt;Node5</title>
<path fill="none" stroke="midnightblue" d="M243.29,-101.8C242.96,-92.91 242.58,-82.78 242.32,-75.75"/>
<polygon fill="midnightblue" stroke="midnightblue" points="239.8,-102.22 243.67,-112.08 246.8,-101.96 239.8,-102.22"/>
</g>
<!-- Node4&#45;&gt;Node6 -->
<g id="edge5" class="edge">
<title>Node4&#45;&gt;Node6</title>
<path fill="none" stroke="midnightblue" d="M222.07,-106.9C206.66,-97 186.55,-84.07 173.46,-75.65"/>
<polygon fill="midnightblue" stroke="midnightblue" points="220.2,-109.86 230.5,-112.32 223.98,-103.97 220.2,-109.86"/>
</g>
<!-- Node7 -->
<g id="node7" class="node">
<title>Node7</title>
<g id="a_node7"><a xlink:href="_puzzle_8cpp.html" target="_top" xlink:title=" ">
<polygon fill="none" stroke="black" points="127.5,-0.5 127.5,-19.5 192.5,-19.5 192.5,-0.5 127.5,-0.5"/>
<text text-anchor="middle" x="160" y="-7.5" font-family="Helvetica,sans-Serif" font-size="10.00">Puzzle.cpp</text>
</a>
</g>
</g>
<!-- Node6&#45;&gt;Node7 -->
<g id="edge6" class="edge">
<title>Node6&#45;&gt;Node7</title>
<path fill="none" stroke="midnightblue" d="M160,-45.8C160,-36.91 160,-26.78 160,-19.75"/>
<polygon fill="midnightblue" stroke="midnightblue" points="156.5,-46.08 160,-56.08 163.5,-46.08 156.5,-46.08"/>
</g>
<!-- Node6&#45;&gt;Node8 -->
<g id="edge7" class="edge">
<title>Node6&#45;&gt;Node8</title>
<path fill="none" stroke="midnightblue" d="M197.74,-56.2C519.1,-9.73 899.16,-9.67 1004.67,-10.64"/>
<polygon fill="midnightblue" stroke="midnightblue" points="197.16,-52.75 187.77,-57.66 198.17,-59.68 197.16,-52.75"/>
</g>
<!-- Node10 -->
<g id="node10" class="node">
<title>Node10</title>
<g id="a_node10"><a xlink:href="_endscreen_8cpp.html" target="_top" xlink:title=" ">
<polygon fill="none" stroke="black" points="564,-280.5 564,-299.5 646,-299.5 646,-280.5 564,-280.5"/>
<text text-anchor="middle" x="605" y="-287.5" font-family="Helvetica,sans-Serif" font-size="10.00">Endscreen.cpp</text>
</a>
</g>
</g>
<!-- Node9&#45;&gt;Node10 -->
<g id="edge9" class="edge">
<title>Node9&#45;&gt;Node10</title>
<path fill="none" stroke="midnightblue" d="M605,-325.8C605,-316.91 605,-306.78 605,-299.75"/>
<polygon fill="midnightblue" stroke="midnightblue" points="601.5,-326.08 605,-336.08 608.5,-326.08 601.5,-326.08"/>
</g>
<!-- Node9&#45;&gt;Node11 -->
<g id="edge10" class="edge">
<title>Node9&#45;&gt;Node11</title>
<path fill="none" stroke="midnightblue" d="M583.41,-330.34C573.36,-322.46 562.09,-311.92 555,-300 532.58,-262.31 527.48,-208.31 526.33,-187.57"/>
<polygon fill="midnightblue" stroke="midnightblue" points="581.33,-333.16 591.44,-336.31 585.5,-327.54 581.33,-333.16"/>
</g>
<!-- Node11&#45;&gt;Node4 -->
<g id="edge11" class="edge">
<title>Node11&#45;&gt;Node4</title>
<path fill="none" stroke="midnightblue" d="M492.37,-169.89C489.21,-169.25 486.04,-168.61 483,-168 408.67,-153.22 321.07,-137.05 275.36,-128.7"/>
<polygon fill="midnightblue" stroke="midnightblue" points="491.86,-173.36 502.36,-171.96 493.28,-166.51 491.86,-173.36"/>
</g>
<!-- Node11&#45;&gt;Node8 -->
<g id="edge14" class="edge">
<title>Node11&#45;&gt;Node8</title>
<path fill="none" stroke="midnightblue" d="M526.46,-158.42C527.85,-143.74 532.19,-123.82 545,-112 613.35,-48.93 911.1,-20.56 1004.72,-13.09"/>
<polygon fill="midnightblue" stroke="midnightblue" points="522.96,-158.22 525.88,-168.4 529.95,-158.62 522.96,-158.22"/>
</g>
<!-- Node12 -->
<g id="node12" class="node">
<title>Node12</title>
<g id="a_node12"><a xlink:href="_level_8cpp.html" target="_top" xlink:title=" ">
<polygon fill="none" stroke="black" points="554.5,-112.5 554.5,-131.5 611.5,-131.5 611.5,-112.5 554.5,-112.5"/>
<text text-anchor="middle" x="583" y="-119.5" font-family="Helvetica,sans-Serif" font-size="10.00">Level.cpp</text>
</a>
</g>
</g>
<!-- Node11&#45;&gt;Node12 -->
<g id="edge12" class="edge">
<title>Node11&#45;&gt;Node12</title>
<path fill="none" stroke="midnightblue" d="M542.62,-161.25C552.73,-151.67 565.28,-139.79 573.68,-131.83"/>
<polygon fill="midnightblue" stroke="midnightblue" points="540.01,-158.91 535.16,-168.32 544.82,-163.99 540.01,-158.91"/>
</g>
<!-- Node13 -->
<g id="node13" class="node">
<title>Node13</title>
<g id="a_node13"><a xlink:href="_nemo_8cpp.html" target="_top" xlink:title=" ">
<polygon fill="none" stroke="black" points="409.5,-112.5 409.5,-131.5 470.5,-131.5 470.5,-112.5 409.5,-112.5"/>
<text text-anchor="middle" x="440" y="-119.5" font-family="Helvetica,sans-Serif" font-size="10.00">Nemo.cpp</text>
</a>
</g>
</g>
<!-- Node11&#45;&gt;Node13 -->
<g id="edge13" class="edge">
<title>Node11&#45;&gt;Node13</title>
<path fill="none" stroke="midnightblue" d="M503.55,-162.9C487.78,-153 467.19,-140.07 453.78,-131.65"/>
<polygon fill="midnightblue" stroke="midnightblue" points="501.85,-165.97 512.18,-168.32 505.57,-160.04 501.85,-165.97"/>
</g>
<!-- Node15 -->
<g id="node15" class="node">
<title>Node15</title>
<g id="a_node15"><a xlink:href="_game_character_8cpp.html" target="_top" xlink:title=" ">
<polygon fill="none" stroke="black" points="564,-224.5 564,-243.5 668,-243.5 668,-224.5 564,-224.5"/>
<text text-anchor="middle" x="616" y="-231.5" font-family="Helvetica,sans-Serif" font-size="10.00">GameCharacter.cpp</text>
</a>
</g>
</g>
<!-- Node14&#45;&gt;Node15 -->
<g id="edge17" class="edge">
<title>Node14&#45;&gt;Node15</title>
<path fill="none" stroke="midnightblue" d="M686.68,-275.18C669.2,-265.24 646.17,-252.15 631.23,-243.65"/>
<polygon fill="midnightblue" stroke="midnightblue" points="685.31,-278.43 695.74,-280.32 688.77,-272.34 685.31,-278.43"/>
</g>
<!-- Node14&#45;&gt;Node16 -->
<g id="edge18" class="edge">
<title>Node14&#45;&gt;Node16</title>
<path fill="none" stroke="midnightblue" d="M732.03,-274.62C746.47,-264.76 765.14,-251.99 777.34,-243.65"/>
<polygon fill="midnightblue" stroke="midnightblue" points="729.97,-271.79 723.69,-280.32 733.92,-277.57 729.97,-271.79"/>
</g>
<!-- Node14&#45;&gt;Node18 -->
<g id="edge21" class="edge">
<title>Node14&#45;&gt;Node18</title>
<path fill="none" stroke="midnightblue" d="M745.11,-277.04C774.09,-266.88 814.96,-252.55 840.71,-243.52"/>
<polygon fill="midnightblue" stroke="midnightblue" points="743.68,-273.83 735.4,-280.44 746,-280.44 743.68,-273.83"/>
</g>
<!-- Node14&#45;&gt;Node20 -->
<g id="edge24" class="edge">
<title>Node14&#45;&gt;Node20</title>
<path fill="none" stroke="midnightblue" d="M658.68,-278.46C601.99,-267.04 513.76,-249.26 469.79,-240.4"/>
<polygon fill="midnightblue" stroke="midnightblue" points="658.04,-281.9 668.53,-280.44 659.42,-275.04 658.04,-281.9"/>
</g>
<!-- Node14&#45;&gt;Node22 -->
<g id="edge27" class="edge">
<title>Node14&#45;&gt;Node22</title>
<path fill="none" stroke="midnightblue" d="M712.75,-270.1C713.58,-261.14 714.53,-250.86 715.19,-243.75"/>
<polygon fill="midnightblue" stroke="midnightblue" points="709.26,-269.8 711.83,-280.08 716.23,-270.45 709.26,-269.8"/>
</g>
<!-- Node16&#45;&gt;Node11 -->
<g id="edge19" class="edge">
<title>Node16&#45;&gt;Node11</title>
<path fill="none" stroke="midnightblue" d="M753.84,-224.06C672.93,-206.13 589.62,-190.56 549.71,-183.28"/>
<polygon fill="midnightblue" stroke="midnightblue" points="753.17,-227.5 763.69,-226.26 754.69,-220.67 753.17,-227.5"/>
</g>
<!-- Node17 -->
<g id="node17" class="node">
<title>Node17</title>
<g id="a_node17"><a xlink:href="_combat_2_mumy_8cpp.html" target="_top" xlink:title=" ">
<polygon fill="none" stroke="black" points="759,-168.5 759,-187.5 821,-187.5 821,-168.5 759,-168.5"/>
<text text-anchor="middle" x="790" y="-175.5" font-family="Helvetica,sans-Serif" font-size="10.00">Mumy.cpp</text>
</a>
</g>
</g>
<!-- Node16&#45;&gt;Node17 -->
<g id="edge20" class="edge">
<title>Node16&#45;&gt;Node17</title>
<path fill="none" stroke="midnightblue" d="M790,-213.8C790,-204.91 790,-194.78 790,-187.75"/>
<polygon fill="midnightblue" stroke="midnightblue" points="786.5,-214.08 790,-224.08 793.5,-214.08 786.5,-214.08"/>
</g>
<!-- Node18&#45;&gt;Node11 -->
<g id="edge22" class="edge">
<title>Node18&#45;&gt;Node11</title>
<path fill="none" stroke="midnightblue" d="M824.33,-224C715.74,-203.91 598.93,-188.29 549.74,-181.98"/>
<polygon fill="midnightblue" stroke="midnightblue" points="824,-227.5 834.47,-225.89 825.28,-220.62 824,-227.5"/>
</g>
<!-- Node19 -->
<g id="node19" class="node">
<title>Node19</title>
<g id="a_node19"><a xlink:href="_combat_2_pharaoh_8cpp.html" target="_top" xlink:title=" ">
<polygon fill="none" stroke="black" points="839.5,-168.5 839.5,-187.5 910.5,-187.5 910.5,-168.5 839.5,-168.5"/>
<text text-anchor="middle" x="875" y="-175.5" font-family="Helvetica,sans-Serif" font-size="10.00">Pharaoh.cpp</text>
</a>
</g>
</g>
<!-- Node18&#45;&gt;Node19 -->
<g id="edge23" class="edge">
<title>Node18&#45;&gt;Node19</title>
<path fill="none" stroke="midnightblue" d="M868.5,-214.1C870.16,-205.14 872.06,-194.86 873.38,-187.75"/>
<polygon fill="midnightblue" stroke="midnightblue" points="865.03,-213.61 866.65,-224.08 871.91,-214.89 865.03,-213.61"/>
</g>
<!-- Node20&#45;&gt;Node11 -->
<g id="edge25" class="edge">
<title>Node20&#45;&gt;Node11</title>
<path fill="none" stroke="midnightblue" d="M465.1,-218.62C480.26,-208.76 499.88,-195.99 512.7,-187.65"/>
<polygon fill="midnightblue" stroke="midnightblue" points="462.81,-215.94 456.34,-224.32 466.63,-221.8 462.81,-215.94"/>
</g>
<!-- Node21 -->
<g id="node21" class="node">
<title>Node21</title>
<g id="a_node21"><a xlink:href="_player_8cpp.html" target="_top" xlink:title=" ">
<polygon fill="none" stroke="black" points="411.5,-168.5 411.5,-187.5 474.5,-187.5 474.5,-168.5 411.5,-168.5"/>
<text text-anchor="middle" x="443" y="-175.5" font-family="Helvetica,sans-Serif" font-size="10.00">Player.cpp</text>
</a>
</g>
</g>
<!-- Node20&#45;&gt;Node21 -->
<g id="edge26" class="edge">
<title>Node20&#45;&gt;Node21</title>
<path fill="none" stroke="midnightblue" d="M443,-213.8C443,-204.91 443,-194.78 443,-187.75"/>
<polygon fill="midnightblue" stroke="midnightblue" points="439.5,-214.08 443,-224.08 446.5,-214.08 439.5,-214.08"/>
</g>
<!-- Node22&#45;&gt;Node11 -->
<g id="edge28" class="edge">
<title>Node22&#45;&gt;Node11</title>
<path fill="none" stroke="midnightblue" d="M676.54,-221.78C638.29,-210.92 581.55,-194.79 549.78,-185.76"/>
<polygon fill="midnightblue" stroke="midnightblue" points="675.74,-225.2 686.31,-224.56 677.65,-218.46 675.74,-225.2"/>
</g>
<!-- Node23 -->
<g id="node23" class="node">
<title>Node23</title>
<g id="a_node23"><a xlink:href="_combat_2_shadow_8cpp.html" target="_top" xlink:title=" ">
<polygon fill="none" stroke="black" points="671,-168.5 671,-187.5 741,-187.5 741,-168.5 671,-168.5"/>
<text text-anchor="middle" x="706" y="-175.5" font-family="Helvetica,sans-Serif" font-size="10.00">Shadow.cpp</text>
</a>
</g>
</g>
<!-- Node22&#45;&gt;Node23 -->
<g id="edge29" class="edge">
<title>Node22&#45;&gt;Node23</title>
<path fill="none" stroke="midnightblue" d="M712.5,-214.1C710.84,-205.14 708.94,-194.86 707.62,-187.75"/>
<polygon fill="midnightblue" stroke="midnightblue" points="709.09,-214.89 714.35,-224.08 715.97,-213.61 709.09,-214.89"/>
</g>
<!-- Node24&#45;&gt;Node8 -->
<g id="edge32" class="edge">
<title>Node24&#45;&gt;Node8</title>
<path fill="none" stroke="midnightblue" d="M946.8,-329.7C955.93,-321.73 966.22,-311.3 973,-300 988.48,-274.19 992,-265.1 992,-235 992,-235 992,-235 992,-121 992,-81.05 1016.03,-37.8 1027.3,-19.71"/>
<polygon fill="midnightblue" stroke="midnightblue" points="944.33,-327.21 938.87,-336.29 948.8,-332.59 944.33,-327.21"/>
</g>
<!-- Node25 -->
<g id="node25" class="node">
<title>Node25</title>
<g id="a_node25"><a xlink:href="_inventory_8cpp.html" target="_top" xlink:title=" ">
<polygon fill="none" stroke="black" points="890,-280.5 890,-299.5 964,-299.5 964,-280.5 890,-280.5"/>
<text text-anchor="middle" x="927" y="-287.5" font-family="Helvetica,sans-Serif" font-size="10.00">Inventory.cpp</text>
</a>
</g>
</g>
<!-- Node24&#45;&gt;Node25 -->
<g id="edge31" class="edge">
<title>Node24&#45;&gt;Node25</title>
<path fill="none" stroke="midnightblue" d="M927,-325.8C927,-316.91 927,-306.78 927,-299.75"/>
<polygon fill="midnightblue" stroke="midnightblue" points="923.5,-326.08 927,-336.08 930.5,-326.08 923.5,-326.08"/>
</g>
<!-- Node26&#45;&gt;Node8 -->
<g id="edge37" class="edge">
<title>Node26&#45;&gt;Node8</title>
<path fill="none" stroke="midnightblue" d="M1106.33,-329.07C1114.21,-321.02 1123.08,-310.7 1129,-300 1143.58,-273.67 1148,-265.1 1148,-235 1148,-235 1148,-235 1148,-121 1148,-69.47 1086.97,-34.64 1053.83,-19.53"/>
<polygon fill="midnightblue" stroke="midnightblue" points="1103.64,-326.81 1098.93,-336.3 1108.53,-331.82 1103.64,-326.81"/>
</g>
<!-- Node27 -->
<g id="node27" class="node">
<title>Node27</title>
<g id="a_node27"><a xlink:href="_enemy_01_overworld_01_sprites_2_mumy_8cpp.html" target="_top" xlink:title=" ">
<polygon fill="none" stroke="black" points="1058,-280.5 1058,-299.5 1120,-299.5 1120,-280.5 1058,-280.5"/>
<text text-anchor="middle" x="1089" y="-287.5" font-family="Helvetica,sans-Serif" font-size="10.00">Mumy.cpp</text>
</a>
</g>
</g>
<!-- Node26&#45;&gt;Node27 -->
<g id="edge36" class="edge">
<title>Node26&#45;&gt;Node27</title>
<path fill="none" stroke="midnightblue" d="M1089,-325.8C1089,-316.91 1089,-306.78 1089,-299.75"/>
<polygon fill="midnightblue" stroke="midnightblue" points="1085.5,-326.08 1089,-336.08 1092.5,-326.08 1085.5,-326.08"/>
</g>
<!-- Node28&#45;&gt;Node4 -->
<g id="edge39" class="edge">
<title>Node28&#45;&gt;Node4</title>
<path fill="none" stroke="midnightblue" d="M233.2,-214.35C236.05,-190.25 240.89,-149.31 242.98,-131.59"/>
<polygon fill="midnightblue" stroke="midnightblue" points="229.72,-214.03 232.02,-224.37 236.67,-214.85 229.72,-214.03"/>
</g>
<!-- Node28&#45;&gt;Node6 -->
<g id="edge42" class="edge">
<title>Node28&#45;&gt;Node6</title>
<path fill="none" stroke="midnightblue" d="M223.24,-214.86C208.01,-179.25 174.74,-101.45 163.66,-75.57"/>
<polygon fill="midnightblue" stroke="midnightblue" points="220.03,-216.26 227.18,-224.08 226.47,-213.5 220.03,-216.26"/>
</g>
<!-- Node28&#45;&gt;Node8 -->
<g id="edge43" class="edge">
<title>Node28&#45;&gt;Node8</title>
<path fill="none" stroke="midnightblue" d="M240.51,-215.38C263.03,-174.37 320.17,-74.65 353,-56 410.35,-23.42 883.77,-13.45 1004.87,-11.43"/>
<polygon fill="midnightblue" stroke="midnightblue" points="237.39,-213.79 235.68,-224.24 243.54,-217.14 237.39,-213.79"/>
</g>
<!-- Node28&#45;&gt;Node11 -->
<g id="edge40" class="edge">
<title>Node28&#45;&gt;Node11</title>
<path fill="none" stroke="midnightblue" d="M266.11,-227.07C314.86,-218.76 405.77,-202.97 483,-188 489.29,-186.78 496.08,-185.39 502.37,-184.08"/>
<polygon fill="midnightblue" stroke="midnightblue" points="265.35,-223.65 256.08,-228.77 266.53,-230.55 265.35,-223.65"/>
</g>
<!-- Node28&#45;&gt;Node13 -->
<g id="edge41" class="edge">
<title>Node28&#45;&gt;Node13</title>
<path fill="none" stroke="midnightblue" d="M256.48,-219.59C299.99,-196.69 387.43,-150.67 423.68,-131.59"/>
<polygon fill="midnightblue" stroke="midnightblue" points="254.62,-216.61 247.4,-224.37 257.88,-222.81 254.62,-216.61"/>
</g>
<!-- Node29&#45;&gt;Node8 -->
<g id="edge47" class="edge">
<title>Node29&#45;&gt;Node8</title>
<path fill="none" stroke="midnightblue" d="M1231.36,-329.63C1240.29,-321.64 1250.36,-311.21 1257,-300 1272.34,-274.11 1276,-265.1 1276,-235 1276,-235 1276,-235 1276,-121 1276,-27.69 1125.45,-13.12 1061.35,-11.15"/>
<polygon fill="midnightblue" stroke="midnightblue" points="1228.95,-327.08 1223.61,-336.23 1233.49,-332.41 1228.95,-327.08"/>
</g>
<!-- Node30 -->
<g id="node30" class="node">
<title>Node30</title>
<g id="a_node30"><a xlink:href="_enemy_01_overworld_01_sprites_2_pharaoh_8cpp.html" target="_top" xlink:title=" ">
<polygon fill="none" stroke="black" points="1176.5,-280.5 1176.5,-299.5 1247.5,-299.5 1247.5,-280.5 1176.5,-280.5"/>
<text text-anchor="middle" x="1212" y="-287.5" font-family="Helvetica,sans-Serif" font-size="10.00">Pharaoh.cpp</text>
</a>
</g>
</g>
<!-- Node29&#45;&gt;Node30 -->
<g id="edge46" class="edge">
<title>Node29&#45;&gt;Node30</title>
<path fill="none" stroke="midnightblue" d="M1212,-325.8C1212,-316.91 1212,-306.78 1212,-299.75"/>
<polygon fill="midnightblue" stroke="midnightblue" points="1208.5,-326.08 1212,-336.08 1215.5,-326.08 1208.5,-326.08"/>
</g>
<!-- Node31&#45;&gt;Node8 -->
<g id="edge53" class="edge">
<title>Node31&#45;&gt;Node8</title>
<path fill="none" stroke="midnightblue" d="M1357.92,-329.55C1366.65,-321.54 1376.5,-311.12 1383,-300 1398.2,-274.02 1402,-265.1 1402,-235 1402,-235 1402,-235 1402,-121 1402,-49.89 1147.15,-21 1061.04,-13.27"/>
<polygon fill="midnightblue" stroke="midnightblue" points="1355.57,-326.96 1350.34,-336.18 1360.17,-332.23 1355.57,-326.96"/>
</g>
<!-- Node32 -->
<g id="node32" class="node">
<title>Node32</title>
<g id="a_node32"><a xlink:href="_enemy_01_overworld_01_sprites_2_shadow_8cpp.html" target="_top" xlink:title=" ">
<polygon fill="none" stroke="black" points="1304,-280.5 1304,-299.5 1374,-299.5 1374,-280.5 1304,-280.5"/>
<text text-anchor="middle" x="1339" y="-287.5" font-family="Helvetica,sans-Serif" font-size="10.00">Shadow.cpp</text>
</a>
</g>
</g>
<!-- Node31&#45;&gt;Node32 -->
<g id="edge52" class="edge">
<title>Node31&#45;&gt;Node32</title>
<path fill="none" stroke="midnightblue" d="M1339,-325.8C1339,-316.91 1339,-306.78 1339,-299.75"/>
<polygon fill="midnightblue" stroke="midnightblue" points="1335.5,-326.08 1339,-336.08 1342.5,-326.08 1335.5,-326.08"/>
</g>
<!-- Node33&#45;&gt;Node8 -->
<g id="edge60" class="edge">
<title>Node33&#45;&gt;Node8</title>
<path fill="none" stroke="midnightblue" d="M378.68,-326.73C367.32,-283.45 345.85,-173.65 400,-112 481.06,-19.71 893,-11.48 1004.91,-10.97"/>
<polygon fill="midnightblue" stroke="midnightblue" points="375.33,-327.74 381.37,-336.45 382.08,-325.88 375.33,-327.74"/>
</g>
<!-- Node33&#45;&gt;Node11 -->
<g id="edge56" class="edge">
<title>Node33&#45;&gt;Node11</title>
<path fill="none" stroke="midnightblue" d="M382.28,-326.13C380.97,-300.1 382.56,-253.1 407,-224 419.54,-209.07 471.35,-193.34 502.33,-185.01"/>
<polygon fill="midnightblue" stroke="midnightblue" points="378.79,-326.46 382.99,-336.19 385.78,-325.96 378.79,-326.46"/>
</g>
<!-- Node33&#45;&gt;Node14 -->
<g id="edge55" class="edge">
<title>Node33&#45;&gt;Node14</title>
<path fill="none" stroke="midnightblue" d="M419.11,-339.2C478.36,-329.42 598.21,-309.63 664.42,-298.69"/>
<polygon fill="midnightblue" stroke="midnightblue" points="418.41,-335.77 409.12,-340.85 419.55,-342.68 418.41,-335.77"/>
</g>
<!-- Node33&#45;&gt;Node20 -->
<g id="edge58" class="edge">
<title>Node33&#45;&gt;Node20</title>
<path fill="none" stroke="midnightblue" d="M393.48,-327.32C406.33,-303.37 428.76,-261.55 438.39,-243.59"/>
<polygon fill="midnightblue" stroke="midnightblue" points="390.27,-325.9 388.63,-336.37 396.44,-329.21 390.27,-325.9"/>
</g>
<!-- Node33&#45;&gt;Node28 -->
<g id="edge57" class="edge">
<title>Node33&#45;&gt;Node28</title>
<path fill="none" stroke="midnightblue" d="M348.89,-342.77C317.77,-338.89 273.3,-328.38 247,-300 232.46,-284.32 230.56,-257.6 230.64,-243.81"/>
<polygon fill="midnightblue" stroke="midnightblue" points="348.57,-346.25 358.88,-343.85 349.32,-339.29 348.57,-346.25"/>
</g>
<!-- Node34 -->
<g id="node34" class="node">
<title>Node34</title>
<g id="a_node34"><a xlink:href="_sprite_8cpp.html" target="_top" xlink:title=" ">
<polygon fill="none" stroke="black" points="256.5,-280.5 256.5,-299.5 317.5,-299.5 317.5,-280.5 256.5,-280.5"/>
<text text-anchor="middle" x="287" y="-287.5" font-family="Helvetica,sans-Serif" font-size="10.00">Sprite.cpp</text>
</a>
</g>
</g>
<!-- Node33&#45;&gt;Node34 -->
<g id="edge59" class="edge">
<title>Node33&#45;&gt;Node34</title>
<path fill="none" stroke="midnightblue" d="M359.66,-331.45C341.76,-321.48 317.95,-308.23 302.55,-299.65"/>
<polygon fill="midnightblue" stroke="midnightblue" points="357.98,-334.52 368.42,-336.32 361.38,-328.4 357.98,-334.52"/>
</g>
<!-- Node35&#45;&gt;Node8 -->
<g id="edge64" class="edge">
<title>Node35&#45;&gt;Node8</title>
<path fill="none" stroke="midnightblue" d="M1036.66,-214.3C1035.84,-168.64 1033.75,-52.85 1033.16,-19.88"/>
<polygon fill="midnightblue" stroke="midnightblue" points="1033.16,-214.36 1036.84,-224.3 1040.16,-214.24 1033.16,-214.36"/>
</g>
<!-- Node35&#45;&gt;Node11 -->
<g id="edge62" class="edge">
<title>Node35&#45;&gt;Node11</title>
<path fill="none" stroke="midnightblue" d="M1009.81,-230.13C920,-220.64 633.74,-190.39 549.52,-181.49"/>
<polygon fill="midnightblue" stroke="midnightblue" points="1009.69,-233.63 1020,-231.2 1010.42,-226.67 1009.69,-233.63"/>
</g>
<!-- Node36 -->
<g id="node36" class="node">
<title>Node36</title>
<g id="a_node36"><a xlink:href="_u_i_8cpp.html" target="_top" xlink:title=" ">
<polygon fill="none" stroke="black" points="1061,-168.5 1061,-187.5 1105,-187.5 1105,-168.5 1061,-168.5"/>
<text text-anchor="middle" x="1083" y="-175.5" font-family="Helvetica,sans-Serif" font-size="10.00">UI.cpp</text>
</a>
</g>
</g>
<!-- Node35&#45;&gt;Node36 -->
<g id="edge63" class="edge">
<title>Node35&#45;&gt;Node36</title>
<path fill="none" stroke="midnightblue" d="M1051.11,-216.43C1059.18,-206.97 1068.96,-195.48 1075.55,-187.75"/>
<polygon fill="midnightblue" stroke="midnightblue" points="1048.42,-214.2 1044.6,-224.08 1053.75,-218.74 1048.42,-214.2"/>
</g>
</g>
</svg>
