<?xml version="1.0" encoding="UTF-8" standalone="no"?>
<!DOCTYPE svg PUBLIC "-//W3C//DTD SVG 1.1//EN"
 "http://www.w3.org/Graphics/SVG/1.1/DTD/svg11.dtd">
<!-- Generated by graphviz version 3.0.0 (20220226.1711)
 -->
<!-- Title: GameAudio.h Pages: 1 -->
<svg width="1410pt" height="476pt"
 viewBox="0.00 0.00 1410.00 476.00" xmlns="http://www.w3.org/2000/svg" xmlns:xlink="http://www.w3.org/1999/xlink">
<g id="graph0" class="graph" transform="scale(1 1) rotate(0) translate(4 472)">
<title>GameAudio.h</title>
<!-- Node1 -->
<g id="node1" class="node">
<title>Node1</title>
<g id="a_node1"><a xlink:title=" ">
<polygon fill="#bfbfbf" stroke="black" points="728,-448.5 728,-467.5 804,-467.5 804,-448.5 728,-448.5"/>
<text text-anchor="middle" x="766" y="-455.5" font-family="Helvetica,sans-Serif" font-size="10.00">GameAudio.h</text>
</a>
</g>
</g>
<!-- Node2 -->
<g id="node2" class="node">
<title>Node2</title>
<g id="a_node2"><a xlink:href="_game_audio_8cpp.html" target="_top" xlink:title=" ">
<polygon fill="none" stroke="black" points="625,-392.5 625,-411.5 711,-411.5 711,-392.5 625,-392.5"/>
<text text-anchor="middle" x="668" y="-399.5" font-family="Helvetica,sans-Serif" font-size="10.00">GameAudio.cpp</text>
</a>
</g>
</g>
<!-- Node1&#45;&gt;Node2 -->
<g id="edge1" class="edge">
<title>Node1&#45;&gt;Node2</title>
<path fill="none" stroke="midnightblue" d="M741.41,-443.45C723.32,-433.48 699.27,-420.23 683.71,-411.65"/>
<polygon fill="midnightblue" stroke="midnightblue" points="739.81,-446.56 750.25,-448.32 743.19,-440.43 739.81,-446.56"/>
</g>
<!-- Node3 -->
<g id="node3" class="node">
<title>Node3</title>
<g id="a_node3"><a xlink:href="_i_n_c_l_u_d_e_s_8h.html" target="_top" xlink:title=" ">
<polygon fill="none" stroke="black" points="729.5,-392.5 729.5,-411.5 802.5,-411.5 802.5,-392.5 729.5,-392.5"/>
<text text-anchor="middle" x="766" y="-399.5" font-family="Helvetica,sans-Serif" font-size="10.00">INCLUDES.h</text>
</a>
</g>
</g>
<!-- Node1&#45;&gt;Node3 -->
<g id="edge2" class="edge">
<title>Node1&#45;&gt;Node3</title>
<path fill="none" stroke="midnightblue" d="M759.53,-438.1C758.9,-429.14 759.34,-418.86 760.87,-411.75"/>
<polygon fill="midnightblue" stroke="midnightblue" points="756.07,-438.62 760.83,-448.08 763.01,-437.71 756.07,-438.62"/>
</g>
<!-- Node8 -->
<g id="node8" class="node">
<title>Node8</title>
<g id="a_node8"><a xlink:href="main_8cpp.html" target="_top" xlink:title=" ">
<polygon fill="none" stroke="black" points="915,-0.5 915,-19.5 971,-19.5 971,-0.5 915,-0.5"/>
<text text-anchor="middle" x="943" y="-7.5" font-family="Helvetica,sans-Serif" font-size="10.00">main.cpp</text>
</a>
</g>
</g>
<!-- Node1&#45;&gt;Node8 -->
<g id="edge66" class="edge">
<title>Node1&#45;&gt;Node8</title>
<path fill="none" stroke="midnightblue" d="M814.54,-453.73C963.17,-443.07 1402,-406.57 1402,-347 1402,-347 1402,-347 1402,-121 1402,-87.08 1390.68,-74.11 1362,-56 1296.73,-14.8 1054.41,-10.95 971.24,-10.86"/>
<polygon fill="midnightblue" stroke="midnightblue" points="814.08,-450.25 804.35,-454.45 814.57,-457.24 814.08,-450.25"/>
</g>
<!-- Node27 -->
<g id="node27" class="node">
<title>Node27</title>
<g id="a_node27"><a xlink:href="_nemo_8h.html" target="_top" xlink:title=" ">
<polygon fill="none" stroke="black" points="1210,-224.5 1210,-243.5 1260,-243.5 1260,-224.5 1210,-224.5"/>
<text text-anchor="middle" x="1235" y="-231.5" font-family="Helvetica,sans-Serif" font-size="10.00">Nemo.h</text>
</a>
</g>
</g>
<!-- Node1&#45;&gt;Node27 -->
<g id="edge65" class="edge">
<title>Node1&#45;&gt;Node27</title>
<path fill="none" stroke="midnightblue" d="M814.2,-453.49C892.65,-445.95 1050.71,-423.03 1165,-356 1194.56,-338.66 1201.37,-329.96 1218,-300 1228.31,-281.44 1232.55,-256.42 1234.14,-243.5"/>
<polygon fill="midnightblue" stroke="midnightblue" points="813.76,-450.01 804.12,-454.41 814.4,-456.98 813.76,-450.01"/>
</g>
<!-- Node3&#45;&gt;Node1 -->
<g id="edge14" class="edge">
<title>Node3&#45;&gt;Node1</title>
<path fill="none" stroke="midnightblue" d="M772.46,-421.69C773.11,-430.64 772.68,-440.93 771.17,-448.08"/>
<polygon fill="midnightblue" stroke="midnightblue" points="775.92,-421.2 771.13,-411.75 768.98,-422.13 775.92,-421.2"/>
</g>
<!-- Node4 -->
<g id="node4" class="node">
<title>Node4</title>
<g id="a_node4"><a xlink:href="_collision_8h.html" target="_top" xlink:title=" ">
<polygon fill="none" stroke="black" points="1219,-112.5 1219,-131.5 1281,-131.5 1281,-112.5 1219,-112.5"/>
<text text-anchor="middle" x="1250" y="-119.5" font-family="Helvetica,sans-Serif" font-size="10.00">Collision.h</text>
</a>
</g>
</g>
<!-- Node3&#45;&gt;Node4 -->
<g id="edge3" class="edge">
<title>Node3&#45;&gt;Node4</title>
<path fill="none" stroke="midnightblue" d="M813,-401.02C941.29,-399.81 1288,-387.61 1288,-291 1288,-291 1288,-291 1288,-233 1288,-193.4 1265.73,-149.96 1255.28,-131.77"/>
<polygon fill="midnightblue" stroke="midnightblue" points="812.68,-397.52 802.71,-401.1 812.73,-404.52 812.68,-397.52"/>
</g>
<!-- Node6 -->
<g id="node6" class="node">
<title>Node6</title>
<g id="a_node6"><a xlink:href="_puzzle_8h.html" target="_top" xlink:title=" ">
<polygon fill="none" stroke="black" points="1298.5,-56.5 1298.5,-75.5 1353.5,-75.5 1353.5,-56.5 1298.5,-56.5"/>
<text text-anchor="middle" x="1326" y="-63.5" font-family="Helvetica,sans-Serif" font-size="10.00">Puzzle.h</text>
</a>
</g>
</g>
<!-- Node3&#45;&gt;Node6 -->
<g id="edge48" class="edge">
<title>Node3&#45;&gt;Node6</title>
<path fill="none" stroke="midnightblue" d="M812.72,-399.24C918.01,-394.85 1170.95,-381.88 1252,-356 1306.83,-338.49 1364,-348.55 1364,-291 1364,-291 1364,-291 1364,-177 1364,-137.4 1341.73,-93.96 1331.28,-75.77"/>
<polygon fill="midnightblue" stroke="midnightblue" points="812.55,-395.74 802.7,-399.65 812.84,-402.73 812.55,-395.74"/>
</g>
<!-- Node3&#45;&gt;Node8 -->
<g id="edge64" class="edge">
<title>Node3&#45;&gt;Node8</title>
<path fill="none" stroke="midnightblue" d="M719.11,-392.04C555.5,-367.65 376,-447.07 376,-291 376,-291 376,-291 376,-121 376,-9.95 800.47,-8.72 914.88,-10.4"/>
<polygon fill="midnightblue" stroke="midnightblue" points="718.93,-395.55 729.36,-393.71 720.06,-388.65 718.93,-395.55"/>
</g>
<!-- Node9 -->
<g id="node9" class="node">
<title>Node9</title>
<g id="a_node9"><a xlink:href="_endscreen_8h.html" target="_top" xlink:title=" ">
<polygon fill="none" stroke="black" points="799.5,-336.5 799.5,-355.5 870.5,-355.5 870.5,-336.5 799.5,-336.5"/>
<text text-anchor="middle" x="835" y="-343.5" font-family="Helvetica,sans-Serif" font-size="10.00">Endscreen.h</text>
</a>
</g>
</g>
<!-- Node3&#45;&gt;Node9 -->
<g id="edge8" class="edge">
<title>Node3&#45;&gt;Node9</title>
<path fill="none" stroke="midnightblue" d="M785.04,-386.1C797.46,-376.38 813.24,-364.03 823.71,-355.83"/>
<polygon fill="midnightblue" stroke="midnightblue" points="782.8,-383.4 777.09,-392.32 787.12,-388.92 782.8,-383.4"/>
</g>
<!-- Node11 -->
<g id="node11" class="node">
<title>Node11</title>
<g id="a_node11"><a xlink:href="_level_8h.html" target="_top" xlink:title=" ">
<polygon fill="none" stroke="black" points="893.5,-168.5 893.5,-187.5 940.5,-187.5 940.5,-168.5 893.5,-168.5"/>
<text text-anchor="middle" x="917" y="-175.5" font-family="Helvetica,sans-Serif" font-size="10.00">Level.h</text>
</a>
</g>
</g>
<!-- Node3&#45;&gt;Node11 -->
<g id="edge32" class="edge">
<title>Node3&#45;&gt;Node11</title>
<path fill="none" stroke="midnightblue" d="M812.96,-399.87C864.61,-397 948.91,-387.37 1014,-356 1048.05,-339.59 1062.38,-334.42 1078,-300 1106.97,-236.16 991.8,-198.1 940.51,-184.59"/>
<polygon fill="midnightblue" stroke="midnightblue" points="812.58,-396.39 802.77,-400.38 812.93,-403.38 812.58,-396.39"/>
</g>
<!-- Node13 -->
<g id="node13" class="node">
<title>Node13</title>
<g id="a_node13"><a xlink:href="_game_character_8h.html" target="_top" xlink:title=" ">
<polygon fill="none" stroke="black" points="518.5,-280.5 518.5,-299.5 611.5,-299.5 611.5,-280.5 518.5,-280.5"/>
<text text-anchor="middle" x="565" y="-287.5" font-family="Helvetica,sans-Serif" font-size="10.00">GameCharacter.h</text>
</a>
</g>
</g>
<!-- Node3&#45;&gt;Node13 -->
<g id="edge15" class="edge">
<title>Node3&#45;&gt;Node13</title>
<path fill="none" stroke="midnightblue" d="M734.13,-388.54C713.69,-380.15 686.79,-368.4 664,-356 631.13,-338.12 594.96,-312.81 576.79,-299.67"/>
<polygon fill="midnightblue" stroke="midnightblue" points="733.03,-391.86 743.61,-392.37 735.65,-385.38 733.03,-391.86"/>
</g>
<!-- Node15 -->
<g id="node15" class="node">
<title>Node15</title>
<g id="a_node15"><a xlink:href="_combat_2_mumy_8h.html" target="_top" xlink:title=" ">
<polygon fill="none" stroke="black" points="406,-224.5 406,-243.5 458,-243.5 458,-224.5 406,-224.5"/>
<text text-anchor="middle" x="432" y="-231.5" font-family="Helvetica,sans-Serif" font-size="10.00">Mumy.h</text>
</a>
</g>
</g>
<!-- Node3&#45;&gt;Node15 -->
<g id="edge33" class="edge">
<title>Node3&#45;&gt;Node15</title>
<path fill="none" stroke="midnightblue" d="M719.32,-392.01C629.66,-377.27 595.32,-401.52 522,-356 476.18,-327.55 445.82,-266.54 435.71,-243.79"/>
<polygon fill="midnightblue" stroke="midnightblue" points="718.89,-395.49 729.35,-393.78 720.11,-388.6 718.89,-395.49"/>
</g>
<!-- Node17 -->
<g id="node17" class="node">
<title>Node17</title>
<g id="a_node17"><a xlink:href="_combat_2_pharaoh_8h.html" target="_top" xlink:title=" ">
<polygon fill="none" stroke="black" points="476.5,-224.5 476.5,-243.5 537.5,-243.5 537.5,-224.5 476.5,-224.5"/>
<text text-anchor="middle" x="507" y="-231.5" font-family="Helvetica,sans-Serif" font-size="10.00">Pharaoh.h</text>
</a>
</g>
</g>
<!-- Node3&#45;&gt;Node17 -->
<g id="edge43" class="edge">
<title>Node3&#45;&gt;Node17</title>
<path fill="none" stroke="midnightblue" d="M719.45,-391.68C660.07,-379.69 564.15,-359.93 557,-356 526.44,-339.18 515.2,-332.29 502,-300 494.29,-281.14 499.89,-256.67 503.9,-243.8"/>
<polygon fill="midnightblue" stroke="midnightblue" points="718.87,-395.13 729.36,-393.68 720.25,-388.27 718.87,-395.13"/>
</g>
<!-- Node19 -->
<g id="node19" class="node">
<title>Node19</title>
<g id="a_node19"><a xlink:href="_player_8h.html" target="_top" xlink:title=" ">
<polygon fill="none" stroke="black" points="801.5,-224.5 801.5,-243.5 854.5,-243.5 854.5,-224.5 801.5,-224.5"/>
<text text-anchor="middle" x="828" y="-231.5" font-family="Helvetica,sans-Serif" font-size="10.00">Player.h</text>
</a>
</g>
</g>
<!-- Node3&#45;&gt;Node19 -->
<g id="edge47" class="edge">
<title>Node3&#45;&gt;Node19</title>
<path fill="none" stroke="midnightblue" d="M765.55,-382.08C765.7,-357.34 768.56,-313.24 785,-280 792.38,-265.08 806.44,-251.83 816.47,-243.63"/>
<polygon fill="midnightblue" stroke="midnightblue" points="762.05,-382.29 765.64,-392.26 769.05,-382.23 762.05,-382.29"/>
</g>
<!-- Node21 -->
<g id="node21" class="node">
<title>Node21</title>
<g id="a_node21"><a xlink:href="_combat_2_shadow_8h.html" target="_top" xlink:title=" ">
<polygon fill="none" stroke="black" points="555.5,-224.5 555.5,-243.5 614.5,-243.5 614.5,-224.5 555.5,-224.5"/>
<text text-anchor="middle" x="585" y="-231.5" font-family="Helvetica,sans-Serif" font-size="10.00">Shadow.h</text>
</a>
</g>
</g>
<!-- Node3&#45;&gt;Node21 -->
<g id="edge49" class="edge">
<title>Node3&#45;&gt;Node21</title>
<path fill="none" stroke="midnightblue" d="M720.27,-389.92C652.89,-372.52 532.36,-336.95 509,-300 493.23,-275.05 531.92,-254.58 559.69,-243.63"/>
<polygon fill="midnightblue" stroke="midnightblue" points="719.65,-393.37 730.2,-392.45 721.38,-386.59 719.65,-393.37"/>
</g>
<!-- Node23 -->
<g id="node23" class="node">
<title>Node23</title>
<g id="a_node23"><a xlink:href="_inventory_8h.html" target="_top" xlink:title=" ">
<polygon fill="none" stroke="black" points="33.5,-336.5 33.5,-355.5 96.5,-355.5 96.5,-336.5 33.5,-336.5"/>
<text text-anchor="middle" x="65" y="-343.5" font-family="Helvetica,sans-Serif" font-size="10.00">Inventory.h</text>
</a>
</g>
</g>
<!-- Node3&#45;&gt;Node23 -->
<g id="edge29" class="edge">
<title>Node3&#45;&gt;Node23</title>
<path fill="none" stroke="midnightblue" d="M719.25,-392.09C468.27,-360.17 401.9,-376.41 154,-356 134.96,-354.43 113.67,-352.29 96.69,-350.49"/>
<polygon fill="midnightblue" stroke="midnightblue" points="719.05,-395.59 729.41,-393.4 719.94,-388.65 719.05,-395.59"/>
</g>
<!-- Node25 -->
<g id="node25" class="node">
<title>Node25</title>
<g id="a_node25"><a xlink:href="_enemy_01_overworld_01_sprites_2_mumy_8h.html" target="_top" xlink:title=" ">
<polygon fill="none" stroke="black" points="163,-336.5 163,-355.5 215,-355.5 215,-336.5 163,-336.5"/>
<text text-anchor="middle" x="189" y="-343.5" font-family="Helvetica,sans-Serif" font-size="10.00">Mumy.h</text>
</a>
</g>
</g>
<!-- Node3&#45;&gt;Node25 -->
<g id="edge34" class="edge">
<title>Node3&#45;&gt;Node25</title>
<path fill="none" stroke="midnightblue" d="M719.21,-392.06C520.37,-365.1 467.57,-374.46 272,-356 252.95,-354.2 231.48,-351.87 215.15,-350.02"/>
<polygon fill="midnightblue" stroke="midnightblue" points="719.02,-395.56 729.4,-393.45 719.97,-388.63 719.02,-395.56"/>
</g>
<!-- Node3&#45;&gt;Node27 -->
<g id="edge37" class="edge">
<title>Node3&#45;&gt;Node27</title>
<path fill="none" stroke="midnightblue" d="M812.84,-399.66C899.8,-396.46 1082.31,-386.26 1137,-356 1185.96,-328.91 1219.82,-266.52 1230.98,-243.62"/>
<polygon fill="midnightblue" stroke="midnightblue" points="812.6,-396.16 802.73,-400.01 812.84,-403.16 812.6,-396.16"/>
</g>
<!-- Node29 -->
<g id="node29" class="node">
<title>Node29</title>
<g id="a_node29"><a xlink:href="_enemy_01_overworld_01_sprites_2_pharaoh_8h.html" target="_top" xlink:title=" ">
<polygon fill="none" stroke="black" points="281.5,-336.5 281.5,-355.5 342.5,-355.5 342.5,-336.5 281.5,-336.5"/>
<text text-anchor="middle" x="312" y="-343.5" font-family="Helvetica,sans-Serif" font-size="10.00">Pharaoh.h</text>
</a>
</g>
</g>
<!-- Node3&#45;&gt;Node29 -->
<g id="edge44" class="edge">
<title>Node3&#45;&gt;Node29</title>
<path fill="none" stroke="midnightblue" d="M719.24,-392.03C560.06,-369 517.12,-377.73 362,-356 355.71,-355.12 349,-354.02 342.61,-352.9"/>
<polygon fill="midnightblue" stroke="midnightblue" points="718.99,-395.53 729.39,-393.52 720.01,-388.61 718.99,-395.53"/>
</g>
<!-- Node31 -->
<g id="node31" class="node">
<title>Node31</title>
<g id="a_node31"><a xlink:href="_enemy_01_overworld_01_sprites_2_shadow_8h.html" target="_top" xlink:title=" ">
<polygon fill="none" stroke="black" points="673.5,-336.5 673.5,-355.5 732.5,-355.5 732.5,-336.5 673.5,-336.5"/>
<text text-anchor="middle" x="703" y="-343.5" font-family="Helvetica,sans-Serif" font-size="10.00">Shadow.h</text>
</a>
</g>
</g>
<!-- Node3&#45;&gt;Node31 -->
<g id="edge50" class="edge">
<title>Node3&#45;&gt;Node31</title>
<path fill="none" stroke="midnightblue" d="M747.96,-385.54C736.73,-375.91 722.68,-363.87 713.31,-355.83"/>
<polygon fill="midnightblue" stroke="midnightblue" points="746.01,-388.47 755.88,-392.32 750.56,-383.16 746.01,-388.47"/>
</g>
<!-- Node33 -->
<g id="node33" class="node">
<title>Node33</title>
<g id="a_node33"><a xlink:href="_sprite_8h.html" target="_top" xlink:title=" ">
<polygon fill="none" stroke="black" points="955,-336.5 955,-355.5 1005,-355.5 1005,-336.5 955,-336.5"/>
<text text-anchor="middle" x="980" y="-343.5" font-family="Helvetica,sans-Serif" font-size="10.00">Sprite.h</text>
</a>
</g>
</g>
<!-- Node3&#45;&gt;Node33 -->
<g id="edge53" class="edge">
<title>Node3&#45;&gt;Node33</title>
<path fill="none" stroke="midnightblue" d="M809.71,-389.97C853.48,-378.92 919.31,-362.31 954.94,-353.32"/>
<polygon fill="midnightblue" stroke="midnightblue" points="808.75,-386.6 799.91,-392.44 810.46,-393.39 808.75,-386.6"/>
</g>
<!-- Node35 -->
<g id="node35" class="node">
<title>Node35</title>
<g id="a_node35"><a xlink:href="_u_i_8h.html" target="_top" xlink:title=" ">
<polygon fill="none" stroke="black" points="1157,-224.5 1157,-243.5 1191,-243.5 1191,-224.5 1157,-224.5"/>
<text text-anchor="middle" x="1174" y="-231.5" font-family="Helvetica,sans-Serif" font-size="10.00">UI.h</text>
</a>
</g>
</g>
<!-- Node3&#45;&gt;Node35 -->
<g id="edge60" class="edge">
<title>Node3&#45;&gt;Node35</title>
<path fill="none" stroke="midnightblue" d="M812.9,-399.6C895.51,-396.39 1062.91,-386.23 1112,-356 1153.6,-330.38 1168.46,-267.08 1172.63,-243.79"/>
<polygon fill="midnightblue" stroke="midnightblue" points="812.64,-396.11 802.78,-399.98 812.9,-403.11 812.64,-396.11"/>
</g>
<!-- Node5 -->
<g id="node5" class="node">
<title>Node5</title>
<g id="a_node5"><a xlink:href="_collision_8cpp.html" target="_top" xlink:title=" ">
<polygon fill="none" stroke="black" points="1208,-56.5 1208,-75.5 1280,-75.5 1280,-56.5 1208,-56.5"/>
<text text-anchor="middle" x="1244" y="-63.5" font-family="Helvetica,sans-Serif" font-size="10.00">Collision.cpp</text>
</a>
</g>
</g>
<!-- Node4&#45;&gt;Node5 -->
<g id="edge4" class="edge">
<title>Node4&#45;&gt;Node5</title>
<path fill="none" stroke="midnightblue" d="M1247.9,-102.1C1246.9,-93.14 1245.76,-82.86 1244.97,-75.75"/>
<polygon fill="midnightblue" stroke="midnightblue" points="1244.43,-102.53 1249.01,-112.08 1251.38,-101.76 1244.43,-102.53"/>
</g>
<!-- Node4&#45;&gt;Node6 -->
<g id="edge5" class="edge">
<title>Node4&#45;&gt;Node6</title>
<path fill="none" stroke="midnightblue" d="M1270.58,-106.38C1284.31,-96.62 1301.93,-84.11 1313.57,-75.83"/>
<polygon fill="midnightblue" stroke="midnightblue" points="1268.34,-103.68 1262.21,-112.32 1272.39,-109.38 1268.34,-103.68"/>
</g>
<!-- Node7 -->
<g id="node7" class="node">
<title>Node7</title>
<g id="a_node7"><a xlink:href="_puzzle_8cpp.html" target="_top" xlink:title=" ">
<polygon fill="none" stroke="black" points="1293.5,-0.5 1293.5,-19.5 1358.5,-19.5 1358.5,-0.5 1293.5,-0.5"/>
<text text-anchor="middle" x="1326" y="-7.5" font-family="Helvetica,sans-Serif" font-size="10.00">Puzzle.cpp</text>
</a>
</g>
</g>
<!-- Node6&#45;&gt;Node7 -->
<g id="edge6" class="edge">
<title>Node6&#45;&gt;Node7</title>
<path fill="none" stroke="midnightblue" d="M1326,-45.8C1326,-36.91 1326,-26.78 1326,-19.75"/>
<polygon fill="midnightblue" stroke="midnightblue" points="1322.5,-46.08 1326,-56.08 1329.5,-46.08 1322.5,-46.08"/>
</g>
<!-- Node6&#45;&gt;Node8 -->
<g id="edge7" class="edge">
<title>Node6&#45;&gt;Node8</title>
<path fill="none" stroke="midnightblue" d="M1288.18,-56.04C1164.59,-33.45 1029.18,-19.21 971.42,-13.63"/>
<polygon fill="midnightblue" stroke="midnightblue" points="1287.72,-59.51 1298.19,-57.89 1288.99,-52.63 1287.72,-59.51"/>
</g>
<!-- Node10 -->
<g id="node10" class="node">
<title>Node10</title>
<g id="a_node10"><a xlink:href="_endscreen_8cpp.html" target="_top" xlink:title=" ">
<polygon fill="none" stroke="black" points="794,-280.5 794,-299.5 876,-299.5 876,-280.5 794,-280.5"/>
<text text-anchor="middle" x="835" y="-287.5" font-family="Helvetica,sans-Serif" font-size="10.00">Endscreen.cpp</text>
</a>
</g>
</g>
<!-- Node9&#45;&gt;Node10 -->
<g id="edge9" class="edge">
<title>Node9&#45;&gt;Node10</title>
<path fill="none" stroke="midnightblue" d="M835,-325.8C835,-316.91 835,-306.78 835,-299.75"/>
<polygon fill="midnightblue" stroke="midnightblue" points="831.5,-326.08 835,-336.08 838.5,-326.08 831.5,-326.08"/>
</g>
<!-- Node9&#45;&gt;Node11 -->
<g id="edge10" class="edge">
<title>Node9&#45;&gt;Node11</title>
<path fill="none" stroke="midnightblue" d="M856.77,-330.03C866.72,-322.16 877.84,-311.72 885,-300 907.99,-262.35 914.64,-208.33 916.41,-187.57"/>
<polygon fill="midnightblue" stroke="midnightblue" points="854.37,-327.46 848.47,-336.25 858.57,-333.06 854.37,-327.46"/>
</g>
<!-- Node11&#45;&gt;Node4 -->
<g id="edge11" class="edge">
<title>Node11&#45;&gt;Node4</title>
<path fill="none" stroke="midnightblue" d="M950.75,-171.53C1015.4,-161.04 1155.87,-138.26 1218.62,-128.09"/>
<polygon fill="midnightblue" stroke="midnightblue" points="949.99,-168.1 940.68,-173.16 951.11,-175.01 949.99,-168.1"/>
</g>
<!-- Node11&#45;&gt;Node8 -->
<g id="edge13" class="edge">
<title>Node11&#45;&gt;Node8</title>
<path fill="none" stroke="midnightblue" d="M919.99,-157.93C925.63,-121.92 937.64,-45.23 941.66,-19.57"/>
<polygon fill="midnightblue" stroke="midnightblue" points="916.49,-157.65 918.4,-168.08 923.4,-158.74 916.49,-157.65"/>
</g>
<!-- Node12 -->
<g id="node12" class="node">
<title>Node12</title>
<g id="a_node12"><a xlink:href="_level_8cpp.html" target="_top" xlink:title=" ">
<polygon fill="none" stroke="black" points="857.5,-112.5 857.5,-131.5 914.5,-131.5 914.5,-112.5 857.5,-112.5"/>
<text text-anchor="middle" x="886" y="-119.5" font-family="Helvetica,sans-Serif" font-size="10.00">Level.cpp</text>
</a>
</g>
</g>
<!-- Node11&#45;&gt;Node12 -->
<g id="edge12" class="edge">
<title>Node11&#45;&gt;Node12</title>
<path fill="none" stroke="midnightblue" d="M906.82,-159.27C901.53,-150.05 895.28,-139.17 891.02,-131.75"/>
<polygon fill="midnightblue" stroke="midnightblue" points="903.87,-161.15 911.88,-168.08 909.94,-157.67 903.87,-161.15"/>
</g>
<!-- Node14 -->
<g id="node14" class="node">
<title>Node14</title>
<g id="a_node14"><a xlink:href="_game_character_8cpp.html" target="_top" xlink:title=" ">
<polygon fill="none" stroke="black" points="633,-224.5 633,-243.5 737,-243.5 737,-224.5 633,-224.5"/>
<text text-anchor="middle" x="685" y="-231.5" font-family="Helvetica,sans-Serif" font-size="10.00">GameCharacter.cpp</text>
</a>
</g>
</g>
<!-- Node13&#45;&gt;Node14 -->
<g id="edge16" class="edge">
<title>Node13&#45;&gt;Node14</title>
<path fill="none" stroke="midnightblue" d="M593.37,-276.23C615.82,-266.13 646.54,-252.31 666.07,-243.52"/>
<polygon fill="midnightblue" stroke="midnightblue" points="591.7,-273.15 584.01,-280.44 594.57,-279.53 591.7,-273.15"/>
</g>
<!-- Node13&#45;&gt;Node15 -->
<g id="edge17" class="edge">
<title>Node13&#45;&gt;Node15</title>
<path fill="none" stroke="midnightblue" d="M534.55,-276.64C509.59,-266.5 474.92,-252.43 452.98,-243.52"/>
<polygon fill="midnightblue" stroke="midnightblue" points="533.34,-279.92 543.93,-280.44 535.98,-273.44 533.34,-279.92"/>
</g>
<!-- Node13&#45;&gt;Node17 -->
<g id="edge20" class="edge">
<title>Node13&#45;&gt;Node17</title>
<path fill="none" stroke="midnightblue" d="M548.09,-273.25C537.8,-263.67 525.03,-251.79 516.49,-243.83"/>
<polygon fill="midnightblue" stroke="midnightblue" points="545.98,-276.07 555.68,-280.32 550.75,-270.95 545.98,-276.07"/>
</g>
<!-- Node13&#45;&gt;Node19 -->
<g id="edge23" class="edge">
<title>Node13&#45;&gt;Node19</title>
<path fill="none" stroke="midnightblue" d="M616.66,-278.39C672.15,-267 758.16,-249.34 801.34,-240.47"/>
<polygon fill="midnightblue" stroke="midnightblue" points="615.76,-275 606.67,-280.44 617.17,-281.86 615.76,-275"/>
</g>
<!-- Node13&#45;&gt;Node21 -->
<g id="edge26" class="edge">
<title>Node13&#45;&gt;Node21</title>
<path fill="none" stroke="midnightblue" d="M571.78,-270.69C575.15,-261.59 579.07,-251.01 581.76,-243.75"/>
<polygon fill="midnightblue" stroke="midnightblue" points="568.49,-269.49 568.3,-280.08 575.06,-271.92 568.49,-269.49"/>
</g>
<!-- Node15&#45;&gt;Node11 -->
<g id="edge18" class="edge">
<title>Node15&#45;&gt;Node11</title>
<path fill="none" stroke="midnightblue" d="M468.17,-224.06C645.09,-194.28 693.91,-211.75 868,-188 876.23,-186.88 885.17,-185.33 893.15,-183.84"/>
<polygon fill="midnightblue" stroke="midnightblue" points="467.54,-220.62 458.27,-225.76 468.72,-227.52 467.54,-220.62"/>
</g>
<!-- Node16 -->
<g id="node16" class="node">
<title>Node16</title>
<g id="a_node16"><a xlink:href="_combat_2_mumy_8cpp.html" target="_top" xlink:title=" ">
<polygon fill="none" stroke="black" points="404,-168.5 404,-187.5 466,-187.5 466,-168.5 404,-168.5"/>
<text text-anchor="middle" x="435" y="-175.5" font-family="Helvetica,sans-Serif" font-size="10.00">Mumy.cpp</text>
</a>
</g>
</g>
<!-- Node15&#45;&gt;Node16 -->
<g id="edge19" class="edge">
<title>Node15&#45;&gt;Node16</title>
<path fill="none" stroke="midnightblue" d="M433.07,-213.8C433.56,-204.91 434.12,-194.78 434.51,-187.75"/>
<polygon fill="midnightblue" stroke="midnightblue" points="429.56,-213.9 432.5,-224.08 436.54,-214.29 429.56,-213.9"/>
</g>
<!-- Node17&#45;&gt;Node11 -->
<g id="edge21" class="edge">
<title>Node17&#45;&gt;Node11</title>
<path fill="none" stroke="midnightblue" d="M547.55,-223.9C689.69,-200.17 728.74,-208.55 868,-188 876.21,-186.79 885.16,-185.22 893.13,-183.73"/>
<polygon fill="midnightblue" stroke="midnightblue" points="546.86,-220.47 537.59,-225.59 548.03,-227.37 546.86,-220.47"/>
</g>
<!-- Node18 -->
<g id="node18" class="node">
<title>Node18</title>
<g id="a_node18"><a xlink:href="_combat_2_pharaoh_8cpp.html" target="_top" xlink:title=" ">
<polygon fill="none" stroke="black" points="484.5,-168.5 484.5,-187.5 555.5,-187.5 555.5,-168.5 484.5,-168.5"/>
<text text-anchor="middle" x="520" y="-175.5" font-family="Helvetica,sans-Serif" font-size="10.00">Pharaoh.cpp</text>
</a>
</g>
</g>
<!-- Node17&#45;&gt;Node18 -->
<g id="edge22" class="edge">
<title>Node17&#45;&gt;Node18</title>
<path fill="none" stroke="midnightblue" d="M511.55,-214.1C513.71,-205.14 516.18,-194.86 517.89,-187.75"/>
<polygon fill="midnightblue" stroke="midnightblue" points="508.08,-213.54 509.15,-224.08 514.89,-215.18 508.08,-213.54"/>
</g>
<!-- Node19&#45;&gt;Node11 -->
<g id="edge24" class="edge">
<title>Node19&#45;&gt;Node11</title>
<path fill="none" stroke="midnightblue" d="M851.24,-218.9C867.56,-209 888.87,-196.07 902.74,-187.65"/>
<polygon fill="midnightblue" stroke="midnightblue" points="849.03,-216.14 842.3,-224.32 852.66,-222.13 849.03,-216.14"/>
</g>
<!-- Node20 -->
<g id="node20" class="node">
<title>Node20</title>
<g id="a_node20"><a xlink:href="_player_8cpp.html" target="_top" xlink:title=" ">
<polygon fill="none" stroke="black" points="796.5,-168.5 796.5,-187.5 859.5,-187.5 859.5,-168.5 796.5,-168.5"/>
<text text-anchor="middle" x="828" y="-175.5" font-family="Helvetica,sans-Serif" font-size="10.00">Player.cpp</text>
</a>
</g>
</g>
<!-- Node19&#45;&gt;Node20 -->
<g id="edge25" class="edge">
<title>Node19&#45;&gt;Node20</title>
<path fill="none" stroke="midnightblue" d="M828,-213.8C828,-204.91 828,-194.78 828,-187.75"/>
<polygon fill="midnightblue" stroke="midnightblue" points="824.5,-214.08 828,-224.08 831.5,-214.08 824.5,-214.08"/>
</g>
<!-- Node21&#45;&gt;Node11 -->
<g id="edge27" class="edge">
<title>Node21&#45;&gt;Node11</title>
<path fill="none" stroke="midnightblue" d="M624.81,-223.98C733.43,-203.77 763.02,-205.38 868,-188 876.19,-186.64 885.13,-185.04 893.1,-183.56"/>
<polygon fill="midnightblue" stroke="midnightblue" points="623.94,-220.59 614.76,-225.87 625.23,-227.47 623.94,-220.59"/>
</g>
<!-- Node22 -->
<g id="node22" class="node">
<title>Node22</title>
<g id="a_node22"><a xlink:href="_combat_2_shadow_8cpp.html" target="_top" xlink:title=" ">
<polygon fill="none" stroke="black" points="574,-168.5 574,-187.5 644,-187.5 644,-168.5 574,-168.5"/>
<text text-anchor="middle" x="609" y="-175.5" font-family="Helvetica,sans-Serif" font-size="10.00">Shadow.cpp</text>
</a>
</g>
</g>
<!-- Node21&#45;&gt;Node22 -->
<g id="edge28" class="edge">
<title>Node21&#45;&gt;Node22</title>
<path fill="none" stroke="midnightblue" d="M593.14,-214.69C597.18,-205.59 601.88,-195.01 605.11,-187.75"/>
<polygon fill="midnightblue" stroke="midnightblue" points="589.83,-213.52 588.96,-224.08 596.22,-216.37 589.83,-213.52"/>
</g>
<!-- Node23&#45;&gt;Node8 -->
<g id="edge31" class="edge">
<title>Node23&#45;&gt;Node8</title>
<path fill="none" stroke="midnightblue" d="M45.2,-329.7C36.07,-321.73 25.78,-311.3 19,-300 3.52,-274.19 0,-265.1 0,-235 0,-235 0,-235 0,-121 0,-47.53 80.47,-72.78 152,-56 301.48,-20.93 791.81,-12.8 914.81,-11.3"/>
<polygon fill="midnightblue" stroke="midnightblue" points="43.2,-332.59 53.13,-336.29 47.67,-327.21 43.2,-332.59"/>
</g>
<!-- Node24 -->
<g id="node24" class="node">
<title>Node24</title>
<g id="a_node24"><a xlink:href="_inventory_8cpp.html" target="_top" xlink:title=" ">
<polygon fill="none" stroke="black" points="28,-280.5 28,-299.5 102,-299.5 102,-280.5 28,-280.5"/>
<text text-anchor="middle" x="65" y="-287.5" font-family="Helvetica,sans-Serif" font-size="10.00">Inventory.cpp</text>
</a>
</g>
</g>
<!-- Node23&#45;&gt;Node24 -->
<g id="edge30" class="edge">
<title>Node23&#45;&gt;Node24</title>
<path fill="none" stroke="midnightblue" d="M65,-325.8C65,-316.91 65,-306.78 65,-299.75"/>
<polygon fill="midnightblue" stroke="midnightblue" points="61.5,-326.08 65,-336.08 68.5,-326.08 61.5,-326.08"/>
</g>
<!-- Node25&#45;&gt;Node8 -->
<g id="edge36" class="edge">
<title>Node25&#45;&gt;Node8</title>
<path fill="none" stroke="midnightblue" d="M171.67,-329.07C163.79,-321.02 154.92,-310.7 149,-300 134.42,-273.67 130,-265.1 130,-235 130,-235 130,-235 130,-121 130,-51.19 205.3,-73.06 273,-56 397.49,-24.63 803.71,-13.93 914.73,-11.55"/>
<polygon fill="midnightblue" stroke="midnightblue" points="169.47,-331.82 179.07,-336.3 174.36,-326.81 169.47,-331.82"/>
</g>
<!-- Node26 -->
<g id="node26" class="node">
<title>Node26</title>
<g id="a_node26"><a xlink:href="_enemy_01_overworld_01_sprites_2_mumy_8cpp.html" target="_top" xlink:title=" ">
<polygon fill="none" stroke="black" points="158,-280.5 158,-299.5 220,-299.5 220,-280.5 158,-280.5"/>
<text text-anchor="middle" x="189" y="-287.5" font-family="Helvetica,sans-Serif" font-size="10.00">Mumy.cpp</text>
</a>
</g>
</g>
<!-- Node25&#45;&gt;Node26 -->
<g id="edge35" class="edge">
<title>Node25&#45;&gt;Node26</title>
<path fill="none" stroke="midnightblue" d="M189,-325.8C189,-316.91 189,-306.78 189,-299.75"/>
<polygon fill="midnightblue" stroke="midnightblue" points="185.5,-326.08 189,-336.08 192.5,-326.08 185.5,-326.08"/>
</g>
<!-- Node27&#45;&gt;Node4 -->
<g id="edge38" class="edge">
<title>Node27&#45;&gt;Node4</title>
<path fill="none" stroke="midnightblue" d="M1237.54,-214.35C1240.83,-190.25 1246.41,-149.31 1248.83,-131.59"/>
<polygon fill="midnightblue" stroke="midnightblue" points="1234.06,-213.99 1236.18,-224.37 1241,-214.93 1234.06,-213.99"/>
</g>
<!-- Node27&#45;&gt;Node6 -->
<g id="edge41" class="edge">
<title>Node27&#45;&gt;Node6</title>
<path fill="none" stroke="midnightblue" d="M1244.95,-214.86C1264.46,-179.25 1307.11,-101.45 1321.3,-75.57"/>
<polygon fill="midnightblue" stroke="midnightblue" points="1241.63,-213.62 1239.89,-224.08 1247.77,-216.99 1241.63,-213.62"/>
</g>
<!-- Node27&#45;&gt;Node8 -->
<g id="edge42" class="edge">
<title>Node27&#45;&gt;Node8</title>
<path fill="none" stroke="midnightblue" d="M1205.21,-220.01C1188.47,-212.01 1167.66,-200.83 1151,-188 1087.47,-139.07 1091.65,-104.77 1028,-56 1007.85,-40.56 981.67,-27.59 963.71,-19.6"/>
<polygon fill="midnightblue" stroke="midnightblue" points="1204,-223.31 1214.54,-224.35 1206.95,-216.96 1204,-223.31"/>
</g>
<!-- Node27&#45;&gt;Node11 -->
<g id="edge39" class="edge">
<title>Node27&#45;&gt;Node11</title>
<path fill="none" stroke="midnightblue" d="M1200.3,-224.06C1200.2,-224.04 1200.1,-224.02 1200,-224 1104.53,-204.18 989.36,-188.33 940.62,-181.99"/>
<polygon fill="midnightblue" stroke="midnightblue" points="1199.3,-227.43 1209.83,-226.23 1200.85,-220.6 1199.3,-227.43"/>
</g>
<!-- Node28 -->
<g id="node28" class="node">
<title>Node28</title>
<g id="a_node28"><a xlink:href="_nemo_8cpp.html" target="_top" xlink:title=" ">
<polygon fill="none" stroke="black" points="1160.5,-168.5 1160.5,-187.5 1221.5,-187.5 1221.5,-168.5 1160.5,-168.5"/>
<text text-anchor="middle" x="1191" y="-175.5" font-family="Helvetica,sans-Serif" font-size="10.00">Nemo.cpp</text>
</a>
</g>
</g>
<!-- Node27&#45;&gt;Node28 -->
<g id="edge40" class="edge">
<title>Node27&#45;&gt;Node28</title>
<path fill="none" stroke="midnightblue" d="M1221.27,-216.14C1213.6,-206.74 1204.37,-195.4 1198.13,-187.75"/>
<polygon fill="midnightblue" stroke="midnightblue" points="1218.7,-218.54 1227.73,-224.08 1224.13,-214.12 1218.7,-218.54"/>
</g>
<!-- Node29&#45;&gt;Node8 -->
<g id="edge46" class="edge">
<title>Node29&#45;&gt;Node8</title>
<path fill="none" stroke="midnightblue" d="M292.64,-329.63C283.71,-321.64 273.64,-311.21 267,-300 251.66,-274.11 248,-265.1 248,-235 248,-235 248,-235 248,-121 248,-62.68 306.24,-73.11 362,-56 467.18,-23.72 813.02,-13.81 914.67,-11.56"/>
<polygon fill="midnightblue" stroke="midnightblue" points="290.51,-332.41 300.39,-336.23 295.05,-327.08 290.51,-332.41"/>
</g>
<!-- Node30 -->
<g id="node30" class="node">
<title>Node30</title>
<g id="a_node30"><a xlink:href="_enemy_01_overworld_01_sprites_2_pharaoh_8cpp.html" target="_top" xlink:title=" ">
<polygon fill="none" stroke="black" points="276.5,-280.5 276.5,-299.5 347.5,-299.5 347.5,-280.5 276.5,-280.5"/>
<text text-anchor="middle" x="312" y="-287.5" font-family="Helvetica,sans-Serif" font-size="10.00">Pharaoh.cpp</text>
</a>
</g>
</g>
<!-- Node29&#45;&gt;Node30 -->
<g id="edge45" class="edge">
<title>Node29&#45;&gt;Node30</title>
<path fill="none" stroke="midnightblue" d="M312,-325.8C312,-316.91 312,-306.78 312,-299.75"/>
<polygon fill="midnightblue" stroke="midnightblue" points="308.5,-326.08 312,-336.08 315.5,-326.08 308.5,-326.08"/>
</g>
<!-- Node31&#45;&gt;Node8 -->
<g id="edge52" class="edge">
<title>Node31&#45;&gt;Node8</title>
<path fill="none" stroke="midnightblue" d="M681.55,-330.17C665.26,-317.02 647.46,-297.27 659,-280 682.25,-245.21 718.05,-275.14 746,-244 766.1,-221.6 765,-209.1 765,-179 765,-179 765,-179 765,-121 765,-51.43 864.6,-24.39 914.8,-15.18"/>
<polygon fill="midnightblue" stroke="midnightblue" points="679.69,-333.15 689.77,-336.4 683.92,-327.57 679.69,-333.15"/>
</g>
<!-- Node32 -->
<g id="node32" class="node">
<title>Node32</title>
<g id="a_node32"><a xlink:href="_enemy_01_overworld_01_sprites_2_shadow_8cpp.html" target="_top" xlink:title=" ">
<polygon fill="none" stroke="black" points="668,-280.5 668,-299.5 738,-299.5 738,-280.5 668,-280.5"/>
<text text-anchor="middle" x="703" y="-287.5" font-family="Helvetica,sans-Serif" font-size="10.00">Shadow.cpp</text>
</a>
</g>
</g>
<!-- Node31&#45;&gt;Node32 -->
<g id="edge51" class="edge">
<title>Node31&#45;&gt;Node32</title>
<path fill="none" stroke="midnightblue" d="M703,-325.8C703,-316.91 703,-306.78 703,-299.75"/>
<polygon fill="midnightblue" stroke="midnightblue" points="699.5,-326.08 703,-336.08 706.5,-326.08 699.5,-326.08"/>
</g>
<!-- Node33&#45;&gt;Node8 -->
<g id="edge59" class="edge">
<title>Node33&#45;&gt;Node8</title>
<path fill="none" stroke="midnightblue" d="M1014.86,-338.87C1037.06,-332.96 1064.15,-321.59 1078,-300 1082.8,-292.52 1080.05,-288.65 1078,-280 1076.28,-272.75 970.54,-65.04 947.43,-19.69"/>
<polygon fill="midnightblue" stroke="midnightblue" points="1013.98,-335.48 1005.07,-341.21 1015.61,-342.29 1013.98,-335.48"/>
</g>
<!-- Node33&#45;&gt;Node11 -->
<g id="edge55" class="edge">
<title>Node33&#45;&gt;Node11</title>
<path fill="none" stroke="midnightblue" d="M972.94,-326.39C959.35,-290.59 930.03,-213.34 920.25,-187.57"/>
<polygon fill="midnightblue" stroke="midnightblue" points="969.79,-327.97 976.61,-336.08 976.34,-325.48 969.79,-327.97"/>
</g>
<!-- Node33&#45;&gt;Node13 -->
<g id="edge54" class="edge">
<title>Node33&#45;&gt;Node13</title>
<path fill="none" stroke="midnightblue" d="M944.68,-340.4C869.87,-330.67 695.42,-307.97 611.6,-297.06"/>
<polygon fill="midnightblue" stroke="midnightblue" points="944.61,-343.92 954.97,-341.74 945.51,-336.98 944.61,-343.92"/>
</g>
<!-- Node33&#45;&gt;Node19 -->
<g id="edge57" class="edge">
<title>Node33&#45;&gt;Node19</title>
<path fill="none" stroke="midnightblue" d="M959.85,-330.42C927.7,-307.15 865.79,-262.35 839.87,-243.59"/>
<polygon fill="midnightblue" stroke="midnightblue" points="957.92,-333.34 968.07,-336.37 962.02,-327.67 957.92,-333.34"/>
</g>
<!-- Node33&#45;&gt;Node27 -->
<g id="edge56" class="edge">
<title>Node33&#45;&gt;Node27</title>
<path fill="none" stroke="midnightblue" d="M1015.32,-339.83C1050.73,-333.7 1106.15,-321.5 1150,-300 1181.03,-284.79 1211.84,-257.37 1226.37,-243.51"/>
<polygon fill="midnightblue" stroke="midnightblue" points="1014.3,-336.45 1005,-341.54 1015.44,-343.35 1014.3,-336.45"/>
</g>
<!-- Node34 -->
<g id="node34" class="node">
<title>Node34</title>
<g id="a_node34"><a xlink:href="_sprite_8cpp.html" target="_top" xlink:title=" ">
<polygon fill="none" stroke="black" points="1008.5,-280.5 1008.5,-299.5 1069.5,-299.5 1069.5,-280.5 1008.5,-280.5"/>
<text text-anchor="middle" x="1039" y="-287.5" font-family="Helvetica,sans-Serif" font-size="10.00">Sprite.cpp</text>
</a>
</g>
</g>
<!-- Node33&#45;&gt;Node34 -->
<g id="edge58" class="edge">
<title>Node33&#45;&gt;Node34</title>
<path fill="none" stroke="midnightblue" d="M996.89,-329.54C1007.41,-319.91 1020.57,-307.87 1029.35,-299.83"/>
<polygon fill="midnightblue" stroke="midnightblue" points="994.49,-326.99 989.48,-336.32 999.22,-332.15 994.49,-326.99"/>
</g>
<!-- Node35&#45;&gt;Node8 -->
<g id="edge63" class="edge">
<title>Node35&#45;&gt;Node8</title>
<path fill="none" stroke="midnightblue" d="M1146.87,-224.47C1112.79,-213.54 1057.9,-195.16 1051,-188 1008.16,-143.6 1044.85,-105.49 1008,-56 995.87,-39.71 976.04,-27.21 961.47,-19.57"/>
<polygon fill="midnightblue" stroke="midnightblue" points="1146.11,-227.9 1156.7,-227.6 1148.24,-221.23 1146.11,-227.9"/>
</g>
<!-- Node35&#45;&gt;Node11 -->
<g id="edge61" class="edge">
<title>Node35&#45;&gt;Node11</title>
<path fill="none" stroke="midnightblue" d="M1146.86,-227.3C1096.31,-216.68 988.52,-194.03 940.7,-183.98"/>
<polygon fill="midnightblue" stroke="midnightblue" points="1146.23,-230.74 1156.74,-229.37 1147.67,-223.89 1146.23,-230.74"/>
</g>
<!-- Node36 -->
<g id="node36" class="node">
<title>Node36</title>
<g id="a_node36"><a xlink:href="_u_i_8cpp.html" target="_top" xlink:title=" ">
<polygon fill="none" stroke="black" points="1060,-168.5 1060,-187.5 1104,-187.5 1104,-168.5 1060,-168.5"/>
<text text-anchor="middle" x="1082" y="-175.5" font-family="Helvetica,sans-Serif" font-size="10.00">UI.cpp</text>
</a>
</g>
</g>
<!-- Node35&#45;&gt;Node36 -->
<g id="edge62" class="edge">
<title>Node35&#45;&gt;Node36</title>
<path fill="none" stroke="midnightblue" d="M1150.45,-219.18C1133.52,-209.24 1111.22,-196.15 1096.74,-187.65"/>
<polygon fill="midnightblue" stroke="midnightblue" points="1148.82,-222.28 1159.22,-224.32 1152.37,-216.24 1148.82,-222.28"/>
</g>
</g>
</svg>
