<?xml version="1.0" encoding="UTF-8" standalone="no"?>
<!DOCTYPE svg PUBLIC "-//W3C//DTD SVG 1.1//EN"
 "http://www.w3.org/Graphics/SVG/1.1/DTD/svg11.dtd">
<!-- Generated by graphviz version 3.0.0 (20220226.1711)
 -->
<!-- Title: GameAudio.cpp Pages: 1 -->
<svg width="1429pt" height="196pt"
 viewBox="0.00 0.00 1428.50 196.00" xmlns="http://www.w3.org/2000/svg" xmlns:xlink="http://www.w3.org/1999/xlink">
<g id="graph0" class="graph" transform="scale(1 1) rotate(0) translate(4 192)">
<title>GameAudio.cpp</title>
<!-- Node1 -->
<g id="node1" class="node">
<title>Node1</title>
<g id="a_node1"><a xlink:title=" ">
<polygon fill="#bfbfbf" stroke="black" points="644.5,-168.5 644.5,-187.5 730.5,-187.5 730.5,-168.5 644.5,-168.5"/>
<text text-anchor="middle" x="687.5" y="-175.5" font-family="Helvetica,sans-Serif" font-size="10.00">GameAudio.cpp</text>
</a>
</g>
</g>
<!-- Node2 -->
<g id="node2" class="node">
<title>Node2</title>
<g id="a_node2"><a xlink:href="_game_audio_8h.html" target="_top" xlink:title=" ">
<polygon fill="none" stroke="black" points="649.5,-112.5 649.5,-131.5 725.5,-131.5 725.5,-112.5 649.5,-112.5"/>
<text text-anchor="middle" x="687.5" y="-119.5" font-family="Helvetica,sans-Serif" font-size="10.00">GameAudio.h</text>
</a>
</g>
</g>
<!-- Node1&#45;&gt;Node2 -->
<g id="edge1" class="edge">
<title>Node1&#45;&gt;Node2</title>
<path fill="none" stroke="midnightblue" d="M687.5,-168.08C687.5,-161.01 687.5,-150.86 687.5,-141.99"/>
<polygon fill="midnightblue" stroke="midnightblue" points="691,-141.75 687.5,-131.75 684,-141.75 691,-141.75"/>
</g>
<!-- Node3 -->
<g id="node3" class="node">
<title>Node3</title>
<g id="a_node3"><a xlink:href="_i_n_c_l_u_d_e_s_8h.html" target="_top" xlink:title=" ">
<polygon fill="none" stroke="black" points="646.5,-56.5 646.5,-75.5 728.5,-75.5 728.5,-56.5 646.5,-56.5"/>
<text text-anchor="middle" x="687.5" y="-63.5" font-family="Helvetica,sans-Serif" font-size="10.00">../INCLUDES.h</text>
</a>
</g>
</g>
<!-- Node2&#45;&gt;Node3 -->
<g id="edge2" class="edge">
<title>Node2&#45;&gt;Node3</title>
<path fill="none" stroke="midnightblue" d="M682.33,-112.08C680.82,-104.93 680.39,-94.64 681.04,-85.69"/>
<polygon fill="midnightblue" stroke="midnightblue" points="684.52,-86.13 682.37,-75.75 677.58,-85.2 684.52,-86.13"/>
</g>
<!-- Node3&#45;&gt;Node2 -->
<g id="edge24" class="edge">
<title>Node3&#45;&gt;Node2</title>
<path fill="none" stroke="midnightblue" d="M692.63,-75.75C694.16,-82.86 694.6,-93.14 693.97,-102.1"/>
<polygon fill="midnightblue" stroke="midnightblue" points="690.49,-101.71 692.67,-112.08 697.43,-102.62 690.49,-101.71"/>
</g>
<!-- Node4 -->
<g id="node4" class="node">
<title>Node4</title>
<g id="a_node4"><a xlink:title=" ">
<polygon fill="none" stroke="#bfbfbf" points="0,-0.5 0,-19.5 49,-19.5 49,-0.5 0,-0.5"/>
<text text-anchor="middle" x="24.5" y="-7.5" font-family="Helvetica,sans-Serif" font-size="10.00">string.h</text>
</a>
</g>
</g>
<!-- Node3&#45;&gt;Node4 -->
<g id="edge3" class="edge">
<title>Node3&#45;&gt;Node4</title>
<path fill="none" stroke="midnightblue" d="M646.34,-64.71C546.92,-63.46 285.79,-56.77 59.34,-19.8"/>
<polygon fill="midnightblue" stroke="midnightblue" points="59.7,-16.31 49.27,-18.13 58.56,-23.22 59.7,-16.31"/>
</g>
<!-- Node5 -->
<g id="node5" class="node">
<title>Node5</title>
<g id="a_node5"><a xlink:title=" ">
<polygon fill="none" stroke="#bfbfbf" points="67.5,-0.5 67.5,-19.5 115.5,-19.5 115.5,-0.5 67.5,-0.5"/>
<text text-anchor="middle" x="91.5" y="-7.5" font-family="Helvetica,sans-Serif" font-size="10.00">raylib.h</text>
</a>
</g>
</g>
<!-- Node3&#45;&gt;Node5 -->
<g id="edge4" class="edge">
<title>Node3&#45;&gt;Node5</title>
<path fill="none" stroke="midnightblue" d="M646.2,-64.33C554.2,-62.27 325.44,-54.04 125.63,-19.86"/>
<polygon fill="midnightblue" stroke="midnightblue" points="125.98,-16.37 115.53,-18.11 124.79,-23.27 125.98,-16.37"/>
</g>
<!-- Node6 -->
<g id="node6" class="node">
<title>Node6</title>
<g id="a_node6"><a xlink:title=" ">
<polygon fill="none" stroke="#bfbfbf" points="133.5,-0.5 133.5,-19.5 193.5,-19.5 193.5,-0.5 133.5,-0.5"/>
<text text-anchor="middle" x="163.5" y="-7.5" font-family="Helvetica,sans-Serif" font-size="10.00">raymath.h</text>
</a>
</g>
</g>
<!-- Node3&#45;&gt;Node6 -->
<g id="edge5" class="edge">
<title>Node3&#45;&gt;Node6</title>
<path fill="none" stroke="midnightblue" d="M646.39,-63.05C564.13,-58.75 373.36,-46.76 203.76,-20"/>
<polygon fill="midnightblue" stroke="midnightblue" points="204.08,-16.5 193.65,-18.38 202.98,-23.42 204.08,-16.5"/>
</g>
<!-- Node7 -->
<g id="node7" class="node">
<title>Node7</title>
<g id="a_node7"><a xlink:title=" ">
<polygon fill="none" stroke="#bfbfbf" points="211.5,-0.5 211.5,-19.5 259.5,-19.5 259.5,-0.5 211.5,-0.5"/>
<text text-anchor="middle" x="235.5" y="-7.5" font-family="Helvetica,sans-Serif" font-size="10.00">stdlib.h</text>
</a>
</g>
</g>
<!-- Node3&#45;&gt;Node7 -->
<g id="edge6" class="edge">
<title>Node3&#45;&gt;Node7</title>
<path fill="none" stroke="midnightblue" d="M646.44,-62.77C572.73,-58.29 413.02,-46.44 269.42,-19.89"/>
<polygon fill="midnightblue" stroke="midnightblue" points="270.02,-16.44 259.55,-18.03 268.73,-23.32 270.02,-16.44"/>
</g>
<!-- Node8 -->
<g id="node8" class="node">
<title>Node8</title>
<g id="a_node8"><a xlink:title=" ">
<polygon fill="none" stroke="#bfbfbf" points="278,-0.5 278,-19.5 323,-19.5 323,-0.5 278,-0.5"/>
<text text-anchor="middle" x="300.5" y="-7.5" font-family="Helvetica,sans-Serif" font-size="10.00">cstdlib</text>
</a>
</g>
</g>
<!-- Node3&#45;&gt;Node8 -->
<g id="edge7" class="edge">
<title>Node3&#45;&gt;Node8</title>
<path fill="none" stroke="midnightblue" d="M646.45,-61.79C581.82,-56.29 452.32,-43.54 333.15,-19.84"/>
<polygon fill="midnightblue" stroke="midnightblue" points="333.62,-16.36 323.12,-17.81 332.23,-23.22 333.62,-16.36"/>
</g>
<!-- Node9 -->
<g id="node9" class="node">
<title>Node9</title>
<g id="a_node9"><a xlink:title=" ">
<polygon fill="none" stroke="#bfbfbf" points="341.5,-0.5 341.5,-19.5 387.5,-19.5 387.5,-0.5 341.5,-0.5"/>
<text text-anchor="middle" x="364.5" y="-7.5" font-family="Helvetica,sans-Serif" font-size="10.00">stdio.h</text>
</a>
</g>
</g>
<!-- Node3&#45;&gt;Node9 -->
<g id="edge8" class="edge">
<title>Node3&#45;&gt;Node9</title>
<path fill="none" stroke="midnightblue" d="M646.25,-60.21C591.53,-53.52 491.79,-40.1 397.79,-20.07"/>
<polygon fill="midnightblue" stroke="midnightblue" points="398.35,-16.61 387.84,-17.91 396.87,-23.45 398.35,-16.61"/>
</g>
<!-- Node10 -->
<g id="node10" class="node">
<title>Node10</title>
<g id="a_node10"><a xlink:title=" ">
<polygon fill="none" stroke="#bfbfbf" points="405.5,-0.5 405.5,-19.5 455.5,-19.5 455.5,-0.5 405.5,-0.5"/>
<text text-anchor="middle" x="430.5" y="-7.5" font-family="Helvetica,sans-Serif" font-size="10.00">config.h</text>
</a>
</g>
</g>
<!-- Node3&#45;&gt;Node10 -->
<g id="edge9" class="edge">
<title>Node3&#45;&gt;Node10</title>
<path fill="none" stroke="midnightblue" d="M646.24,-57.44C603.46,-49.43 534.44,-36.03 465.83,-20.2"/>
<polygon fill="midnightblue" stroke="midnightblue" points="466.24,-16.71 455.71,-17.85 464.66,-23.53 466.24,-16.71"/>
</g>
<!-- Node11 -->
<g id="node11" class="node">
<title>Node11</title>
<g id="a_node11"><a xlink:title=" ">
<polygon fill="none" stroke="#bfbfbf" points="474,-0.5 474,-19.5 533,-19.5 533,-0.5 474,-0.5"/>
<text text-anchor="middle" x="503.5" y="-7.5" font-family="Helvetica,sans-Serif" font-size="10.00">process.h</text>
</a>
</g>
</g>
<!-- Node3&#45;&gt;Node11 -->
<g id="edge10" class="edge">
<title>Node3&#45;&gt;Node11</title>
<path fill="none" stroke="midnightblue" d="M658.34,-56.44C626.99,-47.24 576.97,-32.56 542.3,-22.39"/>
<polygon fill="midnightblue" stroke="midnightblue" points="543.1,-18.97 532.52,-19.52 541.13,-25.69 543.1,-18.97"/>
</g>
<!-- Node12 -->
<g id="node12" class="node">
<title>Node12</title>
<g id="a_node12"><a xlink:title=" ">
<polygon fill="none" stroke="#bfbfbf" points="551,-0.5 551,-19.5 592,-19.5 592,-0.5 551,-0.5"/>
<text text-anchor="middle" x="571.5" y="-7.5" font-family="Helvetica,sans-Serif" font-size="10.00">string</text>
</a>
</g>
</g>
<!-- Node3&#45;&gt;Node12 -->
<g id="edge11" class="edge">
<title>Node3&#45;&gt;Node12</title>
<path fill="none" stroke="midnightblue" d="M669.12,-56.44C650.28,-47.68 620.77,-33.94 599.12,-23.86"/>
<polygon fill="midnightblue" stroke="midnightblue" points="600.34,-20.56 589.79,-19.52 597.38,-26.91 600.34,-20.56"/>
</g>
<!-- Node13 -->
<g id="node13" class="node">
<title>Node13</title>
<g id="a_node13"><a xlink:title=" ">
<polygon fill="none" stroke="#bfbfbf" points="610.5,-0.5 610.5,-19.5 648.5,-19.5 648.5,-0.5 610.5,-0.5"/>
<text text-anchor="middle" x="629.5" y="-7.5" font-family="Helvetica,sans-Serif" font-size="10.00">array</text>
</a>
</g>
</g>
<!-- Node3&#45;&gt;Node13 -->
<g id="edge12" class="edge">
<title>Node3&#45;&gt;Node13</title>
<path fill="none" stroke="midnightblue" d="M678.18,-56.32C669.61,-48.34 656.69,-36.31 646.31,-26.65"/>
<polygon fill="midnightblue" stroke="midnightblue" points="648.69,-24.09 638.99,-19.83 643.92,-29.21 648.69,-24.09"/>
</g>
<!-- Node14 -->
<g id="node14" class="node">
<title>Node14</title>
<g id="a_node14"><a xlink:title=" ">
<polygon fill="none" stroke="#bfbfbf" points="666.5,-0.5 666.5,-19.5 708.5,-19.5 708.5,-0.5 666.5,-0.5"/>
<text text-anchor="middle" x="687.5" y="-7.5" font-family="Helvetica,sans-Serif" font-size="10.00">vector</text>
</a>
</g>
</g>
<!-- Node3&#45;&gt;Node14 -->
<g id="edge13" class="edge">
<title>Node3&#45;&gt;Node14</title>
<path fill="none" stroke="midnightblue" d="M687.5,-56.08C687.5,-49.01 687.5,-38.86 687.5,-29.99"/>
<polygon fill="midnightblue" stroke="midnightblue" points="691,-29.75 687.5,-19.75 684,-29.75 691,-29.75"/>
</g>
<!-- Node15 -->
<g id="node15" class="node">
<title>Node15</title>
<g id="a_node15"><a xlink:title=" ">
<polygon fill="none" stroke="#bfbfbf" points="726.5,-0.5 726.5,-19.5 770.5,-19.5 770.5,-0.5 726.5,-0.5"/>
<text text-anchor="middle" x="748.5" y="-7.5" font-family="Helvetica,sans-Serif" font-size="10.00">cmath</text>
</a>
</g>
</g>
<!-- Node3&#45;&gt;Node15 -->
<g id="edge14" class="edge">
<title>Node3&#45;&gt;Node15</title>
<path fill="none" stroke="midnightblue" d="M697.3,-56.32C706.32,-48.34 719.91,-36.31 730.82,-26.65"/>
<polygon fill="midnightblue" stroke="midnightblue" points="733.35,-29.08 738.52,-19.83 728.71,-23.84 733.35,-29.08"/>
</g>
<!-- Node16 -->
<g id="node16" class="node">
<title>Node16</title>
<g id="a_node16"><a xlink:title=" ">
<polygon fill="none" stroke="#bfbfbf" points="788.5,-0.5 788.5,-19.5 840.5,-19.5 840.5,-0.5 788.5,-0.5"/>
<text text-anchor="middle" x="814.5" y="-7.5" font-family="Helvetica,sans-Serif" font-size="10.00">memory</text>
</a>
</g>
</g>
<!-- Node3&#45;&gt;Node16 -->
<g id="edge15" class="edge">
<title>Node3&#45;&gt;Node16</title>
<path fill="none" stroke="midnightblue" d="M707.62,-56.44C728.52,-47.56 761.43,-33.56 785.22,-23.45"/>
<polygon fill="midnightblue" stroke="midnightblue" points="786.64,-26.65 794.47,-19.52 783.9,-20.21 786.64,-26.65"/>
</g>
<!-- Node17 -->
<g id="node17" class="node">
<title>Node17</title>
<g id="a_node17"><a xlink:title=" ">
<polygon fill="none" stroke="#bfbfbf" points="859,-0.5 859,-19.5 900,-19.5 900,-0.5 859,-0.5"/>
<text text-anchor="middle" x="879.5" y="-7.5" font-family="Helvetica,sans-Serif" font-size="10.00">ctime</text>
</a>
</g>
</g>
<!-- Node3&#45;&gt;Node17 -->
<g id="edge16" class="edge">
<title>Node3&#45;&gt;Node17</title>
<path fill="none" stroke="midnightblue" d="M718.91,-56.48C749.61,-48.11 797.91,-34.82 848.96,-20.11"/>
<polygon fill="midnightblue" stroke="midnightblue" points="850.22,-23.39 858.86,-17.25 848.28,-16.67 850.22,-23.39"/>
</g>
<!-- Node18 -->
<g id="node18" class="node">
<title>Node18</title>
<g id="a_node18"><a xlink:title=" ">
<polygon fill="none" stroke="#bfbfbf" points="918.5,-0.5 918.5,-19.5 964.5,-19.5 964.5,-0.5 918.5,-0.5"/>
<text text-anchor="middle" x="941.5" y="-7.5" font-family="Helvetica,sans-Serif" font-size="10.00">chrono</text>
</a>
</g>
</g>
<!-- Node3&#45;&gt;Node18 -->
<g id="edge17" class="edge">
<title>Node3&#45;&gt;Node18</title>
<path fill="none" stroke="midnightblue" d="M728.62,-57.61C771.24,-49.74 839.98,-36.47 908.39,-20.13"/>
<polygon fill="midnightblue" stroke="midnightblue" points="909.58,-23.44 918.48,-17.69 907.94,-16.64 909.58,-23.44"/>
</g>
<!-- Node19 -->
<g id="node19" class="node">
<title>Node19</title>
<g id="a_node19"><a xlink:title=" ">
<polygon fill="none" stroke="#bfbfbf" points="982.5,-0.5 982.5,-19.5 1034.5,-19.5 1034.5,-0.5 982.5,-0.5"/>
<text text-anchor="middle" x="1008.5" y="-7.5" font-family="Helvetica,sans-Serif" font-size="10.00">sstream</text>
</a>
</g>
</g>
<!-- Node3&#45;&gt;Node19 -->
<g id="edge18" class="edge">
<title>Node3&#45;&gt;Node19</title>
<path fill="none" stroke="midnightblue" d="M728.93,-59.75C782.8,-52.64 879.97,-38.87 972.14,-20.12"/>
<polygon fill="midnightblue" stroke="midnightblue" points="973.1,-23.5 982.19,-18.05 971.69,-16.64 973.1,-23.5"/>
</g>
<!-- Node20 -->
<g id="node20" class="node">
<title>Node20</title>
<g id="a_node20"><a xlink:title=" ">
<polygon fill="none" stroke="#bfbfbf" points="1053,-0.5 1053,-19.5 1102,-19.5 1102,-0.5 1053,-0.5"/>
<text text-anchor="middle" x="1077.5" y="-7.5" font-family="Helvetica,sans-Serif" font-size="10.00">fstream</text>
</a>
</g>
</g>
<!-- Node3&#45;&gt;Node20 -->
<g id="edge19" class="edge">
<title>Node3&#45;&gt;Node20</title>
<path fill="none" stroke="midnightblue" d="M728.63,-61.59C793.38,-55.84 923.18,-42.73 1042.66,-19.92"/>
<polygon fill="midnightblue" stroke="midnightblue" points="1043.55,-23.31 1052.71,-17.97 1042.22,-16.44 1043.55,-23.31"/>
</g>
<!-- Node21 -->
<g id="node21" class="node">
<title>Node21</title>
<g id="a_node21"><a xlink:title=" ">
<polygon fill="none" stroke="#bfbfbf" points="1120.5,-0.5 1120.5,-19.5 1174.5,-19.5 1174.5,-0.5 1120.5,-0.5"/>
<text text-anchor="middle" x="1147.5" y="-7.5" font-family="Helvetica,sans-Serif" font-size="10.00">iostream</text>
</a>
</g>
</g>
<!-- Node3&#45;&gt;Node21 -->
<g id="edge20" class="edge">
<title>Node3&#45;&gt;Node21</title>
<path fill="none" stroke="midnightblue" d="M728.7,-62.54C803.07,-57.69 964.8,-45.24 1110.45,-19.95"/>
<polygon fill="midnightblue" stroke="midnightblue" points="1111.22,-23.37 1120.46,-18.19 1110,-16.48 1111.22,-23.37"/>
</g>
<!-- Node22 -->
<g id="node22" class="node">
<title>Node22</title>
<g id="a_node22"><a xlink:title=" ">
<polygon fill="none" stroke="#bfbfbf" points="1192.5,-0.5 1192.5,-19.5 1242.5,-19.5 1242.5,-0.5 1192.5,-0.5"/>
<text text-anchor="middle" x="1217.5" y="-7.5" font-family="Helvetica,sans-Serif" font-size="10.00">iomanip</text>
</a>
</g>
</g>
<!-- Node3&#45;&gt;Node22 -->
<g id="edge21" class="edge">
<title>Node3&#45;&gt;Node22</title>
<path fill="none" stroke="midnightblue" d="M728.64,-63.61C812.38,-60.27 1008.73,-49.89 1182.27,-19.93"/>
<polygon fill="midnightblue" stroke="midnightblue" points="1183.11,-23.34 1192.35,-18.16 1181.9,-16.44 1183.11,-23.34"/>
</g>
<!-- Node23 -->
<g id="node23" class="node">
<title>Node23</title>
<g id="a_node23"><a xlink:title=" ">
<polygon fill="none" stroke="#bfbfbf" points="1260.5,-0.5 1260.5,-19.5 1304.5,-19.5 1304.5,-0.5 1260.5,-0.5"/>
<text text-anchor="middle" x="1282.5" y="-7.5" font-family="Helvetica,sans-Serif" font-size="10.00">thread</text>
</a>
</g>
</g>
<!-- Node3&#45;&gt;Node23 -->
<g id="edge22" class="edge">
<title>Node3&#45;&gt;Node23</title>
<path fill="none" stroke="midnightblue" d="M728.57,-64.57C820.58,-62.99 1050.22,-55.67 1250.18,-19.87"/>
<polygon fill="midnightblue" stroke="midnightblue" points="1251.07,-23.27 1260.28,-18.04 1249.81,-16.38 1251.07,-23.27"/>
</g>
<!-- Node24 -->
<g id="node24" class="node">
<title>Node24</title>
<g id="a_node24"><a xlink:title=" ">
<polygon fill="none" stroke="#bfbfbf" points="1322.5,-0.5 1322.5,-19.5 1420.5,-19.5 1420.5,-0.5 1322.5,-0.5"/>
<text text-anchor="middle" x="1371.5" y="-7.5" font-family="Helvetica,sans-Serif" font-size="10.00">nlohmann/json.hpp</text>
</a>
</g>
</g>
<!-- Node3&#45;&gt;Node24 -->
<g id="edge23" class="edge">
<title>Node3&#45;&gt;Node24</title>
<path fill="none" stroke="midnightblue" d="M728.62,-63.22C827.4,-58.68 1085.99,-45.31 1312.41,-20.03"/>
<polygon fill="midnightblue" stroke="midnightblue" points="1312.95,-23.49 1322.49,-18.89 1312.16,-16.54 1312.95,-23.49"/>
</g>
</g>
</svg>
