<?xml version="1.0" encoding="UTF-8" standalone="no"?>
<!DOCTYPE svg PUBLIC "-//W3C//DTD SVG 1.1//EN"
 "http://www.w3.org/Graphics/SVG/1.1/DTD/svg11.dtd">
<!-- Generated by graphviz version 3.0.0 (20220226.1711)
 -->
<!-- Title: GameAudio.h Pages: 1 -->
<svg width="1547pt" height="532pt"
 viewBox="0.00 0.00 1547.00 532.00" xmlns="http://www.w3.org/2000/svg" xmlns:xlink="http://www.w3.org/1999/xlink">
<g id="graph0" class="graph" transform="scale(1 1) rotate(0) translate(4 528)">
<title>GameAudio.h</title>
<!-- Node1 -->
<g id="node1" class="node">
<title>Node1</title>
<g id="a_node1"><a xlink:title=" ">
<polygon fill="#bfbfbf" stroke="black" points="756,-504.5 756,-523.5 832,-523.5 832,-504.5 756,-504.5"/>
<text text-anchor="middle" x="794" y="-511.5" font-family="Helvetica,sans-Serif" font-size="10.00">GameAudio.h</text>
</a>
</g>
</g>
<!-- Node2 -->
<g id="node2" class="node">
<title>Node2</title>
<g id="a_node2"><a xlink:href="_game_audio_8cpp.html" target="_top" xlink:title=" ">
<polygon fill="none" stroke="black" points="615,-448.5 615,-467.5 701,-467.5 701,-448.5 615,-448.5"/>
<text text-anchor="middle" x="658" y="-455.5" font-family="Helvetica,sans-Serif" font-size="10.00">GameAudio.cpp</text>
</a>
</g>
</g>
<!-- Node1&#45;&gt;Node2 -->
<g id="edge1" class="edge">
<title>Node1&#45;&gt;Node2</title>
<path fill="none" stroke="midnightblue" d="M762.87,-500.64C737.34,-490.5 701.89,-476.43 679.45,-467.52"/>
<polygon fill="midnightblue" stroke="midnightblue" points="761.86,-504.01 772.45,-504.44 764.45,-497.5 761.86,-504.01"/>
</g>
<!-- Node3 -->
<g id="node3" class="node">
<title>Node3</title>
<g id="a_node3"><a xlink:href="_i_n_c_l_u_d_e_s_8h.html" target="_top" xlink:title=" ">
<polygon fill="none" stroke="black" points="757.5,-448.5 757.5,-467.5 830.5,-467.5 830.5,-448.5 757.5,-448.5"/>
<text text-anchor="middle" x="794" y="-455.5" font-family="Helvetica,sans-Serif" font-size="10.00">INCLUDES.h</text>
</a>
</g>
</g>
<!-- Node1&#45;&gt;Node3 -->
<g id="edge2" class="edge">
<title>Node1&#45;&gt;Node3</title>
<path fill="none" stroke="midnightblue" d="M787.53,-494.1C786.9,-485.14 787.34,-474.86 788.87,-467.75"/>
<polygon fill="midnightblue" stroke="midnightblue" points="784.07,-494.62 788.83,-504.08 791.01,-493.71 784.07,-494.62"/>
</g>
<!-- Node8 -->
<g id="node8" class="node">
<title>Node8</title>
<g id="a_node8"><a xlink:href="main_8cpp.html" target="_top" xlink:title=" ">
<polygon fill="none" stroke="black" points="1021,-0.5 1021,-19.5 1077,-19.5 1077,-0.5 1021,-0.5"/>
<text text-anchor="middle" x="1049" y="-7.5" font-family="Helvetica,sans-Serif" font-size="10.00">main.cpp</text>
</a>
</g>
</g>
<!-- Node1&#45;&gt;Node8 -->
<g id="edge76" class="edge">
<title>Node1&#45;&gt;Node8</title>
<path fill="none" stroke="midnightblue" d="M842.58,-510.97C1007.99,-503.41 1539,-473.64 1539,-403 1539,-403 1539,-403 1539,-121 1539,-25.64 1181.22,-12.93 1077.1,-11.25"/>
<polygon fill="midnightblue" stroke="midnightblue" points="842.06,-507.49 832.23,-511.43 842.37,-514.48 842.06,-507.49"/>
</g>
<!-- Node32 -->
<g id="node32" class="node">
<title>Node32</title>
<g id="a_node32"><a xlink:href="_nemo_8h.html" target="_top" xlink:title=" ">
<polygon fill="none" stroke="black" points="677,-280.5 677,-299.5 727,-299.5 727,-280.5 677,-280.5"/>
<text text-anchor="middle" x="702" y="-287.5" font-family="Helvetica,sans-Serif" font-size="10.00">Nemo.h</text>
</a>
</g>
</g>
<!-- Node1&#45;&gt;Node32 -->
<g id="edge75" class="edge">
<title>Node1&#45;&gt;Node32</title>
<path fill="none" stroke="midnightblue" d="M774.05,-497.79C764.88,-489.84 754.61,-479.4 748,-468 714.24,-409.77 704.85,-326.6 702.62,-299.73"/>
<polygon fill="midnightblue" stroke="midnightblue" points="772.07,-500.7 782.02,-504.35 776.52,-495.29 772.07,-500.7"/>
</g>
<!-- Node3&#45;&gt;Node1 -->
<g id="edge23" class="edge">
<title>Node3&#45;&gt;Node1</title>
<path fill="none" stroke="midnightblue" d="M800.46,-477.69C801.11,-486.64 800.68,-496.93 799.17,-504.08"/>
<polygon fill="midnightblue" stroke="midnightblue" points="803.92,-477.2 799.13,-467.75 796.98,-478.13 803.92,-477.2"/>
</g>
<!-- Node4 -->
<g id="node4" class="node">
<title>Node4</title>
<g id="a_node4"><a xlink:href="_collision_8h.html" target="_top" xlink:title=" ">
<polygon fill="none" stroke="black" points="685,-112.5 685,-131.5 747,-131.5 747,-112.5 685,-112.5"/>
<text text-anchor="middle" x="716" y="-119.5" font-family="Helvetica,sans-Serif" font-size="10.00">Collision.h</text>
</a>
</g>
</g>
<!-- Node3&#45;&gt;Node4 -->
<g id="edge3" class="edge">
<title>Node3&#45;&gt;Node4</title>
<path fill="none" stroke="midnightblue" d="M793.86,-438.02C793.52,-424.99 792.56,-407.35 790,-392 772.58,-287.36 730.81,-164.89 719.1,-131.68"/>
<polygon fill="midnightblue" stroke="midnightblue" points="790.37,-438.16 794.03,-448.1 797.37,-438.05 790.37,-438.16"/>
</g>
<!-- Node6 -->
<g id="node6" class="node">
<title>Node6</title>
<g id="a_node6"><a xlink:href="_puzzle_8h.html" target="_top" xlink:title=" ">
<polygon fill="none" stroke="black" points="425.5,-56.5 425.5,-75.5 480.5,-75.5 480.5,-56.5 425.5,-56.5"/>
<text text-anchor="middle" x="453" y="-63.5" font-family="Helvetica,sans-Serif" font-size="10.00">Puzzle.h</text>
</a>
</g>
</g>
<!-- Node3&#45;&gt;Node6 -->
<g id="edge58" class="edge">
<title>Node3&#45;&gt;Node6</title>
<path fill="none" stroke="midnightblue" d="M746.93,-451.6C734.9,-450.32 721.98,-449.03 710,-448 463.28,-426.8 394.99,-468.94 154,-412 81.7,-394.92 0,-421.29 0,-347 0,-347 0,-347 0,-177 0,-88.99 326.99,-71.13 425.34,-67.74"/>
<polygon fill="midnightblue" stroke="midnightblue" points="746.91,-455.12 757.23,-452.72 747.67,-448.16 746.91,-455.12"/>
</g>
<!-- Node3&#45;&gt;Node8 -->
<g id="edge74" class="edge">
<title>Node3&#45;&gt;Node8</title>
<path fill="none" stroke="midnightblue" d="M840.6,-447.94C865.18,-441.28 894.58,-430.15 916,-412 938.75,-392.73 1049,-208.81 1049,-179 1049,-179 1049,-179 1049,-121 1049,-83.19 1049,-38.06 1049,-19.56"/>
<polygon fill="midnightblue" stroke="midnightblue" points="839.59,-444.58 830.76,-450.44 841.31,-451.37 839.59,-444.58"/>
</g>
<!-- Node9 -->
<g id="node9" class="node">
<title>Node9</title>
<g id="a_node9"><a xlink:href="_dialogue_8h.html" target="_top" xlink:title=" ">
<polygon fill="none" stroke="black" points="1421,-168.5 1421,-187.5 1483,-187.5 1483,-168.5 1421,-168.5"/>
<text text-anchor="middle" x="1452" y="-175.5" font-family="Helvetica,sans-Serif" font-size="10.00">Dialogue.h</text>
</a>
</g>
</g>
<!-- Node3&#45;&gt;Node9 -->
<g id="edge8" class="edge">
<title>Node3&#45;&gt;Node9</title>
<path fill="none" stroke="midnightblue" d="M840.88,-456.96C966.07,-456.3 1305.82,-450.89 1410,-412 1455.22,-395.12 1497,-395.27 1497,-347 1497,-347 1497,-347 1497,-289 1497,-248.56 1470.62,-205.56 1458.26,-187.63"/>
<polygon fill="midnightblue" stroke="midnightblue" points="840.82,-453.46 830.84,-457 840.85,-460.46 840.82,-453.46"/>
</g>
<!-- Node11 -->
<g id="node11" class="node">
<title>Node11</title>
<g id="a_node11"><a xlink:href="_endscreen_8h.html" target="_top" xlink:title=" ">
<polygon fill="none" stroke="black" points="397.5,-392.5 397.5,-411.5 468.5,-411.5 468.5,-392.5 397.5,-392.5"/>
<text text-anchor="middle" x="433" y="-399.5" font-family="Helvetica,sans-Serif" font-size="10.00">Endscreen.h</text>
</a>
</g>
</g>
<!-- Node3&#45;&gt;Node11 -->
<g id="edge12" class="edge">
<title>Node3&#45;&gt;Node11</title>
<path fill="none" stroke="midnightblue" d="M746.99,-450.71C686.02,-442.44 576.41,-427.16 483,-412 478.39,-411.25 473.54,-410.43 468.75,-409.59"/>
<polygon fill="midnightblue" stroke="midnightblue" points="746.7,-454.2 757.07,-452.08 747.63,-447.27 746.7,-454.2"/>
</g>
<!-- Node13 -->
<g id="node13" class="node">
<title>Node13</title>
<g id="a_node13"><a xlink:href="_level_8h.html" target="_top" xlink:title=" ">
<polygon fill="none" stroke="black" points="479.5,-224.5 479.5,-243.5 526.5,-243.5 526.5,-224.5 479.5,-224.5"/>
<text text-anchor="middle" x="503" y="-231.5" font-family="Helvetica,sans-Serif" font-size="10.00">Level.h</text>
</a>
</g>
</g>
<!-- Node3&#45;&gt;Node13 -->
<g id="edge41" class="edge">
<title>Node3&#45;&gt;Node13</title>
<path fill="none" stroke="midnightblue" d="M747.1,-450.55C696.95,-442.91 621.45,-429.05 598,-412 537.35,-367.9 511.57,-273.03 504.86,-243.77"/>
<polygon fill="midnightblue" stroke="midnightblue" points="746.68,-454.03 757.08,-452.04 747.71,-447.1 746.68,-454.03"/>
</g>
<!-- Node15 -->
<g id="node15" class="node">
<title>Node15</title>
<g id="a_node15"><a xlink:href="_map_8h.html" target="_top" xlink:title=" ">
<polygon fill="none" stroke="black" points="813,-168.5 813,-187.5 857,-187.5 857,-168.5 813,-168.5"/>
<text text-anchor="middle" x="835" y="-175.5" font-family="Helvetica,sans-Serif" font-size="10.00">Map.h</text>
</a>
</g>
</g>
<!-- Node3&#45;&gt;Node15 -->
<g id="edge42" class="edge">
<title>Node3&#45;&gt;Node15</title>
<path fill="none" stroke="midnightblue" d="M823.82,-443.61C836.48,-436.23 849.92,-425.75 857,-412 897.53,-333.24 853.08,-219.66 838.99,-187.67"/>
<polygon fill="midnightblue" stroke="midnightblue" points="822,-440.61 814.85,-448.43 825.31,-446.78 822,-440.61"/>
</g>
<!-- Node18 -->
<g id="node18" class="node">
<title>Node18</title>
<g id="a_node18"><a xlink:href="_game_character_8h.html" target="_top" xlink:title=" ">
<polygon fill="none" stroke="black" points="199.5,-336.5 199.5,-355.5 292.5,-355.5 292.5,-336.5 199.5,-336.5"/>
<text text-anchor="middle" x="246" y="-343.5" font-family="Helvetica,sans-Serif" font-size="10.00">GameCharacter.h</text>
</a>
</g>
</g>
<!-- Node3&#45;&gt;Node18 -->
<g id="edge24" class="edge">
<title>Node3&#45;&gt;Node18</title>
<path fill="none" stroke="midnightblue" d="M746.92,-451.81C734.88,-450.52 721.97,-449.18 710,-448 620.52,-439.21 387.84,-451.36 307,-412 280.84,-399.26 260.21,-370.18 251.09,-355.63"/>
<polygon fill="midnightblue" stroke="midnightblue" points="746.9,-455.33 757.21,-452.92 747.65,-448.37 746.9,-455.33"/>
</g>
<!-- Node20 -->
<g id="node20" class="node">
<title>Node20</title>
<g id="a_node20"><a xlink:href="_combat_2_mumy_8h.html" target="_top" xlink:title=" ">
<polygon fill="none" stroke="black" points="33,-280.5 33,-299.5 85,-299.5 85,-280.5 33,-280.5"/>
<text text-anchor="middle" x="59" y="-287.5" font-family="Helvetica,sans-Serif" font-size="10.00">Mumy.h</text>
</a>
</g>
</g>
<!-- Node3&#45;&gt;Node20 -->
<g id="edge43" class="edge">
<title>Node3&#45;&gt;Node20</title>
<path fill="none" stroke="midnightblue" d="M746.93,-451.64C734.9,-450.36 721.98,-449.06 710,-448 594.84,-437.84 297.23,-457.62 191,-412 131.87,-386.61 82.06,-323.17 65.16,-299.81"/>
<polygon fill="midnightblue" stroke="midnightblue" points="746.91,-455.16 757.23,-452.76 747.66,-448.2 746.91,-455.16"/>
</g>
<!-- Node22 -->
<g id="node22" class="node">
<title>Node22</title>
<g id="a_node22"><a xlink:href="_combat_2_pharaoh_8h.html" target="_top" xlink:title=" ">
<polygon fill="none" stroke="black" points="103.5,-280.5 103.5,-299.5 164.5,-299.5 164.5,-280.5 103.5,-280.5"/>
<text text-anchor="middle" x="134" y="-287.5" font-family="Helvetica,sans-Serif" font-size="10.00">Pharaoh.h</text>
</a>
</g>
</g>
<!-- Node3&#45;&gt;Node22 -->
<g id="edge53" class="edge">
<title>Node3&#45;&gt;Node22</title>
<path fill="none" stroke="midnightblue" d="M746.93,-451.68C734.9,-450.39 721.98,-449.08 710,-448 601.04,-438.17 314.17,-465.96 219,-412 172.77,-385.79 145.73,-322.85 137.07,-299.72"/>
<polygon fill="midnightblue" stroke="midnightblue" points="746.91,-455.19 757.23,-452.79 747.66,-448.23 746.91,-455.19"/>
</g>
<!-- Node24 -->
<g id="node24" class="node">
<title>Node24</title>
<g id="a_node24"><a xlink:href="_player_8h.html" target="_top" xlink:title=" ">
<polygon fill="none" stroke="black" points="382.5,-280.5 382.5,-299.5 435.5,-299.5 435.5,-280.5 382.5,-280.5"/>
<text text-anchor="middle" x="409" y="-287.5" font-family="Helvetica,sans-Serif" font-size="10.00">Player.h</text>
</a>
</g>
</g>
<!-- Node3&#45;&gt;Node24 -->
<g id="edge57" class="edge">
<title>Node3&#45;&gt;Node24</title>
<path fill="none" stroke="midnightblue" d="M747.34,-451.94C641.07,-440.4 389.98,-413.04 388,-412 352.68,-393.33 320.97,-371.13 340,-336 349.54,-318.39 369.28,-306.59 385.21,-299.5"/>
<polygon fill="midnightblue" stroke="midnightblue" points="747.15,-455.44 757.47,-453.04 747.9,-448.48 747.15,-455.44"/>
</g>
<!-- Node26 -->
<g id="node26" class="node">
<title>Node26</title>
<g id="a_node26"><a xlink:href="_combat_2_shadow_8h.html" target="_top" xlink:title=" ">
<polygon fill="none" stroke="black" points="182.5,-280.5 182.5,-299.5 241.5,-299.5 241.5,-280.5 182.5,-280.5"/>
<text text-anchor="middle" x="212" y="-287.5" font-family="Helvetica,sans-Serif" font-size="10.00">Shadow.h</text>
</a>
</g>
</g>
<!-- Node3&#45;&gt;Node26 -->
<g id="edge59" class="edge">
<title>Node3&#45;&gt;Node26</title>
<path fill="none" stroke="midnightblue" d="M746.92,-451.75C734.89,-450.47 721.97,-449.14 710,-448 517.32,-429.69 459.11,-474.71 276,-412 232.85,-397.22 211.74,-396.1 190,-356 179.78,-337.15 194.81,-312.67 204.63,-299.8"/>
<polygon fill="midnightblue" stroke="midnightblue" points="746.9,-455.27 757.22,-452.87 747.65,-448.31 746.9,-455.27"/>
</g>
<!-- Node28 -->
<g id="node28" class="node">
<title>Node28</title>
<g id="a_node28"><a xlink:href="_inventory_8h.html" target="_top" xlink:title=" ">
<polygon fill="none" stroke="black" points="990.5,-392.5 990.5,-411.5 1053.5,-411.5 1053.5,-392.5 990.5,-392.5"/>
<text text-anchor="middle" x="1022" y="-399.5" font-family="Helvetica,sans-Serif" font-size="10.00">Inventory.h</text>
</a>
</g>
</g>
<!-- Node3&#45;&gt;Node28 -->
<g id="edge38" class="edge">
<title>Node3&#45;&gt;Node28</title>
<path fill="none" stroke="midnightblue" d="M839.87,-446.14C884.59,-435.54 951.4,-419.72 990.45,-410.47"/>
<polygon fill="midnightblue" stroke="midnightblue" points="839.05,-442.73 830.13,-448.44 840.66,-449.54 839.05,-442.73"/>
</g>
<!-- Node30 -->
<g id="node30" class="node">
<title>Node30</title>
<g id="a_node30"><a xlink:href="_enemy_01_overworld_01_sprites_2_mumy_8h.html" target="_top" xlink:title=" ">
<polygon fill="none" stroke="black" points="1099,-392.5 1099,-411.5 1151,-411.5 1151,-392.5 1099,-392.5"/>
<text text-anchor="middle" x="1125" y="-399.5" font-family="Helvetica,sans-Serif" font-size="10.00">Mumy.h</text>
</a>
</g>
</g>
<!-- Node3&#45;&gt;Node30 -->
<g id="edge44" class="edge">
<title>Node3&#45;&gt;Node30</title>
<path fill="none" stroke="midnightblue" d="M840.63,-449.39C911.12,-437.89 1042.53,-416.45 1098.58,-407.31"/>
<polygon fill="midnightblue" stroke="midnightblue" points="839.99,-445.95 830.69,-451.01 841.12,-452.86 839.99,-445.95"/>
</g>
<!-- Node3&#45;&gt;Node32 -->
<g id="edge47" class="edge">
<title>Node3&#45;&gt;Node32</title>
<path fill="none" stroke="midnightblue" d="M788.39,-438.49C780.46,-413.9 764.51,-369.64 743,-336 734,-321.93 720.49,-308.09 711.47,-299.55"/>
<polygon fill="midnightblue" stroke="midnightblue" points="785.13,-439.8 791.46,-448.3 791.81,-437.71 785.13,-439.8"/>
</g>
<!-- Node33 -->
<g id="node33" class="node">
<title>Node33</title>
<g id="a_node33"><a xlink:href="_enemy_01_overworld_01_sprites_2_pharaoh_8h.html" target="_top" xlink:title=" ">
<polygon fill="none" stroke="black" points="1238.5,-392.5 1238.5,-411.5 1299.5,-411.5 1299.5,-392.5 1238.5,-392.5"/>
<text text-anchor="middle" x="1269" y="-399.5" font-family="Helvetica,sans-Serif" font-size="10.00">Pharaoh.h</text>
</a>
</g>
</g>
<!-- Node3&#45;&gt;Node33 -->
<g id="edge54" class="edge">
<title>Node3&#45;&gt;Node33</title>
<path fill="none" stroke="midnightblue" d="M840.97,-451.66C937.86,-440.65 1157.61,-415.66 1238.43,-406.47"/>
<polygon fill="midnightblue" stroke="midnightblue" points="840.42,-448.2 830.88,-452.81 841.21,-455.16 840.42,-448.2"/>
</g>
<!-- Node35 -->
<g id="node35" class="node">
<title>Node35</title>
<g id="a_node35"><a xlink:href="_enemy_01_overworld_01_sprites_2_shadow_8h.html" target="_top" xlink:title=" ">
<polygon fill="none" stroke="black" points="1341.5,-392.5 1341.5,-411.5 1400.5,-411.5 1400.5,-392.5 1341.5,-392.5"/>
<text text-anchor="middle" x="1371" y="-399.5" font-family="Helvetica,sans-Serif" font-size="10.00">Shadow.h</text>
</a>
</g>
</g>
<!-- Node3&#45;&gt;Node35 -->
<g id="edge60" class="edge">
<title>Node3&#45;&gt;Node35</title>
<path fill="none" stroke="midnightblue" d="M840.81,-453.81C931.38,-447.43 1136.85,-432 1309,-412 1319.59,-410.77 1331.16,-409.16 1341.4,-407.65"/>
<polygon fill="midnightblue" stroke="midnightblue" points="840.33,-450.33 830.6,-454.52 840.82,-457.32 840.33,-450.33"/>
</g>
<!-- Node37 -->
<g id="node37" class="node">
<title>Node37</title>
<g id="a_node37"><a xlink:href="_sprite_8h.html" target="_top" xlink:title=" ">
<polygon fill="none" stroke="black" points="607,-392.5 607,-411.5 657,-411.5 657,-392.5 607,-392.5"/>
<text text-anchor="middle" x="632" y="-399.5" font-family="Helvetica,sans-Serif" font-size="10.00">Sprite.h</text>
</a>
</g>
</g>
<!-- Node3&#45;&gt;Node37 -->
<g id="edge63" class="edge">
<title>Node3&#45;&gt;Node37</title>
<path fill="none" stroke="midnightblue" d="M758.46,-445.15C727.75,-434.92 684.17,-420.39 657.02,-411.34"/>
<polygon fill="midnightblue" stroke="midnightblue" points="757.74,-448.6 768.33,-448.44 759.95,-441.96 757.74,-448.6"/>
</g>
<!-- Node39 -->
<g id="node39" class="node">
<title>Node39</title>
<g id="a_node39"><a xlink:href="_u_i_8h.html" target="_top" xlink:title=" ">
<polygon fill="none" stroke="black" points="927,-280.5 927,-299.5 961,-299.5 961,-280.5 927,-280.5"/>
<text text-anchor="middle" x="944" y="-287.5" font-family="Helvetica,sans-Serif" font-size="10.00">UI.h</text>
</a>
</g>
</g>
<!-- Node3&#45;&gt;Node39 -->
<g id="edge70" class="edge">
<title>Node3&#45;&gt;Node39</title>
<path fill="none" stroke="midnightblue" d="M839.27,-445.15C858.51,-438.18 879.94,-427.59 895,-412 927.28,-378.59 939.28,-321.1 942.78,-299.52"/>
<polygon fill="midnightblue" stroke="midnightblue" points="838.09,-441.86 829.74,-448.38 840.34,-448.48 838.09,-441.86"/>
</g>
<!-- Node5 -->
<g id="node5" class="node">
<title>Node5</title>
<g id="a_node5"><a xlink:href="_collision_8cpp.html" target="_top" xlink:title=" ">
<polygon fill="none" stroke="black" points="680,-56.5 680,-75.5 752,-75.5 752,-56.5 680,-56.5"/>
<text text-anchor="middle" x="716" y="-63.5" font-family="Helvetica,sans-Serif" font-size="10.00">Collision.cpp</text>
</a>
</g>
</g>
<!-- Node4&#45;&gt;Node5 -->
<g id="edge4" class="edge">
<title>Node4&#45;&gt;Node5</title>
<path fill="none" stroke="midnightblue" d="M716,-101.8C716,-92.91 716,-82.78 716,-75.75"/>
<polygon fill="midnightblue" stroke="midnightblue" points="712.5,-102.08 716,-112.08 719.5,-102.08 712.5,-102.08"/>
</g>
<!-- Node4&#45;&gt;Node6 -->
<g id="edge5" class="edge">
<title>Node4&#45;&gt;Node6</title>
<path fill="none" stroke="midnightblue" d="M674.84,-112.55C620.68,-101.43 526.93,-82.18 480.58,-72.66"/>
<polygon fill="midnightblue" stroke="midnightblue" points="674.3,-116.01 684.8,-114.59 675.71,-109.15 674.3,-116.01"/>
</g>
<!-- Node7 -->
<g id="node7" class="node">
<title>Node7</title>
<g id="a_node7"><a xlink:href="_puzzle_8cpp.html" target="_top" xlink:title=" ">
<polygon fill="none" stroke="black" points="420.5,-0.5 420.5,-19.5 485.5,-19.5 485.5,-0.5 420.5,-0.5"/>
<text text-anchor="middle" x="453" y="-7.5" font-family="Helvetica,sans-Serif" font-size="10.00">Puzzle.cpp</text>
</a>
</g>
</g>
<!-- Node6&#45;&gt;Node7 -->
<g id="edge6" class="edge">
<title>Node6&#45;&gt;Node7</title>
<path fill="none" stroke="midnightblue" d="M453,-45.8C453,-36.91 453,-26.78 453,-19.75"/>
<polygon fill="midnightblue" stroke="midnightblue" points="449.5,-46.08 453,-56.08 456.5,-46.08 449.5,-46.08"/>
</g>
<!-- Node6&#45;&gt;Node8 -->
<g id="edge7" class="edge">
<title>Node6&#45;&gt;Node8</title>
<path fill="none" stroke="midnightblue" d="M491.09,-56.61C492.41,-56.39 493.71,-56.19 495,-56 695.25,-26.54 939.26,-15.15 1020.89,-11.99"/>
<polygon fill="midnightblue" stroke="midnightblue" points="490.12,-53.23 480.92,-58.49 491.39,-60.12 490.12,-53.23"/>
</g>
<!-- Node9&#45;&gt;Node4 -->
<g id="edge9" class="edge">
<title>Node9&#45;&gt;Node4</title>
<path fill="none" stroke="midnightblue" d="M1410.81,-176.58C1302.81,-175.01 1002.77,-167.51 756,-132 753.18,-131.59 750.27,-131.1 747.36,-130.54"/>
<polygon fill="midnightblue" stroke="midnightblue" points="1410.9,-180.09 1420.95,-176.72 1411,-173.09 1410.9,-180.09"/>
</g>
<!-- Node9&#45;&gt;Node8 -->
<g id="edge11" class="edge">
<title>Node9&#45;&gt;Node8</title>
<path fill="none" stroke="midnightblue" d="M1442.7,-159.23C1425.45,-126.4 1389.78,-59.27 1385,-56 1335.06,-21.9 1148.78,-13.55 1077.24,-11.58"/>
<polygon fill="midnightblue" stroke="midnightblue" points="1439.67,-160.98 1447.41,-168.21 1445.87,-157.73 1439.67,-160.98"/>
</g>
<!-- Node10 -->
<g id="node10" class="node">
<title>Node10</title>
<g id="a_node10"><a xlink:href="_dialogue_8cpp.html" target="_top" xlink:title=" ">
<polygon fill="none" stroke="black" points="1437.5,-112.5 1437.5,-131.5 1510.5,-131.5 1510.5,-112.5 1437.5,-112.5"/>
<text text-anchor="middle" x="1474" y="-119.5" font-family="Helvetica,sans-Serif" font-size="10.00">Dialogue.cpp</text>
</a>
</g>
</g>
<!-- Node9&#45;&gt;Node10 -->
<g id="edge10" class="edge">
<title>Node9&#45;&gt;Node10</title>
<path fill="none" stroke="midnightblue" d="M1459.46,-158.69C1463.17,-149.59 1467.48,-139.01 1470.43,-131.75"/>
<polygon fill="midnightblue" stroke="midnightblue" points="1456.16,-157.5 1455.63,-168.08 1462.65,-160.14 1456.16,-157.5"/>
</g>
<!-- Node12 -->
<g id="node12" class="node">
<title>Node12</title>
<g id="a_node12"><a xlink:href="_endscreen_8cpp.html" target="_top" xlink:title=" ">
<polygon fill="none" stroke="black" points="349,-336.5 349,-355.5 431,-355.5 431,-336.5 349,-336.5"/>
<text text-anchor="middle" x="390" y="-343.5" font-family="Helvetica,sans-Serif" font-size="10.00">Endscreen.cpp</text>
</a>
</g>
</g>
<!-- Node11&#45;&gt;Node12 -->
<g id="edge13" class="edge">
<title>Node11&#45;&gt;Node12</title>
<path fill="none" stroke="midnightblue" d="M419.58,-384.14C412.09,-374.74 403.06,-363.4 396.97,-355.75"/>
<polygon fill="midnightblue" stroke="midnightblue" points="416.93,-386.44 425.9,-392.08 422.41,-382.08 416.93,-386.44"/>
</g>
<!-- Node11&#45;&gt;Node13 -->
<g id="edge14" class="edge">
<title>Node11&#45;&gt;Node13</title>
<path fill="none" stroke="midnightblue" d="M440.65,-382.86C455.66,-347.25 488.47,-269.45 499.39,-243.57"/>
<polygon fill="midnightblue" stroke="midnightblue" points="437.42,-381.5 436.76,-392.08 443.87,-384.22 437.42,-381.5"/>
</g>
<!-- Node13&#45;&gt;Node4 -->
<g id="edge15" class="edge">
<title>Node13&#45;&gt;Node4</title>
<path fill="none" stroke="midnightblue" d="M515.18,-216.26C526.71,-201.55 545.32,-180.57 566,-168 603.4,-145.26 653.09,-133.32 684.81,-127.6"/>
<polygon fill="midnightblue" stroke="midnightblue" points="512.2,-214.4 508.95,-224.48 517.78,-218.62 512.2,-214.4"/>
</g>
<!-- Node13&#45;&gt;Node8 -->
<g id="edge22" class="edge">
<title>Node13&#45;&gt;Node8</title>
<path fill="none" stroke="midnightblue" d="M510.09,-215.06C516.04,-201.33 525.41,-182.38 537,-168 585.7,-107.56 599.73,-86.75 671,-56 734.11,-28.77 944.2,-16.08 1020.77,-12.28"/>
<polygon fill="midnightblue" stroke="midnightblue" points="506.83,-213.79 506.23,-224.37 513.3,-216.47 506.83,-213.79"/>
</g>
<!-- Node14 -->
<g id="node14" class="node">
<title>Node14</title>
<g id="a_node14"><a xlink:href="_level_8cpp.html" target="_top" xlink:title=" ">
<polygon fill="none" stroke="black" points="423.5,-168.5 423.5,-187.5 480.5,-187.5 480.5,-168.5 423.5,-168.5"/>
<text text-anchor="middle" x="452" y="-175.5" font-family="Helvetica,sans-Serif" font-size="10.00">Level.cpp</text>
</a>
</g>
</g>
<!-- Node13&#45;&gt;Node14 -->
<g id="edge16" class="edge">
<title>Node13&#45;&gt;Node14</title>
<path fill="none" stroke="midnightblue" d="M487.62,-216.72C478.63,-207.2 467.64,-195.56 460.26,-187.75"/>
<polygon fill="midnightblue" stroke="midnightblue" points="485.17,-219.22 494.58,-224.08 490.26,-214.41 485.17,-219.22"/>
</g>
<!-- Node13&#45;&gt;Node15 -->
<g id="edge17" class="edge">
<title>Node13&#45;&gt;Node15</title>
<path fill="none" stroke="midnightblue" d="M536.75,-227.51C604.52,-216.49 755.56,-191.92 812.61,-182.64"/>
<polygon fill="midnightblue" stroke="midnightblue" points="535.92,-224.1 526.61,-229.16 537.04,-231.01 535.92,-224.1"/>
</g>
<!-- Node17 -->
<g id="node17" class="node">
<title>Node17</title>
<g id="a_node17"><a xlink:href="_nemo_8cpp.html" target="_top" xlink:title=" ">
<polygon fill="none" stroke="black" points="575.5,-168.5 575.5,-187.5 636.5,-187.5 636.5,-168.5 575.5,-168.5"/>
<text text-anchor="middle" x="606" y="-175.5" font-family="Helvetica,sans-Serif" font-size="10.00">Nemo.cpp</text>
</a>
</g>
</g>
<!-- Node13&#45;&gt;Node17 -->
<g id="edge21" class="edge">
<title>Node13&#45;&gt;Node17</title>
<path fill="none" stroke="midnightblue" d="M528.58,-219.59C547.62,-209.61 573.06,-196.27 589.49,-187.65"/>
<polygon fill="midnightblue" stroke="midnightblue" points="526.78,-216.58 519.55,-224.32 530.03,-222.78 526.78,-216.58"/>
</g>
<!-- Node15&#45;&gt;Node4 -->
<g id="edge18" class="edge">
<title>Node15&#45;&gt;Node4</title>
<path fill="none" stroke="midnightblue" d="M806.86,-164.23C784.6,-154.13 754.14,-140.31 734.77,-131.52"/>
<polygon fill="midnightblue" stroke="midnightblue" points="805.59,-167.5 816.14,-168.44 808.48,-161.12 805.59,-167.5"/>
</g>
<!-- Node15&#45;&gt;Node8 -->
<g id="edge20" class="edge">
<title>Node15&#45;&gt;Node8</title>
<path fill="none" stroke="midnightblue" d="M835.14,-157.93C836.4,-131.27 842.76,-83.09 871,-56 911.94,-16.72 982.01,-10.31 1020.9,-10.05"/>
<polygon fill="midnightblue" stroke="midnightblue" points="831.63,-158.12 834.86,-168.21 838.63,-158.31 831.63,-158.12"/>
</g>
<!-- Node16 -->
<g id="node16" class="node">
<title>Node16</title>
<g id="a_node16"><a xlink:href="_map_8cpp.html" target="_top" xlink:title=" ">
<polygon fill="none" stroke="black" points="765,-112.5 765,-131.5 819,-131.5 819,-112.5 765,-112.5"/>
<text text-anchor="middle" x="792" y="-119.5" font-family="Helvetica,sans-Serif" font-size="10.00">Map.cpp</text>
</a>
</g>
</g>
<!-- Node15&#45;&gt;Node16 -->
<g id="edge19" class="edge">
<title>Node15&#45;&gt;Node16</title>
<path fill="none" stroke="midnightblue" d="M821.58,-160.14C814.09,-150.74 805.06,-139.4 798.97,-131.75"/>
<polygon fill="midnightblue" stroke="midnightblue" points="818.93,-162.44 827.9,-168.08 824.41,-158.08 818.93,-162.44"/>
</g>
<!-- Node19 -->
<g id="node19" class="node">
<title>Node19</title>
<g id="a_node19"><a xlink:href="_game_character_8cpp.html" target="_top" xlink:title=" ">
<polygon fill="none" stroke="black" points="260,-280.5 260,-299.5 364,-299.5 364,-280.5 260,-280.5"/>
<text text-anchor="middle" x="312" y="-287.5" font-family="Helvetica,sans-Serif" font-size="10.00">GameCharacter.cpp</text>
</a>
</g>
</g>
<!-- Node18&#45;&gt;Node19 -->
<g id="edge25" class="edge">
<title>Node18&#45;&gt;Node19</title>
<path fill="none" stroke="midnightblue" d="M264.55,-329.82C276.38,-320.15 291.29,-307.95 301.2,-299.83"/>
<polygon fill="midnightblue" stroke="midnightblue" points="262.13,-327.28 256.6,-336.32 266.56,-332.7 262.13,-327.28"/>
</g>
<!-- Node18&#45;&gt;Node20 -->
<g id="edge26" class="edge">
<title>Node18&#45;&gt;Node20</title>
<path fill="none" stroke="midnightblue" d="M206.54,-333.61C170.01,-323.06 116.71,-307.67 85.17,-298.56"/>
<polygon fill="midnightblue" stroke="midnightblue" points="205.79,-337.03 216.37,-336.44 207.73,-330.31 205.79,-337.03"/>
</g>
<!-- Node18&#45;&gt;Node22 -->
<g id="edge29" class="edge">
<title>Node18&#45;&gt;Node22</title>
<path fill="none" stroke="midnightblue" d="M218.75,-331.86C197.98,-321.85 169.98,-308.35 151.95,-299.65"/>
<polygon fill="midnightblue" stroke="midnightblue" points="217.48,-335.13 228.01,-336.32 220.52,-328.83 217.48,-335.13"/>
</g>
<!-- Node18&#45;&gt;Node24 -->
<g id="edge32" class="edge">
<title>Node18&#45;&gt;Node24</title>
<path fill="none" stroke="midnightblue" d="M281.7,-333.17C312.4,-323 355.92,-308.59 383.29,-299.52"/>
<polygon fill="midnightblue" stroke="midnightblue" points="280.22,-329.98 271.83,-336.44 282.42,-336.62 280.22,-329.98"/>
</g>
<!-- Node18&#45;&gt;Node26 -->
<g id="edge35" class="edge">
<title>Node18&#45;&gt;Node26</title>
<path fill="none" stroke="midnightblue" d="M235.02,-327.57C229.17,-318.27 222.23,-307.25 217.51,-299.75"/>
<polygon fill="midnightblue" stroke="midnightblue" points="232.1,-329.49 240.39,-336.08 238.02,-325.76 232.1,-329.49"/>
</g>
<!-- Node20&#45;&gt;Node13 -->
<g id="edge27" class="edge">
<title>Node20&#45;&gt;Node13</title>
<path fill="none" stroke="midnightblue" d="M95.27,-280.02C251.89,-252.69 295.04,-264.61 449,-244 458.99,-242.66 469.96,-240.89 479.39,-239.27"/>
<polygon fill="midnightblue" stroke="midnightblue" points="94.52,-276.6 85.28,-281.79 95.74,-283.49 94.52,-276.6"/>
</g>
<!-- Node21 -->
<g id="node21" class="node">
<title>Node21</title>
<g id="a_node21"><a xlink:href="_combat_2_mumy_8cpp.html" target="_top" xlink:title=" ">
<polygon fill="none" stroke="black" points="28,-224.5 28,-243.5 90,-243.5 90,-224.5 28,-224.5"/>
<text text-anchor="middle" x="59" y="-231.5" font-family="Helvetica,sans-Serif" font-size="10.00">Mumy.cpp</text>
</a>
</g>
</g>
<!-- Node20&#45;&gt;Node21 -->
<g id="edge28" class="edge">
<title>Node20&#45;&gt;Node21</title>
<path fill="none" stroke="midnightblue" d="M59,-269.8C59,-260.91 59,-250.78 59,-243.75"/>
<polygon fill="midnightblue" stroke="midnightblue" points="55.5,-270.08 59,-280.08 62.5,-270.08 55.5,-270.08"/>
</g>
<!-- Node22&#45;&gt;Node13 -->
<g id="edge30" class="edge">
<title>Node22&#45;&gt;Node13</title>
<path fill="none" stroke="midnightblue" d="M174.69,-279.83C296.49,-258.27 329.86,-261.69 449,-244 458.97,-242.52 469.94,-240.72 479.37,-239.12"/>
<polygon fill="midnightblue" stroke="midnightblue" points="173.82,-276.43 164.6,-281.64 175.06,-283.32 173.82,-276.43"/>
</g>
<!-- Node23 -->
<g id="node23" class="node">
<title>Node23</title>
<g id="a_node23"><a xlink:href="_combat_2_pharaoh_8cpp.html" target="_top" xlink:title=" ">
<polygon fill="none" stroke="black" points="108.5,-224.5 108.5,-243.5 179.5,-243.5 179.5,-224.5 108.5,-224.5"/>
<text text-anchor="middle" x="144" y="-231.5" font-family="Helvetica,sans-Serif" font-size="10.00">Pharaoh.cpp</text>
</a>
</g>
</g>
<!-- Node22&#45;&gt;Node23 -->
<g id="edge31" class="edge">
<title>Node22&#45;&gt;Node23</title>
<path fill="none" stroke="midnightblue" d="M137.5,-270.1C139.16,-261.14 141.06,-250.86 142.38,-243.75"/>
<polygon fill="midnightblue" stroke="midnightblue" points="134.03,-269.61 135.65,-280.08 140.91,-270.89 134.03,-269.61"/>
</g>
<!-- Node24&#45;&gt;Node13 -->
<g id="edge33" class="edge">
<title>Node24&#45;&gt;Node13</title>
<path fill="none" stroke="midnightblue" d="M433.06,-275.18C450.36,-265.24 473.15,-252.15 487.93,-243.65"/>
<polygon fill="midnightblue" stroke="midnightblue" points="431.03,-272.31 424.1,-280.32 434.52,-278.38 431.03,-272.31"/>
</g>
<!-- Node25 -->
<g id="node25" class="node">
<title>Node25</title>
<g id="a_node25"><a xlink:href="_player_8cpp.html" target="_top" xlink:title=" ">
<polygon fill="none" stroke="black" points="377.5,-224.5 377.5,-243.5 440.5,-243.5 440.5,-224.5 377.5,-224.5"/>
<text text-anchor="middle" x="409" y="-231.5" font-family="Helvetica,sans-Serif" font-size="10.00">Player.cpp</text>
</a>
</g>
</g>
<!-- Node24&#45;&gt;Node25 -->
<g id="edge34" class="edge">
<title>Node24&#45;&gt;Node25</title>
<path fill="none" stroke="midnightblue" d="M409,-269.8C409,-260.91 409,-250.78 409,-243.75"/>
<polygon fill="midnightblue" stroke="midnightblue" points="405.5,-270.08 409,-280.08 412.5,-270.08 405.5,-270.08"/>
</g>
<!-- Node26&#45;&gt;Node13 -->
<g id="edge36" class="edge">
<title>Node26&#45;&gt;Node13</title>
<path fill="none" stroke="midnightblue" d="M251.86,-279.93C309.78,-268.44 428.32,-247.87 479.16,-239.1"/>
<polygon fill="midnightblue" stroke="midnightblue" points="250.89,-276.56 241.78,-281.97 252.27,-283.42 250.89,-276.56"/>
</g>
<!-- Node27 -->
<g id="node27" class="node">
<title>Node27</title>
<g id="a_node27"><a xlink:href="_combat_2_shadow_8cpp.html" target="_top" xlink:title=" ">
<polygon fill="none" stroke="black" points="198,-224.5 198,-243.5 268,-243.5 268,-224.5 198,-224.5"/>
<text text-anchor="middle" x="233" y="-231.5" font-family="Helvetica,sans-Serif" font-size="10.00">Shadow.cpp</text>
</a>
</g>
</g>
<!-- Node26&#45;&gt;Node27 -->
<g id="edge37" class="edge">
<title>Node26&#45;&gt;Node27</title>
<path fill="none" stroke="midnightblue" d="M219.12,-270.69C222.66,-261.59 226.77,-251.01 229.6,-243.75"/>
<polygon fill="midnightblue" stroke="midnightblue" points="215.83,-269.49 215.47,-280.08 222.35,-272.03 215.83,-269.49"/>
</g>
<!-- Node28&#45;&gt;Node8 -->
<g id="edge40" class="edge">
<title>Node28&#45;&gt;Node8</title>
<path fill="none" stroke="midnightblue" d="M1041.8,-385.7C1050.93,-377.73 1061.22,-367.3 1068,-356 1083.48,-330.19 1087,-321.1 1087,-291 1087,-291 1087,-291 1087,-121 1087,-81.4 1064.73,-37.96 1054.28,-19.77"/>
<polygon fill="midnightblue" stroke="midnightblue" points="1039.33,-383.21 1033.87,-392.29 1043.8,-388.59 1039.33,-383.21"/>
</g>
<!-- Node29 -->
<g id="node29" class="node">
<title>Node29</title>
<g id="a_node29"><a xlink:href="_inventory_8cpp.html" target="_top" xlink:title=" ">
<polygon fill="none" stroke="black" points="985,-336.5 985,-355.5 1059,-355.5 1059,-336.5 985,-336.5"/>
<text text-anchor="middle" x="1022" y="-343.5" font-family="Helvetica,sans-Serif" font-size="10.00">Inventory.cpp</text>
</a>
</g>
</g>
<!-- Node28&#45;&gt;Node29 -->
<g id="edge39" class="edge">
<title>Node28&#45;&gt;Node29</title>
<path fill="none" stroke="midnightblue" d="M1022,-381.8C1022,-372.91 1022,-362.78 1022,-355.75"/>
<polygon fill="midnightblue" stroke="midnightblue" points="1018.5,-382.08 1022,-392.08 1025.5,-382.08 1018.5,-382.08"/>
</g>
<!-- Node30&#45;&gt;Node8 -->
<g id="edge46" class="edge">
<title>Node30&#45;&gt;Node8</title>
<path fill="none" stroke="midnightblue" d="M1125,-382.25C1125,-360.36 1125,-323.05 1125,-291 1125,-291 1125,-291 1125,-121 1125,-76.2 1081.8,-36.43 1060.54,-19.57"/>
<polygon fill="midnightblue" stroke="midnightblue" points="1121.5,-382.44 1125,-392.44 1128.5,-382.44 1121.5,-382.44"/>
</g>
<!-- Node31 -->
<g id="node31" class="node">
<title>Node31</title>
<g id="a_node31"><a xlink:href="_enemy_01_overworld_01_sprites_2_mumy_8cpp.html" target="_top" xlink:title=" ">
<polygon fill="none" stroke="black" points="1153,-336.5 1153,-355.5 1215,-355.5 1215,-336.5 1153,-336.5"/>
<text text-anchor="middle" x="1184" y="-343.5" font-family="Helvetica,sans-Serif" font-size="10.00">Mumy.cpp</text>
</a>
</g>
</g>
<!-- Node30&#45;&gt;Node31 -->
<g id="edge45" class="edge">
<title>Node30&#45;&gt;Node31</title>
<path fill="none" stroke="midnightblue" d="M1141.89,-385.54C1152.41,-375.91 1165.57,-363.87 1174.35,-355.83"/>
<polygon fill="midnightblue" stroke="midnightblue" points="1139.49,-382.99 1134.48,-392.32 1144.22,-388.15 1139.49,-382.99"/>
</g>
<!-- Node32&#45;&gt;Node4 -->
<g id="edge48" class="edge">
<title>Node32&#45;&gt;Node4</title>
<path fill="none" stroke="midnightblue" d="M703.61,-269.93C706.65,-233.92 713.11,-157.23 715.28,-131.57"/>
<polygon fill="midnightblue" stroke="midnightblue" points="700.11,-269.82 702.75,-280.08 707.08,-270.4 700.11,-269.82"/>
</g>
<!-- Node32&#45;&gt;Node6 -->
<g id="edge51" class="edge">
<title>Node32&#45;&gt;Node6</title>
<path fill="none" stroke="midnightblue" d="M697.27,-270.33C689.92,-244.54 673.53,-197.81 645,-168 597.87,-118.75 521.4,-88.65 480.65,-75.24"/>
<polygon fill="midnightblue" stroke="midnightblue" points="693.97,-271.54 699.95,-280.29 700.73,-269.72 693.97,-271.54"/>
</g>
<!-- Node32&#45;&gt;Node8 -->
<g id="edge52" class="edge">
<title>Node32&#45;&gt;Node8</title>
<path fill="none" stroke="midnightblue" d="M735.42,-276.67C772.47,-261.35 831.54,-231.78 866,-188 904.16,-139.52 865.29,-99.54 909,-56 939.21,-25.91 989.58,-15.93 1020.96,-12.62"/>
<polygon fill="midnightblue" stroke="midnightblue" points="734.02,-273.46 726.05,-280.43 736.63,-279.95 734.02,-273.46"/>
</g>
<!-- Node32&#45;&gt;Node13 -->
<g id="edge49" class="edge">
<title>Node32&#45;&gt;Node13</title>
<path fill="none" stroke="midnightblue" d="M667.12,-279.54C626.83,-268.6 561.62,-250.91 526.76,-241.45"/>
<polygon fill="midnightblue" stroke="midnightblue" points="666.23,-282.92 676.8,-282.16 668.06,-276.16 666.23,-282.92"/>
</g>
<!-- Node32&#45;&gt;Node17 -->
<g id="edge50" class="edge">
<title>Node32&#45;&gt;Node17</title>
<path fill="none" stroke="midnightblue" d="M682.93,-274.06C672.89,-265.74 660.68,-254.89 651,-244 634.59,-225.54 619.01,-200.9 611.2,-187.9"/>
<polygon fill="midnightblue" stroke="midnightblue" points="680.78,-276.82 690.75,-280.4 685.18,-271.38 680.78,-276.82"/>
</g>
<!-- Node33&#45;&gt;Node8 -->
<g id="edge56" class="edge">
<title>Node33&#45;&gt;Node8</title>
<path fill="none" stroke="midnightblue" d="M1288.36,-385.63C1297.29,-377.64 1307.36,-367.21 1314,-356 1329.34,-330.11 1333,-321.1 1333,-291 1333,-291 1333,-291 1333,-121 1333,-66.47 1148.66,-28.41 1077.01,-15.67"/>
<polygon fill="midnightblue" stroke="midnightblue" points="1285.95,-383.08 1280.61,-392.23 1290.49,-388.41 1285.95,-383.08"/>
</g>
<!-- Node34 -->
<g id="node34" class="node">
<title>Node34</title>
<g id="a_node34"><a xlink:href="_enemy_01_overworld_01_sprites_2_pharaoh_8cpp.html" target="_top" xlink:title=" ">
<polygon fill="none" stroke="black" points="1233.5,-336.5 1233.5,-355.5 1304.5,-355.5 1304.5,-336.5 1233.5,-336.5"/>
<text text-anchor="middle" x="1269" y="-343.5" font-family="Helvetica,sans-Serif" font-size="10.00">Pharaoh.cpp</text>
</a>
</g>
</g>
<!-- Node33&#45;&gt;Node34 -->
<g id="edge55" class="edge">
<title>Node33&#45;&gt;Node34</title>
<path fill="none" stroke="midnightblue" d="M1269,-381.8C1269,-372.91 1269,-362.78 1269,-355.75"/>
<polygon fill="midnightblue" stroke="midnightblue" points="1265.5,-382.08 1269,-392.08 1272.5,-382.08 1265.5,-382.08"/>
</g>
<!-- Node35&#45;&gt;Node8 -->
<g id="edge62" class="edge">
<title>Node35&#45;&gt;Node8</title>
<path fill="none" stroke="midnightblue" d="M1371,-382.25C1371,-360.36 1371,-323.05 1371,-291 1371,-291 1371,-291 1371,-121 1371,-71.66 1326.28,-75.6 1281,-56 1211.72,-26.01 1122.18,-15.88 1077.29,-12.56"/>
<polygon fill="midnightblue" stroke="midnightblue" points="1367.5,-382.44 1371,-392.44 1374.5,-382.44 1367.5,-382.44"/>
</g>
<!-- Node36 -->
<g id="node36" class="node">
<title>Node36</title>
<g id="a_node36"><a xlink:href="_enemy_01_overworld_01_sprites_2_shadow_8cpp.html" target="_top" xlink:title=" ">
<polygon fill="none" stroke="black" points="1399,-336.5 1399,-355.5 1469,-355.5 1469,-336.5 1399,-336.5"/>
<text text-anchor="middle" x="1434" y="-343.5" font-family="Helvetica,sans-Serif" font-size="10.00">Shadow.cpp</text>
</a>
</g>
</g>
<!-- Node35&#45;&gt;Node36 -->
<g id="edge61" class="edge">
<title>Node35&#45;&gt;Node36</title>
<path fill="none" stroke="midnightblue" d="M1389.04,-385.54C1400.27,-375.91 1414.32,-363.87 1423.69,-355.83"/>
<polygon fill="midnightblue" stroke="midnightblue" points="1386.44,-383.16 1381.12,-392.32 1390.99,-388.47 1386.44,-383.16"/>
</g>
<!-- Node37&#45;&gt;Node8 -->
<g id="edge69" class="edge">
<title>Node37&#45;&gt;Node8</title>
<path fill="none" stroke="midnightblue" d="M651.49,-386.37C663.04,-377.64 677.93,-366.28 691,-356 780.9,-285.26 806.43,-270.19 886,-188 947.31,-124.67 1018.29,-45.49 1041.34,-19.61"/>
<polygon fill="midnightblue" stroke="midnightblue" points="649.27,-383.66 643.39,-392.47 653.48,-389.25 649.27,-383.66"/>
</g>
<!-- Node37&#45;&gt;Node13 -->
<g id="edge65" class="edge">
<title>Node37&#45;&gt;Node13</title>
<path fill="none" stroke="midnightblue" d="M616.81,-384.65C609.17,-376.25 599.89,-365.75 592,-356 559.02,-315.26 522.96,-263.9 508.99,-243.71"/>
<polygon fill="midnightblue" stroke="midnightblue" points="614.44,-387.25 623.78,-392.25 619.6,-382.51 614.44,-387.25"/>
</g>
<!-- Node37&#45;&gt;Node18 -->
<g id="edge64" class="edge">
<title>Node37&#45;&gt;Node18</title>
<path fill="none" stroke="midnightblue" d="M596.93,-396.09C527.16,-386.33 370.94,-364.48 292.62,-353.52"/>
<polygon fill="midnightblue" stroke="midnightblue" points="596.58,-399.58 606.97,-397.5 597.55,-392.65 596.58,-399.58"/>
</g>
<!-- Node37&#45;&gt;Node24 -->
<g id="edge67" class="edge">
<title>Node37&#45;&gt;Node24</title>
<path fill="none" stroke="midnightblue" d="M605.4,-387.88C559.18,-365.08 465.26,-318.75 426.42,-299.59"/>
<polygon fill="midnightblue" stroke="midnightblue" points="603.98,-391.08 614.5,-392.37 607.08,-384.81 603.98,-391.08"/>
</g>
<!-- Node37&#45;&gt;Node32 -->
<g id="edge66" class="edge">
<title>Node37&#45;&gt;Node32</title>
<path fill="none" stroke="midnightblue" d="M647.86,-384.87C655.44,-376.65 664.29,-366.25 671,-356 683.32,-337.17 693.64,-312.68 698.68,-299.81"/>
<polygon fill="midnightblue" stroke="midnightblue" points="645.18,-382.61 640.84,-392.27 650.26,-387.43 645.18,-382.61"/>
</g>
<!-- Node38 -->
<g id="node38" class="node">
<title>Node38</title>
<g id="a_node38"><a xlink:href="_sprite_8cpp.html" target="_top" xlink:title=" ">
<polygon fill="none" stroke="black" points="601.5,-336.5 601.5,-355.5 662.5,-355.5 662.5,-336.5 601.5,-336.5"/>
<text text-anchor="middle" x="632" y="-343.5" font-family="Helvetica,sans-Serif" font-size="10.00">Sprite.cpp</text>
</a>
</g>
</g>
<!-- Node37&#45;&gt;Node38 -->
<g id="edge68" class="edge">
<title>Node37&#45;&gt;Node38</title>
<path fill="none" stroke="midnightblue" d="M632,-381.8C632,-372.91 632,-362.78 632,-355.75"/>
<polygon fill="midnightblue" stroke="midnightblue" points="628.5,-382.08 632,-392.08 635.5,-382.08 628.5,-382.08"/>
</g>
<!-- Node39&#45;&gt;Node8 -->
<g id="edge73" class="edge">
<title>Node39&#45;&gt;Node8</title>
<path fill="none" stroke="midnightblue" d="M964.39,-274.1C973.99,-266.14 984.88,-255.59 992,-244 1007.76,-218.36 1011,-209.1 1011,-179 1011,-179 1011,-179 1011,-121 1011,-81.4 1033.27,-37.96 1043.72,-19.77"/>
<polygon fill="midnightblue" stroke="midnightblue" points="962.09,-271.46 956.4,-280.4 966.42,-276.96 962.09,-271.46"/>
</g>
<!-- Node39&#45;&gt;Node13 -->
<g id="edge71" class="edge">
<title>Node39&#45;&gt;Node13</title>
<path fill="none" stroke="midnightblue" d="M916.71,-285.66C836.43,-275.83 602,-247.12 526.63,-237.89"/>
<polygon fill="midnightblue" stroke="midnightblue" points="916.63,-289.17 926.98,-286.92 917.48,-282.23 916.63,-289.17"/>
</g>
<!-- Node40 -->
<g id="node40" class="node">
<title>Node40</title>
<g id="a_node40"><a xlink:href="_u_i_8cpp.html" target="_top" xlink:title=" ">
<polygon fill="none" stroke="black" points="939,-224.5 939,-243.5 983,-243.5 983,-224.5 939,-224.5"/>
<text text-anchor="middle" x="961" y="-231.5" font-family="Helvetica,sans-Serif" font-size="10.00">UI.cpp</text>
</a>
</g>
</g>
<!-- Node39&#45;&gt;Node40 -->
<g id="edge72" class="edge">
<title>Node39&#45;&gt;Node40</title>
<path fill="none" stroke="midnightblue" d="M949.86,-270.4C952.7,-261.36 955.98,-250.94 958.25,-243.75"/>
<polygon fill="midnightblue" stroke="midnightblue" points="946.47,-269.49 946.81,-280.08 953.15,-271.6 946.47,-269.49"/>
</g>
</g>
</svg>
