<?xml version="1.0" encoding="UTF-8" standalone="no"?>
<!DOCTYPE svg PUBLIC "-//W3C//DTD SVG 1.1//EN"
 "http://www.w3.org/Graphics/SVG/1.1/DTD/svg11.dtd">
<!-- Generated by graphviz version 3.0.0 (20220226.1711)
 -->
<!-- Title: GameCharacter.h Pages: 1 -->
<svg width="464pt" height="364pt"
 viewBox="0.00 0.00 464.00 364.00" xmlns="http://www.w3.org/2000/svg" xmlns:xlink="http://www.w3.org/1999/xlink">
<g id="graph0" class="graph" transform="scale(1 1) rotate(0) translate(4 360)">
<title>GameCharacter.h</title>
<!-- Node1 -->
<g id="node1" class="node">
<title>Node1</title>
<g id="a_node1"><a xlink:title=" ">
<polygon fill="#bfbfbf" stroke="black" points="181.5,-336.5 181.5,-355.5 274.5,-355.5 274.5,-336.5 181.5,-336.5"/>
<text text-anchor="middle" x="228" y="-343.5" font-family="Helvetica,sans-Serif" font-size="10.00">GameCharacter.h</text>
</a>
</g>
</g>
<!-- Node2 -->
<g id="node2" class="node">
<title>Node2</title>
<g id="a_node2"><a xlink:href="_game_character_8cpp.html" target="_top" xlink:title=" ">
<polygon fill="none" stroke="black" points="0,-280.5 0,-299.5 104,-299.5 104,-280.5 0,-280.5"/>
<text text-anchor="middle" x="52" y="-287.5" font-family="Helvetica,sans-Serif" font-size="10.00">GameCharacter.cpp</text>
</a>
</g>
</g>
<!-- Node1&#45;&gt;Node2 -->
<g id="edge1" class="edge">
<title>Node1&#45;&gt;Node2</title>
<path fill="none" stroke="midnightblue" d="M190.31,-333.44C157.13,-323.26 109.57,-308.66 79.76,-299.52"/>
<polygon fill="midnightblue" stroke="midnightblue" points="189.53,-336.86 200.11,-336.44 191.58,-330.16 189.53,-336.86"/>
</g>
<!-- Node3 -->
<g id="node3" class="node">
<title>Node3</title>
<g id="a_node3"><a xlink:href="_combat_2_mumy_8h.html" target="_top" xlink:title=" ">
<polygon fill="none" stroke="black" points="350,-280.5 350,-299.5 402,-299.5 402,-280.5 350,-280.5"/>
<text text-anchor="middle" x="376" y="-287.5" font-family="Helvetica,sans-Serif" font-size="10.00">Mumy.h</text>
</a>
</g>
</g>
<!-- Node1&#45;&gt;Node3 -->
<g id="edge2" class="edge">
<title>Node1&#45;&gt;Node3</title>
<path fill="none" stroke="midnightblue" d="M261.15,-332.91C288.97,-322.75 328.02,-308.51 352.66,-299.52"/>
<polygon fill="midnightblue" stroke="midnightblue" points="259.65,-329.73 251.45,-336.44 262.04,-336.3 259.65,-329.73"/>
</g>
<!-- Node15 -->
<g id="node15" class="node">
<title>Node15</title>
<g id="a_node15"><a xlink:href="_combat_2_pharaoh_8h.html" target="_top" xlink:title=" ">
<polygon fill="none" stroke="black" points="122.5,-280.5 122.5,-299.5 183.5,-299.5 183.5,-280.5 122.5,-280.5"/>
<text text-anchor="middle" x="153" y="-287.5" font-family="Helvetica,sans-Serif" font-size="10.00">Pharaoh.h</text>
</a>
</g>
</g>
<!-- Node1&#45;&gt;Node15 -->
<g id="edge17" class="edge">
<title>Node1&#45;&gt;Node15</title>
<path fill="none" stroke="midnightblue" d="M207.69,-330.38C194.14,-320.62 176.76,-308.11 165.27,-299.83"/>
<polygon fill="midnightblue" stroke="midnightblue" points="205.79,-333.32 215.95,-336.32 209.88,-327.64 205.79,-333.32"/>
</g>
<!-- Node17 -->
<g id="node17" class="node">
<title>Node17</title>
<g id="a_node17"><a xlink:href="_player_8h.html" target="_top" xlink:title=" ">
<polygon fill="none" stroke="black" points="201.5,-280.5 201.5,-299.5 254.5,-299.5 254.5,-280.5 201.5,-280.5"/>
<text text-anchor="middle" x="228" y="-287.5" font-family="Helvetica,sans-Serif" font-size="10.00">Player.h</text>
</a>
</g>
</g>
<!-- Node1&#45;&gt;Node17 -->
<g id="edge20" class="edge">
<title>Node1&#45;&gt;Node17</title>
<path fill="none" stroke="midnightblue" d="M228,-325.8C228,-316.91 228,-306.78 228,-299.75"/>
<polygon fill="midnightblue" stroke="midnightblue" points="224.5,-326.08 228,-336.08 231.5,-326.08 224.5,-326.08"/>
</g>
<!-- Node19 -->
<g id="node19" class="node">
<title>Node19</title>
<g id="a_node19"><a xlink:href="_combat_2_shadow_8h.html" target="_top" xlink:title=" ">
<polygon fill="none" stroke="black" points="272.5,-280.5 272.5,-299.5 331.5,-299.5 331.5,-280.5 272.5,-280.5"/>
<text text-anchor="middle" x="302" y="-287.5" font-family="Helvetica,sans-Serif" font-size="10.00">Shadow.h</text>
</a>
</g>
</g>
<!-- Node1&#45;&gt;Node19 -->
<g id="edge23" class="edge">
<title>Node1&#45;&gt;Node19</title>
<path fill="none" stroke="midnightblue" d="M248.03,-330.38C261.41,-320.62 278.56,-308.11 289.89,-299.83"/>
<polygon fill="midnightblue" stroke="midnightblue" points="245.9,-327.6 239.89,-336.32 250.03,-333.26 245.9,-327.6"/>
</g>
<!-- Node4 -->
<g id="node4" class="node">
<title>Node4</title>
<g id="a_node4"><a xlink:href="_level_8h.html" target="_top" xlink:title=" ">
<polygon fill="none" stroke="black" points="240.5,-224.5 240.5,-243.5 287.5,-243.5 287.5,-224.5 240.5,-224.5"/>
<text text-anchor="middle" x="264" y="-231.5" font-family="Helvetica,sans-Serif" font-size="10.00">Level.h</text>
</a>
</g>
</g>
<!-- Node3&#45;&gt;Node4 -->
<g id="edge3" class="edge">
<title>Node3&#45;&gt;Node4</title>
<path fill="none" stroke="midnightblue" d="M348.75,-275.86C327.98,-265.85 299.98,-252.35 281.95,-243.65"/>
<polygon fill="midnightblue" stroke="midnightblue" points="347.48,-279.13 358.01,-280.32 350.52,-272.83 347.48,-279.13"/>
</g>
<!-- Node14 -->
<g id="node14" class="node">
<title>Node14</title>
<g id="a_node14"><a xlink:href="_combat_2_mumy_8cpp.html" target="_top" xlink:title=" ">
<polygon fill="none" stroke="black" points="394,-224.5 394,-243.5 456,-243.5 456,-224.5 394,-224.5"/>
<text text-anchor="middle" x="425" y="-231.5" font-family="Helvetica,sans-Serif" font-size="10.00">Mumy.cpp</text>
</a>
</g>
</g>
<!-- Node3&#45;&gt;Node14 -->
<g id="edge16" class="edge">
<title>Node3&#45;&gt;Node14</title>
<path fill="none" stroke="midnightblue" d="M391.03,-272.43C399.62,-262.97 410.04,-251.48 417.06,-243.75"/>
<polygon fill="midnightblue" stroke="midnightblue" points="388.22,-270.33 384.09,-280.08 393.4,-275.03 388.22,-270.33"/>
</g>
<!-- Node5 -->
<g id="node5" class="node">
<title>Node5</title>
<g id="a_node5"><a xlink:href="_collision_8h.html" target="_top" xlink:title=" ">
<polygon fill="none" stroke="black" points="124,-112.5 124,-131.5 186,-131.5 186,-112.5 124,-112.5"/>
<text text-anchor="middle" x="155" y="-119.5" font-family="Helvetica,sans-Serif" font-size="10.00">Collision.h</text>
</a>
</g>
</g>
<!-- Node4&#45;&gt;Node5 -->
<g id="edge4" class="edge">
<title>Node4&#45;&gt;Node5</title>
<path fill="none" stroke="midnightblue" d="M240.19,-219.12C227.43,-211.01 211.94,-200.02 200,-188 182.4,-170.27 167.08,-144.9 159.69,-131.71"/>
<polygon fill="midnightblue" stroke="midnightblue" points="238.55,-222.22 248.9,-224.49 242.22,-216.26 238.55,-222.22"/>
</g>
<!-- Node9 -->
<g id="node9" class="node">
<title>Node9</title>
<g id="a_node9"><a xlink:href="main_8cpp.html" target="_top" xlink:title=" ">
<polygon fill="none" stroke="black" points="197,-0.5 197,-19.5 253,-19.5 253,-0.5 197,-0.5"/>
<text text-anchor="middle" x="225" y="-7.5" font-family="Helvetica,sans-Serif" font-size="10.00">main.cpp</text>
</a>
</g>
</g>
<!-- Node4&#45;&gt;Node9 -->
<g id="edge15" class="edge">
<title>Node4&#45;&gt;Node9</title>
<path fill="none" stroke="midnightblue" d="M249.24,-216.4C243.03,-208.4 236.46,-198.3 233,-188 212.32,-126.48 220.3,-46.13 223.74,-19.78"/>
<polygon fill="midnightblue" stroke="midnightblue" points="246.6,-218.7 255.66,-224.19 252,-214.25 246.6,-218.7"/>
</g>
<!-- Node10 -->
<g id="node10" class="node">
<title>Node10</title>
<g id="a_node10"><a xlink:href="_level_8cpp.html" target="_top" xlink:title=" ">
<polygon fill="none" stroke="black" points="304.5,-168.5 304.5,-187.5 361.5,-187.5 361.5,-168.5 304.5,-168.5"/>
<text text-anchor="middle" x="333" y="-175.5" font-family="Helvetica,sans-Serif" font-size="10.00">Level.cpp</text>
</a>
</g>
</g>
<!-- Node4&#45;&gt;Node10 -->
<g id="edge9" class="edge">
<title>Node4&#45;&gt;Node10</title>
<path fill="none" stroke="midnightblue" d="M283.04,-218.1C295.46,-208.38 311.24,-196.03 321.71,-187.83"/>
<polygon fill="midnightblue" stroke="midnightblue" points="280.8,-215.4 275.09,-224.32 285.12,-220.92 280.8,-215.4"/>
</g>
<!-- Node11 -->
<g id="node11" class="node">
<title>Node11</title>
<g id="a_node11"><a xlink:href="_map_8h.html" target="_top" xlink:title=" ">
<polygon fill="none" stroke="black" points="242,-168.5 242,-187.5 286,-187.5 286,-168.5 242,-168.5"/>
<text text-anchor="middle" x="264" y="-175.5" font-family="Helvetica,sans-Serif" font-size="10.00">Map.h</text>
</a>
</g>
</g>
<!-- Node4&#45;&gt;Node11 -->
<g id="edge10" class="edge">
<title>Node4&#45;&gt;Node11</title>
<path fill="none" stroke="midnightblue" d="M264,-213.8C264,-204.91 264,-194.78 264,-187.75"/>
<polygon fill="midnightblue" stroke="midnightblue" points="260.5,-214.08 264,-224.08 267.5,-214.08 260.5,-214.08"/>
</g>
<!-- Node13 -->
<g id="node13" class="node">
<title>Node13</title>
<g id="a_node13"><a xlink:href="_nemo_8cpp.html" target="_top" xlink:title=" ">
<polygon fill="none" stroke="black" points="379.5,-168.5 379.5,-187.5 440.5,-187.5 440.5,-168.5 379.5,-168.5"/>
<text text-anchor="middle" x="410" y="-175.5" font-family="Helvetica,sans-Serif" font-size="10.00">Nemo.cpp</text>
</a>
</g>
</g>
<!-- Node4&#45;&gt;Node13 -->
<g id="edge14" class="edge">
<title>Node4&#45;&gt;Node13</title>
<path fill="none" stroke="midnightblue" d="M296.7,-220.91C324.15,-210.75 362.67,-196.51 386.97,-187.52"/>
<polygon fill="midnightblue" stroke="midnightblue" points="295.3,-217.69 287.13,-224.44 297.73,-224.26 295.3,-217.69"/>
</g>
<!-- Node6 -->
<g id="node6" class="node">
<title>Node6</title>
<g id="a_node6"><a xlink:href="_collision_8cpp.html" target="_top" xlink:title=" ">
<polygon fill="none" stroke="black" points="39,-56.5 39,-75.5 111,-75.5 111,-56.5 39,-56.5"/>
<text text-anchor="middle" x="75" y="-63.5" font-family="Helvetica,sans-Serif" font-size="10.00">Collision.cpp</text>
</a>
</g>
</g>
<!-- Node5&#45;&gt;Node6 -->
<g id="edge5" class="edge">
<title>Node5&#45;&gt;Node6</title>
<path fill="none" stroke="midnightblue" d="M133.7,-106.62C119.08,-96.76 100.17,-83.99 87.82,-75.65"/>
<polygon fill="midnightblue" stroke="midnightblue" points="131.9,-109.63 142.15,-112.32 135.82,-103.83 131.9,-109.63"/>
</g>
<!-- Node7 -->
<g id="node7" class="node">
<title>Node7</title>
<g id="a_node7"><a xlink:href="_puzzle_8h.html" target="_top" xlink:title=" ">
<polygon fill="none" stroke="black" points="129.5,-56.5 129.5,-75.5 184.5,-75.5 184.5,-56.5 129.5,-56.5"/>
<text text-anchor="middle" x="157" y="-63.5" font-family="Helvetica,sans-Serif" font-size="10.00">Puzzle.h</text>
</a>
</g>
</g>
<!-- Node5&#45;&gt;Node7 -->
<g id="edge6" class="edge">
<title>Node5&#45;&gt;Node7</title>
<path fill="none" stroke="midnightblue" d="M155.71,-101.8C156.04,-92.91 156.42,-82.78 156.68,-75.75"/>
<polygon fill="midnightblue" stroke="midnightblue" points="152.2,-101.96 155.33,-112.08 159.2,-102.22 152.2,-101.96"/>
</g>
<!-- Node8 -->
<g id="node8" class="node">
<title>Node8</title>
<g id="a_node8"><a xlink:href="_puzzle_8cpp.html" target="_top" xlink:title=" ">
<polygon fill="none" stroke="black" points="113.5,-0.5 113.5,-19.5 178.5,-19.5 178.5,-0.5 113.5,-0.5"/>
<text text-anchor="middle" x="146" y="-7.5" font-family="Helvetica,sans-Serif" font-size="10.00">Puzzle.cpp</text>
</a>
</g>
</g>
<!-- Node7&#45;&gt;Node8 -->
<g id="edge7" class="edge">
<title>Node7&#45;&gt;Node8</title>
<path fill="none" stroke="midnightblue" d="M153.15,-46.1C151.32,-37.14 149.23,-26.86 147.78,-19.75"/>
<polygon fill="midnightblue" stroke="midnightblue" points="149.76,-46.98 155.18,-56.08 156.62,-45.59 149.76,-46.98"/>
</g>
<!-- Node7&#45;&gt;Node9 -->
<g id="edge8" class="edge">
<title>Node7&#45;&gt;Node9</title>
<path fill="none" stroke="midnightblue" d="M175.76,-50.1C188,-40.38 203.56,-28.03 213.88,-19.83"/>
<polygon fill="midnightblue" stroke="midnightblue" points="173.58,-47.36 167.93,-56.32 177.93,-52.85 173.58,-47.36"/>
</g>
<!-- Node11&#45;&gt;Node5 -->
<g id="edge11" class="edge">
<title>Node11&#45;&gt;Node5</title>
<path fill="none" stroke="midnightblue" d="M237.48,-163.86C217.27,-153.85 190.01,-140.35 172.47,-131.65"/>
<polygon fill="midnightblue" stroke="midnightblue" points="235.97,-167.02 246.49,-168.32 239.08,-160.75 235.97,-167.02"/>
</g>
<!-- Node11&#45;&gt;Node9 -->
<g id="edge13" class="edge">
<title>Node11&#45;&gt;Node9</title>
<path fill="none" stroke="midnightblue" d="M259.52,-157.93C251.06,-121.92 233.04,-45.23 227.01,-19.57"/>
<polygon fill="midnightblue" stroke="midnightblue" points="256.21,-159.14 261.9,-168.08 263.02,-157.54 256.21,-159.14"/>
</g>
<!-- Node12 -->
<g id="node12" class="node">
<title>Node12</title>
<g id="a_node12"><a xlink:href="_map_8cpp.html" target="_top" xlink:title=" ">
<polygon fill="none" stroke="black" points="280,-112.5 280,-131.5 334,-131.5 334,-112.5 280,-112.5"/>
<text text-anchor="middle" x="307" y="-119.5" font-family="Helvetica,sans-Serif" font-size="10.00">Map.cpp</text>
</a>
</g>
</g>
<!-- Node11&#45;&gt;Node12 -->
<g id="edge12" class="edge">
<title>Node11&#45;&gt;Node12</title>
<path fill="none" stroke="midnightblue" d="M277.42,-160.14C284.91,-150.74 293.94,-139.4 300.03,-131.75"/>
<polygon fill="midnightblue" stroke="midnightblue" points="274.59,-158.08 271.1,-168.08 280.07,-162.44 274.59,-158.08"/>
</g>
<!-- Node15&#45;&gt;Node4 -->
<g id="edge18" class="edge">
<title>Node15&#45;&gt;Node4</title>
<path fill="none" stroke="midnightblue" d="M180.01,-275.86C200.59,-265.85 228.34,-252.35 246.21,-243.65"/>
<polygon fill="midnightblue" stroke="midnightblue" points="178.3,-272.8 170.83,-280.32 181.36,-279.1 178.3,-272.8"/>
</g>
<!-- Node16 -->
<g id="node16" class="node">
<title>Node16</title>
<g id="a_node16"><a xlink:href="_combat_2_pharaoh_8cpp.html" target="_top" xlink:title=" ">
<polygon fill="none" stroke="black" points="70.5,-224.5 70.5,-243.5 141.5,-243.5 141.5,-224.5 70.5,-224.5"/>
<text text-anchor="middle" x="106" y="-231.5" font-family="Helvetica,sans-Serif" font-size="10.00">Pharaoh.cpp</text>
</a>
</g>
</g>
<!-- Node15&#45;&gt;Node16 -->
<g id="edge19" class="edge">
<title>Node15&#45;&gt;Node16</title>
<path fill="none" stroke="midnightblue" d="M138.58,-272.43C130.34,-262.97 120.35,-251.48 113.62,-243.75"/>
<polygon fill="midnightblue" stroke="midnightblue" points="136.03,-274.84 145.24,-280.08 141.31,-270.24 136.03,-274.84"/>
</g>
<!-- Node17&#45;&gt;Node4 -->
<g id="edge21" class="edge">
<title>Node17&#45;&gt;Node4</title>
<path fill="none" stroke="midnightblue" d="M239.62,-271.57C245.82,-262.27 253.17,-251.25 258.17,-243.75"/>
<polygon fill="midnightblue" stroke="midnightblue" points="236.58,-269.82 233.94,-280.08 242.4,-273.7 236.58,-269.82"/>
</g>
<!-- Node18 -->
<g id="node18" class="node">
<title>Node18</title>
<g id="a_node18"><a xlink:href="_player_8cpp.html" target="_top" xlink:title=" ">
<polygon fill="none" stroke="black" points="159.5,-224.5 159.5,-243.5 222.5,-243.5 222.5,-224.5 159.5,-224.5"/>
<text text-anchor="middle" x="191" y="-231.5" font-family="Helvetica,sans-Serif" font-size="10.00">Player.cpp</text>
</a>
</g>
</g>
<!-- Node17&#45;&gt;Node18 -->
<g id="edge22" class="edge">
<title>Node17&#45;&gt;Node18</title>
<path fill="none" stroke="midnightblue" d="M216.05,-271.57C209.69,-262.27 202.13,-251.25 197,-243.75"/>
<polygon fill="midnightblue" stroke="midnightblue" points="213.35,-273.81 221.89,-280.08 219.13,-269.86 213.35,-273.81"/>
</g>
<!-- Node19&#45;&gt;Node4 -->
<g id="edge24" class="edge">
<title>Node19&#45;&gt;Node4</title>
<path fill="none" stroke="midnightblue" d="M289.94,-271.86C283.36,-262.5 275.49,-251.33 270.16,-243.75"/>
<polygon fill="midnightblue" stroke="midnightblue" points="287.11,-273.92 295.73,-280.08 292.83,-269.89 287.11,-273.92"/>
</g>
<!-- Node20 -->
<g id="node20" class="node">
<title>Node20</title>
<g id="a_node20"><a xlink:href="_combat_2_shadow_8cpp.html" target="_top" xlink:title=" ">
<polygon fill="none" stroke="black" points="306,-224.5 306,-243.5 376,-243.5 376,-224.5 306,-224.5"/>
<text text-anchor="middle" x="341" y="-231.5" font-family="Helvetica,sans-Serif" font-size="10.00">Shadow.cpp</text>
</a>
</g>
</g>
<!-- Node19&#45;&gt;Node20 -->
<g id="edge25" class="edge">
<title>Node19&#45;&gt;Node20</title>
<path fill="none" stroke="midnightblue" d="M314.38,-271.86C321.14,-262.5 329.21,-251.33 334.68,-243.75"/>
<polygon fill="midnightblue" stroke="midnightblue" points="311.46,-269.93 308.44,-280.08 317.13,-274.03 311.46,-269.93"/>
</g>
</g>
</svg>
