<?xml version="1.0" encoding="UTF-8" standalone="no"?>
<!DOCTYPE svg PUBLIC "-//W3C//DTD SVG 1.1//EN"
 "http://www.w3.org/Graphics/SVG/1.1/DTD/svg11.dtd">
<!-- Generated by graphviz version 3.0.0 (20220226.1711)
 -->
<!-- Title: INCLUDES.h Pages: 1 -->
<svg width="1443pt" height="420pt"
 viewBox="0.00 0.00 1443.00 420.00" xmlns="http://www.w3.org/2000/svg" xmlns:xlink="http://www.w3.org/1999/xlink">
<g id="graph0" class="graph" transform="scale(1 1) rotate(0) translate(4 416)">
<title>INCLUDES.h</title>
<!-- Node1 -->
<g id="node1" class="node">
<title>Node1</title>
<g id="a_node1"><a xlink:title=" ">
<polygon fill="#bfbfbf" stroke="black" points="617.5,-392.5 617.5,-411.5 690.5,-411.5 690.5,-392.5 617.5,-392.5"/>
<text text-anchor="middle" x="654" y="-399.5" font-family="Helvetica,sans-Serif" font-size="10.00">INCLUDES.h</text>
</a>
</g>
</g>
<!-- Node2 -->
<g id="node2" class="node">
<title>Node2</title>
<g id="a_node2"><a xlink:href="_collision_8h.html" target="_top" xlink:title=" ">
<polygon fill="none" stroke="black" points="106,-112.5 106,-131.5 168,-131.5 168,-112.5 106,-112.5"/>
<text text-anchor="middle" x="137" y="-119.5" font-family="Helvetica,sans-Serif" font-size="10.00">Collision.h</text>
</a>
</g>
</g>
<!-- Node1&#45;&gt;Node2 -->
<g id="edge1" class="edge">
<title>Node1&#45;&gt;Node2</title>
<path fill="none" stroke="midnightblue" d="M607.28,-400.46C494.27,-398.62 209.01,-390.57 121,-356 77.39,-338.87 38,-337.85 38,-291 38,-291 38,-291 38,-233 38,-184.44 91.96,-147.63 120.21,-131.68"/>
<polygon fill="midnightblue" stroke="midnightblue" points="607.29,-403.96 617.35,-400.62 607.4,-396.96 607.29,-403.96"/>
</g>
<!-- Node4 -->
<g id="node4" class="node">
<title>Node4</title>
<g id="a_node4"><a xlink:href="_puzzle_8h.html" target="_top" xlink:title=" ">
<polygon fill="none" stroke="black" points="50.5,-56.5 50.5,-75.5 105.5,-75.5 105.5,-56.5 50.5,-56.5"/>
<text text-anchor="middle" x="78" y="-63.5" font-family="Helvetica,sans-Serif" font-size="10.00">Puzzle.h</text>
</a>
</g>
</g>
<!-- Node1&#45;&gt;Node4 -->
<g id="edge50" class="edge">
<title>Node1&#45;&gt;Node4</title>
<path fill="none" stroke="midnightblue" d="M607.01,-401.66C484.69,-402.72 159.18,-401.11 63,-356 26.58,-338.92 0,-331.23 0,-291 0,-291 0,-291 0,-177 0,-132.05 43.88,-92.65 65.81,-75.76"/>
<polygon fill="midnightblue" stroke="midnightblue" points="607.22,-405.16 617.18,-401.56 607.15,-398.16 607.22,-405.16"/>
</g>
<!-- Node6 -->
<g id="node6" class="node">
<title>Node6</title>
<g id="a_node6"><a xlink:href="main_8cpp.html" target="_top" xlink:title=" ">
<polygon fill="none" stroke="black" points="811,-0.5 811,-19.5 867,-19.5 867,-0.5 811,-0.5"/>
<text text-anchor="middle" x="839" y="-7.5" font-family="Helvetica,sans-Serif" font-size="10.00">main.cpp</text>
</a>
</g>
</g>
<!-- Node1&#45;&gt;Node6 -->
<g id="edge66" class="edge">
<title>Node1&#45;&gt;Node6</title>
<path fill="none" stroke="midnightblue" d="M700.76,-394.01C733.56,-387.64 777.52,-376.06 812,-356 895.68,-307.3 939,-275.82 939,-179 939,-179 939,-179 939,-121 939,-72.22 884.49,-35.51 855.96,-19.64"/>
<polygon fill="midnightblue" stroke="midnightblue" points="699.73,-390.64 690.53,-395.9 701,-397.52 699.73,-390.64"/>
</g>
<!-- Node7 -->
<g id="node7" class="node">
<title>Node7</title>
<g id="a_node7"><a xlink:href="_endscreen_8h.html" target="_top" xlink:title=" ">
<polygon fill="none" stroke="black" points="178.5,-336.5 178.5,-355.5 249.5,-355.5 249.5,-336.5 178.5,-336.5"/>
<text text-anchor="middle" x="214" y="-343.5" font-family="Helvetica,sans-Serif" font-size="10.00">Endscreen.h</text>
</a>
</g>
</g>
<!-- Node1&#45;&gt;Node7 -->
<g id="edge6" class="edge">
<title>Node1&#45;&gt;Node7</title>
<path fill="none" stroke="midnightblue" d="M607.25,-396.17C534.86,-388.55 391.35,-372.85 270,-356 263.37,-355.08 256.31,-354.01 249.52,-352.94"/>
<polygon fill="midnightblue" stroke="midnightblue" points="607.09,-399.67 617.4,-397.24 607.82,-392.71 607.09,-399.67"/>
</g>
<!-- Node9 -->
<g id="node9" class="node">
<title>Node9</title>
<g id="a_node9"><a xlink:href="_level_8h.html" target="_top" xlink:title=" ">
<polygon fill="none" stroke="black" points="422.5,-168.5 422.5,-187.5 469.5,-187.5 469.5,-168.5 422.5,-168.5"/>
<text text-anchor="middle" x="446" y="-175.5" font-family="Helvetica,sans-Serif" font-size="10.00">Level.h</text>
</a>
</g>
</g>
<!-- Node1&#45;&gt;Node9 -->
<g id="edge39" class="edge">
<title>Node1&#45;&gt;Node9</title>
<path fill="none" stroke="midnightblue" d="M607.26,-392.35C538.72,-376.72 414.4,-336.39 371,-244 358.55,-217.49 395.71,-197.52 422.08,-187.1"/>
<polygon fill="midnightblue" stroke="midnightblue" points="606.84,-395.84 617.36,-394.56 608.34,-389 606.84,-395.84"/>
</g>
<!-- Node11 -->
<g id="node11" class="node">
<title>Node11</title>
<g id="a_node11"><a xlink:href="_game_audio_8h.html" target="_top" xlink:title=" ">
<polygon fill="none" stroke="black" points="242,-280.5 242,-299.5 318,-299.5 318,-280.5 242,-280.5"/>
<text text-anchor="middle" x="280" y="-287.5" font-family="Helvetica,sans-Serif" font-size="10.00">GameAudio.h</text>
</a>
</g>
</g>
<!-- Node1&#45;&gt;Node11 -->
<g id="edge12" class="edge">
<title>Node1&#45;&gt;Node11</title>
<path fill="none" stroke="midnightblue" d="M607.17,-398.99C527.48,-394.7 370.07,-382.79 323,-356 299.64,-342.7 282.77,-314.42 278.75,-299.94"/>
<polygon fill="midnightblue" stroke="midnightblue" points="607.25,-402.5 617.42,-399.52 607.61,-395.51 607.25,-402.5"/>
</g>
<!-- Node13 -->
<g id="node13" class="node">
<title>Node13</title>
<g id="a_node13"><a xlink:href="_nemo_8h.html" target="_top" xlink:title=" ">
<polygon fill="none" stroke="black" points="94,-224.5 94,-243.5 144,-243.5 144,-224.5 94,-224.5"/>
<text text-anchor="middle" x="119" y="-231.5" font-family="Helvetica,sans-Serif" font-size="10.00">Nemo.h</text>
</a>
</g>
</g>
<!-- Node1&#45;&gt;Node13 -->
<g id="edge44" class="edge">
<title>Node1&#45;&gt;Node13</title>
<path fill="none" stroke="midnightblue" d="M607.14,-399.91C501.56,-396.93 248.16,-386.72 169,-356 130.55,-341.08 113.37,-336.93 95,-300 85.36,-280.61 101.14,-256.35 111.36,-243.66"/>
<polygon fill="midnightblue" stroke="midnightblue" points="607.09,-403.41 617.18,-400.18 607.28,-396.41 607.09,-403.41"/>
</g>
<!-- Node15 -->
<g id="node15" class="node">
<title>Node15</title>
<g id="a_node15"><a xlink:href="_game_character_8h.html" target="_top" xlink:title=" ">
<polygon fill="none" stroke="black" points="682.5,-280.5 682.5,-299.5 775.5,-299.5 775.5,-280.5 682.5,-280.5"/>
<text text-anchor="middle" x="729" y="-287.5" font-family="Helvetica,sans-Serif" font-size="10.00">GameCharacter.h</text>
</a>
</g>
</g>
<!-- Node1&#45;&gt;Node15 -->
<g id="edge22" class="edge">
<title>Node1&#45;&gt;Node15</title>
<path fill="none" stroke="midnightblue" d="M665.62,-383.96C681.87,-360.12 710.79,-317.71 723.14,-299.59"/>
<polygon fill="midnightblue" stroke="midnightblue" points="662.63,-382.13 659.89,-392.37 668.41,-386.08 662.63,-382.13"/>
</g>
<!-- Node17 -->
<g id="node17" class="node">
<title>Node17</title>
<g id="a_node17"><a xlink:href="_combat_2_mumy_8h.html" target="_top" xlink:title=" ">
<polygon fill="none" stroke="black" points="380,-224.5 380,-243.5 432,-243.5 432,-224.5 380,-224.5"/>
<text text-anchor="middle" x="406" y="-231.5" font-family="Helvetica,sans-Serif" font-size="10.00">Mumy.h</text>
</a>
</g>
</g>
<!-- Node1&#45;&gt;Node17 -->
<g id="edge40" class="edge">
<title>Node1&#45;&gt;Node17</title>
<path fill="none" stroke="midnightblue" d="M619.2,-388.97C597.11,-380.81 568.23,-369.13 544,-356 505.52,-335.15 495.67,-329.12 463,-300 442.61,-281.83 422.4,-256.64 412.42,-243.6"/>
<polygon fill="midnightblue" stroke="midnightblue" points="618.24,-392.35 628.83,-392.47 620.63,-385.77 618.24,-392.35"/>
</g>
<!-- Node19 -->
<g id="node19" class="node">
<title>Node19</title>
<g id="a_node19"><a xlink:href="_combat_2_pharaoh_8h.html" target="_top" xlink:title=" ">
<polygon fill="none" stroke="black" points="720.5,-224.5 720.5,-243.5 781.5,-243.5 781.5,-224.5 720.5,-224.5"/>
<text text-anchor="middle" x="751" y="-231.5" font-family="Helvetica,sans-Serif" font-size="10.00">Pharaoh.h</text>
</a>
</g>
</g>
<!-- Node1&#45;&gt;Node19 -->
<g id="edge45" class="edge">
<title>Node1&#45;&gt;Node19</title>
<path fill="none" stroke="midnightblue" d="M683.52,-387.95C715.03,-372.21 763.22,-342.46 784,-300 793.9,-279.77 774.08,-256.25 761.08,-243.79"/>
<polygon fill="midnightblue" stroke="midnightblue" points="681.81,-384.89 674.32,-392.39 684.85,-391.2 681.81,-384.89"/>
</g>
<!-- Node21 -->
<g id="node21" class="node">
<title>Node21</title>
<g id="a_node21"><a xlink:href="_player_8h.html" target="_top" xlink:title=" ">
<polygon fill="none" stroke="black" points="526.5,-224.5 526.5,-243.5 579.5,-243.5 579.5,-224.5 526.5,-224.5"/>
<text text-anchor="middle" x="553" y="-231.5" font-family="Helvetica,sans-Serif" font-size="10.00">Player.h</text>
</a>
</g>
</g>
<!-- Node1&#45;&gt;Node21 -->
<g id="edge49" class="edge">
<title>Node1&#45;&gt;Node21</title>
<path fill="none" stroke="midnightblue" d="M650.11,-382.36C644.2,-357.27 631.12,-312.1 608,-280 597.04,-264.78 579.71,-251.77 567.43,-243.71"/>
<polygon fill="midnightblue" stroke="midnightblue" points="646.74,-383.35 652.33,-392.35 653.58,-381.83 646.74,-383.35"/>
</g>
<!-- Node23 -->
<g id="node23" class="node">
<title>Node23</title>
<g id="a_node23"><a xlink:href="_combat_2_shadow_8h.html" target="_top" xlink:title=" ">
<polygon fill="none" stroke="black" points="799.5,-224.5 799.5,-243.5 858.5,-243.5 858.5,-224.5 799.5,-224.5"/>
<text text-anchor="middle" x="829" y="-231.5" font-family="Helvetica,sans-Serif" font-size="10.00">Shadow.h</text>
</a>
</g>
</g>
<!-- Node1&#45;&gt;Node23 -->
<g id="edge51" class="edge">
<title>Node1&#45;&gt;Node23</title>
<path fill="none" stroke="midnightblue" d="M696.59,-389.27C717.52,-382.05 742.2,-371.21 761,-356 799.4,-324.93 819.91,-266.03 826.55,-243.79"/>
<polygon fill="midnightblue" stroke="midnightblue" points="695.38,-385.99 686.97,-392.43 697.57,-392.64 695.38,-385.99"/>
</g>
<!-- Node25 -->
<g id="node25" class="node">
<title>Node25</title>
<g id="a_node25"><a xlink:href="_inventory_8h.html" target="_top" xlink:title=" ">
<polygon fill="none" stroke="black" points="961.5,-336.5 961.5,-355.5 1024.5,-355.5 1024.5,-336.5 961.5,-336.5"/>
<text text-anchor="middle" x="993" y="-343.5" font-family="Helvetica,sans-Serif" font-size="10.00">Inventory.h</text>
</a>
</g>
</g>
<!-- Node1&#45;&gt;Node25 -->
<g id="edge36" class="edge">
<title>Node1&#45;&gt;Node25</title>
<path fill="none" stroke="midnightblue" d="M700.56,-394.45C758.44,-386.17 860.19,-371.15 947,-356 951.65,-355.19 956.55,-354.28 961.36,-353.37"/>
<polygon fill="midnightblue" stroke="midnightblue" points="700.03,-390.99 690.62,-395.87 701.02,-397.92 700.03,-390.99"/>
</g>
<!-- Node27 -->
<g id="node27" class="node">
<title>Node27</title>
<g id="a_node27"><a xlink:href="_enemy_01_overworld_01_sprites_2_mumy_8h.html" target="_top" xlink:title=" ">
<polygon fill="none" stroke="black" points="1096,-336.5 1096,-355.5 1148,-355.5 1148,-336.5 1096,-336.5"/>
<text text-anchor="middle" x="1122" y="-343.5" font-family="Helvetica,sans-Serif" font-size="10.00">Mumy.h</text>
</a>
</g>
</g>
<!-- Node1&#45;&gt;Node27 -->
<g id="edge41" class="edge">
<title>Node1&#45;&gt;Node27</title>
<path fill="none" stroke="midnightblue" d="M700.87,-395.59C798.33,-384.35 1020.1,-358.76 1095.98,-350"/>
<polygon fill="midnightblue" stroke="midnightblue" points="700.26,-392.14 690.72,-396.76 701.06,-399.09 700.26,-392.14"/>
</g>
<!-- Node29 -->
<g id="node29" class="node">
<title>Node29</title>
<g id="a_node29"><a xlink:href="_enemy_01_overworld_01_sprites_2_pharaoh_8h.html" target="_top" xlink:title=" ">
<polygon fill="none" stroke="black" points="1188.5,-336.5 1188.5,-355.5 1249.5,-355.5 1249.5,-336.5 1188.5,-336.5"/>
<text text-anchor="middle" x="1219" y="-343.5" font-family="Helvetica,sans-Serif" font-size="10.00">Pharaoh.h</text>
</a>
</g>
</g>
<!-- Node1&#45;&gt;Node29 -->
<g id="edge46" class="edge">
<title>Node1&#45;&gt;Node29</title>
<path fill="none" stroke="midnightblue" d="M700.71,-397.68C789.67,-391.17 989.48,-375.64 1157,-356 1167.26,-354.8 1178.45,-353.25 1188.45,-351.77"/>
<polygon fill="midnightblue" stroke="midnightblue" points="700.4,-394.2 690.68,-398.41 700.9,-401.18 700.4,-394.2"/>
</g>
<!-- Node31 -->
<g id="node31" class="node">
<title>Node31</title>
<g id="a_node31"><a xlink:href="_enemy_01_overworld_01_sprites_2_shadow_8h.html" target="_top" xlink:title=" ">
<polygon fill="none" stroke="black" points="1342.5,-336.5 1342.5,-355.5 1401.5,-355.5 1401.5,-336.5 1342.5,-336.5"/>
<text text-anchor="middle" x="1372" y="-343.5" font-family="Helvetica,sans-Serif" font-size="10.00">Shadow.h</text>
</a>
</g>
</g>
<!-- Node1&#45;&gt;Node31 -->
<g id="edge52" class="edge">
<title>Node1&#45;&gt;Node31</title>
<path fill="none" stroke="midnightblue" d="M701.08,-397.58C802.89,-390.17 1051.08,-372.01 1259,-356 1287.26,-353.82 1319.48,-351.25 1342.26,-349.41"/>
<polygon fill="midnightblue" stroke="midnightblue" points="700.55,-394.11 690.83,-398.33 701.06,-401.09 700.55,-394.11"/>
</g>
<!-- Node33 -->
<g id="node33" class="node">
<title>Node33</title>
<g id="a_node33"><a xlink:href="_sprite_8h.html" target="_top" xlink:title=" ">
<polygon fill="none" stroke="black" points="553,-336.5 553,-355.5 603,-355.5 603,-336.5 553,-336.5"/>
<text text-anchor="middle" x="578" y="-343.5" font-family="Helvetica,sans-Serif" font-size="10.00">Sprite.h</text>
</a>
</g>
</g>
<!-- Node1&#45;&gt;Node33 -->
<g id="edge55" class="edge">
<title>Node1&#45;&gt;Node33</title>
<path fill="none" stroke="midnightblue" d="M633.42,-386.38C619.69,-376.62 602.07,-364.11 590.43,-355.83"/>
<polygon fill="midnightblue" stroke="midnightblue" points="631.61,-389.38 641.79,-392.32 635.66,-383.68 631.61,-389.38"/>
</g>
<!-- Node35 -->
<g id="node35" class="node">
<title>Node35</title>
<g id="a_node35"><a xlink:href="_u_i_8h.html" target="_top" xlink:title=" ">
<polygon fill="none" stroke="black" points="877,-224.5 877,-243.5 911,-243.5 911,-224.5 877,-224.5"/>
<text text-anchor="middle" x="894" y="-231.5" font-family="Helvetica,sans-Serif" font-size="10.00">UI.h</text>
</a>
</g>
</g>
<!-- Node1&#45;&gt;Node35 -->
<g id="edge62" class="edge">
<title>Node1&#45;&gt;Node35</title>
<path fill="none" stroke="midnightblue" d="M700.44,-391.18C726.73,-384.17 759.39,-372.94 785,-356 833.35,-324.03 874.16,-265.67 888.5,-243.69"/>
<polygon fill="midnightblue" stroke="midnightblue" points="699.52,-387.8 690.7,-393.66 701.25,-394.59 699.52,-387.8"/>
</g>
<!-- Node3 -->
<g id="node3" class="node">
<title>Node3</title>
<g id="a_node3"><a xlink:href="_collision_8cpp.html" target="_top" xlink:title=" ">
<polygon fill="none" stroke="black" points="124,-56.5 124,-75.5 196,-75.5 196,-56.5 124,-56.5"/>
<text text-anchor="middle" x="160" y="-63.5" font-family="Helvetica,sans-Serif" font-size="10.00">Collision.cpp</text>
</a>
</g>
</g>
<!-- Node2&#45;&gt;Node3 -->
<g id="edge2" class="edge">
<title>Node2&#45;&gt;Node3</title>
<path fill="none" stroke="midnightblue" d="M144.8,-102.69C148.68,-93.59 153.18,-83.01 156.27,-75.75"/>
<polygon fill="midnightblue" stroke="midnightblue" points="141.5,-101.51 140.8,-112.08 147.94,-104.25 141.5,-101.51"/>
</g>
<!-- Node2&#45;&gt;Node4 -->
<g id="edge3" class="edge">
<title>Node2&#45;&gt;Node4</title>
<path fill="none" stroke="midnightblue" d="M120.11,-105.54C109.59,-95.91 96.43,-83.87 87.65,-75.83"/>
<polygon fill="midnightblue" stroke="midnightblue" points="117.78,-108.15 127.52,-112.32 122.51,-102.99 117.78,-108.15"/>
</g>
<!-- Node5 -->
<g id="node5" class="node">
<title>Node5</title>
<g id="a_node5"><a xlink:href="_puzzle_8cpp.html" target="_top" xlink:title=" ">
<polygon fill="none" stroke="black" points="45.5,-0.5 45.5,-19.5 110.5,-19.5 110.5,-0.5 45.5,-0.5"/>
<text text-anchor="middle" x="78" y="-7.5" font-family="Helvetica,sans-Serif" font-size="10.00">Puzzle.cpp</text>
</a>
</g>
</g>
<!-- Node4&#45;&gt;Node5 -->
<g id="edge4" class="edge">
<title>Node4&#45;&gt;Node5</title>
<path fill="none" stroke="midnightblue" d="M78,-45.8C78,-36.91 78,-26.78 78,-19.75"/>
<polygon fill="midnightblue" stroke="midnightblue" points="74.5,-46.08 78,-56.08 81.5,-46.08 74.5,-46.08"/>
</g>
<!-- Node4&#45;&gt;Node6 -->
<g id="edge5" class="edge">
<title>Node4&#45;&gt;Node6</title>
<path fill="none" stroke="midnightblue" d="M115.97,-56.15C391.67,-15.21 714.9,-11.24 810.86,-10.97"/>
<polygon fill="midnightblue" stroke="midnightblue" points="115.14,-52.74 105.78,-57.69 116.19,-59.66 115.14,-52.74"/>
</g>
<!-- Node8 -->
<g id="node8" class="node">
<title>Node8</title>
<g id="a_node8"><a xlink:href="_endscreen_8cpp.html" target="_top" xlink:title=" ">
<polygon fill="none" stroke="black" points="104,-280.5 104,-299.5 186,-299.5 186,-280.5 104,-280.5"/>
<text text-anchor="middle" x="145" y="-287.5" font-family="Helvetica,sans-Serif" font-size="10.00">Endscreen.cpp</text>
</a>
</g>
</g>
<!-- Node7&#45;&gt;Node8 -->
<g id="edge7" class="edge">
<title>Node7&#45;&gt;Node8</title>
<path fill="none" stroke="midnightblue" d="M194.96,-330.1C182.54,-320.38 166.76,-308.03 156.29,-299.83"/>
<polygon fill="midnightblue" stroke="midnightblue" points="192.88,-332.92 202.91,-336.32 197.2,-327.4 192.88,-332.92"/>
</g>
<!-- Node7&#45;&gt;Node9 -->
<g id="edge8" class="edge">
<title>Node7&#45;&gt;Node9</title>
<path fill="none" stroke="midnightblue" d="M208.84,-326.38C200.22,-294.4 184.43,-231.72 191,-224 223.39,-185.94 364.16,-198.59 413,-188 416.02,-187.35 419.17,-186.59 422.28,-185.79"/>
<polygon fill="midnightblue" stroke="midnightblue" points="205.53,-327.55 211.54,-336.27 212.28,-325.7 205.53,-327.55"/>
</g>
<!-- Node9&#45;&gt;Node2 -->
<g id="edge9" class="edge">
<title>Node9&#45;&gt;Node2</title>
<path fill="none" stroke="midnightblue" d="M412.28,-168.05C317.85,-147.86 217.86,-133.61 168.24,-127.01"/>
<polygon fill="midnightblue" stroke="midnightblue" points="411.77,-171.52 422.28,-170.21 413.25,-164.68 411.77,-171.52"/>
</g>
<!-- Node9&#45;&gt;Node6 -->
<g id="edge11" class="edge">
<title>Node9&#45;&gt;Node6</title>
<path fill="none" stroke="midnightblue" d="M426.01,-161.96C411.42,-149.04 395.69,-129.75 405,-112 425.32,-73.24 445.13,-71.66 486,-56 600.52,-12.13 749.68,-9.24 810.91,-10.15"/>
<polygon fill="midnightblue" stroke="midnightblue" points="423.89,-164.75 433.83,-168.43 428.36,-159.36 423.89,-164.75"/>
</g>
<!-- Node10 -->
<g id="node10" class="node">
<title>Node10</title>
<g id="a_node10"><a xlink:href="_level_8cpp.html" target="_top" xlink:title=" ">
<polygon fill="none" stroke="black" points="414.5,-112.5 414.5,-131.5 471.5,-131.5 471.5,-112.5 414.5,-112.5"/>
<text text-anchor="middle" x="443" y="-119.5" font-family="Helvetica,sans-Serif" font-size="10.00">Level.cpp</text>
</a>
</g>
</g>
<!-- Node9&#45;&gt;Node10 -->
<g id="edge10" class="edge">
<title>Node9&#45;&gt;Node10</title>
<path fill="none" stroke="midnightblue" d="M444.93,-157.8C444.44,-148.91 443.88,-138.78 443.49,-131.75"/>
<polygon fill="midnightblue" stroke="midnightblue" points="441.46,-158.29 445.5,-168.08 448.44,-157.9 441.46,-158.29"/>
</g>
<!-- Node11&#45;&gt;Node1 -->
<g id="edge14" class="edge">
<title>Node11&#45;&gt;Node1</title>
<path fill="none" stroke="midnightblue" d="M295.71,-308.05C306.48,-323.29 321.47,-344.88 341,-356 388.03,-382.77 545.26,-394.68 617.44,-398.98"/>
<polygon fill="midnightblue" stroke="midnightblue" points="298.54,-306 289.85,-299.94 292.86,-310.1 298.54,-306"/>
</g>
<!-- Node11&#45;&gt;Node6 -->
<g id="edge21" class="edge">
<title>Node11&#45;&gt;Node6</title>
<path fill="none" stroke="midnightblue" d="M289.06,-271.34C299.13,-250.03 314,-212.84 314,-179 314,-179 314,-179 314,-121 314,-18.56 701.73,-10.95 810.77,-10.84"/>
<polygon fill="midnightblue" stroke="midnightblue" points="285.86,-269.92 284.59,-280.44 292.14,-273.01 285.86,-269.92"/>
</g>
<!-- Node12 -->
<g id="node12" class="node">
<title>Node12</title>
<g id="a_node12"><a xlink:href="_game_audio_8cpp.html" target="_top" xlink:title=" ">
<polygon fill="none" stroke="black" points="200,-224.5 200,-243.5 286,-243.5 286,-224.5 200,-224.5"/>
<text text-anchor="middle" x="243" y="-231.5" font-family="Helvetica,sans-Serif" font-size="10.00">GameAudio.cpp</text>
</a>
</g>
</g>
<!-- Node11&#45;&gt;Node12 -->
<g id="edge13" class="edge">
<title>Node11&#45;&gt;Node12</title>
<path fill="none" stroke="midnightblue" d="M268.05,-271.57C261.69,-262.27 254.13,-251.25 249,-243.75"/>
<polygon fill="midnightblue" stroke="midnightblue" points="265.35,-273.81 273.89,-280.08 271.13,-269.86 265.35,-273.81"/>
</g>
<!-- Node11&#45;&gt;Node13 -->
<g id="edge15" class="edge">
<title>Node11&#45;&gt;Node13</title>
<path fill="none" stroke="midnightblue" d="M244.7,-277.16C214.29,-266.96 171.14,-252.49 144.13,-243.43"/>
<polygon fill="midnightblue" stroke="midnightblue" points="243.9,-280.58 254.49,-280.44 246.12,-273.95 243.9,-280.58"/>
</g>
<!-- Node13&#45;&gt;Node2 -->
<g id="edge16" class="edge">
<title>Node13&#45;&gt;Node2</title>
<path fill="none" stroke="midnightblue" d="M122.05,-214.35C125.99,-190.25 132.7,-149.31 135.59,-131.59"/>
<polygon fill="midnightblue" stroke="midnightblue" points="118.57,-213.93 120.41,-224.37 125.48,-215.06 118.57,-213.93"/>
</g>
<!-- Node13&#45;&gt;Node4 -->
<g id="edge19" class="edge">
<title>Node13&#45;&gt;Node4</title>
<path fill="none" stroke="midnightblue" d="M114.29,-213.93C105.4,-177.92 86.45,-101.23 80.12,-75.57"/>
<polygon fill="midnightblue" stroke="midnightblue" points="111,-215.21 116.8,-224.08 117.8,-213.53 111,-215.21"/>
</g>
<!-- Node13&#45;&gt;Node6 -->
<g id="edge20" class="edge">
<title>Node13&#45;&gt;Node6</title>
<path fill="none" stroke="midnightblue" d="M153.94,-222.55C174.03,-215.26 198.82,-203.95 217,-188 269.1,-142.31 240.79,-92.01 300,-56 343.88,-29.32 706.32,-15.38 810.87,-11.89"/>
<polygon fill="midnightblue" stroke="midnightblue" points="152.52,-219.34 144.21,-225.91 154.8,-225.95 152.52,-219.34"/>
</g>
<!-- Node13&#45;&gt;Node9 -->
<g id="edge17" class="edge">
<title>Node13&#45;&gt;Node9</title>
<path fill="none" stroke="midnightblue" d="M154.14,-224.74C155.44,-224.48 156.73,-224.24 158,-224 270.54,-203.11 300.9,-211.1 413,-188 416.02,-187.38 419.18,-186.64 422.29,-185.85"/>
<polygon fill="midnightblue" stroke="midnightblue" points="153.17,-221.37 144.11,-226.87 154.62,-228.22 153.17,-221.37"/>
</g>
<!-- Node14 -->
<g id="node14" class="node">
<title>Node14</title>
<g id="a_node14"><a xlink:href="_nemo_8cpp.html" target="_top" xlink:title=" ">
<polygon fill="none" stroke="black" points="147.5,-168.5 147.5,-187.5 208.5,-187.5 208.5,-168.5 147.5,-168.5"/>
<text text-anchor="middle" x="178" y="-175.5" font-family="Helvetica,sans-Serif" font-size="10.00">Nemo.cpp</text>
</a>
</g>
</g>
<!-- Node13&#45;&gt;Node14 -->
<g id="edge18" class="edge">
<title>Node13&#45;&gt;Node14</title>
<path fill="none" stroke="midnightblue" d="M135.89,-217.54C146.41,-207.91 159.57,-195.87 168.35,-187.83"/>
<polygon fill="midnightblue" stroke="midnightblue" points="133.49,-214.99 128.48,-224.32 138.22,-220.15 133.49,-214.99"/>
</g>
<!-- Node16 -->
<g id="node16" class="node">
<title>Node16</title>
<g id="a_node16"><a xlink:href="_game_character_8cpp.html" target="_top" xlink:title=" ">
<polygon fill="none" stroke="black" points="598,-224.5 598,-243.5 702,-243.5 702,-224.5 598,-224.5"/>
<text text-anchor="middle" x="650" y="-231.5" font-family="Helvetica,sans-Serif" font-size="10.00">GameCharacter.cpp</text>
</a>
</g>
</g>
<!-- Node15&#45;&gt;Node16 -->
<g id="edge23" class="edge">
<title>Node15&#45;&gt;Node16</title>
<path fill="none" stroke="midnightblue" d="M707.97,-274.62C693.53,-264.76 674.86,-251.99 662.66,-243.65"/>
<polygon fill="midnightblue" stroke="midnightblue" points="706.08,-277.57 716.31,-280.32 710.03,-271.79 706.08,-277.57"/>
</g>
<!-- Node15&#45;&gt;Node17 -->
<g id="edge24" class="edge">
<title>Node15&#45;&gt;Node17</title>
<path fill="none" stroke="midnightblue" d="M672.33,-279.53C601.84,-267.74 484.42,-248.11 432.31,-239.4"/>
<polygon fill="midnightblue" stroke="midnightblue" points="671.94,-283.01 682.38,-281.21 673.09,-276.1 671.94,-283.01"/>
</g>
<!-- Node15&#45;&gt;Node19 -->
<g id="edge27" class="edge">
<title>Node15&#45;&gt;Node19</title>
<path fill="none" stroke="midnightblue" d="M736.46,-270.69C740.17,-261.59 744.48,-251.01 747.43,-243.75"/>
<polygon fill="midnightblue" stroke="midnightblue" points="733.16,-269.5 732.63,-280.08 739.65,-272.14 733.16,-269.5"/>
</g>
<!-- Node15&#45;&gt;Node21 -->
<g id="edge30" class="edge">
<title>Node15&#45;&gt;Node21</title>
<path fill="none" stroke="midnightblue" d="M691.19,-277.4C657.58,-267.09 609.3,-252.27 579.61,-243.16"/>
<polygon fill="midnightblue" stroke="midnightblue" points="690.53,-280.86 701.11,-280.44 692.58,-274.16 690.53,-280.86"/>
</g>
<!-- Node15&#45;&gt;Node23 -->
<g id="edge33" class="edge">
<title>Node15&#45;&gt;Node23</title>
<path fill="none" stroke="midnightblue" d="M754.09,-275.45C772.55,-265.48 797.1,-252.23 812.97,-243.65"/>
<polygon fill="midnightblue" stroke="midnightblue" points="752.2,-272.49 745.07,-280.32 755.53,-278.65 752.2,-272.49"/>
</g>
<!-- Node17&#45;&gt;Node9 -->
<g id="edge25" class="edge">
<title>Node17&#45;&gt;Node9</title>
<path fill="none" stroke="midnightblue" d="M418.7,-215.86C425.63,-206.5 433.91,-195.33 439.52,-187.75"/>
<polygon fill="midnightblue" stroke="midnightblue" points="415.75,-213.96 412.61,-224.08 421.37,-218.13 415.75,-213.96"/>
</g>
<!-- Node18 -->
<g id="node18" class="node">
<title>Node18</title>
<g id="a_node18"><a xlink:href="_combat_2_mumy_8cpp.html" target="_top" xlink:title=" ">
<polygon fill="none" stroke="black" points="342,-168.5 342,-187.5 404,-187.5 404,-168.5 342,-168.5"/>
<text text-anchor="middle" x="373" y="-175.5" font-family="Helvetica,sans-Serif" font-size="10.00">Mumy.cpp</text>
</a>
</g>
</g>
<!-- Node17&#45;&gt;Node18 -->
<g id="edge26" class="edge">
<title>Node17&#45;&gt;Node18</title>
<path fill="none" stroke="midnightblue" d="M395.17,-215.27C389.53,-206.05 382.88,-195.17 378.35,-187.75"/>
<polygon fill="midnightblue" stroke="midnightblue" points="392.35,-217.38 400.55,-224.08 398.32,-213.73 392.35,-217.38"/>
</g>
<!-- Node19&#45;&gt;Node9 -->
<g id="edge28" class="edge">
<title>Node19&#45;&gt;Node9</title>
<path fill="none" stroke="midnightblue" d="M710.38,-223.97C615.23,-205.39 514.75,-189.51 469.83,-182.61"/>
<polygon fill="midnightblue" stroke="midnightblue" points="709.97,-227.46 720.46,-225.95 711.32,-220.59 709.97,-227.46"/>
</g>
<!-- Node20 -->
<g id="node20" class="node">
<title>Node20</title>
<g id="a_node20"><a xlink:href="_combat_2_pharaoh_8cpp.html" target="_top" xlink:title=" ">
<polygon fill="none" stroke="black" points="651.5,-168.5 651.5,-187.5 722.5,-187.5 722.5,-168.5 651.5,-168.5"/>
<text text-anchor="middle" x="687" y="-175.5" font-family="Helvetica,sans-Serif" font-size="10.00">Pharaoh.cpp</text>
</a>
</g>
</g>
<!-- Node19&#45;&gt;Node20 -->
<g id="edge29" class="edge">
<title>Node19&#45;&gt;Node20</title>
<path fill="none" stroke="midnightblue" d="M733.01,-217.82C721.54,-208.15 707.09,-195.95 697.47,-187.83"/>
<polygon fill="midnightblue" stroke="midnightblue" points="730.82,-220.55 740.72,-224.32 735.33,-215.2 730.82,-220.55"/>
</g>
<!-- Node21&#45;&gt;Node9 -->
<g id="edge31" class="edge">
<title>Node21&#45;&gt;Node9</title>
<path fill="none" stroke="midnightblue" d="M526.7,-219.73C506.89,-209.73 480.29,-196.31 463.15,-187.65"/>
<polygon fill="midnightblue" stroke="midnightblue" points="525.3,-222.94 535.81,-224.32 528.46,-216.69 525.3,-222.94"/>
</g>
<!-- Node22 -->
<g id="node22" class="node">
<title>Node22</title>
<g id="a_node22"><a xlink:href="_player_8cpp.html" target="_top" xlink:title=" ">
<polygon fill="none" stroke="black" points="526.5,-168.5 526.5,-187.5 589.5,-187.5 589.5,-168.5 526.5,-168.5"/>
<text text-anchor="middle" x="558" y="-175.5" font-family="Helvetica,sans-Serif" font-size="10.00">Player.cpp</text>
</a>
</g>
</g>
<!-- Node21&#45;&gt;Node22 -->
<g id="edge32" class="edge">
<title>Node21&#45;&gt;Node22</title>
<path fill="none" stroke="midnightblue" d="M554.75,-214.1C555.58,-205.14 556.53,-194.86 557.19,-187.75"/>
<polygon fill="midnightblue" stroke="midnightblue" points="551.26,-213.8 553.83,-224.08 558.23,-214.45 551.26,-213.8"/>
</g>
<!-- Node23&#45;&gt;Node9 -->
<g id="edge34" class="edge">
<title>Node23&#45;&gt;Node9</title>
<path fill="none" stroke="midnightblue" d="M789.15,-224.2C737.59,-216.44 538.78,-190.89 469.72,-182.04"/>
<polygon fill="midnightblue" stroke="midnightblue" points="788.82,-227.69 799.25,-225.82 789.93,-220.78 788.82,-227.69"/>
</g>
<!-- Node24 -->
<g id="node24" class="node">
<title>Node24</title>
<g id="a_node24"><a xlink:href="_combat_2_shadow_8cpp.html" target="_top" xlink:title=" ">
<polygon fill="none" stroke="black" points="741,-168.5 741,-187.5 811,-187.5 811,-168.5 741,-168.5"/>
<text text-anchor="middle" x="776" y="-175.5" font-family="Helvetica,sans-Serif" font-size="10.00">Shadow.cpp</text>
</a>
</g>
</g>
<!-- Node23&#45;&gt;Node24 -->
<g id="edge35" class="edge">
<title>Node23&#45;&gt;Node24</title>
<path fill="none" stroke="midnightblue" d="M813.02,-216.72C803.68,-207.2 792.25,-195.56 784.59,-187.75"/>
<polygon fill="midnightblue" stroke="midnightblue" points="810.75,-219.4 820.25,-224.08 815.74,-214.49 810.75,-219.4"/>
</g>
<!-- Node25&#45;&gt;Node6 -->
<g id="edge38" class="edge">
<title>Node25&#45;&gt;Node6</title>
<path fill="none" stroke="midnightblue" d="M990.01,-326.3C985.39,-295.62 977,-232.66 977,-179 977,-179 977,-179 977,-121 977,-90.2 974.53,-78.02 953,-56 929.94,-32.42 893.01,-20.9 867.46,-15.48"/>
<polygon fill="midnightblue" stroke="midnightblue" points="986.59,-327.04 991.58,-336.39 993.51,-325.97 986.59,-327.04"/>
</g>
<!-- Node26 -->
<g id="node26" class="node">
<title>Node26</title>
<g id="a_node26"><a xlink:href="_inventory_8cpp.html" target="_top" xlink:title=" ">
<polygon fill="none" stroke="black" points="999,-280.5 999,-299.5 1073,-299.5 1073,-280.5 999,-280.5"/>
<text text-anchor="middle" x="1036" y="-287.5" font-family="Helvetica,sans-Serif" font-size="10.00">Inventory.cpp</text>
</a>
</g>
</g>
<!-- Node25&#45;&gt;Node26 -->
<g id="edge37" class="edge">
<title>Node25&#45;&gt;Node26</title>
<path fill="none" stroke="midnightblue" d="M1006.42,-328.14C1013.91,-318.74 1022.94,-307.4 1029.03,-299.75"/>
<polygon fill="midnightblue" stroke="midnightblue" points="1003.59,-326.08 1000.1,-336.08 1009.07,-330.44 1003.59,-326.08"/>
</g>
<!-- Node27&#45;&gt;Node6 -->
<g id="edge43" class="edge">
<title>Node27&#45;&gt;Node6</title>
<path fill="none" stroke="midnightblue" d="M1139.33,-329.07C1147.21,-321.02 1156.08,-310.7 1162,-300 1176.58,-273.67 1181,-265.1 1181,-235 1181,-235 1181,-235 1181,-121 1181,-55.28 949.22,-23.22 867.28,-13.94"/>
<polygon fill="midnightblue" stroke="midnightblue" points="1136.64,-326.81 1131.93,-336.3 1141.53,-331.82 1136.64,-326.81"/>
</g>
<!-- Node28 -->
<g id="node28" class="node">
<title>Node28</title>
<g id="a_node28"><a xlink:href="_enemy_01_overworld_01_sprites_2_mumy_8cpp.html" target="_top" xlink:title=" ">
<polygon fill="none" stroke="black" points="1091,-280.5 1091,-299.5 1153,-299.5 1153,-280.5 1091,-280.5"/>
<text text-anchor="middle" x="1122" y="-287.5" font-family="Helvetica,sans-Serif" font-size="10.00">Mumy.cpp</text>
</a>
</g>
</g>
<!-- Node27&#45;&gt;Node28 -->
<g id="edge42" class="edge">
<title>Node27&#45;&gt;Node28</title>
<path fill="none" stroke="midnightblue" d="M1122,-325.8C1122,-316.91 1122,-306.78 1122,-299.75"/>
<polygon fill="midnightblue" stroke="midnightblue" points="1118.5,-326.08 1122,-336.08 1125.5,-326.08 1118.5,-326.08"/>
</g>
<!-- Node29&#45;&gt;Node6 -->
<g id="edge48" class="edge">
<title>Node29&#45;&gt;Node6</title>
<path fill="none" stroke="midnightblue" d="M1219,-326.25C1219,-304.36 1219,-267.05 1219,-235 1219,-235 1219,-235 1219,-121 1219,-47.77 955.32,-20.21 867.25,-13.05"/>
<polygon fill="midnightblue" stroke="midnightblue" points="1215.5,-326.44 1219,-336.44 1222.5,-326.44 1215.5,-326.44"/>
</g>
<!-- Node30 -->
<g id="node30" class="node">
<title>Node30</title>
<g id="a_node30"><a xlink:href="_enemy_01_overworld_01_sprites_2_pharaoh_8cpp.html" target="_top" xlink:title=" ">
<polygon fill="none" stroke="black" points="1247.5,-280.5 1247.5,-299.5 1318.5,-299.5 1318.5,-280.5 1247.5,-280.5"/>
<text text-anchor="middle" x="1283" y="-287.5" font-family="Helvetica,sans-Serif" font-size="10.00">Pharaoh.cpp</text>
</a>
</g>
</g>
<!-- Node29&#45;&gt;Node30 -->
<g id="edge47" class="edge">
<title>Node29&#45;&gt;Node30</title>
<path fill="none" stroke="midnightblue" d="M1236.99,-329.82C1248.46,-320.15 1262.91,-307.95 1272.53,-299.83"/>
<polygon fill="midnightblue" stroke="midnightblue" points="1234.67,-327.2 1229.28,-336.32 1239.18,-332.55 1234.67,-327.2"/>
</g>
<!-- Node31&#45;&gt;Node6 -->
<g id="edge54" class="edge">
<title>Node31&#45;&gt;Node6</title>
<path fill="none" stroke="midnightblue" d="M1390.92,-329.55C1399.65,-321.54 1409.5,-311.12 1416,-300 1431.2,-274.02 1435,-265.1 1435,-235 1435,-235 1435,-235 1435,-121 1435,-62.54 985.79,-22.68 867.35,-13.18"/>
<polygon fill="midnightblue" stroke="midnightblue" points="1388.57,-326.96 1383.34,-336.18 1393.17,-332.23 1388.57,-326.96"/>
</g>
<!-- Node32 -->
<g id="node32" class="node">
<title>Node32</title>
<g id="a_node32"><a xlink:href="_enemy_01_overworld_01_sprites_2_shadow_8cpp.html" target="_top" xlink:title=" ">
<polygon fill="none" stroke="black" points="1337,-280.5 1337,-299.5 1407,-299.5 1407,-280.5 1337,-280.5"/>
<text text-anchor="middle" x="1372" y="-287.5" font-family="Helvetica,sans-Serif" font-size="10.00">Shadow.cpp</text>
</a>
</g>
</g>
<!-- Node31&#45;&gt;Node32 -->
<g id="edge53" class="edge">
<title>Node31&#45;&gt;Node32</title>
<path fill="none" stroke="midnightblue" d="M1372,-325.8C1372,-316.91 1372,-306.78 1372,-299.75"/>
<polygon fill="midnightblue" stroke="midnightblue" points="1368.5,-326.08 1372,-336.08 1375.5,-326.08 1368.5,-326.08"/>
</g>
<!-- Node33&#45;&gt;Node6 -->
<g id="edge61" class="edge">
<title>Node33&#45;&gt;Node6</title>
<path fill="none" stroke="midnightblue" d="M575.06,-326.24C572.28,-312.58 567.12,-294.09 558,-280 544.82,-259.64 527,-266.09 517,-244 503.07,-213.23 499.1,-196.64 517,-168 583.58,-61.46 745.57,-25.3 810.95,-14.79"/>
<polygon fill="midnightblue" stroke="midnightblue" points="571.67,-327.14 576.88,-336.37 578.56,-325.91 571.67,-327.14"/>
</g>
<!-- Node33&#45;&gt;Node9 -->
<g id="edge57" class="edge">
<title>Node33&#45;&gt;Node9</title>
<path fill="none" stroke="midnightblue" d="M543.06,-337.18C521.68,-330.66 495.38,-319.24 479,-300 450.21,-266.18 446.35,-209.42 445.97,-187.76"/>
<polygon fill="midnightblue" stroke="midnightblue" points="542.21,-340.58 552.79,-339.92 544.11,-333.84 542.21,-340.58"/>
</g>
<!-- Node33&#45;&gt;Node13 -->
<g id="edge58" class="edge">
<title>Node33&#45;&gt;Node13</title>
<path fill="none" stroke="midnightblue" d="M543.12,-335.49C494.75,-322.42 404.48,-298.41 327,-280 261.22,-264.37 183.2,-248.09 144.05,-240.08"/>
<polygon fill="midnightblue" stroke="midnightblue" points="542.22,-338.88 552.79,-338.11 544.05,-332.12 542.22,-338.88"/>
</g>
<!-- Node33&#45;&gt;Node15 -->
<g id="edge56" class="edge">
<title>Node33&#45;&gt;Node15</title>
<path fill="none" stroke="midnightblue" d="M611.45,-333.04C639.86,-322.88 679.94,-308.55 705.19,-299.52"/>
<polygon fill="midnightblue" stroke="midnightblue" points="610.16,-329.78 601.93,-336.44 612.52,-336.37 610.16,-329.78"/>
</g>
<!-- Node33&#45;&gt;Node21 -->
<g id="edge59" class="edge">
<title>Node33&#45;&gt;Node21</title>
<path fill="none" stroke="midnightblue" d="M587.26,-326.96C592.79,-313.69 597.73,-295.36 592,-280 586.44,-265.08 573.45,-251.83 563.99,-243.63"/>
<polygon fill="midnightblue" stroke="midnightblue" points="583.93,-325.82 582.89,-336.36 590.28,-328.77 583.93,-325.82"/>
</g>
<!-- Node34 -->
<g id="node34" class="node">
<title>Node34</title>
<g id="a_node34"><a xlink:href="_sprite_8cpp.html" target="_top" xlink:title=" ">
<polygon fill="none" stroke="black" points="488.5,-280.5 488.5,-299.5 549.5,-299.5 549.5,-280.5 488.5,-280.5"/>
<text text-anchor="middle" x="519" y="-287.5" font-family="Helvetica,sans-Serif" font-size="10.00">Sprite.cpp</text>
</a>
</g>
</g>
<!-- Node33&#45;&gt;Node34 -->
<g id="edge60" class="edge">
<title>Node33&#45;&gt;Node34</title>
<path fill="none" stroke="midnightblue" d="M561.11,-329.54C550.59,-319.91 537.43,-307.87 528.65,-299.83"/>
<polygon fill="midnightblue" stroke="midnightblue" points="558.78,-332.15 568.52,-336.32 563.51,-326.99 558.78,-332.15"/>
</g>
<!-- Node35&#45;&gt;Node6 -->
<g id="edge65" class="edge">
<title>Node35&#45;&gt;Node6</title>
<path fill="none" stroke="midnightblue" d="M877.4,-216.93C870.2,-208.94 862.41,-198.71 858,-188 833.04,-127.42 836.39,-45.79 838.28,-19.52"/>
<polygon fill="midnightblue" stroke="midnightblue" points="875.09,-219.57 884.53,-224.37 880.14,-214.73 875.09,-219.57"/>
</g>
<!-- Node35&#45;&gt;Node9 -->
<g id="edge63" class="edge">
<title>Node35&#45;&gt;Node9</title>
<path fill="none" stroke="midnightblue" d="M867.3,-224.07C867.2,-224.04 867.1,-224.02 867,-224 714.13,-191.08 672.36,-205.83 517,-188 501.2,-186.19 483.45,-183.94 469.65,-182.14"/>
<polygon fill="midnightblue" stroke="midnightblue" points="866.16,-227.38 876.73,-226.62 867.99,-220.63 866.16,-227.38"/>
</g>
<!-- Node36 -->
<g id="node36" class="node">
<title>Node36</title>
<g id="a_node36"><a xlink:href="_u_i_8cpp.html" target="_top" xlink:title=" ">
<polygon fill="none" stroke="black" points="867,-168.5 867,-187.5 911,-187.5 911,-168.5 867,-168.5"/>
<text text-anchor="middle" x="889" y="-175.5" font-family="Helvetica,sans-Serif" font-size="10.00">UI.cpp</text>
</a>
</g>
</g>
<!-- Node35&#45;&gt;Node36 -->
<g id="edge64" class="edge">
<title>Node35&#45;&gt;Node36</title>
<path fill="none" stroke="midnightblue" d="M892.25,-214.1C891.42,-205.14 890.47,-194.86 889.81,-187.75"/>
<polygon fill="midnightblue" stroke="midnightblue" points="888.77,-214.45 893.17,-224.08 895.74,-213.8 888.77,-214.45"/>
</g>
</g>
</svg>
