<?xml version="1.0" encoding="UTF-8" standalone="no"?>
<!DOCTYPE svg PUBLIC "-//W3C//DTD SVG 1.1//EN"
 "http://www.w3.org/Graphics/SVG/1.1/DTD/svg11.dtd">
<!-- Generated by graphviz version 3.0.0 (20220226.1711)
 -->
<!-- Title: INCLUDES.h Pages: 1 -->
<svg width="1573pt" height="476pt"
 viewBox="0.00 0.00 1573.00 476.00" xmlns="http://www.w3.org/2000/svg" xmlns:xlink="http://www.w3.org/1999/xlink">
<g id="graph0" class="graph" transform="scale(1 1) rotate(0) translate(4 472)">
<title>INCLUDES.h</title>
<!-- Node1 -->
<g id="node1" class="node">
<title>Node1</title>
<g id="a_node1"><a xlink:title=" ">
<polygon fill="#bfbfbf" stroke="black" points="714.5,-448.5 714.5,-467.5 787.5,-467.5 787.5,-448.5 714.5,-448.5"/>
<text text-anchor="middle" x="751" y="-455.5" font-family="Helvetica,sans-Serif" font-size="10.00">INCLUDES.h</text>
</a>
</g>
</g>
<!-- Node2 -->
<g id="node2" class="node">
<title>Node2</title>
<g id="a_node2"><a xlink:href="_collision_8h.html" target="_top" xlink:title=" ">
<polygon fill="none" stroke="black" points="197,-112.5 197,-131.5 259,-131.5 259,-112.5 197,-112.5"/>
<text text-anchor="middle" x="228" y="-119.5" font-family="Helvetica,sans-Serif" font-size="10.00">Collision.h</text>
</a>
</g>
</g>
<!-- Node1&#45;&gt;Node2 -->
<g id="edge1" class="edge">
<title>Node1&#45;&gt;Node2</title>
<path fill="none" stroke="midnightblue" d="M704.04,-456.1C592.4,-453.46 314.03,-443.8 227,-412 179.98,-394.82 135,-397.06 135,-347 135,-347 135,-347 135,-289 135,-220.95 195.22,-154.93 218.74,-131.74"/>
<polygon fill="midnightblue" stroke="midnightblue" points="704.23,-459.61 714.31,-456.33 704.39,-452.61 704.23,-459.61"/>
</g>
<!-- Node4 -->
<g id="node4" class="node">
<title>Node4</title>
<g id="a_node4"><a xlink:href="_puzzle_8h.html" target="_top" xlink:title=" ">
<polygon fill="none" stroke="black" points="45.5,-56.5 45.5,-75.5 100.5,-75.5 100.5,-56.5 45.5,-56.5"/>
<text text-anchor="middle" x="73" y="-63.5" font-family="Helvetica,sans-Serif" font-size="10.00">Puzzle.h</text>
</a>
</g>
</g>
<!-- Node1&#45;&gt;Node4 -->
<g id="edge60" class="edge">
<title>Node1&#45;&gt;Node4</title>
<path fill="none" stroke="midnightblue" d="M704.29,-456.8C574.59,-455.77 212.19,-449.52 100,-412 49.73,-395.19 0,-400.01 0,-347 0,-347 0,-347 0,-177 0,-132.76 41.49,-92.71 61.91,-75.67"/>
<polygon fill="midnightblue" stroke="midnightblue" points="704.28,-460.3 714.31,-456.87 704.33,-453.3 704.28,-460.3"/>
</g>
<!-- Node6 -->
<g id="node6" class="node">
<title>Node6</title>
<g id="a_node6"><a xlink:href="main_8cpp.html" target="_top" xlink:title=" ">
<polygon fill="none" stroke="black" points="616,-0.5 616,-19.5 672,-19.5 672,-0.5 616,-0.5"/>
<text text-anchor="middle" x="644" y="-7.5" font-family="Helvetica,sans-Serif" font-size="10.00">main.cpp</text>
</a>
</g>
</g>
<!-- Node1&#45;&gt;Node6 -->
<g id="edge76" class="edge">
<title>Node1&#45;&gt;Node6</title>
<path fill="none" stroke="midnightblue" d="M797.74,-454.38C863.77,-449.78 979.9,-438.15 1012,-412 1094.91,-344.46 1072,-285.93 1072,-179 1072,-179 1072,-179 1072,-121 1072,-38.14 767.3,-16.8 672.08,-12.15"/>
<polygon fill="midnightblue" stroke="midnightblue" points="797.34,-450.9 787.6,-455.05 797.81,-457.88 797.34,-450.9"/>
</g>
<!-- Node7 -->
<g id="node7" class="node">
<title>Node7</title>
<g id="a_node7"><a xlink:href="_dialogue_8h.html" target="_top" xlink:title=" ">
<polygon fill="none" stroke="black" points="66,-168.5 66,-187.5 128,-187.5 128,-168.5 66,-168.5"/>
<text text-anchor="middle" x="97" y="-175.5" font-family="Helvetica,sans-Serif" font-size="10.00">Dialogue.h</text>
</a>
</g>
</g>
<!-- Node1&#45;&gt;Node7 -->
<g id="edge6" class="edge">
<title>Node1&#45;&gt;Node7</title>
<path fill="none" stroke="midnightblue" d="M704.22,-456.54C566.17,-454.8 167.3,-446.78 121,-412 96.38,-393.51 97,-377.8 97,-347 97,-347 97,-347 97,-289 97,-251.19 97,-206.06 97,-187.56"/>
<polygon fill="midnightblue" stroke="midnightblue" points="704.42,-460.05 714.46,-456.67 704.51,-453.05 704.42,-460.05"/>
</g>
<!-- Node9 -->
<g id="node9" class="node">
<title>Node9</title>
<g id="a_node9"><a xlink:href="_endscreen_8h.html" target="_top" xlink:title=" ">
<polygon fill="none" stroke="black" points="381.5,-392.5 381.5,-411.5 452.5,-411.5 452.5,-392.5 381.5,-392.5"/>
<text text-anchor="middle" x="417" y="-399.5" font-family="Helvetica,sans-Serif" font-size="10.00">Endscreen.h</text>
</a>
</g>
</g>
<!-- Node1&#45;&gt;Node9 -->
<g id="edge10" class="edge">
<title>Node1&#45;&gt;Node9</title>
<path fill="none" stroke="midnightblue" d="M704.17,-449.89C647.83,-441.26 550.41,-426.11 467,-412 462.39,-411.22 457.55,-410.38 452.76,-409.53"/>
<polygon fill="midnightblue" stroke="midnightblue" points="703.78,-453.37 714.2,-451.42 704.84,-446.45 703.78,-453.37"/>
</g>
<!-- Node11 -->
<g id="node11" class="node">
<title>Node11</title>
<g id="a_node11"><a xlink:href="_level_8h.html" target="_top" xlink:title=" ">
<polygon fill="none" stroke="black" points="494.5,-224.5 494.5,-243.5 541.5,-243.5 541.5,-224.5 494.5,-224.5"/>
<text text-anchor="middle" x="518" y="-231.5" font-family="Helvetica,sans-Serif" font-size="10.00">Level.h</text>
</a>
</g>
</g>
<!-- Node1&#45;&gt;Node11 -->
<g id="edge48" class="edge">
<title>Node1&#45;&gt;Node11</title>
<path fill="none" stroke="midnightblue" d="M704.67,-446.51C678.54,-439.3 646.03,-428.09 620,-412 565.92,-378.57 553.29,-359.54 531,-300 523.74,-280.6 520.26,-256.35 518.84,-243.66"/>
<polygon fill="midnightblue" stroke="midnightblue" points="703.78,-449.9 714.34,-449.08 705.58,-443.13 703.78,-449.9"/>
</g>
<!-- Node13 -->
<g id="node13" class="node">
<title>Node13</title>
<g id="a_node13"><a xlink:href="_map_8h.html" target="_top" xlink:title=" ">
<polygon fill="none" stroke="black" points="628,-168.5 628,-187.5 672,-187.5 672,-168.5 628,-168.5"/>
<text text-anchor="middle" x="650" y="-175.5" font-family="Helvetica,sans-Serif" font-size="10.00">Map.h</text>
</a>
</g>
</g>
<!-- Node1&#45;&gt;Node13 -->
<g id="edge49" class="edge">
<title>Node1&#45;&gt;Node13</title>
<path fill="none" stroke="midnightblue" d="M797.57,-448.73C824.33,-442.2 857.41,-430.92 882,-412 935.48,-370.85 978.34,-344.01 957,-280 947.16,-250.49 941.56,-240.2 915,-224 874.07,-199.03 728.09,-185.15 672.09,-180.65"/>
<polygon fill="midnightblue" stroke="midnightblue" points="796.61,-445.36 787.65,-451.01 798.18,-452.18 796.61,-445.36"/>
</g>
<!-- Node16 -->
<g id="node16" class="node">
<title>Node16</title>
<g id="a_node16"><a xlink:href="_game_audio_8h.html" target="_top" xlink:title=" ">
<polygon fill="none" stroke="black" points="163,-336.5 163,-355.5 239,-355.5 239,-336.5 163,-336.5"/>
<text text-anchor="middle" x="201" y="-343.5" font-family="Helvetica,sans-Serif" font-size="10.00">GameAudio.h</text>
</a>
</g>
</g>
<!-- Node1&#45;&gt;Node16 -->
<g id="edge21" class="edge">
<title>Node1&#45;&gt;Node16</title>
<path fill="none" stroke="midnightblue" d="M704.36,-457.37C594.28,-457.63 322.34,-454.1 244,-412 220.07,-399.14 203.24,-370.11 199.56,-355.6"/>
<polygon fill="midnightblue" stroke="midnightblue" points="704.51,-460.87 714.49,-457.33 704.48,-453.87 704.51,-460.87"/>
</g>
<!-- Node18 -->
<g id="node18" class="node">
<title>Node18</title>
<g id="a_node18"><a xlink:href="_nemo_8h.html" target="_top" xlink:title=" ">
<polygon fill="none" stroke="black" points="305,-280.5 305,-299.5 355,-299.5 355,-280.5 305,-280.5"/>
<text text-anchor="middle" x="330" y="-287.5" font-family="Helvetica,sans-Serif" font-size="10.00">Nemo.h</text>
</a>
</g>
</g>
<!-- Node1&#45;&gt;Node18 -->
<g id="edge54" class="edge">
<title>Node1&#45;&gt;Node18</title>
<path fill="none" stroke="midnightblue" d="M704.16,-457.74C608.46,-458.33 394.74,-454.67 338,-412 309.8,-390.79 309.35,-370.83 315,-336 317.11,-322.99 322.44,-308.67 326.14,-299.75"/>
<polygon fill="midnightblue" stroke="midnightblue" points="704.44,-461.23 714.41,-457.65 704.38,-454.23 704.44,-461.23"/>
</g>
<!-- Node19 -->
<g id="node19" class="node">
<title>Node19</title>
<g id="a_node19"><a xlink:href="_game_character_8h.html" target="_top" xlink:title=" ">
<polygon fill="none" stroke="black" points="779.5,-336.5 779.5,-355.5 872.5,-355.5 872.5,-336.5 779.5,-336.5"/>
<text text-anchor="middle" x="826" y="-343.5" font-family="Helvetica,sans-Serif" font-size="10.00">GameCharacter.h</text>
</a>
</g>
</g>
<!-- Node1&#45;&gt;Node19 -->
<g id="edge31" class="edge">
<title>Node1&#45;&gt;Node19</title>
<path fill="none" stroke="midnightblue" d="M762.62,-439.96C778.87,-416.12 807.79,-373.71 820.14,-355.59"/>
<polygon fill="midnightblue" stroke="midnightblue" points="759.63,-438.13 756.89,-448.37 765.41,-442.08 759.63,-438.13"/>
</g>
<!-- Node21 -->
<g id="node21" class="node">
<title>Node21</title>
<g id="a_node21"><a xlink:href="_combat_2_mumy_8h.html" target="_top" xlink:title=" ">
<polygon fill="none" stroke="black" points="373,-280.5 373,-299.5 425,-299.5 425,-280.5 373,-280.5"/>
<text text-anchor="middle" x="399" y="-287.5" font-family="Helvetica,sans-Serif" font-size="10.00">Mumy.h</text>
</a>
</g>
</g>
<!-- Node1&#45;&gt;Node21 -->
<g id="edge50" class="edge">
<title>Node1&#45;&gt;Node21</title>
<path fill="none" stroke="midnightblue" d="M704.22,-455.65C615.93,-452.43 428.53,-442.16 372,-412 336.75,-393.19 304.32,-370.76 324,-336 334.4,-317.63 355.62,-305.94 372.84,-299.1"/>
<polygon fill="midnightblue" stroke="midnightblue" points="704.36,-459.16 714.48,-456.01 704.61,-452.17 704.36,-459.16"/>
</g>
<!-- Node23 -->
<g id="node23" class="node">
<title>Node23</title>
<g id="a_node23"><a xlink:href="_combat_2_pharaoh_8h.html" target="_top" xlink:title=" ">
<polygon fill="none" stroke="black" points="810.5,-280.5 810.5,-299.5 871.5,-299.5 871.5,-280.5 810.5,-280.5"/>
<text text-anchor="middle" x="841" y="-287.5" font-family="Helvetica,sans-Serif" font-size="10.00">Pharaoh.h</text>
</a>
</g>
</g>
<!-- Node1&#45;&gt;Node23 -->
<g id="edge55" class="edge">
<title>Node1&#45;&gt;Node23</title>
<path fill="none" stroke="midnightblue" d="M780.52,-443.95C812.03,-428.21 860.22,-398.46 881,-356 891.37,-334.82 867.98,-311.67 852.76,-299.53"/>
<polygon fill="midnightblue" stroke="midnightblue" points="778.81,-440.89 771.32,-448.39 781.85,-447.2 778.81,-440.89"/>
</g>
<!-- Node25 -->
<g id="node25" class="node">
<title>Node25</title>
<g id="a_node25"><a xlink:href="_player_8h.html" target="_top" xlink:title=" ">
<polygon fill="none" stroke="black" points="616.5,-280.5 616.5,-299.5 669.5,-299.5 669.5,-280.5 616.5,-280.5"/>
<text text-anchor="middle" x="643" y="-287.5" font-family="Helvetica,sans-Serif" font-size="10.00">Player.h</text>
</a>
</g>
</g>
<!-- Node1&#45;&gt;Node25 -->
<g id="edge59" class="edge">
<title>Node1&#45;&gt;Node25</title>
<path fill="none" stroke="midnightblue" d="M748.23,-438.06C743.72,-412.64 732.79,-367.09 709,-336 696.53,-319.7 676.42,-307.21 661.67,-299.57"/>
<polygon fill="midnightblue" stroke="midnightblue" points="744.82,-438.89 749.87,-448.2 751.73,-437.77 744.82,-438.89"/>
</g>
<!-- Node27 -->
<g id="node27" class="node">
<title>Node27</title>
<g id="a_node27"><a xlink:href="_combat_2_shadow_8h.html" target="_top" xlink:title=" ">
<polygon fill="none" stroke="black" points="889.5,-280.5 889.5,-299.5 948.5,-299.5 948.5,-280.5 889.5,-280.5"/>
<text text-anchor="middle" x="919" y="-287.5" font-family="Helvetica,sans-Serif" font-size="10.00">Shadow.h</text>
</a>
</g>
</g>
<!-- Node1&#45;&gt;Node27 -->
<g id="edge61" class="edge">
<title>Node1&#45;&gt;Node27</title>
<path fill="none" stroke="midnightblue" d="M793.59,-445.27C814.52,-438.05 839.2,-427.21 858,-412 895.67,-381.52 912.22,-321.74 917.24,-299.56"/>
<polygon fill="midnightblue" stroke="midnightblue" points="792.38,-441.99 783.97,-448.43 794.57,-448.64 792.38,-441.99"/>
</g>
<!-- Node29 -->
<g id="node29" class="node">
<title>Node29</title>
<g id="a_node29"><a xlink:href="_inventory_8h.html" target="_top" xlink:title=" ">
<polygon fill="none" stroke="black" points="1086.5,-392.5 1086.5,-411.5 1149.5,-411.5 1149.5,-392.5 1086.5,-392.5"/>
<text text-anchor="middle" x="1118" y="-399.5" font-family="Helvetica,sans-Serif" font-size="10.00">Inventory.h</text>
</a>
</g>
</g>
<!-- Node1&#45;&gt;Node29 -->
<g id="edge45" class="edge">
<title>Node1&#45;&gt;Node29</title>
<path fill="none" stroke="midnightblue" d="M797.75,-450.84C859.49,-442.58 971.56,-427.21 1067,-412 1073.3,-411 1080.03,-409.86 1086.47,-408.73"/>
<polygon fill="midnightblue" stroke="midnightblue" points="797,-447.41 787.55,-452.2 797.93,-454.34 797,-447.41"/>
</g>
<!-- Node31 -->
<g id="node31" class="node">
<title>Node31</title>
<g id="a_node31"><a xlink:href="_enemy_01_overworld_01_sprites_2_mumy_8h.html" target="_top" xlink:title=" ">
<polygon fill="none" stroke="black" points="1195,-392.5 1195,-411.5 1247,-411.5 1247,-392.5 1195,-392.5"/>
<text text-anchor="middle" x="1221" y="-399.5" font-family="Helvetica,sans-Serif" font-size="10.00">Mumy.h</text>
</a>
</g>
</g>
<!-- Node1&#45;&gt;Node31 -->
<g id="edge51" class="edge">
<title>Node1&#45;&gt;Node31</title>
<path fill="none" stroke="midnightblue" d="M797.8,-452.37C873.71,-444.73 1028.36,-428.68 1159,-412 1170.76,-410.5 1183.75,-408.64 1194.78,-407.01"/>
<polygon fill="midnightblue" stroke="midnightblue" points="797.22,-448.91 787.62,-453.39 797.92,-455.87 797.22,-448.91"/>
</g>
<!-- Node33 -->
<g id="node33" class="node">
<title>Node33</title>
<g id="a_node33"><a xlink:href="_enemy_01_overworld_01_sprites_2_pharaoh_8h.html" target="_top" xlink:title=" ">
<polygon fill="none" stroke="black" points="1334.5,-392.5 1334.5,-411.5 1395.5,-411.5 1395.5,-392.5 1334.5,-392.5"/>
<text text-anchor="middle" x="1365" y="-399.5" font-family="Helvetica,sans-Serif" font-size="10.00">Pharaoh.h</text>
</a>
</g>
</g>
<!-- Node1&#45;&gt;Node33 -->
<g id="edge56" class="edge">
<title>Node1&#45;&gt;Node33</title>
<path fill="none" stroke="midnightblue" d="M797.53,-452.91C917.36,-442.37 1234.1,-414.51 1334.21,-405.71"/>
<polygon fill="midnightblue" stroke="midnightblue" points="797.22,-449.42 787.57,-453.78 797.84,-456.39 797.22,-449.42"/>
</g>
<!-- Node35 -->
<g id="node35" class="node">
<title>Node35</title>
<g id="a_node35"><a xlink:href="_enemy_01_overworld_01_sprites_2_shadow_8h.html" target="_top" xlink:title=" ">
<polygon fill="none" stroke="black" points="1437.5,-392.5 1437.5,-411.5 1496.5,-411.5 1496.5,-392.5 1437.5,-392.5"/>
<text text-anchor="middle" x="1467" y="-399.5" font-family="Helvetica,sans-Serif" font-size="10.00">Shadow.h</text>
</a>
</g>
</g>
<!-- Node1&#45;&gt;Node35 -->
<g id="edge62" class="edge">
<title>Node1&#45;&gt;Node35</title>
<path fill="none" stroke="midnightblue" d="M797.78,-454.99C905.26,-450.12 1178.02,-436.25 1405,-412 1415.6,-410.87 1427.17,-409.28 1437.41,-407.76"/>
<polygon fill="midnightblue" stroke="midnightblue" points="797.43,-451.51 787.6,-455.45 797.75,-458.5 797.43,-451.51"/>
</g>
<!-- Node37 -->
<g id="node37" class="node">
<title>Node37</title>
<g id="a_node37"><a xlink:href="_sprite_8h.html" target="_top" xlink:title=" ">
<polygon fill="none" stroke="black" points="629,-392.5 629,-411.5 679,-411.5 679,-392.5 629,-392.5"/>
<text text-anchor="middle" x="654" y="-399.5" font-family="Helvetica,sans-Serif" font-size="10.00">Sprite.h</text>
</a>
</g>
</g>
<!-- Node1&#45;&gt;Node37 -->
<g id="edge65" class="edge">
<title>Node1&#45;&gt;Node37</title>
<path fill="none" stroke="midnightblue" d="M726.66,-443.45C708.76,-433.48 684.95,-420.23 669.55,-411.65"/>
<polygon fill="midnightblue" stroke="midnightblue" points="724.98,-446.52 735.42,-448.32 728.38,-440.4 724.98,-446.52"/>
</g>
<!-- Node39 -->
<g id="node39" class="node">
<title>Node39</title>
<g id="a_node39"><a xlink:href="_u_i_8h.html" target="_top" xlink:title=" ">
<polygon fill="none" stroke="black" points="1005,-280.5 1005,-299.5 1039,-299.5 1039,-280.5 1005,-280.5"/>
<text text-anchor="middle" x="1022" y="-287.5" font-family="Helvetica,sans-Serif" font-size="10.00">UI.h</text>
</a>
</g>
</g>
<!-- Node1&#45;&gt;Node39 -->
<g id="edge72" class="edge">
<title>Node1&#45;&gt;Node39</title>
<path fill="none" stroke="midnightblue" d="M797.87,-454.1C859.64,-449.31 963.65,-437.61 991,-412 1023.6,-381.46 1023.81,-321.72 1022.65,-299.55"/>
<polygon fill="midnightblue" stroke="midnightblue" points="797.32,-450.63 787.6,-454.86 797.83,-457.61 797.32,-450.63"/>
</g>
<!-- Node3 -->
<g id="node3" class="node">
<title>Node3</title>
<g id="a_node3"><a xlink:href="_collision_8cpp.html" target="_top" xlink:title=" ">
<polygon fill="none" stroke="black" points="192,-56.5 192,-75.5 264,-75.5 264,-56.5 192,-56.5"/>
<text text-anchor="middle" x="228" y="-63.5" font-family="Helvetica,sans-Serif" font-size="10.00">Collision.cpp</text>
</a>
</g>
</g>
<!-- Node2&#45;&gt;Node3 -->
<g id="edge2" class="edge">
<title>Node2&#45;&gt;Node3</title>
<path fill="none" stroke="midnightblue" d="M228,-101.8C228,-92.91 228,-82.78 228,-75.75"/>
<polygon fill="midnightblue" stroke="midnightblue" points="224.5,-102.08 228,-112.08 231.5,-102.08 224.5,-102.08"/>
</g>
<!-- Node2&#45;&gt;Node4 -->
<g id="edge3" class="edge">
<title>Node2&#45;&gt;Node4</title>
<path fill="none" stroke="midnightblue" d="M193.67,-109.04C164.5,-98.88 123.36,-84.55 97.45,-75.52"/>
<polygon fill="midnightblue" stroke="midnightblue" points="192.84,-112.46 203.44,-112.44 195.15,-105.85 192.84,-112.46"/>
</g>
<!-- Node5 -->
<g id="node5" class="node">
<title>Node5</title>
<g id="a_node5"><a xlink:href="_puzzle_8cpp.html" target="_top" xlink:title=" ">
<polygon fill="none" stroke="black" points="40.5,-0.5 40.5,-19.5 105.5,-19.5 105.5,-0.5 40.5,-0.5"/>
<text text-anchor="middle" x="73" y="-7.5" font-family="Helvetica,sans-Serif" font-size="10.00">Puzzle.cpp</text>
</a>
</g>
</g>
<!-- Node4&#45;&gt;Node5 -->
<g id="edge4" class="edge">
<title>Node4&#45;&gt;Node5</title>
<path fill="none" stroke="midnightblue" d="M73,-45.8C73,-36.91 73,-26.78 73,-19.75"/>
<polygon fill="midnightblue" stroke="midnightblue" points="69.5,-46.08 73,-56.08 76.5,-46.08 69.5,-46.08"/>
</g>
<!-- Node4&#45;&gt;Node6 -->
<g id="edge5" class="edge">
<title>Node4&#45;&gt;Node6</title>
<path fill="none" stroke="midnightblue" d="M110.85,-60.38C123.31,-58.91 137.24,-57.33 150,-56 327.1,-37.59 540.35,-19.56 615.85,-13.31"/>
<polygon fill="midnightblue" stroke="midnightblue" points="110.3,-56.92 100.78,-61.58 111.12,-63.87 110.3,-56.92"/>
</g>
<!-- Node7&#45;&gt;Node2 -->
<g id="edge7" class="edge">
<title>Node7&#45;&gt;Node2</title>
<path fill="none" stroke="midnightblue" d="M127.32,-164.5C151.88,-154.38 185.82,-140.39 207.34,-131.52"/>
<polygon fill="midnightblue" stroke="midnightblue" points="125.67,-161.4 117.76,-168.44 128.34,-167.87 125.67,-161.4"/>
</g>
<!-- Node7&#45;&gt;Node6 -->
<g id="edge9" class="edge">
<title>Node7&#45;&gt;Node6</title>
<path fill="none" stroke="midnightblue" d="M117.65,-162.08C127.75,-154.02 139.52,-143.4 148,-132 170.2,-102.17 152.7,-77.55 183,-56 218.3,-30.89 520.85,-16.17 615.69,-12.14"/>
<polygon fill="midnightblue" stroke="midnightblue" points="115.47,-159.34 109.67,-168.21 119.73,-164.89 115.47,-159.34"/>
</g>
<!-- Node8 -->
<g id="node8" class="node">
<title>Node8</title>
<g id="a_node8"><a xlink:href="_dialogue_8cpp.html" target="_top" xlink:title=" ">
<polygon fill="none" stroke="black" points="66.5,-112.5 66.5,-131.5 139.5,-131.5 139.5,-112.5 66.5,-112.5"/>
<text text-anchor="middle" x="103" y="-119.5" font-family="Helvetica,sans-Serif" font-size="10.00">Dialogue.cpp</text>
</a>
</g>
</g>
<!-- Node7&#45;&gt;Node8 -->
<g id="edge8" class="edge">
<title>Node7&#45;&gt;Node8</title>
<path fill="none" stroke="midnightblue" d="M99.1,-158.1C100.1,-149.14 101.24,-138.86 102.03,-131.75"/>
<polygon fill="midnightblue" stroke="midnightblue" points="95.62,-157.76 97.99,-168.08 102.57,-158.53 95.62,-157.76"/>
</g>
<!-- Node10 -->
<g id="node10" class="node">
<title>Node10</title>
<g id="a_node10"><a xlink:href="_endscreen_8cpp.html" target="_top" xlink:title=" ">
<polygon fill="none" stroke="black" points="333,-336.5 333,-355.5 415,-355.5 415,-336.5 333,-336.5"/>
<text text-anchor="middle" x="374" y="-343.5" font-family="Helvetica,sans-Serif" font-size="10.00">Endscreen.cpp</text>
</a>
</g>
</g>
<!-- Node9&#45;&gt;Node10 -->
<g id="edge11" class="edge">
<title>Node9&#45;&gt;Node10</title>
<path fill="none" stroke="midnightblue" d="M403.58,-384.14C396.09,-374.74 387.06,-363.4 380.97,-355.75"/>
<polygon fill="midnightblue" stroke="midnightblue" points="400.93,-386.44 409.9,-392.08 406.41,-382.08 400.93,-386.44"/>
</g>
<!-- Node9&#45;&gt;Node11 -->
<g id="edge12" class="edge">
<title>Node9&#45;&gt;Node11</title>
<path fill="none" stroke="midnightblue" d="M424.1,-382.9C434.09,-358.46 453.72,-314.06 477,-280 486.42,-266.21 499.83,-252.3 508.72,-243.67"/>
<polygon fill="midnightblue" stroke="midnightblue" points="420.79,-381.75 420.31,-392.34 427.29,-384.36 420.79,-381.75"/>
</g>
<!-- Node11&#45;&gt;Node2 -->
<g id="edge13" class="edge">
<title>Node11&#45;&gt;Node2</title>
<path fill="none" stroke="midnightblue" d="M501.33,-217.74C484.19,-202.85 456.09,-180.66 428,-168 371.54,-142.56 299.44,-130.91 259.04,-126.06"/>
<polygon fill="midnightblue" stroke="midnightblue" points="499.02,-220.36 508.82,-224.38 503.67,-215.13 499.02,-220.36"/>
</g>
<!-- Node11&#45;&gt;Node6 -->
<g id="edge20" class="edge">
<title>Node11&#45;&gt;Node6</title>
<path fill="none" stroke="midnightblue" d="M509.57,-215.07C504.52,-201.85 499.97,-183.55 505,-168 527.65,-98.04 601.1,-40.73 631.08,-19.67"/>
<polygon fill="midnightblue" stroke="midnightblue" points="506.42,-216.6 513.56,-224.43 512.86,-213.85 506.42,-216.6"/>
</g>
<!-- Node12 -->
<g id="node12" class="node">
<title>Node12</title>
<g id="a_node12"><a xlink:href="_level_8cpp.html" target="_top" xlink:title=" ">
<polygon fill="none" stroke="black" points="514.5,-168.5 514.5,-187.5 571.5,-187.5 571.5,-168.5 514.5,-168.5"/>
<text text-anchor="middle" x="543" y="-175.5" font-family="Helvetica,sans-Serif" font-size="10.00">Level.cpp</text>
</a>
</g>
</g>
<!-- Node11&#45;&gt;Node12 -->
<g id="edge14" class="edge">
<title>Node11&#45;&gt;Node12</title>
<path fill="none" stroke="midnightblue" d="M526.34,-214.98C530.58,-205.82 535.55,-195.09 538.95,-187.75"/>
<polygon fill="midnightblue" stroke="midnightblue" points="523.15,-213.54 522.13,-224.08 529.51,-216.48 523.15,-213.54"/>
</g>
<!-- Node11&#45;&gt;Node13 -->
<g id="edge15" class="edge">
<title>Node11&#45;&gt;Node13</title>
<path fill="none" stroke="midnightblue" d="M548.22,-220.64C572.99,-210.5 607.4,-196.43 629.18,-187.52"/>
<polygon fill="midnightblue" stroke="midnightblue" points="546.85,-217.42 538.92,-224.44 549.5,-223.9 546.85,-217.42"/>
</g>
<!-- Node15 -->
<g id="node15" class="node">
<title>Node15</title>
<g id="a_node15"><a xlink:href="_nemo_8cpp.html" target="_top" xlink:title=" ">
<polygon fill="none" stroke="black" points="358.5,-168.5 358.5,-187.5 419.5,-187.5 419.5,-168.5 358.5,-168.5"/>
<text text-anchor="middle" x="389" y="-175.5" font-family="Helvetica,sans-Serif" font-size="10.00">Nemo.cpp</text>
</a>
</g>
</g>
<!-- Node11&#45;&gt;Node15 -->
<g id="edge19" class="edge">
<title>Node11&#45;&gt;Node15</title>
<path fill="none" stroke="midnightblue" d="M488.15,-220.5C463.96,-210.38 430.54,-196.39 409.34,-187.52"/>
<polygon fill="midnightblue" stroke="midnightblue" points="486.98,-223.81 497.56,-224.44 489.69,-217.35 486.98,-223.81"/>
</g>
<!-- Node13&#45;&gt;Node2 -->
<g id="edge16" class="edge">
<title>Node13&#45;&gt;Node2</title>
<path fill="none" stroke="midnightblue" d="M617.97,-172.88C606.05,-171.34 592.41,-169.59 580,-168 461.45,-152.8 320.43,-134.8 259.08,-126.97"/>
<polygon fill="midnightblue" stroke="midnightblue" points="617.57,-176.35 627.93,-174.16 618.46,-169.41 617.57,-176.35"/>
</g>
<!-- Node13&#45;&gt;Node6 -->
<g id="edge18" class="edge">
<title>Node13&#45;&gt;Node6</title>
<path fill="none" stroke="midnightblue" d="M649.31,-157.93C648.01,-121.92 645.24,-45.23 644.31,-19.57"/>
<polygon fill="midnightblue" stroke="midnightblue" points="645.82,-158.21 649.68,-168.08 652.81,-157.96 645.82,-158.21"/>
</g>
<!-- Node14 -->
<g id="node14" class="node">
<title>Node14</title>
<g id="a_node14"><a xlink:href="_map_8cpp.html" target="_top" xlink:title=" ">
<polygon fill="none" stroke="black" points="672,-112.5 672,-131.5 726,-131.5 726,-112.5 672,-112.5"/>
<text text-anchor="middle" x="699" y="-119.5" font-family="Helvetica,sans-Serif" font-size="10.00">Map.cpp</text>
</a>
</g>
</g>
<!-- Node13&#45;&gt;Node14 -->
<g id="edge17" class="edge">
<title>Node13&#45;&gt;Node14</title>
<path fill="none" stroke="midnightblue" d="M665.03,-160.43C673.62,-150.97 684.04,-139.48 691.06,-131.75"/>
<polygon fill="midnightblue" stroke="midnightblue" points="662.22,-158.33 658.09,-168.08 667.4,-163.03 662.22,-158.33"/>
</g>
<!-- Node16&#45;&gt;Node1 -->
<g id="edge23" class="edge">
<title>Node16&#45;&gt;Node1</title>
<path fill="none" stroke="midnightblue" d="M216.24,-363.78C226.95,-379.2 241.99,-401.25 262,-412 340.67,-454.27 614.57,-457.66 714.39,-457.37"/>
<polygon fill="midnightblue" stroke="midnightblue" points="219.07,-361.72 210.43,-355.6 213.37,-365.78 219.07,-361.72"/>
</g>
<!-- Node16&#45;&gt;Node6 -->
<g id="edge30" class="edge">
<title>Node16&#45;&gt;Node6</title>
<path fill="none" stroke="midnightblue" d="M194.11,-326.57C190.2,-313.33 186.99,-295.22 192,-280 211.96,-219.34 315.2,-85.19 372,-56 453.1,-14.33 564.12,-9.76 615.62,-10.15"/>
<polygon fill="midnightblue" stroke="midnightblue" points="190.9,-328 197.4,-336.37 197.54,-325.77 190.9,-328"/>
</g>
<!-- Node17 -->
<g id="node17" class="node">
<title>Node17</title>
<g id="a_node17"><a xlink:href="_game_audio_8cpp.html" target="_top" xlink:title=" ">
<polygon fill="none" stroke="black" points="201,-280.5 201,-299.5 287,-299.5 287,-280.5 201,-280.5"/>
<text text-anchor="middle" x="244" y="-287.5" font-family="Helvetica,sans-Serif" font-size="10.00">GameAudio.cpp</text>
</a>
</g>
</g>
<!-- Node16&#45;&gt;Node17 -->
<g id="edge22" class="edge">
<title>Node16&#45;&gt;Node17</title>
<path fill="none" stroke="midnightblue" d="M214.42,-328.14C221.91,-318.74 230.94,-307.4 237.03,-299.75"/>
<polygon fill="midnightblue" stroke="midnightblue" points="211.59,-326.08 208.1,-336.08 217.07,-330.44 211.59,-326.08"/>
</g>
<!-- Node16&#45;&gt;Node18 -->
<g id="edge24" class="edge">
<title>Node16&#45;&gt;Node18</title>
<path fill="none" stroke="midnightblue" d="M230.85,-332.5C255.04,-322.38 288.46,-308.39 309.66,-299.52"/>
<polygon fill="midnightblue" stroke="midnightblue" points="229.31,-329.35 221.44,-336.44 232.02,-335.81 229.31,-329.35"/>
</g>
<!-- Node18&#45;&gt;Node2 -->
<g id="edge25" class="edge">
<title>Node18&#45;&gt;Node2</title>
<path fill="none" stroke="midnightblue" d="M319.13,-271.31C297.39,-235.92 249.24,-157.56 233.26,-131.57"/>
<polygon fill="midnightblue" stroke="midnightblue" points="316.3,-273.39 324.52,-280.08 322.26,-269.72 316.3,-273.39"/>
</g>
<!-- Node18&#45;&gt;Node4 -->
<g id="edge28" class="edge">
<title>Node18&#45;&gt;Node4</title>
<path fill="none" stroke="midnightblue" d="M295.26,-278.57C224.94,-257.14 71.21,-208.41 57,-188 32.3,-152.52 57.13,-96.75 68.23,-75.56"/>
<polygon fill="midnightblue" stroke="midnightblue" points="294.41,-281.98 305,-281.53 296.45,-275.28 294.41,-281.98"/>
</g>
<!-- Node18&#45;&gt;Node6 -->
<g id="edge29" class="edge">
<title>Node18&#45;&gt;Node6</title>
<path fill="none" stroke="midnightblue" d="M330,-270.25C330,-248.36 330,-211.05 330,-179 330,-179 330,-179 330,-121 330,-60.71 538.79,-25.6 615.86,-14.7"/>
<polygon fill="midnightblue" stroke="midnightblue" points="326.5,-270.44 330,-280.44 333.5,-270.44 326.5,-270.44"/>
</g>
<!-- Node18&#45;&gt;Node11 -->
<g id="edge26" class="edge">
<title>Node18&#45;&gt;Node11</title>
<path fill="none" stroke="midnightblue" d="M365.39,-278.83C403.09,-268.01 461.71,-251.17 494.23,-241.83"/>
<polygon fill="midnightblue" stroke="midnightblue" points="364,-275.59 355.35,-281.72 365.93,-282.32 364,-275.59"/>
</g>
<!-- Node18&#45;&gt;Node15 -->
<g id="edge27" class="edge">
<title>Node18&#45;&gt;Node15</title>
<path fill="none" stroke="midnightblue" d="M339.48,-271.32C352.33,-247.37 374.76,-205.55 384.39,-187.59"/>
<polygon fill="midnightblue" stroke="midnightblue" points="336.27,-269.9 334.63,-280.37 342.44,-273.21 336.27,-269.9"/>
</g>
<!-- Node20 -->
<g id="node20" class="node">
<title>Node20</title>
<g id="a_node20"><a xlink:href="_game_character_8cpp.html" target="_top" xlink:title=" ">
<polygon fill="none" stroke="black" points="688,-280.5 688,-299.5 792,-299.5 792,-280.5 688,-280.5"/>
<text text-anchor="middle" x="740" y="-287.5" font-family="Helvetica,sans-Serif" font-size="10.00">GameCharacter.cpp</text>
</a>
</g>
</g>
<!-- Node19&#45;&gt;Node20 -->
<g id="edge32" class="edge">
<title>Node19&#45;&gt;Node20</title>
<path fill="none" stroke="midnightblue" d="M803.55,-330.9C787.78,-321 767.19,-308.07 753.78,-299.65"/>
<polygon fill="midnightblue" stroke="midnightblue" points="801.85,-333.97 812.18,-336.32 805.57,-328.04 801.85,-333.97"/>
</g>
<!-- Node19&#45;&gt;Node21 -->
<g id="edge33" class="edge">
<title>Node19&#45;&gt;Node21</title>
<path fill="none" stroke="midnightblue" d="M769.37,-337.84C675.91,-326.02 492.98,-302.89 425.14,-294.31"/>
<polygon fill="midnightblue" stroke="midnightblue" points="769.13,-341.34 779.49,-339.12 770.01,-334.39 769.13,-341.34"/>
</g>
<!-- Node19&#45;&gt;Node23 -->
<g id="edge36" class="edge">
<title>Node19&#45;&gt;Node23</title>
<path fill="none" stroke="midnightblue" d="M831.17,-326.4C833.68,-317.36 836.57,-306.94 838.57,-299.75"/>
<polygon fill="midnightblue" stroke="midnightblue" points="827.78,-325.51 828.48,-336.08 834.53,-327.38 827.78,-325.51"/>
</g>
<!-- Node19&#45;&gt;Node25 -->
<g id="edge39" class="edge">
<title>Node19&#45;&gt;Node25</title>
<path fill="none" stroke="midnightblue" d="M787.05,-333.51C751.75,-323.09 700.68,-308.02 669.78,-298.9"/>
<polygon fill="midnightblue" stroke="midnightblue" points="786.42,-336.97 797,-336.44 788.4,-330.26 786.42,-336.97"/>
</g>
<!-- Node19&#45;&gt;Node27 -->
<g id="edge42" class="edge">
<title>Node19&#45;&gt;Node27</title>
<path fill="none" stroke="midnightblue" d="M849.81,-331.18C866.92,-321.24 889.47,-308.15 904.1,-299.65"/>
<polygon fill="midnightblue" stroke="midnightblue" points="847.83,-328.28 840.94,-336.32 851.35,-334.33 847.83,-328.28"/>
</g>
<!-- Node21&#45;&gt;Node11 -->
<g id="edge34" class="edge">
<title>Node21&#45;&gt;Node11</title>
<path fill="none" stroke="midnightblue" d="M427.14,-276.23C449.4,-266.13 479.86,-252.31 499.23,-243.52"/>
<polygon fill="midnightblue" stroke="midnightblue" points="425.52,-273.12 417.86,-280.44 428.41,-279.5 425.52,-273.12"/>
</g>
<!-- Node22 -->
<g id="node22" class="node">
<title>Node22</title>
<g id="a_node22"><a xlink:href="_combat_2_mumy_8cpp.html" target="_top" xlink:title=" ">
<polygon fill="none" stroke="black" points="396,-224.5 396,-243.5 458,-243.5 458,-224.5 396,-224.5"/>
<text text-anchor="middle" x="427" y="-231.5" font-family="Helvetica,sans-Serif" font-size="10.00">Mumy.cpp</text>
</a>
</g>
</g>
<!-- Node21&#45;&gt;Node22 -->
<g id="edge35" class="edge">
<title>Node21&#45;&gt;Node22</title>
<path fill="none" stroke="midnightblue" d="M408.34,-270.98C413.09,-261.82 418.66,-251.09 422.46,-243.75"/>
<polygon fill="midnightblue" stroke="midnightblue" points="405.12,-269.59 403.62,-280.08 411.33,-272.82 405.12,-269.59"/>
</g>
<!-- Node23&#45;&gt;Node11 -->
<g id="edge37" class="edge">
<title>Node23&#45;&gt;Node11</title>
<path fill="none" stroke="midnightblue" d="M800.58,-280.03C698.11,-260.6 588.7,-244.8 541.57,-238.23"/>
<polygon fill="midnightblue" stroke="midnightblue" points="799.99,-283.48 810.47,-281.92 801.3,-276.6 799.99,-283.48"/>
</g>
<!-- Node24 -->
<g id="node24" class="node">
<title>Node24</title>
<g id="a_node24"><a xlink:href="_combat_2_pharaoh_8cpp.html" target="_top" xlink:title=" ">
<polygon fill="none" stroke="black" points="746.5,-224.5 746.5,-243.5 817.5,-243.5 817.5,-224.5 746.5,-224.5"/>
<text text-anchor="middle" x="782" y="-231.5" font-family="Helvetica,sans-Serif" font-size="10.00">Pharaoh.cpp</text>
</a>
</g>
</g>
<!-- Node23&#45;&gt;Node24 -->
<g id="edge38" class="edge">
<title>Node23&#45;&gt;Node24</title>
<path fill="none" stroke="midnightblue" d="M824.11,-273.54C813.59,-263.91 800.43,-251.87 791.65,-243.83"/>
<polygon fill="midnightblue" stroke="midnightblue" points="821.78,-276.15 831.52,-280.32 826.51,-270.99 821.78,-276.15"/>
</g>
<!-- Node25&#45;&gt;Node11 -->
<g id="edge40" class="edge">
<title>Node25&#45;&gt;Node11</title>
<path fill="none" stroke="midnightblue" d="M613.76,-276.37C590.35,-266.26 558.16,-252.35 537.71,-243.52"/>
<polygon fill="midnightblue" stroke="midnightblue" points="612.63,-279.69 623.19,-280.44 615.4,-273.26 612.63,-279.69"/>
</g>
<!-- Node26 -->
<g id="node26" class="node">
<title>Node26</title>
<g id="a_node26"><a xlink:href="_player_8cpp.html" target="_top" xlink:title=" ">
<polygon fill="none" stroke="black" points="616.5,-224.5 616.5,-243.5 679.5,-243.5 679.5,-224.5 616.5,-224.5"/>
<text text-anchor="middle" x="648" y="-231.5" font-family="Helvetica,sans-Serif" font-size="10.00">Player.cpp</text>
</a>
</g>
</g>
<!-- Node25&#45;&gt;Node26 -->
<g id="edge41" class="edge">
<title>Node25&#45;&gt;Node26</title>
<path fill="none" stroke="midnightblue" d="M644.75,-270.1C645.58,-261.14 646.53,-250.86 647.19,-243.75"/>
<polygon fill="midnightblue" stroke="midnightblue" points="641.26,-269.8 643.83,-280.08 648.23,-270.45 641.26,-269.8"/>
</g>
<!-- Node27&#45;&gt;Node11 -->
<g id="edge43" class="edge">
<title>Node27&#45;&gt;Node11</title>
<path fill="none" stroke="midnightblue" d="M879.39,-280.1C797.76,-266.49 608.1,-245.02 541.53,-237.6"/>
<polygon fill="midnightblue" stroke="midnightblue" points="878.8,-283.55 889.25,-281.8 879.99,-276.65 878.8,-283.55"/>
</g>
<!-- Node28 -->
<g id="node28" class="node">
<title>Node28</title>
<g id="a_node28"><a xlink:href="_combat_2_shadow_8cpp.html" target="_top" xlink:title=" ">
<polygon fill="none" stroke="black" points="836,-224.5 836,-243.5 906,-243.5 906,-224.5 836,-224.5"/>
<text text-anchor="middle" x="871" y="-231.5" font-family="Helvetica,sans-Serif" font-size="10.00">Shadow.cpp</text>
</a>
</g>
</g>
<!-- Node27&#45;&gt;Node28 -->
<g id="edge44" class="edge">
<title>Node27&#45;&gt;Node28</title>
<path fill="none" stroke="midnightblue" d="M904.27,-272.43C895.86,-262.97 885.65,-251.48 878.78,-243.75"/>
<polygon fill="midnightblue" stroke="midnightblue" points="901.81,-274.93 911.07,-280.08 907.05,-270.28 901.81,-274.93"/>
</g>
<!-- Node29&#45;&gt;Node6 -->
<g id="edge47" class="edge">
<title>Node29&#45;&gt;Node6</title>
<path fill="none" stroke="midnightblue" d="M1137.8,-385.7C1146.93,-377.73 1157.22,-367.3 1164,-356 1179.48,-330.19 1183,-321.1 1183,-291 1183,-291 1183,-291 1183,-121 1183,-15.71 783.12,-10.19 672.22,-10.68"/>
<polygon fill="midnightblue" stroke="midnightblue" points="1135.33,-383.21 1129.87,-392.29 1139.8,-388.59 1135.33,-383.21"/>
</g>
<!-- Node30 -->
<g id="node30" class="node">
<title>Node30</title>
<g id="a_node30"><a xlink:href="_inventory_8cpp.html" target="_top" xlink:title=" ">
<polygon fill="none" stroke="black" points="1081,-336.5 1081,-355.5 1155,-355.5 1155,-336.5 1081,-336.5"/>
<text text-anchor="middle" x="1118" y="-343.5" font-family="Helvetica,sans-Serif" font-size="10.00">Inventory.cpp</text>
</a>
</g>
</g>
<!-- Node29&#45;&gt;Node30 -->
<g id="edge46" class="edge">
<title>Node29&#45;&gt;Node30</title>
<path fill="none" stroke="midnightblue" d="M1118,-381.8C1118,-372.91 1118,-362.78 1118,-355.75"/>
<polygon fill="midnightblue" stroke="midnightblue" points="1114.5,-382.08 1118,-392.08 1121.5,-382.08 1114.5,-382.08"/>
</g>
<!-- Node31&#45;&gt;Node6 -->
<g id="edge53" class="edge">
<title>Node31&#45;&gt;Node6</title>
<path fill="none" stroke="midnightblue" d="M1221,-382.25C1221,-360.36 1221,-323.05 1221,-291 1221,-291 1221,-291 1221,-121 1221,-76.55 1185.96,-73.25 1145,-56 1058.58,-19.61 764.6,-12.61 672.1,-11.29"/>
<polygon fill="midnightblue" stroke="midnightblue" points="1217.5,-382.44 1221,-392.44 1224.5,-382.44 1217.5,-382.44"/>
</g>
<!-- Node32 -->
<g id="node32" class="node">
<title>Node32</title>
<g id="a_node32"><a xlink:href="_enemy_01_overworld_01_sprites_2_mumy_8cpp.html" target="_top" xlink:title=" ">
<polygon fill="none" stroke="black" points="1249,-336.5 1249,-355.5 1311,-355.5 1311,-336.5 1249,-336.5"/>
<text text-anchor="middle" x="1280" y="-343.5" font-family="Helvetica,sans-Serif" font-size="10.00">Mumy.cpp</text>
</a>
</g>
</g>
<!-- Node31&#45;&gt;Node32 -->
<g id="edge52" class="edge">
<title>Node31&#45;&gt;Node32</title>
<path fill="none" stroke="midnightblue" d="M1237.89,-385.54C1248.41,-375.91 1261.57,-363.87 1270.35,-355.83"/>
<polygon fill="midnightblue" stroke="midnightblue" points="1235.49,-382.99 1230.48,-392.32 1240.22,-388.15 1235.49,-382.99"/>
</g>
<!-- Node33&#45;&gt;Node6 -->
<g id="edge58" class="edge">
<title>Node33&#45;&gt;Node6</title>
<path fill="none" stroke="midnightblue" d="M1384.36,-385.63C1393.29,-377.64 1403.36,-367.21 1410,-356 1425.34,-330.11 1429,-321.1 1429,-291 1429,-291 1429,-291 1429,-121 1429,-42.99 813.14,-16.87 672.4,-11.92"/>
<polygon fill="midnightblue" stroke="midnightblue" points="1381.95,-383.08 1376.61,-392.23 1386.49,-388.41 1381.95,-383.08"/>
</g>
<!-- Node34 -->
<g id="node34" class="node">
<title>Node34</title>
<g id="a_node34"><a xlink:href="_enemy_01_overworld_01_sprites_2_pharaoh_8cpp.html" target="_top" xlink:title=" ">
<polygon fill="none" stroke="black" points="1329.5,-336.5 1329.5,-355.5 1400.5,-355.5 1400.5,-336.5 1329.5,-336.5"/>
<text text-anchor="middle" x="1365" y="-343.5" font-family="Helvetica,sans-Serif" font-size="10.00">Pharaoh.cpp</text>
</a>
</g>
</g>
<!-- Node33&#45;&gt;Node34 -->
<g id="edge57" class="edge">
<title>Node33&#45;&gt;Node34</title>
<path fill="none" stroke="midnightblue" d="M1365,-381.8C1365,-372.91 1365,-362.78 1365,-355.75"/>
<polygon fill="midnightblue" stroke="midnightblue" points="1361.5,-382.08 1365,-392.08 1368.5,-382.08 1361.5,-382.08"/>
</g>
<!-- Node35&#45;&gt;Node6 -->
<g id="edge64" class="edge">
<title>Node35&#45;&gt;Node6</title>
<path fill="none" stroke="midnightblue" d="M1467,-382.25C1467,-360.36 1467,-323.05 1467,-291 1467,-291 1467,-291 1467,-121 1467,-48.34 1387.61,-73.12 1317,-56 1191.67,-25.62 783.84,-14.21 672.38,-11.61"/>
<polygon fill="midnightblue" stroke="midnightblue" points="1463.5,-382.44 1467,-392.44 1470.5,-382.44 1463.5,-382.44"/>
</g>
<!-- Node36 -->
<g id="node36" class="node">
<title>Node36</title>
<g id="a_node36"><a xlink:href="_enemy_01_overworld_01_sprites_2_shadow_8cpp.html" target="_top" xlink:title=" ">
<polygon fill="none" stroke="black" points="1495,-336.5 1495,-355.5 1565,-355.5 1565,-336.5 1495,-336.5"/>
<text text-anchor="middle" x="1530" y="-343.5" font-family="Helvetica,sans-Serif" font-size="10.00">Shadow.cpp</text>
</a>
</g>
</g>
<!-- Node35&#45;&gt;Node36 -->
<g id="edge63" class="edge">
<title>Node35&#45;&gt;Node36</title>
<path fill="none" stroke="midnightblue" d="M1485.04,-385.54C1496.27,-375.91 1510.32,-363.87 1519.69,-355.83"/>
<polygon fill="midnightblue" stroke="midnightblue" points="1482.44,-383.16 1477.12,-392.32 1486.99,-388.47 1482.44,-383.16"/>
</g>
<!-- Node37&#45;&gt;Node6 -->
<g id="edge71" class="edge">
<title>Node37&#45;&gt;Node6</title>
<path fill="none" stroke="midnightblue" d="M635.58,-385.15C627.61,-377.23 618.98,-367 614,-356 603.65,-333.15 608.56,-325.03 607,-300 604.9,-266.29 604.1,-257.65 607,-224 613.9,-143.98 635.12,-48.9 641.9,-19.86"/>
<polygon fill="midnightblue" stroke="midnightblue" points="633.48,-387.97 643.17,-392.24 638.26,-382.86 633.48,-387.97"/>
</g>
<!-- Node37&#45;&gt;Node11 -->
<g id="edge67" class="edge">
<title>Node37&#45;&gt;Node11</title>
<path fill="none" stroke="midnightblue" d="M624.89,-387.74C610.36,-380.04 593.31,-369.24 581,-356 548.09,-320.62 527.63,-264.79 520.67,-243.57"/>
<polygon fill="midnightblue" stroke="midnightblue" points="623.49,-390.95 634,-392.35 626.65,-384.71 623.49,-390.95"/>
</g>
<!-- Node37&#45;&gt;Node18 -->
<g id="edge68" class="edge">
<title>Node37&#45;&gt;Node18</title>
<path fill="none" stroke="midnightblue" d="M619.37,-389.24C553.8,-366.98 412.98,-319.17 355.36,-299.61"/>
<polygon fill="midnightblue" stroke="midnightblue" points="618.25,-392.56 628.85,-392.46 620.5,-385.93 618.25,-392.56"/>
</g>
<!-- Node37&#45;&gt;Node19 -->
<g id="edge66" class="edge">
<title>Node37&#45;&gt;Node19</title>
<path fill="none" stroke="midnightblue" d="M688.96,-390.02C721.38,-379.84 768.97,-364.9 798.69,-355.58"/>
<polygon fill="midnightblue" stroke="midnightblue" points="687.5,-386.81 679.01,-393.15 689.6,-393.49 687.5,-386.81"/>
</g>
<!-- Node37&#45;&gt;Node25 -->
<g id="edge69" class="edge">
<title>Node37&#45;&gt;Node25</title>
<path fill="none" stroke="midnightblue" d="M673.44,-385.33C686.82,-372.51 700.88,-353.69 693,-336 685.87,-320 669.93,-307.3 657.95,-299.53"/>
<polygon fill="midnightblue" stroke="midnightblue" points="670.95,-382.86 665.81,-392.12 675.6,-388.09 670.95,-382.86"/>
</g>
<!-- Node38 -->
<g id="node38" class="node">
<title>Node38</title>
<g id="a_node38"><a xlink:href="_sprite_8cpp.html" target="_top" xlink:title=" ">
<polygon fill="none" stroke="black" points="623.5,-336.5 623.5,-355.5 684.5,-355.5 684.5,-336.5 623.5,-336.5"/>
<text text-anchor="middle" x="654" y="-343.5" font-family="Helvetica,sans-Serif" font-size="10.00">Sprite.cpp</text>
</a>
</g>
</g>
<!-- Node37&#45;&gt;Node38 -->
<g id="edge70" class="edge">
<title>Node37&#45;&gt;Node38</title>
<path fill="none" stroke="midnightblue" d="M654,-381.8C654,-372.91 654,-362.78 654,-355.75"/>
<polygon fill="midnightblue" stroke="midnightblue" points="650.5,-382.08 654,-392.08 657.5,-382.08 650.5,-382.08"/>
</g>
<!-- Node39&#45;&gt;Node6 -->
<g id="edge75" class="edge">
<title>Node39&#45;&gt;Node6</title>
<path fill="none" stroke="midnightblue" d="M1008.57,-272.27C1002.54,-264.12 995.73,-253.94 991,-244 978.08,-216.82 972,-209.1 972,-179 972,-179 972,-179 972,-121 972,-58.01 751.81,-24.4 672.25,-14.31"/>
<polygon fill="midnightblue" stroke="midnightblue" points="1005.81,-274.42 1014.68,-280.22 1011.36,-270.15 1005.81,-274.42"/>
</g>
<!-- Node39&#45;&gt;Node11 -->
<g id="edge73" class="edge">
<title>Node39&#45;&gt;Node11</title>
<path fill="none" stroke="midnightblue" d="M994.91,-285.03C983.25,-283.38 969.47,-281.5 957,-280 936.18,-277.49 629.71,-246.34 541.56,-237.39"/>
<polygon fill="midnightblue" stroke="midnightblue" points="994.52,-288.51 1004.91,-286.47 995.51,-281.58 994.52,-288.51"/>
</g>
<!-- Node40 -->
<g id="node40" class="node">
<title>Node40</title>
<g id="a_node40"><a xlink:href="_u_i_8cpp.html" target="_top" xlink:title=" ">
<polygon fill="none" stroke="black" points="1000,-224.5 1000,-243.5 1044,-243.5 1044,-224.5 1000,-224.5"/>
<text text-anchor="middle" x="1022" y="-231.5" font-family="Helvetica,sans-Serif" font-size="10.00">UI.cpp</text>
</a>
</g>
</g>
<!-- Node39&#45;&gt;Node40 -->
<g id="edge74" class="edge">
<title>Node39&#45;&gt;Node40</title>
<path fill="none" stroke="midnightblue" d="M1022,-269.8C1022,-260.91 1022,-250.78 1022,-243.75"/>
<polygon fill="midnightblue" stroke="midnightblue" points="1018.5,-270.08 1022,-280.08 1025.5,-270.08 1018.5,-270.08"/>
</g>
</g>
</svg>
