<?xml version="1.0" encoding="UTF-8" standalone="no"?>
<!DOCTYPE svg PUBLIC "-//W3C//DTD SVG 1.1//EN"
 "http://www.w3.org/Graphics/SVG/1.1/DTD/svg11.dtd">
<!-- Generated by graphviz version 3.0.0 (20220226.1711)
 -->
<!-- Title: INCLUDES.h Pages: 1 -->
<svg width="1472pt" height="420pt"
 viewBox="0.00 0.00 1472.00 420.00" xmlns="http://www.w3.org/2000/svg" xmlns:xlink="http://www.w3.org/1999/xlink">
<g id="graph0" class="graph" transform="scale(1 1) rotate(0) translate(4 416)">
<title>INCLUDES.h</title>
<!-- Node1 -->
<g id="node1" class="node">
<title>Node1</title>
<g id="a_node1"><a xlink:title=" ">
<polygon fill="#bfbfbf" stroke="black" points="617.5,-392.5 617.5,-411.5 690.5,-411.5 690.5,-392.5 617.5,-392.5"/>
<text text-anchor="middle" x="654" y="-399.5" font-family="Helvetica,sans-Serif" font-size="10.00">INCLUDES.h</text>
</a>
</g>
</g>
<!-- Node2 -->
<g id="node2" class="node">
<title>Node2</title>
<g id="a_node2"><a xlink:href="_collision_8h.html" target="_top" xlink:title=" ">
<polygon fill="none" stroke="black" points="126,-112.5 126,-131.5 188,-131.5 188,-112.5 126,-112.5"/>
<text text-anchor="middle" x="157" y="-119.5" font-family="Helvetica,sans-Serif" font-size="10.00">Collision.h</text>
</a>
</g>
</g>
<!-- Node1&#45;&gt;Node2 -->
<g id="edge1" class="edge">
<title>Node1&#45;&gt;Node2</title>
<path fill="none" stroke="midnightblue" d="M607.04,-400.1C495.4,-397.46 217.03,-387.8 130,-356 82.98,-338.82 38,-341.06 38,-291 38,-291 38,-291 38,-233 38,-180.81 100.48,-146.5 134.9,-131.56"/>
<polygon fill="midnightblue" stroke="midnightblue" points="607.23,-403.61 617.31,-400.33 607.39,-396.61 607.23,-403.61"/>
</g>
<!-- Node4 -->
<g id="node4" class="node">
<title>Node4</title>
<g id="a_node4"><a xlink:href="_puzzle_8h.html" target="_top" xlink:title=" ">
<polygon fill="none" stroke="black" points="70.5,-56.5 70.5,-75.5 125.5,-75.5 125.5,-56.5 70.5,-56.5"/>
<text text-anchor="middle" x="98" y="-63.5" font-family="Helvetica,sans-Serif" font-size="10.00">Puzzle.h</text>
</a>
</g>
</g>
<!-- Node1&#45;&gt;Node4 -->
<g id="edge51" class="edge">
<title>Node1&#45;&gt;Node4</title>
<path fill="none" stroke="midnightblue" d="M607.21,-401.56C485.39,-402.38 161.2,-400.22 65,-356 27.88,-338.94 0,-331.86 0,-291 0,-291 0,-291 0,-177 0,-128.66 53.42,-91.74 81.38,-75.73"/>
<polygon fill="midnightblue" stroke="midnightblue" points="607.36,-405.06 617.34,-401.49 607.31,-398.06 607.36,-405.06"/>
</g>
<!-- Node6 -->
<g id="node6" class="node">
<title>Node6</title>
<g id="a_node6"><a xlink:href="main_8cpp.html" target="_top" xlink:title=" ">
<polygon fill="none" stroke="black" points="843,-0.5 843,-19.5 899,-19.5 899,-0.5 843,-0.5"/>
<text text-anchor="middle" x="871" y="-7.5" font-family="Helvetica,sans-Serif" font-size="10.00">main.cpp</text>
</a>
</g>
</g>
<!-- Node1&#45;&gt;Node6 -->
<g id="edge67" class="edge">
<title>Node1&#45;&gt;Node6</title>
<path fill="none" stroke="midnightblue" d="M700.82,-393.22C734.42,-386.43 780.09,-374.68 817,-356 910.03,-308.91 971,-283.27 971,-179 971,-179 971,-179 971,-121 971,-72.22 916.49,-35.51 887.96,-19.64"/>
<polygon fill="midnightblue" stroke="midnightblue" points="699.96,-389.83 690.81,-395.17 701.29,-396.7 699.96,-389.83"/>
</g>
<!-- Node7 -->
<g id="node7" class="node">
<title>Node7</title>
<g id="a_node7"><a xlink:href="_endscreen_8h.html" target="_top" xlink:title=" ">
<polygon fill="none" stroke="black" points="216.5,-336.5 216.5,-355.5 287.5,-355.5 287.5,-336.5 216.5,-336.5"/>
<text text-anchor="middle" x="252" y="-343.5" font-family="Helvetica,sans-Serif" font-size="10.00">Endscreen.h</text>
</a>
</g>
</g>
<!-- Node1&#45;&gt;Node7 -->
<g id="edge6" class="edge">
<title>Node1&#45;&gt;Node7</title>
<path fill="none" stroke="midnightblue" d="M607.17,-395.36C540.6,-387.24 414.83,-371.53 308,-356 301.37,-355.04 294.32,-353.95 287.52,-352.87"/>
<polygon fill="midnightblue" stroke="midnightblue" points="606.98,-398.87 617.33,-396.6 607.83,-391.92 606.98,-398.87"/>
</g>
<!-- Node9 -->
<g id="node9" class="node">
<title>Node9</title>
<g id="a_node9"><a xlink:href="_level_8h.html" target="_top" xlink:title=" ">
<polygon fill="none" stroke="black" points="454.5,-168.5 454.5,-187.5 501.5,-187.5 501.5,-168.5 454.5,-168.5"/>
<text text-anchor="middle" x="478" y="-175.5" font-family="Helvetica,sans-Serif" font-size="10.00">Level.h</text>
</a>
</g>
</g>
<!-- Node1&#45;&gt;Node9 -->
<g id="edge40" class="edge">
<title>Node1&#45;&gt;Node9</title>
<path fill="none" stroke="midnightblue" d="M607.29,-392.51C577.84,-385.73 539.89,-374.27 510,-356 451.26,-320.1 428.16,-308.08 403,-244 399.75,-235.73 398.62,-231.74 403,-224 413.92,-204.71 436.78,-192.78 454.41,-186.1"/>
<polygon fill="midnightblue" stroke="midnightblue" points="606.8,-395.99 617.32,-394.72 608.3,-389.15 606.8,-395.99"/>
</g>
<!-- Node12 -->
<g id="node12" class="node">
<title>Node12</title>
<g id="a_node12"><a xlink:href="_game_audio_8h.html" target="_top" xlink:title=" ">
<polygon fill="none" stroke="black" points="280,-280.5 280,-299.5 356,-299.5 356,-280.5 280,-280.5"/>
<text text-anchor="middle" x="318" y="-287.5" font-family="Helvetica,sans-Serif" font-size="10.00">GameAudio.h</text>
</a>
</g>
</g>
<!-- Node1&#45;&gt;Node12 -->
<g id="edge13" class="edge">
<title>Node1&#45;&gt;Node12</title>
<path fill="none" stroke="midnightblue" d="M607.14,-398.11C535.04,-392.73 401.47,-379.53 361,-356 337.76,-342.49 320.84,-314.3 316.78,-299.89"/>
<polygon fill="midnightblue" stroke="midnightblue" points="607.08,-401.62 617.31,-398.85 607.59,-394.64 607.08,-401.62"/>
</g>
<!-- Node14 -->
<g id="node14" class="node">
<title>Node14</title>
<g id="a_node14"><a xlink:href="_nemo_8h.html" target="_top" xlink:title=" ">
<polygon fill="none" stroke="black" points="126,-224.5 126,-243.5 176,-243.5 176,-224.5 126,-224.5"/>
<text text-anchor="middle" x="151" y="-231.5" font-family="Helvetica,sans-Serif" font-size="10.00">Nemo.h</text>
</a>
</g>
</g>
<!-- Node1&#45;&gt;Node14 -->
<g id="edge45" class="edge">
<title>Node1&#45;&gt;Node14</title>
<path fill="none" stroke="midnightblue" d="M607.16,-401.8C524.61,-402 348.53,-397 207,-356 153.54,-340.51 124.26,-347.34 95,-300 81.22,-277.7 112.85,-255.34 133.97,-243.54"/>
<polygon fill="midnightblue" stroke="midnightblue" points="607.25,-405.3 617.23,-401.74 607.21,-398.3 607.25,-405.3"/>
</g>
<!-- Node15 -->
<g id="node15" class="node">
<title>Node15</title>
<g id="a_node15"><a xlink:href="_game_character_8h.html" target="_top" xlink:title=" ">
<polygon fill="none" stroke="black" points="682.5,-280.5 682.5,-299.5 775.5,-299.5 775.5,-280.5 682.5,-280.5"/>
<text text-anchor="middle" x="729" y="-287.5" font-family="Helvetica,sans-Serif" font-size="10.00">GameCharacter.h</text>
</a>
</g>
</g>
<!-- Node1&#45;&gt;Node15 -->
<g id="edge23" class="edge">
<title>Node1&#45;&gt;Node15</title>
<path fill="none" stroke="midnightblue" d="M665.62,-383.96C681.87,-360.12 710.79,-317.71 723.14,-299.59"/>
<polygon fill="midnightblue" stroke="midnightblue" points="662.63,-382.13 659.89,-392.37 668.41,-386.08 662.63,-382.13"/>
</g>
<!-- Node17 -->
<g id="node17" class="node">
<title>Node17</title>
<g id="a_node17"><a xlink:href="_combat_2_mumy_8h.html" target="_top" xlink:title=" ">
<polygon fill="none" stroke="black" points="412,-224.5 412,-243.5 464,-243.5 464,-224.5 412,-224.5"/>
<text text-anchor="middle" x="438" y="-231.5" font-family="Helvetica,sans-Serif" font-size="10.00">Mumy.h</text>
</a>
</g>
</g>
<!-- Node1&#45;&gt;Node17 -->
<g id="edge41" class="edge">
<title>Node1&#45;&gt;Node17</title>
<path fill="none" stroke="midnightblue" d="M615.77,-389.11C574.7,-374.46 510.2,-345.74 472,-300 457.14,-282.21 446.23,-256.86 441.16,-243.69"/>
<polygon fill="midnightblue" stroke="midnightblue" points="614.83,-392.49 625.43,-392.45 617.12,-385.87 614.83,-392.49"/>
</g>
<!-- Node19 -->
<g id="node19" class="node">
<title>Node19</title>
<g id="a_node19"><a xlink:href="_combat_2_pharaoh_8h.html" target="_top" xlink:title=" ">
<polygon fill="none" stroke="black" points="752.5,-224.5 752.5,-243.5 813.5,-243.5 813.5,-224.5 752.5,-224.5"/>
<text text-anchor="middle" x="783" y="-231.5" font-family="Helvetica,sans-Serif" font-size="10.00">Pharaoh.h</text>
</a>
</g>
</g>
<!-- Node1&#45;&gt;Node19 -->
<g id="edge46" class="edge">
<title>Node1&#45;&gt;Node19</title>
<path fill="none" stroke="midnightblue" d="M683.52,-387.95C715.03,-372.21 763.22,-342.46 784,-300 793.03,-281.55 788.71,-256.48 785.47,-243.53"/>
<polygon fill="midnightblue" stroke="midnightblue" points="681.81,-384.89 674.32,-392.39 684.85,-391.2 681.81,-384.89"/>
</g>
<!-- Node21 -->
<g id="node21" class="node">
<title>Node21</title>
<g id="a_node21"><a xlink:href="_player_8h.html" target="_top" xlink:title=" ">
<polygon fill="none" stroke="black" points="558.5,-224.5 558.5,-243.5 611.5,-243.5 611.5,-224.5 558.5,-224.5"/>
<text text-anchor="middle" x="585" y="-231.5" font-family="Helvetica,sans-Serif" font-size="10.00">Player.h</text>
</a>
</g>
</g>
<!-- Node1&#45;&gt;Node21 -->
<g id="edge50" class="edge">
<title>Node1&#45;&gt;Node21</title>
<path fill="none" stroke="midnightblue" d="M647.51,-382.89C638.84,-359.06 622.75,-315.98 607,-280 601.35,-267.09 594.04,-252.5 589.44,-243.53"/>
<polygon fill="midnightblue" stroke="midnightblue" points="644.25,-384.17 650.94,-392.39 650.83,-381.8 644.25,-384.17"/>
</g>
<!-- Node23 -->
<g id="node23" class="node">
<title>Node23</title>
<g id="a_node23"><a xlink:href="_combat_2_shadow_8h.html" target="_top" xlink:title=" ">
<polygon fill="none" stroke="black" points="831.5,-224.5 831.5,-243.5 890.5,-243.5 890.5,-224.5 831.5,-224.5"/>
<text text-anchor="middle" x="861" y="-231.5" font-family="Helvetica,sans-Serif" font-size="10.00">Shadow.h</text>
</a>
</g>
</g>
<!-- Node1&#45;&gt;Node23 -->
<g id="edge52" class="edge">
<title>Node1&#45;&gt;Node23</title>
<path fill="none" stroke="midnightblue" d="M694.29,-389.24C715.44,-381.83 741.03,-370.84 761,-356 805.84,-322.68 842.99,-265.13 856.01,-243.53"/>
<polygon fill="midnightblue" stroke="midnightblue" points="692.98,-385.98 684.62,-392.48 695.21,-392.62 692.98,-385.98"/>
</g>
<!-- Node25 -->
<g id="node25" class="node">
<title>Node25</title>
<g id="a_node25"><a xlink:href="_inventory_8h.html" target="_top" xlink:title=" ">
<polygon fill="none" stroke="black" points="990.5,-336.5 990.5,-355.5 1053.5,-355.5 1053.5,-336.5 990.5,-336.5"/>
<text text-anchor="middle" x="1022" y="-343.5" font-family="Helvetica,sans-Serif" font-size="10.00">Inventory.h</text>
</a>
</g>
</g>
<!-- Node1&#45;&gt;Node25 -->
<g id="edge37" class="edge">
<title>Node1&#45;&gt;Node25</title>
<path fill="none" stroke="midnightblue" d="M700.79,-395.27C763.56,-387.4 878.44,-372.35 976,-356 980.65,-355.22 985.56,-354.33 990.37,-353.42"/>
<polygon fill="midnightblue" stroke="midnightblue" points="700.29,-391.81 690.8,-396.52 701.16,-398.75 700.29,-391.81"/>
</g>
<!-- Node27 -->
<g id="node27" class="node">
<title>Node27</title>
<g id="a_node27"><a xlink:href="_enemy_01_overworld_01_sprites_2_mumy_8h.html" target="_top" xlink:title=" ">
<polygon fill="none" stroke="black" points="1125,-336.5 1125,-355.5 1177,-355.5 1177,-336.5 1125,-336.5"/>
<text text-anchor="middle" x="1151" y="-343.5" font-family="Helvetica,sans-Serif" font-size="10.00">Mumy.h</text>
</a>
</g>
</g>
<!-- Node1&#45;&gt;Node27 -->
<g id="edge42" class="edge">
<title>Node1&#45;&gt;Node27</title>
<path fill="none" stroke="midnightblue" d="M700.59,-395.94C802.95,-384.82 1044.74,-358.55 1124.77,-349.85"/>
<polygon fill="midnightblue" stroke="midnightblue" points="700.11,-392.47 690.55,-397.03 700.87,-399.43 700.11,-392.47"/>
</g>
<!-- Node29 -->
<g id="node29" class="node">
<title>Node29</title>
<g id="a_node29"><a xlink:href="_enemy_01_overworld_01_sprites_2_pharaoh_8h.html" target="_top" xlink:title=" ">
<polygon fill="none" stroke="black" points="1217.5,-336.5 1217.5,-355.5 1278.5,-355.5 1278.5,-336.5 1217.5,-336.5"/>
<text text-anchor="middle" x="1248" y="-343.5" font-family="Helvetica,sans-Serif" font-size="10.00">Pharaoh.h</text>
</a>
</g>
</g>
<!-- Node1&#45;&gt;Node29 -->
<g id="edge47" class="edge">
<title>Node1&#45;&gt;Node29</title>
<path fill="none" stroke="midnightblue" d="M700.69,-397.99C793.37,-391.82 1007.11,-376.53 1186,-356 1196.27,-354.82 1207.45,-353.28 1217.46,-351.8"/>
<polygon fill="midnightblue" stroke="midnightblue" points="700.26,-394.51 690.52,-398.67 700.73,-401.5 700.26,-394.51"/>
</g>
<!-- Node31 -->
<g id="node31" class="node">
<title>Node31</title>
<g id="a_node31"><a xlink:href="_enemy_01_overworld_01_sprites_2_shadow_8h.html" target="_top" xlink:title=" ">
<polygon fill="none" stroke="black" points="1371.5,-336.5 1371.5,-355.5 1430.5,-355.5 1430.5,-336.5 1371.5,-336.5"/>
<text text-anchor="middle" x="1401" y="-343.5" font-family="Helvetica,sans-Serif" font-size="10.00">Shadow.h</text>
</a>
</g>
</g>
<!-- Node1&#45;&gt;Node31 -->
<g id="edge53" class="edge">
<title>Node1&#45;&gt;Node31</title>
<path fill="none" stroke="midnightblue" d="M701.09,-397.8C806.33,-390.61 1068.59,-372.52 1288,-356 1316.26,-353.87 1348.48,-351.29 1371.27,-349.44"/>
<polygon fill="midnightblue" stroke="midnightblue" points="700.55,-394.33 690.81,-398.5 701.03,-401.31 700.55,-394.33"/>
</g>
<!-- Node33 -->
<g id="node33" class="node">
<title>Node33</title>
<g id="a_node33"><a xlink:href="_sprite_8h.html" target="_top" xlink:title=" ">
<polygon fill="none" stroke="black" points="553,-336.5 553,-355.5 603,-355.5 603,-336.5 553,-336.5"/>
<text text-anchor="middle" x="578" y="-343.5" font-family="Helvetica,sans-Serif" font-size="10.00">Sprite.h</text>
</a>
</g>
</g>
<!-- Node1&#45;&gt;Node33 -->
<g id="edge56" class="edge">
<title>Node1&#45;&gt;Node33</title>
<path fill="none" stroke="midnightblue" d="M633.42,-386.38C619.69,-376.62 602.07,-364.11 590.43,-355.83"/>
<polygon fill="midnightblue" stroke="midnightblue" points="631.61,-389.38 641.79,-392.32 635.66,-383.68 631.61,-389.38"/>
</g>
<!-- Node35 -->
<g id="node35" class="node">
<title>Node35</title>
<g id="a_node35"><a xlink:href="_u_i_8h.html" target="_top" xlink:title=" ">
<polygon fill="none" stroke="black" points="909,-224.5 909,-243.5 943,-243.5 943,-224.5 909,-224.5"/>
<text text-anchor="middle" x="926" y="-231.5" font-family="Helvetica,sans-Serif" font-size="10.00">UI.h</text>
</a>
</g>
</g>
<!-- Node1&#45;&gt;Node35 -->
<g id="edge63" class="edge">
<title>Node1&#45;&gt;Node35</title>
<path fill="none" stroke="midnightblue" d="M700.4,-390.1C726.85,-382.73 760.01,-371.5 787,-356 843.88,-323.34 898.8,-265.4 918.42,-243.6"/>
<polygon fill="midnightblue" stroke="midnightblue" points="699.36,-386.75 690.62,-392.73 701.18,-393.51 699.36,-386.75"/>
</g>
<!-- Node3 -->
<g id="node3" class="node">
<title>Node3</title>
<g id="a_node3"><a xlink:href="_collision_8cpp.html" target="_top" xlink:title=" ">
<polygon fill="none" stroke="black" points="144,-56.5 144,-75.5 216,-75.5 216,-56.5 144,-56.5"/>
<text text-anchor="middle" x="180" y="-63.5" font-family="Helvetica,sans-Serif" font-size="10.00">Collision.cpp</text>
</a>
</g>
</g>
<!-- Node2&#45;&gt;Node3 -->
<g id="edge2" class="edge">
<title>Node2&#45;&gt;Node3</title>
<path fill="none" stroke="midnightblue" d="M164.8,-102.69C168.68,-93.59 173.18,-83.01 176.27,-75.75"/>
<polygon fill="midnightblue" stroke="midnightblue" points="161.5,-101.51 160.8,-112.08 167.94,-104.25 161.5,-101.51"/>
</g>
<!-- Node2&#45;&gt;Node4 -->
<g id="edge3" class="edge">
<title>Node2&#45;&gt;Node4</title>
<path fill="none" stroke="midnightblue" d="M140.11,-105.54C129.59,-95.91 116.43,-83.87 107.65,-75.83"/>
<polygon fill="midnightblue" stroke="midnightblue" points="137.78,-108.15 147.52,-112.32 142.51,-102.99 137.78,-108.15"/>
</g>
<!-- Node5 -->
<g id="node5" class="node">
<title>Node5</title>
<g id="a_node5"><a xlink:href="_puzzle_8cpp.html" target="_top" xlink:title=" ">
<polygon fill="none" stroke="black" points="65.5,-0.5 65.5,-19.5 130.5,-19.5 130.5,-0.5 65.5,-0.5"/>
<text text-anchor="middle" x="98" y="-7.5" font-family="Helvetica,sans-Serif" font-size="10.00">Puzzle.cpp</text>
</a>
</g>
</g>
<!-- Node4&#45;&gt;Node5 -->
<g id="edge4" class="edge">
<title>Node4&#45;&gt;Node5</title>
<path fill="none" stroke="midnightblue" d="M98,-45.8C98,-36.91 98,-26.78 98,-19.75"/>
<polygon fill="midnightblue" stroke="midnightblue" points="94.5,-46.08 98,-56.08 101.5,-46.08 94.5,-46.08"/>
</g>
<!-- Node4&#45;&gt;Node6 -->
<g id="edge5" class="edge">
<title>Node4&#45;&gt;Node6</title>
<path fill="none" stroke="midnightblue" d="M135.73,-56.19C416.26,-14.64 745.56,-11.06 842.73,-10.93"/>
<polygon fill="midnightblue" stroke="midnightblue" points="135.15,-52.74 125.78,-57.68 136.18,-59.66 135.15,-52.74"/>
</g>
<!-- Node8 -->
<g id="node8" class="node">
<title>Node8</title>
<g id="a_node8"><a xlink:href="_endscreen_8cpp.html" target="_top" xlink:title=" ">
<polygon fill="none" stroke="black" points="104,-280.5 104,-299.5 186,-299.5 186,-280.5 104,-280.5"/>
<text text-anchor="middle" x="145" y="-287.5" font-family="Helvetica,sans-Serif" font-size="10.00">Endscreen.cpp</text>
</a>
</g>
</g>
<!-- Node7&#45;&gt;Node8 -->
<g id="edge7" class="edge">
<title>Node7&#45;&gt;Node8</title>
<path fill="none" stroke="midnightblue" d="M225.7,-331.73C205.89,-321.73 179.29,-308.31 162.15,-299.65"/>
<polygon fill="midnightblue" stroke="midnightblue" points="224.3,-334.94 234.81,-336.32 227.46,-328.69 224.3,-334.94"/>
</g>
<!-- Node7&#45;&gt;Node9 -->
<g id="edge8" class="edge">
<title>Node7&#45;&gt;Node9</title>
<path fill="none" stroke="midnightblue" d="M239.66,-327.89C222.84,-302.3 197.57,-253.89 223,-224 255.39,-185.94 396.16,-198.59 445,-188 448.02,-187.35 451.17,-186.59 454.28,-185.79"/>
<polygon fill="midnightblue" stroke="midnightblue" points="236.82,-329.94 245.36,-336.21 242.59,-325.98 236.82,-329.94"/>
</g>
<!-- Node9&#45;&gt;Node2 -->
<g id="edge9" class="edge">
<title>Node9&#45;&gt;Node2</title>
<path fill="none" stroke="midnightblue" d="M444.41,-168.09C345.36,-147.26 239.73,-133.11 188.32,-126.73"/>
<polygon fill="midnightblue" stroke="midnightblue" points="443.77,-171.53 454.28,-170.19 445.23,-164.69 443.77,-171.53"/>
</g>
<!-- Node9&#45;&gt;Node6 -->
<g id="edge12" class="edge">
<title>Node9&#45;&gt;Node6</title>
<path fill="none" stroke="midnightblue" d="M475.33,-158.16C474.33,-144.46 474.99,-125.96 483,-112 504.8,-74.05 523.28,-72.04 564,-56 661.23,-17.7 787.4,-11.61 842.81,-10.9"/>
<polygon fill="midnightblue" stroke="midnightblue" points="471.88,-158.76 476.44,-168.32 478.84,-158 471.88,-158.76"/>
</g>
<!-- Node10 -->
<g id="node10" class="node">
<title>Node10</title>
<g id="a_node10"><a xlink:href="_level_8cpp.html" target="_top" xlink:title=" ">
<polygon fill="none" stroke="black" points="492.5,-112.5 492.5,-131.5 549.5,-131.5 549.5,-112.5 492.5,-112.5"/>
<text text-anchor="middle" x="521" y="-119.5" font-family="Helvetica,sans-Serif" font-size="10.00">Level.cpp</text>
</a>
</g>
</g>
<!-- Node9&#45;&gt;Node10 -->
<g id="edge10" class="edge">
<title>Node9&#45;&gt;Node10</title>
<path fill="none" stroke="midnightblue" d="M491.42,-160.14C498.91,-150.74 507.94,-139.4 514.03,-131.75"/>
<polygon fill="midnightblue" stroke="midnightblue" points="488.59,-158.08 485.1,-168.08 494.07,-162.44 488.59,-158.08"/>
</g>
<!-- Node11 -->
<g id="node11" class="node">
<title>Node11</title>
<g id="a_node11"><a xlink:href="_nemo_8cpp.html" target="_top" xlink:title=" ">
<polygon fill="none" stroke="black" points="374.5,-112.5 374.5,-131.5 435.5,-131.5 435.5,-112.5 374.5,-112.5"/>
<text text-anchor="middle" x="405" y="-119.5" font-family="Helvetica,sans-Serif" font-size="10.00">Nemo.cpp</text>
</a>
</g>
</g>
<!-- Node9&#45;&gt;Node11 -->
<g id="edge11" class="edge">
<title>Node9&#45;&gt;Node11</title>
<path fill="none" stroke="midnightblue" d="M457.86,-162.1C444.72,-152.38 428.02,-140.03 416.94,-131.83"/>
<polygon fill="midnightblue" stroke="midnightblue" points="456.15,-165.19 466.27,-168.32 460.31,-159.56 456.15,-165.19"/>
</g>
<!-- Node12&#45;&gt;Node1 -->
<g id="edge15" class="edge">
<title>Node12&#45;&gt;Node1</title>
<path fill="none" stroke="midnightblue" d="M334.06,-308.4C344.84,-323.56 359.76,-344.81 379,-356 419.3,-379.43 551.94,-392.62 617.25,-398.05"/>
<polygon fill="midnightblue" stroke="midnightblue" points="336.59,-305.92 327.87,-299.89 330.92,-310.04 336.59,-305.92"/>
</g>
<!-- Node12&#45;&gt;Node6 -->
<g id="edge22" class="edge">
<title>Node12&#45;&gt;Node6</title>
<path fill="none" stroke="midnightblue" d="M325.57,-270.88C333.87,-249.37 346,-212.21 346,-179 346,-179 346,-179 346,-121 346,-18.56 733.73,-10.95 842.77,-10.84"/>
<polygon fill="midnightblue" stroke="midnightblue" points="322.25,-269.77 321.78,-280.35 328.75,-272.37 322.25,-269.77"/>
</g>
<!-- Node13 -->
<g id="node13" class="node">
<title>Node13</title>
<g id="a_node13"><a xlink:href="_game_audio_8cpp.html" target="_top" xlink:title=" ">
<polygon fill="none" stroke="black" points="232,-224.5 232,-243.5 318,-243.5 318,-224.5 232,-224.5"/>
<text text-anchor="middle" x="275" y="-231.5" font-family="Helvetica,sans-Serif" font-size="10.00">GameAudio.cpp</text>
</a>
</g>
</g>
<!-- Node12&#45;&gt;Node13 -->
<g id="edge14" class="edge">
<title>Node12&#45;&gt;Node13</title>
<path fill="none" stroke="midnightblue" d="M304.58,-272.14C297.09,-262.74 288.06,-251.4 281.97,-243.75"/>
<polygon fill="midnightblue" stroke="midnightblue" points="301.93,-274.44 310.9,-280.08 307.41,-270.08 301.93,-274.44"/>
</g>
<!-- Node12&#45;&gt;Node14 -->
<g id="edge16" class="edge">
<title>Node12&#45;&gt;Node14</title>
<path fill="none" stroke="midnightblue" d="M281.71,-277.27C249.84,-266.96 204.3,-252.23 176.24,-243.16"/>
<polygon fill="midnightblue" stroke="midnightblue" points="280.95,-280.7 291.54,-280.44 283.1,-274.04 280.95,-280.7"/>
</g>
<!-- Node14&#45;&gt;Node2 -->
<g id="edge17" class="edge">
<title>Node14&#45;&gt;Node2</title>
<path fill="none" stroke="midnightblue" d="M152.02,-214.35C153.33,-190.25 155.57,-149.31 156.53,-131.59"/>
<polygon fill="midnightblue" stroke="midnightblue" points="148.52,-214.19 151.47,-224.37 155.51,-214.57 148.52,-214.19"/>
</g>
<!-- Node14&#45;&gt;Node4 -->
<g id="edge20" class="edge">
<title>Node14&#45;&gt;Node4</title>
<path fill="none" stroke="midnightblue" d="M144.67,-214.93C137.67,-194.78 126.17,-161.17 117,-132 110.72,-112.04 103.99,-88.41 100.47,-75.87"/>
<polygon fill="midnightblue" stroke="midnightblue" points="141.37,-216.1 147.97,-224.39 147.98,-213.8 141.37,-216.1"/>
</g>
<!-- Node14&#45;&gt;Node6 -->
<g id="edge21" class="edge">
<title>Node14&#45;&gt;Node6</title>
<path fill="none" stroke="midnightblue" d="M162.37,-215.59C187.68,-178.52 252.74,-92.23 332,-56 424.34,-13.79 745.29,-10.78 842.73,-10.86"/>
<polygon fill="midnightblue" stroke="midnightblue" points="159.21,-214.02 156.55,-224.28 165.02,-217.91 159.21,-214.02"/>
</g>
<!-- Node14&#45;&gt;Node9 -->
<g id="edge18" class="edge">
<title>Node14&#45;&gt;Node9</title>
<path fill="none" stroke="midnightblue" d="M186.14,-224.74C187.44,-224.48 188.73,-224.24 190,-224 302.54,-203.11 332.9,-211.1 445,-188 448.02,-187.38 451.18,-186.64 454.29,-185.85"/>
<polygon fill="midnightblue" stroke="midnightblue" points="185.17,-221.37 176.11,-226.87 186.62,-228.22 185.17,-221.37"/>
</g>
<!-- Node14&#45;&gt;Node11 -->
<g id="edge19" class="edge">
<title>Node14&#45;&gt;Node11</title>
<path fill="none" stroke="midnightblue" d="M181.82,-220.56C203.71,-211.66 233.75,-199.3 260,-188 305.61,-168.37 358.77,-144.21 386.31,-131.59"/>
<polygon fill="midnightblue" stroke="midnightblue" points="180.33,-217.39 172.38,-224.39 182.97,-223.88 180.33,-217.39"/>
</g>
<!-- Node16 -->
<g id="node16" class="node">
<title>Node16</title>
<g id="a_node16"><a xlink:href="_game_character_8cpp.html" target="_top" xlink:title=" ">
<polygon fill="none" stroke="black" points="630,-224.5 630,-243.5 734,-243.5 734,-224.5 630,-224.5"/>
<text text-anchor="middle" x="682" y="-231.5" font-family="Helvetica,sans-Serif" font-size="10.00">GameCharacter.cpp</text>
</a>
</g>
</g>
<!-- Node15&#45;&gt;Node16 -->
<g id="edge24" class="edge">
<title>Node15&#45;&gt;Node16</title>
<path fill="none" stroke="midnightblue" d="M714.58,-272.43C706.34,-262.97 696.35,-251.48 689.62,-243.75"/>
<polygon fill="midnightblue" stroke="midnightblue" points="712.03,-274.84 721.24,-280.08 717.31,-270.24 712.03,-274.84"/>
</g>
<!-- Node15&#45;&gt;Node17 -->
<g id="edge25" class="edge">
<title>Node15&#45;&gt;Node17</title>
<path fill="none" stroke="midnightblue" d="M672.76,-278.56C610.03,-266.92 511.2,-248.58 464.34,-239.89"/>
<polygon fill="midnightblue" stroke="midnightblue" points="672.42,-282.06 682.89,-280.44 673.7,-275.18 672.42,-282.06"/>
</g>
<!-- Node15&#45;&gt;Node19 -->
<g id="edge28" class="edge">
<title>Node15&#45;&gt;Node19</title>
<path fill="none" stroke="midnightblue" d="M745,-273C754.57,-263.43 766.36,-251.64 774.25,-243.75"/>
<polygon fill="midnightblue" stroke="midnightblue" points="742.51,-270.54 737.92,-280.08 747.46,-275.49 742.51,-270.54"/>
</g>
<!-- Node15&#45;&gt;Node21 -->
<g id="edge31" class="edge">
<title>Node15&#45;&gt;Node21</title>
<path fill="none" stroke="midnightblue" d="M696.75,-276.91C669.68,-266.75 631.68,-252.51 607.71,-243.52"/>
<polygon fill="midnightblue" stroke="midnightblue" points="695.59,-280.21 706.18,-280.44 698.05,-273.66 695.59,-280.21"/>
</g>
<!-- Node15&#45;&gt;Node23 -->
<g id="edge34" class="edge">
<title>Node15&#45;&gt;Node23</title>
<path fill="none" stroke="midnightblue" d="M759.22,-276.64C783.99,-266.5 818.4,-252.43 840.18,-243.52"/>
<polygon fill="midnightblue" stroke="midnightblue" points="757.85,-273.42 749.92,-280.44 760.5,-279.9 757.85,-273.42"/>
</g>
<!-- Node17&#45;&gt;Node9 -->
<g id="edge26" class="edge">
<title>Node17&#45;&gt;Node9</title>
<path fill="none" stroke="midnightblue" d="M450.7,-215.86C457.63,-206.5 465.91,-195.33 471.52,-187.75"/>
<polygon fill="midnightblue" stroke="midnightblue" points="447.75,-213.96 444.61,-224.08 453.37,-218.13 447.75,-213.96"/>
</g>
<!-- Node18 -->
<g id="node18" class="node">
<title>Node18</title>
<g id="a_node18"><a xlink:href="_combat_2_mumy_8cpp.html" target="_top" xlink:title=" ">
<polygon fill="none" stroke="black" points="374,-168.5 374,-187.5 436,-187.5 436,-168.5 374,-168.5"/>
<text text-anchor="middle" x="405" y="-175.5" font-family="Helvetica,sans-Serif" font-size="10.00">Mumy.cpp</text>
</a>
</g>
</g>
<!-- Node17&#45;&gt;Node18 -->
<g id="edge27" class="edge">
<title>Node17&#45;&gt;Node18</title>
<path fill="none" stroke="midnightblue" d="M427.17,-215.27C421.53,-206.05 414.88,-195.17 410.35,-187.75"/>
<polygon fill="midnightblue" stroke="midnightblue" points="424.35,-217.38 432.55,-224.08 430.32,-213.73 424.35,-217.38"/>
</g>
<!-- Node19&#45;&gt;Node9 -->
<g id="edge29" class="edge">
<title>Node19&#45;&gt;Node9</title>
<path fill="none" stroke="midnightblue" d="M742.38,-223.97C647.23,-205.39 546.75,-189.51 501.83,-182.61"/>
<polygon fill="midnightblue" stroke="midnightblue" points="741.97,-227.46 752.46,-225.95 743.32,-220.59 741.97,-227.46"/>
</g>
<!-- Node20 -->
<g id="node20" class="node">
<title>Node20</title>
<g id="a_node20"><a xlink:href="_combat_2_pharaoh_8cpp.html" target="_top" xlink:title=" ">
<polygon fill="none" stroke="black" points="683.5,-168.5 683.5,-187.5 754.5,-187.5 754.5,-168.5 683.5,-168.5"/>
<text text-anchor="middle" x="719" y="-175.5" font-family="Helvetica,sans-Serif" font-size="10.00">Pharaoh.cpp</text>
</a>
</g>
</g>
<!-- Node19&#45;&gt;Node20 -->
<g id="edge30" class="edge">
<title>Node19&#45;&gt;Node20</title>
<path fill="none" stroke="midnightblue" d="M765.01,-217.82C753.54,-208.15 739.09,-195.95 729.47,-187.83"/>
<polygon fill="midnightblue" stroke="midnightblue" points="762.82,-220.55 772.72,-224.32 767.33,-215.2 762.82,-220.55"/>
</g>
<!-- Node21&#45;&gt;Node9 -->
<g id="edge32" class="edge">
<title>Node21&#45;&gt;Node9</title>
<path fill="none" stroke="midnightblue" d="M558.7,-219.73C538.89,-209.73 512.29,-196.31 495.15,-187.65"/>
<polygon fill="midnightblue" stroke="midnightblue" points="557.3,-222.94 567.81,-224.32 560.46,-216.69 557.3,-222.94"/>
</g>
<!-- Node22 -->
<g id="node22" class="node">
<title>Node22</title>
<g id="a_node22"><a xlink:href="_player_8cpp.html" target="_top" xlink:title=" ">
<polygon fill="none" stroke="black" points="558.5,-168.5 558.5,-187.5 621.5,-187.5 621.5,-168.5 558.5,-168.5"/>
<text text-anchor="middle" x="590" y="-175.5" font-family="Helvetica,sans-Serif" font-size="10.00">Player.cpp</text>
</a>
</g>
</g>
<!-- Node21&#45;&gt;Node22 -->
<g id="edge33" class="edge">
<title>Node21&#45;&gt;Node22</title>
<path fill="none" stroke="midnightblue" d="M586.75,-214.1C587.58,-205.14 588.53,-194.86 589.19,-187.75"/>
<polygon fill="midnightblue" stroke="midnightblue" points="583.26,-213.8 585.83,-224.08 590.23,-214.45 583.26,-213.8"/>
</g>
<!-- Node23&#45;&gt;Node9 -->
<g id="edge35" class="edge">
<title>Node23&#45;&gt;Node9</title>
<path fill="none" stroke="midnightblue" d="M821.15,-224.2C769.59,-216.44 570.78,-190.89 501.72,-182.04"/>
<polygon fill="midnightblue" stroke="midnightblue" points="820.82,-227.69 831.25,-225.82 821.93,-220.78 820.82,-227.69"/>
</g>
<!-- Node24 -->
<g id="node24" class="node">
<title>Node24</title>
<g id="a_node24"><a xlink:href="_combat_2_shadow_8cpp.html" target="_top" xlink:title=" ">
<polygon fill="none" stroke="black" points="773,-168.5 773,-187.5 843,-187.5 843,-168.5 773,-168.5"/>
<text text-anchor="middle" x="808" y="-175.5" font-family="Helvetica,sans-Serif" font-size="10.00">Shadow.cpp</text>
</a>
</g>
</g>
<!-- Node23&#45;&gt;Node24 -->
<g id="edge36" class="edge">
<title>Node23&#45;&gt;Node24</title>
<path fill="none" stroke="midnightblue" d="M845.02,-216.72C835.68,-207.2 824.25,-195.56 816.59,-187.75"/>
<polygon fill="midnightblue" stroke="midnightblue" points="842.75,-219.4 852.25,-224.08 847.74,-214.49 842.75,-219.4"/>
</g>
<!-- Node25&#45;&gt;Node6 -->
<g id="edge39" class="edge">
<title>Node25&#45;&gt;Node6</title>
<path fill="none" stroke="midnightblue" d="M1019.57,-326.28C1015.81,-295.58 1009,-232.57 1009,-179 1009,-179 1009,-179 1009,-121 1009,-90.2 1006.53,-78.02 985,-56 961.94,-32.42 925.01,-20.9 899.46,-15.48"/>
<polygon fill="midnightblue" stroke="midnightblue" points="1016.12,-326.89 1020.85,-336.38 1023.07,-326.02 1016.12,-326.89"/>
</g>
<!-- Node26 -->
<g id="node26" class="node">
<title>Node26</title>
<g id="a_node26"><a xlink:href="_inventory_8cpp.html" target="_top" xlink:title=" ">
<polygon fill="none" stroke="black" points="1028,-280.5 1028,-299.5 1102,-299.5 1102,-280.5 1028,-280.5"/>
<text text-anchor="middle" x="1065" y="-287.5" font-family="Helvetica,sans-Serif" font-size="10.00">Inventory.cpp</text>
</a>
</g>
</g>
<!-- Node25&#45;&gt;Node26 -->
<g id="edge38" class="edge">
<title>Node25&#45;&gt;Node26</title>
<path fill="none" stroke="midnightblue" d="M1035.42,-328.14C1042.91,-318.74 1051.94,-307.4 1058.03,-299.75"/>
<polygon fill="midnightblue" stroke="midnightblue" points="1032.59,-326.08 1029.1,-336.08 1038.07,-330.44 1032.59,-326.08"/>
</g>
<!-- Node27&#45;&gt;Node6 -->
<g id="edge44" class="edge">
<title>Node27&#45;&gt;Node6</title>
<path fill="none" stroke="midnightblue" d="M1168.33,-329.07C1176.21,-321.02 1185.08,-310.7 1191,-300 1205.58,-273.67 1210,-265.1 1210,-235 1210,-235 1210,-235 1210,-121 1210,-55.8 980.25,-23.4 899.03,-13.98"/>
<polygon fill="midnightblue" stroke="midnightblue" points="1165.64,-326.81 1160.93,-336.3 1170.53,-331.82 1165.64,-326.81"/>
</g>
<!-- Node28 -->
<g id="node28" class="node">
<title>Node28</title>
<g id="a_node28"><a xlink:href="_enemy_01_overworld_01_sprites_2_mumy_8cpp.html" target="_top" xlink:title=" ">
<polygon fill="none" stroke="black" points="1120,-280.5 1120,-299.5 1182,-299.5 1182,-280.5 1120,-280.5"/>
<text text-anchor="middle" x="1151" y="-287.5" font-family="Helvetica,sans-Serif" font-size="10.00">Mumy.cpp</text>
</a>
</g>
</g>
<!-- Node27&#45;&gt;Node28 -->
<g id="edge43" class="edge">
<title>Node27&#45;&gt;Node28</title>
<path fill="none" stroke="midnightblue" d="M1151,-325.8C1151,-316.91 1151,-306.78 1151,-299.75"/>
<polygon fill="midnightblue" stroke="midnightblue" points="1147.5,-326.08 1151,-336.08 1154.5,-326.08 1147.5,-326.08"/>
</g>
<!-- Node29&#45;&gt;Node6 -->
<g id="edge49" class="edge">
<title>Node29&#45;&gt;Node6</title>
<path fill="none" stroke="midnightblue" d="M1248,-326.25C1248,-304.36 1248,-267.05 1248,-235 1248,-235 1248,-235 1248,-121 1248,-48.3 986.4,-20.39 899.03,-13.1"/>
<polygon fill="midnightblue" stroke="midnightblue" points="1244.5,-326.44 1248,-336.44 1251.5,-326.44 1244.5,-326.44"/>
</g>
<!-- Node30 -->
<g id="node30" class="node">
<title>Node30</title>
<g id="a_node30"><a xlink:href="_enemy_01_overworld_01_sprites_2_pharaoh_8cpp.html" target="_top" xlink:title=" ">
<polygon fill="none" stroke="black" points="1276.5,-280.5 1276.5,-299.5 1347.5,-299.5 1347.5,-280.5 1276.5,-280.5"/>
<text text-anchor="middle" x="1312" y="-287.5" font-family="Helvetica,sans-Serif" font-size="10.00">Pharaoh.cpp</text>
</a>
</g>
</g>
<!-- Node29&#45;&gt;Node30 -->
<g id="edge48" class="edge">
<title>Node29&#45;&gt;Node30</title>
<path fill="none" stroke="midnightblue" d="M1265.99,-329.82C1277.46,-320.15 1291.91,-307.95 1301.53,-299.83"/>
<polygon fill="midnightblue" stroke="midnightblue" points="1263.67,-327.2 1258.28,-336.32 1268.18,-332.55 1263.67,-327.2"/>
</g>
<!-- Node31&#45;&gt;Node6 -->
<g id="edge55" class="edge">
<title>Node31&#45;&gt;Node6</title>
<path fill="none" stroke="midnightblue" d="M1419.92,-329.55C1428.65,-321.54 1438.5,-311.12 1445,-300 1460.2,-274.02 1464,-265.1 1464,-235 1464,-235 1464,-235 1464,-121 1464,-62.82 1017.05,-22.75 899.2,-13.2"/>
<polygon fill="midnightblue" stroke="midnightblue" points="1417.57,-326.96 1412.34,-336.18 1422.17,-332.23 1417.57,-326.96"/>
</g>
<!-- Node32 -->
<g id="node32" class="node">
<title>Node32</title>
<g id="a_node32"><a xlink:href="_enemy_01_overworld_01_sprites_2_shadow_8cpp.html" target="_top" xlink:title=" ">
<polygon fill="none" stroke="black" points="1366,-280.5 1366,-299.5 1436,-299.5 1436,-280.5 1366,-280.5"/>
<text text-anchor="middle" x="1401" y="-287.5" font-family="Helvetica,sans-Serif" font-size="10.00">Shadow.cpp</text>
</a>
</g>
</g>
<!-- Node31&#45;&gt;Node32 -->
<g id="edge54" class="edge">
<title>Node31&#45;&gt;Node32</title>
<path fill="none" stroke="midnightblue" d="M1401,-325.8C1401,-316.91 1401,-306.78 1401,-299.75"/>
<polygon fill="midnightblue" stroke="midnightblue" points="1397.5,-326.08 1401,-336.08 1404.5,-326.08 1397.5,-326.08"/>
</g>
<!-- Node33&#45;&gt;Node6 -->
<g id="edge62" class="edge">
<title>Node33&#45;&gt;Node6</title>
<path fill="none" stroke="midnightblue" d="M572.41,-326.59C564.32,-299.77 550.16,-252.22 549,-244 544.29,-210.55 531.1,-196.64 549,-168 615.58,-61.46 777.57,-25.3 842.95,-14.79"/>
<polygon fill="midnightblue" stroke="midnightblue" points="569.12,-327.79 575.36,-336.34 575.82,-325.76 569.12,-327.79"/>
</g>
<!-- Node33&#45;&gt;Node9 -->
<g id="edge58" class="edge">
<title>Node33&#45;&gt;Node9</title>
<path fill="none" stroke="midnightblue" d="M542.86,-338.93C520.46,-333.05 493.09,-321.69 479,-300 472.93,-290.66 476.23,-213.81 477.54,-187.67"/>
<polygon fill="midnightblue" stroke="midnightblue" points="542.19,-342.37 552.73,-341.26 543.8,-335.56 542.19,-342.37"/>
</g>
<!-- Node33&#45;&gt;Node14 -->
<g id="edge59" class="edge">
<title>Node33&#45;&gt;Node14</title>
<path fill="none" stroke="midnightblue" d="M542.51,-343.81C484.36,-340.99 365.8,-331.52 271,-300 228.96,-286.02 184.31,-257.78 163.29,-243.57"/>
<polygon fill="midnightblue" stroke="midnightblue" points="542.5,-347.32 552.64,-344.27 542.81,-340.32 542.5,-347.32"/>
</g>
<!-- Node33&#45;&gt;Node15 -->
<g id="edge57" class="edge">
<title>Node33&#45;&gt;Node15</title>
<path fill="none" stroke="midnightblue" d="M611.45,-333.04C639.86,-322.88 679.94,-308.55 705.19,-299.52"/>
<polygon fill="midnightblue" stroke="midnightblue" points="610.16,-329.78 601.93,-336.44 612.52,-336.37 610.16,-329.78"/>
</g>
<!-- Node33&#45;&gt;Node21 -->
<g id="edge60" class="edge">
<title>Node33&#45;&gt;Node21</title>
<path fill="none" stroke="midnightblue" d="M585.05,-326.74C587.81,-318.67 590.63,-309 592,-300 595.04,-280.03 590.47,-256.4 587.4,-243.86"/>
<polygon fill="midnightblue" stroke="midnightblue" points="581.73,-325.63 581.6,-336.22 588.31,-328.02 581.73,-325.63"/>
</g>
<!-- Node34 -->
<g id="node34" class="node">
<title>Node34</title>
<g id="a_node34"><a xlink:href="_sprite_8cpp.html" target="_top" xlink:title=" ">
<polygon fill="none" stroke="black" points="488.5,-280.5 488.5,-299.5 549.5,-299.5 549.5,-280.5 488.5,-280.5"/>
<text text-anchor="middle" x="519" y="-287.5" font-family="Helvetica,sans-Serif" font-size="10.00">Sprite.cpp</text>
</a>
</g>
</g>
<!-- Node33&#45;&gt;Node34 -->
<g id="edge61" class="edge">
<title>Node33&#45;&gt;Node34</title>
<path fill="none" stroke="midnightblue" d="M561.11,-329.54C550.59,-319.91 537.43,-307.87 528.65,-299.83"/>
<polygon fill="midnightblue" stroke="midnightblue" points="558.78,-332.15 568.52,-336.32 563.51,-326.99 558.78,-332.15"/>
</g>
<!-- Node35&#45;&gt;Node6 -->
<g id="edge66" class="edge">
<title>Node35&#45;&gt;Node6</title>
<path fill="none" stroke="midnightblue" d="M909.4,-216.93C902.2,-208.94 894.41,-198.71 890,-188 865.04,-127.42 868.39,-45.79 870.28,-19.52"/>
<polygon fill="midnightblue" stroke="midnightblue" points="907.09,-219.57 916.53,-224.37 912.14,-214.73 907.09,-219.57"/>
</g>
<!-- Node35&#45;&gt;Node9 -->
<g id="edge64" class="edge">
<title>Node35&#45;&gt;Node9</title>
<path fill="none" stroke="midnightblue" d="M899,-224.26C745.11,-190.76 701.6,-205.5 549,-188 533.2,-186.19 515.45,-183.94 501.65,-182.14"/>
<polygon fill="midnightblue" stroke="midnightblue" points="898.3,-227.69 908.82,-226.43 899.81,-220.85 898.3,-227.69"/>
</g>
<!-- Node36 -->
<g id="node36" class="node">
<title>Node36</title>
<g id="a_node36"><a xlink:href="_u_i_8cpp.html" target="_top" xlink:title=" ">
<polygon fill="none" stroke="black" points="899,-168.5 899,-187.5 943,-187.5 943,-168.5 899,-168.5"/>
<text text-anchor="middle" x="921" y="-175.5" font-family="Helvetica,sans-Serif" font-size="10.00">UI.cpp</text>
</a>
</g>
</g>
<!-- Node35&#45;&gt;Node36 -->
<g id="edge65" class="edge">
<title>Node35&#45;&gt;Node36</title>
<path fill="none" stroke="midnightblue" d="M924.25,-214.1C923.42,-205.14 922.47,-194.86 921.81,-187.75"/>
<polygon fill="midnightblue" stroke="midnightblue" points="920.77,-214.45 925.17,-224.08 927.74,-213.8 920.77,-214.45"/>
</g>
</g>
</svg>
