<?xml version="1.0" encoding="UTF-8" standalone="no"?>
<!DOCTYPE svg PUBLIC "-//W3C//DTD SVG 1.1//EN"
 "http://www.w3.org/Graphics/SVG/1.1/DTD/svg11.dtd">
<!-- Generated by graphviz version 3.0.0 (20220226.1711)
 -->
<!-- Title: Level.h Pages: 1 -->
<svg width="1549pt" height="308pt"
 viewBox="0.00 0.00 1548.50 308.00" xmlns="http://www.w3.org/2000/svg" xmlns:xlink="http://www.w3.org/1999/xlink">
<g id="graph0" class="graph" transform="scale(1 1) rotate(0) translate(4 304)">
<title>Level.h</title>
<!-- Node1 -->
<g id="node1" class="node">
<title>Node1</title>
<g id="a_node1"><a xlink:title=" ">
<polygon fill="#bfbfbf" stroke="black" points="973,-280.5 973,-299.5 1020,-299.5 1020,-280.5 973,-280.5"/>
<text text-anchor="middle" x="996.5" y="-287.5" font-family="Helvetica,sans-Serif" font-size="10.00">Level.h</text>
</a>
</g>
</g>
<!-- Node2 -->
<g id="node2" class="node">
<title>Node2</title>
<g id="a_node2"><a xlink:href="_combat_2_mumy_8h.html" target="_top" xlink:title=" ">
<polygon fill="none" stroke="black" points="546.5,-224.5 546.5,-243.5 644.5,-243.5 644.5,-224.5 546.5,-224.5"/>
<text text-anchor="middle" x="595.5" y="-231.5" font-family="Helvetica,sans-Serif" font-size="10.00">../Combat/Mumy.h</text>
</a>
</g>
</g>
<!-- Node1&#45;&gt;Node2 -->
<g id="edge1" class="edge">
<title>Node1&#45;&gt;Node2</title>
<path fill="none" stroke="midnightblue" d="M972.77,-286.08C918.48,-279.36 780.81,-262.09 654.75,-244.15"/>
<polygon fill="midnightblue" stroke="midnightblue" points="654.93,-240.64 644.54,-242.69 653.94,-247.57 654.93,-240.64"/>
</g>
<!-- Node3 -->
<g id="node3" class="node">
<title>Node3</title>
<g id="a_node3"><a xlink:href="_i_n_c_l_u_d_e_s_8h.html" target="_top" xlink:title=" ">
<polygon fill="none" stroke="black" points="760.5,-56.5 760.5,-75.5 842.5,-75.5 842.5,-56.5 760.5,-56.5"/>
<text text-anchor="middle" x="801.5" y="-63.5" font-family="Helvetica,sans-Serif" font-size="10.00">../INCLUDES.h</text>
</a>
</g>
</g>
<!-- Node1&#45;&gt;Node3 -->
<g id="edge41" class="edge">
<title>Node1&#45;&gt;Node3</title>
<path fill="none" stroke="midnightblue" d="M972.97,-288.5C883.36,-286.36 567.01,-276.55 537.5,-244 494.75,-196.85 435.14,-235.48 617.5,-112 657,-85.26 710.8,-74.37 750.02,-69.96"/>
<polygon fill="midnightblue" stroke="midnightblue" points="750.57,-73.42 760.17,-68.93 749.86,-66.46 750.57,-73.42"/>
</g>
<!-- Node10 -->
<g id="node10" class="node">
<title>Node10</title>
<g id="a_node10"><a xlink:title=" ">
<polygon fill="none" stroke="#bfbfbf" points="1490.5,-0.5 1490.5,-19.5 1540.5,-19.5 1540.5,-0.5 1490.5,-0.5"/>
<text text-anchor="middle" x="1515.5" y="-7.5" font-family="Helvetica,sans-Serif" font-size="10.00">config.h</text>
</a>
</g>
</g>
<!-- Node1&#45;&gt;Node10 -->
<g id="edge51" class="edge">
<title>Node1&#45;&gt;Node10</title>
<path fill="none" stroke="midnightblue" d="M1020.03,-287.73C1106.46,-282.45 1401.5,-258.6 1401.5,-179 1401.5,-179 1401.5,-179 1401.5,-121 1401.5,-74.11 1452.05,-40.89 1485.83,-23.93"/>
<polygon fill="midnightblue" stroke="midnightblue" points="1487.37,-27.07 1494.86,-19.58 1484.33,-20.77 1487.37,-27.07"/>
</g>
<!-- Node28 -->
<g id="node28" class="node">
<title>Node28</title>
<g id="a_node28"><a xlink:href="_sprite_8h.html" target="_top" xlink:title=" ">
<polygon fill="none" stroke="black" points="848.5,-112.5 848.5,-131.5 936.5,-131.5 936.5,-112.5 848.5,-112.5"/>
<text text-anchor="middle" x="892.5" y="-119.5" font-family="Helvetica,sans-Serif" font-size="10.00">../Sprite/Sprite.h</text>
</a>
</g>
</g>
<!-- Node1&#45;&gt;Node28 -->
<g id="edge48" class="edge">
<title>Node1&#45;&gt;Node28</title>
<path fill="none" stroke="midnightblue" d="M1003.39,-280.31C1012.58,-267.57 1026.7,-243.26 1017.5,-224 997.64,-182.43 951.39,-152.46 921.06,-136.43"/>
<polygon fill="midnightblue" stroke="midnightblue" points="922.33,-133.14 911.83,-131.72 919.14,-139.38 922.33,-133.14"/>
</g>
<!-- Node29 -->
<g id="node29" class="node">
<title>Node29</title>
<g id="a_node29"><a xlink:href="_player_8h.html" target="_top" xlink:title=" ">
<polygon fill="none" stroke="black" points="662.5,-224.5 662.5,-243.5 760.5,-243.5 760.5,-224.5 662.5,-224.5"/>
<text text-anchor="middle" x="711.5" y="-231.5" font-family="Helvetica,sans-Serif" font-size="10.00">../Combat/Player.h</text>
</a>
</g>
</g>
<!-- Node1&#45;&gt;Node29 -->
<g id="edge31" class="edge">
<title>Node1&#45;&gt;Node29</title>
<path fill="none" stroke="midnightblue" d="M972.69,-284.49C927.64,-275.95 828.86,-257.24 766.52,-245.42"/>
<polygon fill="midnightblue" stroke="midnightblue" points="766.94,-241.94 756.46,-243.52 765.63,-248.82 766.94,-241.94"/>
</g>
<!-- Node30 -->
<g id="node30" class="node">
<title>Node30</title>
<g id="a_node30"><a xlink:href="_combat_2_shadow_8h.html" target="_top" xlink:title=" ">
<polygon fill="none" stroke="black" points="779,-224.5 779,-243.5 884,-243.5 884,-224.5 779,-224.5"/>
<text text-anchor="middle" x="831.5" y="-231.5" font-family="Helvetica,sans-Serif" font-size="10.00">../Combat/Shadow.h</text>
</a>
</g>
</g>
<!-- Node1&#45;&gt;Node30 -->
<g id="edge35" class="edge">
<title>Node1&#45;&gt;Node30</title>
<path fill="none" stroke="midnightblue" d="M972.86,-281.26C945.28,-272.24 899.39,-257.22 867.4,-246.75"/>
<polygon fill="midnightblue" stroke="midnightblue" points="868.14,-243.31 857.55,-243.52 865.96,-249.96 868.14,-243.31"/>
</g>
<!-- Node31 -->
<g id="node31" class="node">
<title>Node31</title>
<g id="a_node31"><a xlink:href="_combat_2_pharaoh_8h.html" target="_top" xlink:title=" ">
<polygon fill="none" stroke="black" points="902,-224.5 902,-243.5 1009,-243.5 1009,-224.5 902,-224.5"/>
<text text-anchor="middle" x="955.5" y="-231.5" font-family="Helvetica,sans-Serif" font-size="10.00">../Combat/Pharaoh.h</text>
</a>
</g>
</g>
<!-- Node1&#45;&gt;Node31 -->
<g id="edge38" class="edge">
<title>Node1&#45;&gt;Node31</title>
<path fill="none" stroke="midnightblue" d="M989.73,-280.08C983.94,-272.46 975.44,-261.26 968.36,-251.94"/>
<polygon fill="midnightblue" stroke="midnightblue" points="970.98,-249.6 962.14,-243.75 965.4,-253.83 970.98,-249.6"/>
</g>
<!-- Node32 -->
<g id="node32" class="node">
<title>Node32</title>
<g id="a_node32"><a xlink:href="_nemo_8h.html" target="_top" xlink:title=" ">
<polygon fill="none" stroke="black" points="1030.5,-168.5 1030.5,-187.5 1120.5,-187.5 1120.5,-168.5 1030.5,-168.5"/>
<text text-anchor="middle" x="1075.5" y="-175.5" font-family="Helvetica,sans-Serif" font-size="10.00">../Player/Nemo.h</text>
</a>
</g>
</g>
<!-- Node1&#45;&gt;Node32 -->
<g id="edge42" class="edge">
<title>Node1&#45;&gt;Node32</title>
<path fill="none" stroke="midnightblue" d="M1010.97,-280.31C1023.26,-272.27 1040.61,-259.27 1051.5,-244 1061.53,-229.93 1067.86,-211.19 1071.48,-197.45"/>
<polygon fill="midnightblue" stroke="midnightblue" points="1074.9,-198.23 1073.83,-187.69 1068.09,-196.59 1074.9,-198.23"/>
</g>
<!-- Node33 -->
<g id="node33" class="node">
<title>Node33</title>
<g id="a_node33"><a xlink:href="_u_i_8h.html" target="_top" xlink:title=" ">
<polygon fill="none" stroke="black" points="1097.5,-112.5 1097.5,-131.5 1131.5,-131.5 1131.5,-112.5 1097.5,-112.5"/>
<text text-anchor="middle" x="1114.5" y="-119.5" font-family="Helvetica,sans-Serif" font-size="10.00">UI.h</text>
</a>
</g>
</g>
<!-- Node1&#45;&gt;Node33 -->
<g id="edge46" class="edge">
<title>Node1&#45;&gt;Node33</title>
<path fill="none" stroke="midnightblue" d="M1019.04,-280.4C1051.32,-266.62 1109.05,-236.17 1129.5,-188 1135.99,-172.71 1130.5,-154.15 1124.41,-140.78"/>
<polygon fill="midnightblue" stroke="midnightblue" points="1127.47,-139.06 1119.83,-131.71 1121.22,-142.22 1127.47,-139.06"/>
</g>
<!-- Node34 -->
<g id="node34" class="node">
<title>Node34</title>
<g id="a_node34"><a xlink:href="_endscreen_8h.html" target="_top" xlink:title=" ">
<polygon fill="none" stroke="black" points="1150,-112.5 1150,-131.5 1255,-131.5 1255,-112.5 1150,-112.5"/>
<text text-anchor="middle" x="1202.5" y="-119.5" font-family="Helvetica,sans-Serif" font-size="10.00">../Level/Endscreen.h</text>
</a>
</g>
</g>
<!-- Node1&#45;&gt;Node34 -->
<g id="edge49" class="edge">
<title>Node1&#45;&gt;Node34</title>
<path fill="none" stroke="midnightblue" d="M1020.2,-283.4C1044.21,-276.88 1081.56,-264.32 1108.5,-244 1146.94,-215.01 1178.01,-166.54 1192.92,-140.62"/>
<polygon fill="midnightblue" stroke="midnightblue" points="1196.14,-142.02 1197.98,-131.58 1190.04,-138.6 1196.14,-142.02"/>
</g>
<!-- Node2&#45;&gt;Node3 -->
<g id="edge2" class="edge">
<title>Node2&#45;&gt;Node3</title>
<path fill="none" stroke="midnightblue" d="M591.32,-224.22C585.65,-210.95 577.46,-185.46 588.5,-168 623.88,-112.07 699.56,-86.5 750.51,-75.25"/>
<polygon fill="midnightblue" stroke="midnightblue" points="751.28,-78.66 760.35,-73.18 749.84,-71.81 751.28,-78.66"/>
</g>
<!-- Node26 -->
<g id="node26" class="node">
<title>Node26</title>
<g id="a_node26"><a xlink:title=" ">
<polygon fill="none" stroke="#bfbfbf" points="597.5,-168.5 597.5,-187.5 643.5,-187.5 643.5,-168.5 597.5,-168.5"/>
<text text-anchor="middle" x="620.5" y="-175.5" font-family="Helvetica,sans-Serif" font-size="10.00">cstring</text>
</a>
</g>
</g>
<!-- Node2&#45;&gt;Node26 -->
<g id="edge26" class="edge">
<title>Node2&#45;&gt;Node26</title>
<path fill="none" stroke="midnightblue" d="M599.63,-224.08C603.01,-216.77 607.92,-206.18 612.12,-197.1"/>
<polygon fill="midnightblue" stroke="midnightblue" points="615.42,-198.3 616.45,-187.75 609.07,-195.36 615.42,-198.3"/>
</g>
<!-- Node27 -->
<g id="node27" class="node">
<title>Node27</title>
<g id="a_node27"><a xlink:href="_game_character_8h.html" target="_top" xlink:title=" ">
<polygon fill="none" stroke="black" points="738,-168.5 738,-187.5 831,-187.5 831,-168.5 738,-168.5"/>
<text text-anchor="middle" x="784.5" y="-175.5" font-family="Helvetica,sans-Serif" font-size="10.00">GameCharacter.h</text>
</a>
</g>
</g>
<!-- Node2&#45;&gt;Node27 -->
<g id="edge27" class="edge">
<title>Node2&#45;&gt;Node27</title>
<path fill="none" stroke="midnightblue" d="M625.45,-224.44C657.66,-215.24 709.03,-200.56 744.64,-190.39"/>
<polygon fill="midnightblue" stroke="midnightblue" points="746.04,-193.63 754.69,-187.52 744.12,-186.9 746.04,-193.63"/>
</g>
<!-- Node4 -->
<g id="node4" class="node">
<title>Node4</title>
<g id="a_node4"><a xlink:title=" ">
<polygon fill="none" stroke="#bfbfbf" points="1093,-0.5 1093,-19.5 1142,-19.5 1142,-0.5 1093,-0.5"/>
<text text-anchor="middle" x="1117.5" y="-7.5" font-family="Helvetica,sans-Serif" font-size="10.00">string.h</text>
</a>
</g>
</g>
<!-- Node3&#45;&gt;Node4 -->
<g id="edge3" class="edge">
<title>Node3&#45;&gt;Node4</title>
<path fill="none" stroke="midnightblue" d="M842.84,-59.73C896.07,-52.65 991.6,-38.97 1082.74,-19.97"/>
<polygon fill="midnightblue" stroke="midnightblue" points="1083.62,-23.36 1092.69,-17.88 1082.18,-16.52 1083.62,-23.36"/>
</g>
<!-- Node5 -->
<g id="node5" class="node">
<title>Node5</title>
<g id="a_node5"><a xlink:title=" ">
<polygon fill="none" stroke="#bfbfbf" points="1160.5,-0.5 1160.5,-19.5 1208.5,-19.5 1208.5,-0.5 1160.5,-0.5"/>
<text text-anchor="middle" x="1184.5" y="-7.5" font-family="Helvetica,sans-Serif" font-size="10.00">raylib.h</text>
</a>
</g>
</g>
<!-- Node3&#45;&gt;Node5 -->
<g id="edge4" class="edge">
<title>Node3&#45;&gt;Node5</title>
<path fill="none" stroke="midnightblue" d="M842.75,-61.56C906.71,-55.82 1033.76,-42.81 1150.61,-19.93"/>
<polygon fill="midnightblue" stroke="midnightblue" points="1151.31,-23.36 1160.44,-17.97 1149.95,-16.49 1151.31,-23.36"/>
</g>
<!-- Node6 -->
<g id="node6" class="node">
<title>Node6</title>
<g id="a_node6"><a xlink:title=" ">
<polygon fill="none" stroke="#bfbfbf" points="1226.5,-0.5 1226.5,-19.5 1286.5,-19.5 1286.5,-0.5 1226.5,-0.5"/>
<text text-anchor="middle" x="1256.5" y="-7.5" font-family="Helvetica,sans-Serif" font-size="10.00">raymath.h</text>
</a>
</g>
</g>
<!-- Node3&#45;&gt;Node6 -->
<g id="edge5" class="edge">
<title>Node3&#45;&gt;Node6</title>
<path fill="none" stroke="midnightblue" d="M842.76,-62.17C915.99,-56.8 1073.61,-43.65 1216.11,-20.05"/>
<polygon fill="midnightblue" stroke="midnightblue" points="1217.05,-23.44 1226.34,-18.33 1215.9,-16.54 1217.05,-23.44"/>
</g>
<!-- Node7 -->
<g id="node7" class="node">
<title>Node7</title>
<g id="a_node7"><a xlink:title=" ">
<polygon fill="none" stroke="#bfbfbf" points="1304.5,-0.5 1304.5,-19.5 1352.5,-19.5 1352.5,-0.5 1304.5,-0.5"/>
<text text-anchor="middle" x="1328.5" y="-7.5" font-family="Helvetica,sans-Serif" font-size="10.00">stdlib.h</text>
</a>
</g>
</g>
<!-- Node3&#45;&gt;Node7 -->
<g id="edge6" class="edge">
<title>Node3&#45;&gt;Node7</title>
<path fill="none" stroke="midnightblue" d="M842.81,-63.68C926.44,-60.49 1121.76,-50.37 1294.43,-19.88"/>
<polygon fill="midnightblue" stroke="midnightblue" points="1295.24,-23.29 1304.46,-18.08 1294,-16.4 1295.24,-23.29"/>
</g>
<!-- Node8 -->
<g id="node8" class="node">
<title>Node8</title>
<g id="a_node8"><a xlink:title=" ">
<polygon fill="none" stroke="#bfbfbf" points="0,-0.5 0,-19.5 45,-19.5 45,-0.5 0,-0.5"/>
<text text-anchor="middle" x="22.5" y="-7.5" font-family="Helvetica,sans-Serif" font-size="10.00">cstdlib</text>
</a>
</g>
</g>
<!-- Node3&#45;&gt;Node8 -->
<g id="edge7" class="edge">
<title>Node3&#45;&gt;Node8</title>
<path fill="none" stroke="midnightblue" d="M760.26,-65.59C648.16,-66.55 328.58,-64.95 55.2,-19.7"/>
<polygon fill="midnightblue" stroke="midnightblue" points="55.53,-16.2 45.09,-18 54.37,-23.11 55.53,-16.2"/>
</g>
<!-- Node9 -->
<g id="node9" class="node">
<title>Node9</title>
<g id="a_node9"><a xlink:title=" ">
<polygon fill="none" stroke="#bfbfbf" points="63.5,-0.5 63.5,-19.5 109.5,-19.5 109.5,-0.5 63.5,-0.5"/>
<text text-anchor="middle" x="86.5" y="-7.5" font-family="Helvetica,sans-Serif" font-size="10.00">stdio.h</text>
</a>
</g>
</g>
<!-- Node3&#45;&gt;Node9 -->
<g id="edge8" class="edge">
<title>Node3&#45;&gt;Node9</title>
<path fill="none" stroke="midnightblue" d="M760.35,-65.26C654.98,-65.29 366.91,-61.41 119.68,-19.84"/>
<polygon fill="midnightblue" stroke="midnightblue" points="120.24,-16.39 109.79,-18.16 119.06,-23.29 120.24,-16.39"/>
</g>
<!-- Node3&#45;&gt;Node10 -->
<g id="edge9" class="edge">
<title>Node3&#45;&gt;Node10</title>
<path fill="none" stroke="midnightblue" d="M842.82,-65.03C947.91,-64.5 1233.89,-59.41 1480.15,-19.89"/>
<polygon fill="midnightblue" stroke="midnightblue" points="1481.06,-23.29 1490.37,-18.23 1479.93,-16.38 1481.06,-23.29"/>
</g>
<!-- Node11 -->
<g id="node11" class="node">
<title>Node11</title>
<g id="a_node11"><a xlink:title=" ">
<polygon fill="none" stroke="#bfbfbf" points="128,-0.5 128,-19.5 187,-19.5 187,-0.5 128,-0.5"/>
<text text-anchor="middle" x="157.5" y="-7.5" font-family="Helvetica,sans-Serif" font-size="10.00">process.h</text>
</a>
</g>
</g>
<!-- Node3&#45;&gt;Node11 -->
<g id="edge10" class="edge">
<title>Node3&#45;&gt;Node11</title>
<path fill="none" stroke="midnightblue" d="M760.46,-64.19C663.78,-61.81 414.08,-52.87 197.26,-20.05"/>
<polygon fill="midnightblue" stroke="midnightblue" points="197.7,-16.58 187.28,-18.52 196.64,-23.5 197.7,-16.58"/>
</g>
<!-- Node12 -->
<g id="node12" class="node">
<title>Node12</title>
<g id="a_node12"><a xlink:title=" ">
<polygon fill="none" stroke="#bfbfbf" points="205,-0.5 205,-19.5 246,-19.5 246,-0.5 205,-0.5"/>
<text text-anchor="middle" x="225.5" y="-7.5" font-family="Helvetica,sans-Serif" font-size="10.00">string</text>
</a>
</g>
</g>
<!-- Node3&#45;&gt;Node12 -->
<g id="edge11" class="edge">
<title>Node3&#45;&gt;Node12</title>
<path fill="none" stroke="midnightblue" d="M760.35,-64.54C670.38,-62.9 449.44,-55.46 256.08,-19.67"/>
<polygon fill="midnightblue" stroke="midnightblue" points="256.49,-16.18 246.02,-17.77 255.2,-23.06 256.49,-16.18"/>
</g>
<!-- Node13 -->
<g id="node13" class="node">
<title>Node13</title>
<g id="a_node13"><a xlink:title=" ">
<polygon fill="none" stroke="#bfbfbf" points="264.5,-0.5 264.5,-19.5 302.5,-19.5 302.5,-0.5 264.5,-0.5"/>
<text text-anchor="middle" x="283.5" y="-7.5" font-family="Helvetica,sans-Serif" font-size="10.00">array</text>
</a>
</g>
</g>
<!-- Node3&#45;&gt;Node13 -->
<g id="edge12" class="edge">
<title>Node3&#45;&gt;Node13</title>
<path fill="none" stroke="midnightblue" d="M760.4,-64.26C677.25,-62.11 483.14,-53.8 312.54,-19.77"/>
<polygon fill="midnightblue" stroke="midnightblue" points="313.13,-16.32 302.63,-17.76 311.74,-23.18 313.13,-16.32"/>
</g>
<!-- Node14 -->
<g id="node14" class="node">
<title>Node14</title>
<g id="a_node14"><a xlink:title=" ">
<polygon fill="none" stroke="#bfbfbf" points="320.5,-0.5 320.5,-19.5 362.5,-19.5 362.5,-0.5 320.5,-0.5"/>
<text text-anchor="middle" x="341.5" y="-7.5" font-family="Helvetica,sans-Serif" font-size="10.00">vector</text>
</a>
</g>
</g>
<!-- Node3&#45;&gt;Node14 -->
<g id="edge13" class="edge">
<title>Node3&#45;&gt;Node14</title>
<path fill="none" stroke="midnightblue" d="M760.21,-63.25C684.87,-59.51 520.06,-48.75 372.8,-19.91"/>
<polygon fill="midnightblue" stroke="midnightblue" points="373.17,-16.41 362.68,-17.89 371.8,-23.28 373.17,-16.41"/>
</g>
<!-- Node15 -->
<g id="node15" class="node">
<title>Node15</title>
<g id="a_node15"><a xlink:title=" ">
<polygon fill="none" stroke="#bfbfbf" points="380.5,-0.5 380.5,-19.5 424.5,-19.5 424.5,-0.5 380.5,-0.5"/>
<text text-anchor="middle" x="402.5" y="-7.5" font-family="Helvetica,sans-Serif" font-size="10.00">cmath</text>
</a>
</g>
</g>
<!-- Node3&#45;&gt;Node15 -->
<g id="edge14" class="edge">
<title>Node3&#45;&gt;Node15</title>
<path fill="none" stroke="midnightblue" d="M760.31,-62.14C693.71,-57.04 558.17,-44.71 434.74,-19.96"/>
<polygon fill="midnightblue" stroke="midnightblue" points="435.24,-16.49 424.74,-17.92 433.84,-23.35 435.24,-16.49"/>
</g>
<!-- Node16 -->
<g id="node16" class="node">
<title>Node16</title>
<g id="a_node16"><a xlink:title=" ">
<polygon fill="none" stroke="#bfbfbf" points="442.5,-0.5 442.5,-19.5 494.5,-19.5 494.5,-0.5 442.5,-0.5"/>
<text text-anchor="middle" x="468.5" y="-7.5" font-family="Helvetica,sans-Serif" font-size="10.00">memory</text>
</a>
</g>
</g>
<!-- Node3&#45;&gt;Node16 -->
<g id="edge15" class="edge">
<title>Node3&#45;&gt;Node16</title>
<path fill="none" stroke="midnightblue" d="M760.29,-60.13C704.49,-53.23 601.63,-39.48 504.76,-20.09"/>
<polygon fill="midnightblue" stroke="midnightblue" points="505.3,-16.63 494.81,-18.07 503.91,-23.49 505.3,-16.63"/>
</g>
<!-- Node17 -->
<g id="node17" class="node">
<title>Node17</title>
<g id="a_node17"><a xlink:title=" ">
<polygon fill="none" stroke="#bfbfbf" points="513,-0.5 513,-19.5 554,-19.5 554,-0.5 513,-0.5"/>
<text text-anchor="middle" x="533.5" y="-7.5" font-family="Helvetica,sans-Serif" font-size="10.00">ctime</text>
</a>
</g>
</g>
<!-- Node3&#45;&gt;Node17 -->
<g id="edge16" class="edge">
<title>Node3&#45;&gt;Node17</title>
<path fill="none" stroke="midnightblue" d="M760.37,-58.57C714.75,-51.13 638.81,-37.89 564.13,-19.93"/>
<polygon fill="midnightblue" stroke="midnightblue" points="564.62,-16.45 554.08,-17.48 562.97,-23.25 564.62,-16.45"/>
</g>
<!-- Node18 -->
<g id="node18" class="node">
<title>Node18</title>
<g id="a_node18"><a xlink:title=" ">
<polygon fill="none" stroke="#bfbfbf" points="572.5,-0.5 572.5,-19.5 618.5,-19.5 618.5,-0.5 572.5,-0.5"/>
<text text-anchor="middle" x="595.5" y="-7.5" font-family="Helvetica,sans-Serif" font-size="10.00">chrono</text>
</a>
</g>
</g>
<!-- Node3&#45;&gt;Node18 -->
<g id="edge17" class="edge">
<title>Node3&#45;&gt;Node18</title>
<path fill="none" stroke="midnightblue" d="M767.76,-56.5C734.65,-48.11 682.48,-34.75 628.33,-20.18"/>
<polygon fill="midnightblue" stroke="midnightblue" points="629.12,-16.77 618.56,-17.55 627.3,-23.53 629.12,-16.77"/>
</g>
<!-- Node19 -->
<g id="node19" class="node">
<title>Node19</title>
<g id="a_node19"><a xlink:title=" ">
<polygon fill="none" stroke="#bfbfbf" points="636.5,-0.5 636.5,-19.5 688.5,-19.5 688.5,-0.5 636.5,-0.5"/>
<text text-anchor="middle" x="662.5" y="-7.5" font-family="Helvetica,sans-Serif" font-size="10.00">sstream</text>
</a>
</g>
</g>
<!-- Node3&#45;&gt;Node19 -->
<g id="edge18" class="edge">
<title>Node3&#45;&gt;Node19</title>
<path fill="none" stroke="midnightblue" d="M779.48,-56.44C756.4,-47.48 719.94,-33.31 693.86,-23.18"/>
<polygon fill="midnightblue" stroke="midnightblue" points="695.01,-19.88 684.42,-19.52 692.48,-26.4 695.01,-19.88"/>
</g>
<!-- Node20 -->
<g id="node20" class="node">
<title>Node20</title>
<g id="a_node20"><a xlink:title=" ">
<polygon fill="none" stroke="#bfbfbf" points="707,-0.5 707,-19.5 756,-19.5 756,-0.5 707,-0.5"/>
<text text-anchor="middle" x="731.5" y="-7.5" font-family="Helvetica,sans-Serif" font-size="10.00">fstream</text>
</a>
</g>
</g>
<!-- Node3&#45;&gt;Node20 -->
<g id="edge19" class="edge">
<title>Node3&#45;&gt;Node20</title>
<path fill="none" stroke="midnightblue" d="M790.25,-56.32C779.7,-48.18 763.7,-35.84 751.06,-26.09"/>
<polygon fill="midnightblue" stroke="midnightblue" points="753.01,-23.17 742.95,-19.83 748.73,-28.71 753.01,-23.17"/>
</g>
<!-- Node21 -->
<g id="node21" class="node">
<title>Node21</title>
<g id="a_node21"><a xlink:title=" ">
<polygon fill="none" stroke="#bfbfbf" points="774.5,-0.5 774.5,-19.5 828.5,-19.5 828.5,-0.5 774.5,-0.5"/>
<text text-anchor="middle" x="801.5" y="-7.5" font-family="Helvetica,sans-Serif" font-size="10.00">iostream</text>
</a>
</g>
</g>
<!-- Node3&#45;&gt;Node21 -->
<g id="edge20" class="edge">
<title>Node3&#45;&gt;Node21</title>
<path fill="none" stroke="midnightblue" d="M801.5,-56.08C801.5,-49.01 801.5,-38.86 801.5,-29.99"/>
<polygon fill="midnightblue" stroke="midnightblue" points="805,-29.75 801.5,-19.75 798,-29.75 805,-29.75"/>
</g>
<!-- Node22 -->
<g id="node22" class="node">
<title>Node22</title>
<g id="a_node22"><a xlink:title=" ">
<polygon fill="none" stroke="#bfbfbf" points="846.5,-0.5 846.5,-19.5 896.5,-19.5 896.5,-0.5 846.5,-0.5"/>
<text text-anchor="middle" x="871.5" y="-7.5" font-family="Helvetica,sans-Serif" font-size="10.00">iomanip</text>
</a>
</g>
</g>
<!-- Node3&#45;&gt;Node22 -->
<g id="edge21" class="edge">
<title>Node3&#45;&gt;Node22</title>
<path fill="none" stroke="midnightblue" d="M812.75,-56.32C823.3,-48.18 839.3,-35.84 851.94,-26.09"/>
<polygon fill="midnightblue" stroke="midnightblue" points="854.27,-28.71 860.05,-19.83 849.99,-23.17 854.27,-28.71"/>
</g>
<!-- Node23 -->
<g id="node23" class="node">
<title>Node23</title>
<g id="a_node23"><a xlink:title=" ">
<polygon fill="none" stroke="#bfbfbf" points="914.5,-0.5 914.5,-19.5 958.5,-19.5 958.5,-0.5 914.5,-0.5"/>
<text text-anchor="middle" x="936.5" y="-7.5" font-family="Helvetica,sans-Serif" font-size="10.00">thread</text>
</a>
</g>
</g>
<!-- Node3&#45;&gt;Node23 -->
<g id="edge22" class="edge">
<title>Node3&#45;&gt;Node23</title>
<path fill="none" stroke="midnightblue" d="M822.89,-56.44C845.21,-47.52 880.4,-33.44 905.71,-23.32"/>
<polygon fill="midnightblue" stroke="midnightblue" points="907.22,-26.48 915.21,-19.52 904.62,-19.98 907.22,-26.48"/>
</g>
<!-- Node24 -->
<g id="node24" class="node">
<title>Node24</title>
<g id="a_node24"><a xlink:title=" ">
<polygon fill="none" stroke="#bfbfbf" points="976.5,-0.5 976.5,-19.5 1074.5,-19.5 1074.5,-0.5 976.5,-0.5"/>
<text text-anchor="middle" x="1025.5" y="-7.5" font-family="Helvetica,sans-Serif" font-size="10.00">nlohmann/json.hpp</text>
</a>
</g>
</g>
<!-- Node3&#45;&gt;Node24 -->
<g id="edge23" class="edge">
<title>Node3&#45;&gt;Node24</title>
<path fill="none" stroke="midnightblue" d="M836.99,-56.44C875.82,-47.08 938.16,-32.06 980.42,-21.87"/>
<polygon fill="midnightblue" stroke="midnightblue" points="981.27,-25.26 990.17,-19.52 979.63,-18.46 981.27,-25.26"/>
</g>
<!-- Node25 -->
<g id="node25" class="node">
<title>Node25</title>
<g id="a_node25"><a xlink:href="_game_audio_8h.html" target="_top" xlink:title=" ">
<polygon fill="none" stroke="black" points="1371,-0.5 1371,-19.5 1472,-19.5 1472,-0.5 1371,-0.5"/>
<text text-anchor="middle" x="1421.5" y="-7.5" font-family="Helvetica,sans-Serif" font-size="10.00">Level/GameAudio.h</text>
</a>
</g>
</g>
<!-- Node3&#45;&gt;Node25 -->
<g id="edge24" class="edge">
<title>Node3&#45;&gt;Node25</title>
<path fill="none" stroke="midnightblue" d="M842.76,-62.37C934.63,-56.66 1162.34,-41.88 1352.5,-20 1355.16,-19.69 1357.87,-19.36 1360.63,-19.01"/>
<polygon fill="midnightblue" stroke="midnightblue" points="1361.23,-22.46 1370.68,-17.66 1360.31,-15.52 1361.23,-22.46"/>
</g>
<!-- Node25&#45;&gt;Node3 -->
<g id="edge25" class="edge">
<title>Node25&#45;&gt;Node3</title>
<path fill="none" stroke="midnightblue" d="M1374.62,-19.51C1373.24,-19.68 1371.86,-19.84 1370.5,-20 1180.52,-41.86 953.07,-56.63 852.93,-62.35"/>
<polygon fill="midnightblue" stroke="midnightblue" points="852.58,-58.86 842.79,-62.92 852.97,-65.85 852.58,-58.86"/>
</g>
<!-- Node27&#45;&gt;Node3 -->
<g id="edge28" class="edge">
<title>Node27&#45;&gt;Node3</title>
<path fill="none" stroke="midnightblue" d="M785.83,-168.37C788.58,-150.62 794.91,-109.67 798.63,-85.6"/>
<polygon fill="midnightblue" stroke="midnightblue" points="802.1,-86.01 800.17,-75.59 795.19,-84.94 802.1,-86.01"/>
</g>
<!-- Node27&#45;&gt;Node28 -->
<g id="edge29" class="edge">
<title>Node27&#45;&gt;Node28</title>
<path fill="none" stroke="midnightblue" d="M801.85,-168.32C819.17,-159.66 846.02,-146.24 866,-136.25"/>
<polygon fill="midnightblue" stroke="midnightblue" points="867.81,-139.26 875.19,-131.65 864.68,-133 867.81,-139.26"/>
</g>
<!-- Node28&#45;&gt;Node3 -->
<g id="edge30" class="edge">
<title>Node28&#45;&gt;Node3</title>
<path fill="none" stroke="midnightblue" d="M877.88,-112.32C863.55,-103.82 841.49,-90.73 824.75,-80.8"/>
<polygon fill="midnightblue" stroke="midnightblue" points="826.47,-77.75 816.08,-75.65 822.9,-83.77 826.47,-77.75"/>
</g>
<!-- Node29&#45;&gt;Node3 -->
<g id="edge32" class="edge">
<title>Node29&#45;&gt;Node3</title>
<path fill="none" stroke="midnightblue" d="M709.96,-224.22C708.11,-211.37 706.08,-186.92 713.5,-168 727.67,-131.87 760.75,-99.94 782.07,-82.07"/>
<polygon fill="midnightblue" stroke="midnightblue" points="784.32,-84.75 789.87,-75.72 779.9,-79.32 784.32,-84.75"/>
</g>
<!-- Node29&#45;&gt;Node27 -->
<g id="edge33" class="edge">
<title>Node29&#45;&gt;Node27</title>
<path fill="none" stroke="midnightblue" d="M723.23,-224.32C734.34,-216.11 751.24,-203.6 764.48,-193.81"/>
<polygon fill="midnightblue" stroke="midnightblue" points="766.6,-196.59 772.56,-187.83 762.44,-190.97 766.6,-196.59"/>
</g>
<!-- Node29&#45;&gt;Node28 -->
<g id="edge34" class="edge">
<title>Node29&#45;&gt;Node28</title>
<path fill="none" stroke="midnightblue" d="M711.2,-224.09C711.23,-210.17 713.42,-183.27 728.5,-168 757.02,-139.14 802.18,-128.29 837.9,-124.44"/>
<polygon fill="midnightblue" stroke="midnightblue" points="838.54,-127.9 848.18,-123.5 837.9,-120.93 838.54,-127.9"/>
</g>
<!-- Node30&#45;&gt;Node3 -->
<g id="edge36" class="edge">
<title>Node30&#45;&gt;Node3</title>
<path fill="none" stroke="midnightblue" d="M834.28,-224.12C837.84,-211.56 843.12,-187.91 839.5,-168 833.96,-137.55 819.75,-104.34 810.36,-84.61"/>
<polygon fill="midnightblue" stroke="midnightblue" points="813.5,-83.06 805.96,-75.61 807.21,-86.13 813.5,-83.06"/>
</g>
<!-- Node30&#45;&gt;Node27 -->
<g id="edge37" class="edge">
<title>Node30&#45;&gt;Node27</title>
<path fill="none" stroke="midnightblue" d="M823.74,-224.08C816.96,-216.3 806.96,-204.8 798.74,-195.37"/>
<polygon fill="midnightblue" stroke="midnightblue" points="801.32,-193 792.12,-187.75 796.04,-197.59 801.32,-193"/>
</g>
<!-- Node31&#45;&gt;Node3 -->
<g id="edge39" class="edge">
<title>Node31&#45;&gt;Node3</title>
<path fill="none" stroke="midnightblue" d="M957.76,-224.21C962.77,-202.47 972.38,-145.57 945.5,-112 923.42,-84.42 884.62,-73.41 852.86,-69.17"/>
<polygon fill="midnightblue" stroke="midnightblue" points="853.16,-65.68 842.82,-68.01 852.36,-72.63 853.16,-65.68"/>
</g>
<!-- Node31&#45;&gt;Node27 -->
<g id="edge40" class="edge">
<title>Node31&#45;&gt;Node27</title>
<path fill="none" stroke="midnightblue" d="M928.4,-224.44C899.51,-215.32 853.58,-200.81 821.39,-190.65"/>
<polygon fill="midnightblue" stroke="midnightblue" points="822.06,-187.19 811.47,-187.52 819.95,-193.87 822.06,-187.19"/>
</g>
<!-- Node32&#45;&gt;Node3 -->
<g id="edge45" class="edge">
<title>Node32&#45;&gt;Node3</title>
<path fill="none" stroke="midnightblue" d="M1065.16,-168.3C1048.15,-154.42 1012.75,-127.28 978.5,-112 937.87,-93.87 888.61,-82.1 852.38,-75.16"/>
<polygon fill="midnightblue" stroke="midnightblue" points="853,-71.71 842.53,-73.33 851.72,-78.6 853,-71.71"/>
</g>
<!-- Node32&#45;&gt;Node25 -->
<g id="edge44" class="edge">
<title>Node32&#45;&gt;Node25</title>
<path fill="none" stroke="midnightblue" d="M1074.63,-168.19C1073.78,-154.4 1074.27,-127.68 1088.5,-112 1125.32,-71.42 1277.12,-37.65 1362.5,-21.4"/>
<polygon fill="midnightblue" stroke="midnightblue" points="1363.38,-24.79 1372.57,-19.51 1362.09,-17.91 1363.38,-24.79"/>
</g>
<!-- Node32&#45;&gt;Node28 -->
<g id="edge43" class="edge">
<title>Node32&#45;&gt;Node28</title>
<path fill="none" stroke="midnightblue" d="M1046.5,-168.44C1015.32,-159.24 965.57,-144.56 931.09,-134.39"/>
<polygon fill="midnightblue" stroke="midnightblue" points="931.94,-130.99 921.36,-131.52 929.96,-137.7 931.94,-130.99"/>
</g>
<!-- Node33&#45;&gt;Node3 -->
<g id="edge47" class="edge">
<title>Node33&#45;&gt;Node3</title>
<path fill="none" stroke="midnightblue" d="M1097.23,-118.02C1051.24,-110.09 924.44,-88.21 852.7,-75.83"/>
<polygon fill="midnightblue" stroke="midnightblue" points="852.98,-72.33 842.54,-74.08 851.79,-79.23 852.98,-72.33"/>
</g>
<!-- Node34&#45;&gt;Node3 -->
<g id="edge50" class="edge">
<title>Node34&#45;&gt;Node3</title>
<path fill="none" stroke="midnightblue" d="M1149.74,-113.3C1146.61,-112.85 1143.52,-112.42 1140.5,-112 1038.63,-97.85 919.4,-82.24 852.95,-73.63"/>
<polygon fill="midnightblue" stroke="midnightblue" points="853.11,-70.12 842.75,-72.31 852.22,-77.07 853.11,-70.12"/>
</g>
</g>
</svg>
