<?xml version="1.0" encoding="UTF-8" standalone="no"?>
<!DOCTYPE svg PUBLIC "-//W3C//DTD SVG 1.1//EN"
 "http://www.w3.org/Graphics/SVG/1.1/DTD/svg11.dtd">
<!-- Generated by graphviz version 3.0.0 (20220226.1711)
 -->
<!-- Title: Map.h Pages: 1 -->
<svg width="1549pt" height="364pt"
 viewBox="0.00 0.00 1548.50 364.00" xmlns="http://www.w3.org/2000/svg" xmlns:xlink="http://www.w3.org/1999/xlink">
<g id="graph0" class="graph" transform="scale(1 1) rotate(0) translate(4 360)">
<title>Map.h</title>
<!-- Node1 -->
<g id="node1" class="node">
<title>Node1</title>
<g id="a_node1"><a xlink:title=" ">
<polygon fill="#bfbfbf" stroke="black" points="308.5,-336.5 308.5,-355.5 352.5,-355.5 352.5,-336.5 308.5,-336.5"/>
<text text-anchor="middle" x="330.5" y="-343.5" font-family="Helvetica,sans-Serif" font-size="10.00">Map.h</text>
</a>
</g>
</g>
<!-- Node2 -->
<g id="node2" class="node">
<title>Node2</title>
<g id="a_node2"><a xlink:href="_i_n_c_l_u_d_e_s_8h.html" target="_top" xlink:title=" ">
<polygon fill="none" stroke="black" points="738.5,-56.5 738.5,-75.5 820.5,-75.5 820.5,-56.5 738.5,-56.5"/>
<text text-anchor="middle" x="779.5" y="-63.5" font-family="Helvetica,sans-Serif" font-size="10.00">../INCLUDES.h</text>
</a>
</g>
</g>
<!-- Node1&#45;&gt;Node2 -->
<g id="edge1" class="edge">
<title>Node1&#45;&gt;Node2</title>
<path fill="none" stroke="midnightblue" d="M336.06,-336.27C347.05,-318.15 370.5,-274.83 370.5,-235 370.5,-235 370.5,-235 370.5,-177 370.5,-103.72 618.44,-77.87 728.23,-70.01"/>
<polygon fill="midnightblue" stroke="midnightblue" points="728.68,-73.49 738.41,-69.31 728.19,-66.51 728.68,-73.49"/>
</g>
<!-- Node19 -->
<g id="node19" class="node">
<title>Node19</title>
<g id="a_node19"><a xlink:title=" ">
<polygon fill="none" stroke="#bfbfbf" points="0,-0.5 0,-19.5 49,-19.5 49,-0.5 0,-0.5"/>
<text text-anchor="middle" x="24.5" y="-7.5" font-family="Helvetica,sans-Serif" font-size="10.00">fstream</text>
</a>
</g>
</g>
<!-- Node1&#45;&gt;Node19 -->
<g id="edge54" class="edge">
<title>Node1&#45;&gt;Node19</title>
<path fill="none" stroke="midnightblue" d="M308.44,-344.87C249.28,-343.25 91.5,-330.01 91.5,-235 91.5,-235 91.5,-235 91.5,-121 91.5,-82.7 61.51,-46.42 41.66,-26.59"/>
<polygon fill="midnightblue" stroke="midnightblue" points="44.02,-24 34.39,-19.6 39.17,-29.05 44.02,-24"/>
</g>
<!-- Node23 -->
<g id="node23" class="node">
<title>Node23</title>
<g id="a_node23"><a xlink:title=" ">
<polygon fill="none" stroke="#bfbfbf" points="67.5,-0.5 67.5,-19.5 165.5,-19.5 165.5,-0.5 67.5,-0.5"/>
<text text-anchor="middle" x="116.5" y="-7.5" font-family="Helvetica,sans-Serif" font-size="10.00">nlohmann/json.hpp</text>
</a>
</g>
</g>
<!-- Node1&#45;&gt;Node23 -->
<g id="edge55" class="edge">
<title>Node1&#45;&gt;Node23</title>
<path fill="none" stroke="midnightblue" d="M308.46,-341.65C261.64,-333.14 156.5,-306.12 156.5,-235 156.5,-235 156.5,-235 156.5,-121 156.5,-86.62 139.03,-49.63 127.18,-28.5"/>
<polygon fill="midnightblue" stroke="midnightblue" points="130.12,-26.61 122.06,-19.73 124.08,-30.13 130.12,-26.61"/>
</g>
<!-- Node25 -->
<g id="node25" class="node">
<title>Node25</title>
<g id="a_node25"><a xlink:href="_level_8h.html" target="_top" xlink:title=" ">
<polygon fill="none" stroke="black" points="811,-280.5 811,-299.5 858,-299.5 858,-280.5 811,-280.5"/>
<text text-anchor="middle" x="834.5" y="-287.5" font-family="Helvetica,sans-Serif" font-size="10.00">Level.h</text>
</a>
</g>
</g>
<!-- Node1&#45;&gt;Node25 -->
<g id="edge25" class="edge">
<title>Node1&#45;&gt;Node25</title>
<path fill="none" stroke="midnightblue" d="M352.81,-342.61C432.68,-334.05 704.77,-304.9 800.69,-294.62"/>
<polygon fill="midnightblue" stroke="midnightblue" points="801.15,-298.09 810.72,-293.55 800.4,-291.13 801.15,-298.09"/>
</g>
<!-- Node3 -->
<g id="node3" class="node">
<title>Node3</title>
<g id="a_node3"><a xlink:title=" ">
<polygon fill="none" stroke="#bfbfbf" points="1093,-0.5 1093,-19.5 1142,-19.5 1142,-0.5 1093,-0.5"/>
<text text-anchor="middle" x="1117.5" y="-7.5" font-family="Helvetica,sans-Serif" font-size="10.00">string.h</text>
</a>
</g>
</g>
<!-- Node2&#45;&gt;Node3 -->
<g id="edge2" class="edge">
<title>Node2&#45;&gt;Node3</title>
<path fill="none" stroke="midnightblue" d="M820.57,-60.4C877.33,-53.72 983.12,-40.1 1082.76,-19.94"/>
<polygon fill="midnightblue" stroke="midnightblue" points="1083.6,-23.35 1092.69,-17.91 1082.19,-16.49 1083.6,-23.35"/>
</g>
<!-- Node4 -->
<g id="node4" class="node">
<title>Node4</title>
<g id="a_node4"><a xlink:title=" ">
<polygon fill="none" stroke="#bfbfbf" points="1160.5,-0.5 1160.5,-19.5 1208.5,-19.5 1208.5,-0.5 1160.5,-0.5"/>
<text text-anchor="middle" x="1184.5" y="-7.5" font-family="Helvetica,sans-Serif" font-size="10.00">raylib.h</text>
</a>
</g>
</g>
<!-- Node2&#45;&gt;Node4 -->
<g id="edge3" class="edge">
<title>Node2&#45;&gt;Node4</title>
<path fill="none" stroke="midnightblue" d="M820.54,-62C887.6,-56.68 1024.94,-44 1150.29,-19.97"/>
<polygon fill="midnightblue" stroke="midnightblue" points="1151.3,-23.34 1160.45,-18 1149.96,-16.47 1151.3,-23.34"/>
</g>
<!-- Node5 -->
<g id="node5" class="node">
<title>Node5</title>
<g id="a_node5"><a xlink:title=" ">
<polygon fill="none" stroke="#bfbfbf" points="1226.5,-0.5 1226.5,-19.5 1286.5,-19.5 1286.5,-0.5 1226.5,-0.5"/>
<text text-anchor="middle" x="1256.5" y="-7.5" font-family="Helvetica,sans-Serif" font-size="10.00">raymath.h</text>
</a>
</g>
</g>
<!-- Node2&#45;&gt;Node5 -->
<g id="edge4" class="edge">
<title>Node2&#45;&gt;Node5</title>
<path fill="none" stroke="midnightblue" d="M820.79,-62.48C897.06,-57.45 1065.28,-44.61 1216.41,-19.99"/>
<polygon fill="midnightblue" stroke="midnightblue" points="1217.04,-23.43 1226.34,-18.35 1215.9,-16.53 1217.04,-23.43"/>
</g>
<!-- Node6 -->
<g id="node6" class="node">
<title>Node6</title>
<g id="a_node6"><a xlink:title=" ">
<polygon fill="none" stroke="#bfbfbf" points="1304.5,-0.5 1304.5,-19.5 1352.5,-19.5 1352.5,-0.5 1304.5,-0.5"/>
<text text-anchor="middle" x="1328.5" y="-7.5" font-family="Helvetica,sans-Serif" font-size="10.00">stdlib.h</text>
</a>
</g>
</g>
<!-- Node2&#45;&gt;Node6 -->
<g id="edge5" class="edge">
<title>Node2&#45;&gt;Node6</title>
<path fill="none" stroke="midnightblue" d="M820.63,-63.91C906.89,-61.1 1113.04,-51.56 1294.47,-19.86"/>
<polygon fill="midnightblue" stroke="midnightblue" points="1295.23,-23.28 1304.46,-18.09 1294.01,-16.39 1295.23,-23.28"/>
</g>
<!-- Node7 -->
<g id="node7" class="node">
<title>Node7</title>
<g id="a_node7"><a xlink:title=" ">
<polygon fill="none" stroke="#bfbfbf" points="184,-0.5 184,-19.5 229,-19.5 229,-0.5 184,-0.5"/>
<text text-anchor="middle" x="206.5" y="-7.5" font-family="Helvetica,sans-Serif" font-size="10.00">cstdlib</text>
</a>
</g>
</g>
<!-- Node2&#45;&gt;Node7 -->
<g id="edge6" class="edge">
<title>Node2&#45;&gt;Node7</title>
<path fill="none" stroke="midnightblue" d="M738.43,-64.26C649.15,-62.07 430.71,-53.61 239.07,-19.72"/>
<polygon fill="midnightblue" stroke="midnightblue" points="239.56,-16.26 229.1,-17.93 238.32,-23.15 239.56,-16.26"/>
</g>
<!-- Node8 -->
<g id="node8" class="node">
<title>Node8</title>
<g id="a_node8"><a xlink:title=" ">
<polygon fill="none" stroke="#bfbfbf" points="247.5,-0.5 247.5,-19.5 293.5,-19.5 293.5,-0.5 247.5,-0.5"/>
<text text-anchor="middle" x="270.5" y="-7.5" font-family="Helvetica,sans-Serif" font-size="10.00">stdio.h</text>
</a>
</g>
</g>
<!-- Node2&#45;&gt;Node8 -->
<g id="edge7" class="edge">
<title>Node2&#45;&gt;Node8</title>
<path fill="none" stroke="midnightblue" d="M738.43,-63.5C657.19,-60.01 470.23,-49.44 303.75,-19.69"/>
<polygon fill="midnightblue" stroke="midnightblue" points="304.29,-16.24 293.82,-17.89 303.04,-23.12 304.29,-16.24"/>
</g>
<!-- Node9 -->
<g id="node9" class="node">
<title>Node9</title>
<g id="a_node9"><a xlink:title=" ">
<polygon fill="none" stroke="#bfbfbf" points="1490.5,-0.5 1490.5,-19.5 1540.5,-19.5 1540.5,-0.5 1490.5,-0.5"/>
<text text-anchor="middle" x="1515.5" y="-7.5" font-family="Helvetica,sans-Serif" font-size="10.00">config.h</text>
</a>
</g>
</g>
<!-- Node2&#45;&gt;Node9 -->
<g id="edge8" class="edge">
<title>Node2&#45;&gt;Node9</title>
<path fill="none" stroke="midnightblue" d="M820.56,-65.15C927.78,-64.94 1224.92,-60.59 1480.16,-19.89"/>
<polygon fill="midnightblue" stroke="midnightblue" points="1481.05,-23.29 1490.37,-18.24 1479.94,-16.38 1481.05,-23.29"/>
</g>
<!-- Node10 -->
<g id="node10" class="node">
<title>Node10</title>
<g id="a_node10"><a xlink:title=" ">
<polygon fill="none" stroke="#bfbfbf" points="312,-0.5 312,-19.5 371,-19.5 371,-0.5 312,-0.5"/>
<text text-anchor="middle" x="341.5" y="-7.5" font-family="Helvetica,sans-Serif" font-size="10.00">process.h</text>
</a>
</g>
</g>
<!-- Node2&#45;&gt;Node10 -->
<g id="edge9" class="edge">
<title>Node2&#45;&gt;Node10</title>
<path fill="none" stroke="midnightblue" d="M738.21,-61.91C667.32,-56.27 517.73,-42.88 381.44,-19.97"/>
<polygon fill="midnightblue" stroke="midnightblue" points="381.69,-16.46 371.24,-18.23 380.51,-23.36 381.69,-16.46"/>
</g>
<!-- Node11 -->
<g id="node11" class="node">
<title>Node11</title>
<g id="a_node11"><a xlink:title=" ">
<polygon fill="none" stroke="#bfbfbf" points="389,-0.5 389,-19.5 430,-19.5 430,-0.5 389,-0.5"/>
<text text-anchor="middle" x="409.5" y="-7.5" font-family="Helvetica,sans-Serif" font-size="10.00">string</text>
</a>
</g>
</g>
<!-- Node2&#45;&gt;Node11 -->
<g id="edge10" class="edge">
<title>Node2&#45;&gt;Node11</title>
<path fill="none" stroke="midnightblue" d="M738.32,-61.69C675.82,-56.2 553.23,-43.62 439.93,-19.75"/>
<polygon fill="midnightblue" stroke="midnightblue" points="440.56,-16.31 430.04,-17.64 439.09,-23.15 440.56,-16.31"/>
</g>
<!-- Node12 -->
<g id="node12" class="node">
<title>Node12</title>
<g id="a_node12"><a xlink:title=" ">
<polygon fill="none" stroke="#bfbfbf" points="448.5,-0.5 448.5,-19.5 486.5,-19.5 486.5,-0.5 448.5,-0.5"/>
<text text-anchor="middle" x="467.5" y="-7.5" font-family="Helvetica,sans-Serif" font-size="10.00">array</text>
</a>
</g>
</g>
<!-- Node2&#45;&gt;Node12 -->
<g id="edge11" class="edge">
<title>Node2&#45;&gt;Node12</title>
<path fill="none" stroke="midnightblue" d="M738.19,-60.48C684.52,-54.16 587.83,-41.27 496.62,-19.95"/>
<polygon fill="midnightblue" stroke="midnightblue" points="497.21,-16.5 486.67,-17.59 495.59,-23.31 497.21,-16.5"/>
</g>
<!-- Node13 -->
<g id="node13" class="node">
<title>Node13</title>
<g id="a_node13"><a xlink:title=" ">
<polygon fill="none" stroke="#bfbfbf" points="504.5,-0.5 504.5,-19.5 546.5,-19.5 546.5,-0.5 504.5,-0.5"/>
<text text-anchor="middle" x="525.5" y="-7.5" font-family="Helvetica,sans-Serif" font-size="10.00">vector</text>
</a>
</g>
</g>
<!-- Node2&#45;&gt;Node13 -->
<g id="edge12" class="edge">
<title>Node2&#45;&gt;Node13</title>
<path fill="none" stroke="midnightblue" d="M738.37,-57.93C695.27,-50.25 625.43,-37.07 556.46,-20.06"/>
<polygon fill="midnightblue" stroke="midnightblue" points="557.29,-16.66 546.74,-17.64 555.59,-23.45 557.29,-16.66"/>
</g>
<!-- Node14 -->
<g id="node14" class="node">
<title>Node14</title>
<g id="a_node14"><a xlink:title=" ">
<polygon fill="none" stroke="#bfbfbf" points="564.5,-0.5 564.5,-19.5 608.5,-19.5 608.5,-0.5 564.5,-0.5"/>
<text text-anchor="middle" x="586.5" y="-7.5" font-family="Helvetica,sans-Serif" font-size="10.00">cmath</text>
</a>
</g>
</g>
<!-- Node2&#45;&gt;Node14 -->
<g id="edge13" class="edge">
<title>Node2&#45;&gt;Node14</title>
<path fill="none" stroke="midnightblue" d="M748.41,-56.48C717.75,-48.05 669.31,-34.67 618.38,-20.23"/>
<polygon fill="midnightblue" stroke="midnightblue" points="619.08,-16.79 608.51,-17.42 617.17,-23.52 619.08,-16.79"/>
</g>
<!-- Node15 -->
<g id="node15" class="node">
<title>Node15</title>
<g id="a_node15"><a xlink:title=" ">
<polygon fill="none" stroke="#bfbfbf" points="626.5,-0.5 626.5,-19.5 678.5,-19.5 678.5,-0.5 626.5,-0.5"/>
<text text-anchor="middle" x="652.5" y="-7.5" font-family="Helvetica,sans-Serif" font-size="10.00">memory</text>
</a>
</g>
</g>
<!-- Node2&#45;&gt;Node15 -->
<g id="edge14" class="edge">
<title>Node2&#45;&gt;Node15</title>
<path fill="none" stroke="midnightblue" d="M759.38,-56.44C738.48,-47.56 705.57,-33.56 681.78,-23.45"/>
<polygon fill="midnightblue" stroke="midnightblue" points="683.1,-20.21 672.53,-19.52 680.36,-26.65 683.1,-20.21"/>
</g>
<!-- Node16 -->
<g id="node16" class="node">
<title>Node16</title>
<g id="a_node16"><a xlink:title=" ">
<polygon fill="none" stroke="#bfbfbf" points="697,-0.5 697,-19.5 738,-19.5 738,-0.5 697,-0.5"/>
<text text-anchor="middle" x="717.5" y="-7.5" font-family="Helvetica,sans-Serif" font-size="10.00">ctime</text>
</a>
</g>
</g>
<!-- Node2&#45;&gt;Node16 -->
<g id="edge15" class="edge">
<title>Node2&#45;&gt;Node16</title>
<path fill="none" stroke="midnightblue" d="M769.54,-56.32C760.37,-48.34 746.56,-36.31 735.47,-26.65"/>
<polygon fill="midnightblue" stroke="midnightblue" points="737.48,-23.76 727.64,-19.83 732.88,-29.04 737.48,-23.76"/>
</g>
<!-- Node17 -->
<g id="node17" class="node">
<title>Node17</title>
<g id="a_node17"><a xlink:title=" ">
<polygon fill="none" stroke="#bfbfbf" points="756.5,-0.5 756.5,-19.5 802.5,-19.5 802.5,-0.5 756.5,-0.5"/>
<text text-anchor="middle" x="779.5" y="-7.5" font-family="Helvetica,sans-Serif" font-size="10.00">chrono</text>
</a>
</g>
</g>
<!-- Node2&#45;&gt;Node17 -->
<g id="edge16" class="edge">
<title>Node2&#45;&gt;Node17</title>
<path fill="none" stroke="midnightblue" d="M779.5,-56.08C779.5,-49.01 779.5,-38.86 779.5,-29.99"/>
<polygon fill="midnightblue" stroke="midnightblue" points="783,-29.75 779.5,-19.75 776,-29.75 783,-29.75"/>
</g>
<!-- Node18 -->
<g id="node18" class="node">
<title>Node18</title>
<g id="a_node18"><a xlink:title=" ">
<polygon fill="none" stroke="#bfbfbf" points="820.5,-0.5 820.5,-19.5 872.5,-19.5 872.5,-0.5 820.5,-0.5"/>
<text text-anchor="middle" x="846.5" y="-7.5" font-family="Helvetica,sans-Serif" font-size="10.00">sstream</text>
</a>
</g>
</g>
<!-- Node2&#45;&gt;Node18 -->
<g id="edge17" class="edge">
<title>Node2&#45;&gt;Node18</title>
<path fill="none" stroke="midnightblue" d="M790.26,-56.32C800.27,-48.26 815.39,-36.08 827.43,-26.37"/>
<polygon fill="midnightblue" stroke="midnightblue" points="829.95,-28.83 835.54,-19.83 825.56,-23.38 829.95,-28.83"/>
</g>
<!-- Node2&#45;&gt;Node19 -->
<g id="edge18" class="edge">
<title>Node2&#45;&gt;Node19</title>
<path fill="none" stroke="midnightblue" d="M738.13,-65.25C628.66,-65.3 322.37,-61.55 59.38,-19.79"/>
<polygon fill="midnightblue" stroke="midnightblue" points="59.69,-16.29 49.26,-18.16 58.58,-23.2 59.69,-16.29"/>
</g>
<!-- Node20 -->
<g id="node20" class="node">
<title>Node20</title>
<g id="a_node20"><a xlink:title=" ">
<polygon fill="none" stroke="#bfbfbf" points="890.5,-0.5 890.5,-19.5 944.5,-19.5 944.5,-0.5 890.5,-0.5"/>
<text text-anchor="middle" x="917.5" y="-7.5" font-family="Helvetica,sans-Serif" font-size="10.00">iostream</text>
</a>
</g>
</g>
<!-- Node2&#45;&gt;Node20 -->
<g id="edge19" class="edge">
<title>Node2&#45;&gt;Node20</title>
<path fill="none" stroke="midnightblue" d="M801.37,-56.44C824.28,-47.48 860.48,-33.31 886.37,-23.18"/>
<polygon fill="midnightblue" stroke="midnightblue" points="887.7,-26.42 895.74,-19.52 885.15,-19.9 887.7,-26.42"/>
</g>
<!-- Node21 -->
<g id="node21" class="node">
<title>Node21</title>
<g id="a_node21"><a xlink:title=" ">
<polygon fill="none" stroke="#bfbfbf" points="962.5,-0.5 962.5,-19.5 1012.5,-19.5 1012.5,-0.5 962.5,-0.5"/>
<text text-anchor="middle" x="987.5" y="-7.5" font-family="Helvetica,sans-Serif" font-size="10.00">iomanip</text>
</a>
</g>
</g>
<!-- Node2&#45;&gt;Node21 -->
<g id="edge20" class="edge">
<title>Node2&#45;&gt;Node21</title>
<path fill="none" stroke="midnightblue" d="M812.87,-56.43C845.92,-47.93 898.25,-34.43 952.47,-20.26"/>
<polygon fill="midnightblue" stroke="midnightblue" points="953.46,-23.62 962.25,-17.7 951.69,-16.85 953.46,-23.62"/>
</g>
<!-- Node22 -->
<g id="node22" class="node">
<title>Node22</title>
<g id="a_node22"><a xlink:title=" ">
<polygon fill="none" stroke="#bfbfbf" points="1030.5,-0.5 1030.5,-19.5 1074.5,-19.5 1074.5,-0.5 1030.5,-0.5"/>
<text text-anchor="middle" x="1052.5" y="-7.5" font-family="Helvetica,sans-Serif" font-size="10.00">thread</text>
</a>
</g>
</g>
<!-- Node2&#45;&gt;Node22 -->
<g id="edge21" class="edge">
<title>Node2&#45;&gt;Node22</title>
<path fill="none" stroke="midnightblue" d="M820.87,-58.58C867.18,-51.12 944.63,-37.8 1020.07,-20.16"/>
<polygon fill="midnightblue" stroke="midnightblue" points="1021.29,-23.46 1030.22,-17.75 1019.68,-16.65 1021.29,-23.46"/>
</g>
<!-- Node2&#45;&gt;Node23 -->
<g id="edge22" class="edge">
<title>Node2&#45;&gt;Node23</title>
<path fill="none" stroke="midnightblue" d="M738.39,-63.03C642.08,-58.19 394.21,-44.35 175.77,-19.93"/>
<polygon fill="midnightblue" stroke="midnightblue" points="176.05,-16.44 165.72,-18.8 175.26,-23.4 176.05,-16.44"/>
</g>
<!-- Node24 -->
<g id="node24" class="node">
<title>Node24</title>
<g id="a_node24"><a xlink:href="_game_audio_8h.html" target="_top" xlink:title=" ">
<polygon fill="none" stroke="black" points="1371,-0.5 1371,-19.5 1472,-19.5 1472,-0.5 1371,-0.5"/>
<text text-anchor="middle" x="1421.5" y="-7.5" font-family="Helvetica,sans-Serif" font-size="10.00">Level/GameAudio.h</text>
</a>
</g>
</g>
<!-- Node2&#45;&gt;Node24 -->
<g id="edge23" class="edge">
<title>Node2&#45;&gt;Node24</title>
<path fill="none" stroke="midnightblue" d="M820.76,-62.56C915.21,-57.1 1153.62,-42.57 1352.5,-20 1355.16,-19.7 1357.87,-19.37 1360.63,-19.02"/>
<polygon fill="midnightblue" stroke="midnightblue" points="1361.23,-22.47 1370.68,-17.68 1360.31,-15.53 1361.23,-22.47"/>
</g>
<!-- Node24&#45;&gt;Node2 -->
<g id="edge24" class="edge">
<title>Node24&#45;&gt;Node2</title>
<path fill="none" stroke="midnightblue" d="M1374.62,-19.52C1373.24,-19.68 1371.86,-19.85 1370.5,-20 1171.9,-42.54 933.87,-57.06 830.92,-62.54"/>
<polygon fill="midnightblue" stroke="midnightblue" points="830.61,-59.05 820.8,-63.07 830.97,-66.04 830.61,-59.05"/>
</g>
<!-- Node25&#45;&gt;Node2 -->
<g id="edge43" class="edge">
<title>Node25&#45;&gt;Node2</title>
<path fill="none" stroke="midnightblue" d="M810.91,-286.85C765.47,-282.18 668.48,-269.39 648.5,-244 601.64,-184.45 705.89,-111 755.33,-80.88"/>
<polygon fill="midnightblue" stroke="midnightblue" points="757.36,-83.74 764.16,-75.61 753.78,-77.73 757.36,-83.74"/>
</g>
<!-- Node25&#45;&gt;Node9 -->
<g id="edge53" class="edge">
<title>Node25&#45;&gt;Node9</title>
<path fill="none" stroke="midnightblue" d="M858.18,-289.39C963.64,-290.53 1385.5,-288.25 1385.5,-179 1385.5,-179 1385.5,-179 1385.5,-121 1385.5,-70.85 1442.57,-38.86 1481.09,-22.99"/>
<polygon fill="midnightblue" stroke="midnightblue" points="1482.42,-26.23 1490.43,-19.3 1479.85,-19.72 1482.42,-26.23"/>
</g>
<!-- Node26 -->
<g id="node26" class="node">
<title>Node26</title>
<g id="a_node26"><a xlink:href="_combat_2_mumy_8h.html" target="_top" xlink:title=" ">
<polygon fill="none" stroke="black" points="1059.5,-224.5 1059.5,-243.5 1157.5,-243.5 1157.5,-224.5 1059.5,-224.5"/>
<text text-anchor="middle" x="1108.5" y="-231.5" font-family="Helvetica,sans-Serif" font-size="10.00">../Combat/Mumy.h</text>
</a>
</g>
</g>
<!-- Node25&#45;&gt;Node26 -->
<g id="edge26" class="edge">
<title>Node25&#45;&gt;Node26</title>
<path fill="none" stroke="midnightblue" d="M858.34,-284.3C901.91,-275.72 995.39,-257.29 1054.93,-245.56"/>
<polygon fill="midnightblue" stroke="midnightblue" points="1055.77,-248.96 1064.9,-243.59 1054.41,-242.09 1055.77,-248.96"/>
</g>
<!-- Node29 -->
<g id="node29" class="node">
<title>Node29</title>
<g id="a_node29"><a xlink:href="_sprite_8h.html" target="_top" xlink:title=" ">
<polygon fill="none" stroke="black" points="957.5,-112.5 957.5,-131.5 1045.5,-131.5 1045.5,-112.5 957.5,-112.5"/>
<text text-anchor="middle" x="1001.5" y="-119.5" font-family="Helvetica,sans-Serif" font-size="10.00">../Sprite/Sprite.h</text>
</a>
</g>
</g>
<!-- Node25&#45;&gt;Node29 -->
<g id="edge50" class="edge">
<title>Node25&#45;&gt;Node29</title>
<path fill="none" stroke="midnightblue" d="M858.1,-286.57C902.03,-281.52 993.6,-268.27 1012.5,-244 1035.74,-214.16 1021.03,-166.76 1010.13,-141.04"/>
<polygon fill="midnightblue" stroke="midnightblue" points="1013.24,-139.43 1005.95,-131.75 1006.86,-142.3 1013.24,-139.43"/>
</g>
<!-- Node30 -->
<g id="node30" class="node">
<title>Node30</title>
<g id="a_node30"><a xlink:href="_player_8h.html" target="_top" xlink:title=" ">
<polygon fill="none" stroke="black" points="905.5,-224.5 905.5,-243.5 1003.5,-243.5 1003.5,-224.5 905.5,-224.5"/>
<text text-anchor="middle" x="954.5" y="-231.5" font-family="Helvetica,sans-Serif" font-size="10.00">../Combat/Player.h</text>
</a>
</g>
</g>
<!-- Node25&#45;&gt;Node30 -->
<g id="edge33" class="edge">
<title>Node25&#45;&gt;Node30</title>
<path fill="none" stroke="midnightblue" d="M853.51,-280.44C873.09,-271.64 903.81,-257.81 926.23,-247.72"/>
<polygon fill="midnightblue" stroke="midnightblue" points="927.89,-250.81 935.57,-243.52 925.02,-244.43 927.89,-250.81"/>
</g>
<!-- Node31 -->
<g id="node31" class="node">
<title>Node31</title>
<g id="a_node31"><a xlink:href="_combat_2_shadow_8h.html" target="_top" xlink:title=" ">
<polygon fill="none" stroke="black" points="782,-224.5 782,-243.5 887,-243.5 887,-224.5 782,-224.5"/>
<text text-anchor="middle" x="834.5" y="-231.5" font-family="Helvetica,sans-Serif" font-size="10.00">../Combat/Shadow.h</text>
</a>
</g>
</g>
<!-- Node25&#45;&gt;Node31 -->
<g id="edge37" class="edge">
<title>Node25&#45;&gt;Node31</title>
<path fill="none" stroke="midnightblue" d="M834.5,-280.08C834.5,-273.01 834.5,-262.86 834.5,-253.99"/>
<polygon fill="midnightblue" stroke="midnightblue" points="838,-253.75 834.5,-243.75 831,-253.75 838,-253.75"/>
</g>
<!-- Node32 -->
<g id="node32" class="node">
<title>Node32</title>
<g id="a_node32"><a xlink:href="_combat_2_pharaoh_8h.html" target="_top" xlink:title=" ">
<polygon fill="none" stroke="black" points="657,-224.5 657,-243.5 764,-243.5 764,-224.5 657,-224.5"/>
<text text-anchor="middle" x="710.5" y="-231.5" font-family="Helvetica,sans-Serif" font-size="10.00">../Combat/Pharaoh.h</text>
</a>
</g>
</g>
<!-- Node25&#45;&gt;Node32 -->
<g id="edge40" class="edge">
<title>Node25&#45;&gt;Node32</title>
<path fill="none" stroke="midnightblue" d="M814.85,-280.44C794.54,-271.6 762.6,-257.69 739.4,-247.59"/>
<polygon fill="midnightblue" stroke="midnightblue" points="740.62,-244.3 730.06,-243.52 737.83,-250.72 740.62,-244.3"/>
</g>
<!-- Node33 -->
<g id="node33" class="node">
<title>Node33</title>
<g id="a_node33"><a xlink:href="_nemo_8h.html" target="_top" xlink:title=" ">
<polygon fill="none" stroke="black" points="1155.5,-168.5 1155.5,-187.5 1245.5,-187.5 1245.5,-168.5 1155.5,-168.5"/>
<text text-anchor="middle" x="1200.5" y="-175.5" font-family="Helvetica,sans-Serif" font-size="10.00">../Player/Nemo.h</text>
</a>
</g>
</g>
<!-- Node25&#45;&gt;Node33 -->
<g id="edge44" class="edge">
<title>Node25&#45;&gt;Node33</title>
<path fill="none" stroke="midnightblue" d="M858.45,-288.55C926.04,-286.85 1116.62,-278.99 1166.5,-244 1182.1,-233.05 1191.08,-212.69 1195.85,-197.66"/>
<polygon fill="midnightblue" stroke="midnightblue" points="1199.27,-198.45 1198.61,-187.87 1192.53,-196.54 1199.27,-198.45"/>
</g>
<!-- Node34 -->
<g id="node34" class="node">
<title>Node34</title>
<g id="a_node34"><a xlink:href="_u_i_8h.html" target="_top" xlink:title=" ">
<polygon fill="none" stroke="black" points="485.5,-112.5 485.5,-131.5 519.5,-131.5 519.5,-112.5 485.5,-112.5"/>
<text text-anchor="middle" x="502.5" y="-119.5" font-family="Helvetica,sans-Serif" font-size="10.00">UI.h</text>
</a>
</g>
</g>
<!-- Node25&#45;&gt;Node34 -->
<g id="edge48" class="edge">
<title>Node25&#45;&gt;Node34</title>
<path fill="none" stroke="midnightblue" d="M810.93,-289.86C765.86,-290.41 665.75,-286.32 596.5,-244 555.04,-218.66 524.89,-167.88 511.02,-140.86"/>
<polygon fill="midnightblue" stroke="midnightblue" points="514.09,-139.18 506.51,-131.77 507.82,-142.29 514.09,-139.18"/>
</g>
<!-- Node35 -->
<g id="node35" class="node">
<title>Node35</title>
<g id="a_node35"><a xlink:href="_endscreen_8h.html" target="_top" xlink:title=" ">
<polygon fill="none" stroke="black" points="538,-112.5 538,-131.5 643,-131.5 643,-112.5 538,-112.5"/>
<text text-anchor="middle" x="590.5" y="-119.5" font-family="Helvetica,sans-Serif" font-size="10.00">../Level/Endscreen.h</text>
</a>
</g>
</g>
<!-- Node25&#45;&gt;Node35 -->
<g id="edge51" class="edge">
<title>Node25&#45;&gt;Node35</title>
<path fill="none" stroke="midnightblue" d="M810.7,-287.39C759.62,-283.44 641.85,-271.51 614.5,-244 587.54,-216.88 586.51,-168.72 588.36,-142.07"/>
<polygon fill="midnightblue" stroke="midnightblue" points="591.87,-142.06 589.29,-131.79 584.9,-141.43 591.87,-142.06"/>
</g>
<!-- Node26&#45;&gt;Node2 -->
<g id="edge27" class="edge">
<title>Node26&#45;&gt;Node2</title>
<path fill="none" stroke="midnightblue" d="M1110.51,-224.2C1113.01,-211.32 1116.1,-186.84 1108.5,-168 1095.56,-135.94 1085.12,-128.05 1054.5,-112 1016.55,-92.1 899.43,-78.19 830.89,-71.51"/>
<polygon fill="midnightblue" stroke="midnightblue" points="831.02,-68.01 820.73,-70.54 830.35,-74.98 831.02,-68.01"/>
</g>
<!-- Node27 -->
<g id="node27" class="node">
<title>Node27</title>
<g id="a_node27"><a xlink:title=" ">
<polygon fill="none" stroke="#bfbfbf" points="1053.5,-168.5 1053.5,-187.5 1099.5,-187.5 1099.5,-168.5 1053.5,-168.5"/>
<text text-anchor="middle" x="1076.5" y="-175.5" font-family="Helvetica,sans-Serif" font-size="10.00">cstring</text>
</a>
</g>
</g>
<!-- Node26&#45;&gt;Node27 -->
<g id="edge28" class="edge">
<title>Node26&#45;&gt;Node27</title>
<path fill="none" stroke="midnightblue" d="M1103.22,-224.08C1098.79,-216.61 1092.34,-205.72 1086.88,-196.52"/>
<polygon fill="midnightblue" stroke="midnightblue" points="1089.79,-194.57 1081.69,-187.75 1083.77,-198.14 1089.79,-194.57"/>
</g>
<!-- Node28 -->
<g id="node28" class="node">
<title>Node28</title>
<g id="a_node28"><a xlink:href="_game_character_8h.html" target="_top" xlink:title=" ">
<polygon fill="none" stroke="black" points="808,-168.5 808,-187.5 901,-187.5 901,-168.5 808,-168.5"/>
<text text-anchor="middle" x="854.5" y="-175.5" font-family="Helvetica,sans-Serif" font-size="10.00">GameCharacter.h</text>
</a>
</g>
</g>
<!-- Node26&#45;&gt;Node28 -->
<g id="edge29" class="edge">
<title>Node26&#45;&gt;Node28</title>
<path fill="none" stroke="midnightblue" d="M1068.25,-224.44C1023.85,-215 952.35,-199.8 904.41,-189.61"/>
<polygon fill="midnightblue" stroke="midnightblue" points="905.07,-186.17 894.56,-187.52 903.61,-193.02 905.07,-186.17"/>
</g>
<!-- Node28&#45;&gt;Node2 -->
<g id="edge30" class="edge">
<title>Node28&#45;&gt;Node2</title>
<path fill="none" stroke="midnightblue" d="M848.61,-168.37C836.24,-150.22 807.32,-107.8 791.08,-83.99"/>
<polygon fill="midnightblue" stroke="midnightblue" points="793.88,-81.88 785.36,-75.59 788.1,-85.83 793.88,-81.88"/>
</g>
<!-- Node28&#45;&gt;Node29 -->
<g id="edge31" class="edge">
<title>Node28&#45;&gt;Node29</title>
<path fill="none" stroke="midnightblue" d="M877.79,-168.44C902.31,-159.44 941.1,-145.19 968.7,-135.05"/>
<polygon fill="midnightblue" stroke="midnightblue" points="970.14,-138.25 978.32,-131.52 967.72,-131.68 970.14,-138.25"/>
</g>
<!-- Node29&#45;&gt;Node2 -->
<g id="edge32" class="edge">
<title>Node29&#45;&gt;Node2</title>
<path fill="none" stroke="midnightblue" d="M966.32,-112.44C927.92,-103.1 866.32,-88.12 824.44,-77.93"/>
<polygon fill="midnightblue" stroke="midnightblue" points="825.06,-74.48 814.51,-75.52 823.4,-81.28 825.06,-74.48"/>
</g>
<!-- Node30&#45;&gt;Node2 -->
<g id="edge34" class="edge">
<title>Node30&#45;&gt;Node2</title>
<path fill="none" stroke="midnightblue" d="M949.85,-224.38C942.56,-211.3 927.49,-186.07 910.5,-168 876.92,-132.28 829.88,-99.29 802.26,-81.27"/>
<polygon fill="midnightblue" stroke="midnightblue" points="803.98,-78.22 793.68,-75.75 800.19,-84.11 803.98,-78.22"/>
</g>
<!-- Node30&#45;&gt;Node28 -->
<g id="edge35" class="edge">
<title>Node30&#45;&gt;Node28</title>
<path fill="none" stroke="midnightblue" d="M938.43,-224.32C922.54,-215.74 897.99,-202.49 879.54,-192.52"/>
<polygon fill="midnightblue" stroke="midnightblue" points="880.99,-189.33 870.53,-187.65 877.66,-195.49 880.99,-189.33"/>
</g>
<!-- Node30&#45;&gt;Node29 -->
<g id="edge36" class="edge">
<title>Node30&#45;&gt;Node29</title>
<path fill="none" stroke="midnightblue" d="M958.19,-224.37C965.84,-206.46 983.59,-164.92 993.83,-140.95"/>
<polygon fill="midnightblue" stroke="midnightblue" points="997.12,-142.16 997.83,-131.59 990.68,-139.41 997.12,-142.16"/>
</g>
<!-- Node31&#45;&gt;Node2 -->
<g id="edge38" class="edge">
<title>Node31&#45;&gt;Node2</title>
<path fill="none" stroke="midnightblue" d="M825.48,-224.24C817.33,-215.76 805.69,-202.15 799.5,-188 784.62,-153.98 780.73,-110.16 779.76,-85.68"/>
<polygon fill="midnightblue" stroke="midnightblue" points="783.26,-85.52 779.49,-75.62 776.26,-85.71 783.26,-85.52"/>
</g>
<!-- Node31&#45;&gt;Node28 -->
<g id="edge39" class="edge">
<title>Node31&#45;&gt;Node28</title>
<path fill="none" stroke="midnightblue" d="M837.8,-224.08C840.48,-216.85 844.35,-206.41 847.69,-197.4"/>
<polygon fill="midnightblue" stroke="midnightblue" points="851.07,-198.34 851.26,-187.75 844.5,-195.91 851.07,-198.34"/>
</g>
<!-- Node32&#45;&gt;Node2 -->
<g id="edge41" class="edge">
<title>Node32&#45;&gt;Node2</title>
<path fill="none" stroke="midnightblue" d="M714.21,-224.08C725.12,-197.83 757.24,-120.55 771.97,-85.12"/>
<polygon fill="midnightblue" stroke="midnightblue" points="775.33,-86.15 775.94,-75.57 768.87,-83.46 775.33,-86.15"/>
</g>
<!-- Node32&#45;&gt;Node28 -->
<g id="edge42" class="edge">
<title>Node32&#45;&gt;Node28</title>
<path fill="none" stroke="midnightblue" d="M733.32,-224.44C757.33,-215.44 795.33,-201.19 822.37,-191.05"/>
<polygon fill="midnightblue" stroke="midnightblue" points="823.66,-194.3 831.79,-187.52 821.2,-187.75 823.66,-194.3"/>
</g>
<!-- Node33&#45;&gt;Node2 -->
<g id="edge47" class="edge">
<title>Node33&#45;&gt;Node2</title>
<path fill="none" stroke="midnightblue" d="M1195.61,-168.47C1186.83,-154.07 1166.93,-125.2 1141.5,-112 1088.56,-84.53 917.58,-73.12 830.9,-69.01"/>
<polygon fill="midnightblue" stroke="midnightblue" points="830.91,-65.51 820.76,-68.55 830.59,-72.5 830.91,-65.51"/>
</g>
<!-- Node33&#45;&gt;Node24 -->
<g id="edge46" class="edge">
<title>Node33&#45;&gt;Node24</title>
<path fill="none" stroke="midnightblue" d="M1212.07,-168.31C1247.87,-141.42 1357.13,-59.35 1401.97,-25.67"/>
<polygon fill="midnightblue" stroke="midnightblue" points="1404.15,-28.41 1410.04,-19.61 1399.95,-22.81 1404.15,-28.41"/>
</g>
<!-- Node33&#45;&gt;Node29 -->
<g id="edge45" class="edge">
<title>Node33&#45;&gt;Node29</title>
<path fill="none" stroke="midnightblue" d="M1168.97,-168.44C1134.91,-159.2 1080.49,-144.44 1042.98,-134.26"/>
<polygon fill="midnightblue" stroke="midnightblue" points="1043.45,-130.76 1032.88,-131.52 1041.62,-137.51 1043.45,-130.76"/>
</g>
<!-- Node34&#45;&gt;Node2 -->
<g id="edge49" class="edge">
<title>Node34&#45;&gt;Node2</title>
<path fill="none" stroke="midnightblue" d="M519.53,-114.91C522.81,-113.86 526.24,-112.83 529.5,-112 597.46,-94.65 677.47,-81.49 728.33,-74.01"/>
<polygon fill="midnightblue" stroke="midnightblue" points="729.02,-77.45 738.41,-72.55 728.01,-70.52 729.02,-77.45"/>
</g>
<!-- Node35&#45;&gt;Node2 -->
<g id="edge52" class="edge">
<title>Node35&#45;&gt;Node2</title>
<path fill="none" stroke="midnightblue" d="M620.45,-112.44C652.66,-103.24 704.03,-88.56 739.64,-78.39"/>
<polygon fill="midnightblue" stroke="midnightblue" points="741.04,-81.63 749.69,-75.52 739.12,-74.9 741.04,-81.63"/>
</g>
</g>
</svg>
