<?xml version="1.0" encoding="UTF-8" standalone="no"?>
<!DOCTYPE svg PUBLIC "-//W3C//DTD SVG 1.1//EN"
 "http://www.w3.org/Graphics/SVG/1.1/DTD/svg11.dtd">
<!-- Generated by graphviz version 3.0.0 (20220226.1711)
 -->
<!-- Title: Nemo.cpp Pages: 1 -->
<svg width="1549pt" height="364pt"
 viewBox="0.00 0.00 1548.50 364.00" xmlns="http://www.w3.org/2000/svg" xmlns:xlink="http://www.w3.org/1999/xlink">
<g id="graph0" class="graph" transform="scale(1 1) rotate(0) translate(4 360)">
<title>Nemo.cpp</title>
<!-- Node1 -->
<g id="node1" class="node">
<title>Node1</title>
<g id="a_node1"><a xlink:title=" ">
<polygon fill="#bfbfbf" stroke="black" points="492,-336.5 492,-355.5 553,-355.5 553,-336.5 492,-336.5"/>
<text text-anchor="middle" x="522.5" y="-343.5" font-family="Helvetica,sans-Serif" font-size="10.00">Nemo.cpp</text>
</a>
</g>
</g>
<!-- Node2 -->
<g id="node2" class="node">
<title>Node2</title>
<g id="a_node2"><a xlink:href="_nemo_8h.html" target="_top" xlink:title=" ">
<polygon fill="none" stroke="black" points="326.5,-168.5 326.5,-187.5 376.5,-187.5 376.5,-168.5 326.5,-168.5"/>
<text text-anchor="middle" x="351.5" y="-175.5" font-family="Helvetica,sans-Serif" font-size="10.00">Nemo.h</text>
</a>
</g>
</g>
<!-- Node1&#45;&gt;Node2 -->
<g id="edge1" class="edge">
<title>Node1&#45;&gt;Node2</title>
<path fill="none" stroke="midnightblue" d="M499.33,-336.39C465.05,-322.44 401.24,-291.54 367.5,-244 357.93,-230.53 354.06,-211.97 352.5,-198.13"/>
<polygon fill="midnightblue" stroke="midnightblue" points="355.97,-197.51 351.67,-187.83 348.99,-198.08 355.97,-197.51"/>
</g>
<!-- Node27 -->
<g id="node27" class="node">
<title>Node27</title>
<g id="a_node27"><a xlink:href="_level_8h.html" target="_top" xlink:title=" ">
<polygon fill="none" stroke="black" points="677.5,-280.5 677.5,-299.5 757.5,-299.5 757.5,-280.5 677.5,-280.5"/>
<text text-anchor="middle" x="717.5" y="-287.5" font-family="Helvetica,sans-Serif" font-size="10.00">../Level/Level.h</text>
</a>
</g>
</g>
<!-- Node1&#45;&gt;Node27 -->
<g id="edge29" class="edge">
<title>Node1&#45;&gt;Node27</title>
<path fill="none" stroke="midnightblue" d="M553.4,-336.44C586.77,-327.2 640.09,-312.44 676.85,-302.26"/>
<polygon fill="midnightblue" stroke="midnightblue" points="678.04,-305.56 686.75,-299.52 676.17,-298.81 678.04,-305.56"/>
</g>
<!-- Node3 -->
<g id="node3" class="node">
<title>Node3</title>
<g id="a_node3"><a xlink:href="_sprite_8h.html" target="_top" xlink:title=" ">
<polygon fill="none" stroke="black" points="379.5,-112.5 379.5,-131.5 467.5,-131.5 467.5,-112.5 379.5,-112.5"/>
<text text-anchor="middle" x="423.5" y="-119.5" font-family="Helvetica,sans-Serif" font-size="10.00">../Sprite/Sprite.h</text>
</a>
</g>
</g>
<!-- Node2&#45;&gt;Node3 -->
<g id="edge2" class="edge">
<title>Node2&#45;&gt;Node3</title>
<path fill="none" stroke="midnightblue" d="M363.07,-168.32C373.92,-160.18 390.38,-147.84 403.38,-138.09"/>
<polygon fill="midnightblue" stroke="midnightblue" points="405.82,-140.63 411.72,-131.83 401.62,-135.03 405.82,-140.63"/>
</g>
<!-- Node4 -->
<g id="node4" class="node">
<title>Node4</title>
<g id="a_node4"><a xlink:href="_i_n_c_l_u_d_e_s_8h.html" target="_top" xlink:title=" ">
<polygon fill="none" stroke="black" points="678.5,-56.5 678.5,-75.5 760.5,-75.5 760.5,-56.5 678.5,-56.5"/>
<text text-anchor="middle" x="719.5" y="-63.5" font-family="Helvetica,sans-Serif" font-size="10.00">../INCLUDES.h</text>
</a>
</g>
</g>
<!-- Node2&#45;&gt;Node4 -->
<g id="edge28" class="edge">
<title>Node2&#45;&gt;Node4</title>
<path fill="none" stroke="midnightblue" d="M351.26,-168.27C351.38,-154.08 353.88,-126.21 370.5,-112 414.23,-74.62 582.52,-67.88 668.42,-66.93"/>
<polygon fill="midnightblue" stroke="midnightblue" points="668.5,-70.43 678.47,-66.85 668.44,-63.43 668.5,-70.43"/>
</g>
<!-- Node26 -->
<g id="node26" class="node">
<title>Node26</title>
<g id="a_node26"><a xlink:href="_game_audio_8h.html" target="_top" xlink:title=" ">
<polygon fill="none" stroke="black" points="0,-0.5 0,-19.5 101,-19.5 101,-0.5 0,-0.5"/>
<text text-anchor="middle" x="50.5" y="-7.5" font-family="Helvetica,sans-Serif" font-size="10.00">Level/GameAudio.h</text>
</a>
</g>
</g>
<!-- Node2&#45;&gt;Node26 -->
<g id="edge27" class="edge">
<title>Node2&#45;&gt;Node26</title>
<path fill="none" stroke="midnightblue" d="M335.74,-168.31C286.47,-141.14 135.06,-57.64 75.21,-24.63"/>
<polygon fill="midnightblue" stroke="midnightblue" points="76.55,-21.37 66.1,-19.61 73.17,-27.5 76.55,-21.37"/>
</g>
<!-- Node3&#45;&gt;Node4 -->
<g id="edge3" class="edge">
<title>Node3&#45;&gt;Node4</title>
<path fill="none" stroke="midnightblue" d="M467.81,-112.92C521.41,-103.14 611.46,-86.71 668.07,-76.38"/>
<polygon fill="midnightblue" stroke="midnightblue" points="669.02,-79.77 678.23,-74.53 667.76,-72.88 669.02,-79.77"/>
</g>
<!-- Node5 -->
<g id="node5" class="node">
<title>Node5</title>
<g id="a_node5"><a xlink:title=" ">
<polygon fill="none" stroke="#bfbfbf" points="1279,-0.5 1279,-19.5 1328,-19.5 1328,-0.5 1279,-0.5"/>
<text text-anchor="middle" x="1303.5" y="-7.5" font-family="Helvetica,sans-Serif" font-size="10.00">string.h</text>
</a>
</g>
</g>
<!-- Node4&#45;&gt;Node5 -->
<g id="edge4" class="edge">
<title>Node4&#45;&gt;Node5</title>
<path fill="none" stroke="midnightblue" d="M760.52,-64.12C850.81,-61.66 1073.57,-52.68 1268.86,-19.79"/>
<polygon fill="midnightblue" stroke="midnightblue" points="1269.46,-23.23 1278.73,-18.1 1268.28,-16.33 1269.46,-23.23"/>
</g>
<!-- Node6 -->
<g id="node6" class="node">
<title>Node6</title>
<g id="a_node6"><a xlink:title=" ">
<polygon fill="none" stroke="#bfbfbf" points="1346.5,-0.5 1346.5,-19.5 1394.5,-19.5 1394.5,-0.5 1346.5,-0.5"/>
<text text-anchor="middle" x="1370.5" y="-7.5" font-family="Helvetica,sans-Serif" font-size="10.00">raylib.h</text>
</a>
</g>
</g>
<!-- Node4&#45;&gt;Node6 -->
<g id="edge5" class="edge">
<title>Node4&#45;&gt;Node6</title>
<path fill="none" stroke="midnightblue" d="M760.69,-64.74C858.96,-63.55 1114.87,-56.98 1336.6,-19.81"/>
<polygon fill="midnightblue" stroke="midnightblue" points="1337.2,-23.26 1346.47,-18.13 1336.02,-16.36 1337.2,-23.26"/>
</g>
<!-- Node7 -->
<g id="node7" class="node">
<title>Node7</title>
<g id="a_node7"><a xlink:title=" ">
<polygon fill="none" stroke="#bfbfbf" points="1412.5,-0.5 1412.5,-19.5 1472.5,-19.5 1472.5,-0.5 1412.5,-0.5"/>
<text text-anchor="middle" x="1442.5" y="-7.5" font-family="Helvetica,sans-Serif" font-size="10.00">raymath.h</text>
</a>
</g>
</g>
<!-- Node4&#45;&gt;Node7 -->
<g id="edge6" class="edge">
<title>Node4&#45;&gt;Node7</title>
<path fill="none" stroke="midnightblue" d="M760.6,-64.6C865.88,-63.08 1153.83,-55.83 1402.42,-19.92"/>
<polygon fill="midnightblue" stroke="midnightblue" points="1402.97,-23.37 1412.36,-18.46 1401.96,-16.45 1402.97,-23.37"/>
</g>
<!-- Node8 -->
<g id="node8" class="node">
<title>Node8</title>
<g id="a_node8"><a xlink:title=" ">
<polygon fill="none" stroke="#bfbfbf" points="119.5,-0.5 119.5,-19.5 167.5,-19.5 167.5,-0.5 119.5,-0.5"/>
<text text-anchor="middle" x="143.5" y="-7.5" font-family="Helvetica,sans-Serif" font-size="10.00">stdlib.h</text>
</a>
</g>
</g>
<!-- Node4&#45;&gt;Node8 -->
<g id="edge7" class="edge">
<title>Node4&#45;&gt;Node8</title>
<path fill="none" stroke="midnightblue" d="M678.3,-64.16C588.73,-61.78 369.55,-52.98 177.53,-19.85"/>
<polygon fill="midnightblue" stroke="midnightblue" points="177.99,-16.38 167.53,-18.1 176.78,-23.28 177.99,-16.38"/>
</g>
<!-- Node9 -->
<g id="node9" class="node">
<title>Node9</title>
<g id="a_node9"><a xlink:title=" ">
<polygon fill="none" stroke="#bfbfbf" points="186,-0.5 186,-19.5 231,-19.5 231,-0.5 186,-0.5"/>
<text text-anchor="middle" x="208.5" y="-7.5" font-family="Helvetica,sans-Serif" font-size="10.00">cstdlib</text>
</a>
</g>
</g>
<!-- Node4&#45;&gt;Node9 -->
<g id="edge8" class="edge">
<title>Node4&#45;&gt;Node9</title>
<path fill="none" stroke="midnightblue" d="M678.47,-63.64C596.86,-60.4 408.39,-50.23 241.08,-19.75"/>
<polygon fill="midnightblue" stroke="midnightblue" points="241.58,-16.28 231.11,-17.9 240.3,-23.16 241.58,-16.28"/>
</g>
<!-- Node10 -->
<g id="node10" class="node">
<title>Node10</title>
<g id="a_node10"><a xlink:title=" ">
<polygon fill="none" stroke="#bfbfbf" points="249.5,-0.5 249.5,-19.5 295.5,-19.5 295.5,-0.5 249.5,-0.5"/>
<text text-anchor="middle" x="272.5" y="-7.5" font-family="Helvetica,sans-Serif" font-size="10.00">stdio.h</text>
</a>
</g>
</g>
<!-- Node4&#45;&gt;Node10 -->
<g id="edge9" class="edge">
<title>Node4&#45;&gt;Node10</title>
<path fill="none" stroke="midnightblue" d="M678.22,-62.8C604.99,-58.41 447.48,-46.75 305.97,-19.99"/>
<polygon fill="midnightblue" stroke="midnightblue" points="306.29,-16.49 295.81,-18.04 304.97,-23.36 306.29,-16.49"/>
</g>
<!-- Node11 -->
<g id="node11" class="node">
<title>Node11</title>
<g id="a_node11"><a xlink:title=" ">
<polygon fill="none" stroke="#bfbfbf" points="1490.5,-0.5 1490.5,-19.5 1540.5,-19.5 1540.5,-0.5 1490.5,-0.5"/>
<text text-anchor="middle" x="1515.5" y="-7.5" font-family="Helvetica,sans-Serif" font-size="10.00">config.h</text>
</a>
</g>
</g>
<!-- Node4&#45;&gt;Node11 -->
<g id="edge10" class="edge">
<title>Node4&#45;&gt;Node11</title>
<path fill="none" stroke="midnightblue" d="M760.7,-65.44C874.25,-66.06 1201.21,-63.72 1480.46,-19.83"/>
<polygon fill="midnightblue" stroke="midnightblue" points="1481.04,-23.28 1490.37,-18.25 1479.94,-16.37 1481.04,-23.28"/>
</g>
<!-- Node12 -->
<g id="node12" class="node">
<title>Node12</title>
<g id="a_node12"><a xlink:title=" ">
<polygon fill="none" stroke="#bfbfbf" points="314,-0.5 314,-19.5 373,-19.5 373,-0.5 314,-0.5"/>
<text text-anchor="middle" x="343.5" y="-7.5" font-family="Helvetica,sans-Serif" font-size="10.00">process.h</text>
</a>
</g>
</g>
<!-- Node4&#45;&gt;Node12 -->
<g id="edge11" class="edge">
<title>Node4&#45;&gt;Node12</title>
<path fill="none" stroke="midnightblue" d="M678.32,-60.77C616.49,-54.13 495.82,-40.11 383.41,-20.01"/>
<polygon fill="midnightblue" stroke="midnightblue" points="383.71,-16.51 373.25,-18.17 382.47,-23.39 383.71,-16.51"/>
</g>
<!-- Node13 -->
<g id="node13" class="node">
<title>Node13</title>
<g id="a_node13"><a xlink:title=" ">
<polygon fill="none" stroke="#bfbfbf" points="391,-0.5 391,-19.5 432,-19.5 432,-0.5 391,-0.5"/>
<text text-anchor="middle" x="411.5" y="-7.5" font-family="Helvetica,sans-Serif" font-size="10.00">string</text>
</a>
</g>
</g>
<!-- Node4&#45;&gt;Node13 -->
<g id="edge12" class="edge">
<title>Node4&#45;&gt;Node13</title>
<path fill="none" stroke="midnightblue" d="M678.19,-60.03C625.53,-53.32 531.55,-40.09 441.85,-19.8"/>
<polygon fill="midnightblue" stroke="midnightblue" points="442.59,-16.38 432.06,-17.56 441.03,-23.2 442.59,-16.38"/>
</g>
<!-- Node14 -->
<g id="node14" class="node">
<title>Node14</title>
<g id="a_node14"><a xlink:title=" ">
<polygon fill="none" stroke="#bfbfbf" points="450.5,-0.5 450.5,-19.5 488.5,-19.5 488.5,-0.5 450.5,-0.5"/>
<text text-anchor="middle" x="469.5" y="-7.5" font-family="Helvetica,sans-Serif" font-size="10.00">array</text>
</a>
</g>
</g>
<!-- Node4&#45;&gt;Node14 -->
<g id="edge13" class="edge">
<title>Node4&#45;&gt;Node14</title>
<path fill="none" stroke="midnightblue" d="M678.27,-58.06C635.56,-50.55 566.73,-37.59 498.72,-20.09"/>
<polygon fill="midnightblue" stroke="midnightblue" points="499.26,-16.62 488.7,-17.48 497.49,-23.39 499.26,-16.62"/>
</g>
<!-- Node15 -->
<g id="node15" class="node">
<title>Node15</title>
<g id="a_node15"><a xlink:title=" ">
<polygon fill="none" stroke="#bfbfbf" points="506.5,-0.5 506.5,-19.5 548.5,-19.5 548.5,-0.5 506.5,-0.5"/>
<text text-anchor="middle" x="527.5" y="-7.5" font-family="Helvetica,sans-Serif" font-size="10.00">vector</text>
</a>
</g>
</g>
<!-- Node4&#45;&gt;Node15 -->
<g id="edge14" class="edge">
<title>Node4&#45;&gt;Node15</title>
<path fill="none" stroke="midnightblue" d="M688.09,-56.48C657.39,-48.11 609.09,-34.82 558.58,-20.27"/>
<polygon fill="midnightblue" stroke="midnightblue" points="559.37,-16.86 548.79,-17.45 557.43,-23.58 559.37,-16.86"/>
</g>
<!-- Node16 -->
<g id="node16" class="node">
<title>Node16</title>
<g id="a_node16"><a xlink:title=" ">
<polygon fill="none" stroke="#bfbfbf" points="566.5,-0.5 566.5,-19.5 610.5,-19.5 610.5,-0.5 566.5,-0.5"/>
<text text-anchor="middle" x="588.5" y="-7.5" font-family="Helvetica,sans-Serif" font-size="10.00">cmath</text>
</a>
</g>
</g>
<!-- Node4&#45;&gt;Node16 -->
<g id="edge15" class="edge">
<title>Node4&#45;&gt;Node16</title>
<path fill="none" stroke="midnightblue" d="M698.74,-56.44C677.18,-47.56 643.24,-33.56 618.71,-23.45"/>
<polygon fill="midnightblue" stroke="midnightblue" points="619.74,-20.09 609.16,-19.52 617.07,-26.56 619.74,-20.09"/>
</g>
<!-- Node17 -->
<g id="node17" class="node">
<title>Node17</title>
<g id="a_node17"><a xlink:title=" ">
<polygon fill="none" stroke="#bfbfbf" points="628.5,-0.5 628.5,-19.5 680.5,-19.5 680.5,-0.5 628.5,-0.5"/>
<text text-anchor="middle" x="654.5" y="-7.5" font-family="Helvetica,sans-Serif" font-size="10.00">memory</text>
</a>
</g>
</g>
<!-- Node4&#45;&gt;Node17 -->
<g id="edge16" class="edge">
<title>Node4&#45;&gt;Node17</title>
<path fill="none" stroke="midnightblue" d="M709.06,-56.32C699.35,-48.26 684.68,-36.08 673,-26.37"/>
<polygon fill="midnightblue" stroke="midnightblue" points="675.06,-23.53 665.13,-19.83 670.59,-28.92 675.06,-23.53"/>
</g>
<!-- Node18 -->
<g id="node18" class="node">
<title>Node18</title>
<g id="a_node18"><a xlink:title=" ">
<polygon fill="none" stroke="#bfbfbf" points="699,-0.5 699,-19.5 740,-19.5 740,-0.5 699,-0.5"/>
<text text-anchor="middle" x="719.5" y="-7.5" font-family="Helvetica,sans-Serif" font-size="10.00">ctime</text>
</a>
</g>
</g>
<!-- Node4&#45;&gt;Node18 -->
<g id="edge17" class="edge">
<title>Node4&#45;&gt;Node18</title>
<path fill="none" stroke="midnightblue" d="M719.5,-56.08C719.5,-49.01 719.5,-38.86 719.5,-29.99"/>
<polygon fill="midnightblue" stroke="midnightblue" points="723,-29.75 719.5,-19.75 716,-29.75 723,-29.75"/>
</g>
<!-- Node19 -->
<g id="node19" class="node">
<title>Node19</title>
<g id="a_node19"><a xlink:title=" ">
<polygon fill="none" stroke="#bfbfbf" points="758.5,-0.5 758.5,-19.5 804.5,-19.5 804.5,-0.5 758.5,-0.5"/>
<text text-anchor="middle" x="781.5" y="-7.5" font-family="Helvetica,sans-Serif" font-size="10.00">chrono</text>
</a>
</g>
</g>
<!-- Node4&#45;&gt;Node19 -->
<g id="edge18" class="edge">
<title>Node4&#45;&gt;Node19</title>
<path fill="none" stroke="midnightblue" d="M729.46,-56.32C738.63,-48.34 752.44,-36.31 763.53,-26.65"/>
<polygon fill="midnightblue" stroke="midnightblue" points="766.12,-29.04 771.36,-19.83 761.52,-23.76 766.12,-29.04"/>
</g>
<!-- Node20 -->
<g id="node20" class="node">
<title>Node20</title>
<g id="a_node20"><a xlink:title=" ">
<polygon fill="none" stroke="#bfbfbf" points="822.5,-0.5 822.5,-19.5 874.5,-19.5 874.5,-0.5 822.5,-0.5"/>
<text text-anchor="middle" x="848.5" y="-7.5" font-family="Helvetica,sans-Serif" font-size="10.00">sstream</text>
</a>
</g>
</g>
<!-- Node4&#45;&gt;Node20 -->
<g id="edge19" class="edge">
<title>Node4&#45;&gt;Node20</title>
<path fill="none" stroke="midnightblue" d="M739.94,-56.44C761.17,-47.56 794.6,-33.56 818.75,-23.45"/>
<polygon fill="midnightblue" stroke="midnightblue" points="820.28,-26.61 828.16,-19.52 817.58,-20.15 820.28,-26.61"/>
</g>
<!-- Node21 -->
<g id="node21" class="node">
<title>Node21</title>
<g id="a_node21"><a xlink:title=" ">
<polygon fill="none" stroke="#bfbfbf" points="893,-0.5 893,-19.5 942,-19.5 942,-0.5 893,-0.5"/>
<text text-anchor="middle" x="917.5" y="-7.5" font-family="Helvetica,sans-Serif" font-size="10.00">fstream</text>
</a>
</g>
</g>
<!-- Node4&#45;&gt;Node21 -->
<g id="edge20" class="edge">
<title>Node4&#45;&gt;Node21</title>
<path fill="none" stroke="midnightblue" d="M750.87,-56.44C786.86,-46.63 845.67,-30.59 882.94,-20.43"/>
<polygon fill="midnightblue" stroke="midnightblue" points="884.11,-23.73 892.84,-17.73 882.27,-16.98 884.11,-23.73"/>
</g>
<!-- Node22 -->
<g id="node22" class="node">
<title>Node22</title>
<g id="a_node22"><a xlink:title=" ">
<polygon fill="none" stroke="#bfbfbf" points="960.5,-0.5 960.5,-19.5 1014.5,-19.5 1014.5,-0.5 960.5,-0.5"/>
<text text-anchor="middle" x="987.5" y="-7.5" font-family="Helvetica,sans-Serif" font-size="10.00">iostream</text>
</a>
</g>
</g>
<!-- Node4&#45;&gt;Node22 -->
<g id="edge21" class="edge">
<title>Node4&#45;&gt;Node22</title>
<path fill="none" stroke="midnightblue" d="M760.71,-57.69C805.11,-49.67 878.08,-36.04 950.24,-20.19"/>
<polygon fill="midnightblue" stroke="midnightblue" points="951.4,-23.52 960.41,-17.94 949.89,-16.68 951.4,-23.52"/>
</g>
<!-- Node23 -->
<g id="node23" class="node">
<title>Node23</title>
<g id="a_node23"><a xlink:title=" ">
<polygon fill="none" stroke="#bfbfbf" points="1032.5,-0.5 1032.5,-19.5 1082.5,-19.5 1082.5,-0.5 1032.5,-0.5"/>
<text text-anchor="middle" x="1057.5" y="-7.5" font-family="Helvetica,sans-Serif" font-size="10.00">iomanip</text>
</a>
</g>
</g>
<!-- Node4&#45;&gt;Node23 -->
<g id="edge22" class="edge">
<title>Node4&#45;&gt;Node23</title>
<path fill="none" stroke="midnightblue" d="M760.57,-60.4C817.33,-53.72 923.12,-40.1 1022.43,-20.03"/>
<polygon fill="midnightblue" stroke="midnightblue" points="1023.23,-23.44 1032.32,-18 1021.82,-16.58 1023.23,-23.44"/>
</g>
<!-- Node24 -->
<g id="node24" class="node">
<title>Node24</title>
<g id="a_node24"><a xlink:title=" ">
<polygon fill="none" stroke="#bfbfbf" points="1100.5,-0.5 1100.5,-19.5 1144.5,-19.5 1144.5,-0.5 1100.5,-0.5"/>
<text text-anchor="middle" x="1122.5" y="-7.5" font-family="Helvetica,sans-Serif" font-size="10.00">thread</text>
</a>
</g>
</g>
<!-- Node4&#45;&gt;Node24 -->
<g id="edge23" class="edge">
<title>Node4&#45;&gt;Node24</title>
<path fill="none" stroke="midnightblue" d="M760.58,-62.22C827.71,-57.2 965.13,-44.95 1090.13,-19.98"/>
<polygon fill="midnightblue" stroke="midnightblue" points="1091.15,-23.35 1100.26,-17.93 1089.76,-16.49 1091.15,-23.35"/>
</g>
<!-- Node25 -->
<g id="node25" class="node">
<title>Node25</title>
<g id="a_node25"><a xlink:title=" ">
<polygon fill="none" stroke="#bfbfbf" points="1162.5,-0.5 1162.5,-19.5 1260.5,-19.5 1260.5,-0.5 1162.5,-0.5"/>
<text text-anchor="middle" x="1211.5" y="-7.5" font-family="Helvetica,sans-Serif" font-size="10.00">nlohmann/json.hpp</text>
</a>
</g>
</g>
<!-- Node4&#45;&gt;Node25 -->
<g id="edge24" class="edge">
<title>Node4&#45;&gt;Node25</title>
<path fill="none" stroke="midnightblue" d="M760.57,-61.44C835.97,-54.75 1001.78,-39.35 1152.14,-20.12"/>
<polygon fill="midnightblue" stroke="midnightblue" points="1153.01,-23.53 1162.48,-18.79 1152.11,-16.59 1153.01,-23.53"/>
</g>
<!-- Node4&#45;&gt;Node26 -->
<g id="edge25" class="edge">
<title>Node4&#45;&gt;Node26</title>
<path fill="none" stroke="midnightblue" d="M678.32,-63.25C580.22,-58.58 325.62,-44.61 107.41,-20.63"/>
<polygon fill="midnightblue" stroke="midnightblue" points="107.7,-17.14 97.37,-19.52 106.93,-24.1 107.7,-17.14"/>
</g>
<!-- Node26&#45;&gt;Node4 -->
<g id="edge26" class="edge">
<title>Node26&#45;&gt;Node4</title>
<path fill="none" stroke="midnightblue" d="M101.31,-17.7C107.47,-18.55 113.64,-19.34 119.5,-20 322.21,-42.66 564.2,-56.68 668.11,-62.24"/>
<polygon fill="midnightblue" stroke="midnightblue" points="668.15,-65.75 678.33,-62.79 668.53,-58.76 668.15,-65.75"/>
</g>
<!-- Node27&#45;&gt;Node2 -->
<g id="edge47" class="edge">
<title>Node27&#45;&gt;Node2</title>
<path fill="none" stroke="midnightblue" d="M677.41,-287.75C600.76,-284.68 436.89,-274.63 390.5,-244 374.06,-233.15 363.51,-212.77 357.59,-197.71"/>
<polygon fill="midnightblue" stroke="midnightblue" points="360.74,-196.13 354.07,-187.9 354.15,-198.49 360.74,-196.13"/>
</g>
<!-- Node27&#45;&gt;Node3 -->
<g id="edge50" class="edge">
<title>Node27&#45;&gt;Node3</title>
<path fill="none" stroke="midnightblue" d="M677.33,-289.02C604.63,-288.1 455.75,-281.56 423.5,-244 398.95,-215.41 408.81,-167.48 416.9,-141.35"/>
<polygon fill="midnightblue" stroke="midnightblue" points="420.31,-142.2 420.16,-131.6 413.67,-139.98 420.31,-142.2"/>
</g>
<!-- Node27&#45;&gt;Node4 -->
<g id="edge46" class="edge">
<title>Node27&#45;&gt;Node4</title>
<path fill="none" stroke="midnightblue" d="M757.89,-285.66C814.78,-280.18 914.59,-267.46 941.5,-244 987.61,-203.8 1019.91,-158.79 980.5,-112 954.23,-80.81 839.04,-71.24 770.78,-68.3"/>
<polygon fill="midnightblue" stroke="midnightblue" points="770.79,-64.8 760.66,-67.9 770.51,-71.79 770.79,-64.8"/>
</g>
<!-- Node27&#45;&gt;Node11 -->
<g id="edge53" class="edge">
<title>Node27&#45;&gt;Node11</title>
<path fill="none" stroke="midnightblue" d="M757.79,-285.55C888.22,-273.84 1290.5,-233.32 1290.5,-179 1290.5,-179 1290.5,-179 1290.5,-121 1290.5,-79.3 1416.83,-38.33 1480.17,-20.41"/>
<polygon fill="midnightblue" stroke="midnightblue" points="1481.43,-23.69 1490.13,-17.64 1479.55,-16.95 1481.43,-23.69"/>
</g>
<!-- Node28 -->
<g id="node28" class="node">
<title>Node28</title>
<g id="a_node28"><a xlink:href="_combat_2_mumy_8h.html" target="_top" xlink:title=" ">
<polygon fill="none" stroke="black" points="548.5,-224.5 548.5,-243.5 646.5,-243.5 646.5,-224.5 548.5,-224.5"/>
<text text-anchor="middle" x="597.5" y="-231.5" font-family="Helvetica,sans-Serif" font-size="10.00">../Combat/Mumy.h</text>
</a>
</g>
</g>
<!-- Node27&#45;&gt;Node28 -->
<g id="edge30" class="edge">
<title>Node27&#45;&gt;Node28</title>
<path fill="none" stroke="midnightblue" d="M698.49,-280.44C678.91,-271.64 648.19,-257.81 625.77,-247.72"/>
<polygon fill="midnightblue" stroke="midnightblue" points="626.98,-244.43 616.43,-243.52 624.11,-250.81 626.98,-244.43"/>
</g>
<!-- Node31 -->
<g id="node31" class="node">
<title>Node31</title>
<g id="a_node31"><a xlink:href="_player_8h.html" target="_top" xlink:title=" ">
<polygon fill="none" stroke="black" points="432.5,-224.5 432.5,-243.5 530.5,-243.5 530.5,-224.5 432.5,-224.5"/>
<text text-anchor="middle" x="481.5" y="-231.5" font-family="Helvetica,sans-Serif" font-size="10.00">../Combat/Player.h</text>
</a>
</g>
</g>
<!-- Node27&#45;&gt;Node31 -->
<g id="edge36" class="edge">
<title>Node27&#45;&gt;Node31</title>
<path fill="none" stroke="midnightblue" d="M680.11,-280.44C639.11,-271.06 573.25,-255.99 528.72,-245.8"/>
<polygon fill="midnightblue" stroke="midnightblue" points="529.25,-242.34 518.72,-243.52 527.69,-249.16 529.25,-242.34"/>
</g>
<!-- Node32 -->
<g id="node32" class="node">
<title>Node32</title>
<g id="a_node32"><a xlink:href="_combat_2_shadow_8h.html" target="_top" xlink:title=" ">
<polygon fill="none" stroke="black" points="665,-224.5 665,-243.5 770,-243.5 770,-224.5 665,-224.5"/>
<text text-anchor="middle" x="717.5" y="-231.5" font-family="Helvetica,sans-Serif" font-size="10.00">../Combat/Shadow.h</text>
</a>
</g>
</g>
<!-- Node27&#45;&gt;Node32 -->
<g id="edge40" class="edge">
<title>Node27&#45;&gt;Node32</title>
<path fill="none" stroke="midnightblue" d="M717.5,-280.08C717.5,-273.01 717.5,-262.86 717.5,-253.99"/>
<polygon fill="midnightblue" stroke="midnightblue" points="721,-253.75 717.5,-243.75 714,-253.75 721,-253.75"/>
</g>
<!-- Node33 -->
<g id="node33" class="node">
<title>Node33</title>
<g id="a_node33"><a xlink:href="_combat_2_pharaoh_8h.html" target="_top" xlink:title=" ">
<polygon fill="none" stroke="black" points="788,-224.5 788,-243.5 895,-243.5 895,-224.5 788,-224.5"/>
<text text-anchor="middle" x="841.5" y="-231.5" font-family="Helvetica,sans-Serif" font-size="10.00">../Combat/Pharaoh.h</text>
</a>
</g>
</g>
<!-- Node27&#45;&gt;Node33 -->
<g id="edge43" class="edge">
<title>Node27&#45;&gt;Node33</title>
<path fill="none" stroke="midnightblue" d="M737.15,-280.44C757.46,-271.6 789.4,-257.69 812.6,-247.59"/>
<polygon fill="midnightblue" stroke="midnightblue" points="814.17,-250.72 821.94,-243.52 811.38,-244.3 814.17,-250.72"/>
</g>
<!-- Node34 -->
<g id="node34" class="node">
<title>Node34</title>
<g id="a_node34"><a xlink:href="_u_i_8h.html" target="_top" xlink:title=" ">
<polygon fill="none" stroke="black" points="813.5,-112.5 813.5,-131.5 847.5,-131.5 847.5,-112.5 813.5,-112.5"/>
<text text-anchor="middle" x="830.5" y="-119.5" font-family="Helvetica,sans-Serif" font-size="10.00">UI.h</text>
</a>
</g>
</g>
<!-- Node27&#45;&gt;Node34 -->
<g id="edge48" class="edge">
<title>Node27&#45;&gt;Node34</title>
<path fill="none" stroke="midnightblue" d="M757.66,-285.08C807.05,-279.33 886.57,-266.75 904.5,-244 932.52,-208.44 882.13,-161.55 851.5,-137.94"/>
<polygon fill="midnightblue" stroke="midnightblue" points="853.2,-134.85 843.1,-131.66 849.01,-140.46 853.2,-134.85"/>
</g>
<!-- Node35 -->
<g id="node35" class="node">
<title>Node35</title>
<g id="a_node35"><a xlink:href="_endscreen_8h.html" target="_top" xlink:title=" ">
<polygon fill="none" stroke="black" points="866,-112.5 866,-131.5 971,-131.5 971,-112.5 866,-112.5"/>
<text text-anchor="middle" x="918.5" y="-119.5" font-family="Helvetica,sans-Serif" font-size="10.00">../Level/Endscreen.h</text>
</a>
</g>
</g>
<!-- Node27&#45;&gt;Node35 -->
<g id="edge51" class="edge">
<title>Node27&#45;&gt;Node35</title>
<path fill="none" stroke="midnightblue" d="M757.79,-286.01C811.52,-281.09 902.23,-269.2 922.5,-244 946.01,-214.76 934.79,-167.47 925.84,-141.52"/>
<polygon fill="midnightblue" stroke="midnightblue" points="929.01,-139.98 922.25,-131.81 922.44,-142.41 929.01,-139.98"/>
</g>
<!-- Node28&#45;&gt;Node4 -->
<g id="edge31" class="edge">
<title>Node28&#45;&gt;Node4</title>
<path fill="none" stroke="midnightblue" d="M598.76,-224.45C600.96,-211.48 606.37,-186.38 617.5,-168 639.25,-132.08 676.55,-99.7 699.51,-81.75"/>
<polygon fill="midnightblue" stroke="midnightblue" points="701.73,-84.46 707.55,-75.6 697.48,-78.9 701.73,-84.46"/>
</g>
<!-- Node29 -->
<g id="node29" class="node">
<title>Node29</title>
<g id="a_node29"><a xlink:title=" ">
<polygon fill="none" stroke="#bfbfbf" points="523.5,-168.5 523.5,-187.5 569.5,-187.5 569.5,-168.5 523.5,-168.5"/>
<text text-anchor="middle" x="546.5" y="-175.5" font-family="Helvetica,sans-Serif" font-size="10.00">cstring</text>
</a>
</g>
</g>
<!-- Node28&#45;&gt;Node29 -->
<g id="edge32" class="edge">
<title>Node28&#45;&gt;Node29</title>
<path fill="none" stroke="midnightblue" d="M589.08,-224.08C581.65,-216.22 570.65,-204.57 561.69,-195.08"/>
<polygon fill="midnightblue" stroke="midnightblue" points="564.18,-192.62 554.76,-187.75 559.09,-197.42 564.18,-192.62"/>
</g>
<!-- Node30 -->
<g id="node30" class="node">
<title>Node30</title>
<g id="a_node30"><a xlink:href="_game_character_8h.html" target="_top" xlink:title=" ">
<polygon fill="none" stroke="black" points="626,-168.5 626,-187.5 719,-187.5 719,-168.5 626,-168.5"/>
<text text-anchor="middle" x="672.5" y="-175.5" font-family="Helvetica,sans-Serif" font-size="10.00">GameCharacter.h</text>
</a>
</g>
</g>
<!-- Node28&#45;&gt;Node30 -->
<g id="edge33" class="edge">
<title>Node28&#45;&gt;Node30</title>
<path fill="none" stroke="midnightblue" d="M609.55,-224.32C620.96,-216.11 638.33,-203.6 651.93,-193.81"/>
<polygon fill="midnightblue" stroke="midnightblue" points="654.16,-196.52 660.23,-187.83 650.07,-190.84 654.16,-196.52"/>
</g>
<!-- Node30&#45;&gt;Node3 -->
<g id="edge35" class="edge">
<title>Node30&#45;&gt;Node3</title>
<path fill="none" stroke="midnightblue" d="M633.05,-168.44C589.61,-159.02 519.71,-143.87 472.72,-133.68"/>
<polygon fill="midnightblue" stroke="midnightblue" points="473.28,-130.22 462.77,-131.52 471.8,-137.06 473.28,-130.22"/>
</g>
<!-- Node30&#45;&gt;Node4 -->
<g id="edge34" class="edge">
<title>Node30&#45;&gt;Node4</title>
<path fill="none" stroke="midnightblue" d="M676.19,-168.37C683.84,-150.46 701.59,-108.92 711.83,-84.95"/>
<polygon fill="midnightblue" stroke="midnightblue" points="715.12,-86.16 715.83,-75.59 708.68,-83.41 715.12,-86.16"/>
</g>
<!-- Node31&#45;&gt;Node3 -->
<g id="edge39" class="edge">
<title>Node31&#45;&gt;Node3</title>
<path fill="none" stroke="midnightblue" d="M476.95,-224.37C467.46,-206.38 445.41,-164.55 432.79,-140.63"/>
<polygon fill="midnightblue" stroke="midnightblue" points="435.79,-138.8 428.03,-131.59 429.6,-142.07 435.79,-138.8"/>
</g>
<!-- Node31&#45;&gt;Node4 -->
<g id="edge37" class="edge">
<title>Node31&#45;&gt;Node4</title>
<path fill="none" stroke="midnightblue" d="M483.93,-224.35C488.13,-210.79 497.94,-184.37 514.5,-168 561.2,-121.85 633.19,-93.16 678.25,-78.64"/>
<polygon fill="midnightblue" stroke="midnightblue" points="679.5,-81.92 687.99,-75.59 677.41,-75.24 679.5,-81.92"/>
</g>
<!-- Node31&#45;&gt;Node30 -->
<g id="edge38" class="edge">
<title>Node31&#45;&gt;Node30</title>
<path fill="none" stroke="midnightblue" d="M511.76,-224.44C544.46,-215.2 596.68,-200.44 632.68,-190.26"/>
<polygon fill="midnightblue" stroke="midnightblue" points="633.71,-193.61 642.38,-187.52 631.8,-186.87 633.71,-193.61"/>
</g>
<!-- Node32&#45;&gt;Node4 -->
<g id="edge41" class="edge">
<title>Node32&#45;&gt;Node4</title>
<path fill="none" stroke="midnightblue" d="M720.23,-224.49C722.95,-215.52 726.94,-200.94 728.5,-188 732.85,-151.87 727.23,-109.41 723.12,-85.61"/>
<polygon fill="midnightblue" stroke="midnightblue" points="726.52,-84.74 721.27,-75.53 719.63,-86 726.52,-84.74"/>
</g>
<!-- Node32&#45;&gt;Node30 -->
<g id="edge42" class="edge">
<title>Node32&#45;&gt;Node30</title>
<path fill="none" stroke="midnightblue" d="M710.07,-224.08C703.65,-216.38 694.19,-205.03 686.38,-195.65"/>
<polygon fill="midnightblue" stroke="midnightblue" points="688.88,-193.19 679.79,-187.75 683.51,-197.67 688.88,-193.19"/>
</g>
<!-- Node33&#45;&gt;Node4 -->
<g id="edge44" class="edge">
<title>Node33&#45;&gt;Node4</title>
<path fill="none" stroke="midnightblue" d="M834.94,-224.08C815.4,-197.49 757.38,-118.54 731.82,-83.76"/>
<polygon fill="midnightblue" stroke="midnightblue" points="734.54,-81.55 725.8,-75.57 728.9,-85.7 734.54,-81.55"/>
</g>
<!-- Node33&#45;&gt;Node30 -->
<g id="edge45" class="edge">
<title>Node33&#45;&gt;Node30</title>
<path fill="none" stroke="midnightblue" d="M814.72,-224.44C786.17,-215.32 740.77,-200.81 708.96,-190.65"/>
<polygon fill="midnightblue" stroke="midnightblue" points="709.74,-187.23 699.15,-187.52 707.61,-193.89 709.74,-187.23"/>
</g>
<!-- Node34&#45;&gt;Node4 -->
<g id="edge49" class="edge">
<title>Node34&#45;&gt;Node4</title>
<path fill="none" stroke="midnightblue" d="M813.16,-112.56C795.26,-103.86 767.1,-90.16 746.33,-80.05"/>
<polygon fill="midnightblue" stroke="midnightblue" points="747.61,-76.78 737.09,-75.56 744.55,-83.08 747.61,-76.78"/>
</g>
<!-- Node35&#45;&gt;Node4 -->
<g id="edge52" class="edge">
<title>Node35&#45;&gt;Node4</title>
<path fill="none" stroke="midnightblue" d="M886.97,-112.44C852.91,-103.2 798.49,-88.44 760.98,-78.26"/>
<polygon fill="midnightblue" stroke="midnightblue" points="761.45,-74.76 750.88,-75.52 759.62,-81.51 761.45,-74.76"/>
</g>
</g>
</svg>
