<?xml version="1.0" encoding="UTF-8" standalone="no"?>
<!DOCTYPE svg PUBLIC "-//W3C//DTD SVG 1.1//EN"
 "http://www.w3.org/Graphics/SVG/1.1/DTD/svg11.dtd">
<!-- Generated by graphviz version 3.0.0 (20220226.1711)
 -->
<!-- Title: Nemo.h Pages: 1 -->
<svg width="389pt" height="252pt"
 viewBox="0.00 0.00 389.00 252.00" xmlns="http://www.w3.org/2000/svg" xmlns:xlink="http://www.w3.org/1999/xlink">
<g id="graph0" class="graph" transform="scale(1 1) rotate(0) translate(4 248)">
<title>Nemo.h</title>
<!-- Node1 -->
<g id="node1" class="node">
<title>Node1</title>
<g id="a_node1"><a xlink:title=" ">
<polygon fill="#bfbfbf" stroke="black" points="153.5,-224.5 153.5,-243.5 203.5,-243.5 203.5,-224.5 153.5,-224.5"/>
<text text-anchor="middle" x="178.5" y="-231.5" font-family="Helvetica,sans-Serif" font-size="10.00">Nemo.h</text>
</a>
</g>
</g>
<!-- Node2 -->
<g id="node2" class="node">
<title>Node2</title>
<g id="a_node2"><a xlink:href="_collision_8h.html" target="_top" xlink:title=" ">
<polygon fill="none" stroke="black" points="86.5,-112.5 86.5,-131.5 148.5,-131.5 148.5,-112.5 86.5,-112.5"/>
<text text-anchor="middle" x="117.5" y="-119.5" font-family="Helvetica,sans-Serif" font-size="10.00">Collision.h</text>
</a>
</g>
</g>
<!-- Node1&#45;&gt;Node2 -->
<g id="edge1" class="edge">
<title>Node1&#45;&gt;Node2</title>
<path fill="none" stroke="midnightblue" d="M168.7,-215.32C155.41,-191.37 132.22,-149.55 122.26,-131.59"/>
<polygon fill="midnightblue" stroke="midnightblue" points="165.8,-217.32 173.71,-224.37 171.92,-213.93 165.8,-217.32"/>
</g>
<!-- Node4 -->
<g id="node4" class="node">
<title>Node4</title>
<g id="a_node4"><a xlink:href="_puzzle_8h.html" target="_top" xlink:title=" ">
<polygon fill="none" stroke="black" points="5,-56.5 5,-75.5 60,-75.5 60,-56.5 5,-56.5"/>
<text text-anchor="middle" x="32.5" y="-63.5" font-family="Helvetica,sans-Serif" font-size="10.00">Puzzle.h</text>
</a>
</g>
</g>
<!-- Node1&#45;&gt;Node4 -->
<g id="edge12" class="edge">
<title>Node1&#45;&gt;Node4</title>
<path fill="none" stroke="midnightblue" d="M161.25,-217.55C140.35,-198.44 104.57,-164.44 77.5,-132 61.67,-113.03 45.85,-88.6 37.86,-75.77"/>
<polygon fill="midnightblue" stroke="midnightblue" points="158.97,-220.21 168.73,-224.34 163.68,-215.03 158.97,-220.21"/>
</g>
<!-- Node6 -->
<g id="node6" class="node">
<title>Node6</title>
<g id="a_node6"><a xlink:href="main_8cpp.html" target="_top" xlink:title=" ">
<polygon fill="none" stroke="black" points="150.5,-0.5 150.5,-19.5 206.5,-19.5 206.5,-0.5 150.5,-0.5"/>
<text text-anchor="middle" x="178.5" y="-7.5" font-family="Helvetica,sans-Serif" font-size="10.00">main.cpp</text>
</a>
</g>
</g>
<!-- Node1&#45;&gt;Node6 -->
<g id="edge13" class="edge">
<title>Node1&#45;&gt;Node6</title>
<path fill="none" stroke="midnightblue" d="M178.5,-214.3C178.5,-168.64 178.5,-52.85 178.5,-19.88"/>
<polygon fill="midnightblue" stroke="midnightblue" points="175,-214.3 178.5,-224.3 182,-214.3 175,-214.3"/>
</g>
<!-- Node7 -->
<g id="node7" class="node">
<title>Node7</title>
<g id="a_node7"><a xlink:href="_level_8h.html" target="_top" xlink:title=" ">
<polygon fill="none" stroke="black" points="207,-168.5 207,-187.5 254,-187.5 254,-168.5 207,-168.5"/>
<text text-anchor="middle" x="230.5" y="-175.5" font-family="Helvetica,sans-Serif" font-size="10.00">Level.h</text>
</a>
</g>
</g>
<!-- Node1&#45;&gt;Node7 -->
<g id="edge6" class="edge">
<title>Node1&#45;&gt;Node7</title>
<path fill="none" stroke="midnightblue" d="M194.18,-216.72C203.34,-207.2 214.55,-195.56 222.07,-187.75"/>
<polygon fill="midnightblue" stroke="midnightblue" points="191.5,-214.45 187.09,-224.08 196.54,-219.31 191.5,-214.45"/>
</g>
<!-- Node9 -->
<g id="node9" class="node">
<title>Node9</title>
<g id="a_node9"><a xlink:href="_nemo_8cpp.html" target="_top" xlink:title=" ">
<polygon fill="none" stroke="black" points="320,-112.5 320,-131.5 381,-131.5 381,-112.5 320,-112.5"/>
<text text-anchor="middle" x="350.5" y="-119.5" font-family="Helvetica,sans-Serif" font-size="10.00">Nemo.cpp</text>
</a>
</g>
</g>
<!-- Node1&#45;&gt;Node9 -->
<g id="edge11" class="edge">
<title>Node1&#45;&gt;Node9</title>
<path fill="none" stroke="midnightblue" d="M205.87,-219.87C222.83,-211.4 244.87,-199.79 263.5,-188 292.49,-169.65 324.24,-144.54 340.16,-131.55"/>
<polygon fill="midnightblue" stroke="midnightblue" points="203.95,-216.91 196.53,-224.47 207.05,-223.19 203.95,-216.91"/>
</g>
<!-- Node3 -->
<g id="node3" class="node">
<title>Node3</title>
<g id="a_node3"><a xlink:href="_collision_8cpp.html" target="_top" xlink:title=" ">
<polygon fill="none" stroke="black" points="78.5,-56.5 78.5,-75.5 150.5,-75.5 150.5,-56.5 78.5,-56.5"/>
<text text-anchor="middle" x="114.5" y="-63.5" font-family="Helvetica,sans-Serif" font-size="10.00">Collision.cpp</text>
</a>
</g>
</g>
<!-- Node2&#45;&gt;Node3 -->
<g id="edge2" class="edge">
<title>Node2&#45;&gt;Node3</title>
<path fill="none" stroke="midnightblue" d="M116.43,-101.8C115.94,-92.91 115.38,-82.78 114.99,-75.75"/>
<polygon fill="midnightblue" stroke="midnightblue" points="112.96,-102.29 117,-112.08 119.94,-101.9 112.96,-102.29"/>
</g>
<!-- Node2&#45;&gt;Node4 -->
<g id="edge3" class="edge">
<title>Node2&#45;&gt;Node4</title>
<path fill="none" stroke="midnightblue" d="M95.31,-106.9C79.72,-97 59.37,-84.07 46.12,-75.65"/>
<polygon fill="midnightblue" stroke="midnightblue" points="93.53,-109.92 103.84,-112.32 97.28,-104.01 93.53,-109.92"/>
</g>
<!-- Node5 -->
<g id="node5" class="node">
<title>Node5</title>
<g id="a_node5"><a xlink:href="_puzzle_8cpp.html" target="_top" xlink:title=" ">
<polygon fill="none" stroke="black" points="0,-0.5 0,-19.5 65,-19.5 65,-0.5 0,-0.5"/>
<text text-anchor="middle" x="32.5" y="-7.5" font-family="Helvetica,sans-Serif" font-size="10.00">Puzzle.cpp</text>
</a>
</g>
</g>
<!-- Node4&#45;&gt;Node5 -->
<g id="edge4" class="edge">
<title>Node4&#45;&gt;Node5</title>
<path fill="none" stroke="midnightblue" d="M32.5,-45.8C32.5,-36.91 32.5,-26.78 32.5,-19.75"/>
<polygon fill="midnightblue" stroke="midnightblue" points="29,-46.08 32.5,-56.08 36,-46.08 29,-46.08"/>
</g>
<!-- Node4&#45;&gt;Node6 -->
<g id="edge5" class="edge">
<title>Node4&#45;&gt;Node6</title>
<path fill="none" stroke="midnightblue" d="M65.2,-52.91C92.65,-42.75 131.17,-28.51 155.47,-19.52"/>
<polygon fill="midnightblue" stroke="midnightblue" points="63.8,-49.69 55.63,-56.44 66.23,-56.26 63.8,-49.69"/>
</g>
<!-- Node7&#45;&gt;Node2 -->
<g id="edge7" class="edge">
<title>Node7&#45;&gt;Node2</title>
<path fill="none" stroke="midnightblue" d="M203.5,-164.1C182.39,-154.01 153.64,-140.27 135.32,-131.52"/>
<polygon fill="midnightblue" stroke="midnightblue" points="202.06,-167.29 212.59,-168.44 205.08,-160.97 202.06,-167.29"/>
</g>
<!-- Node7&#45;&gt;Node6 -->
<g id="edge10" class="edge">
<title>Node7&#45;&gt;Node6</title>
<path fill="none" stroke="midnightblue" d="M224.67,-158.39C213.45,-122.59 189.26,-45.34 181.18,-19.57"/>
<polygon fill="midnightblue" stroke="midnightblue" points="221.37,-159.58 227.7,-168.08 228.05,-157.49 221.37,-159.58"/>
</g>
<!-- Node8 -->
<g id="node8" class="node">
<title>Node8</title>
<g id="a_node8"><a xlink:href="_level_8cpp.html" target="_top" xlink:title=" ">
<polygon fill="none" stroke="black" points="245,-112.5 245,-131.5 302,-131.5 302,-112.5 245,-112.5"/>
<text text-anchor="middle" x="273.5" y="-119.5" font-family="Helvetica,sans-Serif" font-size="10.00">Level.cpp</text>
</a>
</g>
</g>
<!-- Node7&#45;&gt;Node8 -->
<g id="edge8" class="edge">
<title>Node7&#45;&gt;Node8</title>
<path fill="none" stroke="midnightblue" d="M243.92,-160.14C251.41,-150.74 260.44,-139.4 266.53,-131.75"/>
<polygon fill="midnightblue" stroke="midnightblue" points="241.09,-158.08 237.6,-168.08 246.57,-162.44 241.09,-158.08"/>
</g>
<!-- Node7&#45;&gt;Node9 -->
<g id="edge9" class="edge">
<title>Node7&#45;&gt;Node9</title>
<path fill="none" stroke="midnightblue" d="M258.87,-164.23C281.32,-154.13 312.04,-140.31 331.57,-131.52"/>
<polygon fill="midnightblue" stroke="midnightblue" points="257.2,-161.15 249.51,-168.44 260.07,-167.53 257.2,-161.15"/>
</g>
</g>
</svg>
