<?xml version="1.0" encoding="UTF-8" standalone="no"?>
<!DOCTYPE svg PUBLIC "-//W3C//DTD SVG 1.1//EN"
 "http://www.w3.org/Graphics/SVG/1.1/DTD/svg11.dtd">
<!-- Generated by graphviz version 3.0.0 (20220226.1711)
 -->
<!-- Title: Nemo.h Pages: 1 -->
<svg width="1548pt" height="196pt"
 viewBox="0.00 0.00 1548.00 196.00" xmlns="http://www.w3.org/2000/svg" xmlns:xlink="http://www.w3.org/1999/xlink">
<g id="graph0" class="graph" transform="scale(1 1) rotate(0) translate(4 192)">
<title>Nemo.h</title>
<!-- Node1 -->
<g id="node1" class="node">
<title>Node1</title>
<g id="a_node1"><a xlink:title=" ">
<polygon fill="#bfbfbf" stroke="black" points="828.5,-168.5 828.5,-187.5 878.5,-187.5 878.5,-168.5 828.5,-168.5"/>
<text text-anchor="middle" x="853.5" y="-175.5" font-family="Helvetica,sans-Serif" font-size="10.00">Nemo.h</text>
</a>
</g>
</g>
<!-- Node2 -->
<g id="node2" class="node">
<title>Node2</title>
<g id="a_node2"><a xlink:href="_sprite_8h.html" target="_top" xlink:title=" ">
<polygon fill="none" stroke="black" points="737.5,-112.5 737.5,-131.5 825.5,-131.5 825.5,-112.5 737.5,-112.5"/>
<text text-anchor="middle" x="781.5" y="-119.5" font-family="Helvetica,sans-Serif" font-size="10.00">../Sprite/Sprite.h</text>
</a>
</g>
</g>
<!-- Node1&#45;&gt;Node2 -->
<g id="edge1" class="edge">
<title>Node1&#45;&gt;Node2</title>
<path fill="none" stroke="midnightblue" d="M841.93,-168.32C831.08,-160.18 814.62,-147.84 801.62,-138.09"/>
<polygon fill="midnightblue" stroke="midnightblue" points="803.38,-135.03 793.28,-131.83 799.18,-140.63 803.38,-135.03"/>
</g>
<!-- Node3 -->
<g id="node3" class="node">
<title>Node3</title>
<g id="a_node3"><a xlink:href="_i_n_c_l_u_d_e_s_8h.html" target="_top" xlink:title=" ">
<polygon fill="none" stroke="black" points="740.5,-56.5 740.5,-75.5 822.5,-75.5 822.5,-56.5 740.5,-56.5"/>
<text text-anchor="middle" x="781.5" y="-63.5" font-family="Helvetica,sans-Serif" font-size="10.00">../INCLUDES.h</text>
</a>
</g>
</g>
<!-- Node1&#45;&gt;Node3 -->
<g id="edge27" class="edge">
<title>Node1&#45;&gt;Node3</title>
<path fill="none" stroke="midnightblue" d="M852.57,-168.35C850.84,-155.23 846.15,-129.95 834.5,-112 826.7,-99.98 814.73,-89.42 804.14,-81.57"/>
<polygon fill="midnightblue" stroke="midnightblue" points="805.88,-78.51 795.69,-75.63 801.86,-84.24 805.88,-78.51"/>
</g>
<!-- Node25 -->
<g id="node25" class="node">
<title>Node25</title>
<g id="a_node25"><a xlink:href="_game_audio_8h.html" target="_top" xlink:title=" ">
<polygon fill="none" stroke="black" points="1439,-0.5 1439,-19.5 1540,-19.5 1540,-0.5 1439,-0.5"/>
<text text-anchor="middle" x="1489.5" y="-7.5" font-family="Helvetica,sans-Serif" font-size="10.00">Level/GameAudio.h</text>
</a>
</g>
</g>
<!-- Node1&#45;&gt;Node25 -->
<g id="edge26" class="edge">
<title>Node1&#45;&gt;Node25</title>
<path fill="none" stroke="midnightblue" d="M878.82,-170.39C975.9,-145.05 1324.94,-53.95 1447,-22.09"/>
<polygon fill="midnightblue" stroke="midnightblue" points="1447.95,-25.46 1456.74,-19.55 1446.18,-18.69 1447.95,-25.46"/>
</g>
<!-- Node2&#45;&gt;Node3 -->
<g id="edge2" class="edge">
<title>Node2&#45;&gt;Node3</title>
<path fill="none" stroke="midnightblue" d="M781.5,-112.08C781.5,-105.01 781.5,-94.86 781.5,-85.99"/>
<polygon fill="midnightblue" stroke="midnightblue" points="785,-85.75 781.5,-75.75 778,-85.75 785,-85.75"/>
</g>
<!-- Node4 -->
<g id="node4" class="node">
<title>Node4</title>
<g id="a_node4"><a xlink:title=" ">
<polygon fill="none" stroke="#bfbfbf" points="0,-0.5 0,-19.5 49,-19.5 49,-0.5 0,-0.5"/>
<text text-anchor="middle" x="24.5" y="-7.5" font-family="Helvetica,sans-Serif" font-size="10.00">string.h</text>
</a>
</g>
</g>
<!-- Node3&#45;&gt;Node4 -->
<g id="edge3" class="edge">
<title>Node3&#45;&gt;Node4</title>
<path fill="none" stroke="midnightblue" d="M740.42,-65.26C631,-65.34 323.43,-61.69 59.42,-19.79"/>
<polygon fill="midnightblue" stroke="midnightblue" points="59.69,-16.29 49.26,-18.16 58.58,-23.2 59.69,-16.29"/>
</g>
<!-- Node5 -->
<g id="node5" class="node">
<title>Node5</title>
<g id="a_node5"><a xlink:title=" ">
<polygon fill="none" stroke="#bfbfbf" points="67.5,-0.5 67.5,-19.5 115.5,-19.5 115.5,-0.5 67.5,-0.5"/>
<text text-anchor="middle" x="91.5" y="-7.5" font-family="Helvetica,sans-Serif" font-size="10.00">raylib.h</text>
</a>
</g>
</g>
<!-- Node3&#45;&gt;Node5 -->
<g id="edge4" class="edge">
<title>Node3&#45;&gt;Node5</title>
<path fill="none" stroke="midnightblue" d="M740.42,-65C637.98,-64.39 362.97,-59.09 125.73,-19.86"/>
<polygon fill="midnightblue" stroke="midnightblue" points="125.97,-16.35 115.53,-18.14 124.81,-23.25 125.97,-16.35"/>
</g>
<!-- Node6 -->
<g id="node6" class="node">
<title>Node6</title>
<g id="a_node6"><a xlink:title=" ">
<polygon fill="none" stroke="#bfbfbf" points="133.5,-0.5 133.5,-19.5 193.5,-19.5 193.5,-0.5 133.5,-0.5"/>
<text text-anchor="middle" x="163.5" y="-7.5" font-family="Helvetica,sans-Serif" font-size="10.00">raymath.h</text>
</a>
</g>
</g>
<!-- Node3&#45;&gt;Node6 -->
<g id="edge5" class="edge">
<title>Node3&#45;&gt;Node6</title>
<path fill="none" stroke="midnightblue" d="M740.19,-63.9C646.44,-60.96 410.34,-51.01 203.77,-19.97"/>
<polygon fill="midnightblue" stroke="midnightblue" points="204.06,-16.47 193.65,-18.43 203.01,-23.39 204.06,-16.47"/>
</g>
<!-- Node7 -->
<g id="node7" class="node">
<title>Node7</title>
<g id="a_node7"><a xlink:title=" ">
<polygon fill="none" stroke="#bfbfbf" points="211.5,-0.5 211.5,-19.5 259.5,-19.5 259.5,-0.5 211.5,-0.5"/>
<text text-anchor="middle" x="235.5" y="-7.5" font-family="Helvetica,sans-Serif" font-size="10.00">stdlib.h</text>
</a>
</g>
</g>
<!-- Node3&#45;&gt;Node7 -->
<g id="edge6" class="edge">
<title>Node3&#45;&gt;Node7</title>
<path fill="none" stroke="midnightblue" d="M740.28,-63.88C654.32,-61.01 449.67,-51.39 269.46,-19.85"/>
<polygon fill="midnightblue" stroke="midnightblue" points="270,-16.39 259.54,-18.09 268.77,-23.28 270,-16.39"/>
</g>
<!-- Node8 -->
<g id="node8" class="node">
<title>Node8</title>
<g id="a_node8"><a xlink:title=" ">
<polygon fill="none" stroke="#bfbfbf" points="278,-0.5 278,-19.5 323,-19.5 323,-0.5 278,-0.5"/>
<text text-anchor="middle" x="300.5" y="-7.5" font-family="Helvetica,sans-Serif" font-size="10.00">cstdlib</text>
</a>
</g>
</g>
<!-- Node3&#45;&gt;Node8 -->
<g id="edge7" class="edge">
<title>Node3&#45;&gt;Node8</title>
<path fill="none" stroke="midnightblue" d="M740.3,-63.27C662.53,-59.5 488.74,-48.6 333.32,-19.81"/>
<polygon fill="midnightblue" stroke="midnightblue" points="333.58,-16.3 323.11,-17.89 332.29,-23.18 333.58,-16.3"/>
</g>
<!-- Node9 -->
<g id="node9" class="node">
<title>Node9</title>
<g id="a_node9"><a xlink:title=" ">
<polygon fill="none" stroke="#bfbfbf" points="341.5,-0.5 341.5,-19.5 387.5,-19.5 387.5,-0.5 341.5,-0.5"/>
<text text-anchor="middle" x="364.5" y="-7.5" font-family="Helvetica,sans-Serif" font-size="10.00">stdio.h</text>
</a>
</g>
</g>
<!-- Node3&#45;&gt;Node9 -->
<g id="edge8" class="edge">
<title>Node3&#45;&gt;Node9</title>
<path fill="none" stroke="midnightblue" d="M740.43,-62.34C671.47,-57.4 527.97,-45.16 397.95,-20.01"/>
<polygon fill="midnightblue" stroke="midnightblue" points="398.3,-16.51 387.82,-18.02 396.95,-23.38 398.3,-16.51"/>
</g>
<!-- Node10 -->
<g id="node10" class="node">
<title>Node10</title>
<g id="a_node10"><a xlink:title=" ">
<polygon fill="none" stroke="#bfbfbf" points="405.5,-0.5 405.5,-19.5 455.5,-19.5 455.5,-0.5 405.5,-0.5"/>
<text text-anchor="middle" x="430.5" y="-7.5" font-family="Helvetica,sans-Serif" font-size="10.00">config.h</text>
</a>
</g>
</g>
<!-- Node3&#45;&gt;Node10 -->
<g id="edge9" class="edge">
<title>Node3&#45;&gt;Node10</title>
<path fill="none" stroke="midnightblue" d="M740.45,-60.74C681.67,-54.29 569.96,-40.77 465.73,-20.05"/>
<polygon fill="midnightblue" stroke="midnightblue" points="466.17,-16.56 455.67,-18.02 464.78,-23.42 466.17,-16.56"/>
</g>
<!-- Node11 -->
<g id="node11" class="node">
<title>Node11</title>
<g id="a_node11"><a xlink:title=" ">
<polygon fill="none" stroke="#bfbfbf" points="474,-0.5 474,-19.5 533,-19.5 533,-0.5 474,-0.5"/>
<text text-anchor="middle" x="503.5" y="-7.5" font-family="Helvetica,sans-Serif" font-size="10.00">process.h</text>
</a>
</g>
</g>
<!-- Node3&#45;&gt;Node11 -->
<g id="edge10" class="edge">
<title>Node3&#45;&gt;Node11</title>
<path fill="none" stroke="midnightblue" d="M740.19,-57.87C694.33,-49.81 617.89,-35.98 543.36,-20.33"/>
<polygon fill="midnightblue" stroke="midnightblue" points="543.85,-16.85 533.34,-18.21 542.4,-23.7 543.85,-16.85"/>
</g>
<!-- Node12 -->
<g id="node12" class="node">
<title>Node12</title>
<g id="a_node12"><a xlink:title=" ">
<polygon fill="none" stroke="#bfbfbf" points="551,-0.5 551,-19.5 592,-19.5 592,-0.5 551,-0.5"/>
<text text-anchor="middle" x="571.5" y="-7.5" font-family="Helvetica,sans-Serif" font-size="10.00">string</text>
</a>
</g>
</g>
<!-- Node3&#45;&gt;Node12 -->
<g id="edge11" class="edge">
<title>Node3&#45;&gt;Node12</title>
<path fill="none" stroke="midnightblue" d="M745.17,-56.44C710.72,-48.21 657.29,-35.14 601.77,-19.98"/>
<polygon fill="midnightblue" stroke="midnightblue" points="602.69,-16.6 592.12,-17.32 600.84,-23.35 602.69,-16.6"/>
</g>
<!-- Node13 -->
<g id="node13" class="node">
<title>Node13</title>
<g id="a_node13"><a xlink:title=" ">
<polygon fill="none" stroke="#bfbfbf" points="610.5,-0.5 610.5,-19.5 648.5,-19.5 648.5,-0.5 610.5,-0.5"/>
<text text-anchor="middle" x="629.5" y="-7.5" font-family="Helvetica,sans-Serif" font-size="10.00">array</text>
</a>
</g>
</g>
<!-- Node3&#45;&gt;Node13 -->
<g id="edge12" class="edge">
<title>Node3&#45;&gt;Node13</title>
<path fill="none" stroke="midnightblue" d="M757.42,-56.44C730.46,-46.87 686.81,-31.36 658.13,-21.17"/>
<polygon fill="midnightblue" stroke="midnightblue" points="659.25,-17.86 648.66,-17.81 656.91,-24.45 659.25,-17.86"/>
</g>
<!-- Node14 -->
<g id="node14" class="node">
<title>Node14</title>
<g id="a_node14"><a xlink:title=" ">
<polygon fill="none" stroke="#bfbfbf" points="666.5,-0.5 666.5,-19.5 708.5,-19.5 708.5,-0.5 666.5,-0.5"/>
<text text-anchor="middle" x="687.5" y="-7.5" font-family="Helvetica,sans-Serif" font-size="10.00">vector</text>
</a>
</g>
</g>
<!-- Node3&#45;&gt;Node14 -->
<g id="edge13" class="edge">
<title>Node3&#45;&gt;Node14</title>
<path fill="none" stroke="midnightblue" d="M766.4,-56.32C751.6,-47.82 728.81,-34.73 711.52,-24.8"/>
<polygon fill="midnightblue" stroke="midnightblue" points="712.98,-21.6 702.57,-19.65 709.49,-27.67 712.98,-21.6"/>
</g>
<!-- Node15 -->
<g id="node15" class="node">
<title>Node15</title>
<g id="a_node15"><a xlink:title=" ">
<polygon fill="none" stroke="#bfbfbf" points="726.5,-0.5 726.5,-19.5 770.5,-19.5 770.5,-0.5 726.5,-0.5"/>
<text text-anchor="middle" x="748.5" y="-7.5" font-family="Helvetica,sans-Serif" font-size="10.00">cmath</text>
</a>
</g>
</g>
<!-- Node3&#45;&gt;Node15 -->
<g id="edge14" class="edge">
<title>Node3&#45;&gt;Node15</title>
<path fill="none" stroke="midnightblue" d="M776.05,-56.08C771.49,-48.61 764.83,-37.72 759.21,-28.52"/>
<polygon fill="midnightblue" stroke="midnightblue" points="762.05,-26.46 753.85,-19.75 756.08,-30.11 762.05,-26.46"/>
</g>
<!-- Node16 -->
<g id="node16" class="node">
<title>Node16</title>
<g id="a_node16"><a xlink:title=" ">
<polygon fill="none" stroke="#bfbfbf" points="788.5,-0.5 788.5,-19.5 840.5,-19.5 840.5,-0.5 788.5,-0.5"/>
<text text-anchor="middle" x="814.5" y="-7.5" font-family="Helvetica,sans-Serif" font-size="10.00">memory</text>
</a>
</g>
</g>
<!-- Node3&#45;&gt;Node16 -->
<g id="edge15" class="edge">
<title>Node3&#45;&gt;Node16</title>
<path fill="none" stroke="midnightblue" d="M786.95,-56.08C791.51,-48.61 798.17,-37.72 803.79,-28.52"/>
<polygon fill="midnightblue" stroke="midnightblue" points="806.92,-30.11 809.15,-19.75 800.95,-26.46 806.92,-30.11"/>
</g>
<!-- Node17 -->
<g id="node17" class="node">
<title>Node17</title>
<g id="a_node17"><a xlink:title=" ">
<polygon fill="none" stroke="#bfbfbf" points="859,-0.5 859,-19.5 900,-19.5 900,-0.5 859,-0.5"/>
<text text-anchor="middle" x="879.5" y="-7.5" font-family="Helvetica,sans-Serif" font-size="10.00">ctime</text>
</a>
</g>
</g>
<!-- Node3&#45;&gt;Node17 -->
<g id="edge16" class="edge">
<title>Node3&#45;&gt;Node17</title>
<path fill="none" stroke="midnightblue" d="M797.25,-56.32C812.82,-47.74 836.88,-34.49 854.96,-24.52"/>
<polygon fill="midnightblue" stroke="midnightblue" points="856.72,-27.55 863.79,-19.65 853.35,-21.42 856.72,-27.55"/>
</g>
<!-- Node18 -->
<g id="node18" class="node">
<title>Node18</title>
<g id="a_node18"><a xlink:title=" ">
<polygon fill="none" stroke="#bfbfbf" points="918.5,-0.5 918.5,-19.5 964.5,-19.5 964.5,-0.5 918.5,-0.5"/>
<text text-anchor="middle" x="941.5" y="-7.5" font-family="Helvetica,sans-Serif" font-size="10.00">chrono</text>
</a>
</g>
</g>
<!-- Node3&#45;&gt;Node18 -->
<g id="edge17" class="edge">
<title>Node3&#45;&gt;Node18</title>
<path fill="none" stroke="midnightblue" d="M806.85,-56.44C834.4,-47.15 878.52,-32.26 908.69,-22.07"/>
<polygon fill="midnightblue" stroke="midnightblue" points="909.99,-25.33 918.34,-18.82 907.75,-18.7 909.99,-25.33"/>
</g>
<!-- Node19 -->
<g id="node19" class="node">
<title>Node19</title>
<g id="a_node19"><a xlink:title=" ">
<polygon fill="none" stroke="#bfbfbf" points="982.5,-0.5 982.5,-19.5 1034.5,-19.5 1034.5,-0.5 982.5,-0.5"/>
<text text-anchor="middle" x="1008.5" y="-7.5" font-family="Helvetica,sans-Serif" font-size="10.00">sstream</text>
</a>
</g>
</g>
<!-- Node3&#45;&gt;Node19 -->
<g id="edge18" class="edge">
<title>Node3&#45;&gt;Node19</title>
<path fill="none" stroke="midnightblue" d="M819.08,-56.44C855.79,-48.03 913.48,-34.66 972.31,-20.26"/>
<polygon fill="midnightblue" stroke="midnightblue" points="973.27,-23.63 982.14,-17.84 971.6,-16.83 973.27,-23.63"/>
</g>
<!-- Node20 -->
<g id="node20" class="node">
<title>Node20</title>
<g id="a_node20"><a xlink:title=" ">
<polygon fill="none" stroke="#bfbfbf" points="1053,-0.5 1053,-19.5 1102,-19.5 1102,-0.5 1053,-0.5"/>
<text text-anchor="middle" x="1077.5" y="-7.5" font-family="Helvetica,sans-Serif" font-size="10.00">fstream</text>
</a>
</g>
</g>
<!-- Node3&#45;&gt;Node20 -->
<g id="edge19" class="edge">
<title>Node3&#45;&gt;Node20</title>
<path fill="none" stroke="midnightblue" d="M822.56,-59.1C872.36,-51.69 959.02,-37.99 1042.75,-20"/>
<polygon fill="midnightblue" stroke="midnightblue" points="1043.65,-23.38 1052.68,-17.84 1042.16,-16.54 1043.65,-23.38"/>
</g>
<!-- Node21 -->
<g id="node21" class="node">
<title>Node21</title>
<g id="a_node21"><a xlink:title=" ">
<polygon fill="none" stroke="#bfbfbf" points="1120.5,-0.5 1120.5,-19.5 1174.5,-19.5 1174.5,-0.5 1120.5,-0.5"/>
<text text-anchor="middle" x="1147.5" y="-7.5" font-family="Helvetica,sans-Serif" font-size="10.00">iostream</text>
</a>
</g>
</g>
<!-- Node3&#45;&gt;Node21 -->
<g id="edge20" class="edge">
<title>Node3&#45;&gt;Node21</title>
<path fill="none" stroke="midnightblue" d="M822.64,-60.85C883.47,-54.4 1001.15,-40.71 1110.56,-20"/>
<polygon fill="midnightblue" stroke="midnightblue" points="1111.28,-23.42 1120.44,-18.1 1109.96,-16.55 1111.28,-23.42"/>
</g>
<!-- Node22 -->
<g id="node22" class="node">
<title>Node22</title>
<g id="a_node22"><a xlink:title=" ">
<polygon fill="none" stroke="#bfbfbf" points="1192.5,-0.5 1192.5,-19.5 1242.5,-19.5 1242.5,-0.5 1192.5,-0.5"/>
<text text-anchor="middle" x="1217.5" y="-7.5" font-family="Helvetica,sans-Serif" font-size="10.00">iomanip</text>
</a>
</g>
</g>
<!-- Node3&#45;&gt;Node22 -->
<g id="edge21" class="edge">
<title>Node3&#45;&gt;Node22</title>
<path fill="none" stroke="midnightblue" d="M822.6,-62.41C893.97,-57.47 1045.54,-45.06 1182.51,-19.93"/>
<polygon fill="midnightblue" stroke="midnightblue" points="1183.15,-23.37 1192.34,-18.1 1181.87,-16.49 1183.15,-23.37"/>
</g>
<!-- Node23 -->
<g id="node23" class="node">
<title>Node23</title>
<g id="a_node23"><a xlink:title=" ">
<polygon fill="none" stroke="#bfbfbf" points="1260.5,-0.5 1260.5,-19.5 1304.5,-19.5 1304.5,-0.5 1260.5,-0.5"/>
<text text-anchor="middle" x="1282.5" y="-7.5" font-family="Helvetica,sans-Serif" font-size="10.00">thread</text>
</a>
</g>
</g>
<!-- Node3&#45;&gt;Node23 -->
<g id="edge22" class="edge">
<title>Node3&#45;&gt;Node23</title>
<path fill="none" stroke="midnightblue" d="M822.73,-63.64C903.27,-60.44 1087.16,-50.38 1250.07,-19.93"/>
<polygon fill="midnightblue" stroke="midnightblue" points="1251.1,-23.3 1260.27,-17.99 1249.79,-16.42 1251.1,-23.3"/>
</g>
<!-- Node24 -->
<g id="node24" class="node">
<title>Node24</title>
<g id="a_node24"><a xlink:title=" ">
<polygon fill="none" stroke="#bfbfbf" points="1322.5,-0.5 1322.5,-19.5 1420.5,-19.5 1420.5,-0.5 1322.5,-0.5"/>
<text text-anchor="middle" x="1371.5" y="-7.5" font-family="Helvetica,sans-Serif" font-size="10.00">nlohmann/json.hpp</text>
</a>
</g>
</g>
<!-- Node3&#45;&gt;Node24 -->
<g id="edge23" class="edge">
<title>Node3&#45;&gt;Node24</title>
<path fill="none" stroke="midnightblue" d="M822.65,-62.5C910.56,-56.94 1123.39,-42.37 1312.37,-20.06"/>
<polygon fill="midnightblue" stroke="midnightblue" points="1312.97,-23.51 1322.49,-18.85 1312.14,-16.56 1312.97,-23.51"/>
</g>
<!-- Node3&#45;&gt;Node25 -->
<g id="edge24" class="edge">
<title>Node3&#45;&gt;Node25</title>
<path fill="none" stroke="midnightblue" d="M822.53,-63.08C924.21,-58.35 1195.18,-44.68 1420.5,-20 1423.16,-19.71 1425.88,-19.39 1428.63,-19.04"/>
<polygon fill="midnightblue" stroke="midnightblue" points="1429.23,-22.49 1438.69,-17.72 1428.32,-15.55 1429.23,-22.49"/>
</g>
<!-- Node25&#45;&gt;Node3 -->
<g id="edge25" class="edge">
<title>Node25&#45;&gt;Node3</title>
<path fill="none" stroke="midnightblue" d="M1442.63,-19.53C1441.24,-19.69 1439.86,-19.85 1438.5,-20 1213.98,-44.6 944.13,-58.25 833,-63.03"/>
<polygon fill="midnightblue" stroke="midnightblue" points="832.59,-59.54 822.75,-63.46 832.89,-66.54 832.59,-59.54"/>
</g>
</g>
</svg>
