<?xml version="1.0" encoding="UTF-8" standalone="no"?>
<!DOCTYPE svg PUBLIC "-//W3C//DTD SVG 1.1//EN"
 "http://www.w3.org/Graphics/SVG/1.1/DTD/svg11.dtd">
<!-- Generated by graphviz version 3.0.0 (20220226.1711)
 -->
<!-- Title: Nemo.h Pages: 1 -->
<svg width="488pt" height="308pt"
 viewBox="0.00 0.00 488.00 308.00" xmlns="http://www.w3.org/2000/svg" xmlns:xlink="http://www.w3.org/1999/xlink">
<g id="graph0" class="graph" transform="scale(1 1) rotate(0) translate(4 304)">
<title>Nemo.h</title>
<!-- Node1 -->
<g id="node1" class="node">
<title>Node1</title>
<g id="a_node1"><a xlink:title=" ">
<polygon fill="#bfbfbf" stroke="black" points="127.5,-280.5 127.5,-299.5 177.5,-299.5 177.5,-280.5 127.5,-280.5"/>
<text text-anchor="middle" x="152.5" y="-287.5" font-family="Helvetica,sans-Serif" font-size="10.00">Nemo.h</text>
</a>
</g>
</g>
<!-- Node2 -->
<g id="node2" class="node">
<title>Node2</title>
<g id="a_node2"><a xlink:href="_collision_8h.html" target="_top" xlink:title=" ">
<polygon fill="none" stroke="black" points="121.5,-112.5 121.5,-131.5 183.5,-131.5 183.5,-112.5 121.5,-112.5"/>
<text text-anchor="middle" x="152.5" y="-119.5" font-family="Helvetica,sans-Serif" font-size="10.00">Collision.h</text>
</a>
</g>
</g>
<!-- Node1&#45;&gt;Node2 -->
<g id="edge1" class="edge">
<title>Node1&#45;&gt;Node2</title>
<path fill="none" stroke="midnightblue" d="M152.5,-269.93C152.5,-233.92 152.5,-157.23 152.5,-131.57"/>
<polygon fill="midnightblue" stroke="midnightblue" points="149,-270.08 152.5,-280.08 156,-270.08 149,-270.08"/>
</g>
<!-- Node4 -->
<g id="node4" class="node">
<title>Node4</title>
<g id="a_node4"><a xlink:href="_puzzle_8h.html" target="_top" xlink:title=" ">
<polygon fill="none" stroke="black" points="5,-56.5 5,-75.5 60,-75.5 60,-56.5 5,-56.5"/>
<text text-anchor="middle" x="32.5" y="-63.5" font-family="Helvetica,sans-Serif" font-size="10.00">Puzzle.h</text>
</a>
</g>
</g>
<!-- Node1&#45;&gt;Node4 -->
<g id="edge16" class="edge">
<title>Node1&#45;&gt;Node4</title>
<path fill="none" stroke="midnightblue" d="M118.06,-276.54C102.59,-269.29 85.41,-258.64 74.5,-244 34.31,-190.05 31.92,-103.34 32.26,-75.74"/>
<polygon fill="midnightblue" stroke="midnightblue" points="116.83,-279.82 127.39,-280.62 119.63,-273.41 116.83,-279.82"/>
</g>
<!-- Node6 -->
<g id="node6" class="node">
<title>Node6</title>
<g id="a_node6"><a xlink:href="main_8cpp.html" target="_top" xlink:title=" ">
<polygon fill="none" stroke="black" points="135.5,-0.5 135.5,-19.5 191.5,-19.5 191.5,-0.5 135.5,-0.5"/>
<text text-anchor="middle" x="163.5" y="-7.5" font-family="Helvetica,sans-Serif" font-size="10.00">main.cpp</text>
</a>
</g>
</g>
<!-- Node1&#45;&gt;Node6 -->
<g id="edge17" class="edge">
<title>Node1&#45;&gt;Node6</title>
<path fill="none" stroke="midnightblue" d="M135.85,-272.99C116.89,-252.96 88.5,-216.67 88.5,-179 88.5,-179 88.5,-179 88.5,-121 88.5,-90.9 90.78,-81.02 107.5,-56 117.96,-40.34 135.57,-27.5 148.25,-19.6"/>
<polygon fill="midnightblue" stroke="midnightblue" points="133.55,-275.64 143.06,-280.31 138.54,-270.73 133.55,-275.64"/>
</g>
<!-- Node7 -->
<g id="node7" class="node">
<title>Node7</title>
<g id="a_node7"><a xlink:href="_level_8h.html" target="_top" xlink:title=" ">
<polygon fill="none" stroke="black" points="264,-224.5 264,-243.5 311,-243.5 311,-224.5 264,-224.5"/>
<text text-anchor="middle" x="287.5" y="-231.5" font-family="Helvetica,sans-Serif" font-size="10.00">Level.h</text>
</a>
</g>
</g>
<!-- Node1&#45;&gt;Node7 -->
<g id="edge6" class="edge">
<title>Node1&#45;&gt;Node7</title>
<path fill="none" stroke="midnightblue" d="M183.41,-276.64C208.74,-266.5 243.93,-252.43 266.21,-243.52"/>
<polygon fill="midnightblue" stroke="midnightblue" points="181.88,-273.48 173.89,-280.44 184.48,-279.98 181.88,-273.48"/>
</g>
<!-- Node11 -->
<g id="node11" class="node">
<title>Node11</title>
<g id="a_node11"><a xlink:href="_nemo_8cpp.html" target="_top" xlink:title=" ">
<polygon fill="none" stroke="black" points="419,-168.5 419,-187.5 480,-187.5 480,-168.5 419,-168.5"/>
<text text-anchor="middle" x="449.5" y="-175.5" font-family="Helvetica,sans-Serif" font-size="10.00">Nemo.cpp</text>
</a>
</g>
</g>
<!-- Node1&#45;&gt;Node11 -->
<g id="edge15" class="edge">
<title>Node1&#45;&gt;Node11</title>
<path fill="none" stroke="midnightblue" d="M187.82,-281.76C222.28,-274.18 275.88,-261.01 320.5,-244 363.62,-227.56 411.39,-201.17 434.86,-187.63"/>
<polygon fill="midnightblue" stroke="midnightblue" points="186.81,-278.4 177.77,-283.93 188.28,-285.24 186.81,-278.4"/>
</g>
<!-- Node3 -->
<g id="node3" class="node">
<title>Node3</title>
<g id="a_node3"><a xlink:href="_collision_8cpp.html" target="_top" xlink:title=" ">
<polygon fill="none" stroke="black" points="116.5,-56.5 116.5,-75.5 188.5,-75.5 188.5,-56.5 116.5,-56.5"/>
<text text-anchor="middle" x="152.5" y="-63.5" font-family="Helvetica,sans-Serif" font-size="10.00">Collision.cpp</text>
</a>
</g>
</g>
<!-- Node2&#45;&gt;Node3 -->
<g id="edge2" class="edge">
<title>Node2&#45;&gt;Node3</title>
<path fill="none" stroke="midnightblue" d="M152.5,-101.8C152.5,-92.91 152.5,-82.78 152.5,-75.75"/>
<polygon fill="midnightblue" stroke="midnightblue" points="149,-102.08 152.5,-112.08 156,-102.08 149,-102.08"/>
</g>
<!-- Node2&#45;&gt;Node4 -->
<g id="edge3" class="edge">
<title>Node2&#45;&gt;Node4</title>
<path fill="none" stroke="midnightblue" d="M124.13,-108.23C101.68,-98.13 70.96,-84.31 51.43,-75.52"/>
<polygon fill="midnightblue" stroke="midnightblue" points="122.93,-111.53 133.49,-112.44 125.8,-105.15 122.93,-111.53"/>
</g>
<!-- Node5 -->
<g id="node5" class="node">
<title>Node5</title>
<g id="a_node5"><a xlink:href="_puzzle_8cpp.html" target="_top" xlink:title=" ">
<polygon fill="none" stroke="black" points="0,-0.5 0,-19.5 65,-19.5 65,-0.5 0,-0.5"/>
<text text-anchor="middle" x="32.5" y="-7.5" font-family="Helvetica,sans-Serif" font-size="10.00">Puzzle.cpp</text>
</a>
</g>
</g>
<!-- Node4&#45;&gt;Node5 -->
<g id="edge4" class="edge">
<title>Node4&#45;&gt;Node5</title>
<path fill="none" stroke="midnightblue" d="M32.5,-45.8C32.5,-36.91 32.5,-26.78 32.5,-19.75"/>
<polygon fill="midnightblue" stroke="midnightblue" points="29,-46.08 32.5,-56.08 36,-46.08 29,-46.08"/>
</g>
<!-- Node4&#45;&gt;Node6 -->
<g id="edge5" class="edge">
<title>Node4&#45;&gt;Node6</title>
<path fill="none" stroke="midnightblue" d="M62.82,-52.5C87.38,-42.38 121.32,-28.39 142.84,-19.52"/>
<polygon fill="midnightblue" stroke="midnightblue" points="61.17,-49.4 53.26,-56.44 63.84,-55.87 61.17,-49.4"/>
</g>
<!-- Node7&#45;&gt;Node2 -->
<g id="edge7" class="edge">
<title>Node7&#45;&gt;Node2</title>
<path fill="none" stroke="midnightblue" d="M267.48,-218.17C255.96,-209.52 241.28,-198.32 228.5,-188 204.19,-168.36 176.49,-144.2 162.19,-131.59"/>
<polygon fill="midnightblue" stroke="midnightblue" points="265.49,-221.05 275.6,-224.23 269.68,-215.44 265.49,-221.05"/>
</g>
<!-- Node7&#45;&gt;Node6 -->
<g id="edge14" class="edge">
<title>Node7&#45;&gt;Node6</title>
<path fill="none" stroke="midnightblue" d="M295.81,-214.98C305.87,-190.32 319.48,-145.34 302.5,-112 277.99,-63.89 218.65,-33.32 185.99,-19.54"/>
<polygon fill="midnightblue" stroke="midnightblue" points="292.57,-213.64 291.81,-224.21 299,-216.42 292.57,-213.64"/>
</g>
<!-- Node8 -->
<g id="node8" class="node">
<title>Node8</title>
<g id="a_node8"><a xlink:href="_level_8cpp.html" target="_top" xlink:title=" ">
<polygon fill="none" stroke="black" points="344,-168.5 344,-187.5 401,-187.5 401,-168.5 344,-168.5"/>
<text text-anchor="middle" x="372.5" y="-175.5" font-family="Helvetica,sans-Serif" font-size="10.00">Level.cpp</text>
</a>
</g>
</g>
<!-- Node7&#45;&gt;Node8 -->
<g id="edge8" class="edge">
<title>Node7&#45;&gt;Node8</title>
<path fill="none" stroke="midnightblue" d="M309.69,-218.9C325.28,-209 345.63,-196.07 358.88,-187.65"/>
<polygon fill="midnightblue" stroke="midnightblue" points="307.72,-216.01 301.16,-224.32 311.47,-221.92 307.72,-216.01"/>
</g>
<!-- Node9 -->
<g id="node9" class="node">
<title>Node9</title>
<g id="a_node9"><a xlink:href="_map_8h.html" target="_top" xlink:title=" ">
<polygon fill="none" stroke="black" points="237.5,-168.5 237.5,-187.5 281.5,-187.5 281.5,-168.5 237.5,-168.5"/>
<text text-anchor="middle" x="259.5" y="-175.5" font-family="Helvetica,sans-Serif" font-size="10.00">Map.h</text>
</a>
</g>
</g>
<!-- Node7&#45;&gt;Node9 -->
<g id="edge9" class="edge">
<title>Node7&#45;&gt;Node9</title>
<path fill="none" stroke="midnightblue" d="M278.16,-214.98C273.41,-205.82 267.84,-195.09 264.04,-187.75"/>
<polygon fill="midnightblue" stroke="midnightblue" points="275.17,-216.82 282.88,-224.08 281.38,-213.59 275.17,-216.82"/>
</g>
<!-- Node7&#45;&gt;Node11 -->
<g id="edge13" class="edge">
<title>Node7&#45;&gt;Node11</title>
<path fill="none" stroke="midnightblue" d="M320.83,-221.89C351.35,-211.72 395.91,-196.86 423.77,-187.58"/>
<polygon fill="midnightblue" stroke="midnightblue" points="319.44,-218.67 311.06,-225.15 321.65,-225.31 319.44,-218.67"/>
</g>
<!-- Node9&#45;&gt;Node2 -->
<g id="edge10" class="edge">
<title>Node9&#45;&gt;Node2</title>
<path fill="none" stroke="midnightblue" d="M233.2,-163.73C213.39,-153.73 186.79,-140.31 169.65,-131.65"/>
<polygon fill="midnightblue" stroke="midnightblue" points="231.8,-166.94 242.31,-168.32 234.96,-160.69 231.8,-166.94"/>
</g>
<!-- Node9&#45;&gt;Node6 -->
<g id="edge12" class="edge">
<title>Node9&#45;&gt;Node6</title>
<path fill="none" stroke="midnightblue" d="M247.56,-159.93C242.04,-151.68 235.59,-141.53 230.5,-132 213.14,-99.53 216.06,-87.8 197.5,-56 189.6,-42.47 178.3,-28.27 170.93,-19.53"/>
<polygon fill="midnightblue" stroke="midnightblue" points="244.75,-162.01 253.28,-168.29 250.53,-158.06 244.75,-162.01"/>
</g>
<!-- Node10 -->
<g id="node10" class="node">
<title>Node10</title>
<g id="a_node10"><a xlink:href="_map_8cpp.html" target="_top" xlink:title=" ">
<polygon fill="none" stroke="black" points="239.5,-112.5 239.5,-131.5 293.5,-131.5 293.5,-112.5 239.5,-112.5"/>
<text text-anchor="middle" x="266.5" y="-119.5" font-family="Helvetica,sans-Serif" font-size="10.00">Map.cpp</text>
</a>
</g>
</g>
<!-- Node9&#45;&gt;Node10 -->
<g id="edge11" class="edge">
<title>Node9&#45;&gt;Node10</title>
<path fill="none" stroke="midnightblue" d="M261.95,-158.1C263.11,-149.14 264.44,-138.86 265.37,-131.75"/>
<polygon fill="midnightblue" stroke="midnightblue" points="258.47,-157.72 260.66,-168.08 265.41,-158.62 258.47,-157.72"/>
</g>
</g>
</svg>
