<?xml version="1.0" encoding="UTF-8" standalone="no"?>
<!DOCTYPE svg PUBLIC "-//W3C//DTD SVG 1.1//EN"
 "http://www.w3.org/Graphics/SVG/1.1/DTD/svg11.dtd">
<!-- Generated by graphviz version 3.0.0 (20220226.1711)
 -->
<!-- Title: Nemo.cpp Pages: 1 -->
<svg width="391pt" height="196pt"
 viewBox="0.00 0.00 391.00 196.00" xmlns="http://www.w3.org/2000/svg" xmlns:xlink="http://www.w3.org/1999/xlink">
<g id="graph0" class="graph" transform="scale(1 1) rotate(0) translate(4 192)">
<title>Nemo.cpp</title>
<!-- Node1 -->
<g id="node1" class="node">
<title>Node1</title>
<g id="a_node1"><a xlink:title=" ">
<polygon fill="#bfbfbf" stroke="black" points="256.5,-168.5 256.5,-187.5 317.5,-187.5 317.5,-168.5 256.5,-168.5"/>
<text text-anchor="middle" x="287" y="-175.5" font-family="Helvetica,sans-Serif" font-size="10.00">Nemo.cpp</text>
</a>
</g>
</g>
<!-- Node2 -->
<g id="node2" class="node">
<title>Node2</title>
<g id="a_node2"><a xlink:href="_nemo_8h.html" target="_top" xlink:title=" ">
<polygon fill="none" stroke="black" points="169,-112.5 169,-131.5 219,-131.5 219,-112.5 169,-112.5"/>
<text text-anchor="middle" x="194" y="-119.5" font-family="Helvetica,sans-Serif" font-size="10.00">Nemo.h</text>
</a>
</g>
</g>
<!-- Node1&#45;&gt;Node2 -->
<g id="edge1" class="edge">
<title>Node1&#45;&gt;Node2</title>
<path fill="none" stroke="midnightblue" d="M272.06,-168.32C257.41,-159.82 234.87,-146.73 217.76,-136.8"/>
<polygon fill="midnightblue" stroke="midnightblue" points="219.31,-133.65 208.9,-131.65 215.8,-139.7 219.31,-133.65"/>
</g>
<!-- Node9 -->
<g id="node9" class="node">
<title>Node9</title>
<g id="a_node9"><a xlink:href="_level_8h.html" target="_top" xlink:title=" ">
<polygon fill="none" stroke="black" points="263.5,-112.5 263.5,-131.5 310.5,-131.5 310.5,-112.5 263.5,-112.5"/>
<text text-anchor="middle" x="287" y="-119.5" font-family="Helvetica,sans-Serif" font-size="10.00">Level.h</text>
</a>
</g>
</g>
<!-- Node1&#45;&gt;Node9 -->
<g id="edge9" class="edge">
<title>Node1&#45;&gt;Node9</title>
<path fill="none" stroke="midnightblue" d="M287,-168.08C287,-161.01 287,-150.86 287,-141.99"/>
<polygon fill="midnightblue" stroke="midnightblue" points="290.5,-141.75 287,-131.75 283.5,-141.75 290.5,-141.75"/>
</g>
<!-- Node10 -->
<g id="node10" class="node">
<title>Node10</title>
<g id="a_node10"><a xlink:title=" ">
<polygon fill="none" stroke="#bfbfbf" points="329,-112.5 329,-131.5 383,-131.5 383,-112.5 329,-112.5"/>
<text text-anchor="middle" x="356" y="-119.5" font-family="Helvetica,sans-Serif" font-size="10.00">iostream</text>
</a>
</g>
</g>
<!-- Node1&#45;&gt;Node10 -->
<g id="edge11" class="edge">
<title>Node1&#45;&gt;Node10</title>
<path fill="none" stroke="midnightblue" d="M298.09,-168.32C308.49,-160.18 324.26,-147.84 336.72,-138.09"/>
<polygon fill="midnightblue" stroke="midnightblue" points="338.99,-140.75 344.71,-131.83 334.68,-135.24 338.99,-140.75"/>
</g>
<!-- Node3 -->
<g id="node3" class="node">
<title>Node3</title>
<g id="a_node3"><a xlink:href="_sprite_8h.html" target="_top" xlink:title=" ">
<polygon fill="none" stroke="black" points="0,-56.5 0,-75.5 50,-75.5 50,-56.5 0,-56.5"/>
<text text-anchor="middle" x="25" y="-63.5" font-family="Helvetica,sans-Serif" font-size="10.00">Sprite.h</text>
</a>
</g>
</g>
<!-- Node2&#45;&gt;Node3 -->
<g id="edge2" class="edge">
<title>Node2&#45;&gt;Node3</title>
<path fill="none" stroke="midnightblue" d="M168.7,-112.92C139.74,-103.66 92.15,-88.46 59.73,-78.1"/>
<polygon fill="midnightblue" stroke="midnightblue" points="60.79,-74.76 50.2,-75.05 58.66,-81.43 60.79,-74.76"/>
</g>
<!-- Node4 -->
<g id="node4" class="node">
<title>Node4</title>
<g id="a_node4"><a xlink:title=" ">
<polygon fill="none" stroke="#bfbfbf" points="252,-0.5 252,-19.5 300,-19.5 300,-0.5 252,-0.5"/>
<text text-anchor="middle" x="276" y="-7.5" font-family="Helvetica,sans-Serif" font-size="10.00">raylib.h</text>
</a>
</g>
</g>
<!-- Node2&#45;&gt;Node4 -->
<g id="edge7" class="edge">
<title>Node2&#45;&gt;Node4</title>
<path fill="none" stroke="midnightblue" d="M212.03,-112.39C226.23,-104.73 245.48,-92.22 257,-76 266.68,-62.37 271.47,-43.83 273.81,-30.04"/>
<polygon fill="midnightblue" stroke="midnightblue" points="277.33,-30.17 275.26,-19.78 270.4,-29.19 277.33,-30.17"/>
</g>
<!-- Node6 -->
<g id="node6" class="node">
<title>Node6</title>
<g id="a_node6"><a xlink:title=" ">
<polygon fill="none" stroke="#bfbfbf" points="68,-56.5 68,-75.5 118,-75.5 118,-56.5 68,-56.5"/>
<text text-anchor="middle" x="93" y="-63.5" font-family="Helvetica,sans-Serif" font-size="10.00">config.h</text>
</a>
</g>
</g>
<!-- Node2&#45;&gt;Node6 -->
<g id="edge5" class="edge">
<title>Node2&#45;&gt;Node6</title>
<path fill="none" stroke="midnightblue" d="M177.77,-112.32C161.65,-103.7 136.7,-90.36 118.04,-80.39"/>
<polygon fill="midnightblue" stroke="midnightblue" points="119.66,-77.28 109.19,-75.65 116.36,-83.46 119.66,-77.28"/>
</g>
<!-- Node7 -->
<g id="node7" class="node">
<title>Node7</title>
<g id="a_node7"><a xlink:title=" ">
<polygon fill="none" stroke="#bfbfbf" points="136,-56.5 136,-75.5 188,-75.5 188,-56.5 136,-56.5"/>
<text text-anchor="middle" x="162" y="-63.5" font-family="Helvetica,sans-Serif" font-size="10.00">memory</text>
</a>
</g>
</g>
<!-- Node2&#45;&gt;Node7 -->
<g id="edge6" class="edge">
<title>Node2&#45;&gt;Node7</title>
<path fill="none" stroke="midnightblue" d="M188.72,-112.08C184.29,-104.61 177.84,-93.72 172.38,-84.52"/>
<polygon fill="midnightblue" stroke="midnightblue" points="175.29,-82.57 167.19,-75.75 169.27,-86.14 175.29,-82.57"/>
</g>
<!-- Node8 -->
<g id="node8" class="node">
<title>Node8</title>
<g id="a_node8"><a xlink:title=" ">
<polygon fill="none" stroke="#bfbfbf" points="206,-56.5 206,-75.5 248,-75.5 248,-56.5 206,-56.5"/>
<text text-anchor="middle" x="227" y="-63.5" font-family="Helvetica,sans-Serif" font-size="10.00">vector</text>
</a>
</g>
</g>
<!-- Node2&#45;&gt;Node8 -->
<g id="edge8" class="edge">
<title>Node2&#45;&gt;Node8</title>
<path fill="none" stroke="midnightblue" d="M199.45,-112.08C204.01,-104.61 210.67,-93.72 216.29,-84.52"/>
<polygon fill="midnightblue" stroke="midnightblue" points="219.42,-86.11 221.65,-75.75 213.45,-82.46 219.42,-86.11"/>
</g>
<!-- Node3&#45;&gt;Node4 -->
<g id="edge3" class="edge">
<title>Node3&#45;&gt;Node4</title>
<path fill="none" stroke="midnightblue" d="M50.21,-58.16C53.17,-57.41 56.15,-56.67 59,-56 123.35,-40.82 199.08,-25.75 241.92,-17.47"/>
<polygon fill="midnightblue" stroke="midnightblue" points="242.66,-20.89 251.82,-15.57 241.34,-14.02 242.66,-20.89"/>
</g>
<!-- Node5 -->
<g id="node5" class="node">
<title>Node5</title>
<g id="a_node5"><a xlink:title=" ">
<polygon fill="none" stroke="#bfbfbf" points="4.5,-0.5 4.5,-19.5 45.5,-19.5 45.5,-0.5 4.5,-0.5"/>
<text text-anchor="middle" x="25" y="-7.5" font-family="Helvetica,sans-Serif" font-size="10.00">string</text>
</a>
</g>
</g>
<!-- Node3&#45;&gt;Node5 -->
<g id="edge4" class="edge">
<title>Node3&#45;&gt;Node5</title>
<path fill="none" stroke="midnightblue" d="M25,-56.08C25,-49.01 25,-38.86 25,-29.99"/>
<polygon fill="midnightblue" stroke="midnightblue" points="28.5,-29.75 25,-19.75 21.5,-29.75 28.5,-29.75"/>
</g>
<!-- Node9&#45;&gt;Node4 -->
<g id="edge10" class="edge">
<title>Node9&#45;&gt;Node4</title>
<path fill="none" stroke="midnightblue" d="M288.51,-112.11C290.39,-99.54 293.02,-75.88 290,-56 288.63,-47 285.81,-37.33 283.05,-29.26"/>
<polygon fill="midnightblue" stroke="midnightblue" points="286.31,-27.98 279.6,-19.78 279.73,-30.37 286.31,-27.98"/>
</g>
</g>
</svg>
