<?xml version="1.0" encoding="UTF-8" standalone="no"?>
<!DOCTYPE svg PUBLIC "-//W3C//DTD SVG 1.1//EN"
 "http://www.w3.org/Graphics/SVG/1.1/DTD/svg11.dtd">
<!-- Generated by graphviz version 3.0.0 (20220226.1711)
 -->
<!-- Title: Nemo.h Pages: 1 -->
<svg width="339pt" height="252pt"
 viewBox="0.00 0.00 339.00 252.00" xmlns="http://www.w3.org/2000/svg" xmlns:xlink="http://www.w3.org/1999/xlink">
<g id="graph0" class="graph" transform="scale(1 1) rotate(0) translate(4 248)">
<title>Nemo.h</title>
<!-- Node1 -->
<g id="node1" class="node">
<title>Node1</title>
<g id="a_node1"><a xlink:title=" ">
<polygon fill="#bfbfbf" stroke="black" points="151.5,-224.5 151.5,-243.5 201.5,-243.5 201.5,-224.5 151.5,-224.5"/>
<text text-anchor="middle" x="176.5" y="-231.5" font-family="Helvetica,sans-Serif" font-size="10.00">Nemo.h</text>
</a>
</g>
</g>
<!-- Node2 -->
<g id="node2" class="node">
<title>Node2</title>
<g id="a_node2"><a xlink:href="_collision_8h.html" target="_top" xlink:title=" ">
<polygon fill="none" stroke="black" points="84.5,-112.5 84.5,-131.5 146.5,-131.5 146.5,-112.5 84.5,-112.5"/>
<text text-anchor="middle" x="115.5" y="-119.5" font-family="Helvetica,sans-Serif" font-size="10.00">Collision.h</text>
</a>
</g>
</g>
<!-- Node1&#45;&gt;Node2 -->
<g id="edge1" class="edge">
<title>Node1&#45;&gt;Node2</title>
<path fill="none" stroke="midnightblue" d="M166.7,-215.32C153.41,-191.37 130.22,-149.55 120.26,-131.59"/>
<polygon fill="midnightblue" stroke="midnightblue" points="163.8,-217.32 171.71,-224.37 169.92,-213.93 163.8,-217.32"/>
</g>
<!-- Node4 -->
<g id="node4" class="node">
<title>Node4</title>
<g id="a_node4"><a xlink:href="_puzzle_8h.html" target="_top" xlink:title=" ">
<polygon fill="none" stroke="black" points="5,-56.5 5,-75.5 60,-75.5 60,-56.5 5,-56.5"/>
<text text-anchor="middle" x="32.5" y="-63.5" font-family="Helvetica,sans-Serif" font-size="10.00">Puzzle.h</text>
</a>
</g>
</g>
<!-- Node1&#45;&gt;Node4 -->
<g id="edge11" class="edge">
<title>Node1&#45;&gt;Node4</title>
<path fill="none" stroke="midnightblue" d="M159.13,-217.65C138.12,-198.63 102.23,-164.72 75.5,-132 60.09,-113.14 45.09,-88.67 37.55,-75.8"/>
<polygon fill="midnightblue" stroke="midnightblue" points="156.88,-220.32 166.66,-224.39 161.55,-215.11 156.88,-220.32"/>
</g>
<!-- Node6 -->
<g id="node6" class="node">
<title>Node6</title>
<g id="a_node6"><a xlink:href="main_8cpp.html" target="_top" xlink:title=" ">
<polygon fill="none" stroke="black" points="150.5,-0.5 150.5,-19.5 206.5,-19.5 206.5,-0.5 150.5,-0.5"/>
<text text-anchor="middle" x="178.5" y="-7.5" font-family="Helvetica,sans-Serif" font-size="10.00">main.cpp</text>
</a>
</g>
</g>
<!-- Node1&#45;&gt;Node6 -->
<g id="edge12" class="edge">
<title>Node1&#45;&gt;Node6</title>
<path fill="none" stroke="midnightblue" d="M176.67,-214.3C177.08,-168.64 178.12,-52.85 178.42,-19.88"/>
<polygon fill="midnightblue" stroke="midnightblue" points="173.17,-214.27 176.58,-224.3 180.17,-214.33 173.17,-214.27"/>
</g>
<!-- Node7 -->
<g id="node7" class="node">
<title>Node7</title>
<g id="a_node7"><a xlink:href="_level_8h.html" target="_top" xlink:title=" ">
<polygon fill="none" stroke="black" points="205,-168.5 205,-187.5 252,-187.5 252,-168.5 205,-168.5"/>
<text text-anchor="middle" x="228.5" y="-175.5" font-family="Helvetica,sans-Serif" font-size="10.00">Level.h</text>
</a>
</g>
</g>
<!-- Node1&#45;&gt;Node7 -->
<g id="edge6" class="edge">
<title>Node1&#45;&gt;Node7</title>
<path fill="none" stroke="midnightblue" d="M192.18,-216.72C201.34,-207.2 212.55,-195.56 220.07,-187.75"/>
<polygon fill="midnightblue" stroke="midnightblue" points="189.5,-214.45 185.09,-224.08 194.54,-219.31 189.5,-214.45"/>
</g>
<!-- Node9 -->
<g id="node9" class="node">
<title>Node9</title>
<g id="a_node9"><a xlink:href="_nemo_8cpp.html" target="_top" xlink:title=" ">
<polygon fill="none" stroke="black" points="270,-168.5 270,-187.5 331,-187.5 331,-168.5 270,-168.5"/>
<text text-anchor="middle" x="300.5" y="-175.5" font-family="Helvetica,sans-Serif" font-size="10.00">Nemo.cpp</text>
</a>
</g>
</g>
<!-- Node1&#45;&gt;Node9 -->
<g id="edge10" class="edge">
<title>Node1&#45;&gt;Node9</title>
<path fill="none" stroke="midnightblue" d="M205.51,-220.37C228.73,-210.26 260.66,-196.35 280.94,-187.52"/>
<polygon fill="midnightblue" stroke="midnightblue" points="203.92,-217.24 196.15,-224.44 206.71,-223.66 203.92,-217.24"/>
</g>
<!-- Node3 -->
<g id="node3" class="node">
<title>Node3</title>
<g id="a_node3"><a xlink:href="_collision_8cpp.html" target="_top" xlink:title=" ">
<polygon fill="none" stroke="black" points="78.5,-56.5 78.5,-75.5 150.5,-75.5 150.5,-56.5 78.5,-56.5"/>
<text text-anchor="middle" x="114.5" y="-63.5" font-family="Helvetica,sans-Serif" font-size="10.00">Collision.cpp</text>
</a>
</g>
</g>
<!-- Node2&#45;&gt;Node3 -->
<g id="edge2" class="edge">
<title>Node2&#45;&gt;Node3</title>
<path fill="none" stroke="midnightblue" d="M115.14,-101.8C114.98,-92.91 114.79,-82.78 114.66,-75.75"/>
<polygon fill="midnightblue" stroke="midnightblue" points="111.65,-102.15 115.33,-112.08 118.65,-102.02 111.65,-102.15"/>
</g>
<!-- Node2&#45;&gt;Node4 -->
<g id="edge3" class="edge">
<title>Node2&#45;&gt;Node4</title>
<path fill="none" stroke="midnightblue" d="M93.4,-106.62C78.24,-96.76 58.62,-83.99 45.8,-75.65"/>
<polygon fill="midnightblue" stroke="midnightblue" points="91.87,-109.8 102.16,-112.32 95.69,-103.94 91.87,-109.8"/>
</g>
<!-- Node5 -->
<g id="node5" class="node">
<title>Node5</title>
<g id="a_node5"><a xlink:href="_puzzle_8cpp.html" target="_top" xlink:title=" ">
<polygon fill="none" stroke="black" points="0,-0.5 0,-19.5 65,-19.5 65,-0.5 0,-0.5"/>
<text text-anchor="middle" x="32.5" y="-7.5" font-family="Helvetica,sans-Serif" font-size="10.00">Puzzle.cpp</text>
</a>
</g>
</g>
<!-- Node4&#45;&gt;Node5 -->
<g id="edge4" class="edge">
<title>Node4&#45;&gt;Node5</title>
<path fill="none" stroke="midnightblue" d="M32.5,-45.8C32.5,-36.91 32.5,-26.78 32.5,-19.75"/>
<polygon fill="midnightblue" stroke="midnightblue" points="29,-46.08 32.5,-56.08 36,-46.08 29,-46.08"/>
</g>
<!-- Node4&#45;&gt;Node6 -->
<g id="edge5" class="edge">
<title>Node4&#45;&gt;Node6</title>
<path fill="none" stroke="midnightblue" d="M65.2,-52.91C92.65,-42.75 131.17,-28.51 155.47,-19.52"/>
<polygon fill="midnightblue" stroke="midnightblue" points="63.8,-49.69 55.63,-56.44 66.23,-56.26 63.8,-49.69"/>
</g>
<!-- Node7&#45;&gt;Node2 -->
<g id="edge7" class="edge">
<title>Node7&#45;&gt;Node2</title>
<path fill="none" stroke="midnightblue" d="M201.5,-164.1C180.39,-154.01 151.64,-140.27 133.32,-131.52"/>
<polygon fill="midnightblue" stroke="midnightblue" points="200.06,-167.29 210.59,-168.44 203.08,-160.97 200.06,-167.29"/>
</g>
<!-- Node7&#45;&gt;Node6 -->
<g id="edge9" class="edge">
<title>Node7&#45;&gt;Node6</title>
<path fill="none" stroke="midnightblue" d="M249.14,-161.79C263.45,-149.24 278.74,-130.54 271.5,-112 255.12,-70.03 212.24,-34.98 190.91,-19.51"/>
<polygon fill="midnightblue" stroke="midnightblue" points="246.55,-159.39 241.01,-168.42 250.97,-164.82 246.55,-159.39"/>
</g>
<!-- Node8 -->
<g id="node8" class="node">
<title>Node8</title>
<g id="a_node8"><a xlink:href="_level_8cpp.html" target="_top" xlink:title=" ">
<polygon fill="none" stroke="black" points="205,-112.5 205,-131.5 262,-131.5 262,-112.5 205,-112.5"/>
<text text-anchor="middle" x="233.5" y="-119.5" font-family="Helvetica,sans-Serif" font-size="10.00">Level.cpp</text>
</a>
</g>
</g>
<!-- Node7&#45;&gt;Node8 -->
<g id="edge8" class="edge">
<title>Node7&#45;&gt;Node8</title>
<path fill="none" stroke="midnightblue" d="M230.25,-158.1C231.08,-149.14 232.03,-138.86 232.69,-131.75"/>
<polygon fill="midnightblue" stroke="midnightblue" points="226.76,-157.8 229.33,-168.08 233.73,-158.45 226.76,-157.8"/>
</g>
</g>
</svg>
