<?xml version="1.0" encoding="UTF-8" standalone="no"?>
<!DOCTYPE svg PUBLIC "-//W3C//DTD SVG 1.1//EN"
 "http://www.w3.org/Graphics/SVG/1.1/DTD/svg11.dtd">
<!-- Generated by graphviz version 3.0.0 (20220226.1711)
 -->
<!-- Title: Nemo.h Pages: 1 -->
<svg width="409pt" height="196pt"
 viewBox="0.00 0.00 408.68 196.00" xmlns="http://www.w3.org/2000/svg" xmlns:xlink="http://www.w3.org/1999/xlink">
<g id="graph0" class="graph" transform="scale(1 1) rotate(0) translate(4 192)">
<title>Nemo.h</title>
<!-- Node1 -->
<g id="node1" class="node">
<title>Node1</title>
<g id="a_node1"><a xlink:title=" ">
<polygon fill="#bfbfbf" stroke="black" points="204,-168.5 204,-187.5 254,-187.5 254,-168.5 204,-168.5"/>
<text text-anchor="middle" x="229" y="-175.5" font-family="Helvetica,sans-Serif" font-size="10.00">Nemo.h</text>
</a>
</g>
</g>
<!-- Node2 -->
<g id="node2" class="node">
<title>Node2</title>
<g id="a_node2"><a xlink:href="_collision_8h.html" target="_top" xlink:title=" ">
<polygon fill="none" stroke="black" points="5,-56.5 5,-75.5 67,-75.5 67,-56.5 5,-56.5"/>
<text text-anchor="middle" x="36" y="-63.5" font-family="Helvetica,sans-Serif" font-size="10.00">Collision.h</text>
</a>
</g>
</g>
<!-- Node1&#45;&gt;Node2 -->
<g id="edge1" class="edge">
<title>Node1&#45;&gt;Node2</title>
<path fill="none" stroke="midnightblue" d="M193.93,-165.46C171.73,-157.49 142.83,-145.84 119,-132 89.88,-115.08 59.74,-88.9 45.09,-75.52"/>
<polygon fill="midnightblue" stroke="midnightblue" points="193.02,-168.85 203.61,-168.86 195.34,-162.25 193.02,-168.85"/>
</g>
<!-- Node4 -->
<g id="node4" class="node">
<title>Node4</title>
<g id="a_node4"><a xlink:href="main_8cpp.html" target="_top" xlink:title=" ">
<polygon fill="none" stroke="black" points="175,-0.5 175,-19.5 231,-19.5 231,-0.5 175,-0.5"/>
<text text-anchor="middle" x="203" y="-7.5" font-family="Helvetica,sans-Serif" font-size="10.00">main.cpp</text>
</a>
</g>
</g>
<!-- Node1&#45;&gt;Node4 -->
<g id="edge13" class="edge">
<title>Node1&#45;&gt;Node4</title>
<path fill="none" stroke="midnightblue" d="M263.98,-167.46C323.06,-149.66 432.31,-108.37 391,-56 371.41,-31.17 278.74,-18.51 231.23,-13.56"/>
<polygon fill="midnightblue" stroke="midnightblue" points="262.88,-164.14 254.27,-170.32 264.85,-170.86 262.88,-164.14"/>
</g>
<!-- Node5 -->
<g id="node5" class="node">
<title>Node5</title>
<g id="a_node5"><a xlink:href="_level_8h.html" target="_top" xlink:title=" ">
<polygon fill="none" stroke="black" points="128.5,-112.5 128.5,-131.5 175.5,-131.5 175.5,-112.5 128.5,-112.5"/>
<text text-anchor="middle" x="152" y="-119.5" font-family="Helvetica,sans-Serif" font-size="10.00">Level.h</text>
</a>
</g>
</g>
<!-- Node1&#45;&gt;Node5 -->
<g id="edge4" class="edge">
<title>Node1&#45;&gt;Node5</title>
<path fill="none" stroke="midnightblue" d="M208.1,-162.34C194.09,-152.52 176.12,-139.91 164.34,-131.65"/>
<polygon fill="midnightblue" stroke="midnightblue" points="206.43,-165.45 216.63,-168.32 210.45,-159.72 206.43,-165.45"/>
</g>
<!-- Node7 -->
<g id="node7" class="node">
<title>Node7</title>
<g id="a_node7"><a xlink:href="_nemo_8cpp.html" target="_top" xlink:title=" ">
<polygon fill="none" stroke="black" points="198.5,-56.5 198.5,-75.5 259.5,-75.5 259.5,-56.5 198.5,-56.5"/>
<text text-anchor="middle" x="229" y="-63.5" font-family="Helvetica,sans-Serif" font-size="10.00">Nemo.cpp</text>
</a>
</g>
</g>
<!-- Node1&#45;&gt;Node7 -->
<g id="edge9" class="edge">
<title>Node1&#45;&gt;Node7</title>
<path fill="none" stroke="midnightblue" d="M229,-158.35C229,-134.25 229,-93.31 229,-75.59"/>
<polygon fill="midnightblue" stroke="midnightblue" points="225.5,-158.37 229,-168.37 232.5,-158.37 225.5,-158.37"/>
</g>
<!-- Node8 -->
<g id="node8" class="node">
<title>Node8</title>
<g id="a_node8"><a xlink:href="_puzzle_8h.html" target="_top" xlink:title=" ">
<polygon fill="none" stroke="black" points="260.5,-112.5 260.5,-131.5 315.5,-131.5 315.5,-112.5 260.5,-112.5"/>
<text text-anchor="middle" x="288" y="-119.5" font-family="Helvetica,sans-Serif" font-size="10.00">Puzzle.h</text>
</a>
</g>
</g>
<!-- Node1&#45;&gt;Node8 -->
<g id="edge10" class="edge">
<title>Node1&#45;&gt;Node8</title>
<path fill="none" stroke="midnightblue" d="M245.89,-161.54C256.41,-151.91 269.57,-139.87 278.35,-131.83"/>
<polygon fill="midnightblue" stroke="midnightblue" points="243.49,-158.99 238.48,-168.32 248.22,-164.15 243.49,-158.99"/>
</g>
<!-- Node3 -->
<g id="node3" class="node">
<title>Node3</title>
<g id="a_node3"><a xlink:href="_collision_8cpp.html" target="_top" xlink:title=" ">
<polygon fill="none" stroke="black" points="0,-0.5 0,-19.5 72,-19.5 72,-0.5 0,-0.5"/>
<text text-anchor="middle" x="36" y="-7.5" font-family="Helvetica,sans-Serif" font-size="10.00">Collision.cpp</text>
</a>
</g>
</g>
<!-- Node2&#45;&gt;Node3 -->
<g id="edge2" class="edge">
<title>Node2&#45;&gt;Node3</title>
<path fill="none" stroke="midnightblue" d="M36,-45.8C36,-36.91 36,-26.78 36,-19.75"/>
<polygon fill="midnightblue" stroke="midnightblue" points="32.5,-46.08 36,-56.08 39.5,-46.08 32.5,-46.08"/>
</g>
<!-- Node2&#45;&gt;Node4 -->
<g id="edge3" class="edge">
<title>Node2&#45;&gt;Node4</title>
<path fill="none" stroke="midnightblue" d="M72.17,-53.3C103.64,-43.13 148.49,-28.62 176.66,-19.52"/>
<polygon fill="midnightblue" stroke="midnightblue" points="70.9,-50.04 62.46,-56.44 73.05,-56.7 70.9,-50.04"/>
</g>
<!-- Node5&#45;&gt;Node2 -->
<g id="edge5" class="edge">
<title>Node5&#45;&gt;Node2</title>
<path fill="none" stroke="midnightblue" d="M124.28,-108.1C102.61,-98.01 73.1,-84.27 54.29,-75.52"/>
<polygon fill="midnightblue" stroke="midnightblue" points="123.08,-111.4 133.62,-112.44 126.03,-105.05 123.08,-111.4"/>
</g>
<!-- Node5&#45;&gt;Node4 -->
<g id="edge8" class="edge">
<title>Node5&#45;&gt;Node4</title>
<path fill="none" stroke="midnightblue" d="M132.86,-105.66C118.75,-92.41 103.66,-72.82 114,-56 127.15,-34.61 153.96,-23.02 174.73,-16.98"/>
<polygon fill="midnightblue" stroke="midnightblue" points="130.6,-108.34 140.43,-112.31 135.22,-103.08 130.6,-108.34"/>
</g>
<!-- Node6 -->
<g id="node6" class="node">
<title>Node6</title>
<g id="a_node6"><a xlink:href="_level_8cpp.html" target="_top" xlink:title=" ">
<polygon fill="none" stroke="black" points="123.5,-56.5 123.5,-75.5 180.5,-75.5 180.5,-56.5 123.5,-56.5"/>
<text text-anchor="middle" x="152" y="-63.5" font-family="Helvetica,sans-Serif" font-size="10.00">Level.cpp</text>
</a>
</g>
</g>
<!-- Node5&#45;&gt;Node6 -->
<g id="edge6" class="edge">
<title>Node5&#45;&gt;Node6</title>
<path fill="none" stroke="midnightblue" d="M152,-101.8C152,-92.91 152,-82.78 152,-75.75"/>
<polygon fill="midnightblue" stroke="midnightblue" points="148.5,-102.08 152,-112.08 155.5,-102.08 148.5,-102.08"/>
</g>
<!-- Node5&#45;&gt;Node7 -->
<g id="edge7" class="edge">
<title>Node5&#45;&gt;Node7</title>
<path fill="none" stroke="midnightblue" d="M172.9,-106.34C186.91,-96.52 204.88,-83.91 216.66,-75.65"/>
<polygon fill="midnightblue" stroke="midnightblue" points="170.55,-103.72 164.37,-112.32 174.57,-109.45 170.55,-103.72"/>
</g>
<!-- Node8&#45;&gt;Node4 -->
<g id="edge12" class="edge">
<title>Node8&#45;&gt;Node4</title>
<path fill="none" stroke="midnightblue" d="M285.54,-101.91C282.99,-88.1 277.92,-69.55 268,-56 256,-39.61 236.15,-27.13 221.54,-19.52"/>
<polygon fill="midnightblue" stroke="midnightblue" points="282.14,-102.85 287.13,-112.19 289.06,-101.77 282.14,-102.85"/>
</g>
<!-- Node9 -->
<g id="node9" class="node">
<title>Node9</title>
<g id="a_node9"><a xlink:href="_puzzle_8cpp.html" target="_top" xlink:title=" ">
<polygon fill="none" stroke="black" points="316.5,-56.5 316.5,-75.5 381.5,-75.5 381.5,-56.5 316.5,-56.5"/>
<text text-anchor="middle" x="349" y="-63.5" font-family="Helvetica,sans-Serif" font-size="10.00">Puzzle.cpp</text>
</a>
</g>
</g>
<!-- Node8&#45;&gt;Node9 -->
<g id="edge11" class="edge">
<title>Node8&#45;&gt;Node9</title>
<path fill="none" stroke="midnightblue" d="M305.47,-105.54C316.34,-95.91 329.94,-83.87 339.02,-75.83"/>
<polygon fill="midnightblue" stroke="midnightblue" points="302.97,-103.07 297.8,-112.32 307.61,-108.32 302.97,-103.07"/>
</g>
</g>
</svg>
