<?xml version="1.0" encoding="UTF-8" standalone="no"?>
<!DOCTYPE svg PUBLIC "-//W3C//DTD SVG 1.1//EN"
 "http://www.w3.org/Graphics/SVG/1.1/DTD/svg11.dtd">
<!-- Generated by graphviz version 3.0.0 (20220226.1711)
 -->
<!-- Title: Puzzle.h Pages: 1 -->
<svg width="1549pt" height="476pt"
 viewBox="0.00 0.00 1548.50 476.00" xmlns="http://www.w3.org/2000/svg" xmlns:xlink="http://www.w3.org/1999/xlink">
<g id="graph0" class="graph" transform="scale(1 1) rotate(0) translate(4 472)">
<title>Puzzle.h</title>
<!-- Node1 -->
<g id="node1" class="node">
<title>Node1</title>
<g id="a_node1"><a xlink:title=" ">
<polygon fill="#bfbfbf" stroke="black" points="403,-448.5 403,-467.5 458,-467.5 458,-448.5 403,-448.5"/>
<text text-anchor="middle" x="430.5" y="-455.5" font-family="Helvetica,sans-Serif" font-size="10.00">Puzzle.h</text>
</a>
</g>
</g>
<!-- Node2 -->
<g id="node2" class="node">
<title>Node2</title>
<g id="a_node2"><a xlink:href="_i_n_c_l_u_d_e_s_8h.html" target="_top" xlink:title=" ">
<polygon fill="none" stroke="black" points="768.5,-56.5 768.5,-75.5 850.5,-75.5 850.5,-56.5 768.5,-56.5"/>
<text text-anchor="middle" x="809.5" y="-63.5" font-family="Helvetica,sans-Serif" font-size="10.00">../INCLUDES.h</text>
</a>
</g>
</g>
<!-- Node1&#45;&gt;Node2 -->
<g id="edge1" class="edge">
<title>Node1&#45;&gt;Node2</title>
<path fill="none" stroke="midnightblue" d="M425.22,-448.23C414.77,-430.04 392.5,-386.6 392.5,-347 392.5,-347 392.5,-347 392.5,-177 392.5,-131.19 430.44,-130.16 472.5,-112 522.78,-90.29 677.23,-76.41 758.42,-70.42"/>
<polygon fill="midnightblue" stroke="midnightblue" points="758.7,-73.9 768.42,-69.69 758.2,-66.92 758.7,-73.9"/>
</g>
<!-- Node25 -->
<g id="node25" class="node">
<title>Node25</title>
<g id="a_node25"><a xlink:href="_nemo_8h.html" target="_top" xlink:title=" ">
<polygon fill="none" stroke="black" points="422.5,-168.5 422.5,-187.5 512.5,-187.5 512.5,-168.5 422.5,-168.5"/>
<text text-anchor="middle" x="467.5" y="-175.5" font-family="Helvetica,sans-Serif" font-size="10.00">../Player/Nemo.h</text>
</a>
</g>
</g>
<!-- Node1&#45;&gt;Node25 -->
<g id="edge25" class="edge">
<title>Node1&#45;&gt;Node25</title>
<path fill="none" stroke="midnightblue" d="M430.5,-448.44C430.5,-429.94 430.5,-384.81 430.5,-347 430.5,-347 430.5,-347 430.5,-289 430.5,-254.89 446.68,-217.79 457.64,-196.57"/>
<polygon fill="midnightblue" stroke="midnightblue" points="460.86,-197.98 462.51,-187.51 454.69,-194.66 460.86,-197.98"/>
</g>
<!-- Node27 -->
<g id="node27" class="node">
<title>Node27</title>
<g id="a_node27"><a xlink:href="_collision_8h.html" target="_top" xlink:title=" ">
<polygon fill="none" stroke="black" points="716.5,-392.5 716.5,-411.5 778.5,-411.5 778.5,-392.5 716.5,-392.5"/>
<text text-anchor="middle" x="747.5" y="-399.5" font-family="Helvetica,sans-Serif" font-size="10.00">Collision.h</text>
</a>
</g>
</g>
<!-- Node1&#45;&gt;Node27 -->
<g id="edge30" class="edge">
<title>Node1&#45;&gt;Node27</title>
<path fill="none" stroke="midnightblue" d="M458.08,-452.3C513.84,-442.8 640.27,-421.27 706.03,-410.06"/>
<polygon fill="midnightblue" stroke="midnightblue" points="706.77,-413.49 716.04,-408.36 705.59,-406.59 706.77,-413.49"/>
</g>
<!-- Node3 -->
<g id="node3" class="node">
<title>Node3</title>
<g id="a_node3"><a xlink:title=" ">
<polygon fill="none" stroke="#bfbfbf" points="648,-0.5 648,-19.5 697,-19.5 697,-0.5 648,-0.5"/>
<text text-anchor="middle" x="672.5" y="-7.5" font-family="Helvetica,sans-Serif" font-size="10.00">string.h</text>
</a>
</g>
</g>
<!-- Node2&#45;&gt;Node3 -->
<g id="edge2" class="edge">
<title>Node2&#45;&gt;Node3</title>
<path fill="none" stroke="midnightblue" d="M787.79,-56.44C765.15,-47.52 729.43,-33.44 703.75,-23.32"/>
<polygon fill="midnightblue" stroke="midnightblue" points="704.69,-19.93 694.11,-19.52 702.13,-26.44 704.69,-19.93"/>
</g>
<!-- Node4 -->
<g id="node4" class="node">
<title>Node4</title>
<g id="a_node4"><a xlink:title=" ">
<polygon fill="none" stroke="#bfbfbf" points="715.5,-0.5 715.5,-19.5 763.5,-19.5 763.5,-0.5 715.5,-0.5"/>
<text text-anchor="middle" x="739.5" y="-7.5" font-family="Helvetica,sans-Serif" font-size="10.00">raylib.h</text>
</a>
</g>
</g>
<!-- Node2&#45;&gt;Node4 -->
<g id="edge3" class="edge">
<title>Node2&#45;&gt;Node4</title>
<path fill="none" stroke="midnightblue" d="M798.25,-56.32C787.7,-48.18 771.7,-35.84 759.06,-26.09"/>
<polygon fill="midnightblue" stroke="midnightblue" points="761.01,-23.17 750.95,-19.83 756.73,-28.71 761.01,-23.17"/>
</g>
<!-- Node5 -->
<g id="node5" class="node">
<title>Node5</title>
<g id="a_node5"><a xlink:title=" ">
<polygon fill="none" stroke="#bfbfbf" points="781.5,-0.5 781.5,-19.5 841.5,-19.5 841.5,-0.5 781.5,-0.5"/>
<text text-anchor="middle" x="811.5" y="-7.5" font-family="Helvetica,sans-Serif" font-size="10.00">raymath.h</text>
</a>
</g>
</g>
<!-- Node2&#45;&gt;Node5 -->
<g id="edge4" class="edge">
<title>Node2&#45;&gt;Node5</title>
<path fill="none" stroke="midnightblue" d="M809.83,-56.08C810.09,-49.01 810.47,-38.86 810.8,-29.99"/>
<polygon fill="midnightblue" stroke="midnightblue" points="814.3,-29.87 811.18,-19.75 807.31,-29.61 814.3,-29.87"/>
</g>
<!-- Node6 -->
<g id="node6" class="node">
<title>Node6</title>
<g id="a_node6"><a xlink:title=" ">
<polygon fill="none" stroke="#bfbfbf" points="859.5,-0.5 859.5,-19.5 907.5,-19.5 907.5,-0.5 859.5,-0.5"/>
<text text-anchor="middle" x="883.5" y="-7.5" font-family="Helvetica,sans-Serif" font-size="10.00">stdlib.h</text>
</a>
</g>
</g>
<!-- Node2&#45;&gt;Node6 -->
<g id="edge5" class="edge">
<title>Node2&#45;&gt;Node6</title>
<path fill="none" stroke="midnightblue" d="M821.39,-56.32C832.65,-48.11 849.79,-35.6 863.21,-25.81"/>
<polygon fill="midnightblue" stroke="midnightblue" points="865.38,-28.56 871.39,-19.83 861.25,-22.9 865.38,-28.56"/>
</g>
<!-- Node7 -->
<g id="node7" class="node">
<title>Node7</title>
<g id="a_node7"><a xlink:title=" ">
<polygon fill="none" stroke="#bfbfbf" points="926,-0.5 926,-19.5 971,-19.5 971,-0.5 926,-0.5"/>
<text text-anchor="middle" x="948.5" y="-7.5" font-family="Helvetica,sans-Serif" font-size="10.00">cstdlib</text>
</a>
</g>
</g>
<!-- Node2&#45;&gt;Node7 -->
<g id="edge6" class="edge">
<title>Node2&#45;&gt;Node7</title>
<path fill="none" stroke="midnightblue" d="M831.52,-56.44C854.6,-47.48 891.06,-33.31 917.14,-23.18"/>
<polygon fill="midnightblue" stroke="midnightblue" points="918.52,-26.4 926.58,-19.52 915.99,-19.88 918.52,-26.4"/>
</g>
<!-- Node8 -->
<g id="node8" class="node">
<title>Node8</title>
<g id="a_node8"><a xlink:title=" ">
<polygon fill="none" stroke="#bfbfbf" points="989.5,-0.5 989.5,-19.5 1035.5,-19.5 1035.5,-0.5 989.5,-0.5"/>
<text text-anchor="middle" x="1012.5" y="-7.5" font-family="Helvetica,sans-Serif" font-size="10.00">stdio.h</text>
</a>
</g>
</g>
<!-- Node2&#45;&gt;Node8 -->
<g id="edge7" class="edge">
<title>Node2&#45;&gt;Node8</title>
<path fill="none" stroke="midnightblue" d="M842.65,-56.45C875.11,-48.05 926.23,-34.7 979.48,-20.25"/>
<polygon fill="midnightblue" stroke="midnightblue" points="980.71,-23.54 989.44,-17.54 978.87,-16.78 980.71,-23.54"/>
</g>
<!-- Node9 -->
<g id="node9" class="node">
<title>Node9</title>
<g id="a_node9"><a xlink:title=" ">
<polygon fill="none" stroke="#bfbfbf" points="1306.5,-0.5 1306.5,-19.5 1356.5,-19.5 1356.5,-0.5 1306.5,-0.5"/>
<text text-anchor="middle" x="1331.5" y="-7.5" font-family="Helvetica,sans-Serif" font-size="10.00">config.h</text>
</a>
</g>
</g>
<!-- Node2&#45;&gt;Node9 -->
<g id="edge8" class="edge">
<title>Node2&#45;&gt;Node9</title>
<path fill="none" stroke="midnightblue" d="M850.62,-63.52C933.37,-60.06 1125.99,-49.47 1296.45,-19.9"/>
<polygon fill="midnightblue" stroke="midnightblue" points="1297.11,-23.34 1306.35,-18.16 1295.9,-16.44 1297.11,-23.34"/>
</g>
<!-- Node10 -->
<g id="node10" class="node">
<title>Node10</title>
<g id="a_node10"><a xlink:title=" ">
<polygon fill="none" stroke="#bfbfbf" points="1054,-0.5 1054,-19.5 1113,-19.5 1113,-0.5 1054,-0.5"/>
<text text-anchor="middle" x="1083.5" y="-7.5" font-family="Helvetica,sans-Serif" font-size="10.00">process.h</text>
</a>
</g>
</g>
<!-- Node2&#45;&gt;Node10 -->
<g id="edge9" class="edge">
<title>Node2&#45;&gt;Node10</title>
<path fill="none" stroke="midnightblue" d="M850.77,-57.58C895.76,-49.39 970.09,-35.54 1043.79,-20.09"/>
<polygon fill="midnightblue" stroke="midnightblue" points="1044.65,-23.48 1053.72,-17.99 1043.21,-16.63 1044.65,-23.48"/>
</g>
<!-- Node11 -->
<g id="node11" class="node">
<title>Node11</title>
<g id="a_node11"><a xlink:title=" ">
<polygon fill="none" stroke="#bfbfbf" points="1131,-0.5 1131,-19.5 1172,-19.5 1172,-0.5 1131,-0.5"/>
<text text-anchor="middle" x="1151.5" y="-7.5" font-family="Helvetica,sans-Serif" font-size="10.00">string</text>
</a>
</g>
</g>
<!-- Node2&#45;&gt;Node11 -->
<g id="edge10" class="edge">
<title>Node2&#45;&gt;Node11</title>
<path fill="none" stroke="midnightblue" d="M850.64,-61.18C908.96,-55.31 1019.08,-42.54 1120.87,-20.09"/>
<polygon fill="midnightblue" stroke="midnightblue" points="1121.71,-23.49 1130.7,-17.89 1120.17,-16.66 1121.71,-23.49"/>
</g>
<!-- Node12 -->
<g id="node12" class="node">
<title>Node12</title>
<g id="a_node12"><a xlink:title=" ">
<polygon fill="none" stroke="#bfbfbf" points="1190.5,-0.5 1190.5,-19.5 1228.5,-19.5 1228.5,-0.5 1190.5,-0.5"/>
<text text-anchor="middle" x="1209.5" y="-7.5" font-family="Helvetica,sans-Serif" font-size="10.00">array</text>
</a>
</g>
</g>
<!-- Node2&#45;&gt;Node12 -->
<g id="edge11" class="edge">
<title>Node2&#45;&gt;Node12</title>
<path fill="none" stroke="midnightblue" d="M850.66,-62.59C917.9,-58.1 1055.48,-46.59 1180.25,-19.89"/>
<polygon fill="midnightblue" stroke="midnightblue" points="1181.33,-23.24 1190.35,-17.69 1179.84,-16.4 1181.33,-23.24"/>
</g>
<!-- Node13 -->
<g id="node13" class="node">
<title>Node13</title>
<g id="a_node13"><a xlink:title=" ">
<polygon fill="none" stroke="#bfbfbf" points="1246.5,-0.5 1246.5,-19.5 1288.5,-19.5 1288.5,-0.5 1246.5,-0.5"/>
<text text-anchor="middle" x="1267.5" y="-7.5" font-family="Helvetica,sans-Serif" font-size="10.00">vector</text>
</a>
</g>
</g>
<!-- Node2&#45;&gt;Node13 -->
<g id="edge12" class="edge">
<title>Node2&#45;&gt;Node13</title>
<path fill="none" stroke="midnightblue" d="M850.6,-63.23C925.59,-59.46 1089.63,-48.66 1236.24,-19.9"/>
<polygon fill="midnightblue" stroke="midnightblue" points="1237.2,-23.28 1246.32,-17.89 1235.83,-16.41 1237.2,-23.28"/>
</g>
<!-- Node14 -->
<g id="node14" class="node">
<title>Node14</title>
<g id="a_node14"><a xlink:title=" ">
<polygon fill="none" stroke="#bfbfbf" points="119.5,-0.5 119.5,-19.5 163.5,-19.5 163.5,-0.5 119.5,-0.5"/>
<text text-anchor="middle" x="141.5" y="-7.5" font-family="Helvetica,sans-Serif" font-size="10.00">cmath</text>
</a>
</g>
</g>
<!-- Node2&#45;&gt;Node14 -->
<g id="edge13" class="edge">
<title>Node2&#45;&gt;Node14</title>
<path fill="none" stroke="midnightblue" d="M768.14,-65.1C667.61,-64.69 402.52,-59.77 173.89,-19.86"/>
<polygon fill="midnightblue" stroke="midnightblue" points="174.17,-16.36 163.72,-18.06 172.95,-23.25 174.17,-16.36"/>
</g>
<!-- Node15 -->
<g id="node15" class="node">
<title>Node15</title>
<g id="a_node15"><a xlink:title=" ">
<polygon fill="none" stroke="#bfbfbf" points="181.5,-0.5 181.5,-19.5 233.5,-19.5 233.5,-0.5 181.5,-0.5"/>
<text text-anchor="middle" x="207.5" y="-7.5" font-family="Helvetica,sans-Serif" font-size="10.00">memory</text>
</a>
</g>
</g>
<!-- Node2&#45;&gt;Node15 -->
<g id="edge14" class="edge">
<title>Node2&#45;&gt;Node15</title>
<path fill="none" stroke="midnightblue" d="M768.29,-64.16C675.9,-61.76 445.14,-52.86 243.64,-19.91"/>
<polygon fill="midnightblue" stroke="midnightblue" points="244.21,-16.46 233.77,-18.27 243.06,-23.36 244.21,-16.46"/>
</g>
<!-- Node16 -->
<g id="node16" class="node">
<title>Node16</title>
<g id="a_node16"><a xlink:title=" ">
<polygon fill="none" stroke="#bfbfbf" points="252,-0.5 252,-19.5 293,-19.5 293,-0.5 252,-0.5"/>
<text text-anchor="middle" x="272.5" y="-7.5" font-family="Helvetica,sans-Serif" font-size="10.00">ctime</text>
</a>
</g>
</g>
<!-- Node2&#45;&gt;Node16 -->
<g id="edge15" class="edge">
<title>Node2&#45;&gt;Node16</title>
<path fill="none" stroke="midnightblue" d="M768.36,-64.17C683.14,-61.85 481.13,-53.2 303.09,-19.68"/>
<polygon fill="midnightblue" stroke="midnightblue" points="303.5,-16.2 293.02,-17.75 302.18,-23.07 303.5,-16.2"/>
</g>
<!-- Node17 -->
<g id="node17" class="node">
<title>Node17</title>
<g id="a_node17"><a xlink:title=" ">
<polygon fill="none" stroke="#bfbfbf" points="311.5,-0.5 311.5,-19.5 357.5,-19.5 357.5,-0.5 311.5,-0.5"/>
<text text-anchor="middle" x="334.5" y="-7.5" font-family="Helvetica,sans-Serif" font-size="10.00">chrono</text>
</a>
</g>
</g>
<!-- Node2&#45;&gt;Node17 -->
<g id="edge16" class="edge">
<title>Node2&#45;&gt;Node17</title>
<path fill="none" stroke="midnightblue" d="M768.24,-63.19C691.21,-59.31 520.25,-48.26 367.82,-19.95"/>
<polygon fill="midnightblue" stroke="midnightblue" points="368.28,-16.47 357.81,-18.06 366.99,-23.35 368.28,-16.47"/>
</g>
<!-- Node18 -->
<g id="node18" class="node">
<title>Node18</title>
<g id="a_node18"><a xlink:title=" ">
<polygon fill="none" stroke="#bfbfbf" points="375.5,-0.5 375.5,-19.5 427.5,-19.5 427.5,-0.5 375.5,-0.5"/>
<text text-anchor="middle" x="401.5" y="-7.5" font-family="Helvetica,sans-Serif" font-size="10.00">sstream</text>
</a>
</g>
</g>
<!-- Node2&#45;&gt;Node18 -->
<g id="edge17" class="edge">
<title>Node2&#45;&gt;Node18</title>
<path fill="none" stroke="midnightblue" d="M768.39,-61.82C701.2,-56.24 563.56,-43.19 437.97,-20.06"/>
<polygon fill="midnightblue" stroke="midnightblue" points="438.26,-16.55 427.79,-18.16 436.98,-23.43 438.26,-16.55"/>
</g>
<!-- Node19 -->
<g id="node19" class="node">
<title>Node19</title>
<g id="a_node19"><a xlink:title=" ">
<polygon fill="none" stroke="#bfbfbf" points="1375,-0.5 1375,-19.5 1424,-19.5 1424,-0.5 1375,-0.5"/>
<text text-anchor="middle" x="1399.5" y="-7.5" font-family="Helvetica,sans-Serif" font-size="10.00">fstream</text>
</a>
</g>
</g>
<!-- Node2&#45;&gt;Node19 -->
<g id="edge18" class="edge">
<title>Node2&#45;&gt;Node19</title>
<path fill="none" stroke="midnightblue" d="M850.62,-64.17C941.67,-61.8 1167.18,-52.98 1364.75,-19.8"/>
<polygon fill="midnightblue" stroke="midnightblue" points="1365.46,-23.23 1374.73,-18.1 1364.28,-16.33 1365.46,-23.23"/>
</g>
<!-- Node20 -->
<g id="node20" class="node">
<title>Node20</title>
<g id="a_node20"><a xlink:title=" ">
<polygon fill="none" stroke="#bfbfbf" points="445.5,-0.5 445.5,-19.5 499.5,-19.5 499.5,-0.5 445.5,-0.5"/>
<text text-anchor="middle" x="472.5" y="-7.5" font-family="Helvetica,sans-Serif" font-size="10.00">iostream</text>
</a>
</g>
</g>
<!-- Node2&#45;&gt;Node20 -->
<g id="edge19" class="edge">
<title>Node2&#45;&gt;Node20</title>
<path fill="none" stroke="midnightblue" d="M768.39,-60.13C712.16,-53.19 607.95,-39.34 509.67,-20.07"/>
<polygon fill="midnightblue" stroke="midnightblue" points="510.05,-16.58 499.56,-18.06 508.69,-23.44 510.05,-16.58"/>
</g>
<!-- Node21 -->
<g id="node21" class="node">
<title>Node21</title>
<g id="a_node21"><a xlink:title=" ">
<polygon fill="none" stroke="#bfbfbf" points="517.5,-0.5 517.5,-19.5 567.5,-19.5 567.5,-0.5 517.5,-0.5"/>
<text text-anchor="middle" x="542.5" y="-7.5" font-family="Helvetica,sans-Serif" font-size="10.00">iomanip</text>
</a>
</g>
</g>
<!-- Node2&#45;&gt;Node21 -->
<g id="edge20" class="edge">
<title>Node2&#45;&gt;Node21</title>
<path fill="none" stroke="midnightblue" d="M768.5,-57.95C723.82,-50.08 650.05,-36.52 577.47,-20.1"/>
<polygon fill="midnightblue" stroke="midnightblue" points="578.23,-16.69 567.7,-17.88 576.67,-23.51 578.23,-16.69"/>
</g>
<!-- Node22 -->
<g id="node22" class="node">
<title>Node22</title>
<g id="a_node22"><a xlink:title=" ">
<polygon fill="none" stroke="#bfbfbf" points="585.5,-0.5 585.5,-19.5 629.5,-19.5 629.5,-0.5 585.5,-0.5"/>
<text text-anchor="middle" x="607.5" y="-7.5" font-family="Helvetica,sans-Serif" font-size="10.00">thread</text>
</a>
</g>
</g>
<!-- Node2&#45;&gt;Node22 -->
<g id="edge21" class="edge">
<title>Node2&#45;&gt;Node22</title>
<path fill="none" stroke="midnightblue" d="M776.01,-56.45C743.51,-48.1 692.55,-34.85 639.72,-20.29"/>
<polygon fill="midnightblue" stroke="midnightblue" points="640.4,-16.85 629.83,-17.56 638.54,-23.6 640.4,-16.85"/>
</g>
<!-- Node23 -->
<g id="node23" class="node">
<title>Node23</title>
<g id="a_node23"><a xlink:title=" ">
<polygon fill="none" stroke="#bfbfbf" points="1442.5,-0.5 1442.5,-19.5 1540.5,-19.5 1540.5,-0.5 1442.5,-0.5"/>
<text text-anchor="middle" x="1491.5" y="-7.5" font-family="Helvetica,sans-Serif" font-size="10.00">nlohmann/json.hpp</text>
</a>
</g>
</g>
<!-- Node2&#45;&gt;Node23 -->
<g id="edge22" class="edge">
<title>Node2&#45;&gt;Node23</title>
<path fill="none" stroke="midnightblue" d="M850.86,-63.19C949.6,-58.62 1207,-45.22 1432.46,-20.03"/>
<polygon fill="midnightblue" stroke="midnightblue" points="1432.95,-23.49 1442.49,-18.89 1432.16,-16.54 1432.95,-23.49"/>
</g>
<!-- Node24 -->
<g id="node24" class="node">
<title>Node24</title>
<g id="a_node24"><a xlink:href="_game_audio_8h.html" target="_top" xlink:title=" ">
<polygon fill="none" stroke="black" points="0,-0.5 0,-19.5 101,-19.5 101,-0.5 0,-0.5"/>
<text text-anchor="middle" x="50.5" y="-7.5" font-family="Helvetica,sans-Serif" font-size="10.00">Level/GameAudio.h</text>
</a>
</g>
</g>
<!-- Node2&#45;&gt;Node24 -->
<g id="edge23" class="edge">
<title>Node2&#45;&gt;Node24</title>
<path fill="none" stroke="midnightblue" d="M768.14,-63.71C660.17,-59.91 361.62,-47.31 107.22,-20.58"/>
<polygon fill="midnightblue" stroke="midnightblue" points="107.37,-17.08 97.05,-19.5 106.63,-24.04 107.37,-17.08"/>
</g>
<!-- Node24&#45;&gt;Node2 -->
<g id="edge24" class="edge">
<title>Node24&#45;&gt;Node2</title>
<path fill="none" stroke="midnightblue" d="M101.31,-17.75C107.46,-18.59 113.63,-19.37 119.5,-20 357.82,-45.5 643.51,-58.41 758.25,-63"/>
<polygon fill="midnightblue" stroke="midnightblue" points="758.36,-66.51 768.49,-63.4 758.64,-59.51 758.36,-66.51"/>
</g>
<!-- Node25&#45;&gt;Node2 -->
<g id="edge29" class="edge">
<title>Node25&#45;&gt;Node2</title>
<path fill="none" stroke="midnightblue" d="M467.71,-168.25C468.56,-154.05 472.44,-126.14 489.5,-112 529.39,-78.94 678.3,-70.16 758.15,-67.83"/>
<polygon fill="midnightblue" stroke="midnightblue" points="758.57,-71.32 768.47,-67.56 758.38,-64.33 758.57,-71.32"/>
</g>
<!-- Node25&#45;&gt;Node24 -->
<g id="edge28" class="edge">
<title>Node25&#45;&gt;Node24</title>
<path fill="none" stroke="midnightblue" d="M445.96,-168.42C377.19,-141.05 162.67,-55.65 81.79,-23.45"/>
<polygon fill="midnightblue" stroke="midnightblue" points="82.75,-20.07 72.16,-19.62 80.16,-26.57 82.75,-20.07"/>
</g>
<!-- Node26 -->
<g id="node26" class="node">
<title>Node26</title>
<g id="a_node26"><a xlink:href="_sprite_8h.html" target="_top" xlink:title=" ">
<polygon fill="none" stroke="black" points="693.5,-112.5 693.5,-131.5 781.5,-131.5 781.5,-112.5 693.5,-112.5"/>
<text text-anchor="middle" x="737.5" y="-119.5" font-family="Helvetica,sans-Serif" font-size="10.00">../Sprite/Sprite.h</text>
</a>
</g>
</g>
<!-- Node25&#45;&gt;Node26 -->
<g id="edge26" class="edge">
<title>Node25&#45;&gt;Node26</title>
<path fill="none" stroke="midnightblue" d="M510.28,-168.44C557.68,-158.96 634.13,-143.67 685.08,-133.48"/>
<polygon fill="midnightblue" stroke="midnightblue" points="685.8,-136.91 694.92,-131.52 684.43,-130.05 685.8,-136.91"/>
</g>
<!-- Node26&#45;&gt;Node2 -->
<g id="edge27" class="edge">
<title>Node26&#45;&gt;Node2</title>
<path fill="none" stroke="midnightblue" d="M749.07,-112.32C759.92,-104.18 776.38,-91.84 789.38,-82.09"/>
<polygon fill="midnightblue" stroke="midnightblue" points="791.82,-84.63 797.72,-75.83 787.62,-79.03 791.82,-84.63"/>
</g>
<!-- Node27&#45;&gt;Node2 -->
<g id="edge31" class="edge">
<title>Node27&#45;&gt;Node2</title>
<path fill="none" stroke="midnightblue" d="M778.51,-400.94C888.81,-399.92 1255.5,-389.13 1255.5,-291 1255.5,-291 1255.5,-291 1255.5,-177 1255.5,-96.49 978.07,-74.55 860.83,-68.87"/>
<polygon fill="midnightblue" stroke="midnightblue" points="860.81,-65.37 850.66,-68.4 860.49,-72.36 860.81,-65.37"/>
</g>
<!-- Node27&#45;&gt;Node25 -->
<g id="edge62" class="edge">
<title>Node27&#45;&gt;Node25</title>
<path fill="none" stroke="midnightblue" d="M732.94,-392.46C704.92,-375.83 641.92,-337.42 592.5,-300 562.37,-277.18 555.69,-270.26 528.5,-244 511.91,-227.97 493.96,-208.57 481.85,-195.16"/>
<polygon fill="midnightblue" stroke="midnightblue" points="484.42,-192.78 475.14,-187.67 479.21,-197.45 484.42,-192.78"/>
</g>
<!-- Node28 -->
<g id="node28" class="node">
<title>Node28</title>
<g id="a_node28"><a xlink:href="_level_8h.html" target="_top" xlink:title=" ">
<polygon fill="none" stroke="black" points="766.5,-280.5 766.5,-299.5 846.5,-299.5 846.5,-280.5 766.5,-280.5"/>
<text text-anchor="middle" x="806.5" y="-287.5" font-family="Helvetica,sans-Serif" font-size="10.00">../Level/Level.h</text>
</a>
</g>
</g>
<!-- Node27&#45;&gt;Node28 -->
<g id="edge32" class="edge">
<title>Node27&#45;&gt;Node28</title>
<path fill="none" stroke="midnightblue" d="M752.13,-392.37C761.78,-374.38 784.21,-332.55 797.05,-308.63"/>
<polygon fill="midnightblue" stroke="midnightblue" points="800.25,-310.06 801.89,-299.59 794.08,-306.75 800.25,-310.06"/>
</g>
<!-- Node37 -->
<g id="node37" class="node">
<title>Node37</title>
<g id="a_node37"><a xlink:href="_map_8h.html" target="_top" xlink:title=" ">
<polygon fill="none" stroke="black" points="1284,-336.5 1284,-355.5 1361,-355.5 1361,-336.5 1284,-336.5"/>
<text text-anchor="middle" x="1322.5" y="-343.5" font-family="Helvetica,sans-Serif" font-size="10.00">../Level/Map.h</text>
</a>
</g>
</g>
<!-- Node27&#45;&gt;Node37 -->
<g id="edge57" class="edge">
<title>Node27&#45;&gt;Node37</title>
<path fill="none" stroke="midnightblue" d="M778.78,-399.2C859.98,-394.35 1084.08,-379.69 1269.5,-356 1270.8,-355.83 1272.12,-355.66 1273.45,-355.48"/>
<polygon fill="midnightblue" stroke="midnightblue" points="1274.38,-358.88 1283.77,-353.96 1273.36,-351.95 1274.38,-358.88"/>
</g>
<!-- Node38 -->
<g id="node38" class="node">
<title>Node38</title>
<g id="a_node38"><a xlink:href="_dialogue_8h.html" target="_top" xlink:title=" ">
<polygon fill="none" stroke="black" points="601.5,-280.5 601.5,-299.5 697.5,-299.5 697.5,-280.5 601.5,-280.5"/>
<text text-anchor="middle" x="649.5" y="-287.5" font-family="Helvetica,sans-Serif" font-size="10.00">../Level/Dialogue.h</text>
</a>
</g>
</g>
<!-- Node27&#45;&gt;Node38 -->
<g id="edge63" class="edge">
<title>Node27&#45;&gt;Node38</title>
<path fill="none" stroke="midnightblue" d="M739.81,-392.37C723.49,-374.05 685.18,-331.05 664.08,-307.36"/>
<polygon fill="midnightblue" stroke="midnightblue" points="666.42,-304.73 657.15,-299.59 661.19,-309.39 666.42,-304.73"/>
</g>
<!-- Node28&#45;&gt;Node2 -->
<g id="edge49" class="edge">
<title>Node28&#45;&gt;Node2</title>
<path fill="none" stroke="midnightblue" d="M766.25,-288.07C733.76,-284.93 689.88,-274.77 667.5,-244 646.57,-215.22 589.92,-227.07 684.5,-112 702.6,-89.98 732.36,-78.73 758.3,-72.99"/>
<polygon fill="midnightblue" stroke="midnightblue" points="759.27,-76.36 768.39,-70.98 757.9,-69.5 759.27,-76.36"/>
</g>
<!-- Node28&#45;&gt;Node9 -->
<g id="edge56" class="edge">
<title>Node28&#45;&gt;Node9</title>
<path fill="none" stroke="midnightblue" d="M846.69,-288.89C934.74,-287.95 1141.39,-281.68 1198.5,-244 1277.71,-191.74 1315.08,-75.09 1327.04,-29.64"/>
<polygon fill="midnightblue" stroke="midnightblue" points="1330.49,-30.25 1329.54,-19.7 1323.7,-28.54 1330.49,-30.25"/>
</g>
<!-- Node28&#45;&gt;Node25 -->
<g id="edge50" class="edge">
<title>Node28&#45;&gt;Node25</title>
<path fill="none" stroke="midnightblue" d="M766.4,-285.94C718.4,-281.26 636.27,-269.94 570.5,-244 538.77,-231.49 506.14,-208.94 486.33,-193.97"/>
<polygon fill="midnightblue" stroke="midnightblue" points="488.24,-191.02 478.19,-187.69 483.97,-196.56 488.24,-191.02"/>
</g>
<!-- Node28&#45;&gt;Node26 -->
<g id="edge53" class="edge">
<title>Node28&#45;&gt;Node26</title>
<path fill="none" stroke="midnightblue" d="M766.31,-286.54C736.95,-282.38 699.01,-271.61 679.5,-244 655,-209.32 694.79,-162.68 719.74,-138.7"/>
<polygon fill="midnightblue" stroke="midnightblue" points="722.28,-141.12 727.22,-131.75 717.51,-135.99 722.28,-141.12"/>
</g>
<!-- Node29 -->
<g id="node29" class="node">
<title>Node29</title>
<g id="a_node29"><a xlink:href="_combat_2_mumy_8h.html" target="_top" xlink:title=" ">
<polygon fill="none" stroke="black" points="1091.5,-224.5 1091.5,-243.5 1189.5,-243.5 1189.5,-224.5 1091.5,-224.5"/>
<text text-anchor="middle" x="1140.5" y="-231.5" font-family="Helvetica,sans-Serif" font-size="10.00">../Combat/Mumy.h</text>
</a>
</g>
</g>
<!-- Node28&#45;&gt;Node29 -->
<g id="edge33" class="edge">
<title>Node28&#45;&gt;Node29</title>
<path fill="none" stroke="midnightblue" d="M846.79,-282.49C905.21,-273.04 1013.82,-255.48 1081.34,-244.57"/>
<polygon fill="midnightblue" stroke="midnightblue" points="1082.09,-247.99 1091.4,-242.94 1080.97,-241.08 1082.09,-247.99"/>
</g>
<!-- Node32 -->
<g id="node32" class="node">
<title>Node32</title>
<g id="a_node32"><a xlink:href="_player_8h.html" target="_top" xlink:title=" ">
<polygon fill="none" stroke="black" points="688.5,-224.5 688.5,-243.5 786.5,-243.5 786.5,-224.5 688.5,-224.5"/>
<text text-anchor="middle" x="737.5" y="-231.5" font-family="Helvetica,sans-Serif" font-size="10.00">../Combat/Player.h</text>
</a>
</g>
</g>
<!-- Node28&#45;&gt;Node32 -->
<g id="edge39" class="edge">
<title>Node28&#45;&gt;Node32</title>
<path fill="none" stroke="midnightblue" d="M795.41,-280.32C785.01,-272.18 769.24,-259.84 756.78,-250.09"/>
<polygon fill="midnightblue" stroke="midnightblue" points="758.82,-247.24 748.79,-243.83 754.51,-252.75 758.82,-247.24"/>
</g>
<!-- Node33 -->
<g id="node33" class="node">
<title>Node33</title>
<g id="a_node33"><a xlink:href="_combat_2_shadow_8h.html" target="_top" xlink:title=" ">
<polygon fill="none" stroke="black" points="805,-224.5 805,-243.5 910,-243.5 910,-224.5 805,-224.5"/>
<text text-anchor="middle" x="857.5" y="-231.5" font-family="Helvetica,sans-Serif" font-size="10.00">../Combat/Shadow.h</text>
</a>
</g>
</g>
<!-- Node28&#45;&gt;Node33 -->
<g id="edge43" class="edge">
<title>Node28&#45;&gt;Node33</title>
<path fill="none" stroke="midnightblue" d="M814.92,-280.08C822.35,-272.22 833.35,-260.57 842.31,-251.08"/>
<polygon fill="midnightblue" stroke="midnightblue" points="844.91,-253.42 849.24,-243.75 839.82,-248.62 844.91,-253.42"/>
</g>
<!-- Node34 -->
<g id="node34" class="node">
<title>Node34</title>
<g id="a_node34"><a xlink:href="_combat_2_pharaoh_8h.html" target="_top" xlink:title=" ">
<polygon fill="none" stroke="black" points="928,-224.5 928,-243.5 1035,-243.5 1035,-224.5 928,-224.5"/>
<text text-anchor="middle" x="981.5" y="-231.5" font-family="Helvetica,sans-Serif" font-size="10.00">../Combat/Pharaoh.h</text>
</a>
</g>
</g>
<!-- Node28&#45;&gt;Node34 -->
<g id="edge46" class="edge">
<title>Node28&#45;&gt;Node34</title>
<path fill="none" stroke="midnightblue" d="M834.23,-280.44C863.93,-271.28 911.22,-256.69 944.17,-246.52"/>
<polygon fill="midnightblue" stroke="midnightblue" points="945.38,-249.81 953.9,-243.52 943.31,-243.12 945.38,-249.81"/>
</g>
<!-- Node35 -->
<g id="node35" class="node">
<title>Node35</title>
<g id="a_node35"><a xlink:href="_u_i_8h.html" target="_top" xlink:title=" ">
<polygon fill="none" stroke="black" points="1032.5,-112.5 1032.5,-131.5 1066.5,-131.5 1066.5,-112.5 1032.5,-112.5"/>
<text text-anchor="middle" x="1049.5" y="-119.5" font-family="Helvetica,sans-Serif" font-size="10.00">UI.h</text>
</a>
</g>
</g>
<!-- Node28&#45;&gt;Node35 -->
<g id="edge51" class="edge">
<title>Node28&#45;&gt;Node35</title>
<path fill="none" stroke="midnightblue" d="M846.63,-287.26C907.62,-283.68 1019.24,-273.23 1044.5,-244 1069.16,-215.46 1061.72,-167.51 1055.05,-141.36"/>
<polygon fill="midnightblue" stroke="midnightblue" points="1058.39,-140.31 1052.34,-131.61 1051.65,-142.18 1058.39,-140.31"/>
</g>
<!-- Node36 -->
<g id="node36" class="node">
<title>Node36</title>
<g id="a_node36"><a xlink:href="_endscreen_8h.html" target="_top" xlink:title=" ">
<polygon fill="none" stroke="black" points="532,-112.5 532,-131.5 637,-131.5 637,-112.5 532,-112.5"/>
<text text-anchor="middle" x="584.5" y="-119.5" font-family="Helvetica,sans-Serif" font-size="10.00">../Level/Endscreen.h</text>
</a>
</g>
</g>
<!-- Node28&#45;&gt;Node36 -->
<g id="edge54" class="edge">
<title>Node28&#45;&gt;Node36</title>
<path fill="none" stroke="midnightblue" d="M766.48,-285.03C715.12,-279.09 630.07,-266.17 608.5,-244 581.83,-216.59 580.69,-168.54 582.44,-141.99"/>
<polygon fill="midnightblue" stroke="midnightblue" points="585.95,-142.01 583.33,-131.75 578.98,-141.4 585.95,-142.01"/>
</g>
<!-- Node29&#45;&gt;Node2 -->
<g id="edge34" class="edge">
<title>Node29&#45;&gt;Node2</title>
<path fill="none" stroke="midnightblue" d="M1136.31,-224.16C1123.61,-197.51 1085.77,-119.37 1075.5,-112 1041.89,-87.87 927.97,-75.61 860.61,-70.33"/>
<polygon fill="midnightblue" stroke="midnightblue" points="860.85,-66.84 850.62,-69.57 860.32,-73.82 860.85,-66.84"/>
</g>
<!-- Node30 -->
<g id="node30" class="node">
<title>Node30</title>
<g id="a_node30"><a xlink:title=" ">
<polygon fill="none" stroke="#bfbfbf" points="1129.5,-168.5 1129.5,-187.5 1175.5,-187.5 1175.5,-168.5 1129.5,-168.5"/>
<text text-anchor="middle" x="1152.5" y="-175.5" font-family="Helvetica,sans-Serif" font-size="10.00">cstring</text>
</a>
</g>
</g>
<!-- Node29&#45;&gt;Node30 -->
<g id="edge35" class="edge">
<title>Node29&#45;&gt;Node30</title>
<path fill="none" stroke="midnightblue" d="M1142.48,-224.08C1144.07,-216.93 1146.36,-206.64 1148.35,-197.69"/>
<polygon fill="midnightblue" stroke="midnightblue" points="1151.8,-198.27 1150.56,-187.75 1144.97,-196.75 1151.8,-198.27"/>
</g>
<!-- Node31 -->
<g id="node31" class="node">
<title>Node31</title>
<g id="a_node31"><a xlink:href="_game_character_8h.html" target="_top" xlink:title=" ">
<polygon fill="none" stroke="black" points="876,-168.5 876,-187.5 969,-187.5 969,-168.5 876,-168.5"/>
<text text-anchor="middle" x="922.5" y="-175.5" font-family="Helvetica,sans-Serif" font-size="10.00">GameCharacter.h</text>
</a>
</g>
</g>
<!-- Node29&#45;&gt;Node31 -->
<g id="edge36" class="edge">
<title>Node29&#45;&gt;Node31</title>
<path fill="none" stroke="midnightblue" d="M1105.96,-224.44C1068.25,-215.1 1007.76,-200.12 966.64,-189.93"/>
<polygon fill="midnightblue" stroke="midnightblue" points="967.43,-186.52 956.88,-187.52 965.75,-193.32 967.43,-186.52"/>
</g>
<!-- Node31&#45;&gt;Node2 -->
<g id="edge37" class="edge">
<title>Node31&#45;&gt;Node2</title>
<path fill="none" stroke="midnightblue" d="M914.88,-168.32C903.59,-155.59 881.59,-131.3 861.5,-112 850.74,-101.66 838.09,-90.69 827.96,-82.17"/>
<polygon fill="midnightblue" stroke="midnightblue" points="830.06,-79.37 820.14,-75.66 825.58,-84.75 830.06,-79.37"/>
</g>
<!-- Node31&#45;&gt;Node26 -->
<g id="edge38" class="edge">
<title>Node31&#45;&gt;Node26</title>
<path fill="none" stroke="midnightblue" d="M893.19,-168.44C861.66,-159.24 811.37,-144.56 776.51,-134.39"/>
<polygon fill="midnightblue" stroke="midnightblue" points="777.26,-130.96 766.68,-131.52 775.3,-137.68 777.26,-130.96"/>
</g>
<!-- Node32&#45;&gt;Node2 -->
<g id="edge40" class="edge">
<title>Node32&#45;&gt;Node2</title>
<path fill="none" stroke="midnightblue" d="M742.79,-224.37C753.1,-207.26 776.11,-167.62 790.5,-132 796.69,-116.67 801.81,-98.57 805.17,-85.37"/>
<polygon fill="midnightblue" stroke="midnightblue" points="808.59,-86.14 807.57,-75.6 801.79,-84.48 808.59,-86.14"/>
</g>
<!-- Node32&#45;&gt;Node26 -->
<g id="edge42" class="edge">
<title>Node32&#45;&gt;Node26</title>
<path fill="none" stroke="midnightblue" d="M737.5,-224.37C737.5,-206.62 737.5,-165.67 737.5,-141.6"/>
<polygon fill="midnightblue" stroke="midnightblue" points="741,-141.59 737.5,-131.59 734,-141.59 741,-141.59"/>
</g>
<!-- Node32&#45;&gt;Node31 -->
<g id="edge41" class="edge">
<title>Node32&#45;&gt;Node31</title>
<path fill="none" stroke="midnightblue" d="M766.81,-224.44C798.34,-215.24 848.63,-200.56 883.49,-190.39"/>
<polygon fill="midnightblue" stroke="midnightblue" points="884.7,-193.68 893.32,-187.52 882.74,-186.96 884.7,-193.68"/>
</g>
<!-- Node33&#45;&gt;Node2 -->
<g id="edge44" class="edge">
<title>Node33&#45;&gt;Node2</title>
<path fill="none" stroke="midnightblue" d="M855.19,-224.47C849.81,-204.66 835.95,-154.06 823.5,-112 820.88,-103.16 817.86,-93.39 815.29,-85.22"/>
<polygon fill="midnightblue" stroke="midnightblue" points="818.61,-84.09 812.25,-75.61 811.93,-86.2 818.61,-84.09"/>
</g>
<!-- Node33&#45;&gt;Node31 -->
<g id="edge45" class="edge">
<title>Node33&#45;&gt;Node31</title>
<path fill="none" stroke="midnightblue" d="M867.94,-224.32C877.65,-216.26 892.32,-204.08 904,-194.37"/>
<polygon fill="midnightblue" stroke="midnightblue" points="906.41,-196.92 911.87,-187.83 901.94,-191.53 906.41,-196.92"/>
</g>
<!-- Node34&#45;&gt;Node2 -->
<g id="edge47" class="edge">
<title>Node34&#45;&gt;Node2</title>
<path fill="none" stroke="midnightblue" d="M983.54,-224.27C986.12,-211.05 989.06,-185.64 978.5,-168 950.13,-120.58 890.19,-92.77 849.87,-78.72"/>
<polygon fill="midnightblue" stroke="midnightblue" points="850.92,-75.38 840.33,-75.52 848.7,-82.02 850.92,-75.38"/>
</g>
<!-- Node34&#45;&gt;Node31 -->
<g id="edge48" class="edge">
<title>Node34&#45;&gt;Node31</title>
<path fill="none" stroke="midnightblue" d="M972.02,-224.32C963.3,-216.34 950.16,-204.31 939.6,-194.65"/>
<polygon fill="midnightblue" stroke="midnightblue" points="941.89,-192 932.15,-187.83 937.17,-197.17 941.89,-192"/>
</g>
<!-- Node35&#45;&gt;Node2 -->
<g id="edge52" class="edge">
<title>Node35&#45;&gt;Node2</title>
<path fill="none" stroke="midnightblue" d="M1032.49,-116.92C1025.93,-115.36 1018.37,-113.58 1011.5,-112 959.37,-100.02 899.55,-86.75 858.62,-77.75"/>
<polygon fill="midnightblue" stroke="midnightblue" points="859.16,-74.28 848.64,-75.56 857.65,-81.12 859.16,-74.28"/>
</g>
<!-- Node36&#45;&gt;Node2 -->
<g id="edge55" class="edge">
<title>Node36&#45;&gt;Node2</title>
<path fill="none" stroke="midnightblue" d="M620.15,-112.44C659.16,-103.08 721.77,-88.06 764.22,-77.87"/>
<polygon fill="midnightblue" stroke="midnightblue" points="765.11,-81.25 774.01,-75.52 763.47,-74.45 765.11,-81.25"/>
</g>
<!-- Node37&#45;&gt;Node2 -->
<g id="edge58" class="edge">
<title>Node37&#45;&gt;Node2</title>
<path fill="none" stroke="midnightblue" d="M1318.59,-336.36C1310.67,-318.07 1293.5,-273.91 1293.5,-235 1293.5,-235 1293.5,-235 1293.5,-177 1293.5,-146.2 1293.88,-130.82 1269.5,-112 1237.7,-87.46 974.19,-73.78 860.92,-68.98"/>
<polygon fill="midnightblue" stroke="midnightblue" points="860.9,-65.48 850.77,-68.56 860.61,-72.47 860.9,-65.48"/>
</g>
<!-- Node37&#45;&gt;Node19 -->
<g id="edge60" class="edge">
<title>Node37&#45;&gt;Node19</title>
<path fill="none" stroke="midnightblue" d="M1331.65,-336.25C1348.89,-318.77 1384.5,-277.53 1384.5,-235 1384.5,-235 1384.5,-235 1384.5,-121 1384.5,-88.5 1391.01,-51.1 1395.45,-29.34"/>
<polygon fill="midnightblue" stroke="midnightblue" points="1398.89,-30.01 1397.54,-19.5 1392.04,-28.56 1398.89,-30.01"/>
</g>
<!-- Node37&#45;&gt;Node23 -->
<g id="edge61" class="edge">
<title>Node37&#45;&gt;Node23</title>
<path fill="none" stroke="midnightblue" d="M1349.62,-336.47C1388.77,-322.27 1456.5,-289.78 1456.5,-235 1456.5,-235 1456.5,-235 1456.5,-121 1456.5,-87.07 1471.81,-49.91 1482.18,-28.63"/>
<polygon fill="midnightblue" stroke="midnightblue" points="1485.38,-30.05 1486.78,-19.54 1479.14,-26.88 1485.38,-30.05"/>
</g>
<!-- Node37&#45;&gt;Node28 -->
<g id="edge59" class="edge">
<title>Node37&#45;&gt;Node28</title>
<path fill="none" stroke="midnightblue" d="M1283.72,-340.94C1191.6,-331.3 959.73,-307.04 856.92,-296.28"/>
<polygon fill="midnightblue" stroke="midnightblue" points="857.11,-292.78 846.8,-295.22 856.38,-299.74 857.11,-292.78"/>
</g>
<!-- Node38&#45;&gt;Node2 -->
<g id="edge64" class="edge">
<title>Node38&#45;&gt;Node2</title>
<path fill="none" stroke="midnightblue" d="M635.46,-280.22C622.94,-271.92 604.61,-258.61 591.5,-244 569.39,-219.37 500.98,-137.15 522.5,-112 552.25,-77.23 684.03,-69.14 758.24,-67.38"/>
<polygon fill="midnightblue" stroke="midnightblue" points="758.39,-70.88 768.32,-67.17 758.25,-63.88 758.39,-70.88"/>
</g>
</g>
</svg>
