<?xml version="1.0" encoding="UTF-8" standalone="no"?>
<!DOCTYPE svg PUBLIC "-//W3C//DTD SVG 1.1//EN"
 "http://www.w3.org/Graphics/SVG/1.1/DTD/svg11.dtd">
<!-- Generated by graphviz version 3.0.0 (20220226.1711)
 -->
<!-- Title: Puzzle.cpp Pages: 1 -->
<svg width="1549pt" height="476pt"
 viewBox="0.00 0.00 1548.50 476.00" xmlns="http://www.w3.org/2000/svg" xmlns:xlink="http://www.w3.org/1999/xlink">
<g id="graph0" class="graph" transform="scale(1 1) rotate(0) translate(4 472)">
<title>Puzzle.cpp</title>
<!-- Node1 -->
<g id="node1" class="node">
<title>Node1</title>
<g id="a_node1"><a xlink:title=" ">
<polygon fill="#bfbfbf" stroke="black" points="714,-448.5 714,-467.5 779,-467.5 779,-448.5 714,-448.5"/>
<text text-anchor="middle" x="746.5" y="-455.5" font-family="Helvetica,sans-Serif" font-size="10.00">Puzzle.cpp</text>
</a>
</g>
</g>
<!-- Node2 -->
<g id="node2" class="node">
<title>Node2</title>
<g id="a_node2"><a xlink:href="_puzzle_8h.html" target="_top" xlink:title=" ">
<polygon fill="none" stroke="black" points="719,-392.5 719,-411.5 774,-411.5 774,-392.5 719,-392.5"/>
<text text-anchor="middle" x="746.5" y="-399.5" font-family="Helvetica,sans-Serif" font-size="10.00">Puzzle.h</text>
</a>
</g>
</g>
<!-- Node1&#45;&gt;Node2 -->
<g id="edge1" class="edge">
<title>Node1&#45;&gt;Node2</title>
<path fill="none" stroke="midnightblue" d="M746.5,-448.08C746.5,-441.01 746.5,-430.86 746.5,-421.99"/>
<polygon fill="midnightblue" stroke="midnightblue" points="750,-421.75 746.5,-411.75 743,-421.75 750,-421.75"/>
</g>
<!-- Node3 -->
<g id="node3" class="node">
<title>Node3</title>
<g id="a_node3"><a xlink:href="_i_n_c_l_u_d_e_s_8h.html" target="_top" xlink:title=" ">
<polygon fill="none" stroke="black" points="677.5,-56.5 677.5,-75.5 759.5,-75.5 759.5,-56.5 677.5,-56.5"/>
<text text-anchor="middle" x="718.5" y="-63.5" font-family="Helvetica,sans-Serif" font-size="10.00">../INCLUDES.h</text>
</a>
</g>
</g>
<!-- Node2&#45;&gt;Node3 -->
<g id="edge2" class="edge">
<title>Node2&#45;&gt;Node3</title>
<path fill="none" stroke="midnightblue" d="M774.24,-397.87C854.03,-388.09 1078.5,-354.91 1078.5,-291 1078.5,-291 1078.5,-291 1078.5,-177 1078.5,-132.21 1042.22,-130.64 1001.5,-112 925.97,-77.42 828.58,-68.8 769.97,-66.99"/>
<polygon fill="midnightblue" stroke="midnightblue" points="769.93,-63.49 759.84,-66.74 769.75,-70.49 769.93,-63.49"/>
</g>
<!-- Node26 -->
<g id="node26" class="node">
<title>Node26</title>
<g id="a_node26"><a xlink:href="_nemo_8h.html" target="_top" xlink:title=" ">
<polygon fill="none" stroke="black" points="248.5,-168.5 248.5,-187.5 338.5,-187.5 338.5,-168.5 248.5,-168.5"/>
<text text-anchor="middle" x="293.5" y="-175.5" font-family="Helvetica,sans-Serif" font-size="10.00">../Player/Nemo.h</text>
</a>
</g>
</g>
<!-- Node2&#45;&gt;Node26 -->
<g id="edge26" class="edge">
<title>Node2&#45;&gt;Node26</title>
<path fill="none" stroke="midnightblue" d="M718.65,-394.8C659.96,-381.27 519.8,-346.56 408.5,-300 360.79,-280.04 337.1,-285.69 306.5,-244 296.82,-230.81 293.88,-212.22 293.18,-198.3"/>
<polygon fill="midnightblue" stroke="midnightblue" points="296.68,-197.87 293.02,-187.92 289.68,-197.97 296.68,-197.87"/>
</g>
<!-- Node28 -->
<g id="node28" class="node">
<title>Node28</title>
<g id="a_node28"><a xlink:href="_collision_8h.html" target="_top" xlink:title=" ">
<polygon fill="none" stroke="black" points="715.5,-336.5 715.5,-355.5 777.5,-355.5 777.5,-336.5 715.5,-336.5"/>
<text text-anchor="middle" x="746.5" y="-343.5" font-family="Helvetica,sans-Serif" font-size="10.00">Collision.h</text>
</a>
</g>
</g>
<!-- Node2&#45;&gt;Node28 -->
<g id="edge31" class="edge">
<title>Node2&#45;&gt;Node28</title>
<path fill="none" stroke="midnightblue" d="M746.5,-392.08C746.5,-385.01 746.5,-374.86 746.5,-365.99"/>
<polygon fill="midnightblue" stroke="midnightblue" points="750,-365.75 746.5,-355.75 743,-365.75 750,-365.75"/>
</g>
<!-- Node4 -->
<g id="node4" class="node">
<title>Node4</title>
<g id="a_node4"><a xlink:title=" ">
<polygon fill="none" stroke="#bfbfbf" points="1149,-0.5 1149,-19.5 1198,-19.5 1198,-0.5 1149,-0.5"/>
<text text-anchor="middle" x="1173.5" y="-7.5" font-family="Helvetica,sans-Serif" font-size="10.00">string.h</text>
</a>
</g>
</g>
<!-- Node3&#45;&gt;Node4 -->
<g id="edge3" class="edge">
<title>Node3&#45;&gt;Node4</title>
<path fill="none" stroke="midnightblue" d="M759.74,-62.68C833.77,-58.07 994.2,-46.02 1138.78,-19.85"/>
<polygon fill="midnightblue" stroke="midnightblue" points="1139.51,-23.28 1148.72,-18.03 1138.25,-16.39 1139.51,-23.28"/>
</g>
<!-- Node5 -->
<g id="node5" class="node">
<title>Node5</title>
<g id="a_node5"><a xlink:title=" ">
<polygon fill="none" stroke="#bfbfbf" points="1216.5,-0.5 1216.5,-19.5 1264.5,-19.5 1264.5,-0.5 1216.5,-0.5"/>
<text text-anchor="middle" x="1240.5" y="-7.5" font-family="Helvetica,sans-Serif" font-size="10.00">raylib.h</text>
</a>
</g>
</g>
<!-- Node3&#45;&gt;Node5 -->
<g id="edge4" class="edge">
<title>Node3&#45;&gt;Node5</title>
<path fill="none" stroke="midnightblue" d="M759.72,-63.63C842.68,-60.36 1035.74,-50.12 1206.54,-19.86"/>
<polygon fill="midnightblue" stroke="midnightblue" points="1207.24,-23.29 1216.46,-18.08 1206,-16.4 1207.24,-23.29"/>
</g>
<!-- Node6 -->
<g id="node6" class="node">
<title>Node6</title>
<g id="a_node6"><a xlink:title=" ">
<polygon fill="none" stroke="#bfbfbf" points="1282.5,-0.5 1282.5,-19.5 1342.5,-19.5 1342.5,-0.5 1282.5,-0.5"/>
<text text-anchor="middle" x="1312.5" y="-7.5" font-family="Helvetica,sans-Serif" font-size="10.00">raymath.h</text>
</a>
</g>
</g>
<!-- Node3&#45;&gt;Node6 -->
<g id="edge5" class="edge">
<title>Node3&#45;&gt;Node6</title>
<path fill="none" stroke="midnightblue" d="M759.82,-63.71C850.79,-60.43 1075.3,-49.91 1272.39,-19.95"/>
<polygon fill="midnightblue" stroke="midnightblue" points="1273,-23.4 1282.35,-18.42 1271.93,-16.48 1273,-23.4"/>
</g>
<!-- Node7 -->
<g id="node7" class="node">
<title>Node7</title>
<g id="a_node7"><a xlink:title=" ">
<polygon fill="none" stroke="#bfbfbf" points="1360.5,-0.5 1360.5,-19.5 1408.5,-19.5 1408.5,-0.5 1360.5,-0.5"/>
<text text-anchor="middle" x="1384.5" y="-7.5" font-family="Helvetica,sans-Serif" font-size="10.00">stdlib.h</text>
</a>
</g>
</g>
<!-- Node3&#45;&gt;Node7 -->
<g id="edge6" class="edge">
<title>Node3&#45;&gt;Node7</title>
<path fill="none" stroke="midnightblue" d="M759.68,-63.13C877.99,-57.58 1218.32,-40.44 1350.22,-19.82"/>
<polygon fill="midnightblue" stroke="midnightblue" points="1351.17,-23.21 1360.47,-18.14 1350.04,-16.3 1351.17,-23.21"/>
</g>
<!-- Node8 -->
<g id="node8" class="node">
<title>Node8</title>
<g id="a_node8"><a xlink:title=" ">
<polygon fill="none" stroke="#bfbfbf" points="1427,-0.5 1427,-19.5 1472,-19.5 1472,-0.5 1427,-0.5"/>
<text text-anchor="middle" x="1449.5" y="-7.5" font-family="Helvetica,sans-Serif" font-size="10.00">cstdlib</text>
</a>
</g>
</g>
<!-- Node3&#45;&gt;Node8 -->
<g id="edge7" class="edge">
<title>Node3&#45;&gt;Node8</title>
<path fill="none" stroke="midnightblue" d="M759.78,-63.48C886.73,-58.64 1271.09,-42.61 1416.83,-19.65"/>
<polygon fill="midnightblue" stroke="midnightblue" points="1417.61,-23.07 1426.91,-17.99 1416.47,-16.16 1417.61,-23.07"/>
</g>
<!-- Node9 -->
<g id="node9" class="node">
<title>Node9</title>
<g id="a_node9"><a xlink:title=" ">
<polygon fill="none" stroke="#bfbfbf" points="119.5,-0.5 119.5,-19.5 165.5,-19.5 165.5,-0.5 119.5,-0.5"/>
<text text-anchor="middle" x="142.5" y="-7.5" font-family="Helvetica,sans-Serif" font-size="10.00">stdio.h</text>
</a>
</g>
</g>
<!-- Node3&#45;&gt;Node9 -->
<g id="edge8" class="edge">
<title>Node3&#45;&gt;Node9</title>
<path fill="none" stroke="midnightblue" d="M677.21,-64.28C587.43,-62.13 367.77,-53.75 175.79,-19.9"/>
<polygon fill="midnightblue" stroke="midnightblue" points="176.26,-16.43 165.8,-18.11 175.02,-23.32 176.26,-16.43"/>
</g>
<!-- Node10 -->
<g id="node10" class="node">
<title>Node10</title>
<g id="a_node10"><a xlink:title=" ">
<polygon fill="none" stroke="#bfbfbf" points="1490.5,-0.5 1490.5,-19.5 1540.5,-19.5 1540.5,-0.5 1490.5,-0.5"/>
<text text-anchor="middle" x="1515.5" y="-7.5" font-family="Helvetica,sans-Serif" font-size="10.00">config.h</text>
</a>
</g>
</g>
<!-- Node3&#45;&gt;Node10 -->
<g id="edge9" class="edge">
<title>Node3&#45;&gt;Node10</title>
<path fill="none" stroke="midnightblue" d="M759.62,-63.66C894.23,-59.11 1321.58,-43.29 1480.31,-19.81"/>
<polygon fill="midnightblue" stroke="midnightblue" points="1481.02,-23.24 1490.37,-18.25 1479.95,-16.32 1481.02,-23.24"/>
</g>
<!-- Node11 -->
<g id="node11" class="node">
<title>Node11</title>
<g id="a_node11"><a xlink:title=" ">
<polygon fill="none" stroke="#bfbfbf" points="184,-0.5 184,-19.5 243,-19.5 243,-0.5 184,-0.5"/>
<text text-anchor="middle" x="213.5" y="-7.5" font-family="Helvetica,sans-Serif" font-size="10.00">process.h</text>
</a>
</g>
</g>
<!-- Node3&#45;&gt;Node11 -->
<g id="edge10" class="edge">
<title>Node3&#45;&gt;Node11</title>
<path fill="none" stroke="midnightblue" d="M677.34,-62.93C597.36,-58.49 415.26,-46.39 253.43,-20.13"/>
<polygon fill="midnightblue" stroke="midnightblue" points="253.73,-16.63 243.29,-18.46 252.59,-23.54 253.73,-16.63"/>
</g>
<!-- Node12 -->
<g id="node12" class="node">
<title>Node12</title>
<g id="a_node12"><a xlink:title=" ">
<polygon fill="none" stroke="#bfbfbf" points="261,-0.5 261,-19.5 302,-19.5 302,-0.5 261,-0.5"/>
<text text-anchor="middle" x="281.5" y="-7.5" font-family="Helvetica,sans-Serif" font-size="10.00">string</text>
</a>
</g>
</g>
<!-- Node3&#45;&gt;Node12 -->
<g id="edge11" class="edge">
<title>Node3&#45;&gt;Node12</title>
<path fill="none" stroke="midnightblue" d="M677.39,-62.92C605.25,-58.75 451.13,-47.45 312.02,-19.72"/>
<polygon fill="midnightblue" stroke="midnightblue" points="312.53,-16.25 302.03,-17.69 311.14,-23.11 312.53,-16.25"/>
</g>
<!-- Node13 -->
<g id="node13" class="node">
<title>Node13</title>
<g id="a_node13"><a xlink:title=" ">
<polygon fill="none" stroke="#bfbfbf" points="320.5,-0.5 320.5,-19.5 358.5,-19.5 358.5,-0.5 320.5,-0.5"/>
<text text-anchor="middle" x="339.5" y="-7.5" font-family="Helvetica,sans-Serif" font-size="10.00">array</text>
</a>
</g>
</g>
<!-- Node3&#45;&gt;Node13 -->
<g id="edge12" class="edge">
<title>Node3&#45;&gt;Node13</title>
<path fill="none" stroke="midnightblue" d="M677.28,-62.18C613.06,-57.25 485.22,-45.3 368.47,-19.85"/>
<polygon fill="midnightblue" stroke="midnightblue" points="369.17,-16.42 358.65,-17.67 367.66,-23.25 369.17,-16.42"/>
</g>
<!-- Node14 -->
<g id="node14" class="node">
<title>Node14</title>
<g id="a_node14"><a xlink:title=" ">
<polygon fill="none" stroke="#bfbfbf" points="376.5,-0.5 376.5,-19.5 418.5,-19.5 418.5,-0.5 376.5,-0.5"/>
<text text-anchor="middle" x="397.5" y="-7.5" font-family="Helvetica,sans-Serif" font-size="10.00">vector</text>
</a>
</g>
</g>
<!-- Node3&#45;&gt;Node14 -->
<g id="edge13" class="edge">
<title>Node3&#45;&gt;Node14</title>
<path fill="none" stroke="midnightblue" d="M677.2,-60.44C622.42,-53.98 522.63,-40.84 428.66,-20"/>
<polygon fill="midnightblue" stroke="midnightblue" points="429.23,-16.54 418.71,-17.76 427.7,-23.37 429.23,-16.54"/>
</g>
<!-- Node15 -->
<g id="node15" class="node">
<title>Node15</title>
<g id="a_node15"><a xlink:title=" ">
<polygon fill="none" stroke="#bfbfbf" points="436.5,-0.5 436.5,-19.5 480.5,-19.5 480.5,-0.5 436.5,-0.5"/>
<text text-anchor="middle" x="458.5" y="-7.5" font-family="Helvetica,sans-Serif" font-size="10.00">cmath</text>
</a>
</g>
</g>
<!-- Node3&#45;&gt;Node15 -->
<g id="edge14" class="edge">
<title>Node3&#45;&gt;Node15</title>
<path fill="none" stroke="midnightblue" d="M677.31,-58.04C633.35,-50.36 561.48,-37.09 490.76,-20.14"/>
<polygon fill="midnightblue" stroke="midnightblue" points="491.33,-16.68 480.79,-17.73 489.68,-23.48 491.33,-16.68"/>
</g>
<!-- Node16 -->
<g id="node16" class="node">
<title>Node16</title>
<g id="a_node16"><a xlink:title=" ">
<polygon fill="none" stroke="#bfbfbf" points="498.5,-0.5 498.5,-19.5 550.5,-19.5 550.5,-0.5 498.5,-0.5"/>
<text text-anchor="middle" x="524.5" y="-7.5" font-family="Helvetica,sans-Serif" font-size="10.00">memory</text>
</a>
</g>
</g>
<!-- Node3&#45;&gt;Node16 -->
<g id="edge15" class="edge">
<title>Node3&#45;&gt;Node16</title>
<path fill="none" stroke="midnightblue" d="M687.76,-56.44C653.19,-46.82 597.11,-31.21 560.51,-21.02"/>
<polygon fill="midnightblue" stroke="midnightblue" points="561.31,-17.61 550.74,-18.3 559.44,-24.36 561.31,-17.61"/>
</g>
<!-- Node17 -->
<g id="node17" class="node">
<title>Node17</title>
<g id="a_node17"><a xlink:title=" ">
<polygon fill="none" stroke="#bfbfbf" points="569,-0.5 569,-19.5 610,-19.5 610,-0.5 569,-0.5"/>
<text text-anchor="middle" x="589.5" y="-7.5" font-family="Helvetica,sans-Serif" font-size="10.00">ctime</text>
</a>
</g>
</g>
<!-- Node3&#45;&gt;Node17 -->
<g id="edge16" class="edge">
<title>Node3&#45;&gt;Node17</title>
<path fill="none" stroke="midnightblue" d="M698.06,-56.44C676.83,-47.56 643.4,-33.56 619.25,-23.45"/>
<polygon fill="midnightblue" stroke="midnightblue" points="620.42,-20.15 609.84,-19.52 617.72,-26.61 620.42,-20.15"/>
</g>
<!-- Node18 -->
<g id="node18" class="node">
<title>Node18</title>
<g id="a_node18"><a xlink:title=" ">
<polygon fill="none" stroke="#bfbfbf" points="628.5,-0.5 628.5,-19.5 674.5,-19.5 674.5,-0.5 628.5,-0.5"/>
<text text-anchor="middle" x="651.5" y="-7.5" font-family="Helvetica,sans-Serif" font-size="10.00">chrono</text>
</a>
</g>
</g>
<!-- Node3&#45;&gt;Node18 -->
<g id="edge17" class="edge">
<title>Node3&#45;&gt;Node18</title>
<path fill="none" stroke="midnightblue" d="M707.74,-56.32C697.73,-48.26 682.61,-36.08 670.57,-26.37"/>
<polygon fill="midnightblue" stroke="midnightblue" points="672.44,-23.38 662.46,-19.83 668.05,-28.83 672.44,-23.38"/>
</g>
<!-- Node19 -->
<g id="node19" class="node">
<title>Node19</title>
<g id="a_node19"><a xlink:title=" ">
<polygon fill="none" stroke="#bfbfbf" points="692.5,-0.5 692.5,-19.5 744.5,-19.5 744.5,-0.5 692.5,-0.5"/>
<text text-anchor="middle" x="718.5" y="-7.5" font-family="Helvetica,sans-Serif" font-size="10.00">sstream</text>
</a>
</g>
</g>
<!-- Node3&#45;&gt;Node19 -->
<g id="edge18" class="edge">
<title>Node3&#45;&gt;Node19</title>
<path fill="none" stroke="midnightblue" d="M718.5,-56.08C718.5,-49.01 718.5,-38.86 718.5,-29.99"/>
<polygon fill="midnightblue" stroke="midnightblue" points="722,-29.75 718.5,-19.75 715,-29.75 722,-29.75"/>
</g>
<!-- Node20 -->
<g id="node20" class="node">
<title>Node20</title>
<g id="a_node20"><a xlink:title=" ">
<polygon fill="none" stroke="#bfbfbf" points="763,-0.5 763,-19.5 812,-19.5 812,-0.5 763,-0.5"/>
<text text-anchor="middle" x="787.5" y="-7.5" font-family="Helvetica,sans-Serif" font-size="10.00">fstream</text>
</a>
</g>
</g>
<!-- Node3&#45;&gt;Node20 -->
<g id="edge19" class="edge">
<title>Node3&#45;&gt;Node20</title>
<path fill="none" stroke="midnightblue" d="M729.59,-56.32C739.99,-48.18 755.76,-35.84 768.22,-26.09"/>
<polygon fill="midnightblue" stroke="midnightblue" points="770.49,-28.75 776.21,-19.83 766.18,-23.24 770.49,-28.75"/>
</g>
<!-- Node21 -->
<g id="node21" class="node">
<title>Node21</title>
<g id="a_node21"><a xlink:title=" ">
<polygon fill="none" stroke="#bfbfbf" points="830.5,-0.5 830.5,-19.5 884.5,-19.5 884.5,-0.5 830.5,-0.5"/>
<text text-anchor="middle" x="857.5" y="-7.5" font-family="Helvetica,sans-Serif" font-size="10.00">iostream</text>
</a>
</g>
</g>
<!-- Node3&#45;&gt;Node21 -->
<g id="edge20" class="edge">
<title>Node3&#45;&gt;Node21</title>
<path fill="none" stroke="midnightblue" d="M740.52,-56.44C763.6,-47.48 800.06,-33.31 826.14,-23.18"/>
<polygon fill="midnightblue" stroke="midnightblue" points="827.52,-26.4 835.58,-19.52 824.99,-19.88 827.52,-26.4"/>
</g>
<!-- Node22 -->
<g id="node22" class="node">
<title>Node22</title>
<g id="a_node22"><a xlink:title=" ">
<polygon fill="none" stroke="#bfbfbf" points="902.5,-0.5 902.5,-19.5 952.5,-19.5 952.5,-0.5 902.5,-0.5"/>
<text text-anchor="middle" x="927.5" y="-7.5" font-family="Helvetica,sans-Serif" font-size="10.00">iomanip</text>
</a>
</g>
</g>
<!-- Node3&#45;&gt;Node22 -->
<g id="edge21" class="edge">
<title>Node3&#45;&gt;Node22</title>
<path fill="none" stroke="midnightblue" d="M752.07,-56.44C785.31,-47.95 837.94,-34.47 892.42,-20.27"/>
<polygon fill="midnightblue" stroke="midnightblue" points="893.46,-23.61 902.25,-17.7 891.69,-16.84 893.46,-23.61"/>
</g>
<!-- Node23 -->
<g id="node23" class="node">
<title>Node23</title>
<g id="a_node23"><a xlink:title=" ">
<polygon fill="none" stroke="#bfbfbf" points="970.5,-0.5 970.5,-19.5 1014.5,-19.5 1014.5,-0.5 970.5,-0.5"/>
<text text-anchor="middle" x="992.5" y="-7.5" font-family="Helvetica,sans-Serif" font-size="10.00">thread</text>
</a>
</g>
</g>
<!-- Node3&#45;&gt;Node23 -->
<g id="edge22" class="edge">
<title>Node3&#45;&gt;Node23</title>
<path fill="none" stroke="midnightblue" d="M759.61,-58.67C806.15,-51.22 884.4,-37.84 960.47,-20.06"/>
<polygon fill="midnightblue" stroke="midnightblue" points="961.29,-23.46 970.22,-17.76 959.68,-16.65 961.29,-23.46"/>
</g>
<!-- Node24 -->
<g id="node24" class="node">
<title>Node24</title>
<g id="a_node24"><a xlink:title=" ">
<polygon fill="none" stroke="#bfbfbf" points="1032.5,-0.5 1032.5,-19.5 1130.5,-19.5 1130.5,-0.5 1032.5,-0.5"/>
<text text-anchor="middle" x="1081.5" y="-7.5" font-family="Helvetica,sans-Serif" font-size="10.00">nlohmann/json.hpp</text>
</a>
</g>
</g>
<!-- Node3&#45;&gt;Node24 -->
<g id="edge23" class="edge">
<title>Node3&#45;&gt;Node24</title>
<path fill="none" stroke="midnightblue" d="M759.95,-58.98C816.75,-50.72 922.22,-35.29 1022.46,-20.15"/>
<polygon fill="midnightblue" stroke="midnightblue" points="1023.09,-23.59 1032.46,-18.64 1022.05,-16.67 1023.09,-23.59"/>
</g>
<!-- Node25 -->
<g id="node25" class="node">
<title>Node25</title>
<g id="a_node25"><a xlink:href="_game_audio_8h.html" target="_top" xlink:title=" ">
<polygon fill="none" stroke="black" points="0,-0.5 0,-19.5 101,-19.5 101,-0.5 0,-0.5"/>
<text text-anchor="middle" x="50.5" y="-7.5" font-family="Helvetica,sans-Serif" font-size="10.00">Level/GameAudio.h</text>
</a>
</g>
</g>
<!-- Node3&#45;&gt;Node25 -->
<g id="edge24" class="edge">
<title>Node3&#45;&gt;Node25</title>
<path fill="none" stroke="midnightblue" d="M677.38,-63.24C579.44,-58.57 325.25,-44.58 107.39,-20.63"/>
<polygon fill="midnightblue" stroke="midnightblue" points="107.7,-17.15 97.37,-19.52 106.93,-24.1 107.7,-17.15"/>
</g>
<!-- Node25&#45;&gt;Node3 -->
<g id="edge25" class="edge">
<title>Node25&#45;&gt;Node3</title>
<path fill="none" stroke="midnightblue" d="M101.31,-17.7C107.47,-18.54 113.64,-19.34 119.5,-20 321.87,-42.64 563.47,-56.66 667.21,-62.24"/>
<polygon fill="midnightblue" stroke="midnightblue" points="667.23,-65.74 677.4,-62.78 667.6,-58.75 667.23,-65.74"/>
</g>
<!-- Node26&#45;&gt;Node3 -->
<g id="edge30" class="edge">
<title>Node26&#45;&gt;Node3</title>
<path fill="none" stroke="midnightblue" d="M300.78,-168.49C313.62,-154.11 341.86,-125.28 372.5,-112 424.27,-89.57 583.9,-75.95 667.01,-70.2"/>
<polygon fill="midnightblue" stroke="midnightblue" points="667.5,-73.68 677.24,-69.51 667.03,-66.69 667.5,-73.68"/>
</g>
<!-- Node26&#45;&gt;Node25 -->
<g id="edge29" class="edge">
<title>Node26&#45;&gt;Node25</title>
<path fill="none" stroke="midnightblue" d="M280.78,-168.31C241.25,-141.3 120.28,-58.67 71.36,-25.25"/>
<polygon fill="midnightblue" stroke="midnightblue" points="73.33,-22.36 63.1,-19.61 69.38,-28.14 73.33,-22.36"/>
</g>
<!-- Node27 -->
<g id="node27" class="node">
<title>Node27</title>
<g id="a_node27"><a xlink:href="_sprite_8h.html" target="_top" xlink:title=" ">
<polygon fill="none" stroke="black" points="381.5,-112.5 381.5,-131.5 469.5,-131.5 469.5,-112.5 381.5,-112.5"/>
<text text-anchor="middle" x="425.5" y="-119.5" font-family="Helvetica,sans-Serif" font-size="10.00">../Sprite/Sprite.h</text>
</a>
</g>
</g>
<!-- Node26&#45;&gt;Node27 -->
<g id="edge27" class="edge">
<title>Node26&#45;&gt;Node27</title>
<path fill="none" stroke="midnightblue" d="M314.42,-168.44C336.24,-159.52 370.65,-145.44 395.39,-135.32"/>
<polygon fill="midnightblue" stroke="midnightblue" points="396.75,-138.54 404.68,-131.52 394.1,-132.06 396.75,-138.54"/>
</g>
<!-- Node27&#45;&gt;Node3 -->
<g id="edge28" class="edge">
<title>Node27&#45;&gt;Node3</title>
<path fill="none" stroke="midnightblue" d="M469.68,-112.86C522.66,-103.09 611.29,-86.76 667.23,-76.45"/>
<polygon fill="midnightblue" stroke="midnightblue" points="668.08,-79.85 677.28,-74.6 666.81,-72.97 668.08,-79.85"/>
</g>
<!-- Node28&#45;&gt;Node3 -->
<g id="edge32" class="edge">
<title>Node28&#45;&gt;Node3</title>
<path fill="none" stroke="midnightblue" d="M777.68,-340.16C853.35,-327.52 1040.5,-290.66 1040.5,-235 1040.5,-235 1040.5,-235 1040.5,-177 1040.5,-132.55 1004.63,-131.1 964.5,-112 901.78,-82.15 821.38,-72.03 769.89,-68.64"/>
<polygon fill="midnightblue" stroke="midnightblue" points="769.87,-65.14 759.68,-68.04 769.45,-72.12 769.87,-65.14"/>
</g>
<!-- Node28&#45;&gt;Node26 -->
<g id="edge58" class="edge">
<title>Node28&#45;&gt;Node26</title>
<path fill="none" stroke="midnightblue" d="M715.34,-341C628.63,-329.33 386.85,-293.05 325.5,-244 310.94,-232.36 302.51,-212.41 298,-197.67"/>
<polygon fill="midnightblue" stroke="midnightblue" points="301.27,-196.38 295.27,-187.65 294.52,-198.21 301.27,-196.38"/>
</g>
<!-- Node29 -->
<g id="node29" class="node">
<title>Node29</title>
<g id="a_node29"><a xlink:href="_level_8h.html" target="_top" xlink:title=" ">
<polygon fill="none" stroke="black" points="706.5,-280.5 706.5,-299.5 786.5,-299.5 786.5,-280.5 706.5,-280.5"/>
<text text-anchor="middle" x="746.5" y="-287.5" font-family="Helvetica,sans-Serif" font-size="10.00">../Level/Level.h</text>
</a>
</g>
</g>
<!-- Node28&#45;&gt;Node29 -->
<g id="edge33" class="edge">
<title>Node28&#45;&gt;Node29</title>
<path fill="none" stroke="midnightblue" d="M746.5,-336.08C746.5,-329.01 746.5,-318.86 746.5,-309.99"/>
<polygon fill="midnightblue" stroke="midnightblue" points="750,-309.75 746.5,-299.75 743,-309.75 750,-309.75"/>
</g>
<!-- Node29&#45;&gt;Node3 -->
<g id="edge50" class="edge">
<title>Node29&#45;&gt;Node3</title>
<path fill="none" stroke="midnightblue" d="M786.8,-287.69C822.34,-284.43 873.35,-274.3 905.5,-244 950.02,-202.04 983.3,-159.29 944.5,-112 922.85,-85.61 829.66,-74.41 769.91,-69.87"/>
<polygon fill="midnightblue" stroke="midnightblue" points="770.13,-66.38 759.9,-69.15 769.62,-73.36 770.13,-66.38"/>
</g>
<!-- Node29&#45;&gt;Node10 -->
<g id="edge57" class="edge">
<title>Node29&#45;&gt;Node10</title>
<path fill="none" stroke="midnightblue" d="M786.78,-289.22C858.87,-287.27 1002.5,-271.76 1002.5,-179 1002.5,-179 1002.5,-179 1002.5,-121 1002.5,-15.19 1355.53,-43.45 1480.32,-19.94"/>
<polygon fill="midnightblue" stroke="midnightblue" points="1481.23,-23.32 1490.29,-17.83 1479.78,-16.47 1481.23,-23.32"/>
</g>
<!-- Node29&#45;&gt;Node26 -->
<g id="edge51" class="edge">
<title>Node29&#45;&gt;Node26</title>
<path fill="none" stroke="midnightblue" d="M706.24,-287.86C619,-284.85 415.48,-274.65 354.5,-244 332.97,-233.18 315.07,-211.48 304.34,-196.14"/>
<polygon fill="midnightblue" stroke="midnightblue" points="307.08,-193.94 298.62,-187.56 301.26,-197.82 307.08,-193.94"/>
</g>
<!-- Node29&#45;&gt;Node27 -->
<g id="edge54" class="edge">
<title>Node29&#45;&gt;Node27</title>
<path fill="none" stroke="midnightblue" d="M706.47,-286.92C617.27,-281.87 408.36,-267.64 387.5,-244 360.91,-213.87 391.54,-165.21 411.32,-139.75"/>
<polygon fill="midnightblue" stroke="midnightblue" points="414.2,-141.76 417.75,-131.78 408.75,-137.36 414.2,-141.76"/>
</g>
<!-- Node30 -->
<g id="node30" class="node">
<title>Node30</title>
<g id="a_node30"><a xlink:href="_combat_2_mumy_8h.html" target="_top" xlink:title=" ">
<polygon fill="none" stroke="black" points="636.5,-224.5 636.5,-243.5 734.5,-243.5 734.5,-224.5 636.5,-224.5"/>
<text text-anchor="middle" x="685.5" y="-231.5" font-family="Helvetica,sans-Serif" font-size="10.00">../Combat/Mumy.h</text>
</a>
</g>
</g>
<!-- Node29&#45;&gt;Node30 -->
<g id="edge34" class="edge">
<title>Node29&#45;&gt;Node30</title>
<path fill="none" stroke="midnightblue" d="M736.7,-280.32C727.68,-272.34 714.09,-260.31 703.18,-250.65"/>
<polygon fill="midnightblue" stroke="midnightblue" points="705.29,-247.84 695.48,-243.83 700.65,-253.08 705.29,-247.84"/>
</g>
<!-- Node33 -->
<g id="node33" class="node">
<title>Node33</title>
<g id="a_node33"><a xlink:href="_player_8h.html" target="_top" xlink:title=" ">
<polygon fill="none" stroke="black" points="396.5,-224.5 396.5,-243.5 494.5,-243.5 494.5,-224.5 396.5,-224.5"/>
<text text-anchor="middle" x="445.5" y="-231.5" font-family="Helvetica,sans-Serif" font-size="10.00">../Combat/Player.h</text>
</a>
</g>
</g>
<!-- Node29&#45;&gt;Node33 -->
<g id="edge40" class="edge">
<title>Node29&#45;&gt;Node33</title>
<path fill="none" stroke="midnightblue" d="M706.22,-281.77C653.97,-272.4 562.5,-255.99 502.97,-245.31"/>
<polygon fill="midnightblue" stroke="midnightblue" points="503.44,-241.84 492.98,-243.52 502.2,-248.73 503.44,-241.84"/>
</g>
<!-- Node34 -->
<g id="node34" class="node">
<title>Node34</title>
<g id="a_node34"><a xlink:href="_combat_2_shadow_8h.html" target="_top" xlink:title=" ">
<polygon fill="none" stroke="black" points="513,-224.5 513,-243.5 618,-243.5 618,-224.5 513,-224.5"/>
<text text-anchor="middle" x="565.5" y="-231.5" font-family="Helvetica,sans-Serif" font-size="10.00">../Combat/Shadow.h</text>
</a>
</g>
</g>
<!-- Node29&#45;&gt;Node34 -->
<g id="edge44" class="edge">
<title>Node29&#45;&gt;Node34</title>
<path fill="none" stroke="midnightblue" d="M717.82,-280.44C686.97,-271.24 637.77,-256.56 603.67,-246.39"/>
<polygon fill="midnightblue" stroke="midnightblue" points="604.63,-243.02 594.05,-243.52 602.63,-249.73 604.63,-243.02"/>
</g>
<!-- Node35 -->
<g id="node35" class="node">
<title>Node35</title>
<g id="a_node35"><a xlink:href="_combat_2_pharaoh_8h.html" target="_top" xlink:title=" ">
<polygon fill="none" stroke="black" points="753,-224.5 753,-243.5 860,-243.5 860,-224.5 753,-224.5"/>
<text text-anchor="middle" x="806.5" y="-231.5" font-family="Helvetica,sans-Serif" font-size="10.00">../Combat/Pharaoh.h</text>
</a>
</g>
</g>
<!-- Node29&#45;&gt;Node35 -->
<g id="edge47" class="edge">
<title>Node29&#45;&gt;Node35</title>
<path fill="none" stroke="midnightblue" d="M756.14,-280.32C765.01,-272.34 778.37,-260.31 789.11,-250.65"/>
<polygon fill="midnightblue" stroke="midnightblue" points="791.59,-253.13 796.68,-243.83 786.91,-247.92 791.59,-253.13"/>
</g>
<!-- Node36 -->
<g id="node36" class="node">
<title>Node36</title>
<g id="a_node36"><a xlink:href="_u_i_8h.html" target="_top" xlink:title=" ">
<polygon fill="none" stroke="black" points="778.5,-112.5 778.5,-131.5 812.5,-131.5 812.5,-112.5 778.5,-112.5"/>
<text text-anchor="middle" x="795.5" y="-119.5" font-family="Helvetica,sans-Serif" font-size="10.00">UI.h</text>
</a>
</g>
</g>
<!-- Node29&#45;&gt;Node36 -->
<g id="edge52" class="edge">
<title>Node29&#45;&gt;Node36</title>
<path fill="none" stroke="midnightblue" d="M786.63,-285.82C814.64,-281.27 850.17,-270.3 868.5,-244 894.16,-207.18 845.87,-161.19 816.21,-137.94"/>
<polygon fill="midnightblue" stroke="midnightblue" points="818.15,-135.02 808.07,-131.75 813.91,-140.59 818.15,-135.02"/>
</g>
<!-- Node37 -->
<g id="node37" class="node">
<title>Node37</title>
<g id="a_node37"><a xlink:href="_endscreen_8h.html" target="_top" xlink:title=" ">
<polygon fill="none" stroke="black" points="831,-112.5 831,-131.5 936,-131.5 936,-112.5 831,-112.5"/>
<text text-anchor="middle" x="883.5" y="-119.5" font-family="Helvetica,sans-Serif" font-size="10.00">../Level/Endscreen.h</text>
</a>
</g>
</g>
<!-- Node29&#45;&gt;Node37 -->
<g id="edge55" class="edge">
<title>Node29&#45;&gt;Node37</title>
<path fill="none" stroke="midnightblue" d="M786.7,-288.19C819.46,-285.14 863.87,-275.05 886.5,-244 908.6,-213.69 898.42,-166.82 890.23,-141.22"/>
<polygon fill="midnightblue" stroke="midnightblue" points="893.51,-139.98 886.95,-131.66 886.89,-142.26 893.51,-139.98"/>
</g>
<!-- Node30&#45;&gt;Node3 -->
<g id="edge35" class="edge">
<title>Node30&#45;&gt;Node3</title>
<path fill="none" stroke="midnightblue" d="M687.27,-224.08C692.47,-197.95 707.72,-121.21 714.81,-85.58"/>
<polygon fill="midnightblue" stroke="midnightblue" points="718.28,-86.06 716.8,-75.57 711.41,-84.69 718.28,-86.06"/>
</g>
<!-- Node31 -->
<g id="node31" class="node">
<title>Node31</title>
<g id="a_node31"><a xlink:title=" ">
<polygon fill="none" stroke="#bfbfbf" points="713.5,-168.5 713.5,-187.5 759.5,-187.5 759.5,-168.5 713.5,-168.5"/>
<text text-anchor="middle" x="736.5" y="-175.5" font-family="Helvetica,sans-Serif" font-size="10.00">cstring</text>
</a>
</g>
</g>
<!-- Node30&#45;&gt;Node31 -->
<g id="edge36" class="edge">
<title>Node30&#45;&gt;Node31</title>
<path fill="none" stroke="midnightblue" d="M693.92,-224.08C701.35,-216.22 712.35,-204.57 721.31,-195.08"/>
<polygon fill="midnightblue" stroke="midnightblue" points="723.91,-197.42 728.24,-187.75 718.82,-192.62 723.91,-197.42"/>
</g>
<!-- Node32 -->
<g id="node32" class="node">
<title>Node32</title>
<g id="a_node32"><a xlink:href="_game_character_8h.html" target="_top" xlink:title=" ">
<polygon fill="none" stroke="black" points="564,-168.5 564,-187.5 657,-187.5 657,-168.5 564,-168.5"/>
<text text-anchor="middle" x="610.5" y="-175.5" font-family="Helvetica,sans-Serif" font-size="10.00">GameCharacter.h</text>
</a>
</g>
</g>
<!-- Node30&#45;&gt;Node32 -->
<g id="edge37" class="edge">
<title>Node30&#45;&gt;Node32</title>
<path fill="none" stroke="midnightblue" d="M673.45,-224.32C662.04,-216.11 644.67,-203.6 631.07,-193.81"/>
<polygon fill="midnightblue" stroke="midnightblue" points="632.93,-190.84 622.77,-187.83 628.84,-196.52 632.93,-190.84"/>
</g>
<!-- Node32&#45;&gt;Node3 -->
<g id="edge38" class="edge">
<title>Node32&#45;&gt;Node3</title>
<path fill="none" stroke="midnightblue" d="M618.25,-168.45C629.71,-155.89 651.9,-131.8 671.5,-112 681.34,-102.07 692.64,-91.22 701.7,-82.67"/>
<polygon fill="midnightblue" stroke="midnightblue" points="704.1,-85.22 708.99,-75.82 699.31,-80.11 704.1,-85.22"/>
</g>
<!-- Node32&#45;&gt;Node27 -->
<g id="edge39" class="edge">
<title>Node32&#45;&gt;Node27</title>
<path fill="none" stroke="midnightblue" d="M581.19,-168.44C549.66,-159.24 499.37,-144.56 464.51,-134.39"/>
<polygon fill="midnightblue" stroke="midnightblue" points="465.26,-130.96 454.68,-131.52 463.3,-137.68 465.26,-130.96"/>
</g>
<!-- Node33&#45;&gt;Node3 -->
<g id="edge41" class="edge">
<title>Node33&#45;&gt;Node3</title>
<path fill="none" stroke="midnightblue" d="M452.86,-224.35C471.92,-202.47 525.35,-144.32 581.5,-112 608.53,-96.44 641.7,-85.37 668.63,-78.1"/>
<polygon fill="midnightblue" stroke="midnightblue" points="669.82,-81.41 678.62,-75.5 668.06,-74.63 669.82,-81.41"/>
</g>
<!-- Node33&#45;&gt;Node27 -->
<g id="edge43" class="edge">
<title>Node33&#45;&gt;Node27</title>
<path fill="none" stroke="midnightblue" d="M443.93,-224.37C440.7,-206.62 433.26,-165.67 428.88,-141.6"/>
<polygon fill="midnightblue" stroke="midnightblue" points="432.29,-140.8 427.06,-131.59 425.41,-142.06 432.29,-140.8"/>
</g>
<!-- Node33&#45;&gt;Node32 -->
<g id="edge42" class="edge">
<title>Node33&#45;&gt;Node32</title>
<path fill="none" stroke="midnightblue" d="M471.64,-224.44C499.52,-215.32 543.85,-200.81 574.9,-190.65"/>
<polygon fill="midnightblue" stroke="midnightblue" points="576.06,-193.95 584.48,-187.52 573.88,-187.3 576.06,-193.95"/>
</g>
<!-- Node34&#45;&gt;Node3 -->
<g id="edge45" class="edge">
<title>Node34&#45;&gt;Node3</title>
<path fill="none" stroke="midnightblue" d="M560.73,-224.4C554.19,-211.37 544.34,-186.19 554.5,-168 580.81,-120.9 639.09,-93.06 678.6,-78.9"/>
<polygon fill="midnightblue" stroke="midnightblue" points="679.89,-82.16 688.2,-75.59 677.61,-75.54 679.89,-82.16"/>
</g>
<!-- Node34&#45;&gt;Node32 -->
<g id="edge46" class="edge">
<title>Node34&#45;&gt;Node32</title>
<path fill="none" stroke="midnightblue" d="M572.93,-224.08C579.35,-216.38 588.81,-205.03 596.62,-195.65"/>
<polygon fill="midnightblue" stroke="midnightblue" points="599.49,-197.67 603.21,-187.75 594.12,-193.19 599.49,-197.67"/>
</g>
<!-- Node35&#45;&gt;Node3 -->
<g id="edge48" class="edge">
<title>Node35&#45;&gt;Node3</title>
<path fill="none" stroke="midnightblue" d="M801.77,-224.08C787.8,-197.72 746.53,-119.88 727.86,-84.66"/>
<polygon fill="midnightblue" stroke="midnightblue" points="730.82,-82.76 723.04,-75.57 724.63,-86.04 730.82,-82.76"/>
</g>
<!-- Node35&#45;&gt;Node32 -->
<g id="edge49" class="edge">
<title>Node35&#45;&gt;Node32</title>
<path fill="none" stroke="midnightblue" d="M775.44,-224.44C741.9,-215.2 688.3,-200.44 651.36,-190.26"/>
<polygon fill="midnightblue" stroke="midnightblue" points="651.98,-186.8 641.41,-187.52 650.12,-193.55 651.98,-186.8"/>
</g>
<!-- Node36&#45;&gt;Node3 -->
<g id="edge53" class="edge">
<title>Node36&#45;&gt;Node3</title>
<path fill="none" stroke="midnightblue" d="M783.13,-112.32C771.34,-104.06 753.37,-91.45 739.36,-81.63"/>
<polygon fill="midnightblue" stroke="midnightblue" points="741.04,-78.53 730.84,-75.65 737.02,-84.26 741.04,-78.53"/>
</g>
<!-- Node37&#45;&gt;Node3 -->
<g id="edge56" class="edge">
<title>Node37&#45;&gt;Node3</title>
<path fill="none" stroke="midnightblue" d="M857.36,-112.44C829.48,-103.32 785.15,-88.81 754.1,-78.65"/>
<polygon fill="midnightblue" stroke="midnightblue" points="755.12,-75.3 744.52,-75.52 752.94,-81.95 755.12,-75.3"/>
</g>
</g>
</svg>
