<?xml version="1.0" encoding="UTF-8" standalone="no"?>
<!DOCTYPE svg PUBLIC "-//W3C//DTD SVG 1.1//EN"
 "http://www.w3.org/Graphics/SVG/1.1/DTD/svg11.dtd">
<!-- Generated by graphviz version 3.0.0 (20220226.1711)
 -->
<!-- Title: Sprite.h Pages: 1 -->
<svg width="674pt" height="364pt"
 viewBox="0.00 0.00 673.50 364.00" xmlns="http://www.w3.org/2000/svg" xmlns:xlink="http://www.w3.org/1999/xlink">
<g id="graph0" class="graph" transform="scale(1 1) rotate(0) translate(4 360)">
<title>Sprite.h</title>
<!-- Node1 -->
<g id="node1" class="node">
<title>Node1</title>
<g id="a_node1"><a xlink:title=" ">
<polygon fill="#bfbfbf" stroke="black" points="448,-336.5 448,-355.5 498,-355.5 498,-336.5 448,-336.5"/>
<text text-anchor="middle" x="473" y="-343.5" font-family="Helvetica,sans-Serif" font-size="10.00">Sprite.h</text>
</a>
</g>
</g>
<!-- Node2 -->
<g id="node2" class="node">
<title>Node2</title>
<g id="a_node2"><a xlink:href="_game_character_8h.html" target="_top" xlink:title=" ">
<polygon fill="none" stroke="black" points="200.5,-280.5 200.5,-299.5 293.5,-299.5 293.5,-280.5 200.5,-280.5"/>
<text text-anchor="middle" x="247" y="-287.5" font-family="Helvetica,sans-Serif" font-size="10.00">GameCharacter.h</text>
</a>
</g>
</g>
<!-- Node1&#45;&gt;Node2 -->
<g id="edge1" class="edge">
<title>Node1&#45;&gt;Node2</title>
<path fill="none" stroke="midnightblue" d="M438.14,-336.67C396.03,-326.61 325.53,-309.76 282.94,-299.59"/>
<polygon fill="midnightblue" stroke="midnightblue" points="437.41,-340.09 447.95,-339.01 439.04,-333.29 437.41,-340.09"/>
</g>
<!-- Node5 -->
<g id="node5" class="node">
<title>Node5</title>
<g id="a_node5"><a xlink:href="_level_8h.html" target="_top" xlink:title=" ">
<polygon fill="none" stroke="black" points="267.5,-168.5 267.5,-187.5 314.5,-187.5 314.5,-168.5 267.5,-168.5"/>
<text text-anchor="middle" x="291" y="-175.5" font-family="Helvetica,sans-Serif" font-size="10.00">Level.h</text>
</a>
</g>
</g>
<!-- Node1&#45;&gt;Node5 -->
<g id="edge23" class="edge">
<title>Node1&#45;&gt;Node5</title>
<path fill="none" stroke="midnightblue" d="M471.06,-326.11C467.34,-299.66 456.84,-251.75 428,-224 419.63,-215.95 351.46,-195.94 314.54,-185.53"/>
<polygon fill="midnightblue" stroke="midnightblue" points="467.61,-326.8 472.3,-336.3 474.56,-325.95 467.61,-326.8"/>
</g>
<!-- Node10 -->
<g id="node10" class="node">
<title>Node10</title>
<g id="a_node10"><a xlink:href="main_8cpp.html" target="_top" xlink:title=" ">
<polygon fill="none" stroke="black" points="510,-0.5 510,-19.5 566,-19.5 566,-0.5 510,-0.5"/>
<text text-anchor="middle" x="538" y="-7.5" font-family="Helvetica,sans-Serif" font-size="10.00">main.cpp</text>
</a>
</g>
</g>
<!-- Node1&#45;&gt;Node10 -->
<g id="edge32" class="edge">
<title>Node1&#45;&gt;Node10</title>
<path fill="none" stroke="midnightblue" d="M499.86,-331.27C530.38,-313.54 576,-279.57 576,-235 576,-235 576,-235 576,-121 576,-81.4 553.73,-37.96 543.28,-19.77"/>
<polygon fill="midnightblue" stroke="midnightblue" points="497.97,-328.32 490.94,-336.25 501.38,-334.43 497.97,-328.32"/>
</g>
<!-- Node16 -->
<g id="node16" class="node">
<title>Node16</title>
<g id="a_node16"><a xlink:href="_player_8h.html" target="_top" xlink:title=" ">
<polygon fill="none" stroke="black" points="365.5,-224.5 365.5,-243.5 418.5,-243.5 418.5,-224.5 365.5,-224.5"/>
<text text-anchor="middle" x="392" y="-231.5" font-family="Helvetica,sans-Serif" font-size="10.00">Player.h</text>
</a>
</g>
</g>
<!-- Node1&#45;&gt;Node16 -->
<g id="edge30" class="edge">
<title>Node1&#45;&gt;Node16</title>
<path fill="none" stroke="midnightblue" d="M457.51,-328.88C449.8,-320.54 440.54,-310.03 433,-300 418.57,-280.8 404.16,-256.47 396.88,-243.71"/>
<polygon fill="midnightblue" stroke="midnightblue" points="455.18,-331.52 464.58,-336.4 460.28,-326.72 455.18,-331.52"/>
</g>
<!-- Node20 -->
<g id="node20" class="node">
<title>Node20</title>
<g id="a_node20"><a xlink:href="_nemo_8h.html" target="_top" xlink:title=" ">
<polygon fill="none" stroke="black" points="475,-224.5 475,-243.5 525,-243.5 525,-224.5 475,-224.5"/>
<text text-anchor="middle" x="500" y="-231.5" font-family="Helvetica,sans-Serif" font-size="10.00">Nemo.h</text>
</a>
</g>
</g>
<!-- Node1&#45;&gt;Node20 -->
<g id="edge24" class="edge">
<title>Node1&#45;&gt;Node20</title>
<path fill="none" stroke="midnightblue" d="M477.58,-326.35C483.49,-302.25 493.54,-261.31 497.89,-243.59"/>
<polygon fill="midnightblue" stroke="midnightblue" points="474.1,-325.82 475.12,-336.37 480.9,-327.49 474.1,-325.82"/>
</g>
<!-- Node21 -->
<g id="node21" class="node">
<title>Node21</title>
<g id="a_node21"><a xlink:href="_sprite_8cpp.html" target="_top" xlink:title=" ">
<polygon fill="none" stroke="black" points="604.5,-280.5 604.5,-299.5 665.5,-299.5 665.5,-280.5 604.5,-280.5"/>
<text text-anchor="middle" x="635" y="-287.5" font-family="Helvetica,sans-Serif" font-size="10.00">Sprite.cpp</text>
</a>
</g>
</g>
<!-- Node1&#45;&gt;Node21 -->
<g id="edge31" class="edge">
<title>Node1&#45;&gt;Node21</title>
<path fill="none" stroke="midnightblue" d="M508.11,-333.3C538.59,-323.14 582.01,-308.66 609.33,-299.56"/>
<polygon fill="midnightblue" stroke="midnightblue" points="506.69,-330.08 498.31,-336.56 508.91,-336.72 506.69,-330.08"/>
</g>
<!-- Node3 -->
<g id="node3" class="node">
<title>Node3</title>
<g id="a_node3"><a xlink:href="_game_character_8cpp.html" target="_top" xlink:title=" ">
<polygon fill="none" stroke="black" points="243,-224.5 243,-243.5 347,-243.5 347,-224.5 243,-224.5"/>
<text text-anchor="middle" x="295" y="-231.5" font-family="Helvetica,sans-Serif" font-size="10.00">GameCharacter.cpp</text>
</a>
</g>
</g>
<!-- Node2&#45;&gt;Node3 -->
<g id="edge2" class="edge">
<title>Node2&#45;&gt;Node3</title>
<path fill="none" stroke="midnightblue" d="M261.73,-272.43C270.14,-262.97 280.35,-251.48 287.22,-243.75"/>
<polygon fill="midnightblue" stroke="midnightblue" points="258.95,-270.28 254.93,-280.08 264.19,-274.93 258.95,-270.28"/>
</g>
<!-- Node4 -->
<g id="node4" class="node">
<title>Node4</title>
<g id="a_node4"><a xlink:href="_combat_2_mumy_8h.html" target="_top" xlink:title=" ">
<polygon fill="none" stroke="black" points="173,-224.5 173,-243.5 225,-243.5 225,-224.5 173,-224.5"/>
<text text-anchor="middle" x="199" y="-231.5" font-family="Helvetica,sans-Serif" font-size="10.00">Mumy.h</text>
</a>
</g>
</g>
<!-- Node2&#45;&gt;Node4 -->
<g id="edge3" class="edge">
<title>Node2&#45;&gt;Node4</title>
<path fill="none" stroke="midnightblue" d="M232.27,-272.43C223.86,-262.97 213.65,-251.48 206.78,-243.75"/>
<polygon fill="midnightblue" stroke="midnightblue" points="229.81,-274.93 239.07,-280.08 235.05,-270.28 229.81,-274.93"/>
</g>
<!-- Node14 -->
<g id="node14" class="node">
<title>Node14</title>
<g id="a_node14"><a xlink:href="_combat_2_pharaoh_8h.html" target="_top" xlink:title=" ">
<polygon fill="none" stroke="black" points="93.5,-224.5 93.5,-243.5 154.5,-243.5 154.5,-224.5 93.5,-224.5"/>
<text text-anchor="middle" x="124" y="-231.5" font-family="Helvetica,sans-Serif" font-size="10.00">Pharaoh.h</text>
</a>
</g>
</g>
<!-- Node2&#45;&gt;Node14 -->
<g id="edge14" class="edge">
<title>Node2&#45;&gt;Node14</title>
<path fill="none" stroke="midnightblue" d="M218.23,-276.37C195.19,-266.26 163.52,-252.35 143.4,-243.52"/>
<polygon fill="midnightblue" stroke="midnightblue" points="216.95,-279.63 227.51,-280.44 219.76,-273.22 216.95,-279.63"/>
</g>
<!-- Node2&#45;&gt;Node16 -->
<g id="edge17" class="edge">
<title>Node2&#45;&gt;Node16</title>
<path fill="none" stroke="midnightblue" d="M279.48,-276.91C306.74,-266.75 344.99,-252.51 369.13,-243.52"/>
<polygon fill="midnightblue" stroke="midnightblue" points="278.13,-273.67 269.98,-280.44 280.57,-280.23 278.13,-273.67"/>
</g>
<!-- Node18 -->
<g id="node18" class="node">
<title>Node18</title>
<g id="a_node18"><a xlink:href="_combat_2_shadow_8h.html" target="_top" xlink:title=" ">
<polygon fill="none" stroke="black" points="16.5,-224.5 16.5,-243.5 75.5,-243.5 75.5,-224.5 16.5,-224.5"/>
<text text-anchor="middle" x="46" y="-231.5" font-family="Helvetica,sans-Serif" font-size="10.00">Shadow.h</text>
</a>
</g>
</g>
<!-- Node2&#45;&gt;Node18 -->
<g id="edge20" class="edge">
<title>Node2&#45;&gt;Node18</title>
<path fill="none" stroke="midnightblue" d="M205.24,-277.78C166.56,-267.39 110,-252.2 75.73,-242.99"/>
<polygon fill="midnightblue" stroke="midnightblue" points="204.59,-281.23 215.15,-280.44 206.4,-274.47 204.59,-281.23"/>
</g>
<!-- Node4&#45;&gt;Node5 -->
<g id="edge4" class="edge">
<title>Node4&#45;&gt;Node5</title>
<path fill="none" stroke="midnightblue" d="M222.55,-219.18C239.48,-209.24 261.78,-196.15 276.26,-187.65"/>
<polygon fill="midnightblue" stroke="midnightblue" points="220.63,-216.24 213.78,-224.32 224.18,-222.28 220.63,-216.24"/>
</g>
<!-- Node13 -->
<g id="node13" class="node">
<title>Node13</title>
<g id="a_node13"><a xlink:href="_combat_2_mumy_8cpp.html" target="_top" xlink:title=" ">
<polygon fill="none" stroke="black" points="178,-168.5 178,-187.5 240,-187.5 240,-168.5 178,-168.5"/>
<text text-anchor="middle" x="209" y="-175.5" font-family="Helvetica,sans-Serif" font-size="10.00">Mumy.cpp</text>
</a>
</g>
</g>
<!-- Node4&#45;&gt;Node13 -->
<g id="edge13" class="edge">
<title>Node4&#45;&gt;Node13</title>
<path fill="none" stroke="midnightblue" d="M202.5,-214.1C204.16,-205.14 206.06,-194.86 207.38,-187.75"/>
<polygon fill="midnightblue" stroke="midnightblue" points="199.03,-213.61 200.65,-224.08 205.91,-214.89 199.03,-213.61"/>
</g>
<!-- Node6 -->
<g id="node6" class="node">
<title>Node6</title>
<g id="a_node6"><a xlink:href="_collision_8h.html" target="_top" xlink:title=" ">
<polygon fill="none" stroke="black" points="330,-112.5 330,-131.5 392,-131.5 392,-112.5 330,-112.5"/>
<text text-anchor="middle" x="361" y="-119.5" font-family="Helvetica,sans-Serif" font-size="10.00">Collision.h</text>
</a>
</g>
</g>
<!-- Node5&#45;&gt;Node6 -->
<g id="edge5" class="edge">
<title>Node5&#45;&gt;Node6</title>
<path fill="none" stroke="midnightblue" d="M310.31,-162.1C322.91,-152.38 338.93,-140.03 349.55,-131.83"/>
<polygon fill="midnightblue" stroke="midnightblue" points="308.03,-159.44 302.25,-168.32 312.3,-164.99 308.03,-159.44"/>
</g>
<!-- Node5&#45;&gt;Node10 -->
<g id="edge12" class="edge">
<title>Node5&#45;&gt;Node10</title>
<path fill="none" stroke="midnightblue" d="M289.56,-158.23C288.62,-131.55 291.2,-82.92 319,-56 378.23,1.36 420.48,-37.75 501,-20 503.84,-19.37 506.8,-18.7 509.75,-18.01"/>
<polygon fill="midnightblue" stroke="midnightblue" points="286.08,-158.7 290.14,-168.49 293.07,-158.31 286.08,-158.7"/>
</g>
<!-- Node11 -->
<g id="node11" class="node">
<title>Node11</title>
<g id="a_node11"><a xlink:href="_level_8cpp.html" target="_top" xlink:title=" ">
<polygon fill="none" stroke="black" points="214.5,-112.5 214.5,-131.5 271.5,-131.5 271.5,-112.5 214.5,-112.5"/>
<text text-anchor="middle" x="243" y="-119.5" font-family="Helvetica,sans-Serif" font-size="10.00">Level.cpp</text>
</a>
</g>
</g>
<!-- Node5&#45;&gt;Node11 -->
<g id="edge10" class="edge">
<title>Node5&#45;&gt;Node11</title>
<path fill="none" stroke="midnightblue" d="M276.27,-160.43C267.86,-150.97 257.65,-139.48 250.78,-131.75"/>
<polygon fill="midnightblue" stroke="midnightblue" points="273.81,-162.93 283.07,-168.08 279.05,-158.28 273.81,-162.93"/>
</g>
<!-- Node12 -->
<g id="node12" class="node">
<title>Node12</title>
<g id="a_node12"><a xlink:href="_nemo_8cpp.html" target="_top" xlink:title=" ">
<polygon fill="none" stroke="black" points="410.5,-112.5 410.5,-131.5 471.5,-131.5 471.5,-112.5 410.5,-112.5"/>
<text text-anchor="middle" x="441" y="-119.5" font-family="Helvetica,sans-Serif" font-size="10.00">Nemo.cpp</text>
</a>
</g>
</g>
<!-- Node5&#45;&gt;Node12 -->
<g id="edge11" class="edge">
<title>Node5&#45;&gt;Node12</title>
<path fill="none" stroke="midnightblue" d="M324.22,-165.04C352.45,-154.88 392.26,-140.55 417.34,-131.52"/>
<polygon fill="midnightblue" stroke="midnightblue" points="322.99,-161.76 314.77,-168.44 325.36,-168.35 322.99,-161.76"/>
</g>
<!-- Node7 -->
<g id="node7" class="node">
<title>Node7</title>
<g id="a_node7"><a xlink:href="_collision_8cpp.html" target="_top" xlink:title=" ">
<polygon fill="none" stroke="black" points="328,-56.5 328,-75.5 400,-75.5 400,-56.5 328,-56.5"/>
<text text-anchor="middle" x="364" y="-63.5" font-family="Helvetica,sans-Serif" font-size="10.00">Collision.cpp</text>
</a>
</g>
</g>
<!-- Node6&#45;&gt;Node7 -->
<g id="edge6" class="edge">
<title>Node6&#45;&gt;Node7</title>
<path fill="none" stroke="midnightblue" d="M362.07,-101.8C362.56,-92.91 363.12,-82.78 363.51,-75.75"/>
<polygon fill="midnightblue" stroke="midnightblue" points="358.56,-101.9 361.5,-112.08 365.54,-102.29 358.56,-101.9"/>
</g>
<!-- Node8 -->
<g id="node8" class="node">
<title>Node8</title>
<g id="a_node8"><a xlink:href="_puzzle_8h.html" target="_top" xlink:title=" ">
<polygon fill="none" stroke="black" points="443.5,-56.5 443.5,-75.5 498.5,-75.5 498.5,-56.5 443.5,-56.5"/>
<text text-anchor="middle" x="471" y="-63.5" font-family="Helvetica,sans-Serif" font-size="10.00">Puzzle.h</text>
</a>
</g>
</g>
<!-- Node6&#45;&gt;Node8 -->
<g id="edge7" class="edge">
<title>Node6&#45;&gt;Node8</title>
<path fill="none" stroke="midnightblue" d="M387.76,-107.86C408.16,-97.85 435.67,-84.35 453.37,-75.65"/>
<polygon fill="midnightblue" stroke="midnightblue" points="386.11,-104.78 378.67,-112.32 389.19,-111.06 386.11,-104.78"/>
</g>
<!-- Node9 -->
<g id="node9" class="node">
<title>Node9</title>
<g id="a_node9"><a xlink:href="_puzzle_8cpp.html" target="_top" xlink:title=" ">
<polygon fill="none" stroke="black" points="426.5,-0.5 426.5,-19.5 491.5,-19.5 491.5,-0.5 426.5,-0.5"/>
<text text-anchor="middle" x="459" y="-7.5" font-family="Helvetica,sans-Serif" font-size="10.00">Puzzle.cpp</text>
</a>
</g>
</g>
<!-- Node8&#45;&gt;Node9 -->
<g id="edge8" class="edge">
<title>Node8&#45;&gt;Node9</title>
<path fill="none" stroke="midnightblue" d="M466.8,-46.1C464.81,-37.14 462.52,-26.86 460.94,-19.75"/>
<polygon fill="midnightblue" stroke="midnightblue" points="463.43,-47.08 469.02,-56.08 470.27,-45.56 463.43,-47.08"/>
</g>
<!-- Node8&#45;&gt;Node10 -->
<g id="edge9" class="edge">
<title>Node8&#45;&gt;Node10</title>
<path fill="none" stroke="midnightblue" d="M489.83,-49.82C501.84,-40.15 516.97,-27.95 527.04,-19.83"/>
<polygon fill="midnightblue" stroke="midnightblue" points="487.35,-47.32 481.76,-56.32 491.75,-52.77 487.35,-47.32"/>
</g>
<!-- Node14&#45;&gt;Node5 -->
<g id="edge15" class="edge">
<title>Node14&#45;&gt;Node5</title>
<path fill="none" stroke="midnightblue" d="M160.05,-221.34C192.55,-210.84 239.4,-195.69 267.36,-186.64"/>
<polygon fill="midnightblue" stroke="midnightblue" points="158.9,-218.04 150.46,-224.44 161.05,-224.7 158.9,-218.04"/>
</g>
<!-- Node15 -->
<g id="node15" class="node">
<title>Node15</title>
<g id="a_node15"><a xlink:href="_combat_2_pharaoh_8cpp.html" target="_top" xlink:title=" ">
<polygon fill="none" stroke="black" points="88.5,-168.5 88.5,-187.5 159.5,-187.5 159.5,-168.5 88.5,-168.5"/>
<text text-anchor="middle" x="124" y="-175.5" font-family="Helvetica,sans-Serif" font-size="10.00">Pharaoh.cpp</text>
</a>
</g>
</g>
<!-- Node14&#45;&gt;Node15 -->
<g id="edge16" class="edge">
<title>Node14&#45;&gt;Node15</title>
<path fill="none" stroke="midnightblue" d="M124,-213.8C124,-204.91 124,-194.78 124,-187.75"/>
<polygon fill="midnightblue" stroke="midnightblue" points="120.5,-214.08 124,-224.08 127.5,-214.08 120.5,-214.08"/>
</g>
<!-- Node16&#45;&gt;Node5 -->
<g id="edge18" class="edge">
<title>Node16&#45;&gt;Node5</title>
<path fill="none" stroke="midnightblue" d="M366.92,-219.59C348.24,-209.61 323.3,-196.27 307.19,-187.65"/>
<polygon fill="midnightblue" stroke="midnightblue" points="365.3,-222.7 375.77,-224.32 368.6,-216.52 365.3,-222.7"/>
</g>
<!-- Node17 -->
<g id="node17" class="node">
<title>Node17</title>
<g id="a_node17"><a xlink:href="_player_8cpp.html" target="_top" xlink:title=" ">
<polygon fill="none" stroke="black" points="332.5,-168.5 332.5,-187.5 395.5,-187.5 395.5,-168.5 332.5,-168.5"/>
<text text-anchor="middle" x="364" y="-175.5" font-family="Helvetica,sans-Serif" font-size="10.00">Player.cpp</text>
</a>
</g>
</g>
<!-- Node16&#45;&gt;Node17 -->
<g id="edge19" class="edge">
<title>Node16&#45;&gt;Node17</title>
<path fill="none" stroke="midnightblue" d="M382.66,-214.98C377.91,-205.82 372.34,-195.09 368.54,-187.75"/>
<polygon fill="midnightblue" stroke="midnightblue" points="379.67,-216.82 387.38,-224.08 385.88,-213.59 379.67,-216.82"/>
</g>
<!-- Node18&#45;&gt;Node5 -->
<g id="edge21" class="edge">
<title>Node18&#45;&gt;Node5</title>
<path fill="none" stroke="midnightblue" d="M85.78,-223.63C133.01,-213.03 224.04,-193.4 267.3,-184.09"/>
<polygon fill="midnightblue" stroke="midnightblue" points="84.84,-220.26 75.86,-225.87 86.38,-227.08 84.84,-220.26"/>
</g>
<!-- Node19 -->
<g id="node19" class="node">
<title>Node19</title>
<g id="a_node19"><a xlink:href="_combat_2_shadow_8cpp.html" target="_top" xlink:title=" ">
<polygon fill="none" stroke="black" points="0,-168.5 0,-187.5 70,-187.5 70,-168.5 0,-168.5"/>
<text text-anchor="middle" x="35" y="-175.5" font-family="Helvetica,sans-Serif" font-size="10.00">Shadow.cpp</text>
</a>
</g>
</g>
<!-- Node18&#45;&gt;Node19 -->
<g id="edge22" class="edge">
<title>Node18&#45;&gt;Node19</title>
<path fill="none" stroke="midnightblue" d="M42.15,-214.1C40.32,-205.14 38.23,-194.86 36.78,-187.75"/>
<polygon fill="midnightblue" stroke="midnightblue" points="38.76,-214.98 44.18,-224.08 45.62,-213.59 38.76,-214.98"/>
</g>
<!-- Node20&#45;&gt;Node5 -->
<g id="edge26" class="edge">
<title>Node20&#45;&gt;Node5</title>
<path fill="none" stroke="midnightblue" d="M465.02,-224.23C429.47,-215.28 372.84,-200.9 324,-188 321.01,-187.21 317.88,-186.37 314.78,-185.53"/>
<polygon fill="midnightblue" stroke="midnightblue" points="464.35,-227.67 474.9,-226.72 466.06,-220.88 464.35,-227.67"/>
</g>
<!-- Node20&#45;&gt;Node6 -->
<g id="edge25" class="edge">
<title>Node20&#45;&gt;Node6</title>
<path fill="none" stroke="midnightblue" d="M481.19,-218.12C451.69,-194.77 395.46,-150.27 371.86,-131.59"/>
<polygon fill="midnightblue" stroke="midnightblue" points="479.08,-220.91 489.09,-224.37 483.42,-215.42 479.08,-220.91"/>
</g>
<!-- Node20&#45;&gt;Node8 -->
<g id="edge28" class="edge">
<title>Node20&#45;&gt;Node8</title>
<path fill="none" stroke="midnightblue" d="M497.45,-214.38C494.1,-190.57 487.84,-148.09 481,-112 478.59,-99.26 475.22,-84.62 473.08,-75.59"/>
<polygon fill="midnightblue" stroke="midnightblue" points="494,-215.04 498.85,-224.46 500.94,-214.07 494,-215.04"/>
</g>
<!-- Node20&#45;&gt;Node10 -->
<g id="edge29" class="edge">
<title>Node20&#45;&gt;Node10</title>
<path fill="none" stroke="midnightblue" d="M503.2,-214.3C511.02,-168.64 530.84,-52.85 536.48,-19.88"/>
<polygon fill="midnightblue" stroke="midnightblue" points="499.73,-213.85 501.49,-224.3 506.63,-215.03 499.73,-213.85"/>
</g>
<!-- Node20&#45;&gt;Node12 -->
<g id="edge27" class="edge">
<title>Node20&#45;&gt;Node12</title>
<path fill="none" stroke="midnightblue" d="M490.52,-215.32C477.67,-191.37 455.24,-149.55 445.61,-131.59"/>
<polygon fill="midnightblue" stroke="midnightblue" points="487.56,-217.21 495.37,-224.37 493.73,-213.9 487.56,-217.21"/>
</g>
</g>
</svg>
