<?xml version="1.0" encoding="UTF-8" standalone="no"?>
<!DOCTYPE svg PUBLIC "-//W3C//DTD SVG 1.1//EN"
 "http://www.w3.org/Graphics/SVG/1.1/DTD/svg11.dtd">
<!-- Generated by graphviz version 3.0.0 (20220226.1711)
 -->
<!-- Title: Sprite.h Pages: 1 -->
<svg width="707pt" height="364pt"
 viewBox="0.00 0.00 706.50 364.00" xmlns="http://www.w3.org/2000/svg" xmlns:xlink="http://www.w3.org/1999/xlink">
<g id="graph0" class="graph" transform="scale(1 1) rotate(0) translate(4 360)">
<title>Sprite.h</title>
<!-- Node1 -->
<g id="node1" class="node">
<title>Node1</title>
<g id="a_node1"><a xlink:title=" ">
<polygon fill="#bfbfbf" stroke="black" points="453,-336.5 453,-355.5 503,-355.5 503,-336.5 453,-336.5"/>
<text text-anchor="middle" x="478" y="-343.5" font-family="Helvetica,sans-Serif" font-size="10.00">Sprite.h</text>
</a>
</g>
</g>
<!-- Node2 -->
<g id="node2" class="node">
<title>Node2</title>
<g id="a_node2"><a xlink:href="_game_character_8h.html" target="_top" xlink:title=" ">
<polygon fill="none" stroke="black" points="205.5,-280.5 205.5,-299.5 298.5,-299.5 298.5,-280.5 205.5,-280.5"/>
<text text-anchor="middle" x="252" y="-287.5" font-family="Helvetica,sans-Serif" font-size="10.00">GameCharacter.h</text>
</a>
</g>
</g>
<!-- Node1&#45;&gt;Node2 -->
<g id="edge1" class="edge">
<title>Node1&#45;&gt;Node2</title>
<path fill="none" stroke="midnightblue" d="M443.14,-336.67C401.03,-326.61 330.53,-309.76 287.94,-299.59"/>
<polygon fill="midnightblue" stroke="midnightblue" points="442.41,-340.09 452.95,-339.01 444.04,-333.29 442.41,-340.09"/>
</g>
<!-- Node5 -->
<g id="node5" class="node">
<title>Node5</title>
<g id="a_node5"><a xlink:href="_level_8h.html" target="_top" xlink:title=" ">
<polygon fill="none" stroke="black" points="258.5,-168.5 258.5,-187.5 305.5,-187.5 305.5,-168.5 258.5,-168.5"/>
<text text-anchor="middle" x="282" y="-175.5" font-family="Helvetica,sans-Serif" font-size="10.00">Level.h</text>
</a>
</g>
</g>
<!-- Node1&#45;&gt;Node5 -->
<g id="edge22" class="edge">
<title>Node1&#45;&gt;Node5</title>
<path fill="none" stroke="midnightblue" d="M476.16,-325.99C472.57,-299.42 462.22,-251.35 433,-224 428.24,-219.55 346.95,-196.8 305.66,-185.46"/>
<polygon fill="midnightblue" stroke="midnightblue" points="472.72,-326.71 477.35,-336.24 479.67,-325.91 472.72,-326.71"/>
</g>
<!-- Node10 -->
<g id="node10" class="node">
<title>Node10</title>
<g id="a_node10"><a xlink:href="main_8cpp.html" target="_top" xlink:title=" ">
<polygon fill="none" stroke="black" points="535,-0.5 535,-19.5 591,-19.5 591,-0.5 535,-0.5"/>
<text text-anchor="middle" x="563" y="-7.5" font-family="Helvetica,sans-Serif" font-size="10.00">main.cpp</text>
</a>
</g>
</g>
<!-- Node1&#45;&gt;Node10 -->
<g id="edge31" class="edge">
<title>Node1&#45;&gt;Node10</title>
<path fill="none" stroke="midnightblue" d="M512.68,-333.09C551.49,-317.29 609,-285.37 609,-235 609,-235 609,-235 609,-121 609,-80.43 582.04,-37.5 569.4,-19.61"/>
<polygon fill="midnightblue" stroke="midnightblue" points="511.3,-329.87 503.26,-336.76 513.85,-336.39 511.3,-329.87"/>
</g>
<!-- Node15 -->
<g id="node15" class="node">
<title>Node15</title>
<g id="a_node15"><a xlink:href="_player_8h.html" target="_top" xlink:title=" ">
<polygon fill="none" stroke="black" points="370.5,-224.5 370.5,-243.5 423.5,-243.5 423.5,-224.5 370.5,-224.5"/>
<text text-anchor="middle" x="397" y="-231.5" font-family="Helvetica,sans-Serif" font-size="10.00">Player.h</text>
</a>
</g>
</g>
<!-- Node1&#45;&gt;Node15 -->
<g id="edge29" class="edge">
<title>Node1&#45;&gt;Node15</title>
<path fill="none" stroke="midnightblue" d="M462.51,-328.88C454.8,-320.54 445.54,-310.03 438,-300 423.57,-280.8 409.16,-256.47 401.88,-243.71"/>
<polygon fill="midnightblue" stroke="midnightblue" points="460.18,-331.52 469.58,-336.4 465.28,-326.72 460.18,-331.52"/>
</g>
<!-- Node19 -->
<g id="node19" class="node">
<title>Node19</title>
<g id="a_node19"><a xlink:href="_nemo_8h.html" target="_top" xlink:title=" ">
<polygon fill="none" stroke="black" points="480,-224.5 480,-243.5 530,-243.5 530,-224.5 480,-224.5"/>
<text text-anchor="middle" x="505" y="-231.5" font-family="Helvetica,sans-Serif" font-size="10.00">Nemo.h</text>
</a>
</g>
</g>
<!-- Node1&#45;&gt;Node19 -->
<g id="edge23" class="edge">
<title>Node1&#45;&gt;Node19</title>
<path fill="none" stroke="midnightblue" d="M482.58,-326.35C488.49,-302.25 498.54,-261.31 502.89,-243.59"/>
<polygon fill="midnightblue" stroke="midnightblue" points="479.1,-325.82 480.12,-336.37 485.9,-327.49 479.1,-325.82"/>
</g>
<!-- Node21 -->
<g id="node21" class="node">
<title>Node21</title>
<g id="a_node21"><a xlink:href="_sprite_8cpp.html" target="_top" xlink:title=" ">
<polygon fill="none" stroke="black" points="637.5,-280.5 637.5,-299.5 698.5,-299.5 698.5,-280.5 637.5,-280.5"/>
<text text-anchor="middle" x="668" y="-287.5" font-family="Helvetica,sans-Serif" font-size="10.00">Sprite.cpp</text>
</a>
</g>
</g>
<!-- Node1&#45;&gt;Node21 -->
<g id="edge30" class="edge">
<title>Node1&#45;&gt;Node21</title>
<path fill="none" stroke="midnightblue" d="M513.25,-334.98C549.12,-324.79 604.1,-309.16 637.96,-299.54"/>
<polygon fill="midnightblue" stroke="midnightblue" points="511.89,-331.73 503.23,-337.83 513.81,-338.46 511.89,-331.73"/>
</g>
<!-- Node3 -->
<g id="node3" class="node">
<title>Node3</title>
<g id="a_node3"><a xlink:href="_game_character_8cpp.html" target="_top" xlink:title=" ">
<polygon fill="none" stroke="black" points="248,-224.5 248,-243.5 352,-243.5 352,-224.5 248,-224.5"/>
<text text-anchor="middle" x="300" y="-231.5" font-family="Helvetica,sans-Serif" font-size="10.00">GameCharacter.cpp</text>
</a>
</g>
</g>
<!-- Node2&#45;&gt;Node3 -->
<g id="edge2" class="edge">
<title>Node2&#45;&gt;Node3</title>
<path fill="none" stroke="midnightblue" d="M266.73,-272.43C275.14,-262.97 285.35,-251.48 292.22,-243.75"/>
<polygon fill="midnightblue" stroke="midnightblue" points="263.95,-270.28 259.93,-280.08 269.19,-274.93 263.95,-270.28"/>
</g>
<!-- Node4 -->
<g id="node4" class="node">
<title>Node4</title>
<g id="a_node4"><a xlink:href="_combat_2_mumy_8h.html" target="_top" xlink:title=" ">
<polygon fill="none" stroke="black" points="178,-224.5 178,-243.5 230,-243.5 230,-224.5 178,-224.5"/>
<text text-anchor="middle" x="204" y="-231.5" font-family="Helvetica,sans-Serif" font-size="10.00">Mumy.h</text>
</a>
</g>
</g>
<!-- Node2&#45;&gt;Node4 -->
<g id="edge3" class="edge">
<title>Node2&#45;&gt;Node4</title>
<path fill="none" stroke="midnightblue" d="M237.27,-272.43C228.86,-262.97 218.65,-251.48 211.78,-243.75"/>
<polygon fill="midnightblue" stroke="midnightblue" points="234.81,-274.93 244.07,-280.08 240.05,-270.28 234.81,-274.93"/>
</g>
<!-- Node13 -->
<g id="node13" class="node">
<title>Node13</title>
<g id="a_node13"><a xlink:href="_combat_2_pharaoh_8h.html" target="_top" xlink:title=" ">
<polygon fill="none" stroke="black" points="98.5,-224.5 98.5,-243.5 159.5,-243.5 159.5,-224.5 98.5,-224.5"/>
<text text-anchor="middle" x="129" y="-231.5" font-family="Helvetica,sans-Serif" font-size="10.00">Pharaoh.h</text>
</a>
</g>
</g>
<!-- Node2&#45;&gt;Node13 -->
<g id="edge13" class="edge">
<title>Node2&#45;&gt;Node13</title>
<path fill="none" stroke="midnightblue" d="M223.23,-276.37C200.19,-266.26 168.52,-252.35 148.4,-243.52"/>
<polygon fill="midnightblue" stroke="midnightblue" points="221.95,-279.63 232.51,-280.44 224.76,-273.22 221.95,-279.63"/>
</g>
<!-- Node2&#45;&gt;Node15 -->
<g id="edge16" class="edge">
<title>Node2&#45;&gt;Node15</title>
<path fill="none" stroke="midnightblue" d="M284.48,-276.91C311.74,-266.75 349.99,-252.51 374.13,-243.52"/>
<polygon fill="midnightblue" stroke="midnightblue" points="283.13,-273.67 274.98,-280.44 285.57,-280.23 283.13,-273.67"/>
</g>
<!-- Node17 -->
<g id="node17" class="node">
<title>Node17</title>
<g id="a_node17"><a xlink:href="_combat_2_shadow_8h.html" target="_top" xlink:title=" ">
<polygon fill="none" stroke="black" points="21.5,-224.5 21.5,-243.5 80.5,-243.5 80.5,-224.5 21.5,-224.5"/>
<text text-anchor="middle" x="51" y="-231.5" font-family="Helvetica,sans-Serif" font-size="10.00">Shadow.h</text>
</a>
</g>
</g>
<!-- Node2&#45;&gt;Node17 -->
<g id="edge19" class="edge">
<title>Node2&#45;&gt;Node17</title>
<path fill="none" stroke="midnightblue" d="M210.24,-277.78C171.56,-267.39 115,-252.2 80.73,-242.99"/>
<polygon fill="midnightblue" stroke="midnightblue" points="209.59,-281.23 220.15,-280.44 211.4,-274.47 209.59,-281.23"/>
</g>
<!-- Node4&#45;&gt;Node5 -->
<g id="edge4" class="edge">
<title>Node4&#45;&gt;Node5</title>
<path fill="none" stroke="midnightblue" d="M224.77,-218.62C239.02,-208.76 257.46,-195.99 269.5,-187.65"/>
<polygon fill="midnightblue" stroke="midnightblue" points="222.76,-215.75 216.53,-224.32 226.75,-221.51 222.76,-215.75"/>
</g>
<!-- Node12 -->
<g id="node12" class="node">
<title>Node12</title>
<g id="a_node12"><a xlink:href="_combat_2_mumy_8cpp.html" target="_top" xlink:title=" ">
<polygon fill="none" stroke="black" points="178,-168.5 178,-187.5 240,-187.5 240,-168.5 178,-168.5"/>
<text text-anchor="middle" x="209" y="-175.5" font-family="Helvetica,sans-Serif" font-size="10.00">Mumy.cpp</text>
</a>
</g>
</g>
<!-- Node4&#45;&gt;Node12 -->
<g id="edge12" class="edge">
<title>Node4&#45;&gt;Node12</title>
<path fill="none" stroke="midnightblue" d="M205.75,-214.1C206.58,-205.14 207.53,-194.86 208.19,-187.75"/>
<polygon fill="midnightblue" stroke="midnightblue" points="202.26,-213.8 204.83,-224.08 209.23,-214.45 202.26,-213.8"/>
</g>
<!-- Node6 -->
<g id="node6" class="node">
<title>Node6</title>
<g id="a_node6"><a xlink:href="_collision_8h.html" target="_top" xlink:title=" ">
<polygon fill="none" stroke="black" points="363,-112.5 363,-131.5 425,-131.5 425,-112.5 363,-112.5"/>
<text text-anchor="middle" x="394" y="-119.5" font-family="Helvetica,sans-Serif" font-size="10.00">Collision.h</text>
</a>
</g>
</g>
<!-- Node5&#45;&gt;Node6 -->
<g id="edge5" class="edge">
<title>Node5&#45;&gt;Node6</title>
<path fill="none" stroke="midnightblue" d="M309.25,-163.86C330.02,-153.85 358.02,-140.35 376.05,-131.65"/>
<polygon fill="midnightblue" stroke="midnightblue" points="307.48,-160.83 299.99,-168.32 310.52,-167.13 307.48,-160.83"/>
</g>
<!-- Node5&#45;&gt;Node10 -->
<g id="edge11" class="edge">
<title>Node5&#45;&gt;Node10</title>
<path fill="none" stroke="midnightblue" d="M293.71,-159.8C299.18,-151.53 305.65,-141.39 311,-132 329.7,-99.19 319.1,-79.07 349,-56 350.86,-54.57 477.22,-28.56 534.87,-16.75"/>
<polygon fill="midnightblue" stroke="midnightblue" points="290.73,-157.96 288.07,-168.21 296.55,-161.86 290.73,-157.96"/>
</g>
<!-- Node11 -->
<g id="node11" class="node">
<title>Node11</title>
<g id="a_node11"><a xlink:href="_level_8cpp.html" target="_top" xlink:title=" ">
<polygon fill="none" stroke="black" points="244.5,-112.5 244.5,-131.5 301.5,-131.5 301.5,-112.5 244.5,-112.5"/>
<text text-anchor="middle" x="273" y="-119.5" font-family="Helvetica,sans-Serif" font-size="10.00">Level.cpp</text>
</a>
</g>
</g>
<!-- Node5&#45;&gt;Node11 -->
<g id="edge10" class="edge">
<title>Node5&#45;&gt;Node11</title>
<path fill="none" stroke="midnightblue" d="M278.85,-158.1C277.36,-149.14 275.64,-138.86 274.46,-131.75"/>
<polygon fill="midnightblue" stroke="midnightblue" points="275.42,-158.79 280.51,-168.08 282.32,-157.64 275.42,-158.79"/>
</g>
<!-- Node7 -->
<g id="node7" class="node">
<title>Node7</title>
<g id="a_node7"><a xlink:href="_collision_8cpp.html" target="_top" xlink:title=" ">
<polygon fill="none" stroke="black" points="358,-56.5 358,-75.5 430,-75.5 430,-56.5 358,-56.5"/>
<text text-anchor="middle" x="394" y="-63.5" font-family="Helvetica,sans-Serif" font-size="10.00">Collision.cpp</text>
</a>
</g>
</g>
<!-- Node6&#45;&gt;Node7 -->
<g id="edge6" class="edge">
<title>Node6&#45;&gt;Node7</title>
<path fill="none" stroke="midnightblue" d="M394,-101.8C394,-92.91 394,-82.78 394,-75.75"/>
<polygon fill="midnightblue" stroke="midnightblue" points="390.5,-102.08 394,-112.08 397.5,-102.08 390.5,-102.08"/>
</g>
<!-- Node8 -->
<g id="node8" class="node">
<title>Node8</title>
<g id="a_node8"><a xlink:href="_puzzle_8h.html" target="_top" xlink:title=" ">
<polygon fill="none" stroke="black" points="448.5,-56.5 448.5,-75.5 503.5,-75.5 503.5,-56.5 448.5,-56.5"/>
<text text-anchor="middle" x="476" y="-63.5" font-family="Helvetica,sans-Serif" font-size="10.00">Puzzle.h</text>
</a>
</g>
</g>
<!-- Node6&#45;&gt;Node8 -->
<g id="edge7" class="edge">
<title>Node6&#45;&gt;Node8</title>
<path fill="none" stroke="midnightblue" d="M415.83,-106.62C430.81,-96.76 450.2,-83.99 462.86,-75.65"/>
<polygon fill="midnightblue" stroke="midnightblue" points="413.6,-103.9 407.17,-112.32 417.45,-109.75 413.6,-103.9"/>
</g>
<!-- Node9 -->
<g id="node9" class="node">
<title>Node9</title>
<g id="a_node9"><a xlink:href="_puzzle_8cpp.html" target="_top" xlink:title=" ">
<polygon fill="none" stroke="black" points="443.5,-0.5 443.5,-19.5 508.5,-19.5 508.5,-0.5 443.5,-0.5"/>
<text text-anchor="middle" x="476" y="-7.5" font-family="Helvetica,sans-Serif" font-size="10.00">Puzzle.cpp</text>
</a>
</g>
</g>
<!-- Node8&#45;&gt;Node9 -->
<g id="edge8" class="edge">
<title>Node8&#45;&gt;Node9</title>
<path fill="none" stroke="midnightblue" d="M476,-45.8C476,-36.91 476,-26.78 476,-19.75"/>
<polygon fill="midnightblue" stroke="midnightblue" points="472.5,-46.08 476,-56.08 479.5,-46.08 472.5,-46.08"/>
</g>
<!-- Node8&#45;&gt;Node10 -->
<g id="edge9" class="edge">
<title>Node8&#45;&gt;Node10</title>
<path fill="none" stroke="midnightblue" d="M498.72,-50.9C514.67,-41 535.5,-28.07 549.06,-19.65"/>
<polygon fill="midnightblue" stroke="midnightblue" points="496.63,-48.08 489.98,-56.32 500.32,-54.02 496.63,-48.08"/>
</g>
<!-- Node13&#45;&gt;Node5 -->
<g id="edge14" class="edge">
<title>Node13&#45;&gt;Node5</title>
<path fill="none" stroke="midnightblue" d="M162.95,-221.02C191.92,-210.79 232.84,-196.35 258.37,-187.34"/>
<polygon fill="midnightblue" stroke="midnightblue" points="161.51,-217.81 153.24,-224.44 163.84,-224.42 161.51,-217.81"/>
</g>
<!-- Node14 -->
<g id="node14" class="node">
<title>Node14</title>
<g id="a_node14"><a xlink:href="_combat_2_pharaoh_8cpp.html" target="_top" xlink:title=" ">
<polygon fill="none" stroke="black" points="88.5,-168.5 88.5,-187.5 159.5,-187.5 159.5,-168.5 88.5,-168.5"/>
<text text-anchor="middle" x="124" y="-175.5" font-family="Helvetica,sans-Serif" font-size="10.00">Pharaoh.cpp</text>
</a>
</g>
</g>
<!-- Node13&#45;&gt;Node14 -->
<g id="edge15" class="edge">
<title>Node13&#45;&gt;Node14</title>
<path fill="none" stroke="midnightblue" d="M127.25,-214.1C126.42,-205.14 125.47,-194.86 124.81,-187.75"/>
<polygon fill="midnightblue" stroke="midnightblue" points="123.77,-214.45 128.17,-224.08 130.74,-213.8 123.77,-214.45"/>
</g>
<!-- Node15&#45;&gt;Node5 -->
<g id="edge17" class="edge">
<title>Node15&#45;&gt;Node5</title>
<path fill="none" stroke="midnightblue" d="M369.52,-220.1C348.03,-210.01 318.78,-196.27 300.14,-187.52"/>
<polygon fill="midnightblue" stroke="midnightblue" points="368.24,-223.36 378.78,-224.44 371.21,-217.02 368.24,-223.36"/>
</g>
<!-- Node16 -->
<g id="node16" class="node">
<title>Node16</title>
<g id="a_node16"><a xlink:href="_player_8cpp.html" target="_top" xlink:title=" ">
<polygon fill="none" stroke="black" points="323.5,-168.5 323.5,-187.5 386.5,-187.5 386.5,-168.5 323.5,-168.5"/>
<text text-anchor="middle" x="355" y="-175.5" font-family="Helvetica,sans-Serif" font-size="10.00">Player.cpp</text>
</a>
</g>
</g>
<!-- Node15&#45;&gt;Node16 -->
<g id="edge18" class="edge">
<title>Node15&#45;&gt;Node16</title>
<path fill="none" stroke="midnightblue" d="M383.89,-216.14C376.57,-206.74 367.76,-195.4 361.81,-187.75"/>
<polygon fill="midnightblue" stroke="midnightblue" points="381.16,-218.34 390.06,-224.08 386.69,-214.04 381.16,-218.34"/>
</g>
<!-- Node17&#45;&gt;Node5 -->
<g id="edge20" class="edge">
<title>Node17&#45;&gt;Node5</title>
<path fill="none" stroke="midnightblue" d="M90.74,-223.62C161.68,-207.4 181.31,-204.84 249,-188 252,-187.25 255.14,-186.44 258.24,-185.62"/>
<polygon fill="midnightblue" stroke="midnightblue" points="89.82,-220.24 80.86,-225.89 91.39,-227.06 89.82,-220.24"/>
</g>
<!-- Node18 -->
<g id="node18" class="node">
<title>Node18</title>
<g id="a_node18"><a xlink:href="_combat_2_shadow_8cpp.html" target="_top" xlink:title=" ">
<polygon fill="none" stroke="black" points="0,-168.5 0,-187.5 70,-187.5 70,-168.5 0,-168.5"/>
<text text-anchor="middle" x="35" y="-175.5" font-family="Helvetica,sans-Serif" font-size="10.00">Shadow.cpp</text>
</a>
</g>
</g>
<!-- Node17&#45;&gt;Node18 -->
<g id="edge21" class="edge">
<title>Node17&#45;&gt;Node18</title>
<path fill="none" stroke="midnightblue" d="M45.49,-214.4C42.81,-205.36 39.72,-194.94 37.59,-187.75"/>
<polygon fill="midnightblue" stroke="midnightblue" points="42.16,-215.49 48.36,-224.08 48.87,-213.5 42.16,-215.49"/>
</g>
<!-- Node19&#45;&gt;Node5 -->
<g id="edge25" class="edge">
<title>Node19&#45;&gt;Node5</title>
<path fill="none" stroke="midnightblue" d="M469.91,-224.84C423.45,-214.01 344.01,-195.39 315,-188 312.01,-187.24 308.87,-186.41 305.77,-185.58"/>
<polygon fill="midnightblue" stroke="midnightblue" points="469.31,-228.29 479.85,-227.15 470.9,-221.48 469.31,-228.29"/>
</g>
<!-- Node19&#45;&gt;Node6 -->
<g id="edge24" class="edge">
<title>Node19&#45;&gt;Node6</title>
<path fill="none" stroke="midnightblue" d="M480.16,-219.09C467.05,-211.04 451.2,-200.11 439,-188 421.27,-170.4 406.01,-144.97 398.66,-131.74"/>
<polygon fill="midnightblue" stroke="midnightblue" points="478.75,-222.33 489.13,-224.43 482.33,-216.31 478.75,-222.33"/>
</g>
<!-- Node19&#45;&gt;Node8 -->
<g id="edge27" class="edge">
<title>Node19&#45;&gt;Node8</title>
<path fill="none" stroke="midnightblue" d="M489.55,-216.55C483.1,-208.57 476.34,-198.46 473,-188 460.15,-147.76 469.33,-96.12 473.87,-75.78"/>
<polygon fill="midnightblue" stroke="midnightblue" points="487.06,-219.02 496.25,-224.29 492.35,-214.44 487.06,-219.02"/>
</g>
<!-- Node19&#45;&gt;Node10 -->
<g id="edge28" class="edge">
<title>Node19&#45;&gt;Node10</title>
<path fill="none" stroke="midnightblue" d="M526.46,-218.32C536.04,-210.52 546.41,-200.05 552,-188 579.48,-128.8 568.99,-46.26 564.57,-19.64"/>
<polygon fill="midnightblue" stroke="midnightblue" points="524.23,-215.62 518.39,-224.47 528.47,-221.2 524.23,-215.62"/>
</g>
<!-- Node20 -->
<g id="node20" class="node">
<title>Node20</title>
<g id="a_node20"><a xlink:href="_nemo_8cpp.html" target="_top" xlink:title=" ">
<polygon fill="none" stroke="black" points="481.5,-168.5 481.5,-187.5 542.5,-187.5 542.5,-168.5 481.5,-168.5"/>
<text text-anchor="middle" x="512" y="-175.5" font-family="Helvetica,sans-Serif" font-size="10.00">Nemo.cpp</text>
</a>
</g>
</g>
<!-- Node19&#45;&gt;Node20 -->
<g id="edge26" class="edge">
<title>Node19&#45;&gt;Node20</title>
<path fill="none" stroke="midnightblue" d="M507.45,-214.1C508.61,-205.14 509.94,-194.86 510.87,-187.75"/>
<polygon fill="midnightblue" stroke="midnightblue" points="503.97,-213.72 506.16,-224.08 510.91,-214.62 503.97,-213.72"/>
</g>
</g>
</svg>
