<?xml version="1.0" encoding="UTF-8" standalone="no"?>
<!DOCTYPE svg PUBLIC "-//W3C//DTD SVG 1.1//EN"
 "http://www.w3.org/Graphics/SVG/1.1/DTD/svg11.dtd">
<!-- Generated by graphviz version 3.0.0 (20220226.1711)
 -->
<!-- Title: Sprite.h Pages: 1 -->
<svg width="758pt" height="308pt"
 viewBox="0.00 0.00 757.50 308.00" xmlns="http://www.w3.org/2000/svg" xmlns:xlink="http://www.w3.org/1999/xlink">
<g id="graph0" class="graph" transform="scale(1 1) rotate(0) translate(4 304)">
<title>Sprite.h</title>
<!-- Node1 -->
<g id="node1" class="node">
<title>Node1</title>
<g id="a_node1"><a xlink:title=" ">
<polygon fill="#bfbfbf" stroke="black" points="448,-280.5 448,-299.5 498,-299.5 498,-280.5 448,-280.5"/>
<text text-anchor="middle" x="473" y="-287.5" font-family="Helvetica,sans-Serif" font-size="10.00">Sprite.h</text>
</a>
</g>
</g>
<!-- Node2 -->
<g id="node2" class="node">
<title>Node2</title>
<g id="a_node2"><a xlink:href="_game_character_8h.html" target="_top" xlink:title=" ">
<polygon fill="none" stroke="black" points="200.5,-224.5 200.5,-243.5 293.5,-243.5 293.5,-224.5 200.5,-224.5"/>
<text text-anchor="middle" x="247" y="-231.5" font-family="Helvetica,sans-Serif" font-size="10.00">GameCharacter.h</text>
</a>
</g>
</g>
<!-- Node1&#45;&gt;Node2 -->
<g id="edge1" class="edge">
<title>Node1&#45;&gt;Node2</title>
<path fill="none" stroke="midnightblue" d="M438.14,-280.67C396.03,-270.61 325.53,-253.76 282.94,-243.59"/>
<polygon fill="midnightblue" stroke="midnightblue" points="437.41,-284.09 447.95,-283.01 439.04,-277.29 437.41,-284.09"/>
</g>
<!-- Node5 -->
<g id="node5" class="node">
<title>Node5</title>
<g id="a_node5"><a xlink:href="_level_8h.html" target="_top" xlink:title=" ">
<polygon fill="none" stroke="black" points="267.5,-112.5 267.5,-131.5 314.5,-131.5 314.5,-112.5 267.5,-112.5"/>
<text text-anchor="middle" x="291" y="-119.5" font-family="Helvetica,sans-Serif" font-size="10.00">Level.h</text>
</a>
</g>
</g>
<!-- Node1&#45;&gt;Node5 -->
<g id="edge21" class="edge">
<title>Node1&#45;&gt;Node5</title>
<path fill="none" stroke="midnightblue" d="M471.06,-270.11C467.34,-243.66 456.84,-195.75 428,-168 419.63,-159.95 351.46,-139.94 314.54,-129.53"/>
<polygon fill="midnightblue" stroke="midnightblue" points="467.61,-270.8 472.3,-280.3 474.56,-269.95 467.61,-270.8"/>
</g>
<!-- Node8 -->
<g id="node8" class="node">
<title>Node8</title>
<g id="a_node8"><a xlink:href="main_8cpp.html" target="_top" xlink:title=" ">
<polygon fill="none" stroke="black" points="472,-0.5 472,-19.5 528,-19.5 528,-0.5 472,-0.5"/>
<text text-anchor="middle" x="500" y="-7.5" font-family="Helvetica,sans-Serif" font-size="10.00">main.cpp</text>
</a>
</g>
</g>
<!-- Node1&#45;&gt;Node8 -->
<g id="edge32" class="edge">
<title>Node1&#45;&gt;Node8</title>
<path fill="none" stroke="midnightblue" d="M508.11,-284.4C562.27,-275.12 660,-248.71 660,-179 660,-179 660,-179 660,-121 660,-57.8 574.17,-28.17 528.24,-16.84"/>
<polygon fill="midnightblue" stroke="midnightblue" points="507.54,-280.95 498.22,-285.99 508.65,-287.86 507.54,-280.95"/>
</g>
<!-- Node14 -->
<g id="node14" class="node">
<title>Node14</title>
<g id="a_node14"><a xlink:href="_player_8h.html" target="_top" xlink:title=" ">
<polygon fill="none" stroke="black" points="365.5,-168.5 365.5,-187.5 418.5,-187.5 418.5,-168.5 365.5,-168.5"/>
<text text-anchor="middle" x="392" y="-175.5" font-family="Helvetica,sans-Serif" font-size="10.00">Player.h</text>
</a>
</g>
</g>
<!-- Node1&#45;&gt;Node14 -->
<g id="edge30" class="edge">
<title>Node1&#45;&gt;Node14</title>
<path fill="none" stroke="midnightblue" d="M457.51,-272.88C449.8,-264.54 440.54,-254.03 433,-244 418.57,-224.8 404.16,-200.47 396.88,-187.71"/>
<polygon fill="midnightblue" stroke="midnightblue" points="455.18,-275.52 464.58,-280.4 460.28,-270.72 455.18,-275.52"/>
</g>
<!-- Node18 -->
<g id="node18" class="node">
<title>Node18</title>
<g id="a_node18"><a xlink:href="_nemo_8h.html" target="_top" xlink:title=" ">
<polygon fill="none" stroke="black" points="475,-168.5 475,-187.5 525,-187.5 525,-168.5 475,-168.5"/>
<text text-anchor="middle" x="500" y="-175.5" font-family="Helvetica,sans-Serif" font-size="10.00">Nemo.h</text>
</a>
</g>
</g>
<!-- Node1&#45;&gt;Node18 -->
<g id="edge22" class="edge">
<title>Node1&#45;&gt;Node18</title>
<path fill="none" stroke="midnightblue" d="M477.58,-270.35C483.49,-246.25 493.54,-205.31 497.89,-187.59"/>
<polygon fill="midnightblue" stroke="midnightblue" points="474.1,-269.82 475.12,-280.37 480.9,-271.49 474.1,-269.82"/>
</g>
<!-- Node21 -->
<g id="node21" class="node">
<title>Node21</title>
<g id="a_node21"><a xlink:href="_sprite_8cpp.html" target="_top" xlink:title=" ">
<polygon fill="none" stroke="black" points="688.5,-224.5 688.5,-243.5 749.5,-243.5 749.5,-224.5 688.5,-224.5"/>
<text text-anchor="middle" x="719" y="-231.5" font-family="Helvetica,sans-Serif" font-size="10.00">Sprite.cpp</text>
</a>
</g>
</g>
<!-- Node1&#45;&gt;Node21 -->
<g id="edge31" class="edge">
<title>Node1&#45;&gt;Node21</title>
<path fill="none" stroke="midnightblue" d="M508.41,-281.23C556.77,-270.61 642.67,-251.76 688.39,-241.72"/>
<polygon fill="midnightblue" stroke="midnightblue" points="507.42,-277.86 498.4,-283.42 508.92,-284.7 507.42,-277.86"/>
</g>
<!-- Node3 -->
<g id="node3" class="node">
<title>Node3</title>
<g id="a_node3"><a xlink:href="_game_character_8cpp.html" target="_top" xlink:title=" ">
<polygon fill="none" stroke="black" points="243,-168.5 243,-187.5 347,-187.5 347,-168.5 243,-168.5"/>
<text text-anchor="middle" x="295" y="-175.5" font-family="Helvetica,sans-Serif" font-size="10.00">GameCharacter.cpp</text>
</a>
</g>
</g>
<!-- Node2&#45;&gt;Node3 -->
<g id="edge2" class="edge">
<title>Node2&#45;&gt;Node3</title>
<path fill="none" stroke="midnightblue" d="M261.73,-216.43C270.14,-206.97 280.35,-195.48 287.22,-187.75"/>
<polygon fill="midnightblue" stroke="midnightblue" points="258.95,-214.28 254.93,-224.08 264.19,-218.93 258.95,-214.28"/>
</g>
<!-- Node4 -->
<g id="node4" class="node">
<title>Node4</title>
<g id="a_node4"><a xlink:href="_combat_2_mumy_8h.html" target="_top" xlink:title=" ">
<polygon fill="none" stroke="black" points="173,-168.5 173,-187.5 225,-187.5 225,-168.5 173,-168.5"/>
<text text-anchor="middle" x="199" y="-175.5" font-family="Helvetica,sans-Serif" font-size="10.00">Mumy.h</text>
</a>
</g>
</g>
<!-- Node2&#45;&gt;Node4 -->
<g id="edge3" class="edge">
<title>Node2&#45;&gt;Node4</title>
<path fill="none" stroke="midnightblue" d="M232.27,-216.43C223.86,-206.97 213.65,-195.48 206.78,-187.75"/>
<polygon fill="midnightblue" stroke="midnightblue" points="229.81,-218.93 239.07,-224.08 235.05,-214.28 229.81,-218.93"/>
</g>
<!-- Node12 -->
<g id="node12" class="node">
<title>Node12</title>
<g id="a_node12"><a xlink:href="_combat_2_pharaoh_8h.html" target="_top" xlink:title=" ">
<polygon fill="none" stroke="black" points="93.5,-168.5 93.5,-187.5 154.5,-187.5 154.5,-168.5 93.5,-168.5"/>
<text text-anchor="middle" x="124" y="-175.5" font-family="Helvetica,sans-Serif" font-size="10.00">Pharaoh.h</text>
</a>
</g>
</g>
<!-- Node2&#45;&gt;Node12 -->
<g id="edge12" class="edge">
<title>Node2&#45;&gt;Node12</title>
<path fill="none" stroke="midnightblue" d="M218.23,-220.37C195.19,-210.26 163.52,-196.35 143.4,-187.52"/>
<polygon fill="midnightblue" stroke="midnightblue" points="216.95,-223.63 227.51,-224.44 219.76,-217.22 216.95,-223.63"/>
</g>
<!-- Node2&#45;&gt;Node14 -->
<g id="edge15" class="edge">
<title>Node2&#45;&gt;Node14</title>
<path fill="none" stroke="midnightblue" d="M279.48,-220.91C306.74,-210.75 344.99,-196.51 369.13,-187.52"/>
<polygon fill="midnightblue" stroke="midnightblue" points="278.13,-217.67 269.98,-224.44 280.57,-224.23 278.13,-217.67"/>
</g>
<!-- Node16 -->
<g id="node16" class="node">
<title>Node16</title>
<g id="a_node16"><a xlink:href="_combat_2_shadow_8h.html" target="_top" xlink:title=" ">
<polygon fill="none" stroke="black" points="16.5,-168.5 16.5,-187.5 75.5,-187.5 75.5,-168.5 16.5,-168.5"/>
<text text-anchor="middle" x="46" y="-175.5" font-family="Helvetica,sans-Serif" font-size="10.00">Shadow.h</text>
</a>
</g>
</g>
<!-- Node2&#45;&gt;Node16 -->
<g id="edge18" class="edge">
<title>Node2&#45;&gt;Node16</title>
<path fill="none" stroke="midnightblue" d="M205.24,-221.78C166.56,-211.39 110,-196.2 75.73,-186.99"/>
<polygon fill="midnightblue" stroke="midnightblue" points="204.59,-225.23 215.15,-224.44 206.4,-218.47 204.59,-225.23"/>
</g>
<!-- Node4&#45;&gt;Node5 -->
<g id="edge4" class="edge">
<title>Node4&#45;&gt;Node5</title>
<path fill="none" stroke="midnightblue" d="M222.55,-163.18C239.48,-153.24 261.78,-140.15 276.26,-131.65"/>
<polygon fill="midnightblue" stroke="midnightblue" points="220.63,-160.24 213.78,-168.32 224.18,-166.28 220.63,-160.24"/>
</g>
<!-- Node11 -->
<g id="node11" class="node">
<title>Node11</title>
<g id="a_node11"><a xlink:href="_combat_2_mumy_8cpp.html" target="_top" xlink:title=" ">
<polygon fill="none" stroke="black" points="178,-112.5 178,-131.5 240,-131.5 240,-112.5 178,-112.5"/>
<text text-anchor="middle" x="209" y="-119.5" font-family="Helvetica,sans-Serif" font-size="10.00">Mumy.cpp</text>
</a>
</g>
</g>
<!-- Node4&#45;&gt;Node11 -->
<g id="edge11" class="edge">
<title>Node4&#45;&gt;Node11</title>
<path fill="none" stroke="midnightblue" d="M202.5,-158.1C204.16,-149.14 206.06,-138.86 207.38,-131.75"/>
<polygon fill="midnightblue" stroke="midnightblue" points="199.03,-157.61 200.65,-168.08 205.91,-158.89 199.03,-157.61"/>
</g>
<!-- Node6 -->
<g id="node6" class="node">
<title>Node6</title>
<g id="a_node6"><a xlink:href="_collision_8h.html" target="_top" xlink:title=" ">
<polygon fill="none" stroke="black" points="330,-56.5 330,-75.5 392,-75.5 392,-56.5 330,-56.5"/>
<text text-anchor="middle" x="361" y="-63.5" font-family="Helvetica,sans-Serif" font-size="10.00">Collision.h</text>
</a>
</g>
</g>
<!-- Node5&#45;&gt;Node6 -->
<g id="edge5" class="edge">
<title>Node5&#45;&gt;Node6</title>
<path fill="none" stroke="midnightblue" d="M310.31,-106.1C322.91,-96.38 338.93,-84.03 349.55,-75.83"/>
<polygon fill="midnightblue" stroke="midnightblue" points="308.03,-103.44 302.25,-112.32 312.3,-108.99 308.03,-103.44"/>
</g>
<!-- Node5&#45;&gt;Node8 -->
<g id="edge10" class="edge">
<title>Node5&#45;&gt;Node8</title>
<path fill="none" stroke="midnightblue" d="M294.93,-102.39C299,-87.69 306.82,-67.76 321,-56 343.88,-37.03 427.59,-21.92 471.96,-15.04"/>
<polygon fill="midnightblue" stroke="midnightblue" points="291.47,-101.84 292.51,-112.39 298.27,-103.49 291.47,-101.84"/>
</g>
<!-- Node9 -->
<g id="node9" class="node">
<title>Node9</title>
<g id="a_node9"><a xlink:href="_level_8cpp.html" target="_top" xlink:title=" ">
<polygon fill="none" stroke="black" points="216.5,-56.5 216.5,-75.5 273.5,-75.5 273.5,-56.5 216.5,-56.5"/>
<text text-anchor="middle" x="245" y="-63.5" font-family="Helvetica,sans-Serif" font-size="10.00">Level.cpp</text>
</a>
</g>
</g>
<!-- Node5&#45;&gt;Node9 -->
<g id="edge8" class="edge">
<title>Node5&#45;&gt;Node9</title>
<path fill="none" stroke="midnightblue" d="M276.89,-104.43C268.82,-94.97 259.04,-83.48 252.45,-75.75"/>
<polygon fill="midnightblue" stroke="midnightblue" points="274.25,-106.74 283.4,-112.08 279.58,-102.2 274.25,-106.74"/>
</g>
<!-- Node10 -->
<g id="node10" class="node">
<title>Node10</title>
<g id="a_node10"><a xlink:href="_nemo_8cpp.html" target="_top" xlink:title=" ">
<polygon fill="none" stroke="black" points="410.5,-56.5 410.5,-75.5 471.5,-75.5 471.5,-56.5 410.5,-56.5"/>
<text text-anchor="middle" x="441" y="-63.5" font-family="Helvetica,sans-Serif" font-size="10.00">Nemo.cpp</text>
</a>
</g>
</g>
<!-- Node5&#45;&gt;Node10 -->
<g id="edge9" class="edge">
<title>Node5&#45;&gt;Node10</title>
<path fill="none" stroke="midnightblue" d="M324.22,-109.04C352.45,-98.88 392.26,-84.55 417.34,-75.52"/>
<polygon fill="midnightblue" stroke="midnightblue" points="322.99,-105.76 314.77,-112.44 325.36,-112.35 322.99,-105.76"/>
</g>
<!-- Node7 -->
<g id="node7" class="node">
<title>Node7</title>
<g id="a_node7"><a xlink:href="_collision_8cpp.html" target="_top" xlink:title=" ">
<polygon fill="none" stroke="black" points="325,-0.5 325,-19.5 397,-19.5 397,-0.5 325,-0.5"/>
<text text-anchor="middle" x="361" y="-7.5" font-family="Helvetica,sans-Serif" font-size="10.00">Collision.cpp</text>
</a>
</g>
</g>
<!-- Node6&#45;&gt;Node7 -->
<g id="edge6" class="edge">
<title>Node6&#45;&gt;Node7</title>
<path fill="none" stroke="midnightblue" d="M361,-45.8C361,-36.91 361,-26.78 361,-19.75"/>
<polygon fill="midnightblue" stroke="midnightblue" points="357.5,-46.08 361,-56.08 364.5,-46.08 357.5,-46.08"/>
</g>
<!-- Node6&#45;&gt;Node8 -->
<g id="edge7" class="edge">
<title>Node6&#45;&gt;Node8</title>
<path fill="none" stroke="midnightblue" d="M392.48,-52.77C418.59,-42.63 455.04,-28.47 478.08,-19.52"/>
<polygon fill="midnightblue" stroke="midnightblue" points="391.08,-49.56 383.02,-56.44 393.61,-56.08 391.08,-49.56"/>
</g>
<!-- Node12&#45;&gt;Node5 -->
<g id="edge13" class="edge">
<title>Node12&#45;&gt;Node5</title>
<path fill="none" stroke="midnightblue" d="M160.05,-165.34C192.55,-154.84 239.4,-139.69 267.36,-130.64"/>
<polygon fill="midnightblue" stroke="midnightblue" points="158.9,-162.04 150.46,-168.44 161.05,-168.7 158.9,-162.04"/>
</g>
<!-- Node13 -->
<g id="node13" class="node">
<title>Node13</title>
<g id="a_node13"><a xlink:href="_combat_2_pharaoh_8cpp.html" target="_top" xlink:title=" ">
<polygon fill="none" stroke="black" points="88.5,-112.5 88.5,-131.5 159.5,-131.5 159.5,-112.5 88.5,-112.5"/>
<text text-anchor="middle" x="124" y="-119.5" font-family="Helvetica,sans-Serif" font-size="10.00">Pharaoh.cpp</text>
</a>
</g>
</g>
<!-- Node12&#45;&gt;Node13 -->
<g id="edge14" class="edge">
<title>Node12&#45;&gt;Node13</title>
<path fill="none" stroke="midnightblue" d="M124,-157.8C124,-148.91 124,-138.78 124,-131.75"/>
<polygon fill="midnightblue" stroke="midnightblue" points="120.5,-158.08 124,-168.08 127.5,-158.08 120.5,-158.08"/>
</g>
<!-- Node14&#45;&gt;Node5 -->
<g id="edge16" class="edge">
<title>Node14&#45;&gt;Node5</title>
<path fill="none" stroke="midnightblue" d="M366.92,-163.59C348.24,-153.61 323.3,-140.27 307.19,-131.65"/>
<polygon fill="midnightblue" stroke="midnightblue" points="365.3,-166.7 375.77,-168.32 368.6,-160.52 365.3,-166.7"/>
</g>
<!-- Node15 -->
<g id="node15" class="node">
<title>Node15</title>
<g id="a_node15"><a xlink:href="_player_8cpp.html" target="_top" xlink:title=" ">
<polygon fill="none" stroke="black" points="332.5,-112.5 332.5,-131.5 395.5,-131.5 395.5,-112.5 332.5,-112.5"/>
<text text-anchor="middle" x="364" y="-119.5" font-family="Helvetica,sans-Serif" font-size="10.00">Player.cpp</text>
</a>
</g>
</g>
<!-- Node14&#45;&gt;Node15 -->
<g id="edge17" class="edge">
<title>Node14&#45;&gt;Node15</title>
<path fill="none" stroke="midnightblue" d="M382.66,-158.98C377.91,-149.82 372.34,-139.09 368.54,-131.75"/>
<polygon fill="midnightblue" stroke="midnightblue" points="379.67,-160.82 387.38,-168.08 385.88,-157.59 379.67,-160.82"/>
</g>
<!-- Node16&#45;&gt;Node5 -->
<g id="edge19" class="edge">
<title>Node16&#45;&gt;Node5</title>
<path fill="none" stroke="midnightblue" d="M85.78,-167.63C133.01,-157.03 224.04,-137.4 267.3,-128.09"/>
<polygon fill="midnightblue" stroke="midnightblue" points="84.84,-164.26 75.86,-169.87 86.38,-171.08 84.84,-164.26"/>
</g>
<!-- Node17 -->
<g id="node17" class="node">
<title>Node17</title>
<g id="a_node17"><a xlink:href="_combat_2_shadow_8cpp.html" target="_top" xlink:title=" ">
<polygon fill="none" stroke="black" points="0,-112.5 0,-131.5 70,-131.5 70,-112.5 0,-112.5"/>
<text text-anchor="middle" x="35" y="-119.5" font-family="Helvetica,sans-Serif" font-size="10.00">Shadow.cpp</text>
</a>
</g>
</g>
<!-- Node16&#45;&gt;Node17 -->
<g id="edge20" class="edge">
<title>Node16&#45;&gt;Node17</title>
<path fill="none" stroke="midnightblue" d="M42.15,-158.1C40.32,-149.14 38.23,-138.86 36.78,-131.75"/>
<polygon fill="midnightblue" stroke="midnightblue" points="38.76,-158.98 44.18,-168.08 45.62,-157.59 38.76,-158.98"/>
</g>
<!-- Node18&#45;&gt;Node5 -->
<g id="edge24" class="edge">
<title>Node18&#45;&gt;Node5</title>
<path fill="none" stroke="midnightblue" d="M465.02,-168.23C429.47,-159.28 372.84,-144.9 324,-132 321.01,-131.21 317.88,-130.37 314.78,-129.53"/>
<polygon fill="midnightblue" stroke="midnightblue" points="464.35,-171.67 474.9,-170.72 466.06,-164.88 464.35,-171.67"/>
</g>
<!-- Node18&#45;&gt;Node6 -->
<g id="edge23" class="edge">
<title>Node18&#45;&gt;Node6</title>
<path fill="none" stroke="midnightblue" d="M481.19,-162.12C451.69,-138.77 395.46,-94.27 371.86,-75.59"/>
<polygon fill="midnightblue" stroke="midnightblue" points="479.08,-164.91 489.09,-168.37 483.42,-159.42 479.08,-164.91"/>
</g>
<!-- Node18&#45;&gt;Node8 -->
<g id="edge29" class="edge">
<title>Node18&#45;&gt;Node8</title>
<path fill="none" stroke="midnightblue" d="M500,-157.93C500,-121.92 500,-45.23 500,-19.57"/>
<polygon fill="midnightblue" stroke="midnightblue" points="496.5,-158.08 500,-168.08 503.5,-158.08 496.5,-158.08"/>
</g>
<!-- Node18&#45;&gt;Node10 -->
<g id="edge25" class="edge">
<title>Node18&#45;&gt;Node10</title>
<path fill="none" stroke="midnightblue" d="M490.52,-159.32C477.67,-135.37 455.24,-93.55 445.61,-75.59"/>
<polygon fill="midnightblue" stroke="midnightblue" points="487.56,-161.21 495.37,-168.37 493.73,-157.9 487.56,-161.21"/>
</g>
<!-- Node19 -->
<g id="node19" class="node">
<title>Node19</title>
<g id="a_node19"><a xlink:href="_puzzle_8h.html" target="_top" xlink:title=" ">
<polygon fill="none" stroke="black" points="533.5,-112.5 533.5,-131.5 588.5,-131.5 588.5,-112.5 533.5,-112.5"/>
<text text-anchor="middle" x="561" y="-119.5" font-family="Helvetica,sans-Serif" font-size="10.00">Puzzle.h</text>
</a>
</g>
</g>
<!-- Node18&#45;&gt;Node19 -->
<g id="edge26" class="edge">
<title>Node18&#45;&gt;Node19</title>
<path fill="none" stroke="midnightblue" d="M517.47,-161.54C528.34,-151.91 541.94,-139.87 551.02,-131.83"/>
<polygon fill="midnightblue" stroke="midnightblue" points="514.97,-159.07 509.8,-168.32 519.61,-164.32 514.97,-159.07"/>
</g>
<!-- Node19&#45;&gt;Node8 -->
<g id="edge28" class="edge">
<title>Node19&#45;&gt;Node8</title>
<path fill="none" stroke="midnightblue" d="M581.57,-106.11C597.18,-92.91 614.21,-73.14 603,-56 586.54,-30.85 552.61,-19.68 528.19,-14.76"/>
<polygon fill="midnightblue" stroke="midnightblue" points="579.35,-103.4 573.69,-112.36 583.7,-108.88 579.35,-103.4"/>
</g>
<!-- Node20 -->
<g id="node20" class="node">
<title>Node20</title>
<g id="a_node20"><a xlink:href="_puzzle_8cpp.html" target="_top" xlink:title=" ">
<polygon fill="none" stroke="black" points="528.5,-56.5 528.5,-75.5 593.5,-75.5 593.5,-56.5 528.5,-56.5"/>
<text text-anchor="middle" x="561" y="-63.5" font-family="Helvetica,sans-Serif" font-size="10.00">Puzzle.cpp</text>
</a>
</g>
</g>
<!-- Node19&#45;&gt;Node20 -->
<g id="edge27" class="edge">
<title>Node19&#45;&gt;Node20</title>
<path fill="none" stroke="midnightblue" d="M561,-101.8C561,-92.91 561,-82.78 561,-75.75"/>
<polygon fill="midnightblue" stroke="midnightblue" points="557.5,-102.08 561,-112.08 564.5,-102.08 557.5,-102.08"/>
</g>
</g>
</svg>
