<?xml version="1.0" encoding="UTF-8" standalone="no"?>
<!DOCTYPE svg PUBLIC "-//W3C//DTD SVG 1.1//EN"
 "http://www.w3.org/Graphics/SVG/1.1/DTD/svg11.dtd">
<!-- Generated by graphviz version 3.0.0 (20220226.1711)
 -->
<!-- Title: Sprite.h Pages: 1 -->
<svg width="205pt" height="140pt"
 viewBox="0.00 0.00 205.00 140.00" xmlns="http://www.w3.org/2000/svg" xmlns:xlink="http://www.w3.org/1999/xlink">
<g id="graph0" class="graph" transform="scale(1 1) rotate(0) translate(4 136)">
<title>Sprite.h</title>
<!-- Node1 -->
<g id="node1" class="node">
<title>Node1</title>
<g id="a_node1"><a xlink:title=" ">
<polygon fill="#bfbfbf" stroke="black" points="82.5,-112.5 82.5,-131.5 132.5,-131.5 132.5,-112.5 82.5,-112.5"/>
<text text-anchor="middle" x="107.5" y="-119.5" font-family="Helvetica,sans-Serif" font-size="10.00">Sprite.h</text>
</a>
</g>
</g>
<!-- Node2 -->
<g id="node2" class="node">
<title>Node2</title>
<g id="a_node2"><a xlink:href="_nemo_8h.html" target="_top" xlink:title=" ">
<polygon fill="none" stroke="black" points="29.5,-56.5 29.5,-75.5 79.5,-75.5 79.5,-56.5 29.5,-56.5"/>
<text text-anchor="middle" x="54.5" y="-63.5" font-family="Helvetica,sans-Serif" font-size="10.00">Nemo.h</text>
</a>
</g>
</g>
<!-- Node1&#45;&gt;Node2 -->
<g id="edge1" class="edge">
<title>Node1&#45;&gt;Node2</title>
<path fill="none" stroke="midnightblue" d="M91.52,-104.72C82.18,-95.2 70.75,-83.56 63.09,-75.75"/>
<polygon fill="midnightblue" stroke="midnightblue" points="89.25,-107.4 98.75,-112.08 94.24,-102.49 89.25,-107.4"/>
</g>
<!-- Node4 -->
<g id="node4" class="node">
<title>Node4</title>
<g id="a_node4"><a xlink:href="main_8cpp.html" target="_top" xlink:title=" ">
<polygon fill="none" stroke="black" points="79.5,-0.5 79.5,-19.5 135.5,-19.5 135.5,-0.5 79.5,-0.5"/>
<text text-anchor="middle" x="107.5" y="-7.5" font-family="Helvetica,sans-Serif" font-size="10.00">main.cpp</text>
</a>
</g>
</g>
<!-- Node1&#45;&gt;Node4 -->
<g id="edge5" class="edge">
<title>Node1&#45;&gt;Node4</title>
<path fill="none" stroke="midnightblue" d="M107.5,-102.35C107.5,-78.25 107.5,-37.31 107.5,-19.59"/>
<polygon fill="midnightblue" stroke="midnightblue" points="104,-102.37 107.5,-112.37 111,-102.37 104,-102.37"/>
</g>
<!-- Node5 -->
<g id="node5" class="node">
<title>Node5</title>
<g id="a_node5"><a xlink:href="_sprite_8cpp.html" target="_top" xlink:title=" ">
<polygon fill="none" stroke="black" points="136,-56.5 136,-75.5 197,-75.5 197,-56.5 136,-56.5"/>
<text text-anchor="middle" x="166.5" y="-63.5" font-family="Helvetica,sans-Serif" font-size="10.00">Sprite.cpp</text>
</a>
</g>
</g>
<!-- Node1&#45;&gt;Node5 -->
<g id="edge4" class="edge">
<title>Node1&#45;&gt;Node5</title>
<path fill="none" stroke="midnightblue" d="M124.39,-105.54C134.91,-95.91 148.07,-83.87 156.85,-75.83"/>
<polygon fill="midnightblue" stroke="midnightblue" points="121.99,-102.99 116.98,-112.32 126.72,-108.15 121.99,-102.99"/>
</g>
<!-- Node3 -->
<g id="node3" class="node">
<title>Node3</title>
<g id="a_node3"><a xlink:href="_nemo_8cpp.html" target="_top" xlink:title=" ">
<polygon fill="none" stroke="black" points="0,-0.5 0,-19.5 61,-19.5 61,-0.5 0,-0.5"/>
<text text-anchor="middle" x="30.5" y="-7.5" font-family="Helvetica,sans-Serif" font-size="10.00">Nemo.cpp</text>
</a>
</g>
</g>
<!-- Node2&#45;&gt;Node3 -->
<g id="edge2" class="edge">
<title>Node2&#45;&gt;Node3</title>
<path fill="none" stroke="midnightblue" d="M46.36,-46.69C42.32,-37.59 37.62,-27.01 34.39,-19.75"/>
<polygon fill="midnightblue" stroke="midnightblue" points="43.28,-48.37 50.54,-56.08 49.67,-45.52 43.28,-48.37"/>
</g>
<!-- Node2&#45;&gt;Node4 -->
<g id="edge3" class="edge">
<title>Node2&#45;&gt;Node4</title>
<path fill="none" stroke="midnightblue" d="M70.48,-48.72C79.82,-39.2 91.25,-27.56 98.91,-19.75"/>
<polygon fill="midnightblue" stroke="midnightblue" points="67.76,-46.49 63.25,-56.08 72.75,-51.4 67.76,-46.49"/>
</g>
</g>
</svg>
