<?xml version="1.0" encoding="UTF-8" standalone="no"?>
<!DOCTYPE svg PUBLIC "-//W3C//DTD SVG 1.1//EN"
 "http://www.w3.org/Graphics/SVG/1.1/DTD/svg11.dtd">
<!-- Generated by graphviz version 3.0.0 (20220226.1711)
 -->
<!-- Title: Sprite.h Pages: 1 -->
<svg width="674pt" height="420pt"
 viewBox="0.00 0.00 673.50 420.00" xmlns="http://www.w3.org/2000/svg" xmlns:xlink="http://www.w3.org/1999/xlink">
<g id="graph0" class="graph" transform="scale(1 1) rotate(0) translate(4 416)">
<title>Sprite.h</title>
<!-- Node1 -->
<g id="node1" class="node">
<title>Node1</title>
<g id="a_node1"><a xlink:title=" ">
<polygon fill="#bfbfbf" stroke="black" points="448,-392.5 448,-411.5 498,-411.5 498,-392.5 448,-392.5"/>
<text text-anchor="middle" x="473" y="-399.5" font-family="Helvetica,sans-Serif" font-size="10.00">Sprite.h</text>
</a>
</g>
</g>
<!-- Node2 -->
<g id="node2" class="node">
<title>Node2</title>
<g id="a_node2"><a xlink:href="_game_character_8h.html" target="_top" xlink:title=" ">
<polygon fill="none" stroke="black" points="200.5,-336.5 200.5,-355.5 293.5,-355.5 293.5,-336.5 200.5,-336.5"/>
<text text-anchor="middle" x="247" y="-343.5" font-family="Helvetica,sans-Serif" font-size="10.00">GameCharacter.h</text>
</a>
</g>
</g>
<!-- Node1&#45;&gt;Node2 -->
<g id="edge1" class="edge">
<title>Node1&#45;&gt;Node2</title>
<path fill="none" stroke="midnightblue" d="M438.14,-392.67C396.03,-382.61 325.53,-365.76 282.94,-355.59"/>
<polygon fill="midnightblue" stroke="midnightblue" points="437.41,-396.09 447.95,-395.01 439.04,-389.29 437.41,-396.09"/>
</g>
<!-- Node5 -->
<g id="node5" class="node">
<title>Node5</title>
<g id="a_node5"><a xlink:href="_level_8h.html" target="_top" xlink:title=" ">
<polygon fill="none" stroke="black" points="267.5,-224.5 267.5,-243.5 314.5,-243.5 314.5,-224.5 267.5,-224.5"/>
<text text-anchor="middle" x="291" y="-231.5" font-family="Helvetica,sans-Serif" font-size="10.00">Level.h</text>
</a>
</g>
</g>
<!-- Node1&#45;&gt;Node5 -->
<g id="edge27" class="edge">
<title>Node1&#45;&gt;Node5</title>
<path fill="none" stroke="midnightblue" d="M471.06,-382.11C467.34,-355.66 456.84,-307.75 428,-280 419.63,-271.95 351.46,-251.94 314.54,-241.53"/>
<polygon fill="midnightblue" stroke="midnightblue" points="467.61,-382.8 472.3,-392.3 474.56,-381.95 467.61,-382.8"/>
</g>
<!-- Node10 -->
<g id="node10" class="node">
<title>Node10</title>
<g id="a_node10"><a xlink:href="main_8cpp.html" target="_top" xlink:title=" ">
<polygon fill="none" stroke="black" points="483,-0.5 483,-19.5 539,-19.5 539,-0.5 483,-0.5"/>
<text text-anchor="middle" x="511" y="-7.5" font-family="Helvetica,sans-Serif" font-size="10.00">main.cpp</text>
</a>
</g>
</g>
<!-- Node1&#45;&gt;Node10 -->
<g id="edge36" class="edge">
<title>Node1&#45;&gt;Node10</title>
<path fill="none" stroke="midnightblue" d="M499.86,-387.27C530.38,-369.54 576,-335.57 576,-291 576,-291 576,-291 576,-121 576,-77.97 538.67,-36.98 520.59,-19.66"/>
<polygon fill="midnightblue" stroke="midnightblue" points="497.97,-384.32 490.94,-392.25 501.38,-390.43 497.97,-384.32"/>
</g>
<!-- Node18 -->
<g id="node18" class="node">
<title>Node18</title>
<g id="a_node18"><a xlink:href="_player_8h.html" target="_top" xlink:title=" ">
<polygon fill="none" stroke="black" points="365.5,-280.5 365.5,-299.5 418.5,-299.5 418.5,-280.5 365.5,-280.5"/>
<text text-anchor="middle" x="392" y="-287.5" font-family="Helvetica,sans-Serif" font-size="10.00">Player.h</text>
</a>
</g>
</g>
<!-- Node1&#45;&gt;Node18 -->
<g id="edge34" class="edge">
<title>Node1&#45;&gt;Node18</title>
<path fill="none" stroke="midnightblue" d="M457.51,-384.88C449.8,-376.54 440.54,-366.03 433,-356 418.57,-336.8 404.16,-312.47 396.88,-299.71"/>
<polygon fill="midnightblue" stroke="midnightblue" points="455.18,-387.52 464.58,-392.4 460.28,-382.72 455.18,-387.52"/>
</g>
<!-- Node22 -->
<g id="node22" class="node">
<title>Node22</title>
<g id="a_node22"><a xlink:href="_nemo_8h.html" target="_top" xlink:title=" ">
<polygon fill="none" stroke="black" points="475,-280.5 475,-299.5 525,-299.5 525,-280.5 475,-280.5"/>
<text text-anchor="middle" x="500" y="-287.5" font-family="Helvetica,sans-Serif" font-size="10.00">Nemo.h</text>
</a>
</g>
</g>
<!-- Node1&#45;&gt;Node22 -->
<g id="edge28" class="edge">
<title>Node1&#45;&gt;Node22</title>
<path fill="none" stroke="midnightblue" d="M477.58,-382.35C483.49,-358.25 493.54,-317.31 497.89,-299.59"/>
<polygon fill="midnightblue" stroke="midnightblue" points="474.1,-381.82 475.12,-392.37 480.9,-383.49 474.1,-381.82"/>
</g>
<!-- Node23 -->
<g id="node23" class="node">
<title>Node23</title>
<g id="a_node23"><a xlink:href="_sprite_8cpp.html" target="_top" xlink:title=" ">
<polygon fill="none" stroke="black" points="604.5,-336.5 604.5,-355.5 665.5,-355.5 665.5,-336.5 604.5,-336.5"/>
<text text-anchor="middle" x="635" y="-343.5" font-family="Helvetica,sans-Serif" font-size="10.00">Sprite.cpp</text>
</a>
</g>
</g>
<!-- Node1&#45;&gt;Node23 -->
<g id="edge35" class="edge">
<title>Node1&#45;&gt;Node23</title>
<path fill="none" stroke="midnightblue" d="M508.11,-389.3C538.59,-379.14 582.01,-364.66 609.33,-355.56"/>
<polygon fill="midnightblue" stroke="midnightblue" points="506.69,-386.08 498.31,-392.56 508.91,-392.72 506.69,-386.08"/>
</g>
<!-- Node3 -->
<g id="node3" class="node">
<title>Node3</title>
<g id="a_node3"><a xlink:href="_game_character_8cpp.html" target="_top" xlink:title=" ">
<polygon fill="none" stroke="black" points="243,-280.5 243,-299.5 347,-299.5 347,-280.5 243,-280.5"/>
<text text-anchor="middle" x="295" y="-287.5" font-family="Helvetica,sans-Serif" font-size="10.00">GameCharacter.cpp</text>
</a>
</g>
</g>
<!-- Node2&#45;&gt;Node3 -->
<g id="edge2" class="edge">
<title>Node2&#45;&gt;Node3</title>
<path fill="none" stroke="midnightblue" d="M261.73,-328.43C270.14,-318.97 280.35,-307.48 287.22,-299.75"/>
<polygon fill="midnightblue" stroke="midnightblue" points="258.95,-326.28 254.93,-336.08 264.19,-330.93 258.95,-326.28"/>
</g>
<!-- Node4 -->
<g id="node4" class="node">
<title>Node4</title>
<g id="a_node4"><a xlink:href="_combat_2_mumy_8h.html" target="_top" xlink:title=" ">
<polygon fill="none" stroke="black" points="173,-280.5 173,-299.5 225,-299.5 225,-280.5 173,-280.5"/>
<text text-anchor="middle" x="199" y="-287.5" font-family="Helvetica,sans-Serif" font-size="10.00">Mumy.h</text>
</a>
</g>
</g>
<!-- Node2&#45;&gt;Node4 -->
<g id="edge3" class="edge">
<title>Node2&#45;&gt;Node4</title>
<path fill="none" stroke="midnightblue" d="M232.27,-328.43C223.86,-318.97 213.65,-307.48 206.78,-299.75"/>
<polygon fill="midnightblue" stroke="midnightblue" points="229.81,-330.93 239.07,-336.08 235.05,-326.28 229.81,-330.93"/>
</g>
<!-- Node16 -->
<g id="node16" class="node">
<title>Node16</title>
<g id="a_node16"><a xlink:href="_combat_2_pharaoh_8h.html" target="_top" xlink:title=" ">
<polygon fill="none" stroke="black" points="93.5,-280.5 93.5,-299.5 154.5,-299.5 154.5,-280.5 93.5,-280.5"/>
<text text-anchor="middle" x="124" y="-287.5" font-family="Helvetica,sans-Serif" font-size="10.00">Pharaoh.h</text>
</a>
</g>
</g>
<!-- Node2&#45;&gt;Node16 -->
<g id="edge18" class="edge">
<title>Node2&#45;&gt;Node16</title>
<path fill="none" stroke="midnightblue" d="M218.23,-332.37C195.19,-322.26 163.52,-308.35 143.4,-299.52"/>
<polygon fill="midnightblue" stroke="midnightblue" points="216.95,-335.63 227.51,-336.44 219.76,-329.22 216.95,-335.63"/>
</g>
<!-- Node2&#45;&gt;Node18 -->
<g id="edge21" class="edge">
<title>Node2&#45;&gt;Node18</title>
<path fill="none" stroke="midnightblue" d="M279.48,-332.91C306.74,-322.75 344.99,-308.51 369.13,-299.52"/>
<polygon fill="midnightblue" stroke="midnightblue" points="278.13,-329.67 269.98,-336.44 280.57,-336.23 278.13,-329.67"/>
</g>
<!-- Node20 -->
<g id="node20" class="node">
<title>Node20</title>
<g id="a_node20"><a xlink:href="_combat_2_shadow_8h.html" target="_top" xlink:title=" ">
<polygon fill="none" stroke="black" points="16.5,-280.5 16.5,-299.5 75.5,-299.5 75.5,-280.5 16.5,-280.5"/>
<text text-anchor="middle" x="46" y="-287.5" font-family="Helvetica,sans-Serif" font-size="10.00">Shadow.h</text>
</a>
</g>
</g>
<!-- Node2&#45;&gt;Node20 -->
<g id="edge24" class="edge">
<title>Node2&#45;&gt;Node20</title>
<path fill="none" stroke="midnightblue" d="M205.24,-333.78C166.56,-323.39 110,-308.2 75.73,-298.99"/>
<polygon fill="midnightblue" stroke="midnightblue" points="204.59,-337.23 215.15,-336.44 206.4,-330.47 204.59,-337.23"/>
</g>
<!-- Node4&#45;&gt;Node5 -->
<g id="edge4" class="edge">
<title>Node4&#45;&gt;Node5</title>
<path fill="none" stroke="midnightblue" d="M222.55,-275.18C239.48,-265.24 261.78,-252.15 276.26,-243.65"/>
<polygon fill="midnightblue" stroke="midnightblue" points="220.63,-272.24 213.78,-280.32 224.18,-278.28 220.63,-272.24"/>
</g>
<!-- Node15 -->
<g id="node15" class="node">
<title>Node15</title>
<g id="a_node15"><a xlink:href="_combat_2_mumy_8cpp.html" target="_top" xlink:title=" ">
<polygon fill="none" stroke="black" points="178,-224.5 178,-243.5 240,-243.5 240,-224.5 178,-224.5"/>
<text text-anchor="middle" x="209" y="-231.5" font-family="Helvetica,sans-Serif" font-size="10.00">Mumy.cpp</text>
</a>
</g>
</g>
<!-- Node4&#45;&gt;Node15 -->
<g id="edge17" class="edge">
<title>Node4&#45;&gt;Node15</title>
<path fill="none" stroke="midnightblue" d="M202.5,-270.1C204.16,-261.14 206.06,-250.86 207.38,-243.75"/>
<polygon fill="midnightblue" stroke="midnightblue" points="199.03,-269.61 200.65,-280.08 205.91,-270.89 199.03,-269.61"/>
</g>
<!-- Node6 -->
<g id="node6" class="node">
<title>Node6</title>
<g id="a_node6"><a xlink:href="_collision_8h.html" target="_top" xlink:title=" ">
<polygon fill="none" stroke="black" points="331,-112.5 331,-131.5 393,-131.5 393,-112.5 331,-112.5"/>
<text text-anchor="middle" x="362" y="-119.5" font-family="Helvetica,sans-Serif" font-size="10.00">Collision.h</text>
</a>
</g>
</g>
<!-- Node5&#45;&gt;Node6 -->
<g id="edge5" class="edge">
<title>Node5&#45;&gt;Node6</title>
<path fill="none" stroke="midnightblue" d="M301,-215.51C308.67,-202.3 319.67,-183.8 330,-168 338.4,-155.16 348.8,-140.79 355.42,-131.82"/>
<polygon fill="midnightblue" stroke="midnightblue" points="297.8,-214.04 295.84,-224.46 303.87,-217.54 297.8,-214.04"/>
</g>
<!-- Node5&#45;&gt;Node10 -->
<g id="edge16" class="edge">
<title>Node5&#45;&gt;Node10</title>
<path fill="none" stroke="midnightblue" d="M308.01,-217.32C322.64,-203.97 344.42,-184.39 364,-168 414.73,-125.54 440,-127.91 481,-76 495.02,-58.25 504.27,-32.88 508.44,-19.7"/>
<polygon fill="midnightblue" stroke="midnightblue" points="305.3,-215.06 300.29,-224.4 310.03,-220.22 305.3,-215.06"/>
</g>
<!-- Node11 -->
<g id="node11" class="node">
<title>Node11</title>
<g id="a_node11"><a xlink:href="_level_8cpp.html" target="_top" xlink:title=" ">
<polygon fill="none" stroke="black" points="158.5,-168.5 158.5,-187.5 215.5,-187.5 215.5,-168.5 158.5,-168.5"/>
<text text-anchor="middle" x="187" y="-175.5" font-family="Helvetica,sans-Serif" font-size="10.00">Level.cpp</text>
</a>
</g>
</g>
<!-- Node5&#45;&gt;Node11 -->
<g id="edge10" class="edge">
<title>Node5&#45;&gt;Node11</title>
<path fill="none" stroke="midnightblue" d="M265.17,-219.59C245.94,-209.61 220.26,-196.27 203.67,-187.65"/>
<polygon fill="midnightblue" stroke="midnightblue" points="263.8,-222.82 274.29,-224.32 267.03,-216.61 263.8,-222.82"/>
</g>
<!-- Node12 -->
<g id="node12" class="node">
<title>Node12</title>
<g id="a_node12"><a xlink:href="_map_8h.html" target="_top" xlink:title=" ">
<polygon fill="none" stroke="black" points="234,-168.5 234,-187.5 278,-187.5 278,-168.5 234,-168.5"/>
<text text-anchor="middle" x="256" y="-175.5" font-family="Helvetica,sans-Serif" font-size="10.00">Map.h</text>
</a>
</g>
</g>
<!-- Node5&#45;&gt;Node12 -->
<g id="edge11" class="edge">
<title>Node5&#45;&gt;Node12</title>
<path fill="none" stroke="midnightblue" d="M279.7,-215.57C273.68,-206.27 266.53,-195.25 261.67,-187.75"/>
<polygon fill="midnightblue" stroke="midnightblue" points="276.84,-217.6 285.22,-224.08 282.72,-213.79 276.84,-217.6"/>
</g>
<!-- Node14 -->
<g id="node14" class="node">
<title>Node14</title>
<g id="a_node14"><a xlink:href="_nemo_8cpp.html" target="_top" xlink:title=" ">
<polygon fill="none" stroke="black" points="372.5,-168.5 372.5,-187.5 433.5,-187.5 433.5,-168.5 372.5,-168.5"/>
<text text-anchor="middle" x="403" y="-175.5" font-family="Helvetica,sans-Serif" font-size="10.00">Nemo.cpp</text>
</a>
</g>
</g>
<!-- Node5&#45;&gt;Node14 -->
<g id="edge15" class="edge">
<title>Node5&#45;&gt;Node14</title>
<path fill="none" stroke="midnightblue" d="M318.25,-219.86C339.02,-209.85 367.02,-196.35 385.05,-187.65"/>
<polygon fill="midnightblue" stroke="midnightblue" points="316.48,-216.83 308.99,-224.32 319.52,-223.13 316.48,-216.83"/>
</g>
<!-- Node7 -->
<g id="node7" class="node">
<title>Node7</title>
<g id="a_node7"><a xlink:href="_collision_8cpp.html" target="_top" xlink:title=" ">
<polygon fill="none" stroke="black" points="326,-56.5 326,-75.5 398,-75.5 398,-56.5 326,-56.5"/>
<text text-anchor="middle" x="362" y="-63.5" font-family="Helvetica,sans-Serif" font-size="10.00">Collision.cpp</text>
</a>
</g>
</g>
<!-- Node6&#45;&gt;Node7 -->
<g id="edge6" class="edge">
<title>Node6&#45;&gt;Node7</title>
<path fill="none" stroke="midnightblue" d="M362,-101.8C362,-92.91 362,-82.78 362,-75.75"/>
<polygon fill="midnightblue" stroke="midnightblue" points="358.5,-102.08 362,-112.08 365.5,-102.08 358.5,-102.08"/>
</g>
<!-- Node8 -->
<g id="node8" class="node">
<title>Node8</title>
<g id="a_node8"><a xlink:href="_puzzle_8h.html" target="_top" xlink:title=" ">
<polygon fill="none" stroke="black" points="416.5,-56.5 416.5,-75.5 471.5,-75.5 471.5,-56.5 416.5,-56.5"/>
<text text-anchor="middle" x="444" y="-63.5" font-family="Helvetica,sans-Serif" font-size="10.00">Puzzle.h</text>
</a>
</g>
</g>
<!-- Node6&#45;&gt;Node8 -->
<g id="edge7" class="edge">
<title>Node6&#45;&gt;Node8</title>
<path fill="none" stroke="midnightblue" d="M383.83,-106.62C398.81,-96.76 418.2,-83.99 430.86,-75.65"/>
<polygon fill="midnightblue" stroke="midnightblue" points="381.6,-103.9 375.17,-112.32 385.45,-109.75 381.6,-103.9"/>
</g>
<!-- Node9 -->
<g id="node9" class="node">
<title>Node9</title>
<g id="a_node9"><a xlink:href="_puzzle_8cpp.html" target="_top" xlink:title=" ">
<polygon fill="none" stroke="black" points="399.5,-0.5 399.5,-19.5 464.5,-19.5 464.5,-0.5 399.5,-0.5"/>
<text text-anchor="middle" x="432" y="-7.5" font-family="Helvetica,sans-Serif" font-size="10.00">Puzzle.cpp</text>
</a>
</g>
</g>
<!-- Node8&#45;&gt;Node9 -->
<g id="edge8" class="edge">
<title>Node8&#45;&gt;Node9</title>
<path fill="none" stroke="midnightblue" d="M439.8,-46.1C437.81,-37.14 435.52,-26.86 433.94,-19.75"/>
<polygon fill="midnightblue" stroke="midnightblue" points="436.43,-47.08 442.02,-56.08 443.27,-45.56 436.43,-47.08"/>
</g>
<!-- Node8&#45;&gt;Node10 -->
<g id="edge9" class="edge">
<title>Node8&#45;&gt;Node10</title>
<path fill="none" stroke="midnightblue" d="M462.83,-49.82C474.84,-40.15 489.97,-27.95 500.04,-19.83"/>
<polygon fill="midnightblue" stroke="midnightblue" points="460.35,-47.32 454.76,-56.32 464.75,-52.77 460.35,-47.32"/>
</g>
<!-- Node12&#45;&gt;Node6 -->
<g id="edge12" class="edge">
<title>Node12&#45;&gt;Node6</title>
<path fill="none" stroke="midnightblue" d="M282.06,-163.73C301.68,-153.73 328.03,-140.31 345.01,-131.65"/>
<polygon fill="midnightblue" stroke="midnightblue" points="280.35,-160.67 273.03,-168.32 283.53,-166.9 280.35,-160.67"/>
</g>
<!-- Node12&#45;&gt;Node10 -->
<g id="edge14" class="edge">
<title>Node12&#45;&gt;Node10</title>
<path fill="none" stroke="midnightblue" d="M265.08,-159.32C269.33,-151.03 274.44,-141.02 279,-132 296.04,-98.3 287.31,-79.34 317,-56 373.28,-11.75 404.33,-36.46 474,-20 476.83,-19.33 479.78,-18.63 482.73,-17.92"/>
<polygon fill="midnightblue" stroke="midnightblue" points="261.88,-157.89 260.43,-168.38 268.11,-161.08 261.88,-157.89"/>
</g>
<!-- Node13 -->
<g id="node13" class="node">
<title>Node13</title>
<g id="a_node13"><a xlink:href="_map_8cpp.html" target="_top" xlink:title=" ">
<polygon fill="none" stroke="black" points="216,-112.5 216,-131.5 270,-131.5 270,-112.5 216,-112.5"/>
<text text-anchor="middle" x="243" y="-119.5" font-family="Helvetica,sans-Serif" font-size="10.00">Map.cpp</text>
</a>
</g>
</g>
<!-- Node12&#45;&gt;Node13 -->
<g id="edge13" class="edge">
<title>Node12&#45;&gt;Node13</title>
<path fill="none" stroke="midnightblue" d="M251.45,-158.1C249.29,-149.14 246.82,-138.86 245.11,-131.75"/>
<polygon fill="midnightblue" stroke="midnightblue" points="248.11,-159.18 253.85,-168.08 254.92,-157.54 248.11,-159.18"/>
</g>
<!-- Node16&#45;&gt;Node5 -->
<g id="edge19" class="edge">
<title>Node16&#45;&gt;Node5</title>
<path fill="none" stroke="midnightblue" d="M160.05,-277.34C192.55,-266.84 239.4,-251.69 267.36,-242.64"/>
<polygon fill="midnightblue" stroke="midnightblue" points="158.9,-274.04 150.46,-280.44 161.05,-280.7 158.9,-274.04"/>
</g>
<!-- Node17 -->
<g id="node17" class="node">
<title>Node17</title>
<g id="a_node17"><a xlink:href="_combat_2_pharaoh_8cpp.html" target="_top" xlink:title=" ">
<polygon fill="none" stroke="black" points="88.5,-224.5 88.5,-243.5 159.5,-243.5 159.5,-224.5 88.5,-224.5"/>
<text text-anchor="middle" x="124" y="-231.5" font-family="Helvetica,sans-Serif" font-size="10.00">Pharaoh.cpp</text>
</a>
</g>
</g>
<!-- Node16&#45;&gt;Node17 -->
<g id="edge20" class="edge">
<title>Node16&#45;&gt;Node17</title>
<path fill="none" stroke="midnightblue" d="M124,-269.8C124,-260.91 124,-250.78 124,-243.75"/>
<polygon fill="midnightblue" stroke="midnightblue" points="120.5,-270.08 124,-280.08 127.5,-270.08 120.5,-270.08"/>
</g>
<!-- Node18&#45;&gt;Node5 -->
<g id="edge22" class="edge">
<title>Node18&#45;&gt;Node5</title>
<path fill="none" stroke="midnightblue" d="M366.92,-275.59C348.24,-265.61 323.3,-252.27 307.19,-243.65"/>
<polygon fill="midnightblue" stroke="midnightblue" points="365.3,-278.7 375.77,-280.32 368.6,-272.52 365.3,-278.7"/>
</g>
<!-- Node19 -->
<g id="node19" class="node">
<title>Node19</title>
<g id="a_node19"><a xlink:href="_player_8cpp.html" target="_top" xlink:title=" ">
<polygon fill="none" stroke="black" points="332.5,-224.5 332.5,-243.5 395.5,-243.5 395.5,-224.5 332.5,-224.5"/>
<text text-anchor="middle" x="364" y="-231.5" font-family="Helvetica,sans-Serif" font-size="10.00">Player.cpp</text>
</a>
</g>
</g>
<!-- Node18&#45;&gt;Node19 -->
<g id="edge23" class="edge">
<title>Node18&#45;&gt;Node19</title>
<path fill="none" stroke="midnightblue" d="M382.66,-270.98C377.91,-261.82 372.34,-251.09 368.54,-243.75"/>
<polygon fill="midnightblue" stroke="midnightblue" points="379.67,-272.82 387.38,-280.08 385.88,-269.59 379.67,-272.82"/>
</g>
<!-- Node20&#45;&gt;Node5 -->
<g id="edge25" class="edge">
<title>Node20&#45;&gt;Node5</title>
<path fill="none" stroke="midnightblue" d="M85.78,-279.63C133.01,-269.03 224.04,-249.4 267.3,-240.09"/>
<polygon fill="midnightblue" stroke="midnightblue" points="84.84,-276.26 75.86,-281.87 86.38,-283.08 84.84,-276.26"/>
</g>
<!-- Node21 -->
<g id="node21" class="node">
<title>Node21</title>
<g id="a_node21"><a xlink:href="_combat_2_shadow_8cpp.html" target="_top" xlink:title=" ">
<polygon fill="none" stroke="black" points="0,-224.5 0,-243.5 70,-243.5 70,-224.5 0,-224.5"/>
<text text-anchor="middle" x="35" y="-231.5" font-family="Helvetica,sans-Serif" font-size="10.00">Shadow.cpp</text>
</a>
</g>
</g>
<!-- Node20&#45;&gt;Node21 -->
<g id="edge26" class="edge">
<title>Node20&#45;&gt;Node21</title>
<path fill="none" stroke="midnightblue" d="M42.15,-270.1C40.32,-261.14 38.23,-250.86 36.78,-243.75"/>
<polygon fill="midnightblue" stroke="midnightblue" points="38.76,-270.98 44.18,-280.08 45.62,-269.59 38.76,-270.98"/>
</g>
<!-- Node22&#45;&gt;Node5 -->
<g id="edge30" class="edge">
<title>Node22&#45;&gt;Node5</title>
<path fill="none" stroke="midnightblue" d="M465.02,-280.23C429.47,-271.28 372.84,-256.9 324,-244 321.01,-243.21 317.88,-242.37 314.78,-241.53"/>
<polygon fill="midnightblue" stroke="midnightblue" points="464.35,-283.67 474.9,-282.72 466.06,-276.88 464.35,-283.67"/>
</g>
<!-- Node22&#45;&gt;Node6 -->
<g id="edge29" class="edge">
<title>Node22&#45;&gt;Node6</title>
<path fill="none" stroke="midnightblue" d="M493.05,-270.84C481.42,-241.13 457.83,-183.86 443,-168 427.18,-151.08 403.53,-138.96 385.86,-131.59"/>
<polygon fill="midnightblue" stroke="midnightblue" points="489.88,-272.35 496.75,-280.41 496.41,-269.82 489.88,-272.35"/>
</g>
<!-- Node22&#45;&gt;Node8 -->
<g id="edge32" class="edge">
<title>Node22&#45;&gt;Node8</title>
<path fill="none" stroke="midnightblue" d="M496.18,-270.08C493.49,-257.08 489.73,-239.45 486,-224 472.3,-167.22 453.29,-99.61 446.52,-75.81"/>
<polygon fill="midnightblue" stroke="midnightblue" points="492.81,-271.04 498.24,-280.14 499.66,-269.64 492.81,-271.04"/>
</g>
<!-- Node22&#45;&gt;Node10 -->
<g id="edge33" class="edge">
<title>Node22&#45;&gt;Node10</title>
<path fill="none" stroke="midnightblue" d="M510.14,-271.43C521.4,-250.24 538,-213.19 538,-179 538,-179 538,-179 538,-121 538,-82.26 522.01,-38 514.64,-19.66"/>
<polygon fill="midnightblue" stroke="midnightblue" points="507.05,-269.78 505.28,-280.23 513.18,-273.17 507.05,-269.78"/>
</g>
<!-- Node22&#45;&gt;Node14 -->
<g id="edge31" class="edge">
<title>Node22&#45;&gt;Node14</title>
<path fill="none" stroke="midnightblue" d="M480.53,-274.12C470.28,-265.82 457.84,-254.97 448,-244 431.5,-225.61 415.95,-200.95 408.18,-187.92"/>
<polygon fill="midnightblue" stroke="midnightblue" points="478.5,-276.98 488.51,-280.44 482.84,-271.49 478.5,-276.98"/>
</g>
</g>
</svg>
