<?xml version="1.0" encoding="UTF-8" standalone="no"?>
<!DOCTYPE svg PUBLIC "-//W3C//DTD SVG 1.1//EN"
 "http://www.w3.org/Graphics/SVG/1.1/DTD/svg11.dtd">
<!-- Generated by graphviz version 3.0.0 (20220226.1711)
 -->
<!-- Title: UI.h Pages: 1 -->
<svg width="369pt" height="252pt"
 viewBox="0.00 0.00 369.00 252.00" xmlns="http://www.w3.org/2000/svg" xmlns:xlink="http://www.w3.org/1999/xlink">
<g id="graph0" class="graph" transform="scale(1 1) rotate(0) translate(4 248)">
<title>UI.h</title>
<!-- Node1 -->
<g id="node1" class="node">
<title>Node1</title>
<g id="a_node1"><a xlink:title=" ">
<polygon fill="#bfbfbf" stroke="black" points="272,-224.5 272,-243.5 306,-243.5 306,-224.5 272,-224.5"/>
<text text-anchor="middle" x="289" y="-231.5" font-family="Helvetica,sans-Serif" font-size="10.00">UI.h</text>
</a>
</g>
</g>
<!-- Node2 -->
<g id="node2" class="node">
<title>Node2</title>
<g id="a_node2"><a xlink:href="_level_8h.html" target="_top" xlink:title=" ">
<polygon fill="none" stroke="black" points="180.5,-168.5 180.5,-187.5 227.5,-187.5 227.5,-168.5 180.5,-168.5"/>
<text text-anchor="middle" x="204" y="-175.5" font-family="Helvetica,sans-Serif" font-size="10.00">Level.h</text>
</a>
</g>
</g>
<!-- Node1&#45;&gt;Node2 -->
<g id="edge1" class="edge">
<title>Node1&#45;&gt;Node2</title>
<path fill="none" stroke="midnightblue" d="M266.81,-218.9C251.22,-209 230.87,-196.07 217.62,-187.65"/>
<polygon fill="midnightblue" stroke="midnightblue" points="265.03,-221.92 275.34,-224.32 268.78,-216.01 265.03,-221.92"/>
</g>
<!-- Node7 -->
<g id="node7" class="node">
<title>Node7</title>
<g id="a_node7"><a xlink:href="main_8cpp.html" target="_top" xlink:title=" ">
<polygon fill="none" stroke="black" points="158,-0.5 158,-19.5 214,-19.5 214,-0.5 158,-0.5"/>
<text text-anchor="middle" x="186" y="-7.5" font-family="Helvetica,sans-Serif" font-size="10.00">main.cpp</text>
</a>
</g>
</g>
<!-- Node1&#45;&gt;Node7 -->
<g id="edge10" class="edge">
<title>Node1&#45;&gt;Node7</title>
<path fill="none" stroke="midnightblue" d="M289.1,-214.25C288.56,-189.69 285.28,-145.79 270,-112 252.05,-72.31 214.12,-35.62 196.02,-19.55"/>
<polygon fill="midnightblue" stroke="midnightblue" points="285.6,-214.37 289.18,-224.34 292.6,-214.31 285.6,-214.37"/>
</g>
<!-- Node9 -->
<g id="node9" class="node">
<title>Node9</title>
<g id="a_node9"><a xlink:href="_u_i_8cpp.html" target="_top" xlink:title=" ">
<polygon fill="none" stroke="black" points="317,-168.5 317,-187.5 361,-187.5 361,-168.5 317,-168.5"/>
<text text-anchor="middle" x="339" y="-175.5" font-family="Helvetica,sans-Serif" font-size="10.00">UI.cpp</text>
</a>
</g>
</g>
<!-- Node1&#45;&gt;Node9 -->
<g id="edge9" class="edge">
<title>Node1&#45;&gt;Node9</title>
<path fill="none" stroke="midnightblue" d="M304.08,-216.72C312.89,-207.2 323.67,-195.56 330.9,-187.75"/>
<polygon fill="midnightblue" stroke="midnightblue" points="301.48,-214.37 297.26,-224.08 306.62,-219.12 301.48,-214.37"/>
</g>
<!-- Node3 -->
<g id="node3" class="node">
<title>Node3</title>
<g id="a_node3"><a xlink:href="_collision_8h.html" target="_top" xlink:title=" ">
<polygon fill="none" stroke="black" points="85,-112.5 85,-131.5 147,-131.5 147,-112.5 85,-112.5"/>
<text text-anchor="middle" x="116" y="-119.5" font-family="Helvetica,sans-Serif" font-size="10.00">Collision.h</text>
</a>
</g>
</g>
<!-- Node2&#45;&gt;Node3 -->
<g id="edge2" class="edge">
<title>Node2&#45;&gt;Node3</title>
<path fill="none" stroke="midnightblue" d="M181.02,-162.9C164.89,-153 143.82,-140.07 130.1,-131.65"/>
<polygon fill="midnightblue" stroke="midnightblue" points="179.51,-166.08 189.86,-168.32 183.17,-160.11 179.51,-166.08"/>
</g>
<!-- Node2&#45;&gt;Node7 -->
<g id="edge8" class="edge">
<title>Node2&#45;&gt;Node7</title>
<path fill="none" stroke="midnightblue" d="M199.24,-158.59C197.32,-150.49 195.26,-140.82 194,-132 188,-90.11 186.49,-39.41 186.12,-19.56"/>
<polygon fill="midnightblue" stroke="midnightblue" points="195.88,-159.58 201.69,-168.45 202.68,-157.9 195.88,-159.58"/>
</g>
<!-- Node8 -->
<g id="node8" class="node">
<title>Node8</title>
<g id="a_node8"><a xlink:href="_level_8cpp.html" target="_top" xlink:title=" ">
<polygon fill="none" stroke="black" points="203.5,-112.5 203.5,-131.5 260.5,-131.5 260.5,-112.5 203.5,-112.5"/>
<text text-anchor="middle" x="232" y="-119.5" font-family="Helvetica,sans-Serif" font-size="10.00">Level.cpp</text>
</a>
</g>
</g>
<!-- Node2&#45;&gt;Node8 -->
<g id="edge7" class="edge">
<title>Node2&#45;&gt;Node8</title>
<path fill="none" stroke="midnightblue" d="M213.34,-158.98C218.09,-149.82 223.66,-139.09 227.46,-131.75"/>
<polygon fill="midnightblue" stroke="midnightblue" points="210.12,-157.59 208.62,-168.08 216.33,-160.82 210.12,-157.59"/>
</g>
<!-- Node4 -->
<g id="node4" class="node">
<title>Node4</title>
<g id="a_node4"><a xlink:href="_collision_8cpp.html" target="_top" xlink:title=" ">
<polygon fill="none" stroke="black" points="0,-56.5 0,-75.5 72,-75.5 72,-56.5 0,-56.5"/>
<text text-anchor="middle" x="36" y="-63.5" font-family="Helvetica,sans-Serif" font-size="10.00">Collision.cpp</text>
</a>
</g>
</g>
<!-- Node3&#45;&gt;Node4 -->
<g id="edge3" class="edge">
<title>Node3&#45;&gt;Node4</title>
<path fill="none" stroke="midnightblue" d="M94.7,-106.62C80.08,-96.76 61.17,-83.99 48.82,-75.65"/>
<polygon fill="midnightblue" stroke="midnightblue" points="92.9,-109.63 103.15,-112.32 96.82,-103.83 92.9,-109.63"/>
</g>
<!-- Node5 -->
<g id="node5" class="node">
<title>Node5</title>
<g id="a_node5"><a xlink:href="_puzzle_8h.html" target="_top" xlink:title=" ">
<polygon fill="none" stroke="black" points="90.5,-56.5 90.5,-75.5 145.5,-75.5 145.5,-56.5 90.5,-56.5"/>
<text text-anchor="middle" x="118" y="-63.5" font-family="Helvetica,sans-Serif" font-size="10.00">Puzzle.h</text>
</a>
</g>
</g>
<!-- Node3&#45;&gt;Node5 -->
<g id="edge4" class="edge">
<title>Node3&#45;&gt;Node5</title>
<path fill="none" stroke="midnightblue" d="M116.71,-101.8C117.04,-92.91 117.42,-82.78 117.68,-75.75"/>
<polygon fill="midnightblue" stroke="midnightblue" points="113.2,-101.96 116.33,-112.08 120.2,-102.22 113.2,-101.96"/>
</g>
<!-- Node6 -->
<g id="node6" class="node">
<title>Node6</title>
<g id="a_node6"><a xlink:href="_puzzle_8cpp.html" target="_top" xlink:title=" ">
<polygon fill="none" stroke="black" points="74.5,-0.5 74.5,-19.5 139.5,-19.5 139.5,-0.5 74.5,-0.5"/>
<text text-anchor="middle" x="107" y="-7.5" font-family="Helvetica,sans-Serif" font-size="10.00">Puzzle.cpp</text>
</a>
</g>
</g>
<!-- Node5&#45;&gt;Node6 -->
<g id="edge5" class="edge">
<title>Node5&#45;&gt;Node6</title>
<path fill="none" stroke="midnightblue" d="M114.15,-46.1C112.32,-37.14 110.23,-26.86 108.78,-19.75"/>
<polygon fill="midnightblue" stroke="midnightblue" points="110.76,-46.98 116.18,-56.08 117.62,-45.59 110.76,-46.98"/>
</g>
<!-- Node5&#45;&gt;Node7 -->
<g id="edge6" class="edge">
<title>Node5&#45;&gt;Node7</title>
<path fill="none" stroke="midnightblue" d="M136.76,-50.1C149,-40.38 164.56,-28.03 174.88,-19.83"/>
<polygon fill="midnightblue" stroke="midnightblue" points="134.58,-47.36 128.93,-56.32 138.93,-52.85 134.58,-47.36"/>
</g>
</g>
</svg>
