<?xml version="1.0" encoding="UTF-8" standalone="no"?>
<!DOCTYPE svg PUBLIC "-//W3C//DTD SVG 1.1//EN"
 "http://www.w3.org/Graphics/SVG/1.1/DTD/svg11.dtd">
<!-- Generated by graphviz version 3.0.0 (20220226.1711)
 -->
<!-- Title: UI.h Pages: 1 -->
<svg width="350pt" height="308pt"
 viewBox="0.00 0.00 349.50 308.00" xmlns="http://www.w3.org/2000/svg" xmlns:xlink="http://www.w3.org/1999/xlink">
<g id="graph0" class="graph" transform="scale(1 1) rotate(0) translate(4 304)">
<title>UI.h</title>
<!-- Node1 -->
<g id="node1" class="node">
<title>Node1</title>
<g id="a_node1"><a xlink:title=" ">
<polygon fill="#bfbfbf" stroke="black" points="116,-280.5 116,-299.5 150,-299.5 150,-280.5 116,-280.5"/>
<text text-anchor="middle" x="133" y="-287.5" font-family="Helvetica,sans-Serif" font-size="10.00">UI.h</text>
</a>
</g>
</g>
<!-- Node2 -->
<g id="node2" class="node">
<title>Node2</title>
<g id="a_node2"><a xlink:href="_level_8h.html" target="_top" xlink:title=" ">
<polygon fill="none" stroke="black" points="109.5,-224.5 109.5,-243.5 156.5,-243.5 156.5,-224.5 109.5,-224.5"/>
<text text-anchor="middle" x="133" y="-231.5" font-family="Helvetica,sans-Serif" font-size="10.00">Level.h</text>
</a>
</g>
</g>
<!-- Node1&#45;&gt;Node2 -->
<g id="edge1" class="edge">
<title>Node1&#45;&gt;Node2</title>
<path fill="none" stroke="midnightblue" d="M133,-269.8C133,-260.91 133,-250.78 133,-243.75"/>
<polygon fill="midnightblue" stroke="midnightblue" points="129.5,-270.08 133,-280.08 136.5,-270.08 129.5,-270.08"/>
</g>
<!-- Node7 -->
<g id="node7" class="node">
<title>Node7</title>
<g id="a_node7"><a xlink:href="main_8cpp.html" target="_top" xlink:title=" ">
<polygon fill="none" stroke="black" points="73,-0.5 73,-19.5 129,-19.5 129,-0.5 73,-0.5"/>
<text text-anchor="middle" x="101" y="-7.5" font-family="Helvetica,sans-Serif" font-size="10.00">main.cpp</text>
</a>
</g>
</g>
<!-- Node1&#45;&gt;Node7 -->
<g id="edge15" class="edge">
<title>Node1&#45;&gt;Node7</title>
<path fill="none" stroke="midnightblue" d="M106.22,-280.46C67.38,-266.2 0,-233.6 0,-179 0,-179 0,-179 0,-121 0,-72 55.05,-35.39 83.87,-19.59"/>
<polygon fill="midnightblue" stroke="midnightblue" points="105.29,-283.84 115.88,-283.85 107.61,-277.24 105.29,-283.84"/>
</g>
<!-- Node12 -->
<g id="node12" class="node">
<title>Node12</title>
<g id="a_node12"><a xlink:href="_u_i_8cpp.html" target="_top" xlink:title=" ">
<polygon fill="none" stroke="black" points="175,-224.5 175,-243.5 219,-243.5 219,-224.5 175,-224.5"/>
<text text-anchor="middle" x="197" y="-231.5" font-family="Helvetica,sans-Serif" font-size="10.00">UI.cpp</text>
</a>
</g>
</g>
<!-- Node1&#45;&gt;Node12 -->
<g id="edge14" class="edge">
<title>Node1&#45;&gt;Node12</title>
<path fill="none" stroke="midnightblue" d="M150.99,-273.82C162.46,-264.15 176.91,-251.95 186.53,-243.83"/>
<polygon fill="midnightblue" stroke="midnightblue" points="148.67,-271.2 143.28,-280.32 153.18,-276.55 148.67,-271.2"/>
</g>
<!-- Node3 -->
<g id="node3" class="node">
<title>Node3</title>
<g id="a_node3"><a xlink:href="_collision_8h.html" target="_top" xlink:title=" ">
<polygon fill="none" stroke="black" points="237,-112.5 237,-131.5 299,-131.5 299,-112.5 237,-112.5"/>
<text text-anchor="middle" x="268" y="-119.5" font-family="Helvetica,sans-Serif" font-size="10.00">Collision.h</text>
</a>
</g>
</g>
<!-- Node2&#45;&gt;Node3 -->
<g id="edge2" class="edge">
<title>Node2&#45;&gt;Node3</title>
<path fill="none" stroke="midnightblue" d="M166.6,-223.36C207.25,-211.53 270.72,-192.49 274,-188 286.3,-171.16 277.82,-144.95 272.08,-131.54"/>
<polygon fill="midnightblue" stroke="midnightblue" points="165.44,-220.05 156.81,-226.19 167.39,-226.77 165.44,-220.05"/>
</g>
<!-- Node2&#45;&gt;Node7 -->
<g id="edge13" class="edge">
<title>Node2&#45;&gt;Node7</title>
<path fill="none" stroke="midnightblue" d="M99.84,-222.23C83.88,-215.19 66.24,-204.22 57,-188 23.76,-129.68 75.75,-46.57 94.6,-19.72"/>
<polygon fill="midnightblue" stroke="midnightblue" points="98.89,-225.62 109.47,-226.12 101.51,-219.13 98.89,-225.62"/>
</g>
<!-- Node8 -->
<g id="node8" class="node">
<title>Node8</title>
<g id="a_node8"><a xlink:href="_level_8cpp.html" target="_top" xlink:title=" ">
<polygon fill="none" stroke="black" points="66.5,-168.5 66.5,-187.5 123.5,-187.5 123.5,-168.5 66.5,-168.5"/>
<text text-anchor="middle" x="95" y="-175.5" font-family="Helvetica,sans-Serif" font-size="10.00">Level.cpp</text>
</a>
</g>
</g>
<!-- Node2&#45;&gt;Node8 -->
<g id="edge7" class="edge">
<title>Node2&#45;&gt;Node8</title>
<path fill="none" stroke="midnightblue" d="M120.94,-215.86C114.36,-206.5 106.49,-195.33 101.16,-187.75"/>
<polygon fill="midnightblue" stroke="midnightblue" points="118.11,-217.92 126.73,-224.08 123.83,-213.89 118.11,-217.92"/>
</g>
<!-- Node9 -->
<g id="node9" class="node">
<title>Node9</title>
<g id="a_node9"><a xlink:href="_map_8h.html" target="_top" xlink:title=" ">
<polygon fill="none" stroke="black" points="221,-168.5 221,-187.5 265,-187.5 265,-168.5 221,-168.5"/>
<text text-anchor="middle" x="243" y="-175.5" font-family="Helvetica,sans-Serif" font-size="10.00">Map.h</text>
</a>
</g>
</g>
<!-- Node2&#45;&gt;Node9 -->
<g id="edge8" class="edge">
<title>Node2&#45;&gt;Node9</title>
<path fill="none" stroke="midnightblue" d="M159.76,-219.86C180.16,-209.85 207.67,-196.35 225.37,-187.65"/>
<polygon fill="midnightblue" stroke="midnightblue" points="158.11,-216.78 150.67,-224.32 161.19,-223.06 158.11,-216.78"/>
</g>
<!-- Node11 -->
<g id="node11" class="node">
<title>Node11</title>
<g id="a_node11"><a xlink:href="_nemo_8cpp.html" target="_top" xlink:title=" ">
<polygon fill="none" stroke="black" points="141.5,-168.5 141.5,-187.5 202.5,-187.5 202.5,-168.5 141.5,-168.5"/>
<text text-anchor="middle" x="172" y="-175.5" font-family="Helvetica,sans-Serif" font-size="10.00">Nemo.cpp</text>
</a>
</g>
</g>
<!-- Node2&#45;&gt;Node11 -->
<g id="edge12" class="edge">
<title>Node2&#45;&gt;Node11</title>
<path fill="none" stroke="midnightblue" d="M145.38,-215.86C152.14,-206.5 160.21,-195.33 165.68,-187.75"/>
<polygon fill="midnightblue" stroke="midnightblue" points="142.46,-213.93 139.44,-224.08 148.13,-218.03 142.46,-213.93"/>
</g>
<!-- Node4 -->
<g id="node4" class="node">
<title>Node4</title>
<g id="a_node4"><a xlink:href="_collision_8cpp.html" target="_top" xlink:title=" ">
<polygon fill="none" stroke="black" points="191,-56.5 191,-75.5 263,-75.5 263,-56.5 191,-56.5"/>
<text text-anchor="middle" x="227" y="-63.5" font-family="Helvetica,sans-Serif" font-size="10.00">Collision.cpp</text>
</a>
</g>
</g>
<!-- Node3&#45;&gt;Node4 -->
<g id="edge3" class="edge">
<title>Node3&#45;&gt;Node4</title>
<path fill="none" stroke="midnightblue" d="M254.98,-103.86C247.88,-94.5 239.4,-83.33 233.64,-75.75"/>
<polygon fill="midnightblue" stroke="midnightblue" points="252.39,-106.24 261.23,-112.08 257.97,-102 252.39,-106.24"/>
</g>
<!-- Node5 -->
<g id="node5" class="node">
<title>Node5</title>
<g id="a_node5"><a xlink:href="_puzzle_8h.html" target="_top" xlink:title=" ">
<polygon fill="none" stroke="black" points="281.5,-56.5 281.5,-75.5 336.5,-75.5 336.5,-56.5 281.5,-56.5"/>
<text text-anchor="middle" x="309" y="-63.5" font-family="Helvetica,sans-Serif" font-size="10.00">Puzzle.h</text>
</a>
</g>
</g>
<!-- Node3&#45;&gt;Node5 -->
<g id="edge4" class="edge">
<title>Node3&#45;&gt;Node5</title>
<path fill="none" stroke="midnightblue" d="M281.02,-103.86C288.12,-94.5 296.6,-83.33 302.36,-75.75"/>
<polygon fill="midnightblue" stroke="midnightblue" points="278.03,-102 274.77,-112.08 283.61,-106.24 278.03,-102"/>
</g>
<!-- Node6 -->
<g id="node6" class="node">
<title>Node6</title>
<g id="a_node6"><a xlink:href="_puzzle_8cpp.html" target="_top" xlink:title=" ">
<polygon fill="none" stroke="black" points="276.5,-0.5 276.5,-19.5 341.5,-19.5 341.5,-0.5 276.5,-0.5"/>
<text text-anchor="middle" x="309" y="-7.5" font-family="Helvetica,sans-Serif" font-size="10.00">Puzzle.cpp</text>
</a>
</g>
</g>
<!-- Node5&#45;&gt;Node6 -->
<g id="edge5" class="edge">
<title>Node5&#45;&gt;Node6</title>
<path fill="none" stroke="midnightblue" d="M309,-45.8C309,-36.91 309,-26.78 309,-19.75"/>
<polygon fill="midnightblue" stroke="midnightblue" points="305.5,-46.08 309,-56.08 312.5,-46.08 305.5,-46.08"/>
</g>
<!-- Node5&#45;&gt;Node7 -->
<g id="edge6" class="edge">
<title>Node5&#45;&gt;Node7</title>
<path fill="none" stroke="midnightblue" d="M271.51,-55.27C230.54,-44.63 165.87,-27.84 129.07,-18.29"/>
<polygon fill="midnightblue" stroke="midnightblue" points="270.82,-58.7 281.38,-57.83 272.58,-51.93 270.82,-58.7"/>
</g>
<!-- Node9&#45;&gt;Node3 -->
<g id="edge9" class="edge">
<title>Node9&#45;&gt;Node3</title>
<path fill="none" stroke="midnightblue" d="M251.34,-158.98C255.58,-149.82 260.55,-139.09 263.95,-131.75"/>
<polygon fill="midnightblue" stroke="midnightblue" points="248.15,-157.54 247.13,-168.08 254.51,-160.48 248.15,-157.54"/>
</g>
<!-- Node9&#45;&gt;Node7 -->
<g id="edge11" class="edge">
<title>Node9&#45;&gt;Node7</title>
<path fill="none" stroke="midnightblue" d="M228.64,-160.21C198.74,-125.26 130.76,-45.79 108.33,-19.57"/>
<polygon fill="midnightblue" stroke="midnightblue" points="226.21,-162.75 235.37,-168.08 231.52,-158.2 226.21,-162.75"/>
</g>
<!-- Node10 -->
<g id="node10" class="node">
<title>Node10</title>
<g id="a_node10"><a xlink:href="_map_8cpp.html" target="_top" xlink:title=" ">
<polygon fill="none" stroke="black" points="81,-112.5 81,-131.5 135,-131.5 135,-112.5 81,-112.5"/>
<text text-anchor="middle" x="108" y="-119.5" font-family="Helvetica,sans-Serif" font-size="10.00">Map.cpp</text>
</a>
</g>
</g>
<!-- Node9&#45;&gt;Node10 -->
<g id="edge10" class="edge">
<title>Node9&#45;&gt;Node10</title>
<path fill="none" stroke="midnightblue" d="M212.09,-164.64C186.76,-154.5 151.57,-140.43 129.29,-131.52"/>
<polygon fill="midnightblue" stroke="midnightblue" points="211.02,-167.98 221.61,-168.44 213.62,-161.48 211.02,-167.98"/>
</g>
</g>
</svg>
