<?xml version="1.0" encoding="UTF-8" standalone="no"?>
<!DOCTYPE svg PUBLIC "-//W3C//DTD SVG 1.1//EN"
 "http://www.w3.org/Graphics/SVG/1.1/DTD/svg11.dtd">
<!-- Generated by graphviz version 3.0.0 (20220226.1711)
 -->
<!-- Title: UI.h Pages: 1 -->
<svg width="379pt" height="196pt"
 viewBox="0.00 0.00 379.00 196.00" xmlns="http://www.w3.org/2000/svg" xmlns:xlink="http://www.w3.org/1999/xlink">
<g id="graph0" class="graph" transform="scale(1 1) rotate(0) translate(4 192)">
<title>UI.h</title>
<!-- Node1 -->
<g id="node1" class="node">
<title>Node1</title>
<g id="a_node1"><a xlink:title=" ">
<polygon fill="#bfbfbf" stroke="black" points="282,-168.5 282,-187.5 316,-187.5 316,-168.5 282,-168.5"/>
<text text-anchor="middle" x="299" y="-175.5" font-family="Helvetica,sans-Serif" font-size="10.00">UI.h</text>
</a>
</g>
</g>
<!-- Node2 -->
<g id="node2" class="node">
<title>Node2</title>
<g id="a_node2"><a xlink:href="_level_8h.html" target="_top" xlink:title=" ">
<polygon fill="none" stroke="black" points="139.5,-112.5 139.5,-131.5 186.5,-131.5 186.5,-112.5 139.5,-112.5"/>
<text text-anchor="middle" x="163" y="-119.5" font-family="Helvetica,sans-Serif" font-size="10.00">Level.h</text>
</a>
</g>
</g>
<!-- Node1&#45;&gt;Node2 -->
<g id="edge1" class="edge">
<title>Node1&#45;&gt;Node2</title>
<path fill="none" stroke="midnightblue" d="M272.29,-166.39C246.63,-156.2 208.34,-141 184.56,-131.56"/>
<polygon fill="midnightblue" stroke="midnightblue" points="271.19,-169.72 281.78,-170.16 273.77,-163.22 271.19,-169.72"/>
</g>
<!-- Node5 -->
<g id="node5" class="node">
<title>Node5</title>
<g id="a_node5"><a xlink:href="main_8cpp.html" target="_top" xlink:title=" ">
<polygon fill="none" stroke="black" points="90,-0.5 90,-19.5 146,-19.5 146,-0.5 90,-0.5"/>
<text text-anchor="middle" x="118" y="-7.5" font-family="Helvetica,sans-Serif" font-size="10.00">main.cpp</text>
</a>
</g>
</g>
<!-- Node1&#45;&gt;Node5 -->
<g id="edge9" class="edge">
<title>Node1&#45;&gt;Node5</title>
<path fill="none" stroke="midnightblue" d="M301.77,-158.27C304.52,-132.03 305.26,-84.35 280,-56 246.02,-17.86 182.79,-10.84 146.19,-10.21"/>
<polygon fill="midnightblue" stroke="midnightblue" points="298.27,-158.02 300.49,-168.38 305.22,-158.9 298.27,-158.02"/>
</g>
<!-- Node8 -->
<g id="node8" class="node">
<title>Node8</title>
<g id="a_node8"><a xlink:href="_u_i_8cpp.html" target="_top" xlink:title=" ">
<polygon fill="none" stroke="black" points="327,-112.5 327,-131.5 371,-131.5 371,-112.5 327,-112.5"/>
<text text-anchor="middle" x="349" y="-119.5" font-family="Helvetica,sans-Serif" font-size="10.00">UI.cpp</text>
</a>
</g>
</g>
<!-- Node1&#45;&gt;Node8 -->
<g id="edge8" class="edge">
<title>Node1&#45;&gt;Node8</title>
<path fill="none" stroke="midnightblue" d="M314.08,-160.72C322.89,-151.2 333.67,-139.56 340.9,-131.75"/>
<polygon fill="midnightblue" stroke="midnightblue" points="311.48,-158.37 307.26,-168.08 316.62,-163.12 311.48,-158.37"/>
</g>
<!-- Node3 -->
<g id="node3" class="node">
<title>Node3</title>
<g id="a_node3"><a xlink:href="_collision_8h.html" target="_top" xlink:title=" ">
<polygon fill="none" stroke="black" points="16,-56.5 16,-75.5 78,-75.5 78,-56.5 16,-56.5"/>
<text text-anchor="middle" x="47" y="-63.5" font-family="Helvetica,sans-Serif" font-size="10.00">Collision.h</text>
</a>
</g>
</g>
<!-- Node2&#45;&gt;Node3 -->
<g id="edge2" class="edge">
<title>Node2&#45;&gt;Node3</title>
<path fill="none" stroke="midnightblue" d="M135.28,-108.1C113.61,-98.01 84.1,-84.27 65.29,-75.52"/>
<polygon fill="midnightblue" stroke="midnightblue" points="134.08,-111.4 144.62,-112.44 137.03,-105.05 134.08,-111.4"/>
</g>
<!-- Node2&#45;&gt;Node5 -->
<g id="edge7" class="edge">
<title>Node2&#45;&gt;Node5</title>
<path fill="none" stroke="midnightblue" d="M146.25,-105.23C138.8,-97.21 130.67,-86.87 126,-76 117.93,-57.19 117.25,-32.7 117.56,-19.81"/>
<polygon fill="midnightblue" stroke="midnightblue" points="143.81,-107.74 153.32,-112.4 148.8,-102.82 143.81,-107.74"/>
</g>
<!-- Node6 -->
<g id="node6" class="node">
<title>Node6</title>
<g id="a_node6"><a xlink:href="_level_8cpp.html" target="_top" xlink:title=" ">
<polygon fill="none" stroke="black" points="134.5,-56.5 134.5,-75.5 191.5,-75.5 191.5,-56.5 134.5,-56.5"/>
<text text-anchor="middle" x="163" y="-63.5" font-family="Helvetica,sans-Serif" font-size="10.00">Level.cpp</text>
</a>
</g>
</g>
<!-- Node2&#45;&gt;Node6 -->
<g id="edge5" class="edge">
<title>Node2&#45;&gt;Node6</title>
<path fill="none" stroke="midnightblue" d="M163,-101.8C163,-92.91 163,-82.78 163,-75.75"/>
<polygon fill="midnightblue" stroke="midnightblue" points="159.5,-102.08 163,-112.08 166.5,-102.08 159.5,-102.08"/>
</g>
<!-- Node7 -->
<g id="node7" class="node">
<title>Node7</title>
<g id="a_node7"><a xlink:href="_nemo_8cpp.html" target="_top" xlink:title=" ">
<polygon fill="none" stroke="black" points="209.5,-56.5 209.5,-75.5 270.5,-75.5 270.5,-56.5 209.5,-56.5"/>
<text text-anchor="middle" x="240" y="-63.5" font-family="Helvetica,sans-Serif" font-size="10.00">Nemo.cpp</text>
</a>
</g>
</g>
<!-- Node2&#45;&gt;Node7 -->
<g id="edge6" class="edge">
<title>Node2&#45;&gt;Node7</title>
<path fill="none" stroke="midnightblue" d="M183.9,-106.34C197.91,-96.52 215.88,-83.91 227.66,-75.65"/>
<polygon fill="midnightblue" stroke="midnightblue" points="181.55,-103.72 175.37,-112.32 185.57,-109.45 181.55,-103.72"/>
</g>
<!-- Node4 -->
<g id="node4" class="node">
<title>Node4</title>
<g id="a_node4"><a xlink:href="_collision_8cpp.html" target="_top" xlink:title=" ">
<polygon fill="none" stroke="black" points="0,-0.5 0,-19.5 72,-19.5 72,-0.5 0,-0.5"/>
<text text-anchor="middle" x="36" y="-7.5" font-family="Helvetica,sans-Serif" font-size="10.00">Collision.cpp</text>
</a>
</g>
</g>
<!-- Node3&#45;&gt;Node4 -->
<g id="edge3" class="edge">
<title>Node3&#45;&gt;Node4</title>
<path fill="none" stroke="midnightblue" d="M43.15,-46.1C41.32,-37.14 39.23,-26.86 37.78,-19.75"/>
<polygon fill="midnightblue" stroke="midnightblue" points="39.76,-46.98 45.18,-56.08 46.62,-45.59 39.76,-46.98"/>
</g>
<!-- Node3&#45;&gt;Node5 -->
<g id="edge4" class="edge">
<title>Node3&#45;&gt;Node5</title>
<path fill="none" stroke="midnightblue" d="M66.59,-50.1C79.37,-40.38 95.61,-28.03 106.39,-19.83"/>
<polygon fill="midnightblue" stroke="midnightblue" points="64.25,-47.48 58.41,-56.32 68.49,-53.06 64.25,-47.48"/>
</g>
</g>
</svg>
