<?xml version="1.0" encoding="UTF-8" standalone="no"?>
<!DOCTYPE svg PUBLIC "-//W3C//DTD SVG 1.1//EN"
 "http://www.w3.org/Graphics/SVG/1.1/DTD/svg11.dtd">
<!-- Generated by graphviz version 3.0.0 (20220226.1711)
 -->
<!-- Title: UI.h Pages: 1 -->
<svg width="448pt" height="252pt"
 viewBox="0.00 0.00 448.00 252.00" xmlns="http://www.w3.org/2000/svg" xmlns:xlink="http://www.w3.org/1999/xlink">
<g id="graph0" class="graph" transform="scale(1 1) rotate(0) translate(4 248)">
<title>UI.h</title>
<!-- Node1 -->
<g id="node1" class="node">
<title>Node1</title>
<g id="a_node1"><a xlink:title=" ">
<polygon fill="#bfbfbf" stroke="black" points="351,-224.5 351,-243.5 385,-243.5 385,-224.5 351,-224.5"/>
<text text-anchor="middle" x="368" y="-231.5" font-family="Helvetica,sans-Serif" font-size="10.00">UI.h</text>
</a>
</g>
</g>
<!-- Node2 -->
<g id="node2" class="node">
<title>Node2</title>
<g id="a_node2"><a xlink:href="_level_8h.html" target="_top" xlink:title=" ">
<polygon fill="none" stroke="black" points="208.5,-168.5 208.5,-187.5 255.5,-187.5 255.5,-168.5 208.5,-168.5"/>
<text text-anchor="middle" x="232" y="-175.5" font-family="Helvetica,sans-Serif" font-size="10.00">Level.h</text>
</a>
</g>
</g>
<!-- Node1&#45;&gt;Node2 -->
<g id="edge1" class="edge">
<title>Node1&#45;&gt;Node2</title>
<path fill="none" stroke="midnightblue" d="M341.29,-222.39C315.63,-212.2 277.34,-197 253.56,-187.56"/>
<polygon fill="midnightblue" stroke="midnightblue" points="340.19,-225.72 350.78,-226.16 342.77,-219.22 340.19,-225.72"/>
</g>
<!-- Node7 -->
<g id="node7" class="node">
<title>Node7</title>
<g id="a_node7"><a xlink:href="main_8cpp.html" target="_top" xlink:title=" ">
<polygon fill="none" stroke="black" points="158,-0.5 158,-19.5 214,-19.5 214,-0.5 158,-0.5"/>
<text text-anchor="middle" x="186" y="-7.5" font-family="Helvetica,sans-Serif" font-size="10.00">main.cpp</text>
</a>
</g>
</g>
<!-- Node1&#45;&gt;Node7 -->
<g id="edge11" class="edge">
<title>Node1&#45;&gt;Node7</title>
<path fill="none" stroke="midnightblue" d="M369.66,-214.09C370.92,-188.7 369.7,-143.19 349,-112 316.14,-62.49 249.86,-32.92 212.74,-19.55"/>
<polygon fill="midnightblue" stroke="midnightblue" points="366.15,-214 368.96,-224.21 373.14,-214.48 366.15,-214"/>
</g>
<!-- Node10 -->
<g id="node10" class="node">
<title>Node10</title>
<g id="a_node10"><a xlink:href="_u_i_8cpp.html" target="_top" xlink:title=" ">
<polygon fill="none" stroke="black" points="396,-168.5 396,-187.5 440,-187.5 440,-168.5 396,-168.5"/>
<text text-anchor="middle" x="418" y="-175.5" font-family="Helvetica,sans-Serif" font-size="10.00">UI.cpp</text>
</a>
</g>
</g>
<!-- Node1&#45;&gt;Node10 -->
<g id="edge10" class="edge">
<title>Node1&#45;&gt;Node10</title>
<path fill="none" stroke="midnightblue" d="M383.08,-216.72C391.89,-207.2 402.67,-195.56 409.9,-187.75"/>
<polygon fill="midnightblue" stroke="midnightblue" points="380.48,-214.37 376.26,-224.08 385.62,-219.12 380.48,-214.37"/>
</g>
<!-- Node3 -->
<g id="node3" class="node">
<title>Node3</title>
<g id="a_node3"><a xlink:href="_collision_8h.html" target="_top" xlink:title=" ">
<polygon fill="none" stroke="black" points="85,-112.5 85,-131.5 147,-131.5 147,-112.5 85,-112.5"/>
<text text-anchor="middle" x="116" y="-119.5" font-family="Helvetica,sans-Serif" font-size="10.00">Collision.h</text>
</a>
</g>
</g>
<!-- Node2&#45;&gt;Node3 -->
<g id="edge2" class="edge">
<title>Node2&#45;&gt;Node3</title>
<path fill="none" stroke="midnightblue" d="M204.28,-164.1C182.61,-154.01 153.1,-140.27 134.29,-131.52"/>
<polygon fill="midnightblue" stroke="midnightblue" points="203.08,-167.4 213.62,-168.44 206.03,-161.05 203.08,-167.4"/>
</g>
<!-- Node2&#45;&gt;Node7 -->
<g id="edge9" class="edge">
<title>Node2&#45;&gt;Node7</title>
<path fill="none" stroke="midnightblue" d="M214.22,-161.11C206.59,-153.18 198.42,-142.95 194,-132 178.08,-92.56 182.3,-40.03 184.79,-19.62"/>
<polygon fill="midnightblue" stroke="midnightblue" points="211.91,-163.75 221.52,-168.22 216.79,-158.73 211.91,-163.75"/>
</g>
<!-- Node8 -->
<g id="node8" class="node">
<title>Node8</title>
<g id="a_node8"><a xlink:href="_level_8cpp.html" target="_top" xlink:title=" ">
<polygon fill="none" stroke="black" points="203.5,-112.5 203.5,-131.5 260.5,-131.5 260.5,-112.5 203.5,-112.5"/>
<text text-anchor="middle" x="232" y="-119.5" font-family="Helvetica,sans-Serif" font-size="10.00">Level.cpp</text>
</a>
</g>
</g>
<!-- Node2&#45;&gt;Node8 -->
<g id="edge7" class="edge">
<title>Node2&#45;&gt;Node8</title>
<path fill="none" stroke="midnightblue" d="M232,-157.8C232,-148.91 232,-138.78 232,-131.75"/>
<polygon fill="midnightblue" stroke="midnightblue" points="228.5,-158.08 232,-168.08 235.5,-158.08 228.5,-158.08"/>
</g>
<!-- Node9 -->
<g id="node9" class="node">
<title>Node9</title>
<g id="a_node9"><a xlink:href="_nemo_8cpp.html" target="_top" xlink:title=" ">
<polygon fill="none" stroke="black" points="278.5,-112.5 278.5,-131.5 339.5,-131.5 339.5,-112.5 278.5,-112.5"/>
<text text-anchor="middle" x="309" y="-119.5" font-family="Helvetica,sans-Serif" font-size="10.00">Nemo.cpp</text>
</a>
</g>
</g>
<!-- Node2&#45;&gt;Node9 -->
<g id="edge8" class="edge">
<title>Node2&#45;&gt;Node9</title>
<path fill="none" stroke="midnightblue" d="M252.9,-162.34C266.91,-152.52 284.88,-139.91 296.66,-131.65"/>
<polygon fill="midnightblue" stroke="midnightblue" points="250.55,-159.72 244.37,-168.32 254.57,-165.45 250.55,-159.72"/>
</g>
<!-- Node4 -->
<g id="node4" class="node">
<title>Node4</title>
<g id="a_node4"><a xlink:href="_collision_8cpp.html" target="_top" xlink:title=" ">
<polygon fill="none" stroke="black" points="0,-56.5 0,-75.5 72,-75.5 72,-56.5 0,-56.5"/>
<text text-anchor="middle" x="36" y="-63.5" font-family="Helvetica,sans-Serif" font-size="10.00">Collision.cpp</text>
</a>
</g>
</g>
<!-- Node3&#45;&gt;Node4 -->
<g id="edge3" class="edge">
<title>Node3&#45;&gt;Node4</title>
<path fill="none" stroke="midnightblue" d="M94.7,-106.62C80.08,-96.76 61.17,-83.99 48.82,-75.65"/>
<polygon fill="midnightblue" stroke="midnightblue" points="92.9,-109.63 103.15,-112.32 96.82,-103.83 92.9,-109.63"/>
</g>
<!-- Node5 -->
<g id="node5" class="node">
<title>Node5</title>
<g id="a_node5"><a xlink:href="_puzzle_8h.html" target="_top" xlink:title=" ">
<polygon fill="none" stroke="black" points="90.5,-56.5 90.5,-75.5 145.5,-75.5 145.5,-56.5 90.5,-56.5"/>
<text text-anchor="middle" x="118" y="-63.5" font-family="Helvetica,sans-Serif" font-size="10.00">Puzzle.h</text>
</a>
</g>
</g>
<!-- Node3&#45;&gt;Node5 -->
<g id="edge4" class="edge">
<title>Node3&#45;&gt;Node5</title>
<path fill="none" stroke="midnightblue" d="M116.71,-101.8C117.04,-92.91 117.42,-82.78 117.68,-75.75"/>
<polygon fill="midnightblue" stroke="midnightblue" points="113.2,-101.96 116.33,-112.08 120.2,-102.22 113.2,-101.96"/>
</g>
<!-- Node6 -->
<g id="node6" class="node">
<title>Node6</title>
<g id="a_node6"><a xlink:href="_puzzle_8cpp.html" target="_top" xlink:title=" ">
<polygon fill="none" stroke="black" points="74.5,-0.5 74.5,-19.5 139.5,-19.5 139.5,-0.5 74.5,-0.5"/>
<text text-anchor="middle" x="107" y="-7.5" font-family="Helvetica,sans-Serif" font-size="10.00">Puzzle.cpp</text>
</a>
</g>
</g>
<!-- Node5&#45;&gt;Node6 -->
<g id="edge5" class="edge">
<title>Node5&#45;&gt;Node6</title>
<path fill="none" stroke="midnightblue" d="M114.15,-46.1C112.32,-37.14 110.23,-26.86 108.78,-19.75"/>
<polygon fill="midnightblue" stroke="midnightblue" points="110.76,-46.98 116.18,-56.08 117.62,-45.59 110.76,-46.98"/>
</g>
<!-- Node5&#45;&gt;Node7 -->
<g id="edge6" class="edge">
<title>Node5&#45;&gt;Node7</title>
<path fill="none" stroke="midnightblue" d="M136.76,-50.1C149,-40.38 164.56,-28.03 174.88,-19.83"/>
<polygon fill="midnightblue" stroke="midnightblue" points="134.58,-47.36 128.93,-56.32 138.93,-52.85 134.58,-47.36"/>
</g>
</g>
</svg>
