<?xml version="1.0" encoding="UTF-8" standalone="no"?>
<!DOCTYPE svg PUBLIC "-//W3C//DTD SVG 1.1//EN"
 "http://www.w3.org/Graphics/SVG/1.1/DTD/svg11.dtd">
<!-- Generated by graphviz version 3.0.0 (20220226.1711)
 -->
<!-- Title: Game::Level Pages: 1 -->
<svg width="223pt" height="204pt"
 viewBox="0.00 0.00 222.50 204.00" xmlns="http://www.w3.org/2000/svg" xmlns:xlink="http://www.w3.org/1999/xlink">
<g id="graph0" class="graph" transform="scale(1 1) rotate(0) translate(4 200)">
<title>Game::Level</title>
<!-- Node1 -->
<g id="node1" class="node">
<title>Node1</title>
<g id="a_node1"><a xlink:title=" ">
<polygon fill="#bfbfbf" stroke="black" points="58.5,-0.5 58.5,-90.5 142.5,-90.5 142.5,-0.5 58.5,-0.5"/>
<text text-anchor="middle" x="100.5" y="-78.5" font-family="Helvetica,sans-Serif" font-size="10.00">Game::Level</text>
<polyline fill="none" stroke="black" points="58.5,-71.5 142.5,-71.5 "/>
<text text-anchor="middle" x="100.5" y="-59.5" font-family="Helvetica,sans-Serif" font-size="10.00"> </text>
<polyline fill="none" stroke="black" points="58.5,-52.5 142.5,-52.5 "/>
<text text-anchor="start" x="66.5" y="-40.5" font-family="Helvetica,sans-Serif" font-size="10.00">+ Screeninit()</text>
<text text-anchor="start" x="66.5" y="-29.5" font-family="Helvetica,sans-Serif" font-size="10.00">+ ScreenDraw()</text>
<text text-anchor="start" x="66.5" y="-18.5" font-family="Helvetica,sans-Serif" font-size="10.00">+ Draw()</text>
<text text-anchor="start" x="66.5" y="-7.5" font-family="Helvetica,sans-Serif" font-size="10.00">+ Music()</text>
</a>
</g>
</g>
<!-- Node2 -->
<g id="node2" class="node">
<title>Node2</title>
<g id="a_node2"><a xlink:title=" ">
<polygon fill="none" stroke="black" points="0,-138.5 0,-195.5 61,-195.5 61,-138.5 0,-138.5"/>
<text text-anchor="middle" x="30.5" y="-183.5" font-family="Helvetica,sans-Serif" font-size="10.00">Texture2D</text>
<polyline fill="none" stroke="black" points="0,-176.5 61,-176.5 "/>
<text text-anchor="middle" x="30.5" y="-164.5" font-family="Helvetica,sans-Serif" font-size="10.00"> </text>
<polyline fill="none" stroke="black" points="0,-157.5 61,-157.5 "/>
<text text-anchor="middle" x="30.5" y="-145.5" font-family="Helvetica,sans-Serif" font-size="10.00"> </text>
</a>
</g>
</g>
<!-- Node2&#45;&gt;Node1 -->
<g id="edge1" class="edge">
<title>Node2&#45;&gt;Node1</title>
<path fill="none" stroke="#404040" d="M46.74,-138.28C53.17,-127.3 60.81,-114.25 68.28,-101.5"/>
<polygon fill="none" stroke="#404040" points="68.42,-101.27 68,-94.07 74.48,-90.91 74.9,-98.11 68.42,-101.27"/>
<text text-anchor="middle" x="77.5" y="-112" font-family="Helvetica,sans-Serif" font-size="10.00"> +Map</text>
</g>
<!-- Node3 -->
<g id="node3" class="node">
<title>Node3</title>
<g id="a_node3"><a xlink:title=" ">
<polygon fill="none" stroke="black" points="79,-138.5 79,-195.5 122,-195.5 122,-138.5 79,-138.5"/>
<text text-anchor="middle" x="100.5" y="-183.5" font-family="Helvetica,sans-Serif" font-size="10.00">Music</text>
<polyline fill="none" stroke="black" points="79,-176.5 122,-176.5 "/>
<text text-anchor="middle" x="100.5" y="-164.5" font-family="Helvetica,sans-Serif" font-size="10.00"> </text>
<polyline fill="none" stroke="black" points="79,-157.5 122,-157.5 "/>
<text text-anchor="middle" x="100.5" y="-145.5" font-family="Helvetica,sans-Serif" font-size="10.00"> </text>
</a>
</g>
</g>
<!-- Node3&#45;&gt;Node1 -->
<g id="edge2" class="edge">
<title>Node3&#45;&gt;Node1</title>
<path fill="none" stroke="#404040" d="M100.5,-138.28C100.5,-127.73 100.5,-115.29 100.5,-103.03"/>
<polygon fill="none" stroke="#404040" points="100.5,-102.91 96.5,-96.91 100.5,-90.91 104.5,-96.91 100.5,-102.91"/>
<text text-anchor="middle" x="118.5" y="-112" font-family="Helvetica,sans-Serif" font-size="10.00"> +music</text>
</g>
<!-- Node4 -->
<g id="node4" class="node">
<title>Node4</title>
<g id="a_node4"><a xlink:title=" ">
<polygon fill="none" stroke="black" points="140.5,-138.5 140.5,-195.5 214.5,-195.5 214.5,-138.5 140.5,-138.5"/>
<text text-anchor="middle" x="177.5" y="-183.5" font-family="Helvetica,sans-Serif" font-size="10.00">GameScreen</text>
<polyline fill="none" stroke="black" points="140.5,-176.5 214.5,-176.5 "/>
<text text-anchor="middle" x="177.5" y="-164.5" font-family="Helvetica,sans-Serif" font-size="10.00"> </text>
<polyline fill="none" stroke="black" points="140.5,-157.5 214.5,-157.5 "/>
<text text-anchor="middle" x="177.5" y="-145.5" font-family="Helvetica,sans-Serif" font-size="10.00"> </text>
</a>
</g>
</g>
<!-- Node4&#45;&gt;Node1 -->
<g id="edge3" class="edge">
<title>Node4&#45;&gt;Node1</title>
<path fill="none" stroke="#404040" d="M159.64,-138.28C152.49,-127.19 143.99,-113.99 135.7,-101.12"/>
<polygon fill="none" stroke="#404040" points="135.62,-101 129,-98.12 129.12,-90.91 135.73,-93.79 135.62,-101"/>
<text text-anchor="middle" x="180" y="-112" font-family="Helvetica,sans-Serif" font-size="10.00"> +currentscreen</text>
</g>
</g>
</svg>
