<?xml version="1.0" encoding="UTF-8" standalone="no"?>
<!DOCTYPE svg PUBLIC "-//W3C//DTD SVG 1.1//EN"
 "http://www.w3.org/Graphics/SVG/1.1/DTD/svg11.dtd">
<!-- Generated by graphviz version 3.0.0 (20220226.1711)
 -->
<!-- Title: Game::Nemo Pages: 1 -->
<svg width="604pt" height="259pt"
 viewBox="0.00 0.00 603.50 259.00" xmlns="http://www.w3.org/2000/svg" xmlns:xlink="http://www.w3.org/1999/xlink">
<g id="graph0" class="graph" transform="scale(1 1) rotate(0) translate(4 255)">
<title>Game::Nemo</title>
<!-- Node1 -->
<g id="node1" class="node">
<title>Node1</title>
<g id="a_node1"><a xlink:title=" ">
<polygon fill="#bfbfbf" stroke="black" points="276.5,-0.5 276.5,-79.5 350.5,-79.5 350.5,-0.5 276.5,-0.5"/>
<text text-anchor="middle" x="313.5" y="-67.5" font-family="Helvetica,sans-Serif" font-size="10.00">Game::Nemo</text>
<polyline fill="none" stroke="black" points="276.5,-60.5 350.5,-60.5 "/>
<text text-anchor="middle" x="313.5" y="-48.5" font-family="Helvetica,sans-Serif" font-size="10.00"> </text>
<polyline fill="none" stroke="black" points="276.5,-41.5 350.5,-41.5 "/>
<text text-anchor="start" x="284.5" y="-29.5" font-family="Helvetica,sans-Serif" font-size="10.00">+ Update()</text>
<text text-anchor="start" x="284.5" y="-18.5" font-family="Helvetica,sans-Serif" font-size="10.00">+ Draw()</text>
<text text-anchor="start" x="284.5" y="-7.5" font-family="Helvetica,sans-Serif" font-size="10.00">+ ~Nemo()</text>
</a>
</g>
</g>
<!-- Node2 -->
<g id="node2" class="node">
<title>Node2</title>
<g id="a_node2"><a xlink:title=" ">
<polygon fill="none" stroke="black" points="0,-193.5 0,-250.5 29,-250.5 29,-193.5 0,-193.5"/>
<text text-anchor="middle" x="14.5" y="-238.5" font-family="Helvetica,sans-Serif" font-size="10.00">int</text>
<polyline fill="none" stroke="black" points="0,-231.5 29,-231.5 "/>
<text text-anchor="middle" x="14.5" y="-219.5" font-family="Helvetica,sans-Serif" font-size="10.00"> </text>
<polyline fill="none" stroke="black" points="0,-212.5 29,-212.5 "/>
<text text-anchor="middle" x="14.5" y="-200.5" font-family="Helvetica,sans-Serif" font-size="10.00"> </text>
</a>
</g>
</g>
<!-- Node2&#45;&gt;Node1 -->
<g id="edge1" class="edge">
<title>Node2&#45;&gt;Node1</title>
<path fill="none" stroke="#404040" d="M9.18,-193.28C5.58,-165.56 5.08,-123.47 28.5,-98 59.69,-64.07 191.5,-49.54 264.43,-44"/>
<polygon fill="none" stroke="#404040" points="264.5,-43.99 270.2,-39.57 276.47,-43.13 270.78,-47.55 264.5,-43.99"/>
<text text-anchor="middle" x="78.5" y="-167" font-family="Helvetica,sans-Serif" font-size="10.00"> +HP</text>
<text text-anchor="middle" x="78.5" y="-156" font-family="Helvetica,sans-Serif" font-size="10.00">+Stand_currentFrame</text>
<text text-anchor="middle" x="78.5" y="-145" font-family="Helvetica,sans-Serif" font-size="10.00">+Stand_framesCounter</text>
<text text-anchor="middle" x="78.5" y="-134" font-family="Helvetica,sans-Serif" font-size="10.00">+Stand_framesSpeed</text>
<text text-anchor="middle" x="78.5" y="-123" font-family="Helvetica,sans-Serif" font-size="10.00">+currentFrame</text>
<text text-anchor="middle" x="78.5" y="-112" font-family="Helvetica,sans-Serif" font-size="10.00">+framesCounter</text>
<text text-anchor="middle" x="78.5" y="-101" font-family="Helvetica,sans-Serif" font-size="10.00">+framesSpeed</text>
</g>
<!-- Node3 -->
<g id="node3" class="node">
<title>Node3</title>
<g id="a_node3"><a xlink:title=" ">
<polygon fill="none" stroke="black" points="120,-193.5 120,-250.5 155,-250.5 155,-193.5 120,-193.5"/>
<text text-anchor="middle" x="137.5" y="-238.5" font-family="Helvetica,sans-Serif" font-size="10.00">float</text>
<polyline fill="none" stroke="black" points="120,-231.5 155,-231.5 "/>
<text text-anchor="middle" x="137.5" y="-219.5" font-family="Helvetica,sans-Serif" font-size="10.00"> </text>
<polyline fill="none" stroke="black" points="120,-212.5 155,-212.5 "/>
<text text-anchor="middle" x="137.5" y="-200.5" font-family="Helvetica,sans-Serif" font-size="10.00"> </text>
</a>
</g>
</g>
<!-- Node3&#45;&gt;Node1 -->
<g id="edge2" class="edge">
<title>Node3&#45;&gt;Node1</title>
<path fill="none" stroke="#404040" d="M133.43,-193.39C131.02,-166.16 131.86,-124.81 153.5,-98 180.25,-64.85 227.76,-50.96 264.09,-45.15"/>
<polygon fill="none" stroke="#404040" points="264.53,-45.09 269.92,-40.29 276.41,-43.42 271.03,-48.21 264.53,-45.09"/>
<text text-anchor="middle" x="183.5" y="-145" font-family="Helvetica,sans-Serif" font-size="10.00"> +nemoheight</text>
<text text-anchor="middle" x="183.5" y="-134" font-family="Helvetica,sans-Serif" font-size="10.00">+nemowidth</text>
<text text-anchor="middle" x="183.5" y="-123" font-family="Helvetica,sans-Serif" font-size="10.00">+walkspeed</text>
</g>
<!-- Node4 -->
<g id="node4" class="node">
<title>Node4</title>
<g id="a_node4"><a xlink:title=" ">
<polygon fill="none" stroke="black" points="195.5,-193.5 195.5,-250.5 245.5,-250.5 245.5,-193.5 195.5,-193.5"/>
<text text-anchor="middle" x="220.5" y="-238.5" font-family="Helvetica,sans-Serif" font-size="10.00">Vector2</text>
<polyline fill="none" stroke="black" points="195.5,-231.5 245.5,-231.5 "/>
<text text-anchor="middle" x="220.5" y="-219.5" font-family="Helvetica,sans-Serif" font-size="10.00"> </text>
<polyline fill="none" stroke="black" points="195.5,-212.5 245.5,-212.5 "/>
<text text-anchor="middle" x="220.5" y="-200.5" font-family="Helvetica,sans-Serif" font-size="10.00"> </text>
</a>
</g>
</g>
<!-- Node4&#45;&gt;Node1 -->
<g id="edge3" class="edge">
<title>Node4&#45;&gt;Node1</title>
<path fill="none" stroke="#404040" d="M217.84,-193.36C216.63,-167.05 218.36,-127.22 235.5,-98 242.93,-85.34 254.39,-74.68 266.26,-66.12"/>
<polygon fill="none" stroke="#404040" points="266.28,-66.11 269.04,-59.45 276.25,-59.44 273.49,-66.1 266.28,-66.11"/>
<text text-anchor="middle" x="270.5" y="-134" font-family="Helvetica,sans-Serif" font-size="10.00"> +NemoPosition</text>
</g>
<!-- Node5 -->
<g id="node5" class="node">
<title>Node5</title>
<g id="a_node5"><a xlink:title=" ">
<polygon fill="none" stroke="black" points="291,-193.5 291,-250.5 326,-250.5 326,-193.5 291,-193.5"/>
<text text-anchor="middle" x="308.5" y="-238.5" font-family="Helvetica,sans-Serif" font-size="10.00">bool</text>
<polyline fill="none" stroke="black" points="291,-231.5 326,-231.5 "/>
<text text-anchor="middle" x="308.5" y="-219.5" font-family="Helvetica,sans-Serif" font-size="10.00"> </text>
<polyline fill="none" stroke="black" points="291,-212.5 326,-212.5 "/>
<text text-anchor="middle" x="308.5" y="-200.5" font-family="Helvetica,sans-Serif" font-size="10.00"> </text>
</a>
</g>
</g>
<!-- Node5&#45;&gt;Node1 -->
<g id="edge4" class="edge">
<title>Node5&#45;&gt;Node1</title>
<path fill="none" stroke="#404040" d="M309.27,-193.27C310.02,-166.34 311.17,-124.81 312.09,-91.92"/>
<polygon fill="none" stroke="#404040" points="312.09,-91.79 308.26,-85.68 312.42,-79.79 316.25,-85.9 312.09,-91.79"/>
<text text-anchor="middle" x="328.5" y="-145" font-family="Helvetica,sans-Serif" font-size="10.00"> +active</text>
<text text-anchor="middle" x="328.5" y="-134" font-family="Helvetica,sans-Serif" font-size="10.00">+alive</text>
<text text-anchor="middle" x="328.5" y="-123" font-family="Helvetica,sans-Serif" font-size="10.00">+sound</text>
</g>
<!-- Node6 -->
<g id="node6" class="node">
<title>Node6</title>
<g id="a_node6"><a xlink:title=" ">
<polygon fill="none" stroke="black" points="344,-193.5 344,-250.5 397,-250.5 397,-193.5 344,-193.5"/>
<text text-anchor="middle" x="370.5" y="-238.5" font-family="Helvetica,sans-Serif" font-size="10.00">direction</text>
<polyline fill="none" stroke="black" points="344,-231.5 397,-231.5 "/>
<text text-anchor="middle" x="370.5" y="-219.5" font-family="Helvetica,sans-Serif" font-size="10.00"> </text>
<polyline fill="none" stroke="black" points="344,-212.5 397,-212.5 "/>
<text text-anchor="middle" x="370.5" y="-200.5" font-family="Helvetica,sans-Serif" font-size="10.00"> </text>
</a>
</g>
</g>
<!-- Node6&#45;&gt;Node1 -->
<g id="edge5" class="edge">
<title>Node6&#45;&gt;Node1</title>
<path fill="none" stroke="#404040" d="M368.52,-193.34C366.01,-167.89 360.47,-129.42 348.5,-98 347.54,-95.49 346.47,-92.96 345.32,-90.45"/>
<polygon fill="none" stroke="#404040" points="345.23,-90.27 338.94,-86.73 339.8,-79.57 346.08,-83.11 345.23,-90.27"/>
<text text-anchor="middle" x="389.5" y="-134" font-family="Helvetica,sans-Serif" font-size="10.00"> +Direction</text>
</g>
<!-- Node7 -->
<g id="node7" class="node">
<title>Node7</title>
<g id="a_node7"><a xlink:title=" ">
<polygon fill="none" stroke="black" points="415,-193.5 415,-250.5 476,-250.5 476,-193.5 415,-193.5"/>
<text text-anchor="middle" x="445.5" y="-238.5" font-family="Helvetica,sans-Serif" font-size="10.00">Texture2D</text>
<polyline fill="none" stroke="black" points="415,-231.5 476,-231.5 "/>
<text text-anchor="middle" x="445.5" y="-219.5" font-family="Helvetica,sans-Serif" font-size="10.00"> </text>
<polyline fill="none" stroke="black" points="415,-212.5 476,-212.5 "/>
<text text-anchor="middle" x="445.5" y="-200.5" font-family="Helvetica,sans-Serif" font-size="10.00"> </text>
</a>
</g>
</g>
<!-- Node7&#45;&gt;Node1 -->
<g id="edge6" class="edge">
<title>Node7&#45;&gt;Node1</title>
<path fill="none" stroke="#404040" d="M445.52,-193.38C444.2,-166.51 438.48,-125.79 417.5,-98 403.54,-79.51 381.75,-66.26 361.72,-57.22"/>
<polygon fill="none" stroke="#404040" points="361.58,-57.15 354.5,-58.51 350.52,-52.49 357.6,-51.14 361.58,-57.15"/>
<text text-anchor="middle" x="459.5" y="-156" font-family="Helvetica,sans-Serif" font-size="10.00"> +Back</text>
<text text-anchor="middle" x="459.5" y="-145" font-family="Helvetica,sans-Serif" font-size="10.00">+Front</text>
<text text-anchor="middle" x="459.5" y="-134" font-family="Helvetica,sans-Serif" font-size="10.00">+Left</text>
<text text-anchor="middle" x="459.5" y="-123" font-family="Helvetica,sans-Serif" font-size="10.00">+Right</text>
<text text-anchor="middle" x="459.5" y="-112" font-family="Helvetica,sans-Serif" font-size="10.00">+Stand</text>
</g>
<!-- Node8 -->
<g id="node8" class="node">
<title>Node8</title>
<g id="a_node8"><a xlink:title=" ">
<polygon fill="none" stroke="black" points="494.5,-193.5 494.5,-250.5 554.5,-250.5 554.5,-193.5 494.5,-193.5"/>
<text text-anchor="middle" x="524.5" y="-238.5" font-family="Helvetica,sans-Serif" font-size="10.00">Rectangle</text>
<polyline fill="none" stroke="black" points="494.5,-231.5 554.5,-231.5 "/>
<text text-anchor="middle" x="524.5" y="-219.5" font-family="Helvetica,sans-Serif" font-size="10.00"> </text>
<polyline fill="none" stroke="black" points="494.5,-212.5 554.5,-212.5 "/>
<text text-anchor="middle" x="524.5" y="-200.5" font-family="Helvetica,sans-Serif" font-size="10.00"> </text>
</a>
</g>
</g>
<!-- Node8&#45;&gt;Node1 -->
<g id="edge7" class="edge">
<title>Node8&#45;&gt;Node1</title>
<path fill="none" stroke="#404040" d="M521.31,-193.34C516.7,-165.67 505.64,-123.63 479.5,-98 448.02,-67.15 399.12,-52.96 362.53,-46.46"/>
<polygon fill="none" stroke="#404040" points="362.49,-46.45 355.92,-49.44 350.64,-44.54 357.2,-41.54 362.49,-46.45"/>
<text text-anchor="middle" x="556.5" y="-150.5" font-family="Helvetica,sans-Serif" font-size="10.00"> +Stand_nemorec</text>
<text text-anchor="middle" x="556.5" y="-139.5" font-family="Helvetica,sans-Serif" font-size="10.00">+StandframeRec</text>
<text text-anchor="middle" x="556.5" y="-128.5" font-family="Helvetica,sans-Serif" font-size="10.00">+frameRec</text>
<text text-anchor="middle" x="556.5" y="-117.5" font-family="Helvetica,sans-Serif" font-size="10.00">+nemorec</text>
</g>
</g>
</svg>
