<?xml version="1.0" encoding="UTF-8" standalone="no"?>
<!DOCTYPE svg PUBLIC "-//W3C//DTD SVG 1.1//EN"
 "http://www.w3.org/Graphics/SVG/1.1/DTD/svg11.dtd">
<!-- Generated by graphviz version 3.0.0 (20220226.1711)
 -->
<!-- Title: Mumy Pages: 1 -->
<svg width="249pt" height="215pt"
 viewBox="0.00 0.00 248.50 215.00" xmlns="http://www.w3.org/2000/svg" xmlns:xlink="http://www.w3.org/1999/xlink">
<g id="graph0" class="graph" transform="scale(1 1) rotate(0) translate(4 211)">
<title>Mumy</title>
<!-- Node1 -->
<g id="node1" class="node">
<title>Node1</title>
<g id="a_node1"><a xlink:title=" ">
<polygon fill="#bfbfbf" stroke="black" points="65,-0.5 65,-79.5 154,-79.5 154,-0.5 65,-0.5"/>
<text text-anchor="middle" x="109.5" y="-67.5" font-family="Helvetica,sans-Serif" font-size="10.00">Mumy</text>
<polyline fill="none" stroke="black" points="65,-60.5 154,-60.5 "/>
<text text-anchor="middle" x="109.5" y="-48.5" font-family="Helvetica,sans-Serif" font-size="10.00"> </text>
<polyline fill="none" stroke="black" points="65,-41.5 154,-41.5 "/>
<text text-anchor="start" x="73" y="-29.5" font-family="Helvetica,sans-Serif" font-size="10.00">+ Update()</text>
<text text-anchor="start" x="73" y="-18.5" font-family="Helvetica,sans-Serif" font-size="10.00">+ Draw()</text>
<text text-anchor="start" x="73" y="-7.5" font-family="Helvetica,sans-Serif" font-size="10.00">+ getMumyRec()</text>
</a>
</g>
</g>
<!-- Node2 -->
<g id="node2" class="node">
<title>Node2</title>
<g id="a_node2"><a xlink:title=" ">
<polygon fill="none" stroke="black" points="0,-149.5 0,-206.5 61,-206.5 61,-149.5 0,-149.5"/>
<text text-anchor="middle" x="30.5" y="-194.5" font-family="Helvetica,sans-Serif" font-size="10.00">Texture2D</text>
<polyline fill="none" stroke="black" points="0,-187.5 61,-187.5 "/>
<text text-anchor="middle" x="30.5" y="-175.5" font-family="Helvetica,sans-Serif" font-size="10.00"> </text>
<polyline fill="none" stroke="black" points="0,-168.5 61,-168.5 "/>
<text text-anchor="middle" x="30.5" y="-156.5" font-family="Helvetica,sans-Serif" font-size="10.00"> </text>
</a>
</g>
</g>
<!-- Node2&#45;&gt;Node1 -->
<g id="edge1" class="edge">
<title>Node2&#45;&gt;Node1</title>
<path fill="none" stroke="#404040" d="M33.69,-149.25C36.42,-133.42 41.42,-113.67 50.5,-98 52.46,-94.61 54.69,-91.29 57.09,-88.07"/>
<polygon fill="none" stroke="#404040" points="57.16,-87.99 57.87,-80.81 64.76,-78.7 64.06,-85.88 57.16,-87.99"/>
<text text-anchor="middle" x="78" y="-112" font-family="Helvetica,sans-Serif" font-size="10.00"> +spr_mumy</text>
</g>
<!-- Node3 -->
<g id="node3" class="node">
<title>Node3</title>
<g id="a_node3"><a xlink:title=" ">
<polygon fill="none" stroke="black" points="79.5,-149.5 79.5,-206.5 139.5,-206.5 139.5,-149.5 79.5,-149.5"/>
<text text-anchor="middle" x="109.5" y="-194.5" font-family="Helvetica,sans-Serif" font-size="10.00">Rectangle</text>
<polyline fill="none" stroke="black" points="79.5,-187.5 139.5,-187.5 "/>
<text text-anchor="middle" x="109.5" y="-175.5" font-family="Helvetica,sans-Serif" font-size="10.00"> </text>
<polyline fill="none" stroke="black" points="79.5,-168.5 139.5,-168.5 "/>
<text text-anchor="middle" x="109.5" y="-156.5" font-family="Helvetica,sans-Serif" font-size="10.00"> </text>
</a>
</g>
</g>
<!-- Node3&#45;&gt;Node1 -->
<g id="edge2" class="edge">
<title>Node3&#45;&gt;Node1</title>
<path fill="none" stroke="#404040" d="M109.5,-149.48C109.5,-132.91 109.5,-111.3 109.5,-91.73"/>
<polygon fill="none" stroke="#404040" points="109.5,-91.56 105.5,-85.56 109.5,-79.56 113.5,-85.56 109.5,-91.56"/>
<text text-anchor="middle" x="136.5" y="-123" font-family="Helvetica,sans-Serif" font-size="10.00"> +MumyRec</text>
<text text-anchor="middle" x="136.5" y="-112" font-family="Helvetica,sans-Serif" font-size="10.00">&#45;frameRec</text>
<text text-anchor="middle" x="136.5" y="-101" font-family="Helvetica,sans-Serif" font-size="10.00">&#45;mumyrec</text>
</g>
<!-- Node4 -->
<g id="node4" class="node">
<title>Node4</title>
<g id="a_node4"><a xlink:title=" ">
<polygon fill="none" stroke="black" points="172,-149.5 172,-206.5 201,-206.5 201,-149.5 172,-149.5"/>
<text text-anchor="middle" x="186.5" y="-194.5" font-family="Helvetica,sans-Serif" font-size="10.00">int</text>
<polyline fill="none" stroke="black" points="172,-187.5 201,-187.5 "/>
<text text-anchor="middle" x="186.5" y="-175.5" font-family="Helvetica,sans-Serif" font-size="10.00"> </text>
<polyline fill="none" stroke="black" points="172,-168.5 201,-168.5 "/>
<text text-anchor="middle" x="186.5" y="-156.5" font-family="Helvetica,sans-Serif" font-size="10.00"> </text>
</a>
</g>
</g>
<!-- Node4&#45;&gt;Node1 -->
<g id="edge3" class="edge">
<title>Node4&#45;&gt;Node1</title>
<path fill="none" stroke="#404040" d="M182.29,-149.36C179.05,-133.57 173.55,-113.82 164.5,-98 162.86,-95.13 161.04,-92.3 159.1,-89.53"/>
<polygon fill="none" stroke="#404040" points="158.89,-89.26 152.07,-86.94 151.58,-79.75 158.41,-82.07 158.89,-89.26"/>
<text text-anchor="middle" x="208.5" y="-112" font-family="Helvetica,sans-Serif" font-size="10.00"> &#45;currentFrame</text>
</g>
</g>
</svg>
