<?xml version="1.0" encoding="UTF-8" standalone="no"?>
<!DOCTYPE svg PUBLIC "-//W3C//DTD SVG 1.1//EN"
 "http://www.w3.org/Graphics/SVG/1.1/DTD/svg11.dtd">
<!-- Generated by graphviz version 3.0.0 (20220226.1711)
 -->
<!-- Title: Puzzle Pages: 1 -->
<svg width="879pt" height="1296pt"
 viewBox="0.00 0.00 878.50 1296.00" xmlns="http://www.w3.org/2000/svg" xmlns:xlink="http://www.w3.org/1999/xlink">
<g id="graph0" class="graph" transform="scale(1 1) rotate(0) translate(4 1292)">
<title>Puzzle</title>
<!-- Node1 -->
<g id="node1" class="node">
<title>Node1</title>
<g id="a_node1"><a xlink:title=" ">
<polygon fill="#bfbfbf" stroke="black" points="349.5,-0.5 349.5,-926.5 467.5,-926.5 467.5,-0.5 349.5,-0.5"/>
<text text-anchor="middle" x="408.5" y="-914.5" font-family="Helvetica,sans-Serif" font-size="10.00">Puzzle</text>
<polyline fill="none" stroke="black" points="349.5,-907.5 467.5,-907.5 "/>
<text text-anchor="start" x="357.5" y="-895.5" font-family="Helvetica,sans-Serif" font-size="10.00">+ PuzzelTriangle</text>
<text text-anchor="start" x="357.5" y="-884.5" font-family="Helvetica,sans-Serif" font-size="10.00">+ TriangleTrapDoor</text>
<text text-anchor="start" x="357.5" y="-873.5" font-family="Helvetica,sans-Serif" font-size="10.00">+ SquareTrapDoor</text>
<text text-anchor="start" x="357.5" y="-862.5" font-family="Helvetica,sans-Serif" font-size="10.00">+ WallTile</text>
<text text-anchor="start" x="357.5" y="-851.5" font-family="Helvetica,sans-Serif" font-size="10.00">+ Torch</text>
<text text-anchor="start" x="357.5" y="-840.5" font-family="Helvetica,sans-Serif" font-size="10.00">+ Portal</text>
<text text-anchor="start" x="357.5" y="-829.5" font-family="Helvetica,sans-Serif" font-size="10.00">+ TimeCrystal</text>
<text text-anchor="start" x="357.5" y="-818.5" font-family="Helvetica,sans-Serif" font-size="10.00">+ PuzzleTriangle</text>
<text text-anchor="start" x="357.5" y="-807.5" font-family="Helvetica,sans-Serif" font-size="10.00">+ PuzzleCircle</text>
<text text-anchor="start" x="357.5" y="-796.5" font-family="Helvetica,sans-Serif" font-size="10.00">+ PuzzleSquare</text>
<text text-anchor="start" x="357.5" y="-785.5" font-family="Helvetica,sans-Serif" font-size="10.00">+ Helmet</text>
<text text-anchor="start" x="357.5" y="-774.5" font-family="Helvetica,sans-Serif" font-size="10.00">+ HpPotion</text>
<text text-anchor="start" x="357.5" y="-763.5" font-family="Helvetica,sans-Serif" font-size="10.00">+ Key</text>
<text text-anchor="start" x="357.5" y="-752.5" font-family="Helvetica,sans-Serif" font-size="10.00">+ door1</text>
<text text-anchor="start" x="357.5" y="-741.5" font-family="Helvetica,sans-Serif" font-size="10.00">+ door3</text>
<text text-anchor="start" x="357.5" y="-730.5" font-family="Helvetica,sans-Serif" font-size="10.00">+ EpanoxRec</text>
<text text-anchor="start" x="357.5" y="-719.5" font-family="Helvetica,sans-Serif" font-size="10.00">+ EpanoxRec2</text>
<text text-anchor="start" x="357.5" y="-708.5" font-family="Helvetica,sans-Serif" font-size="10.00">+ Epanoxrec</text>
<text text-anchor="start" x="357.5" y="-697.5" font-family="Helvetica,sans-Serif" font-size="10.00">+ frameRec</text>
<text text-anchor="start" x="357.5" y="-686.5" font-family="Helvetica,sans-Serif" font-size="10.00">+ frameRecTorch</text>
<text text-anchor="start" x="357.5" y="-675.5" font-family="Helvetica,sans-Serif" font-size="10.00">+ frameRecPortal</text>
<text text-anchor="start" x="357.5" y="-664.5" font-family="Helvetica,sans-Serif" font-size="10.00">+ portal_framesCounter</text>
<text text-anchor="start" x="357.5" y="-653.5" font-family="Helvetica,sans-Serif" font-size="10.00">+ portal_framesSpeed</text>
<text text-anchor="start" x="357.5" y="-642.5" font-family="Helvetica,sans-Serif" font-size="10.00">+ textState</text>
<text text-anchor="start" x="357.5" y="-631.5" font-family="Helvetica,sans-Serif" font-size="10.00">+ position_Y</text>
<text text-anchor="start" x="357.5" y="-620.5" font-family="Helvetica,sans-Serif" font-size="10.00">+ positionL1_Y</text>
<text text-anchor="start" x="357.5" y="-609.5" font-family="Helvetica,sans-Serif" font-size="10.00">+ positionL2_Y</text>
<text text-anchor="start" x="357.5" y="-598.5" font-family="Helvetica,sans-Serif" font-size="10.00">+ positionL3_Y</text>
<text text-anchor="start" x="357.5" y="-587.5" font-family="Helvetica,sans-Serif" font-size="10.00">+ position_X</text>
<text text-anchor="start" x="357.5" y="-576.5" font-family="Helvetica,sans-Serif" font-size="10.00">+ positionL_X</text>
<text text-anchor="start" x="357.5" y="-565.5" font-family="Helvetica,sans-Serif" font-size="10.00">+ TorchPosition2</text>
<text text-anchor="start" x="357.5" y="-554.5" font-family="Helvetica,sans-Serif" font-size="10.00">+ TorchPosition3</text>
<text text-anchor="start" x="357.5" y="-543.5" font-family="Helvetica,sans-Serif" font-size="10.00">+ TorchPosition4</text>
<text text-anchor="start" x="357.5" y="-532.5" font-family="Helvetica,sans-Serif" font-size="10.00">+ TorchPosition5</text>
<text text-anchor="start" x="357.5" y="-521.5" font-family="Helvetica,sans-Serif" font-size="10.00">+ TorchPosition6</text>
<text text-anchor="start" x="357.5" y="-510.5" font-family="Helvetica,sans-Serif" font-size="10.00">+ TorchPosition7</text>
<text text-anchor="start" x="357.5" y="-499.5" font-family="Helvetica,sans-Serif" font-size="10.00">+ TorchPosition8</text>
<text text-anchor="start" x="357.5" y="-488.5" font-family="Helvetica,sans-Serif" font-size="10.00">+ TorchPosition9</text>
<text text-anchor="start" x="357.5" y="-477.5" font-family="Helvetica,sans-Serif" font-size="10.00">+ TorchPosition18</text>
<text text-anchor="start" x="357.5" y="-466.5" font-family="Helvetica,sans-Serif" font-size="10.00">+ TorchPosition19</text>
<text text-anchor="start" x="357.5" y="-455.5" font-family="Helvetica,sans-Serif" font-size="10.00">+ TorchPosition20</text>
<text text-anchor="start" x="357.5" y="-444.5" font-family="Helvetica,sans-Serif" font-size="10.00">+ TorchPosition21</text>
<text text-anchor="start" x="357.5" y="-433.5" font-family="Helvetica,sans-Serif" font-size="10.00">+ TorchPosition24</text>
<text text-anchor="start" x="357.5" y="-422.5" font-family="Helvetica,sans-Serif" font-size="10.00">+ TorchPosition22</text>
<text text-anchor="start" x="357.5" y="-411.5" font-family="Helvetica,sans-Serif" font-size="10.00">+ TorchPosition23</text>
<text text-anchor="start" x="357.5" y="-400.5" font-family="Helvetica,sans-Serif" font-size="10.00">+ textPosNameBox</text>
<text text-anchor="start" x="357.5" y="-389.5" font-family="Helvetica,sans-Serif" font-size="10.00">+ textPosLine1</text>
<text text-anchor="start" x="357.5" y="-378.5" font-family="Helvetica,sans-Serif" font-size="10.00">+ textPosLine2</text>
<text text-anchor="start" x="357.5" y="-367.5" font-family="Helvetica,sans-Serif" font-size="10.00">+ textPosLine3</text>
<text text-anchor="start" x="357.5" y="-356.5" font-family="Helvetica,sans-Serif" font-size="10.00">+ puzzleCollision1</text>
<text text-anchor="start" x="357.5" y="-345.5" font-family="Helvetica,sans-Serif" font-size="10.00">+ puzzleCollision2</text>
<text text-anchor="start" x="357.5" y="-334.5" font-family="Helvetica,sans-Serif" font-size="10.00">+ puzzleCollision3</text>
<text text-anchor="start" x="357.5" y="-323.5" font-family="Helvetica,sans-Serif" font-size="10.00">+ helmetCollision</text>
<text text-anchor="start" x="357.5" y="-312.5" font-family="Helvetica,sans-Serif" font-size="10.00">+ chestplateCollision</text>
<text text-anchor="start" x="357.5" y="-301.5" font-family="Helvetica,sans-Serif" font-size="10.00">+ hp_potionCollision</text>
<text text-anchor="start" x="357.5" y="-290.5" font-family="Helvetica,sans-Serif" font-size="10.00">+ keyCollision</text>
<text text-anchor="start" x="357.5" y="-279.5" font-family="Helvetica,sans-Serif" font-size="10.00">+ chestIsDrawn</text>
<text text-anchor="start" x="357.5" y="-268.5" font-family="Helvetica,sans-Serif" font-size="10.00">+ helmetIsDrawn</text>
<text text-anchor="start" x="357.5" y="-257.5" font-family="Helvetica,sans-Serif" font-size="10.00">+ chestplateIsDrawn</text>
<text text-anchor="start" x="357.5" y="-246.5" font-family="Helvetica,sans-Serif" font-size="10.00">+ hpPotionIsDrawn</text>
<text text-anchor="start" x="357.5" y="-235.5" font-family="Helvetica,sans-Serif" font-size="10.00">+ keyIsDrawn</text>
<text text-anchor="start" x="357.5" y="-224.5" font-family="Helvetica,sans-Serif" font-size="10.00">+ isKeyPickedUp</text>
<text text-anchor="start" x="357.5" y="-213.5" font-family="Helvetica,sans-Serif" font-size="10.00">+ wallPuzzlePart1</text>
<text text-anchor="start" x="357.5" y="-202.5" font-family="Helvetica,sans-Serif" font-size="10.00">+ wallPuzzlePart2</text>
<text text-anchor="start" x="357.5" y="-191.5" font-family="Helvetica,sans-Serif" font-size="10.00">+ wallPuzzlePart3</text>
<text text-anchor="start" x="357.5" y="-180.5" font-family="Helvetica,sans-Serif" font-size="10.00">+ wallIsOpen</text>
<text text-anchor="start" x="357.5" y="-169.5" font-family="Helvetica,sans-Serif" font-size="10.00">+ text</text>
<text text-anchor="start" x="357.5" y="-158.5" font-family="Helvetica,sans-Serif" font-size="10.00">+ textdoor</text>
<text text-anchor="start" x="357.5" y="-147.5" font-family="Helvetica,sans-Serif" font-size="10.00">+ textdoor3</text>
<text text-anchor="start" x="357.5" y="-136.5" font-family="Helvetica,sans-Serif" font-size="10.00">+ doorcollision1</text>
<text text-anchor="start" x="357.5" y="-125.5" font-family="Helvetica,sans-Serif" font-size="10.00">+ doorcollision3</text>
<polyline fill="none" stroke="black" points="349.5,-118.5 467.5,-118.5 "/>
<text text-anchor="start" x="357.5" y="-106.5" font-family="Helvetica,sans-Serif" font-size="10.00">+ Puzzle()</text>
<text text-anchor="start" x="357.5" y="-95.5" font-family="Helvetica,sans-Serif" font-size="10.00">+ collisionChecks()</text>
<text text-anchor="start" x="357.5" y="-84.5" font-family="Helvetica,sans-Serif" font-size="10.00">+ stopNemo()</text>
<text text-anchor="start" x="357.5" y="-73.5" font-family="Helvetica,sans-Serif" font-size="10.00">+ torchAnimation()</text>
<text text-anchor="start" x="357.5" y="-62.5" font-family="Helvetica,sans-Serif" font-size="10.00">+ portalAnimation()</text>
<text text-anchor="start" x="357.5" y="-51.5" font-family="Helvetica,sans-Serif" font-size="10.00">+ epanoxAnimation()</text>
<text text-anchor="start" x="357.5" y="-40.5" font-family="Helvetica,sans-Serif" font-size="10.00">+ crystaldraw()</text>
<text text-anchor="start" x="357.5" y="-29.5" font-family="Helvetica,sans-Serif" font-size="10.00">+ update()</text>
<text text-anchor="start" x="357.5" y="-18.5" font-family="Helvetica,sans-Serif" font-size="10.00">+ draw()</text>
<text text-anchor="start" x="357.5" y="-7.5" font-family="Helvetica,sans-Serif" font-size="10.00">+ ~Puzzle()</text>
</a>
</g>
</g>
<!-- Node2 -->
<g id="node2" class="node">
<title>Node2</title>
<g id="a_node2"><a xlink:href="class_game_1_1_nemo.html" target="_top" xlink:title=" ">
<polygon fill="none" stroke="black" points="468.5,-995 468.5,-1074 542.5,-1074 542.5,-995 468.5,-995"/>
<text text-anchor="middle" x="505.5" y="-1062" font-family="Helvetica,sans-Serif" font-size="10.00">Game::Nemo</text>
<polyline fill="none" stroke="black" points="468.5,-1055 542.5,-1055 "/>
<text text-anchor="middle" x="505.5" y="-1043" font-family="Helvetica,sans-Serif" font-size="10.00"> </text>
<polyline fill="none" stroke="black" points="468.5,-1036 542.5,-1036 "/>
<text text-anchor="start" x="476.5" y="-1024" font-family="Helvetica,sans-Serif" font-size="10.00">+ Update()</text>
<text text-anchor="start" x="476.5" y="-1013" font-family="Helvetica,sans-Serif" font-size="10.00">+ Draw()</text>
<text text-anchor="start" x="476.5" y="-1002" font-family="Helvetica,sans-Serif" font-size="10.00">+ ~Nemo()</text>
</a>
</g>
</g>
<!-- Node2&#45;&gt;Node1 -->
<g id="edge1" class="edge">
<title>Node2&#45;&gt;Node1</title>
<path fill="none" stroke="#404040" d="M498.91,-994.84C492.33,-956.24 481.5,-892.73 469.59,-822.83"/>
<polygon fill="none" stroke="#404040" points="469.52,-822.46 464.57,-817.22 467.51,-810.63 472.46,-815.88 469.52,-822.46"/>
<text text-anchor="middle" x="508.5" y="-948" font-family="Helvetica,sans-Serif" font-size="10.00"> +nemo</text>
</g>
<!-- Node3 -->
<g id="node3" class="node">
<title>Node3</title>
<g id="a_node3"><a xlink:title=" ">
<polygon fill="none" stroke="black" points="237,-1230.5 237,-1287.5 266,-1287.5 266,-1230.5 237,-1230.5"/>
<text text-anchor="middle" x="251.5" y="-1275.5" font-family="Helvetica,sans-Serif" font-size="10.00">int</text>
<polyline fill="none" stroke="black" points="237,-1268.5 266,-1268.5 "/>
<text text-anchor="middle" x="251.5" y="-1256.5" font-family="Helvetica,sans-Serif" font-size="10.00"> </text>
<polyline fill="none" stroke="black" points="237,-1249.5 266,-1249.5 "/>
<text text-anchor="middle" x="251.5" y="-1237.5" font-family="Helvetica,sans-Serif" font-size="10.00"> </text>
</a>
</g>
</g>
<!-- Node3&#45;&gt;Node1 -->
<g id="edge12" class="edge">
<title>Node3&#45;&gt;Node1</title>
<path fill="none" stroke="#404040" d="M250.98,-1230.45C250.6,-1201.27 250.45,-1153.86 252.5,-1113 255.61,-1051.03 254.18,-1035.01 265.5,-974 285.27,-867.45 317.18,-750.92 345.85,-656.23"/>
<polygon fill="none" stroke="#404040" points="345.92,-655.98 343.84,-649.07 349.41,-644.5 351.49,-651.4 345.92,-655.98"/>
<text text-anchor="middle" x="318" y="-1087" font-family="Helvetica,sans-Serif" font-size="10.00"> +crystal_currentFrame</text>
<text text-anchor="middle" x="318" y="-1076" font-family="Helvetica,sans-Serif" font-size="10.00">+crystal_framescounter</text>
<text text-anchor="middle" x="318" y="-1065" font-family="Helvetica,sans-Serif" font-size="10.00">+crystal_framesspeed</text>
<text text-anchor="middle" x="318" y="-1054" font-family="Helvetica,sans-Serif" font-size="10.00">+currentFrame</text>
<text text-anchor="middle" x="318" y="-1043" font-family="Helvetica,sans-Serif" font-size="10.00">+epanox_currentFrame</text>
<text text-anchor="middle" x="318" y="-1032" font-family="Helvetica,sans-Serif" font-size="10.00">+epanox_framescounter</text>
<text text-anchor="middle" x="318" y="-1021" font-family="Helvetica,sans-Serif" font-size="10.00">+epanox_framesspeed</text>
<text text-anchor="middle" x="318" y="-1010" font-family="Helvetica,sans-Serif" font-size="10.00">+framesCounter</text>
<text text-anchor="middle" x="318" y="-999" font-family="Helvetica,sans-Serif" font-size="10.00">+framesSpeed</text>
<text text-anchor="middle" x="318" y="-988" font-family="Helvetica,sans-Serif" font-size="10.00">+portal_currentFrame</text>
<text text-anchor="middle" x="318" y="-977" font-family="Helvetica,sans-Serif" font-size="10.00">...</text>
</g>
<!-- Node3&#45;&gt;Node2 -->
<g id="edge2" class="edge">
<title>Node3&#45;&gt;Node2</title>
<path fill="none" stroke="#404040" d="M253.23,-1230.36C256.93,-1196.92 268.47,-1141.54 304.5,-1113 357.13,-1071.31 395.28,-1126.65 454.5,-1095 460.42,-1091.83 465.96,-1087.68 471.04,-1083.03"/>
<polygon fill="none" stroke="#404040" points="471.26,-1082.8 472.61,-1075.71 479.67,-1074.23 478.32,-1081.32 471.26,-1082.8"/>
<text text-anchor="middle" x="339.5" y="-1176.5" font-family="Helvetica,sans-Serif" font-size="10.00"> +HP</text>
<text text-anchor="middle" x="339.5" y="-1165.5" font-family="Helvetica,sans-Serif" font-size="10.00">+currentFrame</text>
<text text-anchor="middle" x="339.5" y="-1154.5" font-family="Helvetica,sans-Serif" font-size="10.00">+framesCounter</text>
<text text-anchor="middle" x="339.5" y="-1143.5" font-family="Helvetica,sans-Serif" font-size="10.00">+framesSpeed</text>
</g>
<!-- Node4 -->
<g id="node4" class="node">
<title>Node4</title>
<g id="a_node4"><a xlink:title=" ">
<polygon fill="none" stroke="black" points="0,-1230.5 0,-1287.5 35,-1287.5 35,-1230.5 0,-1230.5"/>
<text text-anchor="middle" x="17.5" y="-1275.5" font-family="Helvetica,sans-Serif" font-size="10.00">float</text>
<polyline fill="none" stroke="black" points="0,-1268.5 35,-1268.5 "/>
<text text-anchor="middle" x="17.5" y="-1256.5" font-family="Helvetica,sans-Serif" font-size="10.00"> </text>
<polyline fill="none" stroke="black" points="0,-1249.5 35,-1249.5 "/>
<text text-anchor="middle" x="17.5" y="-1237.5" font-family="Helvetica,sans-Serif" font-size="10.00"> </text>
</a>
</g>
</g>
<!-- Node4&#45;&gt;Node1 -->
<g id="edge13" class="edge">
<title>Node4&#45;&gt;Node1</title>
<path fill="none" stroke="#404040" d="M16.8,-1230.27C16.67,-1224.25 16.56,-1217.91 16.5,-1212 15.34,-1104.96 8.45,-1071.11 53.5,-974 130.67,-807.66 262,-637.44 341.46,-541.93"/>
<polygon fill="none" stroke="#404040" points="341.53,-541.85 342.31,-534.68 349.22,-532.64 348.45,-539.81 341.53,-541.85"/>
<text text-anchor="middle" x="91.5" y="-1054" font-family="Helvetica,sans-Serif" font-size="10.00"> +add</text>
<text text-anchor="middle" x="91.5" y="-1043" font-family="Helvetica,sans-Serif" font-size="10.00">+fontSize</text>
<text text-anchor="middle" x="91.5" y="-1032" font-family="Helvetica,sans-Serif" font-size="10.00">+fontSizeSPACE</text>
<text text-anchor="middle" x="91.5" y="-1021" font-family="Helvetica,sans-Serif" font-size="10.00">+fontSpacing</text>
<text text-anchor="middle" x="91.5" y="-1010" font-family="Helvetica,sans-Serif" font-size="10.00">+timesinceIdle</text>
</g>
<!-- Node4&#45;&gt;Node2 -->
<g id="edge3" class="edge">
<title>Node4&#45;&gt;Node2</title>
<path fill="none" stroke="#404040" d="M17.87,-1230.31C19.98,-1196.54 29.15,-1140.55 65.5,-1113 99.98,-1086.86 415.62,-1113.98 454.5,-1095 460.84,-1091.9 466.71,-1087.62 472.04,-1082.75"/>
<polygon fill="none" stroke="#404040" points="472.08,-1082.7 473.41,-1075.62 480.47,-1074.12 479.14,-1081.21 472.08,-1082.7"/>
<text text-anchor="middle" x="97.5" y="-1176.5" font-family="Helvetica,sans-Serif" font-size="10.00"> +nemoheight</text>
<text text-anchor="middle" x="97.5" y="-1165.5" font-family="Helvetica,sans-Serif" font-size="10.00">+nemowidth</text>
<text text-anchor="middle" x="97.5" y="-1154.5" font-family="Helvetica,sans-Serif" font-size="10.00">+timesinceIdle</text>
<text text-anchor="middle" x="97.5" y="-1143.5" font-family="Helvetica,sans-Serif" font-size="10.00">+walkspeed</text>
</g>
<!-- Node5 -->
<g id="node5" class="node">
<title>Node5</title>
<g id="a_node5"><a xlink:title=" ">
<polygon fill="none" stroke="black" points="103.5,-1230.5 103.5,-1287.5 153.5,-1287.5 153.5,-1230.5 103.5,-1230.5"/>
<text text-anchor="middle" x="128.5" y="-1275.5" font-family="Helvetica,sans-Serif" font-size="10.00">Vector2</text>
<polyline fill="none" stroke="black" points="103.5,-1268.5 153.5,-1268.5 "/>
<text text-anchor="middle" x="128.5" y="-1256.5" font-family="Helvetica,sans-Serif" font-size="10.00"> </text>
<polyline fill="none" stroke="black" points="103.5,-1249.5 153.5,-1249.5 "/>
<text text-anchor="middle" x="128.5" y="-1237.5" font-family="Helvetica,sans-Serif" font-size="10.00"> </text>
</a>
</g>
</g>
<!-- Node5&#45;&gt;Node1 -->
<g id="edge14" class="edge">
<title>Node5&#45;&gt;Node1</title>
<path fill="none" stroke="#404040" d="M126.25,-1230.27C124.43,-1200.94 123.11,-1153.41 129.5,-1113 161.57,-910.08 271.25,-694.88 343.16,-570.46"/>
<polygon fill="none" stroke="#404040" points="343.32,-570.19 342.88,-563 349.35,-559.82 349.79,-567.02 343.32,-570.19"/>
<text text-anchor="middle" x="199.5" y="-1087" font-family="Helvetica,sans-Serif" font-size="10.00"> +PortalPosition</text>
<text text-anchor="middle" x="199.5" y="-1076" font-family="Helvetica,sans-Serif" font-size="10.00">+TorchPosition</text>
<text text-anchor="middle" x="199.5" y="-1065" font-family="Helvetica,sans-Serif" font-size="10.00">+TorchPosition10</text>
<text text-anchor="middle" x="199.5" y="-1054" font-family="Helvetica,sans-Serif" font-size="10.00">+TorchPosition11</text>
<text text-anchor="middle" x="199.5" y="-1043" font-family="Helvetica,sans-Serif" font-size="10.00">+TorchPosition12</text>
<text text-anchor="middle" x="199.5" y="-1032" font-family="Helvetica,sans-Serif" font-size="10.00">+TorchPosition13</text>
<text text-anchor="middle" x="199.5" y="-1021" font-family="Helvetica,sans-Serif" font-size="10.00">+TorchPosition14</text>
<text text-anchor="middle" x="199.5" y="-1010" font-family="Helvetica,sans-Serif" font-size="10.00">+TorchPosition15</text>
<text text-anchor="middle" x="199.5" y="-999" font-family="Helvetica,sans-Serif" font-size="10.00">+TorchPosition16</text>
<text text-anchor="middle" x="199.5" y="-988" font-family="Helvetica,sans-Serif" font-size="10.00">+TorchPosition17</text>
<text text-anchor="middle" x="199.5" y="-977" font-family="Helvetica,sans-Serif" font-size="10.00">...</text>
</g>
<!-- Node5&#45;&gt;Node2 -->
<g id="edge4" class="edge">
<title>Node5&#45;&gt;Node2</title>
<path fill="none" stroke="#404040" d="M130.16,-1230.32C133.81,-1196.57 145.45,-1140.6 182.5,-1113 231.08,-1076.81 400.33,-1122.12 454.5,-1095 460.58,-1091.95 466.24,-1087.83 471.39,-1083.16"/>
<polygon fill="none" stroke="#404040" points="471.71,-1082.84 473.07,-1075.76 480.13,-1074.29 478.77,-1081.37 471.71,-1082.84"/>
<text text-anchor="middle" x="217.5" y="-1160" font-family="Helvetica,sans-Serif" font-size="10.00"> +NemoPosition</text>
</g>
<!-- Node6 -->
<g id="node6" class="node">
<title>Node6</title>
<g id="a_node6"><a xlink:title=" ">
<polygon fill="none" stroke="black" points="537,-1230.5 537,-1287.5 572,-1287.5 572,-1230.5 537,-1230.5"/>
<text text-anchor="middle" x="554.5" y="-1275.5" font-family="Helvetica,sans-Serif" font-size="10.00">bool</text>
<polyline fill="none" stroke="black" points="537,-1268.5 572,-1268.5 "/>
<text text-anchor="middle" x="554.5" y="-1256.5" font-family="Helvetica,sans-Serif" font-size="10.00"> </text>
<polyline fill="none" stroke="black" points="537,-1249.5 572,-1249.5 "/>
<text text-anchor="middle" x="554.5" y="-1237.5" font-family="Helvetica,sans-Serif" font-size="10.00"> </text>
</a>
</g>
</g>
<!-- Node6&#45;&gt;Node1 -->
<g id="edge15" class="edge">
<title>Node6&#45;&gt;Node1</title>
<path fill="none" stroke="#404040" d="M572.16,-1242.83C580.33,-1234.64 589.17,-1223.8 593.5,-1212 608.65,-1170.69 599.59,-1156.58 593.5,-1113 570.36,-947.55 515.54,-765.06 471.54,-635.93"/>
<polygon fill="none" stroke="#404040" points="471.48,-635.74 465.75,-631.36 467.59,-624.38 473.32,-628.76 471.48,-635.74"/>
<text text-anchor="middle" x="634.5" y="-1087" font-family="Helvetica,sans-Serif" font-size="10.00"> +EpanoxCollision</text>
<text text-anchor="middle" x="634.5" y="-1076" font-family="Helvetica,sans-Serif" font-size="10.00">+EpanoxCollision2</text>
<text text-anchor="middle" x="634.5" y="-1065" font-family="Helvetica,sans-Serif" font-size="10.00">+chest2IsDrawn</text>
<text text-anchor="middle" x="634.5" y="-1054" font-family="Helvetica,sans-Serif" font-size="10.00">+chest3IsDrawn</text>
<text text-anchor="middle" x="634.5" y="-1043" font-family="Helvetica,sans-Serif" font-size="10.00">+chestCollision</text>
<text text-anchor="middle" x="634.5" y="-1032" font-family="Helvetica,sans-Serif" font-size="10.00">+chestCollision2</text>
<text text-anchor="middle" x="634.5" y="-1021" font-family="Helvetica,sans-Serif" font-size="10.00">+chestCollision3</text>
<text text-anchor="middle" x="634.5" y="-1010" font-family="Helvetica,sans-Serif" font-size="10.00">+chestCollisionNS1</text>
<text text-anchor="middle" x="634.5" y="-999" font-family="Helvetica,sans-Serif" font-size="10.00">+chestCollisionNS2</text>
<text text-anchor="middle" x="634.5" y="-988" font-family="Helvetica,sans-Serif" font-size="10.00">+chestCollisionNS3</text>
<text text-anchor="middle" x="634.5" y="-977" font-family="Helvetica,sans-Serif" font-size="10.00">...</text>
</g>
<!-- Node6&#45;&gt;Node2 -->
<g id="edge5" class="edge">
<title>Node6&#45;&gt;Node2</title>
<path fill="none" stroke="#404040" d="M542.55,-1230.08C540.32,-1224.18 538.17,-1217.95 536.5,-1212 524.81,-1170.33 516.68,-1121.84 511.68,-1086.23"/>
<polygon fill="none" stroke="#404040" points="511.66,-1086.1 506.89,-1080.7 510.04,-1074.21 514.81,-1079.62 511.66,-1086.1"/>
<text text-anchor="middle" x="565" y="-1182" font-family="Helvetica,sans-Serif" font-size="10.00"> +active</text>
<text text-anchor="middle" x="565" y="-1171" font-family="Helvetica,sans-Serif" font-size="10.00">+alive</text>
<text text-anchor="middle" x="565" y="-1160" font-family="Helvetica,sans-Serif" font-size="10.00">+keypressed</text>
<text text-anchor="middle" x="565" y="-1149" font-family="Helvetica,sans-Serif" font-size="10.00">+sound</text>
<text text-anchor="middle" x="565" y="-1138" font-family="Helvetica,sans-Serif" font-size="10.00">+standing</text>
</g>
<!-- Node7 -->
<g id="node7" class="node">
<title>Node7</title>
<g id="a_node7"><a xlink:title=" ">
<polygon fill="none" stroke="black" points="438,-1230.5 438,-1287.5 491,-1287.5 491,-1230.5 438,-1230.5"/>
<text text-anchor="middle" x="464.5" y="-1275.5" font-family="Helvetica,sans-Serif" font-size="10.00">direction</text>
<polyline fill="none" stroke="black" points="438,-1268.5 491,-1268.5 "/>
<text text-anchor="middle" x="464.5" y="-1256.5" font-family="Helvetica,sans-Serif" font-size="10.00"> </text>
<polyline fill="none" stroke="black" points="438,-1249.5 491,-1249.5 "/>
<text text-anchor="middle" x="464.5" y="-1237.5" font-family="Helvetica,sans-Serif" font-size="10.00"> </text>
</a>
</g>
</g>
<!-- Node7&#45;&gt;Node2 -->
<g id="edge6" class="edge">
<title>Node7&#45;&gt;Node2</title>
<path fill="none" stroke="#404040" d="M460.91,-1230.27C457.96,-1200.73 455.68,-1152.84 465.5,-1113 467.79,-1103.7 471.4,-1094.26 475.52,-1085.32"/>
<polygon fill="none" stroke="#404040" points="475.65,-1085.06 474.72,-1077.91 480.97,-1074.31 481.89,-1081.46 475.65,-1085.06"/>
<text text-anchor="middle" x="489.5" y="-1160" font-family="Helvetica,sans-Serif" font-size="10.00"> +Direction</text>
</g>
<!-- Node8 -->
<g id="node8" class="node">
<title>Node8</title>
<g id="a_node8"><a xlink:title=" ">
<polygon fill="none" stroke="black" points="347,-1230.5 347,-1287.5 408,-1287.5 408,-1230.5 347,-1230.5"/>
<text text-anchor="middle" x="377.5" y="-1275.5" font-family="Helvetica,sans-Serif" font-size="10.00">Texture2D</text>
<polyline fill="none" stroke="black" points="347,-1268.5 408,-1268.5 "/>
<text text-anchor="middle" x="377.5" y="-1256.5" font-family="Helvetica,sans-Serif" font-size="10.00"> </text>
<polyline fill="none" stroke="black" points="347,-1249.5 408,-1249.5 "/>
<text text-anchor="middle" x="377.5" y="-1237.5" font-family="Helvetica,sans-Serif" font-size="10.00"> </text>
</a>
</g>
</g>
<!-- Node8&#45;&gt;Node1 -->
<g id="edge9" class="edge">
<title>Node8&#45;&gt;Node1</title>
<path fill="none" stroke="#404040" d="M376.84,-1230.31C376.09,-1197.89 374.94,-1142.55 374.5,-1095 374.01,-1041.22 372.71,-1027.75 374.5,-974 374.88,-962.49 375.32,-950.84 375.79,-939.09"/>
<polygon fill="none" stroke="#404040" points="375.8,-938.8 372.05,-932.64 376.3,-926.81 380.05,-932.97 375.8,-938.8"/>
<text text-anchor="middle" x="417" y="-1087" font-family="Helvetica,sans-Serif" font-size="10.00"> +ChestOpen</text>
<text text-anchor="middle" x="417" y="-1076" font-family="Helvetica,sans-Serif" font-size="10.00">+ChestplateTexture</text>
<text text-anchor="middle" x="417" y="-1065" font-family="Helvetica,sans-Serif" font-size="10.00">+CircleTrapDoor</text>
<text text-anchor="middle" x="417" y="-1054" font-family="Helvetica,sans-Serif" font-size="10.00">+Dialogbox</text>
<text text-anchor="middle" x="417" y="-1043" font-family="Helvetica,sans-Serif" font-size="10.00">+DungeonFloorTile</text>
<text text-anchor="middle" x="417" y="-1032" font-family="Helvetica,sans-Serif" font-size="10.00">+EpanoxSheet</text>
<text text-anchor="middle" x="417" y="-1021" font-family="Helvetica,sans-Serif" font-size="10.00">+HelmetItem</text>
<text text-anchor="middle" x="417" y="-1010" font-family="Helvetica,sans-Serif" font-size="10.00">+HelmetTexture</text>
<text text-anchor="middle" x="417" y="-999" font-family="Helvetica,sans-Serif" font-size="10.00">+HpPotionTexture</text>
<text text-anchor="middle" x="417" y="-988" font-family="Helvetica,sans-Serif" font-size="10.00">+KeyTexture</text>
<text text-anchor="middle" x="417" y="-977" font-family="Helvetica,sans-Serif" font-size="10.00">...</text>
</g>
<!-- Node8&#45;&gt;Node2 -->
<g id="edge7" class="edge">
<title>Node8&#45;&gt;Node2</title>
<path fill="none" stroke="#404040" d="M376.84,-1230.42C377.53,-1198.55 383.35,-1146.26 411.5,-1113 424.88,-1097.19 437.75,-1107.19 454.5,-1095 459.27,-1091.53 463.88,-1087.53 468.26,-1083.28"/>
<polygon fill="none" stroke="#404040" points="468.58,-1082.94 469.84,-1075.84 476.88,-1074.28 475.62,-1081.38 468.58,-1082.94"/>
<text text-anchor="middle" x="433" y="-1204" font-family="Helvetica,sans-Serif" font-size="10.00"> +Back</text>
<text text-anchor="middle" x="433" y="-1193" font-family="Helvetica,sans-Serif" font-size="10.00">+BackStil</text>
<text text-anchor="middle" x="433" y="-1182" font-family="Helvetica,sans-Serif" font-size="10.00">+Front</text>
<text text-anchor="middle" x="433" y="-1171" font-family="Helvetica,sans-Serif" font-size="10.00">+FrontStil</text>
<text text-anchor="middle" x="433" y="-1160" font-family="Helvetica,sans-Serif" font-size="10.00">+Left</text>
<text text-anchor="middle" x="433" y="-1149" font-family="Helvetica,sans-Serif" font-size="10.00">+LeftStil</text>
<text text-anchor="middle" x="433" y="-1138" font-family="Helvetica,sans-Serif" font-size="10.00">+Right</text>
<text text-anchor="middle" x="433" y="-1127" font-family="Helvetica,sans-Serif" font-size="10.00">+RightStil</text>
<text text-anchor="middle" x="433" y="-1116" font-family="Helvetica,sans-Serif" font-size="10.00">+Stand</text>
</g>
<!-- Node9 -->
<g id="node9" class="node">
<title>Node9</title>
<g id="a_node9"><a xlink:title=" ">
<polygon fill="none" stroke="black" points="655.5,-1230.5 655.5,-1287.5 715.5,-1287.5 715.5,-1230.5 655.5,-1230.5"/>
<text text-anchor="middle" x="685.5" y="-1275.5" font-family="Helvetica,sans-Serif" font-size="10.00">Rectangle</text>
<polyline fill="none" stroke="black" points="655.5,-1268.5 715.5,-1268.5 "/>
<text text-anchor="middle" x="685.5" y="-1256.5" font-family="Helvetica,sans-Serif" font-size="10.00"> </text>
<polyline fill="none" stroke="black" points="655.5,-1249.5 715.5,-1249.5 "/>
<text text-anchor="middle" x="685.5" y="-1237.5" font-family="Helvetica,sans-Serif" font-size="10.00"> </text>
</a>
</g>
</g>
<!-- Node9&#45;&gt;Node1 -->
<g id="edge11" class="edge">
<title>Node9&#45;&gt;Node1</title>
<path fill="none" stroke="#404040" d="M708.56,-1230.48C712.24,-1224.7 715.49,-1218.41 717.5,-1212 749.51,-1109.92 720.45,-1073.64 681.5,-974 624.24,-827.54 534.79,-669.47 474.01,-568.89"/>
<polygon fill="none" stroke="#404040" points="473.89,-568.69 467.36,-565.63 467.67,-558.43 474.2,-561.49 473.89,-568.69"/>
<text text-anchor="middle" x="769" y="-1087" font-family="Helvetica,sans-Serif" font-size="10.00"> +Chest</text>
<text text-anchor="middle" x="769" y="-1076" font-family="Helvetica,sans-Serif" font-size="10.00">+Chest2</text>
<text text-anchor="middle" x="769" y="-1065" font-family="Helvetica,sans-Serif" font-size="10.00">+Chest3</text>
<text text-anchor="middle" x="769" y="-1054" font-family="Helvetica,sans-Serif" font-size="10.00">+ChestNS</text>
<text text-anchor="middle" x="769" y="-1043" font-family="Helvetica,sans-Serif" font-size="10.00">+ChestNS2</text>
<text text-anchor="middle" x="769" y="-1032" font-family="Helvetica,sans-Serif" font-size="10.00">+ChestNS3</text>
<text text-anchor="middle" x="769" y="-1021" font-family="Helvetica,sans-Serif" font-size="10.00">+Chestplate</text>
<text text-anchor="middle" x="769" y="-1010" font-family="Helvetica,sans-Serif" font-size="10.00">+CrystalFrameRec</text>
<text text-anchor="middle" x="769" y="-999" font-family="Helvetica,sans-Serif" font-size="10.00">+Crystalrec</text>
<text text-anchor="middle" x="769" y="-988" font-family="Helvetica,sans-Serif" font-size="10.00">+EpanoxFrameRec</text>
<text text-anchor="middle" x="769" y="-977" font-family="Helvetica,sans-Serif" font-size="10.00">...</text>
</g>
<!-- Node9&#45;&gt;Node2 -->
<g id="edge8" class="edge">
<title>Node9&#45;&gt;Node2</title>
<path fill="none" stroke="#404040" d="M656.16,-1230.36C650.9,-1224.59 645.75,-1218.33 641.5,-1212 614.68,-1172.01 626.43,-1151.49 597.5,-1113 584.93,-1096.27 568.1,-1080.76 552.28,-1068.09"/>
<polygon fill="none" stroke="#404040" points="552.08,-1067.93 544.89,-1067.41 542.6,-1060.57 549.8,-1061.09 552.08,-1067.93"/>
<text text-anchor="middle" x="679.5" y="-1171" font-family="Helvetica,sans-Serif" font-size="10.00"> +StandframeRec</text>
<text text-anchor="middle" x="679.5" y="-1160" font-family="Helvetica,sans-Serif" font-size="10.00">+frameRec</text>
<text text-anchor="middle" x="679.5" y="-1149" font-family="Helvetica,sans-Serif" font-size="10.00">+nemorec</text>
</g>
<!-- Node10 -->
<g id="node10" class="node">
<title>Node10</title>
<g id="a_node10"><a xlink:title=" ">
<polygon fill="none" stroke="black" points="834.5,-1006 834.5,-1063 870.5,-1063 870.5,-1006 834.5,-1006"/>
<text text-anchor="middle" x="852.5" y="-1051" font-family="Helvetica,sans-Serif" font-size="10.00">Font</text>
<polyline fill="none" stroke="black" points="834.5,-1044 870.5,-1044 "/>
<text text-anchor="middle" x="852.5" y="-1032" font-family="Helvetica,sans-Serif" font-size="10.00"> </text>
<polyline fill="none" stroke="black" points="834.5,-1025 870.5,-1025 "/>
<text text-anchor="middle" x="852.5" y="-1013" font-family="Helvetica,sans-Serif" font-size="10.00"> </text>
</a>
</g>
</g>
<!-- Node10&#45;&gt;Node1 -->
<g id="edge10" class="edge">
<title>Node10&#45;&gt;Node1</title>
<path fill="none" stroke="#404040" d="M839.04,-1005.93C833.67,-995.66 827.19,-984.06 820.5,-974 711.44,-809.96 561.41,-634.72 475.74,-538.49"/>
<polygon fill="none" stroke="#404040" points="475.64,-538.38 468.66,-536.56 467.65,-529.42 474.63,-531.24 475.64,-538.38"/>
<text text-anchor="middle" x="828.5" y="-948" font-family="Helvetica,sans-Serif" font-size="10.00"> +textFont</text>
</g>
</g>
</svg>
