<?xml version="1.0" encoding="UTF-8" standalone="no"?>
<!DOCTYPE svg PUBLIC "-//W3C//DTD SVG 1.1//EN"
 "http://www.w3.org/Graphics/SVG/1.1/DTD/svg11.dtd">
<!-- Generated by graphviz version 3.0.0 (20220226.1711)
 -->
<!-- Title: Game::Player Pages: 1 -->
<svg width="604pt" height="650pt"
 viewBox="0.00 0.00 603.93 650.00" xmlns="http://www.w3.org/2000/svg" xmlns:xlink="http://www.w3.org/1999/xlink">
<g id="graph0" class="graph" transform="scale(1 1) rotate(0) translate(4 646)">
<title>Game::Player</title>
<!-- Node1 -->
<g id="node1" class="node">
<title>Node1</title>
<g id="a_node1"><a xlink:title=" ">
<polygon fill="#bfbfbf" stroke="black" points="257.93,-0.5 257.93,-167.5 360.93,-167.5 360.93,-0.5 257.93,-0.5"/>
<text text-anchor="middle" x="309.43" y="-155.5" font-family="Helvetica,sans-Serif" font-size="10.00">Game::Player</text>
<polyline fill="none" stroke="black" points="257.93,-148.5 360.93,-148.5 "/>
<text text-anchor="middle" x="309.43" y="-136.5" font-family="Helvetica,sans-Serif" font-size="10.00"> </text>
<polyline fill="none" stroke="black" points="257.93,-129.5 360.93,-129.5 "/>
<text text-anchor="start" x="265.93" y="-117.5" font-family="Helvetica,sans-Serif" font-size="10.00">+ Player()</text>
<text text-anchor="start" x="265.93" y="-106.5" font-family="Helvetica,sans-Serif" font-size="10.00">+ attack()</text>
<text text-anchor="start" x="265.93" y="-95.5" font-family="Helvetica,sans-Serif" font-size="10.00">+ getDamage()</text>
<text text-anchor="start" x="265.93" y="-84.5" font-family="Helvetica,sans-Serif" font-size="10.00">+ get_turnnumb()</text>
<text text-anchor="start" x="265.93" y="-73.5" font-family="Helvetica,sans-Serif" font-size="10.00">+ getStrength()</text>
<text text-anchor="start" x="265.93" y="-62.5" font-family="Helvetica,sans-Serif" font-size="10.00">+ getDefense()</text>
<text text-anchor="start" x="265.93" y="-51.5" font-family="Helvetica,sans-Serif" font-size="10.00">+ updateCharacter()</text>
<text text-anchor="start" x="265.93" y="-40.5" font-family="Helvetica,sans-Serif" font-size="10.00">+ get_rec()</text>
<text text-anchor="start" x="265.93" y="-29.5" font-family="Helvetica,sans-Serif" font-size="10.00">+ set_rec()</text>
<text text-anchor="start" x="265.93" y="-18.5" font-family="Helvetica,sans-Serif" font-size="10.00">+ heal()</text>
<text text-anchor="start" x="265.93" y="-7.5" font-family="Helvetica,sans-Serif" font-size="10.00">+ draw()</text>
</a>
</g>
</g>
<!-- Node2 -->
<g id="node2" class="node">
<title>Node2</title>
<g id="a_node2"><a xlink:href="class_game_1_1_game_character.html" target="_top" xlink:title=" ">
<polygon fill="none" stroke="black" points="103.93,-248.5 103.93,-481.5 220.93,-481.5 220.93,-248.5 103.93,-248.5"/>
<text text-anchor="middle" x="162.43" y="-469.5" font-family="Helvetica,sans-Serif" font-size="10.00">Game::GameCharacter</text>
<polyline fill="none" stroke="black" points="103.93,-462.5 220.93,-462.5 "/>
<text text-anchor="middle" x="162.43" y="-450.5" font-family="Helvetica,sans-Serif" font-size="10.00"> </text>
<polyline fill="none" stroke="black" points="103.93,-443.5 220.93,-443.5 "/>
<text text-anchor="start" x="111.93" y="-431.5" font-family="Helvetica,sans-Serif" font-size="10.00">+ GameCharacter()</text>
<text text-anchor="start" x="111.93" y="-420.5" font-family="Helvetica,sans-Serif" font-size="10.00">+ get_Name()</text>
<text text-anchor="start" x="111.93" y="-409.5" font-family="Helvetica,sans-Serif" font-size="10.00">+ attack()</text>
<text text-anchor="start" x="111.93" y="-398.5" font-family="Helvetica,sans-Serif" font-size="10.00">+ getDamage()</text>
<text text-anchor="start" x="111.93" y="-387.5" font-family="Helvetica,sans-Serif" font-size="10.00">+ updateCharacter()</text>
<text text-anchor="start" x="111.93" y="-376.5" font-family="Helvetica,sans-Serif" font-size="10.00">+ getLives()</text>
<text text-anchor="start" x="111.93" y="-365.5" font-family="Helvetica,sans-Serif" font-size="10.00">+ getArmor()</text>
<text text-anchor="start" x="111.93" y="-354.5" font-family="Helvetica,sans-Serif" font-size="10.00">+ getStrength()</text>
<text text-anchor="start" x="111.93" y="-343.5" font-family="Helvetica,sans-Serif" font-size="10.00">+ getDefense()</text>
<text text-anchor="start" x="111.93" y="-332.5" font-family="Helvetica,sans-Serif" font-size="10.00">+ get_rec()</text>
<text text-anchor="start" x="111.93" y="-321.5" font-family="Helvetica,sans-Serif" font-size="10.00">+ set_rec()</text>
<text text-anchor="start" x="111.93" y="-310.5" font-family="Helvetica,sans-Serif" font-size="10.00">+ heal()</text>
<text text-anchor="start" x="111.93" y="-299.5" font-family="Helvetica,sans-Serif" font-size="10.00">+ get_turnnumb()</text>
<text text-anchor="start" x="111.93" y="-288.5" font-family="Helvetica,sans-Serif" font-size="10.00">+ set_turnnumb()</text>
<text text-anchor="start" x="111.93" y="-277.5" font-family="Helvetica,sans-Serif" font-size="10.00">+ draw()</text>
<text text-anchor="start" x="111.93" y="-266.5" font-family="Helvetica,sans-Serif" font-size="10.00">+ ~GameCharacter()</text>
<text text-anchor="start" x="111.93" y="-255.5" font-family="Helvetica,sans-Serif" font-size="10.00"># getDamageNumber()</text>
</a>
</g>
</g>
<!-- Node2&#45;&gt;Node1 -->
<g id="edge1" class="edge">
<title>Node2&#45;&gt;Node1</title>
<path fill="none" stroke="midnightblue" d="M216.43,-238.93C225.03,-220.95 234.16,-202.85 243.43,-186 247.92,-177.83 252.85,-169.45 257.92,-161.18"/>
<polygon fill="none" stroke="midnightblue" points="213.1,-237.78 211.98,-248.31 219.43,-240.77 213.1,-237.78"/>
</g>
<!-- Node3 -->
<g id="node3" class="node">
<title>Node3</title>
<g id="a_node3"><a xlink:title=" ">
<polygon fill="none" stroke="black" points="25.93,-584.5 25.93,-641.5 60.93,-641.5 60.93,-584.5 25.93,-584.5"/>
<text text-anchor="middle" x="43.43" y="-629.5" font-family="Helvetica,sans-Serif" font-size="10.00">bool</text>
<polyline fill="none" stroke="black" points="25.93,-622.5 60.93,-622.5 "/>
<text text-anchor="middle" x="43.43" y="-610.5" font-family="Helvetica,sans-Serif" font-size="10.00"> </text>
<polyline fill="none" stroke="black" points="25.93,-603.5 60.93,-603.5 "/>
<text text-anchor="middle" x="43.43" y="-591.5" font-family="Helvetica,sans-Serif" font-size="10.00"> </text>
</a>
</g>
</g>
<!-- Node3&#45;&gt;Node1 -->
<g id="edge10" class="edge">
<title>Node3&#45;&gt;Node1</title>
<path fill="none" stroke="#404040" d="M33.52,-584.1C12.53,-519.81 -29.56,-358.36 33.43,-248 78.78,-168.55 179.68,-123.93 246.1,-102.16"/>
<polygon fill="none" stroke="#404040" points="246.24,-102.12 250.74,-96.49 257.67,-98.49 253.17,-104.12 246.24,-102.12"/>
<text text-anchor="middle" x="63.93" y="-362.5" font-family="Helvetica,sans-Serif" font-size="10.00"> +swungblade</text>
</g>
<!-- Node3&#45;&gt;Node2 -->
<g id="edge2" class="edge">
<title>Node3&#45;&gt;Node2</title>
<path fill="none" stroke="#404040" d="M56.85,-584.26C67.9,-561.41 84.42,-527.27 101.12,-492.73"/>
<polygon fill="none" stroke="#404040" points="101.32,-492.32 100.33,-485.18 106.55,-481.52 107.54,-488.66 101.32,-492.32"/>
<text text-anchor="middle" x="120.93" y="-530.5" font-family="Helvetica,sans-Serif" font-size="10.00"> +damaged</text>
</g>
<!-- Node4 -->
<g id="node4" class="node">
<title>Node4</title>
<g id="a_node4"><a xlink:title=" ">
<polygon fill="none" stroke="black" points="317.93,-584.5 317.93,-641.5 346.93,-641.5 346.93,-584.5 317.93,-584.5"/>
<text text-anchor="middle" x="332.43" y="-629.5" font-family="Helvetica,sans-Serif" font-size="10.00">int</text>
<polyline fill="none" stroke="black" points="317.93,-622.5 346.93,-622.5 "/>
<text text-anchor="middle" x="332.43" y="-610.5" font-family="Helvetica,sans-Serif" font-size="10.00"> </text>
<polyline fill="none" stroke="black" points="317.93,-603.5 346.93,-603.5 "/>
<text text-anchor="middle" x="332.43" y="-591.5" font-family="Helvetica,sans-Serif" font-size="10.00"> </text>
</a>
</g>
</g>
<!-- Node4&#45;&gt;Node1 -->
<g id="edge7" class="edge">
<title>Node4&#45;&gt;Node1</title>
<path fill="none" stroke="#404040" d="M343.77,-584.17C345.7,-578.27 347.41,-572 348.43,-566 353.32,-537.08 349.59,-529.31 348.43,-500 344.07,-389.9 331.1,-263.96 321.3,-179.97"/>
<polygon fill="none" stroke="#404040" points="321.28,-179.81 316.61,-174.32 319.88,-167.89 324.55,-173.38 321.28,-179.81"/>
<text text-anchor="middle" x="397.43" y="-395.5" font-family="Helvetica,sans-Serif" font-size="10.00"> +currentFrame</text>
<text text-anchor="middle" x="397.43" y="-384.5" font-family="Helvetica,sans-Serif" font-size="10.00">+framesCounter</text>
<text text-anchor="middle" x="397.43" y="-373.5" font-family="Helvetica,sans-Serif" font-size="10.00">+framesSpeed</text>
<text text-anchor="middle" x="397.43" y="-362.5" font-family="Helvetica,sans-Serif" font-size="10.00">+framescounter</text>
<text text-anchor="middle" x="397.43" y="-351.5" font-family="Helvetica,sans-Serif" font-size="10.00">+swingFramesCounter</text>
<text text-anchor="middle" x="397.43" y="-340.5" font-family="Helvetica,sans-Serif" font-size="10.00">+swingFramesSpeed</text>
<text text-anchor="middle" x="397.43" y="-329.5" font-family="Helvetica,sans-Serif" font-size="10.00">+swingcurrentFrame</text>
</g>
<!-- Node4&#45;&gt;Node2 -->
<g id="edge3" class="edge">
<title>Node4&#45;&gt;Node2</title>
<path fill="none" stroke="#404040" d="M317.87,-599.09C308.36,-590.27 295.97,-578.04 286.43,-566 279.15,-556.81 253.46,-515.65 227.34,-473.03"/>
<polygon fill="none" stroke="#404040" points="227.32,-473 220.78,-469.98 221.06,-462.77 227.6,-465.8 227.32,-473"/>
<text text-anchor="middle" x="317.43" y="-558" font-family="Helvetica,sans-Serif" font-size="10.00"> #c_DEF</text>
<text text-anchor="middle" x="317.43" y="-547" font-family="Helvetica,sans-Serif" font-size="10.00">#c_HP</text>
<text text-anchor="middle" x="317.43" y="-536" font-family="Helvetica,sans-Serif" font-size="10.00">#c_MaxHP</text>
<text text-anchor="middle" x="317.43" y="-525" font-family="Helvetica,sans-Serif" font-size="10.00">#c_STR</text>
<text text-anchor="middle" x="317.43" y="-514" font-family="Helvetica,sans-Serif" font-size="10.00">#c_timeattack</text>
<text text-anchor="middle" x="317.43" y="-503" font-family="Helvetica,sans-Serif" font-size="10.00">#turnnumb</text>
</g>
<!-- Node5 -->
<g id="node5" class="node">
<title>Node5</title>
<g id="a_node5"><a xlink:title=" ">
<polygon fill="none" stroke="black" points="138.93,-584.5 138.93,-641.5 179.93,-641.5 179.93,-584.5 138.93,-584.5"/>
<text text-anchor="middle" x="159.43" y="-629.5" font-family="Helvetica,sans-Serif" font-size="10.00">string</text>
<polyline fill="none" stroke="black" points="138.93,-622.5 179.93,-622.5 "/>
<text text-anchor="middle" x="159.43" y="-610.5" font-family="Helvetica,sans-Serif" font-size="10.00"> </text>
<polyline fill="none" stroke="black" points="138.93,-603.5 179.93,-603.5 "/>
<text text-anchor="middle" x="159.43" y="-591.5" font-family="Helvetica,sans-Serif" font-size="10.00"> </text>
</a>
</g>
</g>
<!-- Node5&#45;&gt;Node2 -->
<g id="edge4" class="edge">
<title>Node5&#45;&gt;Node2</title>
<path fill="none" stroke="#404040" d="M159.63,-584.38C159.8,-561.71 160.09,-528.78 160.43,-500 160.45,-498.05 160.48,-496.09 160.5,-494.12"/>
<polygon fill="none" stroke="#404040" points="160.5,-493.85 156.58,-487.8 160.66,-481.85 164.58,-487.9 160.5,-493.85"/>
<text text-anchor="middle" x="176.93" y="-530.5" font-family="Helvetica,sans-Serif" font-size="10.00"> #name</text>
</g>
<!-- Node6 -->
<g id="node6" class="node">
<title>Node6</title>
<g id="a_node6"><a xlink:title=" ">
<polygon fill="none" stroke="black" points="210.43,-584.5 210.43,-641.5 270.43,-641.5 270.43,-584.5 210.43,-584.5"/>
<text text-anchor="middle" x="240.43" y="-629.5" font-family="Helvetica,sans-Serif" font-size="10.00">Rectangle</text>
<polyline fill="none" stroke="black" points="210.43,-622.5 270.43,-622.5 "/>
<text text-anchor="middle" x="240.43" y="-610.5" font-family="Helvetica,sans-Serif" font-size="10.00"> </text>
<polyline fill="none" stroke="black" points="210.43,-603.5 270.43,-603.5 "/>
<text text-anchor="middle" x="240.43" y="-591.5" font-family="Helvetica,sans-Serif" font-size="10.00"> </text>
</a>
</g>
</g>
<!-- Node6&#45;&gt;Node1 -->
<g id="edge9" class="edge">
<title>Node6&#45;&gt;Node1</title>
<path fill="none" stroke="#404040" d="M239.42,-584.34C237.72,-523.15 236.34,-371.96 258.43,-248 262.46,-225.38 268.72,-201.52 275.5,-179.24"/>
<polygon fill="none" stroke="#404040" points="275.51,-179.2 273.47,-172.29 279.08,-167.75 281.11,-174.67 275.51,-179.2"/>
<text text-anchor="middle" x="291.93" y="-384.5" font-family="Helvetica,sans-Serif" font-size="10.00"> +Playerrec</text>
<text text-anchor="middle" x="291.93" y="-373.5" font-family="Helvetica,sans-Serif" font-size="10.00">+Swingrec</text>
<text text-anchor="middle" x="291.93" y="-362.5" font-family="Helvetica,sans-Serif" font-size="10.00">+frameRec</text>
<text text-anchor="middle" x="291.93" y="-351.5" font-family="Helvetica,sans-Serif" font-size="10.00">+healthrec</text>
<text text-anchor="middle" x="291.93" y="-340.5" font-family="Helvetica,sans-Serif" font-size="10.00">+swinframeRec</text>
</g>
<!-- Node6&#45;&gt;Node2 -->
<g id="edge5" class="edge">
<title>Node6&#45;&gt;Node2</title>
<path fill="none" stroke="#404040" d="M224.71,-584.23C221.72,-578.32 218.79,-572.04 216.43,-566 207.39,-542.86 199.3,-517.65 192.31,-493.17"/>
<polygon fill="none" stroke="#404040" points="192.3,-493.16 186.83,-488.47 189.06,-481.61 194.53,-486.31 192.3,-493.16"/>
<text text-anchor="middle" x="227.43" y="-530.5" font-family="Helvetica,sans-Serif" font-size="10.00"> #rec</text>
</g>
<!-- Node7 -->
<g id="node7" class="node">
<title>Node7</title>
<g id="a_node7"><a xlink:title=" ">
<polygon fill="none" stroke="black" points="478.43,-336.5 478.43,-393.5 516.43,-393.5 516.43,-336.5 478.43,-336.5"/>
<text text-anchor="middle" x="497.43" y="-381.5" font-family="Helvetica,sans-Serif" font-size="10.00">state</text>
<polyline fill="none" stroke="black" points="478.43,-374.5 516.43,-374.5 "/>
<text text-anchor="middle" x="497.43" y="-362.5" font-family="Helvetica,sans-Serif" font-size="10.00"> </text>
<polyline fill="none" stroke="black" points="478.43,-355.5 516.43,-355.5 "/>
<text text-anchor="middle" x="497.43" y="-343.5" font-family="Helvetica,sans-Serif" font-size="10.00"> </text>
</a>
</g>
</g>
<!-- Node7&#45;&gt;Node1 -->
<g id="edge6" class="edge">
<title>Node7&#45;&gt;Node1</title>
<path fill="none" stroke="#404040" d="M493.41,-336.29C489,-311.82 480.31,-275.82 464.43,-248 440.1,-205.38 402.3,-165.32 370.12,-135.58"/>
<polygon fill="none" stroke="#404040" points="370.08,-135.54 362.95,-134.46 361.21,-127.47 368.34,-128.55 370.08,-135.54"/>
<text text-anchor="middle" x="467.93" y="-205.5" font-family="Helvetica,sans-Serif" font-size="10.00"> +State</text>
</g>
<!-- Node8 -->
<g id="node8" class="node">
<title>Node8</title>
<g id="a_node8"><a xlink:title=" ">
<polygon fill="none" stroke="black" points="534.93,-336.5 534.93,-393.5 595.93,-393.5 595.93,-336.5 534.93,-336.5"/>
<text text-anchor="middle" x="565.43" y="-381.5" font-family="Helvetica,sans-Serif" font-size="10.00">Texture2D</text>
<polyline fill="none" stroke="black" points="534.93,-374.5 595.93,-374.5 "/>
<text text-anchor="middle" x="565.43" y="-362.5" font-family="Helvetica,sans-Serif" font-size="10.00"> </text>
<polyline fill="none" stroke="black" points="534.93,-355.5 595.93,-355.5 "/>
<text text-anchor="middle" x="565.43" y="-343.5" font-family="Helvetica,sans-Serif" font-size="10.00"> </text>
</a>
</g>
</g>
<!-- Node8&#45;&gt;Node1 -->
<g id="edge8" class="edge">
<title>Node8&#45;&gt;Node1</title>
<path fill="none" stroke="#404040" d="M560.36,-336.48C551.91,-297.96 531.44,-227.98 488.43,-186 455.1,-153.48 409.24,-127.87 372.28,-110.57"/>
<polygon fill="none" stroke="#404040" points="372.03,-110.46 364.91,-111.6 361.12,-105.47 368.24,-104.33 372.03,-110.46"/>
<text text-anchor="middle" x="545.93" y="-222" font-family="Helvetica,sans-Serif" font-size="10.00"> +health</text>
<text text-anchor="middle" x="545.93" y="-211" font-family="Helvetica,sans-Serif" font-size="10.00">+healthbar</text>
<text text-anchor="middle" x="545.93" y="-200" font-family="Helvetica,sans-Serif" font-size="10.00">+spr_Player</text>
<text text-anchor="middle" x="545.93" y="-189" font-family="Helvetica,sans-Serif" font-size="10.00">+swing</text>
</g>
</g>
</svg>
