<?xml version="1.0" encoding="UTF-8" standalone="no"?>
<!DOCTYPE svg PUBLIC "-//W3C//DTD SVG 1.1//EN"
 "http://www.w3.org/Graphics/SVG/1.1/DTD/svg11.dtd">
<!-- Generated by graphviz version 3.0.0 (20220226.1711)
 -->
<!-- Title: LevelMap Pages: 1 -->
<svg width="1710pt" height="898pt"
 viewBox="0.00 0.00 1709.50 898.00" xmlns="http://www.w3.org/2000/svg" xmlns:xlink="http://www.w3.org/1999/xlink">
<g id="graph0" class="graph" transform="scale(1 1) rotate(0) translate(4 894)">
<title>LevelMap</title>
<!-- Node1 -->
<g id="node1" class="node">
<title>Node1</title>
<g id="a_node1"><a xlink:title=" ">
<polygon fill="#bfbfbf" stroke="black" points="1428.5,-0.5 1428.5,-101.5 1544.5,-101.5 1544.5,-0.5 1428.5,-0.5"/>
<text text-anchor="middle" x="1486.5" y="-89.5" font-family="Helvetica,sans-Serif" font-size="10.00">LevelMap</text>
<polyline fill="none" stroke="black" points="1428.5,-82.5 1544.5,-82.5 "/>
<text text-anchor="middle" x="1486.5" y="-70.5" font-family="Helvetica,sans-Serif" font-size="10.00"> </text>
<polyline fill="none" stroke="black" points="1428.5,-63.5 1544.5,-63.5 "/>
<text text-anchor="start" x="1436.5" y="-51.5" font-family="Helvetica,sans-Serif" font-size="10.00">+ LevelMap()</text>
<text text-anchor="start" x="1436.5" y="-40.5" font-family="Helvetica,sans-Serif" font-size="10.00">+ draw()</text>
<text text-anchor="start" x="1436.5" y="-29.5" font-family="Helvetica,sans-Serif" font-size="10.00">+ drawOVERWORLD()</text>
<text text-anchor="start" x="1436.5" y="-18.5" font-family="Helvetica,sans-Serif" font-size="10.00">+ drawPYRAMID()</text>
<text text-anchor="start" x="1436.5" y="-7.5" font-family="Helvetica,sans-Serif" font-size="10.00">+ ~LevelMap()</text>
</a>
</g>
</g>
<!-- Node2 -->
<g id="node2" class="node">
<title>Node2</title>
<g id="a_node2"><a xlink:href="class_game_1_1_level.html" target="_top" xlink:title=" ">
<polygon fill="none" stroke="black" points="840.5,-171.5 840.5,-426.5 1028.5,-426.5 1028.5,-171.5 840.5,-171.5"/>
<text text-anchor="middle" x="934.5" y="-414.5" font-family="Helvetica,sans-Serif" font-size="10.00">Game::Level</text>
<polyline fill="none" stroke="black" points="840.5,-407.5 1028.5,-407.5 "/>
<text text-anchor="start" x="848.5" y="-395.5" font-family="Helvetica,sans-Serif" font-size="10.00">+ TitlescreenText</text>
<text text-anchor="start" x="848.5" y="-384.5" font-family="Helvetica,sans-Serif" font-size="10.00">+ spr_Battery</text>
<text text-anchor="start" x="848.5" y="-373.5" font-family="Helvetica,sans-Serif" font-size="10.00">+ gameover</text>
<text text-anchor="start" x="848.5" y="-362.5" font-family="Helvetica,sans-Serif" font-size="10.00">+ teleportrecOVERWORLDtoPYRAMID</text>
<text text-anchor="start" x="848.5" y="-351.5" font-family="Helvetica,sans-Serif" font-size="10.00">+ teleportrecPYRAMIDtoOVERWORLD</text>
<text text-anchor="start" x="848.5" y="-340.5" font-family="Helvetica,sans-Serif" font-size="10.00">+ teleportrecPYRAMIDtoENDSCREEN</text>
<text text-anchor="start" x="848.5" y="-329.5" font-family="Helvetica,sans-Serif" font-size="10.00">+ t_rec_start</text>
<text text-anchor="start" x="848.5" y="-318.5" font-family="Helvetica,sans-Serif" font-size="10.00">+ t_rec_settings</text>
<text text-anchor="start" x="848.5" y="-307.5" font-family="Helvetica,sans-Serif" font-size="10.00">+ t_rec_exit_game</text>
<text text-anchor="start" x="848.5" y="-296.5" font-family="Helvetica,sans-Serif" font-size="10.00">+ t_rec_attack</text>
<text text-anchor="start" x="848.5" y="-285.5" font-family="Helvetica,sans-Serif" font-size="10.00">+ t_rec_time</text>
<text text-anchor="start" x="848.5" y="-274.5" font-family="Helvetica,sans-Serif" font-size="10.00">+ t_rec_item</text>
<text text-anchor="start" x="848.5" y="-263.5" font-family="Helvetica,sans-Serif" font-size="10.00">+ t_rec_escape</text>
<polyline fill="none" stroke="black" points="840.5,-256.5 1028.5,-256.5 "/>
<text text-anchor="start" x="848.5" y="-244.5" font-family="Helvetica,sans-Serif" font-size="10.00">+ combat()</text>
<text text-anchor="start" x="848.5" y="-233.5" font-family="Helvetica,sans-Serif" font-size="10.00">+ ScreenDraw()</text>
<text text-anchor="start" x="848.5" y="-222.5" font-family="Helvetica,sans-Serif" font-size="10.00">+ Draw()</text>
<text text-anchor="start" x="848.5" y="-211.5" font-family="Helvetica,sans-Serif" font-size="10.00">+ Teleport()</text>
<text text-anchor="start" x="848.5" y="-200.5" font-family="Helvetica,sans-Serif" font-size="10.00">+ ~Level()</text>
<text text-anchor="start" x="848.5" y="-189.5" font-family="Helvetica,sans-Serif" font-size="10.00">+ damaged()</text>
<text text-anchor="start" x="848.5" y="-178.5" font-family="Helvetica,sans-Serif" font-size="10.00">+ Draw9Slice()</text>
</a>
</g>
</g>
<!-- Node2&#45;&gt;Node1 -->
<g id="edge1" class="edge">
<title>Node2&#45;&gt;Node1</title>
<path fill="none" stroke="#404040" d="M1028.76,-255.99C1139.06,-206.84 1319.07,-126.62 1417.26,-82.86"/>
<polygon fill="none" stroke="#404040" points="1417.28,-82.85 1421.13,-76.75 1428.24,-77.96 1424.39,-84.06 1417.28,-82.85"/>
<text text-anchor="middle" x="1337.5" y="-134" font-family="Helvetica,sans-Serif" font-size="10.00"> +level</text>
</g>
<!-- Node2&#45;&gt;Node2 -->
<g id="edge19" class="edge">
<title>Node2&#45;&gt;Node2</title>
<path fill="none" stroke="#404040" d="M1028.87,-324.74C1039.57,-319.92 1046.5,-311.34 1046.5,-299 1046.5,-291.29 1043.79,-285.04 1039.15,-280.27"/>
<polygon fill="none" stroke="#404040" points="1038.79,-280.02 1031.58,-279.95 1028.87,-273.26 1036.08,-273.34 1038.79,-280.02"/>
<text text-anchor="middle" x="1060.5" y="-296.5" font-family="Helvetica,sans-Serif" font-size="10.00"> +level</text>
</g>
<!-- Node3 -->
<g id="node3" class="node">
<title>Node3</title>
<g id="a_node3"><a xlink:title=" ">
<polygon fill="none" stroke="black" points="1075,-832.5 1075,-889.5 1136,-889.5 1136,-832.5 1075,-832.5"/>
<text text-anchor="middle" x="1105.5" y="-877.5" font-family="Helvetica,sans-Serif" font-size="10.00">Texture2D</text>
<polyline fill="none" stroke="black" points="1075,-870.5 1136,-870.5 "/>
<text text-anchor="middle" x="1105.5" y="-858.5" font-family="Helvetica,sans-Serif" font-size="10.00"> </text>
<polyline fill="none" stroke="black" points="1075,-851.5 1136,-851.5 "/>
<text text-anchor="middle" x="1105.5" y="-839.5" font-family="Helvetica,sans-Serif" font-size="10.00"> </text>
</a>
</g>
</g>
<!-- Node3&#45;&gt;Node1 -->
<g id="edge33" class="edge">
<title>Node3&#45;&gt;Node1</title>
<path fill="none" stroke="#404040" d="M1136.14,-839.01C1141.41,-836.22 1146.97,-833.72 1152.5,-832 1209.27,-814.3 1373.89,-852.15 1419.5,-814 1449.02,-789.31 1435.06,-768.1 1440.5,-730 1458.41,-604.51 1443.98,-571.54 1451.5,-445 1458.75,-323.05 1461.98,-292.62 1473.5,-171 1475.26,-152.42 1477.39,-132.23 1479.4,-113.85"/>
<polygon fill="none" stroke="#404040" points="1479.42,-113.69 1476.11,-107.28 1480.74,-101.76 1484.06,-108.16 1479.42,-113.69"/>
<text text-anchor="middle" x="1490" y="-459" font-family="Helvetica,sans-Serif" font-size="10.00"> +tileAtlasTexture</text>
</g>
<!-- Node3&#45;&gt;Node2 -->
<g id="edge2" class="edge">
<title>Node3&#45;&gt;Node2</title>
<path fill="none" stroke="#404040" d="M1105.08,-832.23C1103.49,-750.93 1096.28,-514.79 1065.5,-445 1058.03,-428.07 1047.8,-411.77 1036.32,-396.6"/>
<polygon fill="none" stroke="#404040" points="1036.03,-396.23 1029.17,-393.99 1028.61,-386.8 1035.46,-389.04 1036.03,-396.23"/>
<text text-anchor="middle" x="1134.5" y="-665.5" font-family="Helvetica,sans-Serif" font-size="10.00"> +Attack</text>
<text text-anchor="middle" x="1134.5" y="-654.5" font-family="Helvetica,sans-Serif" font-size="10.00">+Battlescreen</text>
<text text-anchor="middle" x="1134.5" y="-643.5" font-family="Helvetica,sans-Serif" font-size="10.00">+Blue_Clock</text>
<text text-anchor="middle" x="1134.5" y="-632.5" font-family="Helvetica,sans-Serif" font-size="10.00">+Box</text>
<text text-anchor="middle" x="1134.5" y="-621.5" font-family="Helvetica,sans-Serif" font-size="10.00">+Box_S</text>
<text text-anchor="middle" x="1134.5" y="-610.5" font-family="Helvetica,sans-Serif" font-size="10.00">+Fish</text>
<text text-anchor="middle" x="1134.5" y="-599.5" font-family="Helvetica,sans-Serif" font-size="10.00">+Map</text>
<text text-anchor="middle" x="1134.5" y="-588.5" font-family="Helvetica,sans-Serif" font-size="10.00">+Pausescreen</text>
<text text-anchor="middle" x="1134.5" y="-577.5" font-family="Helvetica,sans-Serif" font-size="10.00">+Red_Clock</text>
<text text-anchor="middle" x="1134.5" y="-566.5" font-family="Helvetica,sans-Serif" font-size="10.00">+Titlescreen</text>
<text text-anchor="middle" x="1134.5" y="-555.5" font-family="Helvetica,sans-Serif" font-size="10.00">...</text>
</g>
<!-- Node10 -->
<g id="node10" class="node">
<title>Node10</title>
<g id="a_node10"><a xlink:href="class_game_1_1_nemo.html" target="_top" xlink:title=" ">
<polygon fill="none" stroke="black" points="1178.5,-573.5 1178.5,-652.5 1252.5,-652.5 1252.5,-573.5 1178.5,-573.5"/>
<text text-anchor="middle" x="1215.5" y="-640.5" font-family="Helvetica,sans-Serif" font-size="10.00">Game::Nemo</text>
<polyline fill="none" stroke="black" points="1178.5,-633.5 1252.5,-633.5 "/>
<text text-anchor="middle" x="1215.5" y="-621.5" font-family="Helvetica,sans-Serif" font-size="10.00"> </text>
<polyline fill="none" stroke="black" points="1178.5,-614.5 1252.5,-614.5 "/>
<text text-anchor="start" x="1186.5" y="-602.5" font-family="Helvetica,sans-Serif" font-size="10.00">+ Update()</text>
<text text-anchor="start" x="1186.5" y="-591.5" font-family="Helvetica,sans-Serif" font-size="10.00">+ Draw()</text>
<text text-anchor="start" x="1186.5" y="-580.5" font-family="Helvetica,sans-Serif" font-size="10.00">+ ~Nemo()</text>
</a>
</g>
</g>
<!-- Node3&#45;&gt;Node10 -->
<g id="edge15" class="edge">
<title>Node3&#45;&gt;Node10</title>
<path fill="none" stroke="#404040" d="M1113.67,-832.16C1121.17,-808.78 1133.54,-774.97 1149.5,-748 1154.81,-739.04 1159.02,-738.85 1164.5,-730 1177.25,-709.41 1188.47,-685.07 1197.11,-664.02"/>
<polygon fill="none" stroke="#404040" points="1197.18,-663.84 1195.7,-656.79 1201.64,-652.7 1203.13,-659.76 1197.18,-663.84"/>
<text text-anchor="middle" x="1165.5" y="-800.5" font-family="Helvetica,sans-Serif" font-size="10.00"> +Back</text>
<text text-anchor="middle" x="1165.5" y="-789.5" font-family="Helvetica,sans-Serif" font-size="10.00">+Front</text>
<text text-anchor="middle" x="1165.5" y="-778.5" font-family="Helvetica,sans-Serif" font-size="10.00">+Left</text>
<text text-anchor="middle" x="1165.5" y="-767.5" font-family="Helvetica,sans-Serif" font-size="10.00">+Right</text>
<text text-anchor="middle" x="1165.5" y="-756.5" font-family="Helvetica,sans-Serif" font-size="10.00">+Stand</text>
</g>
<!-- Node14 -->
<g id="node14" class="node">
<title>Node14</title>
<g id="a_node14"><a xlink:href="class_game_1_1_sprite.html" target="_top" xlink:title=" ">
<polygon fill="none" stroke="black" points="481.5,-557 481.5,-669 567.5,-669 567.5,-557 481.5,-557"/>
<text text-anchor="middle" x="524.5" y="-657" font-family="Helvetica,sans-Serif" font-size="10.00">Game::Sprite</text>
<polyline fill="none" stroke="black" points="481.5,-650 567.5,-650 "/>
<text text-anchor="middle" x="524.5" y="-638" font-family="Helvetica,sans-Serif" font-size="10.00"> </text>
<polyline fill="none" stroke="black" points="481.5,-631 567.5,-631 "/>
<text text-anchor="start" x="489.5" y="-619" font-family="Helvetica,sans-Serif" font-size="10.00">+ EpanoxDraw()</text>
<text text-anchor="start" x="489.5" y="-608" font-family="Helvetica,sans-Serif" font-size="10.00">+ Sprite()</text>
<text text-anchor="start" x="489.5" y="-597" font-family="Helvetica,sans-Serif" font-size="10.00">+ Sprite()</text>
<text text-anchor="start" x="489.5" y="-586" font-family="Helvetica,sans-Serif" font-size="10.00">+ Sprite()</text>
<text text-anchor="start" x="489.5" y="-575" font-family="Helvetica,sans-Serif" font-size="10.00">+ Sprite()</text>
<text text-anchor="start" x="489.5" y="-564" font-family="Helvetica,sans-Serif" font-size="10.00">+ ~Sprite()</text>
</a>
</g>
</g>
<!-- Node3&#45;&gt;Node14 -->
<g id="edge22" class="edge">
<title>Node3&#45;&gt;Node14</title>
<path fill="none" stroke="#404040" d="M1074.89,-859.18C999.78,-856.65 808.64,-847.07 755.5,-814 725.57,-795.37 741.41,-766.66 711.5,-748 660.14,-715.97 625.02,-766.2 576.5,-730 560.09,-717.76 548.74,-699.15 540.95,-680.41"/>
<polygon fill="none" stroke="#404040" points="540.91,-680.31 535.04,-676.12 536.65,-669.09 542.52,-673.28 540.91,-680.31"/>
<text text-anchor="middle" x="784" y="-784" font-family="Helvetica,sans-Serif" font-size="10.00"> +EpanoxStil</text>
<text text-anchor="middle" x="784" y="-773" font-family="Helvetica,sans-Serif" font-size="10.00">+texture_</text>
</g>
<!-- Node4 -->
<g id="node4" class="node">
<title>Node4</title>
<g id="a_node4"><a xlink:title=" ">
<polygon fill="none" stroke="black" points="585.5,-584.5 585.5,-641.5 765.5,-641.5 765.5,-584.5 585.5,-584.5"/>
<text text-anchor="middle" x="675.5" y="-629.5" font-family="Helvetica,sans-Serif" font-size="10.00">unique_ptr&lt; Game::GameCharacter &gt;</text>
<polyline fill="none" stroke="black" points="585.5,-622.5 765.5,-622.5 "/>
<text text-anchor="middle" x="675.5" y="-610.5" font-family="Helvetica,sans-Serif" font-size="10.00"> </text>
<polyline fill="none" stroke="black" points="585.5,-603.5 765.5,-603.5 "/>
<text text-anchor="middle" x="675.5" y="-591.5" font-family="Helvetica,sans-Serif" font-size="10.00"> </text>
</a>
</g>
</g>
<!-- Node4&#45;&gt;Node2 -->
<g id="edge3" class="edge">
<title>Node4&#45;&gt;Node2</title>
<path fill="none" stroke="#404040" d="M683.58,-584.41C694.77,-549.41 717.54,-488.4 751.5,-445 773.72,-416.6 802.59,-390.44 830.8,-368.38"/>
<polygon fill="none" stroke="#404040" points="830.82,-368.36 833.14,-361.54 840.34,-361.05 838.02,-367.88 830.82,-368.36"/>
<text text-anchor="middle" x="769.5" y="-459" font-family="Helvetica,sans-Serif" font-size="10.00"> +player</text>
</g>
<!-- Node5 -->
<g id="node5" class="node">
<title>Node5</title>
<g id="a_node5"><a xlink:href="class_game_1_1_game_character.html" target="_top" xlink:title=" ">
<polygon fill="none" stroke="black" points="214,-496.5 214,-729.5 331,-729.5 331,-496.5 214,-496.5"/>
<text text-anchor="middle" x="272.5" y="-717.5" font-family="Helvetica,sans-Serif" font-size="10.00">Game::GameCharacter</text>
<polyline fill="none" stroke="black" points="214,-710.5 331,-710.5 "/>
<text text-anchor="middle" x="272.5" y="-698.5" font-family="Helvetica,sans-Serif" font-size="10.00"> </text>
<polyline fill="none" stroke="black" points="214,-691.5 331,-691.5 "/>
<text text-anchor="start" x="222" y="-679.5" font-family="Helvetica,sans-Serif" font-size="10.00">+ GameCharacter()</text>
<text text-anchor="start" x="222" y="-668.5" font-family="Helvetica,sans-Serif" font-size="10.00">+ get_Name()</text>
<text text-anchor="start" x="222" y="-657.5" font-family="Helvetica,sans-Serif" font-size="10.00">+ attack()</text>
<text text-anchor="start" x="222" y="-646.5" font-family="Helvetica,sans-Serif" font-size="10.00">+ getDamage()</text>
<text text-anchor="start" x="222" y="-635.5" font-family="Helvetica,sans-Serif" font-size="10.00">+ updateCharacter()</text>
<text text-anchor="start" x="222" y="-624.5" font-family="Helvetica,sans-Serif" font-size="10.00">+ getLives()</text>
<text text-anchor="start" x="222" y="-613.5" font-family="Helvetica,sans-Serif" font-size="10.00">+ getArmor()</text>
<text text-anchor="start" x="222" y="-602.5" font-family="Helvetica,sans-Serif" font-size="10.00">+ getStrength()</text>
<text text-anchor="start" x="222" y="-591.5" font-family="Helvetica,sans-Serif" font-size="10.00">+ getDefense()</text>
<text text-anchor="start" x="222" y="-580.5" font-family="Helvetica,sans-Serif" font-size="10.00">+ get_rec()</text>
<text text-anchor="start" x="222" y="-569.5" font-family="Helvetica,sans-Serif" font-size="10.00">+ set_rec()</text>
<text text-anchor="start" x="222" y="-558.5" font-family="Helvetica,sans-Serif" font-size="10.00">+ heal()</text>
<text text-anchor="start" x="222" y="-547.5" font-family="Helvetica,sans-Serif" font-size="10.00">+ get_turnnumb()</text>
<text text-anchor="start" x="222" y="-536.5" font-family="Helvetica,sans-Serif" font-size="10.00">+ set_turnnumb()</text>
<text text-anchor="start" x="222" y="-525.5" font-family="Helvetica,sans-Serif" font-size="10.00">+ draw()</text>
<text text-anchor="start" x="222" y="-514.5" font-family="Helvetica,sans-Serif" font-size="10.00">+ ~GameCharacter()</text>
<text text-anchor="start" x="222" y="-503.5" font-family="Helvetica,sans-Serif" font-size="10.00"># getDamageNumber()</text>
</a>
</g>
</g>
<!-- Node5&#45;&gt;Node2 -->
<g id="edge4" class="edge">
<title>Node5&#45;&gt;Node2</title>
<path fill="none" stroke="#404040" d="M282.55,-496.35C288.84,-477.23 298.33,-459.08 312.5,-445 384.31,-373.63 670.18,-330.3 828.18,-311.32"/>
<polygon fill="none" stroke="#404040" points="828.34,-311.3 833.83,-306.62 840.26,-309.89 834.77,-314.56 828.34,-311.3"/>
<text text-anchor="middle" x="333" y="-470" font-family="Helvetica,sans-Serif" font-size="10.00"> +enemy</text>
<text text-anchor="middle" x="333" y="-459" font-family="Helvetica,sans-Serif" font-size="10.00">+pharaoh</text>
<text text-anchor="middle" x="333" y="-448" font-family="Helvetica,sans-Serif" font-size="10.00">+shadow</text>
</g>
<!-- Node6 -->
<g id="node6" class="node">
<title>Node6</title>
<g id="a_node6"><a xlink:title=" ">
<polygon fill="none" stroke="black" points="262,-832.5 262,-889.5 297,-889.5 297,-832.5 262,-832.5"/>
<text text-anchor="middle" x="279.5" y="-877.5" font-family="Helvetica,sans-Serif" font-size="10.00">bool</text>
<polyline fill="none" stroke="black" points="262,-870.5 297,-870.5 "/>
<text text-anchor="middle" x="279.5" y="-858.5" font-family="Helvetica,sans-Serif" font-size="10.00"> </text>
<polyline fill="none" stroke="black" points="262,-851.5 297,-851.5 "/>
<text text-anchor="middle" x="279.5" y="-839.5" font-family="Helvetica,sans-Serif" font-size="10.00"> </text>
</a>
</g>
</g>
<!-- Node6&#45;&gt;Node2 -->
<g id="edge27" class="edge">
<title>Node6&#45;&gt;Node2</title>
<path fill="none" stroke="#404040" d="M261.71,-854.96C220.29,-842.14 117.85,-803.95 77.5,-730 27.69,-638.71 13.22,-577.76 77.5,-496 169.59,-378.87 619.66,-326.4 828.14,-308.09"/>
<polygon fill="none" stroke="#404040" points="828.35,-308.07 833.98,-303.57 840.3,-307.04 834.67,-311.54 828.35,-308.07"/>
<text text-anchor="middle" x="141" y="-665.5" font-family="Helvetica,sans-Serif" font-size="10.00"> +T_damaged</text>
<text text-anchor="middle" x="141" y="-654.5" font-family="Helvetica,sans-Serif" font-size="10.00">+e_damaged</text>
<text text-anchor="middle" x="141" y="-643.5" font-family="Helvetica,sans-Serif" font-size="10.00">+input</text>
<text text-anchor="middle" x="141" y="-632.5" font-family="Helvetica,sans-Serif" font-size="10.00">+p_damaged</text>
<text text-anchor="start" x="77.5" y="-621.5" font-family="Helvetica,sans-Serif" font-size="10.00">+teleportcollision</text>
<text text-anchor="middle" x="141" y="-610.5" font-family="Helvetica,sans-Serif" font-size="10.00">OVERWORLDtoPYRAMID</text>
<text text-anchor="start" x="77.5" y="-599.5" font-family="Helvetica,sans-Serif" font-size="10.00">+teleportcollisionPYRAMIDto</text>
<text text-anchor="middle" x="141" y="-588.5" font-family="Helvetica,sans-Serif" font-size="10.00">ENDSCREEN</text>
<text text-anchor="start" x="77.5" y="-577.5" font-family="Helvetica,sans-Serif" font-size="10.00">+teleportcollisionPYRAMIDto</text>
<text text-anchor="middle" x="141" y="-566.5" font-family="Helvetica,sans-Serif" font-size="10.00">OVERWORLD</text>
<text text-anchor="middle" x="141" y="-555.5" font-family="Helvetica,sans-Serif" font-size="10.00">+timer</text>
</g>
<!-- Node6&#45;&gt;Node5 -->
<g id="edge5" class="edge">
<title>Node6&#45;&gt;Node5</title>
<path fill="none" stroke="#404040" d="M265.33,-832.38C262.92,-826.46 260.78,-820.14 259.5,-814 254.7,-790.9 253.35,-766.01 253.96,-741.9"/>
<polygon fill="none" stroke="#404040" points="253.97,-741.75 250.21,-735.6 254.44,-729.76 258.2,-735.91 253.97,-741.75"/>
<text text-anchor="middle" x="284" y="-778.5" font-family="Helvetica,sans-Serif" font-size="10.00"> +damaged</text>
</g>
<!-- Node6&#45;&gt;Node10 -->
<g id="edge13" class="edge">
<title>Node6&#45;&gt;Node10</title>
<path fill="none" stroke="#404040" d="M297.37,-854.54C319.98,-847.9 360.21,-836.97 395.5,-832 441.42,-825.53 776.06,-842.68 812.5,-814 836.49,-795.12 807.62,-767.01 831.5,-748 889.48,-701.85 1103.56,-772.17 1164.5,-730 1186.32,-714.9 1198.9,-688.28 1206.1,-664.34"/>
<polygon fill="none" stroke="#404040" points="1206.17,-664.09 1203.88,-657.25 1209.31,-652.51 1211.6,-659.35 1206.17,-664.09"/>
<text text-anchor="middle" x="860" y="-800.5" font-family="Helvetica,sans-Serif" font-size="10.00"> +active</text>
<text text-anchor="middle" x="860" y="-789.5" font-family="Helvetica,sans-Serif" font-size="10.00">+alive</text>
<text text-anchor="middle" x="860" y="-778.5" font-family="Helvetica,sans-Serif" font-size="10.00">+keypressed</text>
<text text-anchor="middle" x="860" y="-767.5" font-family="Helvetica,sans-Serif" font-size="10.00">+sound</text>
<text text-anchor="middle" x="860" y="-756.5" font-family="Helvetica,sans-Serif" font-size="10.00">+standing</text>
</g>
<!-- Node6&#45;&gt;Node14 -->
<g id="edge24" class="edge">
<title>Node6&#45;&gt;Node14</title>
<path fill="none" stroke="#404040" d="M297.27,-852.61C314.26,-844.89 339.83,-831.46 357.5,-814 381.9,-789.89 369.96,-768.45 397.5,-748 423.29,-728.85 442.58,-750.27 467.5,-730 483.36,-717.1 495.15,-698.69 503.76,-680.32"/>
<polygon fill="none" stroke="#404040" points="503.79,-680.25 502.52,-673.15 508.59,-669.25 509.86,-676.35 503.79,-680.25"/>
<text text-anchor="middle" x="437" y="-778.5" font-family="Helvetica,sans-Serif" font-size="10.00"> +EpanoxCollision</text>
</g>
<!-- Node7 -->
<g id="node7" class="node">
<title>Node7</title>
<g id="a_node7"><a xlink:title=" ">
<polygon fill="none" stroke="black" points="681,-832.5 681,-889.5 710,-889.5 710,-832.5 681,-832.5"/>
<text text-anchor="middle" x="695.5" y="-877.5" font-family="Helvetica,sans-Serif" font-size="10.00">int</text>
<polyline fill="none" stroke="black" points="681,-870.5 710,-870.5 "/>
<text text-anchor="middle" x="695.5" y="-858.5" font-family="Helvetica,sans-Serif" font-size="10.00"> </text>
<polyline fill="none" stroke="black" points="681,-851.5 710,-851.5 "/>
<text text-anchor="middle" x="695.5" y="-839.5" font-family="Helvetica,sans-Serif" font-size="10.00"> </text>
</a>
</g>
</g>
<!-- Node7&#45;&gt;Node2 -->
<g id="edge17" class="edge">
<title>Node7&#45;&gt;Node2</title>
<path fill="none" stroke="#404040" d="M702.71,-832.37C710.71,-803.46 724.01,-760.57 735.5,-748 748.38,-733.91 763.01,-745.25 774.5,-730 837.8,-645.95 773.59,-594.54 810.5,-496 817.92,-476.19 827.51,-456.27 838.08,-437.1"/>
<polygon fill="none" stroke="#404040" points="838.14,-436.98 837.61,-429.79 844.04,-426.53 844.57,-433.72 838.14,-436.98"/>
<text text-anchor="middle" x="850" y="-665.5" font-family="Helvetica,sans-Serif" font-size="10.00"> +b1_c_frame</text>
<text text-anchor="middle" x="850" y="-654.5" font-family="Helvetica,sans-Serif" font-size="10.00">+b2_c_frame</text>
<text text-anchor="middle" x="850" y="-643.5" font-family="Helvetica,sans-Serif" font-size="10.00">+b_currentFrame</text>
<text text-anchor="middle" x="850" y="-632.5" font-family="Helvetica,sans-Serif" font-size="10.00">+e_framescounter</text>
<text text-anchor="middle" x="850" y="-621.5" font-family="Helvetica,sans-Serif" font-size="10.00">+energy</text>
<text text-anchor="middle" x="850" y="-610.5" font-family="Helvetica,sans-Serif" font-size="10.00">+framescounter</text>
<text text-anchor="middle" x="850" y="-599.5" font-family="Helvetica,sans-Serif" font-size="10.00">+h_amount</text>
<text text-anchor="middle" x="850" y="-588.5" font-family="Helvetica,sans-Serif" font-size="10.00">+p_framescounter</text>
<text text-anchor="middle" x="850" y="-577.5" font-family="Helvetica,sans-Serif" font-size="10.00">+r_currentFrame</text>
<text text-anchor="middle" x="850" y="-566.5" font-family="Helvetica,sans-Serif" font-size="10.00">+t_framescounter</text>
<text text-anchor="middle" x="850" y="-555.5" font-family="Helvetica,sans-Serif" font-size="10.00">...</text>
</g>
<!-- Node7&#45;&gt;Node5 -->
<g id="edge6" class="edge">
<title>Node7&#45;&gt;Node5</title>
<path fill="none" stroke="#404040" d="M680.68,-858.13C656.56,-854.31 608.84,-843.3 582.5,-814 562.09,-791.3 587.11,-767.35 563.5,-748 525.9,-717.19 387.05,-755.23 345.5,-730 343.91,-729.04 342.35,-728.02 340.82,-726.96"/>
<polygon fill="none" stroke="#404040" points="340.57,-726.76 333.38,-726.21 331.13,-719.36 338.32,-719.91 340.57,-726.76"/>
<text text-anchor="middle" x="613.5" y="-806" font-family="Helvetica,sans-Serif" font-size="10.00"> #c_DEF</text>
<text text-anchor="middle" x="613.5" y="-795" font-family="Helvetica,sans-Serif" font-size="10.00">#c_HP</text>
<text text-anchor="middle" x="613.5" y="-784" font-family="Helvetica,sans-Serif" font-size="10.00">#c_MaxHP</text>
<text text-anchor="middle" x="613.5" y="-773" font-family="Helvetica,sans-Serif" font-size="10.00">#c_STR</text>
<text text-anchor="middle" x="613.5" y="-762" font-family="Helvetica,sans-Serif" font-size="10.00">#c_timeattack</text>
<text text-anchor="middle" x="613.5" y="-751" font-family="Helvetica,sans-Serif" font-size="10.00">#turnnumb</text>
</g>
<!-- Node7&#45;&gt;Node10 -->
<g id="edge10" class="edge">
<title>Node7&#45;&gt;Node10</title>
<path fill="none" stroke="#404040" d="M710.23,-859.08C763.03,-855.58 942.28,-841.86 991.5,-814 1024.73,-795.19 1013.25,-766.76 1046.5,-748 1092.7,-721.93 1122.39,-762.27 1164.5,-730 1185.34,-714.03 1197.83,-687.74 1205.23,-664.22"/>
<polygon fill="none" stroke="#404040" points="1205.25,-664.14 1203.06,-657.27 1208.56,-652.61 1210.75,-659.48 1205.25,-664.14"/>
<text text-anchor="middle" x="1081.5" y="-795" font-family="Helvetica,sans-Serif" font-size="10.00"> +HP</text>
<text text-anchor="middle" x="1081.5" y="-784" font-family="Helvetica,sans-Serif" font-size="10.00">+currentFrame</text>
<text text-anchor="middle" x="1081.5" y="-773" font-family="Helvetica,sans-Serif" font-size="10.00">+framesCounter</text>
<text text-anchor="middle" x="1081.5" y="-762" font-family="Helvetica,sans-Serif" font-size="10.00">+framesSpeed</text>
</g>
<!-- Node7&#45;&gt;Node14 -->
<g id="edge21" class="edge">
<title>Node7&#45;&gt;Node14</title>
<path fill="none" stroke="#404040" d="M680.87,-833.56C677.61,-827.24 674.29,-820.45 671.5,-814 659.17,-785.49 671.43,-768.95 648.5,-748 624.15,-725.75 601.79,-751.18 576.5,-730 561.16,-717.15 550.16,-698.85 542.35,-680.57"/>
<polygon fill="none" stroke="#404040" points="542.29,-680.41 536.37,-676.29 537.9,-669.24 543.81,-673.36 542.29,-680.41"/>
<text text-anchor="middle" x="689.5" y="-784" font-family="Helvetica,sans-Serif" font-size="10.00"> +pos_x</text>
<text text-anchor="middle" x="689.5" y="-773" font-family="Helvetica,sans-Serif" font-size="10.00">+pos_y</text>
</g>
<!-- Node8 -->
<g id="node8" class="node">
<title>Node8</title>
<g id="a_node8"><a xlink:title=" ">
<polygon fill="none" stroke="black" points="0,-832.5 0,-889.5 41,-889.5 41,-832.5 0,-832.5"/>
<text text-anchor="middle" x="20.5" y="-877.5" font-family="Helvetica,sans-Serif" font-size="10.00">string</text>
<polyline fill="none" stroke="black" points="0,-870.5 41,-870.5 "/>
<text text-anchor="middle" x="20.5" y="-858.5" font-family="Helvetica,sans-Serif" font-size="10.00"> </text>
<polyline fill="none" stroke="black" points="0,-851.5 41,-851.5 "/>
<text text-anchor="middle" x="20.5" y="-839.5" font-family="Helvetica,sans-Serif" font-size="10.00"> </text>
</a>
</g>
</g>
<!-- Node8&#45;&gt;Node5 -->
<g id="edge7" class="edge">
<title>Node8&#45;&gt;Node5</title>
<path fill="none" stroke="#404040" d="M41.24,-848.52C76.76,-828.12 150.17,-782.72 199.5,-730 201.75,-727.6 203.96,-725.12 206.15,-722.58"/>
<polygon fill="none" stroke="#404040" points="206.29,-722.4 207.01,-715.22 213.9,-713.12 213.19,-720.29 206.29,-722.4"/>
<text text-anchor="middle" x="195" y="-778.5" font-family="Helvetica,sans-Serif" font-size="10.00"> #name</text>
</g>
<!-- Node9 -->
<g id="node9" class="node">
<title>Node9</title>
<g id="a_node9"><a xlink:title=" ">
<polygon fill="none" stroke="black" points="404.5,-832.5 404.5,-889.5 464.5,-889.5 464.5,-832.5 404.5,-832.5"/>
<text text-anchor="middle" x="434.5" y="-877.5" font-family="Helvetica,sans-Serif" font-size="10.00">Rectangle</text>
<polyline fill="none" stroke="black" points="404.5,-870.5 464.5,-870.5 "/>
<text text-anchor="middle" x="434.5" y="-858.5" font-family="Helvetica,sans-Serif" font-size="10.00"> </text>
<polyline fill="none" stroke="black" points="404.5,-851.5 464.5,-851.5 "/>
<text text-anchor="middle" x="434.5" y="-839.5" font-family="Helvetica,sans-Serif" font-size="10.00"> </text>
</a>
</g>
</g>
<!-- Node9&#45;&gt;Node2 -->
<g id="edge18" class="edge">
<title>Node9&#45;&gt;Node2</title>
<path fill="none" stroke="#404040" d="M404.33,-840.85C395.41,-833.58 386.67,-824.49 381.5,-814 350.03,-750.11 324.71,-569.09 376.5,-496 479.05,-351.29 697.25,-312.63 828.35,-302.79"/>
<polygon fill="none" stroke="#404040" points="828.39,-302.79 834.1,-298.38 840.36,-301.95 834.66,-306.36 828.39,-302.79"/>
<text text-anchor="middle" x="424.5" y="-665.5" font-family="Helvetica,sans-Serif" font-size="10.00"> +B1rec</text>
<text text-anchor="middle" x="424.5" y="-654.5" font-family="Helvetica,sans-Serif" font-size="10.00">+B2rec</text>
<text text-anchor="middle" x="424.5" y="-643.5" font-family="Helvetica,sans-Serif" font-size="10.00">+BlueClockFrameRec</text>
<text text-anchor="middle" x="424.5" y="-632.5" font-family="Helvetica,sans-Serif" font-size="10.00">+Bluerec</text>
<text text-anchor="middle" x="424.5" y="-621.5" font-family="Helvetica,sans-Serif" font-size="10.00">+RedClockFrameRec</text>
<text text-anchor="middle" x="424.5" y="-610.5" font-family="Helvetica,sans-Serif" font-size="10.00">+Redrec</text>
<text text-anchor="middle" x="424.5" y="-599.5" font-family="Helvetica,sans-Serif" font-size="10.00">+batteryrec1</text>
<text text-anchor="middle" x="424.5" y="-588.5" font-family="Helvetica,sans-Serif" font-size="10.00">+batteryrec2</text>
<text text-anchor="middle" x="424.5" y="-577.5" font-family="Helvetica,sans-Serif" font-size="10.00">+box_rec</text>
<text text-anchor="middle" x="424.5" y="-566.5" font-family="Helvetica,sans-Serif" font-size="10.00">+box_rec_titlescreen</text>
<text text-anchor="middle" x="424.5" y="-555.5" font-family="Helvetica,sans-Serif" font-size="10.00">...</text>
</g>
<!-- Node9&#45;&gt;Node5 -->
<g id="edge8" class="edge">
<title>Node9&#45;&gt;Node5</title>
<path fill="none" stroke="#404040" d="M404.22,-853.74C381.18,-847.45 350.33,-835.52 331.5,-814 328.49,-810.56 318.66,-778.67 307.87,-741.34"/>
<polygon fill="none" stroke="#404040" points="307.81,-741.13 302.31,-736.47 304.5,-729.6 310,-734.26 307.81,-741.13"/>
<text text-anchor="middle" x="342.5" y="-778.5" font-family="Helvetica,sans-Serif" font-size="10.00"> #rec</text>
</g>
<!-- Node9&#45;&gt;Node10 -->
<g id="edge16" class="edge">
<title>Node9&#45;&gt;Node10</title>
<path fill="none" stroke="#404040" d="M464.77,-856.07C509.79,-850.3 597.08,-839.42 671.5,-832 696.02,-829.55 873.43,-829.6 892.5,-814 916.12,-794.67 887.78,-767.21 911.5,-748 955.3,-712.53 1118.42,-762.46 1164.5,-730 1186.12,-714.77 1198.68,-688.27 1205.92,-664.44"/>
<polygon fill="none" stroke="#404040" points="1205.98,-664.23 1203.71,-657.39 1209.15,-652.66 1211.42,-659.5 1205.98,-664.23"/>
<text text-anchor="middle" x="949.5" y="-789.5" font-family="Helvetica,sans-Serif" font-size="10.00"> +StandframeRec</text>
<text text-anchor="middle" x="949.5" y="-778.5" font-family="Helvetica,sans-Serif" font-size="10.00">+frameRec</text>
<text text-anchor="middle" x="949.5" y="-767.5" font-family="Helvetica,sans-Serif" font-size="10.00">+nemorec</text>
</g>
<!-- Node9&#45;&gt;Node14 -->
<g id="edge23" class="edge">
<title>Node9&#45;&gt;Node14</title>
<path fill="none" stroke="#404040" d="M464.63,-834.92C470.65,-828.64 476.38,-821.53 480.5,-814 492.9,-791.36 505.38,-730.07 513.87,-681.25"/>
<polygon fill="none" stroke="#404040" points="513.92,-680.96 510.99,-674.38 515.94,-669.14 518.88,-675.72 513.92,-680.96"/>
<text text-anchor="middle" x="530.5" y="-778.5" font-family="Helvetica,sans-Serif" font-size="10.00"> +EpanoxRec</text>
</g>
<!-- Node10&#45;&gt;Node2 -->
<g id="edge9" class="edge">
<title>Node10&#45;&gt;Node2</title>
<path fill="none" stroke="#404040" d="M1202.97,-573.42C1194.27,-549.83 1181.23,-519.73 1164.5,-496 1130.49,-447.76 1081.96,-404.07 1038.23,-370.25"/>
<polygon fill="none" stroke="#404040" points="1038.23,-370.25 1031.04,-369.78 1028.69,-362.96 1035.89,-363.42 1038.23,-370.25"/>
<text text-anchor="middle" x="1167.5" y="-459" font-family="Helvetica,sans-Serif" font-size="10.00"> +nemo</text>
</g>
<!-- Node11 -->
<g id="node11" class="node">
<title>Node11</title>
<g id="a_node11"><a xlink:title=" ">
<polygon fill="none" stroke="black" points="1412,-832.5 1412,-889.5 1447,-889.5 1447,-832.5 1412,-832.5"/>
<text text-anchor="middle" x="1429.5" y="-877.5" font-family="Helvetica,sans-Serif" font-size="10.00">float</text>
<polyline fill="none" stroke="black" points="1412,-870.5 1447,-870.5 "/>
<text text-anchor="middle" x="1429.5" y="-858.5" font-family="Helvetica,sans-Serif" font-size="10.00"> </text>
<polyline fill="none" stroke="black" points="1412,-851.5 1447,-851.5 "/>
<text text-anchor="middle" x="1429.5" y="-839.5" font-family="Helvetica,sans-Serif" font-size="10.00"> </text>
</a>
</g>
</g>
<!-- Node11&#45;&gt;Node2 -->
<g id="edge28" class="edge">
<title>Node11&#45;&gt;Node2</title>
<path fill="none" stroke="#404040" d="M1429.26,-832.1C1428.3,-808.98 1425.14,-775.56 1415.5,-748 1372.17,-624.1 1351.43,-591.61 1261.5,-496 1199.09,-429.64 1109.26,-377.98 1039.54,-344.4"/>
<polygon fill="none" stroke="#404040" points="1039.37,-344.31 1032.24,-345.35 1028.53,-339.16 1035.67,-338.13 1039.37,-344.31"/>
<text text-anchor="middle" x="1443" y="-638" font-family="Helvetica,sans-Serif" font-size="10.00"> +doorPositionX</text>
<text text-anchor="middle" x="1443" y="-627" font-family="Helvetica,sans-Serif" font-size="10.00">+doorPositionY</text>
<text text-anchor="middle" x="1443" y="-616" font-family="Helvetica,sans-Serif" font-size="10.00">+doortileX</text>
<text text-anchor="middle" x="1443" y="-605" font-family="Helvetica,sans-Serif" font-size="10.00">+doortileY</text>
<text text-anchor="middle" x="1443" y="-594" font-family="Helvetica,sans-Serif" font-size="10.00">+thick</text>
<text text-anchor="middle" x="1443" y="-583" font-family="Helvetica,sans-Serif" font-size="10.00">+thickness</text>
</g>
<!-- Node11&#45;&gt;Node10 -->
<g id="edge11" class="edge">
<title>Node11&#45;&gt;Node10</title>
<path fill="none" stroke="#404040" d="M1411.81,-853.43C1394.4,-846.16 1368.08,-832.92 1351.5,-814 1330.5,-790.04 1339.88,-775.33 1323.5,-748 1305.18,-717.43 1280.49,-686.26 1259.34,-661.69"/>
<polygon fill="none" stroke="#404040" points="1259.32,-661.65 1252.36,-659.76 1251.43,-652.61 1258.39,-654.5 1259.32,-661.65"/>
<text text-anchor="middle" x="1383.5" y="-795" font-family="Helvetica,sans-Serif" font-size="10.00"> +nemoheight</text>
<text text-anchor="middle" x="1383.5" y="-784" font-family="Helvetica,sans-Serif" font-size="10.00">+nemowidth</text>
<text text-anchor="middle" x="1383.5" y="-773" font-family="Helvetica,sans-Serif" font-size="10.00">+timesinceIdle</text>
<text text-anchor="middle" x="1383.5" y="-762" font-family="Helvetica,sans-Serif" font-size="10.00">+walkspeed</text>
</g>
<!-- Node15 -->
<g id="node15" class="node">
<title>Node15</title>
<g id="a_node15"><a xlink:href="class_endscreen.html" target="_top" xlink:title=" ">
<polygon fill="none" stroke="black" points="1506,-579 1506,-647 1569,-647 1569,-579 1506,-579"/>
<text text-anchor="middle" x="1537.5" y="-635" font-family="Helvetica,sans-Serif" font-size="10.00">Endscreen</text>
<polyline fill="none" stroke="black" points="1506,-628 1569,-628 "/>
<text text-anchor="middle" x="1537.5" y="-616" font-family="Helvetica,sans-Serif" font-size="10.00"> </text>
<polyline fill="none" stroke="black" points="1506,-609 1569,-609 "/>
<text text-anchor="start" x="1514" y="-597" font-family="Helvetica,sans-Serif" font-size="10.00">+ update()</text>
<text text-anchor="start" x="1514" y="-586" font-family="Helvetica,sans-Serif" font-size="10.00">+ draw()</text>
</a>
</g>
</g>
<!-- Node11&#45;&gt;Node15 -->
<g id="edge26" class="edge">
<title>Node11&#45;&gt;Node15</title>
<path fill="none" stroke="#404040" d="M1447.13,-842.38C1454.51,-834.27 1462.7,-824.19 1468.5,-814 1496.87,-764.18 1516.3,-700.76 1527.14,-658.84"/>
<polygon fill="none" stroke="#404040" points="1527.17,-658.73 1524.76,-651.94 1530.1,-647.09 1532.51,-653.89 1527.17,-658.73"/>
<text text-anchor="middle" x="1526.5" y="-778.5" font-family="Helvetica,sans-Serif" font-size="10.00"> +creditPosY</text>
</g>
<!-- Node12 -->
<g id="node12" class="node">
<title>Node12</title>
<g id="a_node12"><a xlink:title=" ">
<polygon fill="none" stroke="black" points="1161.5,-832.5 1161.5,-889.5 1211.5,-889.5 1211.5,-832.5 1161.5,-832.5"/>
<text text-anchor="middle" x="1186.5" y="-877.5" font-family="Helvetica,sans-Serif" font-size="10.00">Vector2</text>
<polyline fill="none" stroke="black" points="1161.5,-870.5 1211.5,-870.5 "/>
<text text-anchor="middle" x="1186.5" y="-858.5" font-family="Helvetica,sans-Serif" font-size="10.00"> </text>
<polyline fill="none" stroke="black" points="1161.5,-851.5 1211.5,-851.5 "/>
<text text-anchor="middle" x="1186.5" y="-839.5" font-family="Helvetica,sans-Serif" font-size="10.00"> </text>
</a>
</g>
</g>
<!-- Node12&#45;&gt;Node10 -->
<g id="edge12" class="edge">
<title>Node12&#45;&gt;Node10</title>
<path fill="none" stroke="#404040" d="M1185.24,-832.3C1184.56,-809.58 1184.41,-776.61 1187.5,-748 1190.51,-720.08 1196.71,-689.38 1202.51,-664.42"/>
<polygon fill="none" stroke="#404040" points="1202.53,-664.34 1200.03,-657.58 1205.31,-652.67 1207.81,-659.43 1202.53,-664.34"/>
<text text-anchor="middle" x="1222.5" y="-778.5" font-family="Helvetica,sans-Serif" font-size="10.00"> +NemoPosition</text>
</g>
<!-- Node13 -->
<g id="node13" class="node">
<title>Node13</title>
<g id="a_node13"><a xlink:title=" ">
<polygon fill="none" stroke="black" points="1253,-832.5 1253,-889.5 1306,-889.5 1306,-832.5 1253,-832.5"/>
<text text-anchor="middle" x="1279.5" y="-877.5" font-family="Helvetica,sans-Serif" font-size="10.00">direction</text>
<polyline fill="none" stroke="black" points="1253,-870.5 1306,-870.5 "/>
<text text-anchor="middle" x="1279.5" y="-858.5" font-family="Helvetica,sans-Serif" font-size="10.00"> </text>
<polyline fill="none" stroke="black" points="1253,-851.5 1306,-851.5 "/>
<text text-anchor="middle" x="1279.5" y="-839.5" font-family="Helvetica,sans-Serif" font-size="10.00"> </text>
</a>
</g>
</g>
<!-- Node13&#45;&gt;Node10 -->
<g id="edge14" class="edge">
<title>Node13&#45;&gt;Node10</title>
<path fill="none" stroke="#404040" d="M1274.91,-832.19C1270.95,-809.42 1264.72,-776.42 1257.5,-748 1250.37,-719.95 1240.83,-689.11 1232.63,-664.08"/>
<polygon fill="none" stroke="#404040" points="1232.63,-664.06 1226.95,-659.62 1228.86,-652.67 1234.54,-657.11 1232.63,-664.06"/>
<text text-anchor="middle" x="1295.5" y="-778.5" font-family="Helvetica,sans-Serif" font-size="10.00"> +Direction</text>
</g>
<!-- Node14&#45;&gt;Node2 -->
<g id="edge20" class="edge">
<title>Node14&#45;&gt;Node2</title>
<path fill="none" stroke="#404040" d="M540.79,-556.9C548.99,-536.03 560.63,-513.19 576.5,-496 645.8,-420.96 750.58,-368.28 828.9,-336.57"/>
<polygon fill="none" stroke="#404040" points="829.11,-336.49 833.2,-330.55 840.26,-332.05 836.16,-337.98 829.11,-336.49"/>
<text text-anchor="middle" x="637" y="-459" font-family="Helvetica,sans-Serif" font-size="10.00"> +spr</text>
</g>
<!-- Node15&#45;&gt;Node2 -->
<g id="edge25" class="edge">
<title>Node15&#45;&gt;Node2</title>
<path fill="none" stroke="#404040" d="M1547.25,-578.79C1555.89,-541.87 1562.92,-482.51 1532.5,-445 1528.57,-440.15 1211.35,-365.03 1040.6,-324.88"/>
<polygon fill="none" stroke="#404040" points="1040.5,-324.85 1033.74,-327.37 1028.82,-322.11 1035.57,-319.59 1040.5,-324.85"/>
<text text-anchor="middle" x="1576" y="-459" font-family="Helvetica,sans-Serif" font-size="10.00"> +endscreen</text>
</g>
<!-- Node16 -->
<g id="node16" class="node">
<title>Node16</title>
<g id="a_node16"><a xlink:title=" ">
<polygon fill="none" stroke="black" points="898.5,-584.5 898.5,-641.5 972.5,-641.5 972.5,-584.5 898.5,-584.5"/>
<text text-anchor="middle" x="935.5" y="-629.5" font-family="Helvetica,sans-Serif" font-size="10.00">GameScreen</text>
<polyline fill="none" stroke="black" points="898.5,-622.5 972.5,-622.5 "/>
<text text-anchor="middle" x="935.5" y="-610.5" font-family="Helvetica,sans-Serif" font-size="10.00"> </text>
<polyline fill="none" stroke="black" points="898.5,-603.5 972.5,-603.5 "/>
<text text-anchor="middle" x="935.5" y="-591.5" font-family="Helvetica,sans-Serif" font-size="10.00"> </text>
</a>
</g>
</g>
<!-- Node16&#45;&gt;Node2 -->
<g id="edge29" class="edge">
<title>Node16&#45;&gt;Node2</title>
<path fill="none" stroke="#404040" d="M935.41,-584.31C935.31,-551.24 935.12,-493.5 934.94,-438.64"/>
<polygon fill="none" stroke="#404040" points="934.94,-438.63 930.93,-432.64 934.91,-426.63 938.93,-432.62 934.94,-438.63"/>
<text text-anchor="middle" x="970" y="-459" font-family="Helvetica,sans-Serif" font-size="10.00"> +currentscreen</text>
</g>
<!-- Node17 -->
<g id="node17" class="node">
<title>Node17</title>
<g id="a_node17"><a xlink:title=" ">
<polygon fill="none" stroke="black" points="992.5,-584.5 992.5,-641.5 1060.5,-641.5 1060.5,-584.5 992.5,-584.5"/>
<text text-anchor="middle" x="1026.5" y="-629.5" font-family="Helvetica,sans-Serif" font-size="10.00">EnemyType</text>
<polyline fill="none" stroke="black" points="992.5,-622.5 1060.5,-622.5 "/>
<text text-anchor="middle" x="1026.5" y="-610.5" font-family="Helvetica,sans-Serif" font-size="10.00"> </text>
<polyline fill="none" stroke="black" points="992.5,-603.5 1060.5,-603.5 "/>
<text text-anchor="middle" x="1026.5" y="-591.5" font-family="Helvetica,sans-Serif" font-size="10.00"> </text>
</a>
</g>
</g>
<!-- Node17&#45;&gt;Node2 -->
<g id="edge30" class="edge">
<title>Node17&#45;&gt;Node2</title>
<path fill="none" stroke="#404040" d="M1025.54,-584.25C1023.76,-550.65 1018.73,-492.63 1004.5,-445 1003.82,-442.74 1003.12,-440.47 1002.38,-438.2"/>
<polygon fill="none" stroke="#404040" points="1002.37,-438.15 996.64,-433.77 998.48,-426.8 1004.21,-431.18 1002.37,-438.15"/>
<text text-anchor="middle" x="1037" y="-459" font-family="Helvetica,sans-Serif" font-size="10.00"> +opponent</text>
</g>
<!-- Node18 -->
<g id="node18" class="node">
<title>Node18</title>
<g id="a_node18"><a xlink:title=" ">
<polygon fill="none" stroke="black" points="1482.5,-270.5 1482.5,-327.5 1586.5,-327.5 1586.5,-270.5 1482.5,-270.5"/>
<text text-anchor="middle" x="1534.5" y="-315.5" font-family="Helvetica,sans-Serif" font-size="10.00">vector&lt; Rectangle &gt;</text>
<polyline fill="none" stroke="black" points="1482.5,-308.5 1586.5,-308.5 "/>
<text text-anchor="middle" x="1534.5" y="-296.5" font-family="Helvetica,sans-Serif" font-size="10.00"> </text>
<polyline fill="none" stroke="black" points="1482.5,-289.5 1586.5,-289.5 "/>
<text text-anchor="middle" x="1534.5" y="-277.5" font-family="Helvetica,sans-Serif" font-size="10.00"> </text>
</a>
</g>
</g>
<!-- Node18&#45;&gt;Node1 -->
<g id="edge31" class="edge">
<title>Node18&#45;&gt;Node1</title>
<path fill="none" stroke="#404040" d="M1529.09,-270.26C1521.73,-232.53 1508.35,-164 1498.55,-113.76"/>
<polygon fill="none" stroke="#404040" points="1498.5,-113.51 1493.43,-108.39 1496.2,-101.73 1501.28,-106.86 1498.5,-113.51"/>
<text text-anchor="middle" x="1552.5" y="-134" font-family="Helvetica,sans-Serif" font-size="10.00"> +collisionRectangles</text>
</g>
<!-- Node19 -->
<g id="node19" class="node">
<title>Node19</title>
<g id="a_node19"><a xlink:title=" ">
<polygon fill="none" stroke="black" points="1619,-270.5 1619,-327.5 1654,-327.5 1654,-270.5 1619,-270.5"/>
<text text-anchor="middle" x="1636.5" y="-315.5" font-family="Helvetica,sans-Serif" font-size="10.00">json</text>
<polyline fill="none" stroke="black" points="1619,-308.5 1654,-308.5 "/>
<text text-anchor="middle" x="1636.5" y="-296.5" font-family="Helvetica,sans-Serif" font-size="10.00"> </text>
<polyline fill="none" stroke="black" points="1619,-289.5 1654,-289.5 "/>
<text text-anchor="middle" x="1636.5" y="-277.5" font-family="Helvetica,sans-Serif" font-size="10.00"> </text>
</a>
</g>
</g>
<!-- Node19&#45;&gt;Node1 -->
<g id="edge32" class="edge">
<title>Node19&#45;&gt;Node1</title>
<path fill="none" stroke="#404040" d="M1638.17,-270.28C1639.03,-232.78 1635.45,-165.35 1603.5,-120 1591.4,-102.82 1573.47,-89.35 1555.26,-79.08"/>
<polygon fill="none" stroke="#404040" points="1555.16,-79.03 1547.98,-79.75 1544.55,-73.41 1551.73,-72.68 1555.16,-79.03"/>
<text text-anchor="middle" x="1660.5" y="-145" font-family="Helvetica,sans-Serif" font-size="10.00"> +levelMap</text>
<text text-anchor="middle" x="1660.5" y="-134" font-family="Helvetica,sans-Serif" font-size="10.00">+levelMapDungeon</text>
<text text-anchor="middle" x="1660.5" y="-123" font-family="Helvetica,sans-Serif" font-size="10.00">+tilesetDescription</text>
</g>
</g>
</svg>
