<?xml version="1.0" encoding="UTF-8" standalone="no"?>
<!DOCTYPE svg PUBLIC "-//W3C//DTD SVG 1.1//EN"
 "http://www.w3.org/Graphics/SVG/1.1/DTD/svg11.dtd">
<!-- Generated by graphviz version 3.0.0 (20220226.1711)
 -->
<!-- Title: Puzzle Pages: 1 -->
<svg width="771pt" height="757pt"
 viewBox="0.00 0.00 770.50 757.00" xmlns="http://www.w3.org/2000/svg" xmlns:xlink="http://www.w3.org/1999/xlink">
<g id="graph0" class="graph" transform="scale(1 1) rotate(0) translate(4 753)">
<title>Puzzle</title>
<!-- Node1 -->
<g id="node1" class="node">
<title>Node1</title>
<g id="a_node1"><a xlink:title=" ">
<polygon fill="#bfbfbf" stroke="black" points="303,-0.5 303,-431.5 408,-431.5 408,-0.5 303,-0.5"/>
<text text-anchor="middle" x="355.5" y="-419.5" font-family="Helvetica,sans-Serif" font-size="10.00">Puzzle</text>
<polyline fill="none" stroke="black" points="303,-412.5 408,-412.5 "/>
<text text-anchor="start" x="311" y="-400.5" font-family="Helvetica,sans-Serif" font-size="10.00">+ TriangleTrapDoor</text>
<text text-anchor="start" x="311" y="-389.5" font-family="Helvetica,sans-Serif" font-size="10.00">+ SquareTrapDoor</text>
<text text-anchor="start" x="311" y="-378.5" font-family="Helvetica,sans-Serif" font-size="10.00">+ WallTile</text>
<text text-anchor="start" x="311" y="-367.5" font-family="Helvetica,sans-Serif" font-size="10.00">+ Torch</text>
<text text-anchor="start" x="311" y="-356.5" font-family="Helvetica,sans-Serif" font-size="10.00">+ PuzzleTriangle</text>
<text text-anchor="start" x="311" y="-345.5" font-family="Helvetica,sans-Serif" font-size="10.00">+ PuzzleCircle</text>
<text text-anchor="start" x="311" y="-334.5" font-family="Helvetica,sans-Serif" font-size="10.00">+ PuzzleSquare</text>
<text text-anchor="start" x="311" y="-323.5" font-family="Helvetica,sans-Serif" font-size="10.00">+ door1</text>
<text text-anchor="start" x="311" y="-312.5" font-family="Helvetica,sans-Serif" font-size="10.00">+ door2</text>
<text text-anchor="start" x="311" y="-301.5" font-family="Helvetica,sans-Serif" font-size="10.00">+ door3</text>
<text text-anchor="start" x="311" y="-290.5" font-family="Helvetica,sans-Serif" font-size="10.00">+ frameRec</text>
<text text-anchor="start" x="311" y="-279.5" font-family="Helvetica,sans-Serif" font-size="10.00">+ frameRecTorch</text>
<text text-anchor="start" x="311" y="-268.5" font-family="Helvetica,sans-Serif" font-size="10.00">+ frameRecPortal</text>
<text text-anchor="start" x="311" y="-257.5" font-family="Helvetica,sans-Serif" font-size="10.00">+ puzzleCollision1</text>
<text text-anchor="start" x="311" y="-246.5" font-family="Helvetica,sans-Serif" font-size="10.00">+ puzzleCollision2</text>
<text text-anchor="start" x="311" y="-235.5" font-family="Helvetica,sans-Serif" font-size="10.00">+ puzzleCollision3</text>
<text text-anchor="start" x="311" y="-224.5" font-family="Helvetica,sans-Serif" font-size="10.00">+ helmetCollision</text>
<text text-anchor="start" x="311" y="-213.5" font-family="Helvetica,sans-Serif" font-size="10.00">+ hp_potionCollision</text>
<text text-anchor="start" x="311" y="-202.5" font-family="Helvetica,sans-Serif" font-size="10.00">+ keyCollision</text>
<text text-anchor="start" x="311" y="-191.5" font-family="Helvetica,sans-Serif" font-size="10.00">+ helmetIsDrawn</text>
<text text-anchor="start" x="311" y="-180.5" font-family="Helvetica,sans-Serif" font-size="10.00">+ chestplateIsDrawn</text>
<text text-anchor="start" x="311" y="-169.5" font-family="Helvetica,sans-Serif" font-size="10.00">+ hpPotionIsDrawn</text>
<text text-anchor="start" x="311" y="-158.5" font-family="Helvetica,sans-Serif" font-size="10.00">+ keyIsDrawn</text>
<text text-anchor="start" x="311" y="-147.5" font-family="Helvetica,sans-Serif" font-size="10.00">+ isKeyPickedUp</text>
<text text-anchor="start" x="311" y="-136.5" font-family="Helvetica,sans-Serif" font-size="10.00">+ wallIsOpen</text>
<text text-anchor="start" x="311" y="-125.5" font-family="Helvetica,sans-Serif" font-size="10.00">+ doorcollision1</text>
<text text-anchor="start" x="311" y="-114.5" font-family="Helvetica,sans-Serif" font-size="10.00">+ doorcollision2</text>
<text text-anchor="start" x="311" y="-103.5" font-family="Helvetica,sans-Serif" font-size="10.00">+ doorcollision3</text>
<polyline fill="none" stroke="black" points="303,-96.5 408,-96.5 "/>
<text text-anchor="start" x="311" y="-84.5" font-family="Helvetica,sans-Serif" font-size="10.00">+ Puzzle()</text>
<text text-anchor="start" x="311" y="-73.5" font-family="Helvetica,sans-Serif" font-size="10.00">+ collisionChecks()</text>
<text text-anchor="start" x="311" y="-62.5" font-family="Helvetica,sans-Serif" font-size="10.00">+ stopNemo()</text>
<text text-anchor="start" x="311" y="-51.5" font-family="Helvetica,sans-Serif" font-size="10.00">+ torchAnimation()</text>
<text text-anchor="start" x="311" y="-40.5" font-family="Helvetica,sans-Serif" font-size="10.00">+ portalAnimation()</text>
<text text-anchor="start" x="311" y="-29.5" font-family="Helvetica,sans-Serif" font-size="10.00">+ update()</text>
<text text-anchor="start" x="311" y="-18.5" font-family="Helvetica,sans-Serif" font-size="10.00">+ draw()</text>
<text text-anchor="start" x="311" y="-7.5" font-family="Helvetica,sans-Serif" font-size="10.00">+ ~Puzzle()</text>
</a>
</g>
</g>
<!-- Node2 -->
<g id="node2" class="node">
<title>Node2</title>
<g id="a_node2"><a xlink:href="class_game_1_1_nemo.html" target="_top" xlink:title=" ">
<polygon fill="none" stroke="black" points="417.5,-500 417.5,-579 491.5,-579 491.5,-500 417.5,-500"/>
<text text-anchor="middle" x="454.5" y="-567" font-family="Helvetica,sans-Serif" font-size="10.00">Game::Nemo</text>
<polyline fill="none" stroke="black" points="417.5,-560 491.5,-560 "/>
<text text-anchor="middle" x="454.5" y="-548" font-family="Helvetica,sans-Serif" font-size="10.00"> </text>
<polyline fill="none" stroke="black" points="417.5,-541 491.5,-541 "/>
<text text-anchor="start" x="425.5" y="-529" font-family="Helvetica,sans-Serif" font-size="10.00">+ Update()</text>
<text text-anchor="start" x="425.5" y="-518" font-family="Helvetica,sans-Serif" font-size="10.00">+ Draw()</text>
<text text-anchor="start" x="425.5" y="-507" font-family="Helvetica,sans-Serif" font-size="10.00">+ ~Nemo()</text>
</a>
</g>
</g>
<!-- Node2&#45;&gt;Node1 -->
<g id="edge1" class="edge">
<title>Node2&#45;&gt;Node1</title>
<path fill="none" stroke="#404040" d="M442.56,-499.72C434.57,-473.76 423.4,-437.51 411.73,-399.61"/>
<polygon fill="none" stroke="#404040" points="411.63,-399.27 406.04,-394.72 408.1,-387.8 413.68,-392.36 411.63,-399.27"/>
<text text-anchor="middle" x="448.5" y="-453" font-family="Helvetica,sans-Serif" font-size="10.00"> +nemo</text>
</g>
<!-- Node3 -->
<g id="node3" class="node">
<title>Node3</title>
<g id="a_node3"><a xlink:title=" ">
<polygon fill="none" stroke="black" points="0,-691.5 0,-748.5 29,-748.5 29,-691.5 0,-691.5"/>
<text text-anchor="middle" x="14.5" y="-736.5" font-family="Helvetica,sans-Serif" font-size="10.00">int</text>
<polyline fill="none" stroke="black" points="0,-729.5 29,-729.5 "/>
<text text-anchor="middle" x="14.5" y="-717.5" font-family="Helvetica,sans-Serif" font-size="10.00"> </text>
<polyline fill="none" stroke="black" points="0,-710.5 29,-710.5 "/>
<text text-anchor="middle" x="14.5" y="-698.5" font-family="Helvetica,sans-Serif" font-size="10.00"> </text>
</a>
</g>
</g>
<!-- Node3&#45;&gt;Node1 -->
<g id="edge11" class="edge">
<title>Node3&#45;&gt;Node1</title>
<path fill="none" stroke="#404040" d="M13.32,-691.36C12.57,-644.4 16.51,-547.49 56.5,-479 114.43,-379.79 223.43,-298.83 292.61,-254.33"/>
<polygon fill="none" stroke="#404040" points="292.8,-254.2 295.72,-247.61 302.93,-247.76 300.01,-254.36 292.8,-254.2"/>
<text text-anchor="middle" x="101" y="-559" font-family="Helvetica,sans-Serif" font-size="10.00"> +currentFrame</text>
<text text-anchor="middle" x="101" y="-548" font-family="Helvetica,sans-Serif" font-size="10.00">+framesCounter</text>
<text text-anchor="middle" x="101" y="-537" font-family="Helvetica,sans-Serif" font-size="10.00">+framesSpeed</text>
<text text-anchor="middle" x="101" y="-526" font-family="Helvetica,sans-Serif" font-size="10.00">+framesSpeedPortal</text>
<text text-anchor="middle" x="101" y="-515" font-family="Helvetica,sans-Serif" font-size="10.00">+framesSpeedTorch</text>
</g>
<!-- Node3&#45;&gt;Node2 -->
<g id="edge2" class="edge">
<title>Node3&#45;&gt;Node2</title>
<path fill="none" stroke="#404040" d="M22.42,-691.44C30.88,-667.54 46.81,-634.3 73.5,-618 136.18,-579.72 337.64,-632.49 403.5,-600 409.83,-596.88 415.69,-592.57 421.01,-587.7"/>
<polygon fill="none" stroke="#404040" points="421.06,-587.65 422.39,-580.56 429.44,-579.06 428.11,-586.15 421.06,-587.65"/>
<text text-anchor="middle" x="108.5" y="-659.5" font-family="Helvetica,sans-Serif" font-size="10.00"> +HP</text>
<text text-anchor="middle" x="108.5" y="-648.5" font-family="Helvetica,sans-Serif" font-size="10.00">+currentFrame</text>
<text text-anchor="middle" x="108.5" y="-637.5" font-family="Helvetica,sans-Serif" font-size="10.00">+framesCounter</text>
<text text-anchor="middle" x="108.5" y="-626.5" font-family="Helvetica,sans-Serif" font-size="10.00">+framesSpeed</text>
</g>
<!-- Node4 -->
<g id="node4" class="node">
<title>Node4</title>
<g id="a_node4"><a xlink:title=" ">
<polygon fill="none" stroke="black" points="407,-691.5 407,-748.5 442,-748.5 442,-691.5 407,-691.5"/>
<text text-anchor="middle" x="424.5" y="-736.5" font-family="Helvetica,sans-Serif" font-size="10.00">float</text>
<polyline fill="none" stroke="black" points="407,-729.5 442,-729.5 "/>
<text text-anchor="middle" x="424.5" y="-717.5" font-family="Helvetica,sans-Serif" font-size="10.00"> </text>
<polyline fill="none" stroke="black" points="407,-710.5 442,-710.5 "/>
<text text-anchor="middle" x="424.5" y="-698.5" font-family="Helvetica,sans-Serif" font-size="10.00"> </text>
</a>
</g>
</g>
<!-- Node4&#45;&gt;Node2 -->
<g id="edge3" class="edge">
<title>Node4&#45;&gt;Node2</title>
<path fill="none" stroke="#404040" d="M422.21,-691.32C421.14,-670.88 420.94,-642.48 425.5,-618 427.18,-608.97 429.83,-599.61 432.87,-590.65"/>
<polygon fill="none" stroke="#404040" points="432.94,-590.45 431.22,-583.45 437.02,-579.17 438.74,-586.17 432.94,-590.45"/>
<text text-anchor="middle" x="457.5" y="-659.5" font-family="Helvetica,sans-Serif" font-size="10.00"> +nemoheight</text>
<text text-anchor="middle" x="457.5" y="-648.5" font-family="Helvetica,sans-Serif" font-size="10.00">+nemowidth</text>
<text text-anchor="middle" x="457.5" y="-637.5" font-family="Helvetica,sans-Serif" font-size="10.00">+timesinceIdle</text>
<text text-anchor="middle" x="457.5" y="-626.5" font-family="Helvetica,sans-Serif" font-size="10.00">+walkspeed</text>
</g>
<!-- Node5 -->
<g id="node5" class="node">
<title>Node5</title>
<g id="a_node5"><a xlink:title=" ">
<polygon fill="none" stroke="black" points="113.5,-691.5 113.5,-748.5 163.5,-748.5 163.5,-691.5 113.5,-691.5"/>
<text text-anchor="middle" x="138.5" y="-736.5" font-family="Helvetica,sans-Serif" font-size="10.00">Vector2</text>
<polyline fill="none" stroke="black" points="113.5,-729.5 163.5,-729.5 "/>
<text text-anchor="middle" x="138.5" y="-717.5" font-family="Helvetica,sans-Serif" font-size="10.00"> </text>
<polyline fill="none" stroke="black" points="113.5,-710.5 163.5,-710.5 "/>
<text text-anchor="middle" x="138.5" y="-698.5" font-family="Helvetica,sans-Serif" font-size="10.00"> </text>
</a>
</g>
</g>
<!-- Node5&#45;&gt;Node1 -->
<g id="edge12" class="edge">
<title>Node5&#45;&gt;Node1</title>
<path fill="none" stroke="#404040" d="M136.68,-691.49C136.07,-670.89 136.85,-642.21 143.5,-618 175.52,-501.35 245.44,-380.32 296.25,-302.16"/>
<polygon fill="none" stroke="#404040" points="296.4,-301.93 296.34,-294.72 302.97,-291.89 303.03,-299.1 296.4,-301.93"/>
<text text-anchor="middle" x="231" y="-548" font-family="Helvetica,sans-Serif" font-size="10.00"> +PortalPosition</text>
<text text-anchor="middle" x="231" y="-537" font-family="Helvetica,sans-Serif" font-size="10.00">+TorchPosition</text>
<text text-anchor="middle" x="231" y="-526" font-family="Helvetica,sans-Serif" font-size="10.00">+TorchPosition2</text>
</g>
<!-- Node5&#45;&gt;Node2 -->
<g id="edge4" class="edge">
<title>Node5&#45;&gt;Node2</title>
<path fill="none" stroke="#404040" d="M142.01,-691.4C146.59,-667.82 157,-635.09 180.5,-618 220.71,-588.76 359.2,-622.58 403.5,-600 409.56,-596.91 415.2,-592.76 420.35,-588.08"/>
<polygon fill="none" stroke="#404040" points="420.67,-587.75 422.02,-580.67 429.08,-579.19 427.73,-586.28 420.67,-587.75"/>
<text text-anchor="middle" x="215.5" y="-643" font-family="Helvetica,sans-Serif" font-size="10.00"> +NemoPosition</text>
</g>
<!-- Node6 -->
<g id="node6" class="node">
<title>Node6</title>
<g id="a_node6"><a xlink:title=" ">
<polygon fill="none" stroke="black" points="310,-691.5 310,-748.5 345,-748.5 345,-691.5 310,-691.5"/>
<text text-anchor="middle" x="327.5" y="-736.5" font-family="Helvetica,sans-Serif" font-size="10.00">bool</text>
<polyline fill="none" stroke="black" points="310,-729.5 345,-729.5 "/>
<text text-anchor="middle" x="327.5" y="-717.5" font-family="Helvetica,sans-Serif" font-size="10.00"> </text>
<polyline fill="none" stroke="black" points="310,-710.5 345,-710.5 "/>
<text text-anchor="middle" x="327.5" y="-698.5" font-family="Helvetica,sans-Serif" font-size="10.00"> </text>
</a>
</g>
</g>
<!-- Node6&#45;&gt;Node1 -->
<g id="edge13" class="edge">
<title>Node6&#45;&gt;Node1</title>
<path fill="none" stroke="#404040" d="M325.4,-691.13C323.69,-667.03 321.42,-631.24 320.5,-600 318.92,-546.25 316.93,-532.66 320.5,-479 321.27,-467.41 322.23,-455.55 323.34,-443.59"/>
<polygon fill="none" stroke="#404040" points="323.34,-443.54 319.93,-437.19 324.49,-431.6 327.9,-437.95 323.34,-443.54"/>
<text text-anchor="middle" x="364.5" y="-592" font-family="Helvetica,sans-Serif" font-size="10.00"> +chest2IsDrawn</text>
<text text-anchor="middle" x="364.5" y="-581" font-family="Helvetica,sans-Serif" font-size="10.00">+chest3IsDrawn</text>
<text text-anchor="middle" x="364.5" y="-570" font-family="Helvetica,sans-Serif" font-size="10.00">+chestCollision</text>
<text text-anchor="middle" x="364.5" y="-559" font-family="Helvetica,sans-Serif" font-size="10.00">+chestCollision2</text>
<text text-anchor="middle" x="364.5" y="-548" font-family="Helvetica,sans-Serif" font-size="10.00">+chestCollision3</text>
<text text-anchor="middle" x="364.5" y="-537" font-family="Helvetica,sans-Serif" font-size="10.00">+chestCollisionNS1</text>
<text text-anchor="middle" x="364.5" y="-526" font-family="Helvetica,sans-Serif" font-size="10.00">+chestCollisionNS2</text>
<text text-anchor="middle" x="364.5" y="-515" font-family="Helvetica,sans-Serif" font-size="10.00">+chestCollisionNS3</text>
<text text-anchor="middle" x="364.5" y="-504" font-family="Helvetica,sans-Serif" font-size="10.00">+chestIsDrawn</text>
<text text-anchor="middle" x="364.5" y="-493" font-family="Helvetica,sans-Serif" font-size="10.00">+chestplateCollision</text>
<text text-anchor="middle" x="364.5" y="-482" font-family="Helvetica,sans-Serif" font-size="10.00">...</text>
</g>
<!-- Node6&#45;&gt;Node2 -->
<g id="edge5" class="edge">
<title>Node6&#45;&gt;Node2</title>
<path fill="none" stroke="#404040" d="M330.56,-691.43C334.35,-669.15 342.8,-638.26 361.5,-618 375.27,-603.08 387.13,-612.02 403.5,-600 408.25,-596.51 412.86,-592.49 417.23,-588.23"/>
<polygon fill="none" stroke="#404040" points="417.55,-587.9 418.81,-580.8 425.85,-579.23 424.59,-586.33 417.55,-587.9"/>
<text text-anchor="middle" x="390" y="-665" font-family="Helvetica,sans-Serif" font-size="10.00"> +active</text>
<text text-anchor="middle" x="390" y="-654" font-family="Helvetica,sans-Serif" font-size="10.00">+alive</text>
<text text-anchor="middle" x="390" y="-643" font-family="Helvetica,sans-Serif" font-size="10.00">+keypressed</text>
<text text-anchor="middle" x="390" y="-632" font-family="Helvetica,sans-Serif" font-size="10.00">+sound</text>
<text text-anchor="middle" x="390" y="-621" font-family="Helvetica,sans-Serif" font-size="10.00">+standing</text>
</g>
<!-- Node7 -->
<g id="node7" class="node">
<title>Node7</title>
<g id="a_node7"><a xlink:title=" ">
<polygon fill="none" stroke="black" points="222,-691.5 222,-748.5 275,-748.5 275,-691.5 222,-691.5"/>
<text text-anchor="middle" x="248.5" y="-736.5" font-family="Helvetica,sans-Serif" font-size="10.00">direction</text>
<polyline fill="none" stroke="black" points="222,-729.5 275,-729.5 "/>
<text text-anchor="middle" x="248.5" y="-717.5" font-family="Helvetica,sans-Serif" font-size="10.00"> </text>
<polyline fill="none" stroke="black" points="222,-710.5 275,-710.5 "/>
<text text-anchor="middle" x="248.5" y="-698.5" font-family="Helvetica,sans-Serif" font-size="10.00"> </text>
</a>
</g>
</g>
<!-- Node7&#45;&gt;Node2 -->
<g id="edge6" class="edge">
<title>Node7&#45;&gt;Node2</title>
<path fill="none" stroke="#404040" d="M250.39,-691.46C253.53,-668.25 261.8,-636.02 283.5,-618 324.99,-583.54 356.32,-626.12 403.5,-600 409.38,-596.75 414.88,-592.54 419.95,-587.86"/>
<polygon fill="none" stroke="#404040" points="420.18,-587.62 421.51,-580.53 428.56,-579.03 427.23,-586.12 420.18,-587.62"/>
<text text-anchor="middle" x="307.5" y="-643" font-family="Helvetica,sans-Serif" font-size="10.00"> +Direction</text>
</g>
<!-- Node8 -->
<g id="node8" class="node">
<title>Node8</title>
<g id="a_node8"><a xlink:title=" ">
<polygon fill="none" stroke="black" points="635,-691.5 635,-748.5 696,-748.5 696,-691.5 635,-691.5"/>
<text text-anchor="middle" x="665.5" y="-736.5" font-family="Helvetica,sans-Serif" font-size="10.00">Texture2D</text>
<polyline fill="none" stroke="black" points="635,-729.5 696,-729.5 "/>
<text text-anchor="middle" x="665.5" y="-717.5" font-family="Helvetica,sans-Serif" font-size="10.00"> </text>
<polyline fill="none" stroke="black" points="635,-710.5 696,-710.5 "/>
<text text-anchor="middle" x="665.5" y="-698.5" font-family="Helvetica,sans-Serif" font-size="10.00"> </text>
</a>
</g>
</g>
<!-- Node8&#45;&gt;Node1 -->
<g id="edge9" class="edge">
<title>Node8&#45;&gt;Node1</title>
<path fill="none" stroke="#404040" d="M671.1,-691.37C672.1,-685.34 672.98,-678.98 673.5,-673 681.03,-585.79 683.96,-554.4 639.5,-479 583.87,-384.66 483.68,-304.09 418.4,-258.09"/>
<polygon fill="none" stroke="#404040" points="418.08,-257.87 410.87,-257.72 408.24,-251.01 415.45,-251.16 418.08,-257.87"/>
<text text-anchor="middle" x="720" y="-592" font-family="Helvetica,sans-Serif" font-size="10.00"> +ChestOpen</text>
<text text-anchor="middle" x="720" y="-581" font-family="Helvetica,sans-Serif" font-size="10.00">+ChestplateTexture</text>
<text text-anchor="middle" x="720" y="-570" font-family="Helvetica,sans-Serif" font-size="10.00">+CircleTrapDoor</text>
<text text-anchor="middle" x="720" y="-559" font-family="Helvetica,sans-Serif" font-size="10.00">+DungeonFloorTile</text>
<text text-anchor="middle" x="720" y="-548" font-family="Helvetica,sans-Serif" font-size="10.00">+HelmetItem</text>
<text text-anchor="middle" x="720" y="-537" font-family="Helvetica,sans-Serif" font-size="10.00">+HelmetTexture</text>
<text text-anchor="middle" x="720" y="-526" font-family="Helvetica,sans-Serif" font-size="10.00">+HpPotionTexture</text>
<text text-anchor="middle" x="720" y="-515" font-family="Helvetica,sans-Serif" font-size="10.00">+KeyTexture</text>
<text text-anchor="middle" x="720" y="-504" font-family="Helvetica,sans-Serif" font-size="10.00">+Portal</text>
<text text-anchor="middle" x="720" y="-493" font-family="Helvetica,sans-Serif" font-size="10.00">+PuzzelTriangle</text>
<text text-anchor="middle" x="720" y="-482" font-family="Helvetica,sans-Serif" font-size="10.00">...</text>
</g>
<!-- Node8&#45;&gt;Node2 -->
<g id="edge7" class="edge">
<title>Node8&#45;&gt;Node2</title>
<path fill="none" stroke="#404040" d="M649.98,-691.17C636.78,-669.33 616.23,-639.17 592.5,-618 565.92,-594.29 530.87,-574.72 502.74,-561.18"/>
<polygon fill="none" stroke="#404040" points="502.42,-561.02 495.29,-562.1 491.55,-555.93 498.69,-554.85 502.42,-561.02"/>
<text text-anchor="middle" x="653.5" y="-665" font-family="Helvetica,sans-Serif" font-size="10.00"> +Back</text>
<text text-anchor="middle" x="653.5" y="-654" font-family="Helvetica,sans-Serif" font-size="10.00">+Front</text>
<text text-anchor="middle" x="653.5" y="-643" font-family="Helvetica,sans-Serif" font-size="10.00">+Left</text>
<text text-anchor="middle" x="653.5" y="-632" font-family="Helvetica,sans-Serif" font-size="10.00">+Right</text>
<text text-anchor="middle" x="653.5" y="-621" font-family="Helvetica,sans-Serif" font-size="10.00">+Stand</text>
</g>
<!-- Node9 -->
<g id="node9" class="node">
<title>Node9</title>
<g id="a_node9"><a xlink:title=" ">
<polygon fill="none" stroke="black" points="518.5,-691.5 518.5,-748.5 578.5,-748.5 578.5,-691.5 518.5,-691.5"/>
<text text-anchor="middle" x="548.5" y="-736.5" font-family="Helvetica,sans-Serif" font-size="10.00">Rectangle</text>
<polyline fill="none" stroke="black" points="518.5,-729.5 578.5,-729.5 "/>
<text text-anchor="middle" x="548.5" y="-717.5" font-family="Helvetica,sans-Serif" font-size="10.00"> </text>
<polyline fill="none" stroke="black" points="518.5,-710.5 578.5,-710.5 "/>
<text text-anchor="middle" x="548.5" y="-698.5" font-family="Helvetica,sans-Serif" font-size="10.00"> </text>
</a>
</g>
</g>
<!-- Node9&#45;&gt;Node1 -->
<g id="edge10" class="edge">
<title>Node9&#45;&gt;Node1</title>
<path fill="none" stroke="#404040" d="M577.85,-691.41C582.21,-685.77 586.05,-679.54 588.5,-673 597.06,-650.1 594.86,-641.6 588.5,-618 555.12,-494.12 473.02,-369.09 415.79,-292.34"/>
<polygon fill="none" stroke="#404040" points="415.45,-291.89 408.64,-289.5 408.23,-282.3 415.04,-284.69 415.45,-291.89"/>
<text text-anchor="middle" x="609" y="-592" font-family="Helvetica,sans-Serif" font-size="10.00"> +Chest</text>
<text text-anchor="middle" x="609" y="-581" font-family="Helvetica,sans-Serif" font-size="10.00">+Chest2</text>
<text text-anchor="middle" x="609" y="-570" font-family="Helvetica,sans-Serif" font-size="10.00">+Chest3</text>
<text text-anchor="middle" x="609" y="-559" font-family="Helvetica,sans-Serif" font-size="10.00">+ChestNS</text>
<text text-anchor="middle" x="609" y="-548" font-family="Helvetica,sans-Serif" font-size="10.00">+ChestNS2</text>
<text text-anchor="middle" x="609" y="-537" font-family="Helvetica,sans-Serif" font-size="10.00">+ChestNS3</text>
<text text-anchor="middle" x="609" y="-526" font-family="Helvetica,sans-Serif" font-size="10.00">+Chestplate</text>
<text text-anchor="middle" x="609" y="-515" font-family="Helvetica,sans-Serif" font-size="10.00">+Helmet</text>
<text text-anchor="middle" x="609" y="-504" font-family="Helvetica,sans-Serif" font-size="10.00">+HpPotion</text>
<text text-anchor="middle" x="609" y="-493" font-family="Helvetica,sans-Serif" font-size="10.00">+Key</text>
<text text-anchor="middle" x="609" y="-482" font-family="Helvetica,sans-Serif" font-size="10.00">...</text>
</g>
<!-- Node9&#45;&gt;Node2 -->
<g id="edge8" class="edge">
<title>Node9&#45;&gt;Node2</title>
<path fill="none" stroke="#404040" d="M524.79,-691.14C520.41,-685.34 516.09,-679.12 512.5,-673 499.1,-650.14 500.06,-642.3 489.5,-618 485.57,-608.95 481.3,-599.35 477.15,-590.09"/>
<polygon fill="none" stroke="#404040" points="477.09,-589.98 470.98,-586.15 472.16,-579.04 478.27,-582.86 477.09,-589.98"/>
<text text-anchor="middle" x="550.5" y="-654" font-family="Helvetica,sans-Serif" font-size="10.00"> +StandframeRec</text>
<text text-anchor="middle" x="550.5" y="-643" font-family="Helvetica,sans-Serif" font-size="10.00">+frameRec</text>
<text text-anchor="middle" x="550.5" y="-632" font-family="Helvetica,sans-Serif" font-size="10.00">+nemorec</text>
</g>
</g>
</svg>
