<?xml version="1.0" encoding="UTF-8" standalone="no"?>
<!DOCTYPE svg PUBLIC "-//W3C//DTD SVG 1.1//EN"
 "http://www.w3.org/Graphics/SVG/1.1/DTD/svg11.dtd">
<!-- Generated by graphviz version 3.0.0 (20220226.1711)
 -->
<!-- Title: Pharaoh Pages: 1 -->
<svg width="266pt" height="215pt"
 viewBox="0.00 0.00 265.50 215.00" xmlns="http://www.w3.org/2000/svg" xmlns:xlink="http://www.w3.org/1999/xlink">
<g id="graph0" class="graph" transform="scale(1 1) rotate(0) translate(4 211)">
<title>Pharaoh</title>
<!-- Node1 -->
<g id="node1" class="node">
<title>Node1</title>
<g id="a_node1"><a xlink:title=" ">
<polygon fill="#bfbfbf" stroke="black" points="68.5,-0.5 68.5,-79.5 166.5,-79.5 166.5,-0.5 68.5,-0.5"/>
<text text-anchor="middle" x="117.5" y="-67.5" font-family="Helvetica,sans-Serif" font-size="10.00">Pharaoh</text>
<polyline fill="none" stroke="black" points="68.5,-60.5 166.5,-60.5 "/>
<text text-anchor="middle" x="117.5" y="-48.5" font-family="Helvetica,sans-Serif" font-size="10.00"> </text>
<polyline fill="none" stroke="black" points="68.5,-41.5 166.5,-41.5 "/>
<text text-anchor="start" x="76.5" y="-29.5" font-family="Helvetica,sans-Serif" font-size="10.00">+ Update()</text>
<text text-anchor="start" x="76.5" y="-18.5" font-family="Helvetica,sans-Serif" font-size="10.00">+ Draw()</text>
<text text-anchor="start" x="76.5" y="-7.5" font-family="Helvetica,sans-Serif" font-size="10.00">+ getPharaohRec()</text>
</a>
</g>
</g>
<!-- Node2 -->
<g id="node2" class="node">
<title>Node2</title>
<g id="a_node2"><a xlink:title=" ">
<polygon fill="none" stroke="black" points="0,-149.5 0,-206.5 61,-206.5 61,-149.5 0,-149.5"/>
<text text-anchor="middle" x="30.5" y="-194.5" font-family="Helvetica,sans-Serif" font-size="10.00">Texture2D</text>
<polyline fill="none" stroke="black" points="0,-187.5 61,-187.5 "/>
<text text-anchor="middle" x="30.5" y="-175.5" font-family="Helvetica,sans-Serif" font-size="10.00"> </text>
<polyline fill="none" stroke="black" points="0,-168.5 61,-168.5 "/>
<text text-anchor="middle" x="30.5" y="-156.5" font-family="Helvetica,sans-Serif" font-size="10.00"> </text>
</a>
</g>
</g>
<!-- Node2&#45;&gt;Node1 -->
<g id="edge1" class="edge">
<title>Node2&#45;&gt;Node1</title>
<path fill="none" stroke="#404040" d="M32.81,-149.38C35.17,-133.41 39.92,-113.47 49.5,-98 52.41,-93.31 55.83,-88.81 59.58,-84.55"/>
<polygon fill="none" stroke="#404040" points="59.87,-84.24 61.15,-77.15 68.2,-75.6 66.91,-82.7 59.87,-84.24"/>
<text text-anchor="middle" x="81.5" y="-112" font-family="Helvetica,sans-Serif" font-size="10.00"> +spr_Pharaoh</text>
</g>
<!-- Node3 -->
<g id="node3" class="node">
<title>Node3</title>
<g id="a_node3"><a xlink:title=" ">
<polygon fill="none" stroke="black" points="87.5,-149.5 87.5,-206.5 147.5,-206.5 147.5,-149.5 87.5,-149.5"/>
<text text-anchor="middle" x="117.5" y="-194.5" font-family="Helvetica,sans-Serif" font-size="10.00">Rectangle</text>
<polyline fill="none" stroke="black" points="87.5,-187.5 147.5,-187.5 "/>
<text text-anchor="middle" x="117.5" y="-175.5" font-family="Helvetica,sans-Serif" font-size="10.00"> </text>
<polyline fill="none" stroke="black" points="87.5,-168.5 147.5,-168.5 "/>
<text text-anchor="middle" x="117.5" y="-156.5" font-family="Helvetica,sans-Serif" font-size="10.00"> </text>
</a>
</g>
</g>
<!-- Node3&#45;&gt;Node1 -->
<g id="edge2" class="edge">
<title>Node3&#45;&gt;Node1</title>
<path fill="none" stroke="#404040" d="M117.5,-149.48C117.5,-132.91 117.5,-111.3 117.5,-91.73"/>
<polygon fill="none" stroke="#404040" points="117.5,-91.56 113.5,-85.56 117.5,-79.56 121.5,-85.56 117.5,-91.56"/>
<text text-anchor="middle" x="147" y="-123" font-family="Helvetica,sans-Serif" font-size="10.00"> +Pharaohrec</text>
<text text-anchor="middle" x="147" y="-112" font-family="Helvetica,sans-Serif" font-size="10.00">+pharaohrec</text>
<text text-anchor="middle" x="147" y="-101" font-family="Helvetica,sans-Serif" font-size="10.00">&#45;frameRec</text>
</g>
<!-- Node4 -->
<g id="node4" class="node">
<title>Node4</title>
<g id="a_node4"><a xlink:title=" ">
<polygon fill="none" stroke="black" points="185,-149.5 185,-206.5 214,-206.5 214,-149.5 185,-149.5"/>
<text text-anchor="middle" x="199.5" y="-194.5" font-family="Helvetica,sans-Serif" font-size="10.00">int</text>
<polyline fill="none" stroke="black" points="185,-187.5 214,-187.5 "/>
<text text-anchor="middle" x="199.5" y="-175.5" font-family="Helvetica,sans-Serif" font-size="10.00"> </text>
<polyline fill="none" stroke="black" points="185,-168.5 214,-168.5 "/>
<text text-anchor="middle" x="199.5" y="-156.5" font-family="Helvetica,sans-Serif" font-size="10.00"> </text>
</a>
</g>
</g>
<!-- Node4&#45;&gt;Node1 -->
<g id="edge3" class="edge">
<title>Node4&#45;&gt;Node1</title>
<path fill="none" stroke="#404040" d="M195.54,-149.21C192.39,-133.37 186.89,-113.62 177.5,-98 175.7,-95 173.69,-92.05 171.54,-89.18"/>
<polygon fill="none" stroke="#404040" points="171.37,-88.97 164.47,-86.88 163.75,-79.7 170.65,-81.79 171.37,-88.97"/>
<text text-anchor="middle" x="224" y="-123" font-family="Helvetica,sans-Serif" font-size="10.00"> &#45;currentFrame</text>
<text text-anchor="middle" x="224" y="-112" font-family="Helvetica,sans-Serif" font-size="10.00">&#45;framesCounter</text>
<text text-anchor="middle" x="224" y="-101" font-family="Helvetica,sans-Serif" font-size="10.00">&#45;framesSpeed</text>
</g>
</g>
</svg>
