<?xml version="1.0" encoding="UTF-8" standalone="no"?>
<!DOCTYPE svg PUBLIC "-//W3C//DTD SVG 1.1//EN"
 "http://www.w3.org/Graphics/SVG/1.1/DTD/svg11.dtd">
<!-- Generated by graphviz version 3.0.0 (20220226.1711)
 -->
<!-- Title: Game::Dialog Pages: 1 -->
<svg width="211pt" height="215pt"
 viewBox="0.00 0.00 210.50 215.00" xmlns="http://www.w3.org/2000/svg" xmlns:xlink="http://www.w3.org/1999/xlink">
<g id="graph0" class="graph" transform="scale(1 1) rotate(0) translate(4 211)">
<title>Game::Dialog</title>
<!-- Node1 -->
<g id="node1" class="node">
<title>Node1</title>
<g id="a_node1"><a xlink:title=" ">
<polygon fill="#bfbfbf" stroke="black" points="73,-0.5 73,-101.5 153,-101.5 153,-0.5 73,-0.5"/>
<text text-anchor="middle" x="113" y="-89.5" font-family="Helvetica,sans-Serif" font-size="10.00">Game::Dialog</text>
<polyline fill="none" stroke="black" points="73,-82.5 153,-82.5 "/>
<text text-anchor="middle" x="113" y="-70.5" font-family="Helvetica,sans-Serif" font-size="10.00"> </text>
<polyline fill="none" stroke="black" points="73,-63.5 153,-63.5 "/>
<text text-anchor="start" x="81" y="-51.5" font-family="Helvetica,sans-Serif" font-size="10.00">+ Dialog()</text>
<text text-anchor="start" x="81" y="-40.5" font-family="Helvetica,sans-Serif" font-size="10.00">+ DialogStart()</text>
<text text-anchor="start" x="81" y="-29.5" font-family="Helvetica,sans-Serif" font-size="10.00">+ DialogNext()</text>
<text text-anchor="start" x="81" y="-18.5" font-family="Helvetica,sans-Serif" font-size="10.00">+ DialogEnd()</text>
<text text-anchor="start" x="81" y="-7.5" font-family="Helvetica,sans-Serif" font-size="10.00">+ ~Dialog()</text>
</a>
</g>
</g>
<!-- Node2 -->
<g id="node2" class="node">
<title>Node2</title>
<g id="a_node2"><a xlink:title=" ">
<polygon fill="none" stroke="black" points="0,-149.5 0,-206.5 50,-206.5 50,-149.5 0,-149.5"/>
<text text-anchor="middle" x="25" y="-194.5" font-family="Helvetica,sans-Serif" font-size="10.00">Vector2</text>
<polyline fill="none" stroke="black" points="0,-187.5 50,-187.5 "/>
<text text-anchor="middle" x="25" y="-175.5" font-family="Helvetica,sans-Serif" font-size="10.00"> </text>
<polyline fill="none" stroke="black" points="0,-168.5 50,-168.5 "/>
<text text-anchor="middle" x="25" y="-156.5" font-family="Helvetica,sans-Serif" font-size="10.00"> </text>
</a>
</g>
</g>
<!-- Node2&#45;&gt;Node1 -->
<g id="edge1" class="edge">
<title>Node2&#45;&gt;Node1</title>
<path fill="none" stroke="#404040" d="M31.33,-149.45C34.3,-139.7 38.43,-128.94 44,-120 49.69,-110.87 56.84,-102.06 64.37,-93.98"/>
<polygon fill="none" stroke="#404040" points="64.58,-93.77 65.91,-86.68 72.97,-85.19 71.63,-92.28 64.58,-93.77"/>
<text text-anchor="middle" x="76.5" y="-123" font-family="Helvetica,sans-Serif" font-size="10.00"> +text_position</text>
</g>
<!-- Node3 -->
<g id="node3" class="node">
<title>Node3</title>
<g id="a_node3"><a xlink:title=" ">
<polygon fill="none" stroke="black" points="98.5,-149.5 98.5,-206.5 127.5,-206.5 127.5,-149.5 98.5,-149.5"/>
<text text-anchor="middle" x="113" y="-194.5" font-family="Helvetica,sans-Serif" font-size="10.00">int</text>
<polyline fill="none" stroke="black" points="98.5,-187.5 127.5,-187.5 "/>
<text text-anchor="middle" x="113" y="-175.5" font-family="Helvetica,sans-Serif" font-size="10.00"> </text>
<polyline fill="none" stroke="black" points="98.5,-168.5 127.5,-168.5 "/>
<text text-anchor="middle" x="113" y="-156.5" font-family="Helvetica,sans-Serif" font-size="10.00"> </text>
</a>
</g>
</g>
<!-- Node3&#45;&gt;Node1 -->
<g id="edge2" class="edge">
<title>Node3&#45;&gt;Node1</title>
<path fill="none" stroke="#404040" d="M113,-149.26C113,-138.79 113,-126.42 113,-114.07"/>
<polygon fill="none" stroke="#404040" points="113,-113.8 109,-107.8 113,-101.8 117,-107.8 113,-113.8"/>
<text text-anchor="middle" x="137.5" y="-123" font-family="Helvetica,sans-Serif" font-size="10.00"> +textState</text>
</g>
<!-- Node4 -->
<g id="node4" class="node">
<title>Node4</title>
<g id="a_node4"><a xlink:title=" ">
<polygon fill="none" stroke="black" points="167.5,-149.5 167.5,-206.5 202.5,-206.5 202.5,-149.5 167.5,-149.5"/>
<text text-anchor="middle" x="185" y="-194.5" font-family="Helvetica,sans-Serif" font-size="10.00">bool</text>
<polyline fill="none" stroke="black" points="167.5,-187.5 202.5,-187.5 "/>
<text text-anchor="middle" x="185" y="-175.5" font-family="Helvetica,sans-Serif" font-size="10.00"> </text>
<polyline fill="none" stroke="black" points="167.5,-168.5 202.5,-168.5 "/>
<text text-anchor="middle" x="185" y="-156.5" font-family="Helvetica,sans-Serif" font-size="10.00"> </text>
</a>
</g>
</g>
<!-- Node4&#45;&gt;Node1 -->
<g id="edge3" class="edge">
<title>Node4&#45;&gt;Node1</title>
<path fill="none" stroke="#404040" d="M176.02,-149.37C172.48,-139.82 168.05,-129.21 163,-120 161.52,-117.3 159.95,-114.59 158.31,-111.88"/>
<polygon fill="none" stroke="#404040" points="158.15,-111.63 151.55,-108.72 151.69,-101.51 158.29,-104.42 158.15,-111.63"/>
<text text-anchor="middle" x="181" y="-123" font-family="Helvetica,sans-Serif" font-size="10.00"> +text</text>
</g>
</g>
</svg>
