<?xml version="1.0" encoding="UTF-8" standalone="no"?>
<!DOCTYPE svg PUBLIC "-//W3C//DTD SVG 1.1//EN"
 "http://www.w3.org/Graphics/SVG/1.1/DTD/svg11.dtd">
<!-- Generated by graphviz version 3.0.0 (20220226.1711)
 -->
<!-- Title: Game::Level Pages: 1 -->
<svg width="1740pt" height="727pt"
 viewBox="0.00 0.00 1739.66 727.00" xmlns="http://www.w3.org/2000/svg" xmlns:xlink="http://www.w3.org/1999/xlink">
<g id="graph0" class="graph" transform="scale(1 1) rotate(0) translate(4 723)">
<title>Game::Level</title>
<!-- Node1 -->
<g id="node1" class="node">
<title>Node1</title>
<g id="a_node1"><a xlink:title=" ">
<polygon fill="#bfbfbf" stroke="black" points="859.66,-0.5 859.66,-255.5 1047.66,-255.5 1047.66,-0.5 859.66,-0.5"/>
<text text-anchor="middle" x="953.66" y="-243.5" font-family="Helvetica,sans-Serif" font-size="10.00">Game::Level</text>
<polyline fill="none" stroke="black" points="859.66,-236.5 1047.66,-236.5 "/>
<text text-anchor="start" x="867.66" y="-224.5" font-family="Helvetica,sans-Serif" font-size="10.00">+ TitlescreenText</text>
<text text-anchor="start" x="867.66" y="-213.5" font-family="Helvetica,sans-Serif" font-size="10.00">+ spr_Battery</text>
<text text-anchor="start" x="867.66" y="-202.5" font-family="Helvetica,sans-Serif" font-size="10.00">+ gameover</text>
<text text-anchor="start" x="867.66" y="-191.5" font-family="Helvetica,sans-Serif" font-size="10.00">+ teleportrecOVERWORLDtoPYRAMID</text>
<text text-anchor="start" x="867.66" y="-180.5" font-family="Helvetica,sans-Serif" font-size="10.00">+ teleportrecPYRAMIDtoOVERWORLD</text>
<text text-anchor="start" x="867.66" y="-169.5" font-family="Helvetica,sans-Serif" font-size="10.00">+ teleportrecPYRAMIDtoENDSCREEN</text>
<text text-anchor="start" x="867.66" y="-158.5" font-family="Helvetica,sans-Serif" font-size="10.00">+ t_rec_start</text>
<text text-anchor="start" x="867.66" y="-147.5" font-family="Helvetica,sans-Serif" font-size="10.00">+ t_rec_settings</text>
<text text-anchor="start" x="867.66" y="-136.5" font-family="Helvetica,sans-Serif" font-size="10.00">+ t_rec_exit_game</text>
<text text-anchor="start" x="867.66" y="-125.5" font-family="Helvetica,sans-Serif" font-size="10.00">+ t_rec_attack</text>
<text text-anchor="start" x="867.66" y="-114.5" font-family="Helvetica,sans-Serif" font-size="10.00">+ t_rec_time</text>
<text text-anchor="start" x="867.66" y="-103.5" font-family="Helvetica,sans-Serif" font-size="10.00">+ t_rec_item</text>
<text text-anchor="start" x="867.66" y="-92.5" font-family="Helvetica,sans-Serif" font-size="10.00">+ t_rec_escape</text>
<polyline fill="none" stroke="black" points="859.66,-85.5 1047.66,-85.5 "/>
<text text-anchor="start" x="867.66" y="-73.5" font-family="Helvetica,sans-Serif" font-size="10.00">+ combat()</text>
<text text-anchor="start" x="867.66" y="-62.5" font-family="Helvetica,sans-Serif" font-size="10.00">+ ScreenDraw()</text>
<text text-anchor="start" x="867.66" y="-51.5" font-family="Helvetica,sans-Serif" font-size="10.00">+ Draw()</text>
<text text-anchor="start" x="867.66" y="-40.5" font-family="Helvetica,sans-Serif" font-size="10.00">+ Teleport()</text>
<text text-anchor="start" x="867.66" y="-29.5" font-family="Helvetica,sans-Serif" font-size="10.00">+ ~Level()</text>
<text text-anchor="start" x="867.66" y="-18.5" font-family="Helvetica,sans-Serif" font-size="10.00">+ damaged()</text>
<text text-anchor="start" x="867.66" y="-7.5" font-family="Helvetica,sans-Serif" font-size="10.00">+ Draw9Slice()</text>
</a>
</g>
</g>
<!-- Node1&#45;&gt;Node1 -->
<g id="edge18" class="edge">
<title>Node1&#45;&gt;Node1</title>
<path fill="none" stroke="#404040" d="M1048.04,-153.74C1058.73,-148.92 1065.66,-140.34 1065.66,-128 1065.66,-120.29 1062.96,-114.04 1058.31,-109.27"/>
<polygon fill="none" stroke="#404040" points="1057.95,-109.02 1050.74,-108.95 1048.04,-102.26 1055.25,-102.34 1057.95,-109.02"/>
<text text-anchor="middle" x="1079.66" y="-125.5" font-family="Helvetica,sans-Serif" font-size="10.00"> +level</text>
</g>
<!-- Node2 -->
<g id="node2" class="node">
<title>Node2</title>
<g id="a_node2"><a xlink:title=" ">
<polygon fill="none" stroke="black" points="230.16,-661.5 230.16,-718.5 291.16,-718.5 291.16,-661.5 230.16,-661.5"/>
<text text-anchor="middle" x="260.66" y="-706.5" font-family="Helvetica,sans-Serif" font-size="10.00">Texture2D</text>
<polyline fill="none" stroke="black" points="230.16,-699.5 291.16,-699.5 "/>
<text text-anchor="middle" x="260.66" y="-687.5" font-family="Helvetica,sans-Serif" font-size="10.00"> </text>
<polyline fill="none" stroke="black" points="230.16,-680.5 291.16,-680.5 "/>
<text text-anchor="middle" x="260.66" y="-668.5" font-family="Helvetica,sans-Serif" font-size="10.00"> </text>
</a>
</g>
</g>
<!-- Node2&#45;&gt;Node1 -->
<g id="edge1" class="edge">
<title>Node2&#45;&gt;Node1</title>
<path fill="none" stroke="#404040" d="M229.9,-681.1C180.24,-666.49 83.93,-630.07 43.66,-559 -7.61,-468.52 -20.43,-406.9 43.66,-325 141.91,-199.47 629.1,-151.02 847.47,-135.39"/>
<polygon fill="none" stroke="#404040" points="847.59,-135.38 853.3,-130.97 859.56,-134.54 853.86,-138.95 847.59,-135.38"/>
<text text-anchor="middle" x="75.66" y="-494.5" font-family="Helvetica,sans-Serif" font-size="10.00"> +Attack</text>
<text text-anchor="middle" x="75.66" y="-483.5" font-family="Helvetica,sans-Serif" font-size="10.00">+Battlescreen</text>
<text text-anchor="middle" x="75.66" y="-472.5" font-family="Helvetica,sans-Serif" font-size="10.00">+Blue_Clock</text>
<text text-anchor="middle" x="75.66" y="-461.5" font-family="Helvetica,sans-Serif" font-size="10.00">+Box</text>
<text text-anchor="middle" x="75.66" y="-450.5" font-family="Helvetica,sans-Serif" font-size="10.00">+Box_S</text>
<text text-anchor="middle" x="75.66" y="-439.5" font-family="Helvetica,sans-Serif" font-size="10.00">+Fish</text>
<text text-anchor="middle" x="75.66" y="-428.5" font-family="Helvetica,sans-Serif" font-size="10.00">+Map</text>
<text text-anchor="middle" x="75.66" y="-417.5" font-family="Helvetica,sans-Serif" font-size="10.00">+Pausescreen</text>
<text text-anchor="middle" x="75.66" y="-406.5" font-family="Helvetica,sans-Serif" font-size="10.00">+Red_Clock</text>
<text text-anchor="middle" x="75.66" y="-395.5" font-family="Helvetica,sans-Serif" font-size="10.00">+Titlescreen</text>
<text text-anchor="middle" x="75.66" y="-384.5" font-family="Helvetica,sans-Serif" font-size="10.00">...</text>
</g>
<!-- Node9 -->
<g id="node9" class="node">
<title>Node9</title>
<g id="a_node9"><a xlink:href="class_game_1_1_nemo.html" target="_top" xlink:title=" ">
<polygon fill="none" stroke="black" points="1207.66,-402.5 1207.66,-481.5 1281.66,-481.5 1281.66,-402.5 1207.66,-402.5"/>
<text text-anchor="middle" x="1244.66" y="-469.5" font-family="Helvetica,sans-Serif" font-size="10.00">Game::Nemo</text>
<polyline fill="none" stroke="black" points="1207.66,-462.5 1281.66,-462.5 "/>
<text text-anchor="middle" x="1244.66" y="-450.5" font-family="Helvetica,sans-Serif" font-size="10.00"> </text>
<polyline fill="none" stroke="black" points="1207.66,-443.5 1281.66,-443.5 "/>
<text text-anchor="start" x="1215.66" y="-431.5" font-family="Helvetica,sans-Serif" font-size="10.00">+ Update()</text>
<text text-anchor="start" x="1215.66" y="-420.5" font-family="Helvetica,sans-Serif" font-size="10.00">+ Draw()</text>
<text text-anchor="start" x="1215.66" y="-409.5" font-family="Helvetica,sans-Serif" font-size="10.00">+ ~Nemo()</text>
</a>
</g>
</g>
<!-- Node2&#45;&gt;Node9 -->
<g id="edge14" class="edge">
<title>Node2&#45;&gt;Node9</title>
<path fill="none" stroke="#404040" d="M291.37,-682.28C323.08,-675.65 374.07,-665.82 418.66,-661 443.65,-658.3 850.89,-658.51 870.66,-643 894.68,-624.16 865.83,-596.07 889.66,-577 942.5,-534.72 1138.11,-597.65 1193.66,-559 1215.37,-543.9 1227.94,-517.41 1235.16,-493.55"/>
<polygon fill="none" stroke="#404040" points="1235.22,-493.33 1232.94,-486.49 1238.38,-481.75 1240.66,-488.59 1235.22,-493.33"/>
<text text-anchor="middle" x="905.66" y="-629.5" font-family="Helvetica,sans-Serif" font-size="10.00"> +Back</text>
<text text-anchor="middle" x="905.66" y="-618.5" font-family="Helvetica,sans-Serif" font-size="10.00">+Front</text>
<text text-anchor="middle" x="905.66" y="-607.5" font-family="Helvetica,sans-Serif" font-size="10.00">+Left</text>
<text text-anchor="middle" x="905.66" y="-596.5" font-family="Helvetica,sans-Serif" font-size="10.00">+Right</text>
<text text-anchor="middle" x="905.66" y="-585.5" font-family="Helvetica,sans-Serif" font-size="10.00">+Stand</text>
</g>
<!-- Node13 -->
<g id="node13" class="node">
<title>Node13</title>
<g id="a_node13"><a xlink:href="class_game_1_1_sprite.html" target="_top" xlink:title=" ">
<polygon fill="none" stroke="black" points="477.66,-386 477.66,-498 563.66,-498 563.66,-386 477.66,-386"/>
<text text-anchor="middle" x="520.66" y="-486" font-family="Helvetica,sans-Serif" font-size="10.00">Game::Sprite</text>
<polyline fill="none" stroke="black" points="477.66,-479 563.66,-479 "/>
<text text-anchor="middle" x="520.66" y="-467" font-family="Helvetica,sans-Serif" font-size="10.00"> </text>
<polyline fill="none" stroke="black" points="477.66,-460 563.66,-460 "/>
<text text-anchor="start" x="485.66" y="-448" font-family="Helvetica,sans-Serif" font-size="10.00">+ EpanoxDraw()</text>
<text text-anchor="start" x="485.66" y="-437" font-family="Helvetica,sans-Serif" font-size="10.00">+ Sprite()</text>
<text text-anchor="start" x="485.66" y="-426" font-family="Helvetica,sans-Serif" font-size="10.00">+ Sprite()</text>
<text text-anchor="start" x="485.66" y="-415" font-family="Helvetica,sans-Serif" font-size="10.00">+ Sprite()</text>
<text text-anchor="start" x="485.66" y="-404" font-family="Helvetica,sans-Serif" font-size="10.00">+ Sprite()</text>
<text text-anchor="start" x="485.66" y="-393" font-family="Helvetica,sans-Serif" font-size="10.00">+ ~Sprite()</text>
</a>
</g>
</g>
<!-- Node2&#45;&gt;Node13 -->
<g id="edge21" class="edge">
<title>Node2&#45;&gt;Node13</title>
<path fill="none" stroke="#404040" d="M260.65,-661.34C262.26,-635.36 269.06,-597.51 293.66,-577 352.02,-528.35 401.38,-602.51 463.66,-559 480.89,-546.97 493.13,-528.22 501.74,-509.28"/>
<polygon fill="none" stroke="#404040" points="501.77,-509.23 500.4,-502.15 506.4,-498.16 507.78,-505.24 501.77,-509.23"/>
<text text-anchor="middle" x="322.16" y="-613" font-family="Helvetica,sans-Serif" font-size="10.00"> +EpanoxStil</text>
<text text-anchor="middle" x="322.16" y="-602" font-family="Helvetica,sans-Serif" font-size="10.00">+texture_</text>
</g>
<!-- Node3 -->
<g id="node3" class="node">
<title>Node3</title>
<g id="a_node3"><a xlink:title=" ">
<polygon fill="none" stroke="black" points="116.66,-413.5 116.66,-470.5 296.66,-470.5 296.66,-413.5 116.66,-413.5"/>
<text text-anchor="middle" x="206.66" y="-458.5" font-family="Helvetica,sans-Serif" font-size="10.00">unique_ptr&lt; Game::GameCharacter &gt;</text>
<polyline fill="none" stroke="black" points="116.66,-451.5 296.66,-451.5 "/>
<text text-anchor="middle" x="206.66" y="-439.5" font-family="Helvetica,sans-Serif" font-size="10.00"> </text>
<polyline fill="none" stroke="black" points="116.66,-432.5 296.66,-432.5 "/>
<text text-anchor="middle" x="206.66" y="-420.5" font-family="Helvetica,sans-Serif" font-size="10.00"> </text>
</a>
</g>
</g>
<!-- Node3&#45;&gt;Node1 -->
<g id="edge2" class="edge">
<title>Node3&#45;&gt;Node1</title>
<path fill="none" stroke="#404040" d="M211.37,-413.21C219.24,-375.67 238.76,-309.38 282.66,-274 368.55,-204.8 680.99,-159.86 847.5,-140.28"/>
<polygon fill="none" stroke="#404040" points="847.56,-140.28 853.05,-135.61 859.48,-138.89 853.98,-143.56 847.56,-140.28"/>
<text text-anchor="middle" x="300.66" y="-288" font-family="Helvetica,sans-Serif" font-size="10.00"> +player</text>
</g>
<!-- Node4 -->
<g id="node4" class="node">
<title>Node4</title>
<g id="a_node4"><a xlink:href="class_game_1_1_game_character.html" target="_top" xlink:title=" ">
<polygon fill="none" stroke="black" points="596.16,-325.5 596.16,-558.5 713.16,-558.5 713.16,-325.5 596.16,-325.5"/>
<text text-anchor="middle" x="654.66" y="-546.5" font-family="Helvetica,sans-Serif" font-size="10.00">Game::GameCharacter</text>
<polyline fill="none" stroke="black" points="596.16,-539.5 713.16,-539.5 "/>
<text text-anchor="middle" x="654.66" y="-527.5" font-family="Helvetica,sans-Serif" font-size="10.00"> </text>
<polyline fill="none" stroke="black" points="596.16,-520.5 713.16,-520.5 "/>
<text text-anchor="start" x="604.16" y="-508.5" font-family="Helvetica,sans-Serif" font-size="10.00">+ GameCharacter()</text>
<text text-anchor="start" x="604.16" y="-497.5" font-family="Helvetica,sans-Serif" font-size="10.00">+ get_Name()</text>
<text text-anchor="start" x="604.16" y="-486.5" font-family="Helvetica,sans-Serif" font-size="10.00">+ attack()</text>
<text text-anchor="start" x="604.16" y="-475.5" font-family="Helvetica,sans-Serif" font-size="10.00">+ getDamage()</text>
<text text-anchor="start" x="604.16" y="-464.5" font-family="Helvetica,sans-Serif" font-size="10.00">+ updateCharacter()</text>
<text text-anchor="start" x="604.16" y="-453.5" font-family="Helvetica,sans-Serif" font-size="10.00">+ getLives()</text>
<text text-anchor="start" x="604.16" y="-442.5" font-family="Helvetica,sans-Serif" font-size="10.00">+ getArmor()</text>
<text text-anchor="start" x="604.16" y="-431.5" font-family="Helvetica,sans-Serif" font-size="10.00">+ getStrength()</text>
<text text-anchor="start" x="604.16" y="-420.5" font-family="Helvetica,sans-Serif" font-size="10.00">+ getDefense()</text>
<text text-anchor="start" x="604.16" y="-409.5" font-family="Helvetica,sans-Serif" font-size="10.00">+ get_rec()</text>
<text text-anchor="start" x="604.16" y="-398.5" font-family="Helvetica,sans-Serif" font-size="10.00">+ set_rec()</text>
<text text-anchor="start" x="604.16" y="-387.5" font-family="Helvetica,sans-Serif" font-size="10.00">+ heal()</text>
<text text-anchor="start" x="604.16" y="-376.5" font-family="Helvetica,sans-Serif" font-size="10.00">+ get_turnnumb()</text>
<text text-anchor="start" x="604.16" y="-365.5" font-family="Helvetica,sans-Serif" font-size="10.00">+ set_turnnumb()</text>
<text text-anchor="start" x="604.16" y="-354.5" font-family="Helvetica,sans-Serif" font-size="10.00">+ draw()</text>
<text text-anchor="start" x="604.16" y="-343.5" font-family="Helvetica,sans-Serif" font-size="10.00">+ ~GameCharacter()</text>
<text text-anchor="start" x="604.16" y="-332.5" font-family="Helvetica,sans-Serif" font-size="10.00"># getDamageNumber()</text>
</a>
</g>
</g>
<!-- Node4&#45;&gt;Node1 -->
<g id="edge3" class="edge">
<title>Node4&#45;&gt;Node1</title>
<path fill="none" stroke="#404040" d="M713.22,-334.73C727.11,-313.56 742.83,-292.25 759.66,-274 786.03,-245.41 818.67,-218.56 849.61,-195.91"/>
<polygon fill="none" stroke="#404040" points="849.85,-195.73 852.38,-188.98 859.58,-188.71 857.06,-195.47 849.85,-195.73"/>
<text text-anchor="middle" x="780.16" y="-299" font-family="Helvetica,sans-Serif" font-size="10.00"> +enemy</text>
<text text-anchor="middle" x="780.16" y="-288" font-family="Helvetica,sans-Serif" font-size="10.00">+pharaoh</text>
<text text-anchor="middle" x="780.16" y="-277" font-family="Helvetica,sans-Serif" font-size="10.00">+shadow</text>
</g>
<!-- Node5 -->
<g id="node5" class="node">
<title>Node5</title>
<g id="a_node5"><a xlink:title=" ">
<polygon fill="none" stroke="black" points="428.16,-661.5 428.16,-718.5 463.16,-718.5 463.16,-661.5 428.16,-661.5"/>
<text text-anchor="middle" x="445.66" y="-706.5" font-family="Helvetica,sans-Serif" font-size="10.00">bool</text>
<polyline fill="none" stroke="black" points="428.16,-699.5 463.16,-699.5 "/>
<text text-anchor="middle" x="445.66" y="-687.5" font-family="Helvetica,sans-Serif" font-size="10.00"> </text>
<polyline fill="none" stroke="black" points="428.16,-680.5 463.16,-680.5 "/>
<text text-anchor="middle" x="445.66" y="-668.5" font-family="Helvetica,sans-Serif" font-size="10.00"> </text>
</a>
</g>
</g>
<!-- Node5&#45;&gt;Node1 -->
<g id="edge26" class="edge">
<title>Node5&#45;&gt;Node1</title>
<path fill="none" stroke="#404040" d="M427.93,-685.8C405.88,-680.82 368.91,-668.92 350.66,-643 307.37,-581.49 285.67,-401.73 341.66,-325 401.83,-242.55 688.66,-177.83 847.39,-147.62"/>
<polygon fill="none" stroke="#404040" points="847.73,-147.55 852.89,-142.51 859.53,-145.33 854.37,-150.37 847.73,-147.55"/>
<text text-anchor="middle" x="405.16" y="-494.5" font-family="Helvetica,sans-Serif" font-size="10.00"> +T_damaged</text>
<text text-anchor="middle" x="405.16" y="-483.5" font-family="Helvetica,sans-Serif" font-size="10.00">+e_damaged</text>
<text text-anchor="middle" x="405.16" y="-472.5" font-family="Helvetica,sans-Serif" font-size="10.00">+input</text>
<text text-anchor="middle" x="405.16" y="-461.5" font-family="Helvetica,sans-Serif" font-size="10.00">+p_damaged</text>
<text text-anchor="start" x="341.66" y="-450.5" font-family="Helvetica,sans-Serif" font-size="10.00">+teleportcollision</text>
<text text-anchor="middle" x="405.16" y="-439.5" font-family="Helvetica,sans-Serif" font-size="10.00">OVERWORLDtoPYRAMID</text>
<text text-anchor="start" x="341.66" y="-428.5" font-family="Helvetica,sans-Serif" font-size="10.00">+teleportcollisionPYRAMIDto</text>
<text text-anchor="middle" x="405.16" y="-417.5" font-family="Helvetica,sans-Serif" font-size="10.00">ENDSCREEN</text>
<text text-anchor="start" x="341.66" y="-406.5" font-family="Helvetica,sans-Serif" font-size="10.00">+teleportcollisionPYRAMIDto</text>
<text text-anchor="middle" x="405.16" y="-395.5" font-family="Helvetica,sans-Serif" font-size="10.00">OVERWORLD</text>
<text text-anchor="middle" x="405.16" y="-384.5" font-family="Helvetica,sans-Serif" font-size="10.00">+timer</text>
</g>
<!-- Node5&#45;&gt;Node4 -->
<g id="edge4" class="edge">
<title>Node5&#45;&gt;Node4</title>
<path fill="none" stroke="#404040" d="M463.41,-677.86C475.97,-669.37 492.65,-656.82 504.66,-643 526.87,-617.45 518.95,-601.15 542.66,-577 553.56,-565.91 561.26,-569.58 572.66,-559 577.88,-554.16 582.95,-548.95 587.86,-543.49"/>
<polygon fill="none" stroke="#404040" points="588.11,-543.21 589.01,-536.05 595.96,-534.12 595.06,-541.28 588.11,-543.21"/>
<text text-anchor="middle" x="567.16" y="-607.5" font-family="Helvetica,sans-Serif" font-size="10.00"> +damaged</text>
</g>
<!-- Node5&#45;&gt;Node9 -->
<g id="edge12" class="edge">
<title>Node5&#45;&gt;Node9</title>
<path fill="none" stroke="#404040" d="M463.41,-683.94C487.16,-677.4 530.7,-666.24 568.66,-661 608.01,-655.57 894.54,-667.68 925.66,-643 949.58,-624.03 920.95,-596.23 944.66,-577 987.76,-542.06 1148.33,-590.98 1193.66,-559 1215.27,-543.76 1227.83,-517.26 1235.08,-493.43"/>
<polygon fill="none" stroke="#404040" points="1235.13,-493.22 1232.86,-486.38 1238.31,-481.65 1240.58,-488.5 1235.13,-493.22"/>
<text text-anchor="middle" x="973.16" y="-629.5" font-family="Helvetica,sans-Serif" font-size="10.00"> +active</text>
<text text-anchor="middle" x="973.16" y="-618.5" font-family="Helvetica,sans-Serif" font-size="10.00">+alive</text>
<text text-anchor="middle" x="973.16" y="-607.5" font-family="Helvetica,sans-Serif" font-size="10.00">+keypressed</text>
<text text-anchor="middle" x="973.16" y="-596.5" font-family="Helvetica,sans-Serif" font-size="10.00">+sound</text>
<text text-anchor="middle" x="973.16" y="-585.5" font-family="Helvetica,sans-Serif" font-size="10.00">+standing</text>
</g>
<!-- Node5&#45;&gt;Node13 -->
<g id="edge23" class="edge">
<title>Node5&#45;&gt;Node13</title>
<path fill="none" stroke="#404040" d="M428.11,-684.41C409.11,-678.4 379.79,-665.84 366.66,-643 352.04,-617.57 347.91,-599.55 366.66,-577 394.7,-543.29 428.73,-585.49 463.66,-559 480.18,-546.48 492.19,-527.89 500.81,-509.25"/>
<polygon fill="none" stroke="#404040" points="500.9,-509.04 499.58,-501.95 505.62,-498 506.94,-505.09 500.9,-509.04"/>
<text text-anchor="middle" x="406.16" y="-607.5" font-family="Helvetica,sans-Serif" font-size="10.00"> +EpanoxCollision</text>
</g>
<!-- Node6 -->
<g id="node6" class="node">
<title>Node6</title>
<g id="a_node6"><a xlink:title=" ">
<polygon fill="none" stroke="black" points="705.16,-661.5 705.16,-718.5 734.16,-718.5 734.16,-661.5 705.16,-661.5"/>
<text text-anchor="middle" x="719.66" y="-706.5" font-family="Helvetica,sans-Serif" font-size="10.00">int</text>
<polyline fill="none" stroke="black" points="705.16,-699.5 734.16,-699.5 "/>
<text text-anchor="middle" x="719.66" y="-687.5" font-family="Helvetica,sans-Serif" font-size="10.00"> </text>
<polyline fill="none" stroke="black" points="705.16,-680.5 734.16,-680.5 "/>
<text text-anchor="middle" x="719.66" y="-668.5" font-family="Helvetica,sans-Serif" font-size="10.00"> </text>
</a>
</g>
</g>
<!-- Node6&#45;&gt;Node1 -->
<g id="edge16" class="edge">
<title>Node6&#45;&gt;Node1</title>
<path fill="none" stroke="#404040" d="M734.19,-684.53C752.38,-678.21 783.25,-664.9 800.66,-643 812.74,-627.81 873.99,-414.37 915.23,-267.36"/>
<polygon fill="none" stroke="#404040" points="915.3,-267.13 913.07,-260.27 918.54,-255.57 920.77,-262.43 915.3,-267.13"/>
<text text-anchor="middle" x="938.16" y="-494.5" font-family="Helvetica,sans-Serif" font-size="10.00"> +b1_c_frame</text>
<text text-anchor="middle" x="938.16" y="-483.5" font-family="Helvetica,sans-Serif" font-size="10.00">+b2_c_frame</text>
<text text-anchor="middle" x="938.16" y="-472.5" font-family="Helvetica,sans-Serif" font-size="10.00">+b_currentFrame</text>
<text text-anchor="middle" x="938.16" y="-461.5" font-family="Helvetica,sans-Serif" font-size="10.00">+e_framescounter</text>
<text text-anchor="middle" x="938.16" y="-450.5" font-family="Helvetica,sans-Serif" font-size="10.00">+energy</text>
<text text-anchor="middle" x="938.16" y="-439.5" font-family="Helvetica,sans-Serif" font-size="10.00">+framescounter</text>
<text text-anchor="middle" x="938.16" y="-428.5" font-family="Helvetica,sans-Serif" font-size="10.00">+h_amount</text>
<text text-anchor="middle" x="938.16" y="-417.5" font-family="Helvetica,sans-Serif" font-size="10.00">+p_framescounter</text>
<text text-anchor="middle" x="938.16" y="-406.5" font-family="Helvetica,sans-Serif" font-size="10.00">+r_currentFrame</text>
<text text-anchor="middle" x="938.16" y="-395.5" font-family="Helvetica,sans-Serif" font-size="10.00">+t_framescounter</text>
<text text-anchor="middle" x="938.16" y="-384.5" font-family="Helvetica,sans-Serif" font-size="10.00">...</text>
</g>
<!-- Node6&#45;&gt;Node4 -->
<g id="edge5" class="edge">
<title>Node6&#45;&gt;Node4</title>
<path fill="none" stroke="#404040" d="M705.08,-683.3C689.61,-676.37 666.02,-663.06 655.66,-643 644.34,-621.06 639.23,-595.87 637.76,-570.94"/>
<polygon fill="none" stroke="#404040" points="637.75,-570.73 633.54,-564.87 637.32,-558.73 641.53,-564.58 637.75,-570.73"/>
<text text-anchor="middle" x="686.66" y="-635" font-family="Helvetica,sans-Serif" font-size="10.00"> #c_DEF</text>
<text text-anchor="middle" x="686.66" y="-624" font-family="Helvetica,sans-Serif" font-size="10.00">#c_HP</text>
<text text-anchor="middle" x="686.66" y="-613" font-family="Helvetica,sans-Serif" font-size="10.00">#c_MaxHP</text>
<text text-anchor="middle" x="686.66" y="-602" font-family="Helvetica,sans-Serif" font-size="10.00">#c_STR</text>
<text text-anchor="middle" x="686.66" y="-591" font-family="Helvetica,sans-Serif" font-size="10.00">#c_timeattack</text>
<text text-anchor="middle" x="686.66" y="-580" font-family="Helvetica,sans-Serif" font-size="10.00">#turnnumb</text>
</g>
<!-- Node6&#45;&gt;Node9 -->
<g id="edge9" class="edge">
<title>Node6&#45;&gt;Node9</title>
<path fill="none" stroke="#404040" d="M734.41,-687.33C789.67,-680.97 982.5,-657.88 1005.66,-643 1035.32,-623.94 1019.67,-595.53 1049.66,-577 1104.53,-543.09 1141.95,-597.54 1193.66,-559 1214.79,-543.26 1227.31,-516.85 1234.66,-493.21"/>
<polygon fill="none" stroke="#404040" points="1234.69,-493.08 1232.47,-486.22 1237.95,-481.53 1240.17,-488.39 1234.69,-493.08"/>
<text text-anchor="middle" x="1084.66" y="-624" font-family="Helvetica,sans-Serif" font-size="10.00"> +HP</text>
<text text-anchor="middle" x="1084.66" y="-613" font-family="Helvetica,sans-Serif" font-size="10.00">+currentFrame</text>
<text text-anchor="middle" x="1084.66" y="-602" font-family="Helvetica,sans-Serif" font-size="10.00">+framesCounter</text>
<text text-anchor="middle" x="1084.66" y="-591" font-family="Helvetica,sans-Serif" font-size="10.00">+framesSpeed</text>
</g>
<!-- Node6&#45;&gt;Node13 -->
<g id="edge20" class="edge">
<title>Node6&#45;&gt;Node13</title>
<path fill="none" stroke="#404040" d="M704.9,-683.59C686.91,-677.21 655.46,-666.75 627.66,-661 592.84,-653.79 492.35,-669.52 468.66,-643 451,-623.22 471.07,-559.6 491.19,-509.36"/>
<polygon fill="none" stroke="#404040" points="491.21,-509.33 489.77,-502.26 495.74,-498.22 497.18,-505.29 491.21,-509.33"/>
<text text-anchor="middle" x="486.66" y="-613" font-family="Helvetica,sans-Serif" font-size="10.00"> +pos_x</text>
<text text-anchor="middle" x="486.66" y="-602" font-family="Helvetica,sans-Serif" font-size="10.00">+pos_y</text>
</g>
<!-- Node7 -->
<g id="node7" class="node">
<title>Node7</title>
<g id="a_node7"><a xlink:title=" ">
<polygon fill="none" stroke="black" points="578.16,-661.5 578.16,-718.5 619.16,-718.5 619.16,-661.5 578.16,-661.5"/>
<text text-anchor="middle" x="598.66" y="-706.5" font-family="Helvetica,sans-Serif" font-size="10.00">string</text>
<polyline fill="none" stroke="black" points="578.16,-699.5 619.16,-699.5 "/>
<text text-anchor="middle" x="598.66" y="-687.5" font-family="Helvetica,sans-Serif" font-size="10.00"> </text>
<polyline fill="none" stroke="black" points="578.16,-680.5 619.16,-680.5 "/>
<text text-anchor="middle" x="598.66" y="-668.5" font-family="Helvetica,sans-Serif" font-size="10.00"> </text>
</a>
</g>
</g>
<!-- Node7&#45;&gt;Node4 -->
<g id="edge6" class="edge">
<title>Node7&#45;&gt;Node4</title>
<path fill="none" stroke="#404040" d="M596.01,-661.08C594.52,-638.24 593.97,-605.21 599.66,-577 600.1,-574.83 600.57,-572.65 601.08,-570.46"/>
<polygon fill="none" stroke="#404040" points="601.11,-570.37 598.71,-563.56 604.07,-558.74 606.46,-565.54 601.11,-570.37"/>
<text text-anchor="middle" x="616.16" y="-607.5" font-family="Helvetica,sans-Serif" font-size="10.00"> #name</text>
</g>
<!-- Node8 -->
<g id="node8" class="node">
<title>Node8</title>
<g id="a_node8"><a xlink:title=" ">
<polygon fill="none" stroke="black" points="949.66,-661.5 949.66,-718.5 1009.66,-718.5 1009.66,-661.5 949.66,-661.5"/>
<text text-anchor="middle" x="979.66" y="-706.5" font-family="Helvetica,sans-Serif" font-size="10.00">Rectangle</text>
<polyline fill="none" stroke="black" points="949.66,-699.5 1009.66,-699.5 "/>
<text text-anchor="middle" x="979.66" y="-687.5" font-family="Helvetica,sans-Serif" font-size="10.00"> </text>
<polyline fill="none" stroke="black" points="949.66,-680.5 1009.66,-680.5 "/>
<text text-anchor="middle" x="979.66" y="-668.5" font-family="Helvetica,sans-Serif" font-size="10.00"> </text>
</a>
</g>
</g>
<!-- Node8&#45;&gt;Node1 -->
<g id="edge17" class="edge">
<title>Node8&#45;&gt;Node1</title>
<path fill="none" stroke="#404040" d="M1009.93,-686.63C1038.18,-682.62 1078.88,-671.86 1098.66,-643 1115.25,-618.81 1103.24,-605.97 1098.66,-577 1081.82,-470.24 1043.7,-354.27 1010.77,-267.07"/>
<polygon fill="none" stroke="#404040" points="1010.74,-266.99 1004.87,-262.81 1006.48,-255.77 1012.35,-259.96 1010.74,-266.99"/>
<text text-anchor="middle" x="1143.66" y="-494.5" font-family="Helvetica,sans-Serif" font-size="10.00"> +B1rec</text>
<text text-anchor="middle" x="1143.66" y="-483.5" font-family="Helvetica,sans-Serif" font-size="10.00">+B2rec</text>
<text text-anchor="middle" x="1143.66" y="-472.5" font-family="Helvetica,sans-Serif" font-size="10.00">+BlueClockFrameRec</text>
<text text-anchor="middle" x="1143.66" y="-461.5" font-family="Helvetica,sans-Serif" font-size="10.00">+Bluerec</text>
<text text-anchor="middle" x="1143.66" y="-450.5" font-family="Helvetica,sans-Serif" font-size="10.00">+RedClockFrameRec</text>
<text text-anchor="middle" x="1143.66" y="-439.5" font-family="Helvetica,sans-Serif" font-size="10.00">+Redrec</text>
<text text-anchor="middle" x="1143.66" y="-428.5" font-family="Helvetica,sans-Serif" font-size="10.00">+batteryrec1</text>
<text text-anchor="middle" x="1143.66" y="-417.5" font-family="Helvetica,sans-Serif" font-size="10.00">+batteryrec2</text>
<text text-anchor="middle" x="1143.66" y="-406.5" font-family="Helvetica,sans-Serif" font-size="10.00">+box_rec</text>
<text text-anchor="middle" x="1143.66" y="-395.5" font-family="Helvetica,sans-Serif" font-size="10.00">+box_rec_titlescreen</text>
<text text-anchor="middle" x="1143.66" y="-384.5" font-family="Helvetica,sans-Serif" font-size="10.00">...</text>
</g>
<!-- Node8&#45;&gt;Node4 -->
<g id="edge7" class="edge">
<title>Node8&#45;&gt;Node4</title>
<path fill="none" stroke="#404040" d="M949.51,-684.03C921.15,-678.13 878.68,-666.05 848.66,-643 820.51,-621.37 827.03,-603.73 803.66,-577 779.19,-549 749.17,-521.02 722.51,-497.93"/>
<polygon fill="none" stroke="#404040" points="722.34,-497.78 715.18,-496.91 713.24,-489.97 720.39,-490.84 722.34,-497.78"/>
<text text-anchor="middle" x="859.66" y="-607.5" font-family="Helvetica,sans-Serif" font-size="10.00"> #rec</text>
</g>
<!-- Node8&#45;&gt;Node9 -->
<g id="edge15" class="edge">
<title>Node8&#45;&gt;Node9</title>
<path fill="none" stroke="#404040" d="M1009.8,-685.57C1041.07,-680.69 1090.03,-669.22 1123.66,-643 1150.9,-621.77 1140.24,-601.41 1164.66,-577 1175.39,-566.28 1183.72,-570.46 1193.66,-559 1210.04,-540.13 1221.93,-515.17 1230.08,-493.23"/>
<polygon fill="none" stroke="#404040" points="1230.14,-493.08 1228.35,-486.09 1234.12,-481.76 1235.9,-488.74 1230.14,-493.08"/>
<text text-anchor="middle" x="1202.66" y="-618.5" font-family="Helvetica,sans-Serif" font-size="10.00"> +StandframeRec</text>
<text text-anchor="middle" x="1202.66" y="-607.5" font-family="Helvetica,sans-Serif" font-size="10.00">+frameRec</text>
<text text-anchor="middle" x="1202.66" y="-596.5" font-family="Helvetica,sans-Serif" font-size="10.00">+nemorec</text>
</g>
<!-- Node8&#45;&gt;Node13 -->
<g id="edge22" class="edge">
<title>Node8&#45;&gt;Node13</title>
<path fill="none" stroke="#404040" d="M949.26,-686.95C891.86,-682.48 770.54,-670.04 739.66,-643 716.4,-622.63 741.46,-596.75 717.66,-577 672.44,-539.46 635.33,-591.94 586.66,-559 568.61,-546.78 554.92,-527.88 544.81,-508.86"/>
<polygon fill="none" stroke="#404040" points="544.76,-508.76 538.51,-505.16 539.42,-498.01 545.67,-501.6 544.76,-508.76"/>
<text text-anchor="middle" x="769.66" y="-607.5" font-family="Helvetica,sans-Serif" font-size="10.00"> +EpanoxRec</text>
</g>
<!-- Node9&#45;&gt;Node1 -->
<g id="edge8" class="edge">
<title>Node9&#45;&gt;Node1</title>
<path fill="none" stroke="#404040" d="M1232.83,-402.26C1224.35,-378.46 1211.31,-348.2 1193.66,-325 1156.12,-275.63 1103.71,-230.97 1057.44,-196.79"/>
<polygon fill="none" stroke="#404040" points="1057.37,-196.74 1050.16,-196.43 1047.67,-189.66 1054.88,-189.97 1057.37,-196.74"/>
<text text-anchor="middle" x="1194.66" y="-288" font-family="Helvetica,sans-Serif" font-size="10.00"> +nemo</text>
</g>
<!-- Node10 -->
<g id="node10" class="node">
<title>Node10</title>
<g id="a_node10"><a xlink:title=" ">
<polygon fill="none" stroke="black" points="1470.16,-661.5 1470.16,-718.5 1505.16,-718.5 1505.16,-661.5 1470.16,-661.5"/>
<text text-anchor="middle" x="1487.66" y="-706.5" font-family="Helvetica,sans-Serif" font-size="10.00">float</text>
<polyline fill="none" stroke="black" points="1470.16,-699.5 1505.16,-699.5 "/>
<text text-anchor="middle" x="1487.66" y="-687.5" font-family="Helvetica,sans-Serif" font-size="10.00"> </text>
<polyline fill="none" stroke="black" points="1470.16,-680.5 1505.16,-680.5 "/>
<text text-anchor="middle" x="1487.66" y="-668.5" font-family="Helvetica,sans-Serif" font-size="10.00"> </text>
</a>
</g>
</g>
<!-- Node10&#45;&gt;Node1 -->
<g id="edge27" class="edge">
<title>Node10&#45;&gt;Node1</title>
<path fill="none" stroke="#404040" d="M1492.05,-661.25C1494.35,-636.29 1493.38,-600.11 1473.66,-577 1455.04,-555.17 1433.83,-577.22 1411.66,-559 1321.22,-484.65 1368.34,-412.6 1290.66,-325 1227.56,-253.83 1132.18,-201.73 1058.98,-169.22"/>
<polygon fill="none" stroke="#404040" points="1058.88,-169.17 1051.78,-170.43 1047.89,-164.36 1054.99,-163.1 1058.88,-169.17"/>
<text text-anchor="middle" x="1446.16" y="-467" font-family="Helvetica,sans-Serif" font-size="10.00"> +doorPositionX</text>
<text text-anchor="middle" x="1446.16" y="-456" font-family="Helvetica,sans-Serif" font-size="10.00">+doorPositionY</text>
<text text-anchor="middle" x="1446.16" y="-445" font-family="Helvetica,sans-Serif" font-size="10.00">+doortileX</text>
<text text-anchor="middle" x="1446.16" y="-434" font-family="Helvetica,sans-Serif" font-size="10.00">+doortileY</text>
<text text-anchor="middle" x="1446.16" y="-423" font-family="Helvetica,sans-Serif" font-size="10.00">+thick</text>
<text text-anchor="middle" x="1446.16" y="-412" font-family="Helvetica,sans-Serif" font-size="10.00">+thickness</text>
</g>
<!-- Node10&#45;&gt;Node9 -->
<g id="edge10" class="edge">
<title>Node10&#45;&gt;Node9</title>
<path fill="none" stroke="#404040" d="M1469.87,-682.52C1452.38,-675.32 1426,-662.13 1409.66,-643 1389.19,-619.02 1401.19,-603.21 1383.66,-577 1358.36,-539.16 1320.78,-503.76 1291.08,-478.86"/>
<polygon fill="none" stroke="#404040" points="1291,-478.79 1283.82,-478.05 1281.74,-471.15 1288.91,-471.88 1291,-478.79"/>
<text text-anchor="middle" x="1441.66" y="-624" font-family="Helvetica,sans-Serif" font-size="10.00"> +nemoheight</text>
<text text-anchor="middle" x="1441.66" y="-613" font-family="Helvetica,sans-Serif" font-size="10.00">+nemowidth</text>
<text text-anchor="middle" x="1441.66" y="-602" font-family="Helvetica,sans-Serif" font-size="10.00">+timesinceIdle</text>
<text text-anchor="middle" x="1441.66" y="-591" font-family="Helvetica,sans-Serif" font-size="10.00">+walkspeed</text>
</g>
<!-- Node14 -->
<g id="node14" class="node">
<title>Node14</title>
<g id="a_node14"><a xlink:href="class_endscreen.html" target="_top" xlink:title=" ">
<polygon fill="none" stroke="black" points="1489.16,-408 1489.16,-476 1552.16,-476 1552.16,-408 1489.16,-408"/>
<text text-anchor="middle" x="1520.66" y="-464" font-family="Helvetica,sans-Serif" font-size="10.00">Endscreen</text>
<polyline fill="none" stroke="black" points="1489.16,-457 1552.16,-457 "/>
<text text-anchor="middle" x="1520.66" y="-445" font-family="Helvetica,sans-Serif" font-size="10.00"> </text>
<polyline fill="none" stroke="black" points="1489.16,-438 1552.16,-438 "/>
<text text-anchor="start" x="1497.16" y="-426" font-family="Helvetica,sans-Serif" font-size="10.00">+ update()</text>
<text text-anchor="start" x="1497.16" y="-415" font-family="Helvetica,sans-Serif" font-size="10.00">+ draw()</text>
</a>
</g>
</g>
<!-- Node10&#45;&gt;Node14 -->
<g id="edge25" class="edge">
<title>Node10&#45;&gt;Node14</title>
<path fill="none" stroke="#404040" d="M1494.86,-661.39C1496.26,-655.36 1497.62,-648.99 1498.66,-643 1507.84,-590.25 1513.91,-528.97 1517.31,-488.28"/>
<polygon fill="none" stroke="#404040" points="1517.33,-488.05 1513.83,-481.75 1518.3,-476.09 1521.8,-482.4 1517.33,-488.05"/>
<text text-anchor="middle" x="1536.66" y="-607.5" font-family="Helvetica,sans-Serif" font-size="10.00"> +creditPosY</text>
</g>
<!-- Node11 -->
<g id="node11" class="node">
<title>Node11</title>
<g id="a_node11"><a xlink:title=" ">
<polygon fill="none" stroke="black" points="1219.66,-661.5 1219.66,-718.5 1269.66,-718.5 1269.66,-661.5 1219.66,-661.5"/>
<text text-anchor="middle" x="1244.66" y="-706.5" font-family="Helvetica,sans-Serif" font-size="10.00">Vector2</text>
<polyline fill="none" stroke="black" points="1219.66,-699.5 1269.66,-699.5 "/>
<text text-anchor="middle" x="1244.66" y="-687.5" font-family="Helvetica,sans-Serif" font-size="10.00"> </text>
<polyline fill="none" stroke="black" points="1219.66,-680.5 1269.66,-680.5 "/>
<text text-anchor="middle" x="1244.66" y="-668.5" font-family="Helvetica,sans-Serif" font-size="10.00"> </text>
</a>
</g>
</g>
<!-- Node11&#45;&gt;Node9 -->
<g id="edge11" class="edge">
<title>Node11&#45;&gt;Node9</title>
<path fill="none" stroke="#404040" d="M1244.66,-661.26C1244.66,-620.72 1244.66,-544.59 1244.66,-493.84"/>
<polygon fill="none" stroke="#404040" points="1244.66,-493.52 1240.66,-487.52 1244.66,-481.52 1248.66,-487.52 1244.66,-493.52"/>
<text text-anchor="middle" x="1279.66" y="-607.5" font-family="Helvetica,sans-Serif" font-size="10.00"> +NemoPosition</text>
</g>
<!-- Node12 -->
<g id="node12" class="node">
<title>Node12</title>
<g id="a_node12"><a xlink:title=" ">
<polygon fill="none" stroke="black" points="1311.16,-661.5 1311.16,-718.5 1364.16,-718.5 1364.16,-661.5 1311.16,-661.5"/>
<text text-anchor="middle" x="1337.66" y="-706.5" font-family="Helvetica,sans-Serif" font-size="10.00">direction</text>
<polyline fill="none" stroke="black" points="1311.16,-699.5 1364.16,-699.5 "/>
<text text-anchor="middle" x="1337.66" y="-687.5" font-family="Helvetica,sans-Serif" font-size="10.00"> </text>
<polyline fill="none" stroke="black" points="1311.16,-680.5 1364.16,-680.5 "/>
<text text-anchor="middle" x="1337.66" y="-668.5" font-family="Helvetica,sans-Serif" font-size="10.00"> </text>
</a>
</g>
</g>
<!-- Node12&#45;&gt;Node9 -->
<g id="edge13" class="edge">
<title>Node12&#45;&gt;Node9</title>
<path fill="none" stroke="#404040" d="M1334.52,-661.24C1331.36,-638.21 1325.53,-604.83 1315.66,-577 1305.28,-547.71 1289.38,-516.94 1275.26,-492.29"/>
<polygon fill="none" stroke="#404040" points="1275.17,-492.14 1268.69,-488.97 1269.13,-481.77 1275.6,-484.94 1275.17,-492.14"/>
<text text-anchor="middle" x="1355.66" y="-607.5" font-family="Helvetica,sans-Serif" font-size="10.00"> +Direction</text>
</g>
<!-- Node13&#45;&gt;Node1 -->
<g id="edge19" class="edge">
<title>Node13&#45;&gt;Node1</title>
<path fill="none" stroke="#404040" d="M543.96,-385.84C554.73,-364.97 569.07,-342.13 586.66,-325 661.4,-252.24 768.59,-199.2 847.84,-166.79"/>
<polygon fill="none" stroke="#404040" points="848.2,-166.64 852.27,-160.69 859.33,-162.15 855.26,-168.11 848.2,-166.64"/>
<text text-anchor="middle" x="659.16" y="-288" font-family="Helvetica,sans-Serif" font-size="10.00"> +spr</text>
</g>
<!-- Node14&#45;&gt;Node1 -->
<g id="edge24" class="edge">
<title>Node14&#45;&gt;Node1</title>
<path fill="none" stroke="#404040" d="M1512.18,-407.91C1504.86,-383.49 1492.61,-350.25 1474.66,-325 1454.59,-296.75 1445.94,-290.87 1415.66,-274 1302,-210.65 1156.87,-170.9 1059.9,-149.36"/>
<polygon fill="none" stroke="#404040" points="1059.74,-149.33 1053.02,-151.96 1048.02,-146.77 1054.73,-144.14 1059.74,-149.33"/>
<text text-anchor="middle" x="1488.16" y="-288" font-family="Helvetica,sans-Serif" font-size="10.00"> +endscreen</text>
</g>
<!-- Node15 -->
<g id="node15" class="node">
<title>Node15</title>
<g id="a_node15"><a xlink:title=" ">
<polygon fill="none" stroke="black" points="1570.66,-413.5 1570.66,-470.5 1644.66,-470.5 1644.66,-413.5 1570.66,-413.5"/>
<text text-anchor="middle" x="1607.66" y="-458.5" font-family="Helvetica,sans-Serif" font-size="10.00">GameScreen</text>
<polyline fill="none" stroke="black" points="1570.66,-451.5 1644.66,-451.5 "/>
<text text-anchor="middle" x="1607.66" y="-439.5" font-family="Helvetica,sans-Serif" font-size="10.00"> </text>
<polyline fill="none" stroke="black" points="1570.66,-432.5 1644.66,-432.5 "/>
<text text-anchor="middle" x="1607.66" y="-420.5" font-family="Helvetica,sans-Serif" font-size="10.00"> </text>
</a>
</g>
</g>
<!-- Node15&#45;&gt;Node1 -->
<g id="edge28" class="edge">
<title>Node15&#45;&gt;Node1</title>
<path fill="none" stroke="#404040" d="M1602,-413.31C1592.47,-374.58 1569.17,-305.47 1519.66,-274 1376.91,-183.23 1179.94,-149.19 1059.98,-136.49"/>
<polygon fill="none" stroke="#404040" points="1059.84,-136.47 1053.46,-139.84 1047.9,-135.25 1054.28,-131.88 1059.84,-136.47"/>
<text text-anchor="middle" x="1587.16" y="-288" font-family="Helvetica,sans-Serif" font-size="10.00"> +currentscreen</text>
</g>
<!-- Node16 -->
<g id="node16" class="node">
<title>Node16</title>
<g id="a_node16"><a xlink:title=" ">
<polygon fill="none" stroke="black" points="1663.66,-413.5 1663.66,-470.5 1731.66,-470.5 1731.66,-413.5 1663.66,-413.5"/>
<text text-anchor="middle" x="1697.66" y="-458.5" font-family="Helvetica,sans-Serif" font-size="10.00">EnemyType</text>
<polyline fill="none" stroke="black" points="1663.66,-451.5 1731.66,-451.5 "/>
<text text-anchor="middle" x="1697.66" y="-439.5" font-family="Helvetica,sans-Serif" font-size="10.00"> </text>
<polyline fill="none" stroke="black" points="1663.66,-432.5 1731.66,-432.5 "/>
<text text-anchor="middle" x="1697.66" y="-420.5" font-family="Helvetica,sans-Serif" font-size="10.00"> </text>
</a>
</g>
</g>
<!-- Node16&#45;&gt;Node1 -->
<g id="edge29" class="edge">
<title>Node16&#45;&gt;Node1</title>
<path fill="none" stroke="#404040" d="M1694.23,-413.29C1687.93,-375.21 1670.72,-307.59 1625.66,-274 1537.21,-208.06 1226.05,-161.74 1059.98,-141.09"/>
<polygon fill="none" stroke="#404040" points="1059.7,-141.05 1053.25,-144.29 1047.79,-139.59 1054.23,-136.35 1059.7,-141.05"/>
<text text-anchor="middle" x="1679.16" y="-288" font-family="Helvetica,sans-Serif" font-size="10.00"> +opponent</text>
</g>
</g>
</svg>
