<?xml version="1.0" encoding="UTF-8" standalone="no"?>
<!DOCTYPE svg PUBLIC "-//W3C//DTD SVG 1.1//EN"
 "http://www.w3.org/Graphics/SVG/1.1/DTD/svg11.dtd">
<!-- Generated by graphviz version 3.0.0 (20220226.1711)
 -->
<!-- Title: Game::Level Pages: 1 -->
<svg width="1744pt" height="727pt"
 viewBox="0.00 0.00 1744.09 727.00" xmlns="http://www.w3.org/2000/svg" xmlns:xlink="http://www.w3.org/1999/xlink">
<g id="graph0" class="graph" transform="scale(1 1) rotate(0) translate(4 723)">
<title>Game::Level</title>
<!-- Node1 -->
<g id="node1" class="node">
<title>Node1</title>
<g id="a_node1"><a xlink:title=" ">
<polygon fill="#bfbfbf" stroke="black" points="864.09,-0.5 864.09,-244.5 1052.09,-244.5 1052.09,-0.5 864.09,-0.5"/>
<text text-anchor="middle" x="958.09" y="-232.5" font-family="Helvetica,sans-Serif" font-size="10.00">Game::Level</text>
<polyline fill="none" stroke="black" points="864.09,-225.5 1052.09,-225.5 "/>
<text text-anchor="start" x="872.09" y="-213.5" font-family="Helvetica,sans-Serif" font-size="10.00">+ TitlescreenText</text>
<text text-anchor="start" x="872.09" y="-202.5" font-family="Helvetica,sans-Serif" font-size="10.00">+ spr_Battery</text>
<text text-anchor="start" x="872.09" y="-191.5" font-family="Helvetica,sans-Serif" font-size="10.00">+ teleportrecOVERWORLDtoPYRAMID</text>
<text text-anchor="start" x="872.09" y="-180.5" font-family="Helvetica,sans-Serif" font-size="10.00">+ teleportrecPYRAMIDtoOVERWORLD</text>
<text text-anchor="start" x="872.09" y="-169.5" font-family="Helvetica,sans-Serif" font-size="10.00">+ teleportrecPYRAMIDtoENDSCREEN</text>
<text text-anchor="start" x="872.09" y="-158.5" font-family="Helvetica,sans-Serif" font-size="10.00">+ t_rec_start</text>
<text text-anchor="start" x="872.09" y="-147.5" font-family="Helvetica,sans-Serif" font-size="10.00">+ t_rec_settings</text>
<text text-anchor="start" x="872.09" y="-136.5" font-family="Helvetica,sans-Serif" font-size="10.00">+ t_rec_exit_game</text>
<text text-anchor="start" x="872.09" y="-125.5" font-family="Helvetica,sans-Serif" font-size="10.00">+ t_rec_attack</text>
<text text-anchor="start" x="872.09" y="-114.5" font-family="Helvetica,sans-Serif" font-size="10.00">+ t_rec_time</text>
<text text-anchor="start" x="872.09" y="-103.5" font-family="Helvetica,sans-Serif" font-size="10.00">+ t_rec_item</text>
<text text-anchor="start" x="872.09" y="-92.5" font-family="Helvetica,sans-Serif" font-size="10.00">+ t_rec_escape</text>
<polyline fill="none" stroke="black" points="864.09,-85.5 1052.09,-85.5 "/>
<text text-anchor="start" x="872.09" y="-73.5" font-family="Helvetica,sans-Serif" font-size="10.00">+ combat()</text>
<text text-anchor="start" x="872.09" y="-62.5" font-family="Helvetica,sans-Serif" font-size="10.00">+ ScreenDraw()</text>
<text text-anchor="start" x="872.09" y="-51.5" font-family="Helvetica,sans-Serif" font-size="10.00">+ Draw()</text>
<text text-anchor="start" x="872.09" y="-40.5" font-family="Helvetica,sans-Serif" font-size="10.00">+ Teleport()</text>
<text text-anchor="start" x="872.09" y="-29.5" font-family="Helvetica,sans-Serif" font-size="10.00">+ ~Level()</text>
<text text-anchor="start" x="872.09" y="-18.5" font-family="Helvetica,sans-Serif" font-size="10.00">+ damaged()</text>
<text text-anchor="start" x="872.09" y="-7.5" font-family="Helvetica,sans-Serif" font-size="10.00">+ Draw9Slice()</text>
</a>
</g>
</g>
<!-- Node1&#45;&gt;Node1 -->
<g id="edge18" class="edge">
<title>Node1&#45;&gt;Node1</title>
<path fill="none" stroke="#404040" d="M1052.47,-147.29C1063.16,-142.65 1070.09,-134.38 1070.09,-122.5 1070.09,-115.07 1067.39,-109.06 1062.74,-104.46"/>
<polygon fill="none" stroke="#404040" points="1062.5,-104.3 1055.29,-104.35 1052.47,-97.71 1059.68,-97.66 1062.5,-104.3"/>
<text text-anchor="middle" x="1084.09" y="-120" font-family="Helvetica,sans-Serif" font-size="10.00"> +level</text>
</g>
<!-- Node2 -->
<g id="node2" class="node">
<title>Node2</title>
<g id="a_node2"><a xlink:title=" ">
<polygon fill="none" stroke="black" points="229.59,-661.5 229.59,-718.5 290.59,-718.5 290.59,-661.5 229.59,-661.5"/>
<text text-anchor="middle" x="260.09" y="-706.5" font-family="Helvetica,sans-Serif" font-size="10.00">Texture2D</text>
<polyline fill="none" stroke="black" points="229.59,-699.5 290.59,-699.5 "/>
<text text-anchor="middle" x="260.09" y="-687.5" font-family="Helvetica,sans-Serif" font-size="10.00"> </text>
<polyline fill="none" stroke="black" points="229.59,-680.5 290.59,-680.5 "/>
<text text-anchor="middle" x="260.09" y="-668.5" font-family="Helvetica,sans-Serif" font-size="10.00"> </text>
</a>
</g>
</g>
<!-- Node2&#45;&gt;Node1 -->
<g id="edge1" class="edge">
<title>Node2&#45;&gt;Node1</title>
<path fill="none" stroke="#404040" d="M229.23,-679.61C179.45,-662.6 82.96,-621.44 43.09,-548 -6.52,-456.6 -21,-395.9 43.09,-314 141.79,-187.89 632.29,-143 851.7,-129.05"/>
<polygon fill="none" stroke="#404040" points="851.88,-129.04 857.61,-124.68 863.85,-128.29 858.11,-132.66 851.88,-129.04"/>
<text text-anchor="middle" x="75.09" y="-483.5" font-family="Helvetica,sans-Serif" font-size="10.00"> +Attack</text>
<text text-anchor="middle" x="75.09" y="-472.5" font-family="Helvetica,sans-Serif" font-size="10.00">+Battlescreen</text>
<text text-anchor="middle" x="75.09" y="-461.5" font-family="Helvetica,sans-Serif" font-size="10.00">+Blue_Clock</text>
<text text-anchor="middle" x="75.09" y="-450.5" font-family="Helvetica,sans-Serif" font-size="10.00">+Box</text>
<text text-anchor="middle" x="75.09" y="-439.5" font-family="Helvetica,sans-Serif" font-size="10.00">+Box_S</text>
<text text-anchor="middle" x="75.09" y="-428.5" font-family="Helvetica,sans-Serif" font-size="10.00">+Fish</text>
<text text-anchor="middle" x="75.09" y="-417.5" font-family="Helvetica,sans-Serif" font-size="10.00">+Map</text>
<text text-anchor="middle" x="75.09" y="-406.5" font-family="Helvetica,sans-Serif" font-size="10.00">+Pausescreen</text>
<text text-anchor="middle" x="75.09" y="-395.5" font-family="Helvetica,sans-Serif" font-size="10.00">+Red_Clock</text>
<text text-anchor="middle" x="75.09" y="-384.5" font-family="Helvetica,sans-Serif" font-size="10.00">+Titlescreen</text>
<text text-anchor="middle" x="75.09" y="-373.5" font-family="Helvetica,sans-Serif" font-size="10.00">...</text>
</g>
<!-- Node9 -->
<g id="node9" class="node">
<title>Node9</title>
<g id="a_node9"><a xlink:href="class_game_1_1_nemo.html" target="_top" xlink:title=" ">
<polygon fill="none" stroke="black" points="1216.09,-391.5 1216.09,-470.5 1290.09,-470.5 1290.09,-391.5 1216.09,-391.5"/>
<text text-anchor="middle" x="1253.09" y="-458.5" font-family="Helvetica,sans-Serif" font-size="10.00">Game::Nemo</text>
<polyline fill="none" stroke="black" points="1216.09,-451.5 1290.09,-451.5 "/>
<text text-anchor="middle" x="1253.09" y="-439.5" font-family="Helvetica,sans-Serif" font-size="10.00"> </text>
<polyline fill="none" stroke="black" points="1216.09,-432.5 1290.09,-432.5 "/>
<text text-anchor="start" x="1224.09" y="-420.5" font-family="Helvetica,sans-Serif" font-size="10.00">+ Update()</text>
<text text-anchor="start" x="1224.09" y="-409.5" font-family="Helvetica,sans-Serif" font-size="10.00">+ Draw()</text>
<text text-anchor="start" x="1224.09" y="-398.5" font-family="Helvetica,sans-Serif" font-size="10.00">+ ~Nemo()</text>
</a>
</g>
</g>
<!-- Node2&#45;&gt;Node9 -->
<g id="edge14" class="edge">
<title>Node2&#45;&gt;Node9</title>
<path fill="none" stroke="#404040" d="M290.8,-682.28C322.51,-675.65 373.5,-665.82 418.09,-661 443.08,-658.3 850.62,-658.89 870.09,-643 897.41,-620.72 861.98,-588.52 889.09,-566 942.69,-521.48 1144.87,-587.74 1202.09,-548 1223.81,-532.92 1236.38,-506.43 1243.6,-482.57"/>
<polygon fill="none" stroke="#404040" points="1243.66,-482.34 1241.38,-475.5 1246.82,-470.76 1249.1,-477.61 1243.66,-482.34"/>
<text text-anchor="middle" x="905.09" y="-624" font-family="Helvetica,sans-Serif" font-size="10.00"> +Back</text>
<text text-anchor="middle" x="905.09" y="-613" font-family="Helvetica,sans-Serif" font-size="10.00">+Front</text>
<text text-anchor="middle" x="905.09" y="-602" font-family="Helvetica,sans-Serif" font-size="10.00">+Left</text>
<text text-anchor="middle" x="905.09" y="-591" font-family="Helvetica,sans-Serif" font-size="10.00">+Right</text>
<text text-anchor="middle" x="905.09" y="-580" font-family="Helvetica,sans-Serif" font-size="10.00">+Stand</text>
</g>
<!-- Node13 -->
<g id="node13" class="node">
<title>Node13</title>
<g id="a_node13"><a xlink:href="class_game_1_1_sprite.html" target="_top" xlink:title=" ">
<polygon fill="none" stroke="black" points="477.09,-375 477.09,-487 563.09,-487 563.09,-375 477.09,-375"/>
<text text-anchor="middle" x="520.09" y="-475" font-family="Helvetica,sans-Serif" font-size="10.00">Game::Sprite</text>
<polyline fill="none" stroke="black" points="477.09,-468 563.09,-468 "/>
<text text-anchor="middle" x="520.09" y="-456" font-family="Helvetica,sans-Serif" font-size="10.00"> </text>
<polyline fill="none" stroke="black" points="477.09,-449 563.09,-449 "/>
<text text-anchor="start" x="485.09" y="-437" font-family="Helvetica,sans-Serif" font-size="10.00">+ EpanoxDraw()</text>
<text text-anchor="start" x="485.09" y="-426" font-family="Helvetica,sans-Serif" font-size="10.00">+ Sprite()</text>
<text text-anchor="start" x="485.09" y="-415" font-family="Helvetica,sans-Serif" font-size="10.00">+ Sprite()</text>
<text text-anchor="start" x="485.09" y="-404" font-family="Helvetica,sans-Serif" font-size="10.00">+ Sprite()</text>
<text text-anchor="start" x="485.09" y="-393" font-family="Helvetica,sans-Serif" font-size="10.00">+ Sprite()</text>
<text text-anchor="start" x="485.09" y="-382" font-family="Helvetica,sans-Serif" font-size="10.00">+ ~Sprite()</text>
</a>
</g>
</g>
<!-- Node2&#45;&gt;Node13 -->
<g id="edge21" class="edge">
<title>Node2&#45;&gt;Node13</title>
<path fill="none" stroke="#404040" d="M258.65,-661.4C258.82,-632.95 263.97,-589.51 291.09,-566 349.18,-515.66 400.06,-591.98 463.09,-548 480.32,-535.98 492.57,-517.24 501.18,-498.29"/>
<polygon fill="none" stroke="#404040" points="501.21,-498.24 499.84,-491.16 505.84,-487.17 507.21,-494.25 501.21,-498.24"/>
<text text-anchor="middle" x="319.59" y="-607.5" font-family="Helvetica,sans-Serif" font-size="10.00"> +EpanoxStil</text>
<text text-anchor="middle" x="319.59" y="-596.5" font-family="Helvetica,sans-Serif" font-size="10.00">+texture_</text>
</g>
<!-- Node3 -->
<g id="node3" class="node">
<title>Node3</title>
<g id="a_node3"><a xlink:title=" ">
<polygon fill="none" stroke="black" points="116.09,-402.5 116.09,-459.5 296.09,-459.5 296.09,-402.5 116.09,-402.5"/>
<text text-anchor="middle" x="206.09" y="-447.5" font-family="Helvetica,sans-Serif" font-size="10.00">unique_ptr&lt; Game::GameCharacter &gt;</text>
<polyline fill="none" stroke="black" points="116.09,-440.5 296.09,-440.5 "/>
<text text-anchor="middle" x="206.09" y="-428.5" font-family="Helvetica,sans-Serif" font-size="10.00"> </text>
<polyline fill="none" stroke="black" points="116.09,-421.5 296.09,-421.5 "/>
<text text-anchor="middle" x="206.09" y="-409.5" font-family="Helvetica,sans-Serif" font-size="10.00"> </text>
</a>
</g>
</g>
<!-- Node3&#45;&gt;Node1 -->
<g id="edge2" class="edge">
<title>Node3&#45;&gt;Node1</title>
<path fill="none" stroke="#404040" d="M210.68,-402.47C218.46,-364.92 237.9,-298.27 282.09,-263 368.88,-193.73 684.31,-151.64 851.84,-133.69"/>
<polygon fill="none" stroke="#404040" points="851.95,-133.67 857.5,-129.06 863.88,-132.41 858.34,-137.02 851.95,-133.67"/>
<text text-anchor="middle" x="300.09" y="-277" font-family="Helvetica,sans-Serif" font-size="10.00"> +player</text>
</g>
<!-- Node4 -->
<g id="node4" class="node">
<title>Node4</title>
<g id="a_node4"><a xlink:href="class_game_1_1_game_character.html" target="_top" xlink:title=" ">
<polygon fill="none" stroke="black" points="595.59,-314.5 595.59,-547.5 712.59,-547.5 712.59,-314.5 595.59,-314.5"/>
<text text-anchor="middle" x="654.09" y="-535.5" font-family="Helvetica,sans-Serif" font-size="10.00">Game::GameCharacter</text>
<polyline fill="none" stroke="black" points="595.59,-528.5 712.59,-528.5 "/>
<text text-anchor="middle" x="654.09" y="-516.5" font-family="Helvetica,sans-Serif" font-size="10.00"> </text>
<polyline fill="none" stroke="black" points="595.59,-509.5 712.59,-509.5 "/>
<text text-anchor="start" x="603.59" y="-497.5" font-family="Helvetica,sans-Serif" font-size="10.00">+ GameCharacter()</text>
<text text-anchor="start" x="603.59" y="-486.5" font-family="Helvetica,sans-Serif" font-size="10.00">+ get_Name()</text>
<text text-anchor="start" x="603.59" y="-475.5" font-family="Helvetica,sans-Serif" font-size="10.00">+ attack()</text>
<text text-anchor="start" x="603.59" y="-464.5" font-family="Helvetica,sans-Serif" font-size="10.00">+ getDamage()</text>
<text text-anchor="start" x="603.59" y="-453.5" font-family="Helvetica,sans-Serif" font-size="10.00">+ updateCharacter()</text>
<text text-anchor="start" x="603.59" y="-442.5" font-family="Helvetica,sans-Serif" font-size="10.00">+ getLives()</text>
<text text-anchor="start" x="603.59" y="-431.5" font-family="Helvetica,sans-Serif" font-size="10.00">+ getArmor()</text>
<text text-anchor="start" x="603.59" y="-420.5" font-family="Helvetica,sans-Serif" font-size="10.00">+ getStrength()</text>
<text text-anchor="start" x="603.59" y="-409.5" font-family="Helvetica,sans-Serif" font-size="10.00">+ getDefense()</text>
<text text-anchor="start" x="603.59" y="-398.5" font-family="Helvetica,sans-Serif" font-size="10.00">+ get_rec()</text>
<text text-anchor="start" x="603.59" y="-387.5" font-family="Helvetica,sans-Serif" font-size="10.00">+ set_rec()</text>
<text text-anchor="start" x="603.59" y="-376.5" font-family="Helvetica,sans-Serif" font-size="10.00">+ heal()</text>
<text text-anchor="start" x="603.59" y="-365.5" font-family="Helvetica,sans-Serif" font-size="10.00">+ get_turnnumb()</text>
<text text-anchor="start" x="603.59" y="-354.5" font-family="Helvetica,sans-Serif" font-size="10.00">+ set_turnnumb()</text>
<text text-anchor="start" x="603.59" y="-343.5" font-family="Helvetica,sans-Serif" font-size="10.00">+ draw()</text>
<text text-anchor="start" x="603.59" y="-332.5" font-family="Helvetica,sans-Serif" font-size="10.00">+ ~GameCharacter()</text>
<text text-anchor="start" x="603.59" y="-321.5" font-family="Helvetica,sans-Serif" font-size="10.00"># getDamageNumber()</text>
</a>
</g>
</g>
<!-- Node4&#45;&gt;Node1 -->
<g id="edge3" class="edge">
<title>Node4&#45;&gt;Node1</title>
<path fill="none" stroke="#404040" d="M712.8,-322.45C726.58,-301.6 742.22,-280.74 759.09,-263 786.76,-233.91 821.36,-207.17 853.91,-185.05"/>
<polygon fill="none" stroke="#404040" points="853.96,-185.02 856.72,-178.36 863.93,-178.34 861.17,-185 853.96,-185.02"/>
<text text-anchor="middle" x="779.59" y="-288" font-family="Helvetica,sans-Serif" font-size="10.00"> +enemy</text>
<text text-anchor="middle" x="779.59" y="-277" font-family="Helvetica,sans-Serif" font-size="10.00">+pharaoh</text>
<text text-anchor="middle" x="779.59" y="-266" font-family="Helvetica,sans-Serif" font-size="10.00">+shadow</text>
</g>
<!-- Node5 -->
<g id="node5" class="node">
<title>Node5</title>
<g id="a_node5"><a xlink:title=" ">
<polygon fill="none" stroke="black" points="427.59,-661.5 427.59,-718.5 462.59,-718.5 462.59,-661.5 427.59,-661.5"/>
<text text-anchor="middle" x="445.09" y="-706.5" font-family="Helvetica,sans-Serif" font-size="10.00">bool</text>
<polyline fill="none" stroke="black" points="427.59,-699.5 462.59,-699.5 "/>
<text text-anchor="middle" x="445.09" y="-687.5" font-family="Helvetica,sans-Serif" font-size="10.00"> </text>
<polyline fill="none" stroke="black" points="427.59,-680.5 462.59,-680.5 "/>
<text text-anchor="middle" x="445.09" y="-668.5" font-family="Helvetica,sans-Serif" font-size="10.00"> </text>
</a>
</g>
</g>
<!-- Node5&#45;&gt;Node1 -->
<g id="edge26" class="edge">
<title>Node5&#45;&gt;Node1</title>
<path fill="none" stroke="#404040" d="M427.26,-686.1C404.65,-681.39 366.43,-669.75 348.09,-643 309.31,-586.41 287.53,-386.59 341.09,-314 402.07,-231.36 691.83,-169.43 851.64,-140.9"/>
<polygon fill="none" stroke="#404040" points="852.05,-140.82 857.26,-135.84 863.86,-138.73 858.65,-143.72 852.05,-140.82"/>
<text text-anchor="middle" x="404.59" y="-483.5" font-family="Helvetica,sans-Serif" font-size="10.00"> +T_damaged</text>
<text text-anchor="middle" x="404.59" y="-472.5" font-family="Helvetica,sans-Serif" font-size="10.00">+e_damaged</text>
<text text-anchor="middle" x="404.59" y="-461.5" font-family="Helvetica,sans-Serif" font-size="10.00">+input</text>
<text text-anchor="middle" x="404.59" y="-450.5" font-family="Helvetica,sans-Serif" font-size="10.00">+p_damaged</text>
<text text-anchor="start" x="341.09" y="-439.5" font-family="Helvetica,sans-Serif" font-size="10.00">+teleportcollision</text>
<text text-anchor="middle" x="404.59" y="-428.5" font-family="Helvetica,sans-Serif" font-size="10.00">OVERWORLDtoPYRAMID</text>
<text text-anchor="start" x="341.09" y="-417.5" font-family="Helvetica,sans-Serif" font-size="10.00">+teleportcollisionPYRAMIDto</text>
<text text-anchor="middle" x="404.59" y="-406.5" font-family="Helvetica,sans-Serif" font-size="10.00">ENDSCREEN</text>
<text text-anchor="start" x="341.09" y="-395.5" font-family="Helvetica,sans-Serif" font-size="10.00">+teleportcollisionPYRAMIDto</text>
<text text-anchor="middle" x="404.59" y="-384.5" font-family="Helvetica,sans-Serif" font-size="10.00">OVERWORLD</text>
<text text-anchor="middle" x="404.59" y="-373.5" font-family="Helvetica,sans-Serif" font-size="10.00">+timer</text>
</g>
<!-- Node5&#45;&gt;Node4 -->
<g id="edge4" class="edge">
<title>Node5&#45;&gt;Node4</title>
<path fill="none" stroke="#404040" d="M462.62,-678.48C475.4,-670.12 492.44,-657.46 504.09,-643 527.92,-613.44 515.32,-593.88 541.09,-566 551.91,-554.3 560.34,-558.75 572.09,-548 577.34,-543.2 582.45,-538.01 587.37,-532.58"/>
<polygon fill="none" stroke="#404040" points="587.62,-532.3 588.54,-525.15 595.5,-523.24 594.58,-530.4 587.62,-532.3"/>
<text text-anchor="middle" x="565.59" y="-602" font-family="Helvetica,sans-Serif" font-size="10.00"> +damaged</text>
</g>
<!-- Node5&#45;&gt;Node9 -->
<g id="edge12" class="edge">
<title>Node5&#45;&gt;Node9</title>
<path fill="none" stroke="#404040" d="M462.84,-683.94C486.59,-677.4 530.13,-666.24 568.09,-661 607.44,-655.57 894.45,-668.27 925.09,-643 952.29,-620.57 917.12,-588.69 944.09,-566 988.08,-529.01 1155.09,-581.07 1202.09,-548 1223.72,-532.78 1236.28,-506.29 1243.52,-482.45"/>
<polygon fill="none" stroke="#404040" points="1243.58,-482.24 1241.31,-475.4 1246.75,-470.67 1249.02,-477.51 1243.58,-482.24"/>
<text text-anchor="middle" x="961.09" y="-613" font-family="Helvetica,sans-Serif" font-size="10.00"> +active</text>
<text text-anchor="middle" x="961.09" y="-602" font-family="Helvetica,sans-Serif" font-size="10.00">+alive</text>
<text text-anchor="middle" x="961.09" y="-591" font-family="Helvetica,sans-Serif" font-size="10.00">+sound</text>
</g>
<!-- Node5&#45;&gt;Node13 -->
<g id="edge23" class="edge">
<title>Node5&#45;&gt;Node13</title>
<path fill="none" stroke="#404040" d="M427.54,-684.41C408.54,-678.4 379.22,-665.84 366.09,-643 349.04,-613.33 344.21,-592.31 366.09,-566 394.13,-532.29 428.16,-574.49 463.09,-548 479.61,-535.48 491.62,-516.89 500.24,-498.25"/>
<polygon fill="none" stroke="#404040" points="500.33,-498.04 499.01,-490.95 505.05,-487 506.37,-494.09 500.33,-498.04"/>
<text text-anchor="middle" x="405.59" y="-602" font-family="Helvetica,sans-Serif" font-size="10.00"> +EpanoxCollision</text>
</g>
<!-- Node6 -->
<g id="node6" class="node">
<title>Node6</title>
<g id="a_node6"><a xlink:title=" ">
<polygon fill="none" stroke="black" points="704.59,-661.5 704.59,-718.5 733.59,-718.5 733.59,-661.5 704.59,-661.5"/>
<text text-anchor="middle" x="719.09" y="-706.5" font-family="Helvetica,sans-Serif" font-size="10.00">int</text>
<polyline fill="none" stroke="black" points="704.59,-699.5 733.59,-699.5 "/>
<text text-anchor="middle" x="719.09" y="-687.5" font-family="Helvetica,sans-Serif" font-size="10.00"> </text>
<polyline fill="none" stroke="black" points="704.59,-680.5 733.59,-680.5 "/>
<text text-anchor="middle" x="719.09" y="-668.5" font-family="Helvetica,sans-Serif" font-size="10.00"> </text>
</a>
</g>
</g>
<!-- Node6&#45;&gt;Node1 -->
<g id="edge16" class="edge">
<title>Node6&#45;&gt;Node1</title>
<path fill="none" stroke="#404040" d="M733.6,-684.52C751.77,-678.17 782.62,-664.85 800.09,-643 806.37,-635.16 874.32,-407.5 919.04,-256.19"/>
<polygon fill="none" stroke="#404040" points="919.09,-256.03 916.95,-249.14 922.49,-244.52 924.62,-251.41 919.09,-256.03"/>
<text text-anchor="middle" x="940.59" y="-483.5" font-family="Helvetica,sans-Serif" font-size="10.00"> +b1_c_frame</text>
<text text-anchor="middle" x="940.59" y="-472.5" font-family="Helvetica,sans-Serif" font-size="10.00">+b2_c_frame</text>
<text text-anchor="middle" x="940.59" y="-461.5" font-family="Helvetica,sans-Serif" font-size="10.00">+b_currentFrame</text>
<text text-anchor="middle" x="940.59" y="-450.5" font-family="Helvetica,sans-Serif" font-size="10.00">+e_framescounter</text>
<text text-anchor="middle" x="940.59" y="-439.5" font-family="Helvetica,sans-Serif" font-size="10.00">+energy</text>
<text text-anchor="middle" x="940.59" y="-428.5" font-family="Helvetica,sans-Serif" font-size="10.00">+framescounter</text>
<text text-anchor="middle" x="940.59" y="-417.5" font-family="Helvetica,sans-Serif" font-size="10.00">+h_amount</text>
<text text-anchor="middle" x="940.59" y="-406.5" font-family="Helvetica,sans-Serif" font-size="10.00">+p_framescounter</text>
<text text-anchor="middle" x="940.59" y="-395.5" font-family="Helvetica,sans-Serif" font-size="10.00">+r_currentFrame</text>
<text text-anchor="middle" x="940.59" y="-384.5" font-family="Helvetica,sans-Serif" font-size="10.00">+t_framescounter</text>
<text text-anchor="middle" x="940.59" y="-373.5" font-family="Helvetica,sans-Serif" font-size="10.00">...</text>
</g>
<!-- Node6&#45;&gt;Node4 -->
<g id="edge5" class="edge">
<title>Node6&#45;&gt;Node4</title>
<path fill="none" stroke="#404040" d="M704.51,-683.3C689.04,-676.38 665.44,-663.07 655.09,-643 642.05,-617.72 636.83,-588.36 635.89,-559.72"/>
<polygon fill="none" stroke="#404040" points="635.89,-559.5 631.81,-553.56 635.73,-547.51 639.81,-553.46 635.89,-559.5"/>
<text text-anchor="middle" x="686.09" y="-629.5" font-family="Helvetica,sans-Serif" font-size="10.00"> #c_DEF</text>
<text text-anchor="middle" x="686.09" y="-618.5" font-family="Helvetica,sans-Serif" font-size="10.00">#c_HP</text>
<text text-anchor="middle" x="686.09" y="-607.5" font-family="Helvetica,sans-Serif" font-size="10.00">#c_MaxHP</text>
<text text-anchor="middle" x="686.09" y="-596.5" font-family="Helvetica,sans-Serif" font-size="10.00">#c_STR</text>
<text text-anchor="middle" x="686.09" y="-585.5" font-family="Helvetica,sans-Serif" font-size="10.00">#c_timeattack</text>
<text text-anchor="middle" x="686.09" y="-574.5" font-family="Helvetica,sans-Serif" font-size="10.00">#turnnumb</text>
</g>
<!-- Node6&#45;&gt;Node9 -->
<g id="edge9" class="edge">
<title>Node6&#45;&gt;Node9</title>
<path fill="none" stroke="#404040" d="M733.69,-688.07C782.79,-684.68 941.22,-671.71 982.09,-643 1014.35,-620.34 993.05,-587.49 1026.09,-566 1092,-523.12 1138.52,-594.28 1202.09,-548 1223.39,-532.49 1235.93,-506.11 1243.23,-482.41"/>
<polygon fill="none" stroke="#404040" points="1243.28,-482.26 1241.04,-475.4 1246.51,-470.7 1248.74,-477.56 1243.28,-482.26"/>
<text text-anchor="middle" x="1076.09" y="-635" font-family="Helvetica,sans-Serif" font-size="10.00"> +HP</text>
<text text-anchor="middle" x="1076.09" y="-624" font-family="Helvetica,sans-Serif" font-size="10.00">+Stand_currentFrame</text>
<text text-anchor="middle" x="1076.09" y="-613" font-family="Helvetica,sans-Serif" font-size="10.00">+Stand_framesCounter</text>
<text text-anchor="middle" x="1076.09" y="-602" font-family="Helvetica,sans-Serif" font-size="10.00">+Stand_framesSpeed</text>
<text text-anchor="middle" x="1076.09" y="-591" font-family="Helvetica,sans-Serif" font-size="10.00">+currentFrame</text>
<text text-anchor="middle" x="1076.09" y="-580" font-family="Helvetica,sans-Serif" font-size="10.00">+framesCounter</text>
<text text-anchor="middle" x="1076.09" y="-569" font-family="Helvetica,sans-Serif" font-size="10.00">+framesSpeed</text>
</g>
<!-- Node6&#45;&gt;Node13 -->
<g id="edge20" class="edge">
<title>Node6&#45;&gt;Node13</title>
<path fill="none" stroke="#404040" d="M704.33,-683.59C686.34,-677.21 654.89,-666.75 627.09,-661 592.27,-653.79 491.78,-669.52 468.09,-643 445.3,-617.48 461.8,-599.64 468.09,-566 472.36,-543.23 480.36,-519.36 488.84,-498.18"/>
<polygon fill="none" stroke="#404040" points="488.86,-498.13 487.45,-491.06 493.44,-487.04 494.85,-494.11 488.86,-498.13"/>
<text text-anchor="middle" x="486.09" y="-607.5" font-family="Helvetica,sans-Serif" font-size="10.00"> +pos_x</text>
<text text-anchor="middle" x="486.09" y="-596.5" font-family="Helvetica,sans-Serif" font-size="10.00">+pos_y</text>
</g>
<!-- Node7 -->
<g id="node7" class="node">
<title>Node7</title>
<g id="a_node7"><a xlink:title=" ">
<polygon fill="none" stroke="black" points="577.59,-661.5 577.59,-718.5 618.59,-718.5 618.59,-661.5 577.59,-661.5"/>
<text text-anchor="middle" x="598.09" y="-706.5" font-family="Helvetica,sans-Serif" font-size="10.00">string</text>
<polyline fill="none" stroke="black" points="577.59,-699.5 618.59,-699.5 "/>
<text text-anchor="middle" x="598.09" y="-687.5" font-family="Helvetica,sans-Serif" font-size="10.00"> </text>
<polyline fill="none" stroke="black" points="577.59,-680.5 618.59,-680.5 "/>
<text text-anchor="middle" x="598.09" y="-668.5" font-family="Helvetica,sans-Serif" font-size="10.00"> </text>
</a>
</g>
</g>
<!-- Node7&#45;&gt;Node4 -->
<g id="edge6" class="edge">
<title>Node7&#45;&gt;Node4</title>
<path fill="none" stroke="#404040" d="M595.35,-661.33C593.56,-636.2 592.6,-598.24 599.09,-566 599.53,-563.83 600,-561.65 600.51,-559.46"/>
<polygon fill="none" stroke="#404040" points="600.53,-559.36 598.14,-552.56 603.49,-547.74 605.89,-554.54 600.53,-559.36"/>
<text text-anchor="middle" x="615.59" y="-602" font-family="Helvetica,sans-Serif" font-size="10.00"> #name</text>
</g>
<!-- Node8 -->
<g id="node8" class="node">
<title>Node8</title>
<g id="a_node8"><a xlink:title=" ">
<polygon fill="none" stroke="black" points="953.09,-661.5 953.09,-718.5 1013.09,-718.5 1013.09,-661.5 953.09,-661.5"/>
<text text-anchor="middle" x="983.09" y="-706.5" font-family="Helvetica,sans-Serif" font-size="10.00">Rectangle</text>
<polyline fill="none" stroke="black" points="953.09,-699.5 1013.09,-699.5 "/>
<text text-anchor="middle" x="983.09" y="-687.5" font-family="Helvetica,sans-Serif" font-size="10.00"> </text>
<polyline fill="none" stroke="black" points="953.09,-680.5 1013.09,-680.5 "/>
<text text-anchor="middle" x="983.09" y="-668.5" font-family="Helvetica,sans-Serif" font-size="10.00"> </text>
</a>
</g>
</g>
<!-- Node8&#45;&gt;Node1 -->
<g id="edge17" class="edge">
<title>Node8&#45;&gt;Node1</title>
<path fill="none" stroke="#404040" d="M1013.28,-686.98C1042.25,-683.24 1084.56,-672.69 1105.09,-643 1124.56,-614.85 1110.56,-599.78 1105.09,-566 1087.76,-458.82 1048.24,-342.49 1014.54,-256.01"/>
<polygon fill="none" stroke="#404040" points="1014.53,-255.99 1008.61,-251.86 1010.14,-244.82 1016.06,-248.94 1014.53,-255.99"/>
<text text-anchor="middle" x="1150.09" y="-483.5" font-family="Helvetica,sans-Serif" font-size="10.00"> +B1rec</text>
<text text-anchor="middle" x="1150.09" y="-472.5" font-family="Helvetica,sans-Serif" font-size="10.00">+B2rec</text>
<text text-anchor="middle" x="1150.09" y="-461.5" font-family="Helvetica,sans-Serif" font-size="10.00">+BlueClockFrameRec</text>
<text text-anchor="middle" x="1150.09" y="-450.5" font-family="Helvetica,sans-Serif" font-size="10.00">+Bluerec</text>
<text text-anchor="middle" x="1150.09" y="-439.5" font-family="Helvetica,sans-Serif" font-size="10.00">+RedClockFrameRec</text>
<text text-anchor="middle" x="1150.09" y="-428.5" font-family="Helvetica,sans-Serif" font-size="10.00">+Redrec</text>
<text text-anchor="middle" x="1150.09" y="-417.5" font-family="Helvetica,sans-Serif" font-size="10.00">+batteryrec1</text>
<text text-anchor="middle" x="1150.09" y="-406.5" font-family="Helvetica,sans-Serif" font-size="10.00">+batteryrec2</text>
<text text-anchor="middle" x="1150.09" y="-395.5" font-family="Helvetica,sans-Serif" font-size="10.00">+box_rec</text>
<text text-anchor="middle" x="1150.09" y="-384.5" font-family="Helvetica,sans-Serif" font-size="10.00">+box_rec_titlescreen</text>
<text text-anchor="middle" x="1150.09" y="-373.5" font-family="Helvetica,sans-Serif" font-size="10.00">...</text>
</g>
<!-- Node8&#45;&gt;Node4 -->
<g id="edge7" class="edge">
<title>Node8&#45;&gt;Node4</title>
<path fill="none" stroke="#404040" d="M953.04,-684.97C923.55,-679.7 878.67,-667.99 848.09,-643 817.4,-617.92 828.13,-596.73 803.09,-566 779.41,-536.93 749.25,-508.58 722.27,-485.5"/>
<polygon fill="none" stroke="#404040" points="722.05,-485.31 714.88,-484.49 712.88,-477.57 720.04,-478.38 722.05,-485.31"/>
<text text-anchor="middle" x="859.09" y="-602" font-family="Helvetica,sans-Serif" font-size="10.00"> #rec</text>
</g>
<!-- Node8&#45;&gt;Node9 -->
<g id="edge15" class="edge">
<title>Node8&#45;&gt;Node9</title>
<path fill="none" stroke="#404040" d="M1013.32,-686.29C1045.5,-682 1096.34,-671 1130.09,-643 1159.94,-618.25 1144.19,-593.91 1171.09,-566 1182.15,-554.53 1191.48,-559.88 1202.09,-548 1218.81,-529.3 1230.75,-504.25 1238.86,-482.21"/>
<polygon fill="none" stroke="#404040" points="1238.93,-482.02 1237.11,-475.04 1242.86,-470.68 1244.67,-477.66 1238.93,-482.02"/>
<text text-anchor="middle" x="1210.09" y="-618.5" font-family="Helvetica,sans-Serif" font-size="10.00"> +Stand_nemorec</text>
<text text-anchor="middle" x="1210.09" y="-607.5" font-family="Helvetica,sans-Serif" font-size="10.00">+StandframeRec</text>
<text text-anchor="middle" x="1210.09" y="-596.5" font-family="Helvetica,sans-Serif" font-size="10.00">+frameRec</text>
<text text-anchor="middle" x="1210.09" y="-585.5" font-family="Helvetica,sans-Serif" font-size="10.00">+nemorec</text>
</g>
<!-- Node8&#45;&gt;Node13 -->
<g id="edge22" class="edge">
<title>Node8&#45;&gt;Node13</title>
<path fill="none" stroke="#404040" d="M952.98,-687.2C894.82,-683.13 770.07,-671.25 739.09,-643 712.8,-619.02 743.98,-589.32 717.09,-566 672.7,-527.49 634.76,-580.94 586.09,-548 568.04,-535.78 554.35,-516.88 544.24,-497.86"/>
<polygon fill="none" stroke="#404040" points="544.19,-497.76 537.94,-494.16 538.85,-487.01 545.1,-490.6 544.19,-497.76"/>
<text text-anchor="middle" x="769.09" y="-602" font-family="Helvetica,sans-Serif" font-size="10.00"> +EpanoxRec</text>
</g>
<!-- Node9&#45;&gt;Node1 -->
<g id="edge8" class="edge">
<title>Node9&#45;&gt;Node1</title>
<path fill="none" stroke="#404040" d="M1241.53,-391.39C1233.12,-367.5 1220.06,-337.1 1202.09,-314 1163.66,-264.59 1109.7,-220.71 1062.29,-187.56"/>
<polygon fill="none" stroke="#404040" points="1062.15,-187.46 1054.94,-187.35 1052.28,-180.65 1059.49,-180.76 1062.15,-187.46"/>
<text text-anchor="middle" x="1203.09" y="-277" font-family="Helvetica,sans-Serif" font-size="10.00"> +nemo</text>
</g>
<!-- Node10 -->
<g id="node10" class="node">
<title>Node10</title>
<g id="a_node10"><a xlink:title=" ">
<polygon fill="none" stroke="black" points="1474.59,-661.5 1474.59,-718.5 1509.59,-718.5 1509.59,-661.5 1474.59,-661.5"/>
<text text-anchor="middle" x="1492.09" y="-706.5" font-family="Helvetica,sans-Serif" font-size="10.00">float</text>
<polyline fill="none" stroke="black" points="1474.59,-699.5 1509.59,-699.5 "/>
<text text-anchor="middle" x="1492.09" y="-687.5" font-family="Helvetica,sans-Serif" font-size="10.00"> </text>
<polyline fill="none" stroke="black" points="1474.59,-680.5 1509.59,-680.5 "/>
<text text-anchor="middle" x="1492.09" y="-668.5" font-family="Helvetica,sans-Serif" font-size="10.00"> </text>
</a>
</g>
</g>
<!-- Node10&#45;&gt;Node1 -->
<g id="edge27" class="edge">
<title>Node10&#45;&gt;Node1</title>
<path fill="none" stroke="#404040" d="M1496.99,-661.43C1500.19,-634.02 1500.34,-592.37 1478.09,-566 1459.59,-544.07 1438.13,-566.37 1416.09,-548 1326.78,-473.55 1375.64,-401.52 1299.09,-314 1235.82,-241.66 1138.09,-191.03 1063.45,-160.24"/>
<polygon fill="none" stroke="#404040" points="1063.27,-160.17 1056.2,-161.62 1052.15,-155.66 1059.21,-154.21 1063.27,-160.17"/>
<text text-anchor="middle" x="1450.59" y="-456" font-family="Helvetica,sans-Serif" font-size="10.00"> +doorPositionX</text>
<text text-anchor="middle" x="1450.59" y="-445" font-family="Helvetica,sans-Serif" font-size="10.00">+doorPositionY</text>
<text text-anchor="middle" x="1450.59" y="-434" font-family="Helvetica,sans-Serif" font-size="10.00">+doortileX</text>
<text text-anchor="middle" x="1450.59" y="-423" font-family="Helvetica,sans-Serif" font-size="10.00">+doortileY</text>
<text text-anchor="middle" x="1450.59" y="-412" font-family="Helvetica,sans-Serif" font-size="10.00">+thick</text>
<text text-anchor="middle" x="1450.59" y="-401" font-family="Helvetica,sans-Serif" font-size="10.00">+thickness</text>
</g>
<!-- Node10&#45;&gt;Node9 -->
<g id="edge10" class="edge">
<title>Node10&#45;&gt;Node9</title>
<path fill="none" stroke="#404040" d="M1474.39,-682.17C1457.65,-674.86 1432.94,-661.73 1418.09,-643 1395.66,-614.69 1411.42,-596.51 1392.09,-566 1367.65,-527.42 1329.85,-491.95 1299.84,-467.2"/>
<polygon fill="none" stroke="#404040" points="1299.72,-467.11 1292.54,-466.44 1290.39,-459.56 1297.57,-460.22 1299.72,-467.11"/>
<text text-anchor="middle" x="1448.09" y="-613" font-family="Helvetica,sans-Serif" font-size="10.00"> +nemoheight</text>
<text text-anchor="middle" x="1448.09" y="-602" font-family="Helvetica,sans-Serif" font-size="10.00">+nemowidth</text>
<text text-anchor="middle" x="1448.09" y="-591" font-family="Helvetica,sans-Serif" font-size="10.00">+walkspeed</text>
</g>
<!-- Node14 -->
<g id="node14" class="node">
<title>Node14</title>
<g id="a_node14"><a xlink:href="class_endscreen.html" target="_top" xlink:title=" ">
<polygon fill="none" stroke="black" points="1493.59,-397 1493.59,-465 1556.59,-465 1556.59,-397 1493.59,-397"/>
<text text-anchor="middle" x="1525.09" y="-453" font-family="Helvetica,sans-Serif" font-size="10.00">Endscreen</text>
<polyline fill="none" stroke="black" points="1493.59,-446 1556.59,-446 "/>
<text text-anchor="middle" x="1525.09" y="-434" font-family="Helvetica,sans-Serif" font-size="10.00"> </text>
<polyline fill="none" stroke="black" points="1493.59,-427 1556.59,-427 "/>
<text text-anchor="start" x="1501.59" y="-415" font-family="Helvetica,sans-Serif" font-size="10.00">+ update()</text>
<text text-anchor="start" x="1501.59" y="-404" font-family="Helvetica,sans-Serif" font-size="10.00">+ draw()</text>
</a>
</g>
</g>
<!-- Node10&#45;&gt;Node14 -->
<g id="edge25" class="edge">
<title>Node10&#45;&gt;Node14</title>
<path fill="none" stroke="#404040" d="M1499.32,-661.39C1500.72,-655.36 1502.07,-648.99 1503.09,-643 1512.81,-586.17 1518.87,-519.94 1522.11,-477.06"/>
<polygon fill="none" stroke="#404040" points="1522.11,-477.04 1518.56,-470.77 1522.99,-465.08 1526.54,-471.35 1522.11,-477.04"/>
<text text-anchor="middle" x="1542.09" y="-602" font-family="Helvetica,sans-Serif" font-size="10.00"> +creditPosY</text>
</g>
<!-- Node11 -->
<g id="node11" class="node">
<title>Node11</title>
<g id="a_node11"><a xlink:title=" ">
<polygon fill="none" stroke="black" points="1228.09,-661.5 1228.09,-718.5 1278.09,-718.5 1278.09,-661.5 1228.09,-661.5"/>
<text text-anchor="middle" x="1253.09" y="-706.5" font-family="Helvetica,sans-Serif" font-size="10.00">Vector2</text>
<polyline fill="none" stroke="black" points="1228.09,-699.5 1278.09,-699.5 "/>
<text text-anchor="middle" x="1253.09" y="-687.5" font-family="Helvetica,sans-Serif" font-size="10.00"> </text>
<polyline fill="none" stroke="black" points="1228.09,-680.5 1278.09,-680.5 "/>
<text text-anchor="middle" x="1253.09" y="-668.5" font-family="Helvetica,sans-Serif" font-size="10.00"> </text>
</a>
</g>
</g>
<!-- Node11&#45;&gt;Node9 -->
<g id="edge11" class="edge">
<title>Node11&#45;&gt;Node9</title>
<path fill="none" stroke="#404040" d="M1253.09,-661.5C1253.09,-618.94 1253.09,-536.46 1253.09,-482.84"/>
<polygon fill="none" stroke="#404040" points="1253.09,-482.54 1249.09,-476.54 1253.09,-470.54 1257.09,-476.54 1253.09,-482.54"/>
<text text-anchor="middle" x="1288.09" y="-602" font-family="Helvetica,sans-Serif" font-size="10.00"> +NemoPosition</text>
</g>
<!-- Node12 -->
<g id="node12" class="node">
<title>Node12</title>
<g id="a_node12"><a xlink:title=" ">
<polygon fill="none" stroke="black" points="1319.59,-661.5 1319.59,-718.5 1372.59,-718.5 1372.59,-661.5 1319.59,-661.5"/>
<text text-anchor="middle" x="1346.09" y="-706.5" font-family="Helvetica,sans-Serif" font-size="10.00">direction</text>
<polyline fill="none" stroke="black" points="1319.59,-699.5 1372.59,-699.5 "/>
<text text-anchor="middle" x="1346.09" y="-687.5" font-family="Helvetica,sans-Serif" font-size="10.00"> </text>
<polyline fill="none" stroke="black" points="1319.59,-680.5 1372.59,-680.5 "/>
<text text-anchor="middle" x="1346.09" y="-668.5" font-family="Helvetica,sans-Serif" font-size="10.00"> </text>
</a>
</g>
</g>
<!-- Node12&#45;&gt;Node9 -->
<g id="edge13" class="edge">
<title>Node12&#45;&gt;Node9</title>
<path fill="none" stroke="#404040" d="M1343.59,-661.02C1340.73,-635.68 1334.99,-597.58 1324.09,-566 1313.96,-536.62 1298.08,-505.85 1283.9,-481.21"/>
<polygon fill="none" stroke="#404040" points="1283.81,-481.06 1277.33,-477.9 1277.75,-470.7 1284.23,-473.86 1283.81,-481.06"/>
<text text-anchor="middle" x="1364.09" y="-602" font-family="Helvetica,sans-Serif" font-size="10.00"> +Direction</text>
</g>
<!-- Node13&#45;&gt;Node1 -->
<g id="edge19" class="edge">
<title>Node13&#45;&gt;Node1</title>
<path fill="none" stroke="#404040" d="M543.09,-374.98C553.85,-354 568.27,-331.06 586.09,-314 662.29,-241.08 771.89,-189.56 852.39,-158.63"/>
<polygon fill="none" stroke="#404040" points="852.82,-158.47 857.02,-152.61 864.05,-154.22 859.85,-160.09 852.82,-158.47"/>
<text text-anchor="middle" x="659.59" y="-277" font-family="Helvetica,sans-Serif" font-size="10.00"> +spr</text>
</g>
<!-- Node14&#45;&gt;Node1 -->
<g id="edge24" class="edge">
<title>Node14&#45;&gt;Node1</title>
<path fill="none" stroke="#404040" d="M1516.61,-396.91C1509.29,-372.49 1497.04,-339.25 1479.09,-314 1459.02,-285.75 1450.46,-279.71 1420.09,-263 1306.46,-200.48 1161.34,-162.56 1064.34,-142.35"/>
<polygon fill="none" stroke="#404040" points="1064.22,-142.33 1057.54,-145.04 1052.46,-139.92 1059.15,-137.2 1064.22,-142.33"/>
<text text-anchor="middle" x="1492.59" y="-277" font-family="Helvetica,sans-Serif" font-size="10.00"> +endscreen</text>
</g>
<!-- Node15 -->
<g id="node15" class="node">
<title>Node15</title>
<g id="a_node15"><a xlink:title=" ">
<polygon fill="none" stroke="black" points="1575.09,-402.5 1575.09,-459.5 1649.09,-459.5 1649.09,-402.5 1575.09,-402.5"/>
<text text-anchor="middle" x="1612.09" y="-447.5" font-family="Helvetica,sans-Serif" font-size="10.00">GameScreen</text>
<polyline fill="none" stroke="black" points="1575.09,-440.5 1649.09,-440.5 "/>
<text text-anchor="middle" x="1612.09" y="-428.5" font-family="Helvetica,sans-Serif" font-size="10.00"> </text>
<polyline fill="none" stroke="black" points="1575.09,-421.5 1649.09,-421.5 "/>
<text text-anchor="middle" x="1612.09" y="-409.5" font-family="Helvetica,sans-Serif" font-size="10.00"> </text>
</a>
</g>
</g>
<!-- Node15&#45;&gt;Node1 -->
<g id="edge28" class="edge">
<title>Node15&#45;&gt;Node1</title>
<path fill="none" stroke="#404040" d="M1606.47,-402.24C1596.98,-363.45 1573.74,-294.25 1524.09,-263 1381.25,-173.09 1184.31,-141.12 1064.38,-129.76"/>
<polygon fill="none" stroke="#404040" points="1064.25,-129.75 1057.92,-133.19 1052.3,-128.66 1058.64,-125.22 1064.25,-129.75"/>
<text text-anchor="middle" x="1591.59" y="-277" font-family="Helvetica,sans-Serif" font-size="10.00"> +currentscreen</text>
</g>
<!-- Node16 -->
<g id="node16" class="node">
<title>Node16</title>
<g id="a_node16"><a xlink:title=" ">
<polygon fill="none" stroke="black" points="1668.09,-402.5 1668.09,-459.5 1736.09,-459.5 1736.09,-402.5 1668.09,-402.5"/>
<text text-anchor="middle" x="1702.09" y="-447.5" font-family="Helvetica,sans-Serif" font-size="10.00">EnemyType</text>
<polyline fill="none" stroke="black" points="1668.09,-440.5 1736.09,-440.5 "/>
<text text-anchor="middle" x="1702.09" y="-428.5" font-family="Helvetica,sans-Serif" font-size="10.00"> </text>
<polyline fill="none" stroke="black" points="1668.09,-421.5 1736.09,-421.5 "/>
<text text-anchor="middle" x="1702.09" y="-409.5" font-family="Helvetica,sans-Serif" font-size="10.00"> </text>
</a>
</g>
</g>
<!-- Node16&#45;&gt;Node1 -->
<g id="edge29" class="edge">
<title>Node16&#45;&gt;Node1</title>
<path fill="none" stroke="#404040" d="M1698.7,-402.24C1692.44,-364.1 1675.28,-296.41 1630.09,-263 1541.53,-197.52 1230.42,-153.86 1064.38,-134.66"/>
<polygon fill="none" stroke="#404040" points="1064.12,-134.63 1057.7,-137.92 1052.19,-133.26 1058.61,-129.97 1064.12,-134.63"/>
<text text-anchor="middle" x="1683.59" y="-277" font-family="Helvetica,sans-Serif" font-size="10.00"> +opponent</text>
</g>
</g>
</svg>
