<?xml version="1.0" encoding="UTF-8" standalone="no"?>
<!DOCTYPE svg PUBLIC "-//W3C//DTD SVG 1.1//EN"
 "http://www.w3.org/Graphics/SVG/1.1/DTD/svg11.dtd">
<!-- Generated by graphviz version 3.0.0 (20220226.1711)
 -->
<!-- Title: Game::Shadow Pages: 1 -->
<svg width="486pt" height="628pt"
 viewBox="0.00 0.00 486.42 628.00" xmlns="http://www.w3.org/2000/svg" xmlns:xlink="http://www.w3.org/1999/xlink">
<g id="graph0" class="graph" transform="scale(1 1) rotate(0) translate(4 624)">
<title>Game::Shadow</title>
<!-- Node1 -->
<g id="node1" class="node">
<title>Node1</title>
<g id="a_node1"><a xlink:title=" ">
<polygon fill="#bfbfbf" stroke="black" points="238.42,-0.5 238.42,-156.5 341.42,-156.5 341.42,-0.5 238.42,-0.5"/>
<text text-anchor="middle" x="289.92" y="-144.5" font-family="Helvetica,sans-Serif" font-size="10.00">Game::Shadow</text>
<polyline fill="none" stroke="black" points="238.42,-137.5 341.42,-137.5 "/>
<text text-anchor="middle" x="289.92" y="-125.5" font-family="Helvetica,sans-Serif" font-size="10.00"> </text>
<polyline fill="none" stroke="black" points="238.42,-118.5 341.42,-118.5 "/>
<text text-anchor="start" x="246.42" y="-106.5" font-family="Helvetica,sans-Serif" font-size="10.00">+ Shadow()</text>
<text text-anchor="start" x="246.42" y="-95.5" font-family="Helvetica,sans-Serif" font-size="10.00">+ attack()</text>
<text text-anchor="start" x="246.42" y="-84.5" font-family="Helvetica,sans-Serif" font-size="10.00">+ getDamage()</text>
<text text-anchor="start" x="246.42" y="-73.5" font-family="Helvetica,sans-Serif" font-size="10.00">+ get_turnnumb()</text>
<text text-anchor="start" x="246.42" y="-62.5" font-family="Helvetica,sans-Serif" font-size="10.00">+ updateCharacter()</text>
<text text-anchor="start" x="246.42" y="-51.5" font-family="Helvetica,sans-Serif" font-size="10.00">+ getStrength()</text>
<text text-anchor="start" x="246.42" y="-40.5" font-family="Helvetica,sans-Serif" font-size="10.00">+ getDefense()</text>
<text text-anchor="start" x="246.42" y="-29.5" font-family="Helvetica,sans-Serif" font-size="10.00">+ draw()</text>
<text text-anchor="start" x="246.42" y="-18.5" font-family="Helvetica,sans-Serif" font-size="10.00">+ get_rec()</text>
<text text-anchor="start" x="246.42" y="-7.5" font-family="Helvetica,sans-Serif" font-size="10.00">+ set_rec()</text>
</a>
</g>
</g>
<!-- Node2 -->
<g id="node2" class="node">
<title>Node2</title>
<g id="a_node2"><a xlink:href="class_game_1_1_game_character.html" target="_top" xlink:title=" ">
<polygon fill="none" stroke="black" points="122.42,-226.5 122.42,-459.5 239.42,-459.5 239.42,-226.5 122.42,-226.5"/>
<text text-anchor="middle" x="180.92" y="-447.5" font-family="Helvetica,sans-Serif" font-size="10.00">Game::GameCharacter</text>
<polyline fill="none" stroke="black" points="122.42,-440.5 239.42,-440.5 "/>
<text text-anchor="middle" x="180.92" y="-428.5" font-family="Helvetica,sans-Serif" font-size="10.00"> </text>
<polyline fill="none" stroke="black" points="122.42,-421.5 239.42,-421.5 "/>
<text text-anchor="start" x="130.42" y="-409.5" font-family="Helvetica,sans-Serif" font-size="10.00">+ GameCharacter()</text>
<text text-anchor="start" x="130.42" y="-398.5" font-family="Helvetica,sans-Serif" font-size="10.00">+ get_Name()</text>
<text text-anchor="start" x="130.42" y="-387.5" font-family="Helvetica,sans-Serif" font-size="10.00">+ attack()</text>
<text text-anchor="start" x="130.42" y="-376.5" font-family="Helvetica,sans-Serif" font-size="10.00">+ getDamage()</text>
<text text-anchor="start" x="130.42" y="-365.5" font-family="Helvetica,sans-Serif" font-size="10.00">+ updateCharacter()</text>
<text text-anchor="start" x="130.42" y="-354.5" font-family="Helvetica,sans-Serif" font-size="10.00">+ getLives()</text>
<text text-anchor="start" x="130.42" y="-343.5" font-family="Helvetica,sans-Serif" font-size="10.00">+ getArmor()</text>
<text text-anchor="start" x="130.42" y="-332.5" font-family="Helvetica,sans-Serif" font-size="10.00">+ getStrength()</text>
<text text-anchor="start" x="130.42" y="-321.5" font-family="Helvetica,sans-Serif" font-size="10.00">+ getDefense()</text>
<text text-anchor="start" x="130.42" y="-310.5" font-family="Helvetica,sans-Serif" font-size="10.00">+ get_rec()</text>
<text text-anchor="start" x="130.42" y="-299.5" font-family="Helvetica,sans-Serif" font-size="10.00">+ set_rec()</text>
<text text-anchor="start" x="130.42" y="-288.5" font-family="Helvetica,sans-Serif" font-size="10.00">+ heal()</text>
<text text-anchor="start" x="130.42" y="-277.5" font-family="Helvetica,sans-Serif" font-size="10.00">+ get_turnnumb()</text>
<text text-anchor="start" x="130.42" y="-266.5" font-family="Helvetica,sans-Serif" font-size="10.00">+ set_turnnumb()</text>
<text text-anchor="start" x="130.42" y="-255.5" font-family="Helvetica,sans-Serif" font-size="10.00">+ draw()</text>
<text text-anchor="start" x="130.42" y="-244.5" font-family="Helvetica,sans-Serif" font-size="10.00">+ ~GameCharacter()</text>
<text text-anchor="start" x="130.42" y="-233.5" font-family="Helvetica,sans-Serif" font-size="10.00"># getDamageNumber()</text>
</a>
</g>
</g>
<!-- Node2&#45;&gt;Node1 -->
<g id="edge1" class="edge">
<title>Node2&#45;&gt;Node1</title>
<path fill="none" stroke="midnightblue" d="M232.81,-217.03C241.38,-196.4 250.03,-175.56 257.92,-156.57"/>
<polygon fill="none" stroke="midnightblue" points="229.49,-215.9 228.89,-226.48 235.95,-218.59 229.49,-215.9"/>
</g>
<!-- Node3 -->
<g id="node3" class="node">
<title>Node3</title>
<g id="a_node3"><a xlink:title=" ">
<polygon fill="none" stroke="black" points="163.42,-562.5 163.42,-619.5 198.42,-619.5 198.42,-562.5 163.42,-562.5"/>
<text text-anchor="middle" x="180.92" y="-607.5" font-family="Helvetica,sans-Serif" font-size="10.00">bool</text>
<polyline fill="none" stroke="black" points="163.42,-600.5 198.42,-600.5 "/>
<text text-anchor="middle" x="180.92" y="-588.5" font-family="Helvetica,sans-Serif" font-size="10.00"> </text>
<polyline fill="none" stroke="black" points="163.42,-581.5 198.42,-581.5 "/>
<text text-anchor="middle" x="180.92" y="-569.5" font-family="Helvetica,sans-Serif" font-size="10.00"> </text>
</a>
</g>
</g>
<!-- Node3&#45;&gt;Node2 -->
<g id="edge2" class="edge">
<title>Node3&#45;&gt;Node2</title>
<path fill="none" stroke="#404040" d="M180.92,-562.26C180.92,-539.61 180.92,-505.86 180.92,-471.63"/>
<polygon fill="none" stroke="#404040" points="180.92,-471.52 176.92,-465.52 180.92,-459.52 184.92,-465.52 180.92,-471.52"/>
<text text-anchor="middle" x="205.42" y="-508.5" font-family="Helvetica,sans-Serif" font-size="10.00"> +damaged</text>
</g>
<!-- Node4 -->
<g id="node4" class="node">
<title>Node4</title>
<g id="a_node4"><a xlink:title=" ">
<polygon fill="none" stroke="black" points="9.42,-562.5 9.42,-619.5 38.42,-619.5 38.42,-562.5 9.42,-562.5"/>
<text text-anchor="middle" x="23.92" y="-607.5" font-family="Helvetica,sans-Serif" font-size="10.00">int</text>
<polyline fill="none" stroke="black" points="9.42,-600.5 38.42,-600.5 "/>
<text text-anchor="middle" x="23.92" y="-588.5" font-family="Helvetica,sans-Serif" font-size="10.00"> </text>
<polyline fill="none" stroke="black" points="9.42,-581.5 38.42,-581.5 "/>
<text text-anchor="middle" x="23.92" y="-569.5" font-family="Helvetica,sans-Serif" font-size="10.00"> </text>
</a>
</g>
</g>
<!-- Node4&#45;&gt;Node1 -->
<g id="edge7" class="edge">
<title>Node4&#45;&gt;Node1</title>
<path fill="none" stroke="#404040" d="M17.16,-562.37C3.06,-497.97 -23.05,-335.12 42.92,-226 83.67,-158.6 168.18,-118.6 226.92,-97.85"/>
<polygon fill="none" stroke="#404040" points="226.96,-97.83 231.34,-92.11 238.31,-93.95 233.93,-99.68 226.96,-97.83"/>
<text text-anchor="middle" x="77.92" y="-357" font-family="Helvetica,sans-Serif" font-size="10.00"> +currentFrame</text>
<text text-anchor="middle" x="77.92" y="-346" font-family="Helvetica,sans-Serif" font-size="10.00">+framesCounter</text>
<text text-anchor="middle" x="77.92" y="-335" font-family="Helvetica,sans-Serif" font-size="10.00">+framesSpeed</text>
<text text-anchor="middle" x="77.92" y="-324" font-family="Helvetica,sans-Serif" font-size="10.00">+framescounter</text>
</g>
<!-- Node4&#45;&gt;Node2 -->
<g id="edge3" class="edge">
<title>Node4&#45;&gt;Node2</title>
<path fill="none" stroke="#404040" d="M31.73,-562.11C38.95,-538.7 50.97,-504.86 66.92,-478 69.06,-474.39 90.43,-449.11 114.1,-421.47"/>
<polygon fill="none" stroke="#404040" points="114.38,-421.14 115.25,-413.99 122.19,-412.03 121.33,-419.19 114.38,-421.14"/>
<text text-anchor="middle" x="97.92" y="-536" font-family="Helvetica,sans-Serif" font-size="10.00"> #c_DEF</text>
<text text-anchor="middle" x="97.92" y="-525" font-family="Helvetica,sans-Serif" font-size="10.00">#c_HP</text>
<text text-anchor="middle" x="97.92" y="-514" font-family="Helvetica,sans-Serif" font-size="10.00">#c_MaxHP</text>
<text text-anchor="middle" x="97.92" y="-503" font-family="Helvetica,sans-Serif" font-size="10.00">#c_STR</text>
<text text-anchor="middle" x="97.92" y="-492" font-family="Helvetica,sans-Serif" font-size="10.00">#c_timeattack</text>
<text text-anchor="middle" x="97.92" y="-481" font-family="Helvetica,sans-Serif" font-size="10.00">#turnnumb</text>
</g>
<!-- Node5 -->
<g id="node5" class="node">
<title>Node5</title>
<g id="a_node5"><a xlink:title=" ">
<polygon fill="none" stroke="black" points="104.42,-562.5 104.42,-619.5 145.42,-619.5 145.42,-562.5 104.42,-562.5"/>
<text text-anchor="middle" x="124.92" y="-607.5" font-family="Helvetica,sans-Serif" font-size="10.00">string</text>
<polyline fill="none" stroke="black" points="104.42,-600.5 145.42,-600.5 "/>
<text text-anchor="middle" x="124.92" y="-588.5" font-family="Helvetica,sans-Serif" font-size="10.00"> </text>
<polyline fill="none" stroke="black" points="104.42,-581.5 145.42,-581.5 "/>
<text text-anchor="middle" x="124.92" y="-569.5" font-family="Helvetica,sans-Serif" font-size="10.00"> </text>
</a>
</g>
</g>
<!-- Node5&#45;&gt;Node2 -->
<g id="edge4" class="edge">
<title>Node5&#45;&gt;Node2</title>
<path fill="none" stroke="#404040" d="M128.83,-562.23C132.22,-539.47 137.58,-506.49 143.92,-478 144.4,-475.84 144.89,-473.66 145.4,-471.48"/>
<polygon fill="none" stroke="#404040" points="145.43,-471.34 142.92,-464.58 148.19,-459.66 150.7,-466.43 145.43,-471.34"/>
<text text-anchor="middle" x="160.42" y="-508.5" font-family="Helvetica,sans-Serif" font-size="10.00"> #name</text>
</g>
<!-- Node6 -->
<g id="node6" class="node">
<title>Node6</title>
<g id="a_node6"><a xlink:title=" ">
<polygon fill="none" stroke="black" points="240.92,-562.5 240.92,-619.5 300.92,-619.5 300.92,-562.5 240.92,-562.5"/>
<text text-anchor="middle" x="270.92" y="-607.5" font-family="Helvetica,sans-Serif" font-size="10.00">Rectangle</text>
<polyline fill="none" stroke="black" points="240.92,-600.5 300.92,-600.5 "/>
<text text-anchor="middle" x="270.92" y="-588.5" font-family="Helvetica,sans-Serif" font-size="10.00"> </text>
<polyline fill="none" stroke="black" points="240.92,-581.5 300.92,-581.5 "/>
<text text-anchor="middle" x="270.92" y="-569.5" font-family="Helvetica,sans-Serif" font-size="10.00"> </text>
</a>
</g>
</g>
<!-- Node6&#45;&gt;Node1 -->
<g id="edge9" class="edge">
<title>Node6&#45;&gt;Node1</title>
<path fill="none" stroke="#404040" d="M274.28,-562.3C274.92,-556.28 275.51,-549.93 275.92,-544 284.94,-413.82 288.15,-262.73 289.29,-169.1"/>
<polygon fill="none" stroke="#404040" points="289.29,-168.85 285.36,-162.8 289.43,-156.85 293.36,-162.89 289.29,-168.85"/>
<text text-anchor="middle" x="315.42" y="-351.5" font-family="Helvetica,sans-Serif" font-size="10.00"> +frameRec</text>
<text text-anchor="middle" x="315.42" y="-340.5" font-family="Helvetica,sans-Serif" font-size="10.00">+healthrec</text>
<text text-anchor="middle" x="315.42" y="-329.5" font-family="Helvetica,sans-Serif" font-size="10.00">+shadowrec</text>
</g>
<!-- Node6&#45;&gt;Node2 -->
<g id="edge5" class="edge">
<title>Node6&#45;&gt;Node2</title>
<path fill="none" stroke="#404040" d="M260.59,-562.3C258.37,-556.28 256.05,-549.93 253.92,-544 243.42,-514.76 241.46,-507.22 230.92,-478 230.11,-475.77 229.3,-473.51 228.47,-471.24"/>
<polygon fill="none" stroke="#404040" points="228.41,-471.07 222.6,-466.8 224.3,-459.79 230.11,-464.06 228.41,-471.07"/>
<text text-anchor="middle" x="264.92" y="-508.5" font-family="Helvetica,sans-Serif" font-size="10.00"> #rec</text>
</g>
<!-- Node7 -->
<g id="node7" class="node">
<title>Node7</title>
<g id="a_node7"><a xlink:title=" ">
<polygon fill="none" stroke="black" points="360.92,-314.5 360.92,-371.5 398.92,-371.5 398.92,-314.5 360.92,-314.5"/>
<text text-anchor="middle" x="379.92" y="-359.5" font-family="Helvetica,sans-Serif" font-size="10.00">state</text>
<polyline fill="none" stroke="black" points="360.92,-352.5 398.92,-352.5 "/>
<text text-anchor="middle" x="379.92" y="-340.5" font-family="Helvetica,sans-Serif" font-size="10.00"> </text>
<polyline fill="none" stroke="black" points="360.92,-333.5 398.92,-333.5 "/>
<text text-anchor="middle" x="379.92" y="-321.5" font-family="Helvetica,sans-Serif" font-size="10.00"> </text>
</a>
</g>
</g>
<!-- Node7&#45;&gt;Node1 -->
<g id="edge6" class="edge">
<title>Node7&#45;&gt;Node1</title>
<path fill="none" stroke="#404040" d="M372.77,-314.12C366.53,-290.48 356.92,-255.77 346.92,-226 340.55,-207.06 333.17,-186.97 325.86,-167.93"/>
<polygon fill="none" stroke="#404040" points="325.79,-167.75 319.9,-163.59 321.46,-156.55 327.36,-160.71 325.79,-167.75"/>
<text text-anchor="middle" x="355.42" y="-189" font-family="Helvetica,sans-Serif" font-size="10.00"> +State</text>
</g>
<!-- Node8 -->
<g id="node8" class="node">
<title>Node8</title>
<g id="a_node8"><a xlink:title=" ">
<polygon fill="none" stroke="black" points="417.42,-314.5 417.42,-371.5 478.42,-371.5 478.42,-314.5 417.42,-314.5"/>
<text text-anchor="middle" x="447.92" y="-359.5" font-family="Helvetica,sans-Serif" font-size="10.00">Texture2D</text>
<polyline fill="none" stroke="black" points="417.42,-352.5 478.42,-352.5 "/>
<text text-anchor="middle" x="447.92" y="-340.5" font-family="Helvetica,sans-Serif" font-size="10.00"> </text>
<polyline fill="none" stroke="black" points="417.42,-333.5 478.42,-333.5 "/>
<text text-anchor="middle" x="447.92" y="-321.5" font-family="Helvetica,sans-Serif" font-size="10.00"> </text>
</a>
</g>
</g>
<!-- Node8&#45;&gt;Node1 -->
<g id="edge8" class="edge">
<title>Node8&#45;&gt;Node1</title>
<path fill="none" stroke="#404040" d="M440.26,-314.11C433.22,-290.16 421.8,-255.02 407.92,-226 393.23,-195.3 370.96,-165.33 349.7,-140.57"/>
<polygon fill="none" stroke="#404040" points="349.53,-140.37 342.56,-138.5 341.62,-131.35 348.58,-133.22 349.53,-140.37"/>
<text text-anchor="middle" x="423.92" y="-200" font-family="Helvetica,sans-Serif" font-size="10.00"> +health</text>
<text text-anchor="middle" x="423.92" y="-189" font-family="Helvetica,sans-Serif" font-size="10.00">+healthbar</text>
<text text-anchor="middle" x="423.92" y="-178" font-family="Helvetica,sans-Serif" font-size="10.00">+spr_shadow</text>
</g>
</g>
</svg>
