<?xml version="1.0" encoding="UTF-8" standalone="no"?>
<!DOCTYPE svg PUBLIC "-//W3C//DTD SVG 1.1//EN"
 "http://www.w3.org/Graphics/SVG/1.1/DTD/svg11.dtd">
<!-- Generated by graphviz version 3.0.0 (20220226.1711)
 -->
<!-- Title: Game::Sprite Pages: 1 -->
<svg width="119pt" height="226pt"
 viewBox="0.00 0.00 118.50 226.00" xmlns="http://www.w3.org/2000/svg" xmlns:xlink="http://www.w3.org/1999/xlink">
<g id="graph0" class="graph" transform="scale(1 1) rotate(0) translate(4 222)">
<title>Game::Sprite</title>
<!-- Node1 -->
<g id="node1" class="node">
<title>Node1</title>
<g id="a_node1"><a xlink:title=" ">
<polygon fill="#bfbfbf" stroke="black" points="8.5,-0.5 8.5,-101.5 82.5,-101.5 82.5,-0.5 8.5,-0.5"/>
<text text-anchor="middle" x="45.5" y="-89.5" font-family="Helvetica,sans-Serif" font-size="10.00">Game::Sprite</text>
<polyline fill="none" stroke="black" points="8.5,-82.5 82.5,-82.5 "/>
<text text-anchor="middle" x="45.5" y="-70.5" font-family="Helvetica,sans-Serif" font-size="10.00"> </text>
<polyline fill="none" stroke="black" points="8.5,-63.5 82.5,-63.5 "/>
<text text-anchor="start" x="16.5" y="-51.5" font-family="Helvetica,sans-Serif" font-size="10.00">+ Sprite()</text>
<text text-anchor="start" x="16.5" y="-40.5" font-family="Helvetica,sans-Serif" font-size="10.00">+ Sprite()</text>
<text text-anchor="start" x="16.5" y="-29.5" font-family="Helvetica,sans-Serif" font-size="10.00">+ Sprite()</text>
<text text-anchor="start" x="16.5" y="-18.5" font-family="Helvetica,sans-Serif" font-size="10.00">+ Sprite()</text>
<text text-anchor="start" x="16.5" y="-7.5" font-family="Helvetica,sans-Serif" font-size="10.00">+ ~Sprite()</text>
</a>
</g>
</g>
<!-- Node2 -->
<g id="node2" class="node">
<title>Node2</title>
<g id="a_node2"><a xlink:title=" ">
<polygon fill="none" stroke="black" points="0,-160.5 0,-217.5 29,-217.5 29,-160.5 0,-160.5"/>
<text text-anchor="middle" x="14.5" y="-205.5" font-family="Helvetica,sans-Serif" font-size="10.00">int</text>
<polyline fill="none" stroke="black" points="0,-198.5 29,-198.5 "/>
<text text-anchor="middle" x="14.5" y="-186.5" font-family="Helvetica,sans-Serif" font-size="10.00"> </text>
<polyline fill="none" stroke="black" points="0,-179.5 29,-179.5 "/>
<text text-anchor="middle" x="14.5" y="-167.5" font-family="Helvetica,sans-Serif" font-size="10.00"> </text>
</a>
</g>
</g>
<!-- Node2&#45;&gt;Node1 -->
<g id="edge1" class="edge">
<title>Node2&#45;&gt;Node1</title>
<path fill="none" stroke="#404040" d="M14.71,-160.27C15.27,-147.84 16.59,-133.06 19.5,-120 20.01,-117.73 20.57,-115.44 21.19,-113.14"/>
<polygon fill="none" stroke="#404040" points="21.19,-113.12 19.08,-106.22 24.64,-101.62 26.75,-108.52 21.19,-113.12"/>
<text text-anchor="middle" x="37.5" y="-134" font-family="Helvetica,sans-Serif" font-size="10.00"> +pos_x</text>
<text text-anchor="middle" x="37.5" y="-123" font-family="Helvetica,sans-Serif" font-size="10.00">+pos_y</text>
</g>
<!-- Node3 -->
<g id="node3" class="node">
<title>Node3</title>
<g id="a_node3"><a xlink:title=" ">
<polygon fill="none" stroke="black" points="47,-160.5 47,-217.5 108,-217.5 108,-160.5 47,-160.5"/>
<text text-anchor="middle" x="77.5" y="-205.5" font-family="Helvetica,sans-Serif" font-size="10.00">Texture2D</text>
<polyline fill="none" stroke="black" points="47,-198.5 108,-198.5 "/>
<text text-anchor="middle" x="77.5" y="-186.5" font-family="Helvetica,sans-Serif" font-size="10.00"> </text>
<polyline fill="none" stroke="black" points="47,-179.5 108,-179.5 "/>
<text text-anchor="middle" x="77.5" y="-167.5" font-family="Helvetica,sans-Serif" font-size="10.00"> </text>
</a>
</g>
</g>
<!-- Node3&#45;&gt;Node1 -->
<g id="edge2" class="edge">
<title>Node3&#45;&gt;Node1</title>
<path fill="none" stroke="#404040" d="M71.02,-160.48C67.84,-146.93 63.85,-130 59.99,-113.58"/>
<polygon fill="none" stroke="#404040" points="59.96,-113.44 54.69,-108.52 57.21,-101.76 62.48,-106.69 59.96,-113.44"/>
<text text-anchor="middle" x="88" y="-128.5" font-family="Helvetica,sans-Serif" font-size="10.00"> +texture_</text>
</g>
</g>
</svg>
