<?xml version="1.0" encoding="UTF-8" standalone="no"?>
<!DOCTYPE svg PUBLIC "-//W3C//DTD SVG 1.1//EN"
 "http://www.w3.org/Graphics/SVG/1.1/DTD/svg11.dtd">
<!-- Generated by graphviz version 3.0.0 (20220226.1711)
 -->
<!-- Title: Mumy Pages: 1 -->
<svg width="392pt" height="237pt"
 viewBox="0.00 0.00 391.50 237.00" xmlns="http://www.w3.org/2000/svg" xmlns:xlink="http://www.w3.org/1999/xlink">
<g id="graph0" class="graph" transform="scale(1 1) rotate(0) translate(4 233)">
<title>Mumy</title>
<!-- Node1 -->
<g id="node1" class="node">
<title>Node1</title>
<g id="a_node1"><a xlink:title=" ">
<polygon fill="#bfbfbf" stroke="black" points="147,-0.5 147,-79.5 236,-79.5 236,-0.5 147,-0.5"/>
<text text-anchor="middle" x="191.5" y="-67.5" font-family="Helvetica,sans-Serif" font-size="10.00">Mumy</text>
<polyline fill="none" stroke="black" points="147,-60.5 236,-60.5 "/>
<text text-anchor="middle" x="191.5" y="-48.5" font-family="Helvetica,sans-Serif" font-size="10.00"> </text>
<polyline fill="none" stroke="black" points="147,-41.5 236,-41.5 "/>
<text text-anchor="start" x="155" y="-29.5" font-family="Helvetica,sans-Serif" font-size="10.00">+ Update()</text>
<text text-anchor="start" x="155" y="-18.5" font-family="Helvetica,sans-Serif" font-size="10.00">+ Draw()</text>
<text text-anchor="start" x="155" y="-7.5" font-family="Helvetica,sans-Serif" font-size="10.00">+ getMumyRec()</text>
</a>
</g>
</g>
<!-- Node2 -->
<g id="node2" class="node">
<title>Node2</title>
<g id="a_node2"><a xlink:title=" ">
<polygon fill="none" stroke="black" points="0,-171.5 0,-228.5 61,-228.5 61,-171.5 0,-171.5"/>
<text text-anchor="middle" x="30.5" y="-216.5" font-family="Helvetica,sans-Serif" font-size="10.00">Texture2D</text>
<polyline fill="none" stroke="black" points="0,-209.5 61,-209.5 "/>
<text text-anchor="middle" x="30.5" y="-197.5" font-family="Helvetica,sans-Serif" font-size="10.00"> </text>
<polyline fill="none" stroke="black" points="0,-190.5 61,-190.5 "/>
<text text-anchor="middle" x="30.5" y="-178.5" font-family="Helvetica,sans-Serif" font-size="10.00"> </text>
</a>
</g>
</g>
<!-- Node2&#45;&gt;Node1 -->
<g id="edge1" class="edge">
<title>Node2&#45;&gt;Node1</title>
<path fill="none" stroke="#404040" d="M29.5,-171.11C30.17,-148.94 34.53,-118.37 51.5,-98 72.39,-72.92 106.02,-58.76 135.09,-50.82"/>
<polygon fill="none" stroke="#404040" points="135.16,-50.81 140,-45.47 146.8,-47.89 141.95,-53.23 135.16,-50.81"/>
<text text-anchor="middle" x="79" y="-123" font-family="Helvetica,sans-Serif" font-size="10.00"> +spr_mumy</text>
</g>
<!-- Node3 -->
<g id="node3" class="node">
<title>Node3</title>
<g id="a_node3"><a xlink:title=" ">
<polygon fill="none" stroke="black" points="79.5,-171.5 79.5,-228.5 139.5,-228.5 139.5,-171.5 79.5,-171.5"/>
<text text-anchor="middle" x="109.5" y="-216.5" font-family="Helvetica,sans-Serif" font-size="10.00">Rectangle</text>
<polyline fill="none" stroke="black" points="79.5,-209.5 139.5,-209.5 "/>
<text text-anchor="middle" x="109.5" y="-197.5" font-family="Helvetica,sans-Serif" font-size="10.00"> </text>
<polyline fill="none" stroke="black" points="79.5,-190.5 139.5,-190.5 "/>
<text text-anchor="middle" x="109.5" y="-178.5" font-family="Helvetica,sans-Serif" font-size="10.00"> </text>
</a>
</g>
</g>
<!-- Node3&#45;&gt;Node1 -->
<g id="edge2" class="edge">
<title>Node3&#45;&gt;Node1</title>
<path fill="none" stroke="#404040" d="M109.23,-171.2C110.15,-149.93 113.94,-120.52 126.5,-98 129.74,-92.18 133.82,-86.67 138.33,-81.53"/>
<polygon fill="none" stroke="#404040" points="138.53,-81.33 139.81,-74.24 146.86,-72.7 145.57,-79.79 138.53,-81.33"/>
<text text-anchor="middle" x="156" y="-145" font-family="Helvetica,sans-Serif" font-size="10.00"> +MumyRec</text>
<text text-anchor="middle" x="156" y="-134" font-family="Helvetica,sans-Serif" font-size="10.00">+checkpoint1</text>
<text text-anchor="middle" x="156" y="-123" font-family="Helvetica,sans-Serif" font-size="10.00">+checkpoint2</text>
<text text-anchor="middle" x="156" y="-112" font-family="Helvetica,sans-Serif" font-size="10.00">&#45;frameRec</text>
<text text-anchor="middle" x="156" y="-101" font-family="Helvetica,sans-Serif" font-size="10.00">&#45;mumyrec</text>
</g>
<!-- Node4 -->
<g id="node4" class="node">
<title>Node4</title>
<g id="a_node4"><a xlink:title=" ">
<polygon fill="none" stroke="black" points="172,-171.5 172,-228.5 207,-228.5 207,-171.5 172,-171.5"/>
<text text-anchor="middle" x="189.5" y="-216.5" font-family="Helvetica,sans-Serif" font-size="10.00">bool</text>
<polyline fill="none" stroke="black" points="172,-209.5 207,-209.5 "/>
<text text-anchor="middle" x="189.5" y="-197.5" font-family="Helvetica,sans-Serif" font-size="10.00"> </text>
<polyline fill="none" stroke="black" points="172,-190.5 207,-190.5 "/>
<text text-anchor="middle" x="189.5" y="-178.5" font-family="Helvetica,sans-Serif" font-size="10.00"> </text>
</a>
</g>
</g>
<!-- Node4&#45;&gt;Node1 -->
<g id="edge3" class="edge">
<title>Node4&#45;&gt;Node1</title>
<path fill="none" stroke="#404040" d="M189.85,-171.48C190.13,-149.57 190.52,-118.31 190.86,-91.88"/>
<polygon fill="none" stroke="#404040" points="190.86,-91.75 186.93,-85.69 191.01,-79.75 194.93,-85.8 190.86,-91.75"/>
<text text-anchor="middle" x="207" y="-128.5" font-family="Helvetica,sans-Serif" font-size="10.00"> +f_left</text>
<text text-anchor="middle" x="207" y="-117.5" font-family="Helvetica,sans-Serif" font-size="10.00">+f_right</text>
</g>
<!-- Node5 -->
<g id="node5" class="node">
<title>Node5</title>
<g id="a_node5"><a xlink:title=" ">
<polygon fill="none" stroke="black" points="225,-171.5 225,-228.5 278,-228.5 278,-171.5 225,-171.5"/>
<text text-anchor="middle" x="251.5" y="-216.5" font-family="Helvetica,sans-Serif" font-size="10.00">direction</text>
<polyline fill="none" stroke="black" points="225,-209.5 278,-209.5 "/>
<text text-anchor="middle" x="251.5" y="-197.5" font-family="Helvetica,sans-Serif" font-size="10.00"> </text>
<polyline fill="none" stroke="black" points="225,-190.5 278,-190.5 "/>
<text text-anchor="middle" x="251.5" y="-178.5" font-family="Helvetica,sans-Serif" font-size="10.00"> </text>
</a>
</g>
</g>
<!-- Node5&#45;&gt;Node1 -->
<g id="edge4" class="edge">
<title>Node5&#45;&gt;Node1</title>
<path fill="none" stroke="#404040" d="M247.44,-171.22C243.81,-150.49 237.5,-121.76 227.5,-98 226.45,-95.5 225.29,-92.99 224.06,-90.49"/>
<polygon fill="none" stroke="#404040" points="223.91,-90.21 217.56,-86.81 218.25,-79.63 224.61,-83.03 223.91,-90.21"/>
<text text-anchor="middle" x="267.5" y="-123" font-family="Helvetica,sans-Serif" font-size="10.00"> +Direction</text>
</g>
<!-- Node6 -->
<g id="node6" class="node">
<title>Node6</title>
<g id="a_node6"><a xlink:title=" ">
<polygon fill="none" stroke="black" points="307,-171.5 307,-228.5 336,-228.5 336,-171.5 307,-171.5"/>
<text text-anchor="middle" x="321.5" y="-216.5" font-family="Helvetica,sans-Serif" font-size="10.00">int</text>
<polyline fill="none" stroke="black" points="307,-209.5 336,-209.5 "/>
<text text-anchor="middle" x="321.5" y="-197.5" font-family="Helvetica,sans-Serif" font-size="10.00"> </text>
<polyline fill="none" stroke="black" points="307,-190.5 336,-190.5 "/>
<text text-anchor="middle" x="321.5" y="-178.5" font-family="Helvetica,sans-Serif" font-size="10.00"> </text>
</a>
</g>
</g>
<!-- Node6&#45;&gt;Node1 -->
<g id="edge5" class="edge">
<title>Node6&#45;&gt;Node1</title>
<path fill="none" stroke="#404040" d="M320.26,-171.09C317.98,-149.2 311.83,-119.02 295.5,-98 283.05,-81.98 264.77,-69.85 247,-60.98"/>
<polygon fill="none" stroke="#404040" points="246.93,-60.95 239.8,-62.04 236.06,-55.88 243.19,-54.79 246.93,-60.95"/>
<text text-anchor="middle" x="350" y="-134" font-family="Helvetica,sans-Serif" font-size="10.00"> &#45;currentFrame</text>
<text text-anchor="middle" x="350" y="-123" font-family="Helvetica,sans-Serif" font-size="10.00">&#45;framesCounter</text>
<text text-anchor="middle" x="350" y="-112" font-family="Helvetica,sans-Serif" font-size="10.00">&#45;framesSpeed</text>
</g>
</g>
</svg>
