<?xml version="1.0" encoding="UTF-8" standalone="no"?>
<!DOCTYPE svg PUBLIC "-//W3C//DTD SVG 1.1//EN"
 "http://www.w3.org/Graphics/SVG/1.1/DTD/svg11.dtd">
<!-- Generated by graphviz version 3.0.0 (20220226.1711)
 -->
<!-- Title: Endscreen Pages: 1 -->
<svg width="160pt" height="204pt"
 viewBox="0.00 0.00 159.50 204.00" xmlns="http://www.w3.org/2000/svg" xmlns:xlink="http://www.w3.org/1999/xlink">
<g id="graph0" class="graph" transform="scale(1 1) rotate(0) translate(4 200)">
<title>Endscreen</title>
<!-- Node1 -->
<g id="node1" class="node">
<title>Node1</title>
<g id="a_node1"><a xlink:title=" ">
<polygon fill="#bfbfbf" stroke="black" points="38,-0.5 38,-68.5 101,-68.5 101,-0.5 38,-0.5"/>
<text text-anchor="middle" x="69.5" y="-56.5" font-family="Helvetica,sans-Serif" font-size="10.00">Endscreen</text>
<polyline fill="none" stroke="black" points="38,-49.5 101,-49.5 "/>
<text text-anchor="middle" x="69.5" y="-37.5" font-family="Helvetica,sans-Serif" font-size="10.00"> </text>
<polyline fill="none" stroke="black" points="38,-30.5 101,-30.5 "/>
<text text-anchor="start" x="46" y="-18.5" font-family="Helvetica,sans-Serif" font-size="10.00">+ update()</text>
<text text-anchor="start" x="46" y="-7.5" font-family="Helvetica,sans-Serif" font-size="10.00">+ draw()</text>
</a>
</g>
</g>
<!-- Node2 -->
<g id="node2" class="node">
<title>Node2</title>
<g id="a_node2"><a xlink:title=" ">
<polygon fill="none" stroke="black" points="0,-138.5 0,-195.5 61,-195.5 61,-138.5 0,-138.5"/>
<text text-anchor="middle" x="30.5" y="-183.5" font-family="Helvetica,sans-Serif" font-size="10.00">Texture2D</text>
<polyline fill="none" stroke="black" points="0,-176.5 61,-176.5 "/>
<text text-anchor="middle" x="30.5" y="-164.5" font-family="Helvetica,sans-Serif" font-size="10.00"> </text>
<polyline fill="none" stroke="black" points="0,-157.5 61,-157.5 "/>
<text text-anchor="middle" x="30.5" y="-145.5" font-family="Helvetica,sans-Serif" font-size="10.00"> </text>
</a>
</g>
</g>
<!-- Node2&#45;&gt;Node1 -->
<g id="edge1" class="edge">
<title>Node2&#45;&gt;Node1</title>
<path fill="none" stroke="#404040" d="M26.75,-138.25C25.67,-122.78 26,-103.38 31.5,-87 32.36,-84.43 33.41,-81.89 34.59,-79.38"/>
<polygon fill="none" stroke="#404040" points="34.68,-79.21 34.11,-72.02 40.52,-68.73 41.1,-75.91 34.68,-79.21"/>
<text text-anchor="middle" x="59.5" y="-101" font-family="Helvetica,sans-Serif" font-size="10.00"> +Endscreen</text>
</g>
<!-- Node3 -->
<g id="node3" class="node">
<title>Node3</title>
<g id="a_node3"><a xlink:title=" ">
<polygon fill="none" stroke="black" points="95,-138.5 95,-195.5 124,-195.5 124,-138.5 95,-138.5"/>
<text text-anchor="middle" x="109.5" y="-183.5" font-family="Helvetica,sans-Serif" font-size="10.00">int</text>
<polyline fill="none" stroke="black" points="95,-176.5 124,-176.5 "/>
<text text-anchor="middle" x="109.5" y="-164.5" font-family="Helvetica,sans-Serif" font-size="10.00"> </text>
<polyline fill="none" stroke="black" points="95,-157.5 124,-157.5 "/>
<text text-anchor="middle" x="109.5" y="-145.5" font-family="Helvetica,sans-Serif" font-size="10.00"> </text>
</a>
</g>
</g>
<!-- Node3&#45;&gt;Node1 -->
<g id="edge2" class="edge">
<title>Node3&#45;&gt;Node1</title>
<path fill="none" stroke="#404040" d="M102.3,-138.45C98.2,-123.21 92.83,-103.98 87.5,-87 86.8,-84.76 86.06,-82.48 85.31,-80.17"/>
<polygon fill="none" stroke="#404040" points="85.26,-80.01 79.55,-75.6 81.44,-68.64 87.14,-73.05 85.26,-80.01"/>
<text text-anchor="middle" x="124" y="-112" font-family="Helvetica,sans-Serif" font-size="10.00"> +Textsize</text>
<text text-anchor="middle" x="124" y="-101" font-family="Helvetica,sans-Serif" font-size="10.00">+creditPosY</text>
<text text-anchor="middle" x="124" y="-90" font-family="Helvetica,sans-Serif" font-size="10.00">+positionX</text>
</g>
</g>
</svg>
