<?xml version="1.0" encoding="UTF-8" standalone="no"?>
<!DOCTYPE svg PUBLIC "-//W3C//DTD SVG 1.1//EN"
 "http://www.w3.org/Graphics/SVG/1.1/DTD/svg11.dtd">
<!-- Generated by graphviz version 3.0.0 (20220226.1711)
 -->
<!-- Title: Endscreen Pages: 1 -->
<svg width="592pt" height="391pt"
 viewBox="0.00 0.00 591.50 391.00" xmlns="http://www.w3.org/2000/svg" xmlns:xlink="http://www.w3.org/1999/xlink">
<g id="graph0" class="graph" transform="scale(1 1) rotate(0) translate(4 387)">
<title>Endscreen</title>
<!-- Node1 -->
<g id="node1" class="node">
<title>Node1</title>
<g id="a_node1"><a xlink:title=" ">
<polygon fill="#bfbfbf" stroke="black" points="169,-0.5 169,-167.5 302,-167.5 302,-0.5 169,-0.5"/>
<text text-anchor="middle" x="235.5" y="-155.5" font-family="Helvetica,sans-Serif" font-size="10.00">Endscreen</text>
<polyline fill="none" stroke="black" points="169,-148.5 302,-148.5 "/>
<text text-anchor="start" x="177" y="-136.5" font-family="Helvetica,sans-Serif" font-size="10.00">+ positionX</text>
<text text-anchor="start" x="177" y="-125.5" font-family="Helvetica,sans-Serif" font-size="10.00">+ positionTitleX</text>
<text text-anchor="start" x="177" y="-114.5" font-family="Helvetica,sans-Serif" font-size="10.00">+ positionTitle2X</text>
<text text-anchor="start" x="177" y="-103.5" font-family="Helvetica,sans-Serif" font-size="10.00">+ positionTitle3X</text>
<text text-anchor="start" x="177" y="-92.5" font-family="Helvetica,sans-Serif" font-size="10.00">+ monster3_framescounter</text>
<text text-anchor="start" x="177" y="-81.5" font-family="Helvetica,sans-Serif" font-size="10.00">+ monster3_framesspeed</text>
<text text-anchor="start" x="177" y="-70.5" font-family="Helvetica,sans-Serif" font-size="10.00">+ nemo_currentFrame</text>
<text text-anchor="start" x="177" y="-59.5" font-family="Helvetica,sans-Serif" font-size="10.00">+ nemo_framescounter</text>
<text text-anchor="start" x="177" y="-48.5" font-family="Helvetica,sans-Serif" font-size="10.00">+ nemo_framesspeed</text>
<polyline fill="none" stroke="black" points="169,-41.5 302,-41.5 "/>
<text text-anchor="start" x="177" y="-29.5" font-family="Helvetica,sans-Serif" font-size="10.00">+ update()</text>
<text text-anchor="start" x="177" y="-18.5" font-family="Helvetica,sans-Serif" font-size="10.00">+ draw()</text>
<text text-anchor="start" x="177" y="-7.5" font-family="Helvetica,sans-Serif" font-size="10.00">+ thankyoudraw()</text>
</a>
</g>
</g>
<!-- Node2 -->
<g id="node2" class="node">
<title>Node2</title>
<g id="a_node2"><a xlink:title=" ">
<polygon fill="none" stroke="black" points="0,-325.5 0,-382.5 61,-382.5 61,-325.5 0,-325.5"/>
<text text-anchor="middle" x="30.5" y="-370.5" font-family="Helvetica,sans-Serif" font-size="10.00">Texture2D</text>
<polyline fill="none" stroke="black" points="0,-363.5 61,-363.5 "/>
<text text-anchor="middle" x="30.5" y="-351.5" font-family="Helvetica,sans-Serif" font-size="10.00"> </text>
<polyline fill="none" stroke="black" points="0,-344.5 61,-344.5 "/>
<text text-anchor="middle" x="30.5" y="-332.5" font-family="Helvetica,sans-Serif" font-size="10.00"> </text>
</a>
</g>
</g>
<!-- Node2&#45;&gt;Node1 -->
<g id="edge1" class="edge">
<title>Node2&#45;&gt;Node1</title>
<path fill="none" stroke="#404040" d="M25.04,-325.28C19.65,-289.87 15.76,-228.15 43.5,-186 69.62,-146.32 116.62,-121.22 157.57,-105.97"/>
<polygon fill="none" stroke="#404040" points="157.64,-105.94 161.95,-100.16 168.94,-101.92 164.63,-107.7 157.64,-105.94"/>
<text text-anchor="middle" x="71.5" y="-277" font-family="Helvetica,sans-Serif" font-size="10.00"> +Endscreen</text>
<text text-anchor="middle" x="71.5" y="-266" font-family="Helvetica,sans-Serif" font-size="10.00">+Epanox</text>
<text text-anchor="middle" x="71.5" y="-255" font-family="Helvetica,sans-Serif" font-size="10.00">+Monster1</text>
<text text-anchor="middle" x="71.5" y="-244" font-family="Helvetica,sans-Serif" font-size="10.00">+Monster2</text>
<text text-anchor="middle" x="71.5" y="-233" font-family="Helvetica,sans-Serif" font-size="10.00">+Monster3</text>
<text text-anchor="middle" x="71.5" y="-222" font-family="Helvetica,sans-Serif" font-size="10.00">+Nemo</text>
<text text-anchor="middle" x="71.5" y="-211" font-family="Helvetica,sans-Serif" font-size="10.00">+ThankYou</text>
</g>
<!-- Node3 -->
<g id="node3" class="node">
<title>Node3</title>
<g id="a_node3"><a xlink:title=" ">
<polygon fill="none" stroke="black" points="91.5,-325.5 91.5,-382.5 127.5,-382.5 127.5,-325.5 91.5,-325.5"/>
<text text-anchor="middle" x="109.5" y="-370.5" font-family="Helvetica,sans-Serif" font-size="10.00">Font</text>
<polyline fill="none" stroke="black" points="91.5,-363.5 127.5,-363.5 "/>
<text text-anchor="middle" x="109.5" y="-351.5" font-family="Helvetica,sans-Serif" font-size="10.00"> </text>
<polyline fill="none" stroke="black" points="91.5,-344.5 127.5,-344.5 "/>
<text text-anchor="middle" x="109.5" y="-332.5" font-family="Helvetica,sans-Serif" font-size="10.00"> </text>
</a>
</g>
</g>
<!-- Node3&#45;&gt;Node1 -->
<g id="edge2" class="edge">
<title>Node3&#45;&gt;Node1</title>
<path fill="none" stroke="#404040" d="M105.38,-325.34C101.55,-290.8 99.36,-230.83 121.5,-186 130.6,-167.57 144.69,-151.02 159.9,-136.9"/>
<polygon fill="none" stroke="#404040" points="159.97,-136.84 161.8,-129.87 168.95,-128.88 167.11,-135.85 159.97,-136.84"/>
<text text-anchor="middle" x="144.5" y="-244" font-family="Helvetica,sans-Serif" font-size="10.00"> +textFont</text>
</g>
<!-- Node4 -->
<g id="node4" class="node">
<title>Node4</title>
<g id="a_node4"><a xlink:title=" ">
<polygon fill="none" stroke="black" points="148.5,-325.5 148.5,-382.5 208.5,-382.5 208.5,-325.5 148.5,-325.5"/>
<text text-anchor="middle" x="178.5" y="-370.5" font-family="Helvetica,sans-Serif" font-size="10.00">Rectangle</text>
<polyline fill="none" stroke="black" points="148.5,-363.5 208.5,-363.5 "/>
<text text-anchor="middle" x="178.5" y="-351.5" font-family="Helvetica,sans-Serif" font-size="10.00"> </text>
<polyline fill="none" stroke="black" points="148.5,-344.5 208.5,-344.5 "/>
<text text-anchor="middle" x="178.5" y="-332.5" font-family="Helvetica,sans-Serif" font-size="10.00"> </text>
</a>
</g>
</g>
<!-- Node4&#45;&gt;Node1 -->
<g id="edge3" class="edge">
<title>Node4&#45;&gt;Node1</title>
<path fill="none" stroke="#404040" d="M174.54,-325.27C170.67,-291.68 167.01,-233.68 179.5,-186 180.1,-183.71 180.76,-181.41 181.48,-179.12"/>
<polygon fill="none" stroke="#404040" points="181.52,-179.01 179.75,-172.02 185.53,-167.69 187.3,-174.68 181.52,-179.01"/>
<text text-anchor="middle" x="225.5" y="-299" font-family="Helvetica,sans-Serif" font-size="10.00"> +EpanoxFrameRec</text>
<text text-anchor="middle" x="225.5" y="-288" font-family="Helvetica,sans-Serif" font-size="10.00">+Epanoxrec</text>
<text text-anchor="middle" x="225.5" y="-277" font-family="Helvetica,sans-Serif" font-size="10.00">+Monster1FrameRec</text>
<text text-anchor="middle" x="225.5" y="-266" font-family="Helvetica,sans-Serif" font-size="10.00">+Monster1rec</text>
<text text-anchor="middle" x="225.5" y="-255" font-family="Helvetica,sans-Serif" font-size="10.00">+Monster2FrameRec</text>
<text text-anchor="middle" x="225.5" y="-244" font-family="Helvetica,sans-Serif" font-size="10.00">+Monster2rec</text>
<text text-anchor="middle" x="225.5" y="-233" font-family="Helvetica,sans-Serif" font-size="10.00">+Monster3FrameRec</text>
<text text-anchor="middle" x="225.5" y="-222" font-family="Helvetica,sans-Serif" font-size="10.00">+Monster3rec</text>
<text text-anchor="middle" x="225.5" y="-211" font-family="Helvetica,sans-Serif" font-size="10.00">+NemoFrameRec</text>
<text text-anchor="middle" x="225.5" y="-200" font-family="Helvetica,sans-Serif" font-size="10.00">+Nemorec</text>
<text text-anchor="middle" x="225.5" y="-189" font-family="Helvetica,sans-Serif" font-size="10.00">...</text>
</g>
<!-- Node5 -->
<g id="node5" class="node">
<title>Node5</title>
<g id="a_node5"><a xlink:title=" ">
<polygon fill="none" stroke="black" points="279,-325.5 279,-382.5 308,-382.5 308,-325.5 279,-325.5"/>
<text text-anchor="middle" x="293.5" y="-370.5" font-family="Helvetica,sans-Serif" font-size="10.00">int</text>
<polyline fill="none" stroke="black" points="279,-363.5 308,-363.5 "/>
<text text-anchor="middle" x="293.5" y="-351.5" font-family="Helvetica,sans-Serif" font-size="10.00"> </text>
<polyline fill="none" stroke="black" points="279,-344.5 308,-344.5 "/>
<text text-anchor="middle" x="293.5" y="-332.5" font-family="Helvetica,sans-Serif" font-size="10.00"> </text>
</a>
</g>
</g>
<!-- Node5&#45;&gt;Node1 -->
<g id="edge4" class="edge">
<title>Node5&#45;&gt;Node1</title>
<path fill="none" stroke="#404040" d="M291.67,-325.48C289.03,-292.11 283.16,-234.33 271.5,-186 270.95,-183.73 270.37,-181.43 269.76,-179.13"/>
<polygon fill="none" stroke="#404040" points="269.75,-179.08 264.27,-174.38 266.5,-167.53 271.97,-172.22 269.75,-179.08"/>
<text text-anchor="middle" x="346.5" y="-299" font-family="Helvetica,sans-Serif" font-size="10.00"> +epanox_currentFrame</text>
<text text-anchor="middle" x="346.5" y="-288" font-family="Helvetica,sans-Serif" font-size="10.00">+epanox_framescounter</text>
<text text-anchor="middle" x="346.5" y="-277" font-family="Helvetica,sans-Serif" font-size="10.00">+epanox_framesspeed</text>
<text text-anchor="middle" x="346.5" y="-266" font-family="Helvetica,sans-Serif" font-size="10.00">+monster1_currentFrame</text>
<text text-anchor="middle" x="346.5" y="-255" font-family="Helvetica,sans-Serif" font-size="10.00">+monster1_framescounter</text>
<text text-anchor="middle" x="346.5" y="-244" font-family="Helvetica,sans-Serif" font-size="10.00">+monster1_framesspeed</text>
<text text-anchor="middle" x="346.5" y="-233" font-family="Helvetica,sans-Serif" font-size="10.00">+monster2_currentFrame</text>
<text text-anchor="middle" x="346.5" y="-222" font-family="Helvetica,sans-Serif" font-size="10.00">+monster2_framescounter</text>
<text text-anchor="middle" x="346.5" y="-211" font-family="Helvetica,sans-Serif" font-size="10.00">+monster2_framesspeed</text>
<text text-anchor="middle" x="346.5" y="-200" font-family="Helvetica,sans-Serif" font-size="10.00">+monster3_currentFrame</text>
<text text-anchor="middle" x="346.5" y="-189" font-family="Helvetica,sans-Serif" font-size="10.00">...</text>
</g>
<!-- Node6 -->
<g id="node6" class="node">
<title>Node6</title>
<g id="a_node6"><a xlink:title=" ">
<polygon fill="none" stroke="black" points="413,-325.5 413,-382.5 448,-382.5 448,-325.5 413,-325.5"/>
<text text-anchor="middle" x="430.5" y="-370.5" font-family="Helvetica,sans-Serif" font-size="10.00">float</text>
<polyline fill="none" stroke="black" points="413,-363.5 448,-363.5 "/>
<text text-anchor="middle" x="430.5" y="-351.5" font-family="Helvetica,sans-Serif" font-size="10.00"> </text>
<polyline fill="none" stroke="black" points="413,-344.5 448,-344.5 "/>
<text text-anchor="middle" x="430.5" y="-332.5" font-family="Helvetica,sans-Serif" font-size="10.00"> </text>
</a>
</g>
</g>
<!-- Node6&#45;&gt;Node1 -->
<g id="edge5" class="edge">
<title>Node6&#45;&gt;Node1</title>
<path fill="none" stroke="#404040" d="M429.58,-325.44C427.73,-284.04 422.36,-208.28 407.5,-186 385.13,-152.47 347.54,-128.55 313.2,-112.43"/>
<polygon fill="none" stroke="#404040" points="313.13,-112.4 306.02,-113.58 302.19,-107.47 309.3,-106.29 313.13,-112.4"/>
<text text-anchor="middle" x="457.5" y="-266" font-family="Helvetica,sans-Serif" font-size="10.00"> +add40</text>
<text text-anchor="middle" x="457.5" y="-255" font-family="Helvetica,sans-Serif" font-size="10.00">+creditPosY</text>
<text text-anchor="middle" x="457.5" y="-244" font-family="Helvetica,sans-Serif" font-size="10.00">+fontSize</text>
<text text-anchor="middle" x="457.5" y="-233" font-family="Helvetica,sans-Serif" font-size="10.00">+fontSpacing</text>
<text text-anchor="middle" x="457.5" y="-222" font-family="Helvetica,sans-Serif" font-size="10.00">+fontTitleSize</text>
</g>
<!-- Node7 -->
<g id="node7" class="node">
<title>Node7</title>
<g id="a_node7"><a xlink:title=" ">
<polygon fill="none" stroke="black" points="488.5,-325.5 488.5,-382.5 538.5,-382.5 538.5,-325.5 488.5,-325.5"/>
<text text-anchor="middle" x="513.5" y="-370.5" font-family="Helvetica,sans-Serif" font-size="10.00">Vector2</text>
<polyline fill="none" stroke="black" points="488.5,-363.5 538.5,-363.5 "/>
<text text-anchor="middle" x="513.5" y="-351.5" font-family="Helvetica,sans-Serif" font-size="10.00"> </text>
<polyline fill="none" stroke="black" points="488.5,-344.5 538.5,-344.5 "/>
<text text-anchor="middle" x="513.5" y="-332.5" font-family="Helvetica,sans-Serif" font-size="10.00"> </text>
</a>
</g>
</g>
<!-- Node7&#45;&gt;Node1 -->
<g id="edge6" class="edge">
<title>Node7&#45;&gt;Node1</title>
<path fill="none" stroke="#404040" d="M517.78,-325.23C521.72,-289.2 522.91,-226.22 491.5,-186 448.88,-131.42 372.46,-106.27 314.17,-94.72"/>
<polygon fill="none" stroke="#404040" points="313.83,-94.65 307.19,-97.48 302.03,-92.45 308.66,-89.62 313.83,-94.65"/>
<text text-anchor="middle" x="551.5" y="-260.5" font-family="Helvetica,sans-Serif" font-size="10.00"> +textPos</text>
<text text-anchor="middle" x="551.5" y="-249.5" font-family="Helvetica,sans-Serif" font-size="10.00">+textPosTitle</text>
<text text-anchor="middle" x="551.5" y="-238.5" font-family="Helvetica,sans-Serif" font-size="10.00">+textPosTitle2</text>
<text text-anchor="middle" x="551.5" y="-227.5" font-family="Helvetica,sans-Serif" font-size="10.00">+textPosTitle3</text>
</g>
</g>
</svg>
