<?xml version="1.0" encoding="UTF-8" standalone="no"?>
<!DOCTYPE svg PUBLIC "-//W3C//DTD SVG 1.1//EN"
 "http://www.w3.org/Graphics/SVG/1.1/DTD/svg11.dtd">
<!-- Generated by graphviz version 3.0.0 (20220226.1711)
 -->
<!-- Title: Puzzle Pages: 1 -->
<svg width="870pt" height="1208pt"
 viewBox="0.00 0.00 869.50 1208.00" xmlns="http://www.w3.org/2000/svg" xmlns:xlink="http://www.w3.org/1999/xlink">
<g id="graph0" class="graph" transform="scale(1 1) rotate(0) translate(4 1204)">
<title>Puzzle</title>
<!-- Node1 -->
<g id="node1" class="node">
<title>Node1</title>
<g id="a_node1"><a xlink:title=" ">
<polygon fill="#bfbfbf" stroke="black" points="357,-0.5 357,-882.5 464,-882.5 464,-0.5 357,-0.5"/>
<text text-anchor="middle" x="410.5" y="-870.5" font-family="Helvetica,sans-Serif" font-size="10.00">Puzzle</text>
<polyline fill="none" stroke="black" points="357,-863.5 464,-863.5 "/>
<text text-anchor="start" x="365" y="-851.5" font-family="Helvetica,sans-Serif" font-size="10.00">+ PuzzelTriangle</text>
<text text-anchor="start" x="365" y="-840.5" font-family="Helvetica,sans-Serif" font-size="10.00">+ TriangleTrapDoor</text>
<text text-anchor="start" x="365" y="-829.5" font-family="Helvetica,sans-Serif" font-size="10.00">+ SquareTrapDoor</text>
<text text-anchor="start" x="365" y="-818.5" font-family="Helvetica,sans-Serif" font-size="10.00">+ WallTile</text>
<text text-anchor="start" x="365" y="-807.5" font-family="Helvetica,sans-Serif" font-size="10.00">+ Torch</text>
<text text-anchor="start" x="365" y="-796.5" font-family="Helvetica,sans-Serif" font-size="10.00">+ Portal</text>
<text text-anchor="start" x="365" y="-785.5" font-family="Helvetica,sans-Serif" font-size="10.00">+ TimeCrystal</text>
<text text-anchor="start" x="365" y="-774.5" font-family="Helvetica,sans-Serif" font-size="10.00">+ Epanoxrec</text>
<text text-anchor="start" x="365" y="-763.5" font-family="Helvetica,sans-Serif" font-size="10.00">+ PuzzleTriangle</text>
<text text-anchor="start" x="365" y="-752.5" font-family="Helvetica,sans-Serif" font-size="10.00">+ PuzzleCircle</text>
<text text-anchor="start" x="365" y="-741.5" font-family="Helvetica,sans-Serif" font-size="10.00">+ PuzzleSquare</text>
<text text-anchor="start" x="365" y="-730.5" font-family="Helvetica,sans-Serif" font-size="10.00">+ Helmet</text>
<text text-anchor="start" x="365" y="-719.5" font-family="Helvetica,sans-Serif" font-size="10.00">+ HpPotion</text>
<text text-anchor="start" x="365" y="-708.5" font-family="Helvetica,sans-Serif" font-size="10.00">+ Key</text>
<text text-anchor="start" x="365" y="-697.5" font-family="Helvetica,sans-Serif" font-size="10.00">+ door1</text>
<text text-anchor="start" x="365" y="-686.5" font-family="Helvetica,sans-Serif" font-size="10.00">+ door2</text>
<text text-anchor="start" x="365" y="-675.5" font-family="Helvetica,sans-Serif" font-size="10.00">+ door3</text>
<text text-anchor="start" x="365" y="-664.5" font-family="Helvetica,sans-Serif" font-size="10.00">+ EpanoxRec</text>
<text text-anchor="start" x="365" y="-653.5" font-family="Helvetica,sans-Serif" font-size="10.00">+ EpanoxRec2</text>
<text text-anchor="start" x="365" y="-642.5" font-family="Helvetica,sans-Serif" font-size="10.00">+ frameRec</text>
<text text-anchor="start" x="365" y="-631.5" font-family="Helvetica,sans-Serif" font-size="10.00">+ frameRecTorch</text>
<text text-anchor="start" x="365" y="-620.5" font-family="Helvetica,sans-Serif" font-size="10.00">+ frameRecPortal</text>
<text text-anchor="start" x="365" y="-609.5" font-family="Helvetica,sans-Serif" font-size="10.00">+ frameRecEpanox</text>
<text text-anchor="start" x="365" y="-598.5" font-family="Helvetica,sans-Serif" font-size="10.00">+ textState</text>
<text text-anchor="start" x="365" y="-587.5" font-family="Helvetica,sans-Serif" font-size="10.00">+ TorchPosition2</text>
<text text-anchor="start" x="365" y="-576.5" font-family="Helvetica,sans-Serif" font-size="10.00">+ TorchPosition3</text>
<text text-anchor="start" x="365" y="-565.5" font-family="Helvetica,sans-Serif" font-size="10.00">+ TorchPosition4</text>
<text text-anchor="start" x="365" y="-554.5" font-family="Helvetica,sans-Serif" font-size="10.00">+ TorchPosition5</text>
<text text-anchor="start" x="365" y="-543.5" font-family="Helvetica,sans-Serif" font-size="10.00">+ TorchPosition6</text>
<text text-anchor="start" x="365" y="-532.5" font-family="Helvetica,sans-Serif" font-size="10.00">+ TorchPosition7</text>
<text text-anchor="start" x="365" y="-521.5" font-family="Helvetica,sans-Serif" font-size="10.00">+ TorchPosition8</text>
<text text-anchor="start" x="365" y="-510.5" font-family="Helvetica,sans-Serif" font-size="10.00">+ TorchPosition9</text>
<text text-anchor="start" x="365" y="-499.5" font-family="Helvetica,sans-Serif" font-size="10.00">+ TorchPosition17</text>
<text text-anchor="start" x="365" y="-488.5" font-family="Helvetica,sans-Serif" font-size="10.00">+ TorchPosition18</text>
<text text-anchor="start" x="365" y="-477.5" font-family="Helvetica,sans-Serif" font-size="10.00">+ TorchPosition19</text>
<text text-anchor="start" x="365" y="-466.5" font-family="Helvetica,sans-Serif" font-size="10.00">+ TorchPosition20</text>
<text text-anchor="start" x="365" y="-455.5" font-family="Helvetica,sans-Serif" font-size="10.00">+ TorchPosition21</text>
<text text-anchor="start" x="365" y="-444.5" font-family="Helvetica,sans-Serif" font-size="10.00">+ TorchPosition24</text>
<text text-anchor="start" x="365" y="-433.5" font-family="Helvetica,sans-Serif" font-size="10.00">+ TorchPosition22</text>
<text text-anchor="start" x="365" y="-422.5" font-family="Helvetica,sans-Serif" font-size="10.00">+ TorchPosition23</text>
<text text-anchor="start" x="365" y="-411.5" font-family="Helvetica,sans-Serif" font-size="10.00">+ fontTextPosLINE1</text>
<text text-anchor="start" x="365" y="-400.5" font-family="Helvetica,sans-Serif" font-size="10.00">+ fontTextPosLINE2</text>
<text text-anchor="start" x="365" y="-389.5" font-family="Helvetica,sans-Serif" font-size="10.00">+ fontTextPosLINE3</text>
<text text-anchor="start" x="365" y="-378.5" font-family="Helvetica,sans-Serif" font-size="10.00">+ puzzleCollision1</text>
<text text-anchor="start" x="365" y="-367.5" font-family="Helvetica,sans-Serif" font-size="10.00">+ puzzleCollision2</text>
<text text-anchor="start" x="365" y="-356.5" font-family="Helvetica,sans-Serif" font-size="10.00">+ puzzleCollision3</text>
<text text-anchor="start" x="365" y="-345.5" font-family="Helvetica,sans-Serif" font-size="10.00">+ helmetCollision</text>
<text text-anchor="start" x="365" y="-334.5" font-family="Helvetica,sans-Serif" font-size="10.00">+ chestplateCollision</text>
<text text-anchor="start" x="365" y="-323.5" font-family="Helvetica,sans-Serif" font-size="10.00">+ hp_potionCollision</text>
<text text-anchor="start" x="365" y="-312.5" font-family="Helvetica,sans-Serif" font-size="10.00">+ keyCollision</text>
<text text-anchor="start" x="365" y="-301.5" font-family="Helvetica,sans-Serif" font-size="10.00">+ chestIsDrawn</text>
<text text-anchor="start" x="365" y="-290.5" font-family="Helvetica,sans-Serif" font-size="10.00">+ helmetIsDrawn</text>
<text text-anchor="start" x="365" y="-279.5" font-family="Helvetica,sans-Serif" font-size="10.00">+ chestplateIsDrawn</text>
<text text-anchor="start" x="365" y="-268.5" font-family="Helvetica,sans-Serif" font-size="10.00">+ hpPotionIsDrawn</text>
<text text-anchor="start" x="365" y="-257.5" font-family="Helvetica,sans-Serif" font-size="10.00">+ keyIsDrawn</text>
<text text-anchor="start" x="365" y="-246.5" font-family="Helvetica,sans-Serif" font-size="10.00">+ isKeyPickedUp</text>
<text text-anchor="start" x="365" y="-235.5" font-family="Helvetica,sans-Serif" font-size="10.00">+ wallPuzzlePart1</text>
<text text-anchor="start" x="365" y="-224.5" font-family="Helvetica,sans-Serif" font-size="10.00">+ wallPuzzlePart2</text>
<text text-anchor="start" x="365" y="-213.5" font-family="Helvetica,sans-Serif" font-size="10.00">+ wallPuzzlePart3</text>
<text text-anchor="start" x="365" y="-202.5" font-family="Helvetica,sans-Serif" font-size="10.00">+ wallIsOpen</text>
<text text-anchor="start" x="365" y="-191.5" font-family="Helvetica,sans-Serif" font-size="10.00">+ text</text>
<text text-anchor="start" x="365" y="-180.5" font-family="Helvetica,sans-Serif" font-size="10.00">+ textdoor</text>
<text text-anchor="start" x="365" y="-169.5" font-family="Helvetica,sans-Serif" font-size="10.00">+ textdoor2</text>
<text text-anchor="start" x="365" y="-158.5" font-family="Helvetica,sans-Serif" font-size="10.00">+ textdoor3</text>
<text text-anchor="start" x="365" y="-147.5" font-family="Helvetica,sans-Serif" font-size="10.00">+ doorcollision1</text>
<text text-anchor="start" x="365" y="-136.5" font-family="Helvetica,sans-Serif" font-size="10.00">+ doorcollision2</text>
<text text-anchor="start" x="365" y="-125.5" font-family="Helvetica,sans-Serif" font-size="10.00">+ doorcollision3</text>
<polyline fill="none" stroke="black" points="357,-118.5 464,-118.5 "/>
<text text-anchor="start" x="365" y="-106.5" font-family="Helvetica,sans-Serif" font-size="10.00">+ crystaldraw()</text>
<text text-anchor="start" x="365" y="-95.5" font-family="Helvetica,sans-Serif" font-size="10.00">+ Puzzle()</text>
<text text-anchor="start" x="365" y="-84.5" font-family="Helvetica,sans-Serif" font-size="10.00">+ collisionChecks()</text>
<text text-anchor="start" x="365" y="-73.5" font-family="Helvetica,sans-Serif" font-size="10.00">+ stopNemo()</text>
<text text-anchor="start" x="365" y="-62.5" font-family="Helvetica,sans-Serif" font-size="10.00">+ torchAnimation()</text>
<text text-anchor="start" x="365" y="-51.5" font-family="Helvetica,sans-Serif" font-size="10.00">+ portalAnimation()</text>
<text text-anchor="start" x="365" y="-40.5" font-family="Helvetica,sans-Serif" font-size="10.00">+ epanoxAnimation()</text>
<text text-anchor="start" x="365" y="-29.5" font-family="Helvetica,sans-Serif" font-size="10.00">+ update()</text>
<text text-anchor="start" x="365" y="-18.5" font-family="Helvetica,sans-Serif" font-size="10.00">+ draw()</text>
<text text-anchor="start" x="365" y="-7.5" font-family="Helvetica,sans-Serif" font-size="10.00">+ ~Puzzle()</text>
</a>
</g>
</g>
<!-- Node2 -->
<g id="node2" class="node">
<title>Node2</title>
<g id="a_node2"><a xlink:href="class_game_1_1_nemo.html" target="_top" xlink:title=" ">
<polygon fill="none" stroke="black" points="470.5,-951 470.5,-1030 544.5,-1030 544.5,-951 470.5,-951"/>
<text text-anchor="middle" x="507.5" y="-1018" font-family="Helvetica,sans-Serif" font-size="10.00">Game::Nemo</text>
<polyline fill="none" stroke="black" points="470.5,-1011 544.5,-1011 "/>
<text text-anchor="middle" x="507.5" y="-999" font-family="Helvetica,sans-Serif" font-size="10.00"> </text>
<polyline fill="none" stroke="black" points="470.5,-992 544.5,-992 "/>
<text text-anchor="start" x="478.5" y="-980" font-family="Helvetica,sans-Serif" font-size="10.00">+ Update()</text>
<text text-anchor="start" x="478.5" y="-969" font-family="Helvetica,sans-Serif" font-size="10.00">+ Draw()</text>
<text text-anchor="start" x="478.5" y="-958" font-family="Helvetica,sans-Serif" font-size="10.00">+ ~Nemo()</text>
</a>
</g>
</g>
<!-- Node2&#45;&gt;Node1 -->
<g id="edge1" class="edge">
<title>Node2&#45;&gt;Node1</title>
<path fill="none" stroke="#404040" d="M500.6,-950.6C492.99,-907.65 479.96,-834.21 466.15,-756.3"/>
<polygon fill="none" stroke="#404040" points="466.11,-756.09 461.12,-750.88 464.01,-744.27 469,-749.48 466.11,-756.09"/>
<text text-anchor="middle" x="510.5" y="-904" font-family="Helvetica,sans-Serif" font-size="10.00"> +nemo</text>
</g>
<!-- Node3 -->
<g id="node3" class="node">
<title>Node3</title>
<g id="a_node3"><a xlink:title=" ">
<polygon fill="none" stroke="black" points="237,-1142.5 237,-1199.5 266,-1199.5 266,-1142.5 237,-1142.5"/>
<text text-anchor="middle" x="251.5" y="-1187.5" font-family="Helvetica,sans-Serif" font-size="10.00">int</text>
<polyline fill="none" stroke="black" points="237,-1180.5 266,-1180.5 "/>
<text text-anchor="middle" x="251.5" y="-1168.5" font-family="Helvetica,sans-Serif" font-size="10.00"> </text>
<polyline fill="none" stroke="black" points="237,-1161.5 266,-1161.5 "/>
<text text-anchor="middle" x="251.5" y="-1149.5" font-family="Helvetica,sans-Serif" font-size="10.00"> </text>
</a>
</g>
</g>
<!-- Node3&#45;&gt;Node1 -->
<g id="edge11" class="edge">
<title>Node3&#45;&gt;Node1</title>
<path fill="none" stroke="#404040" d="M251.05,-1142.41C250.79,-1097.52 252.16,-1006.05 265.5,-930 285.11,-818.23 321.57,-695.82 353.03,-601.62"/>
<polygon fill="none" stroke="#404040" points="353.11,-601.36 351.23,-594.4 356.94,-589.99 358.82,-596.95 353.11,-601.36"/>
<text text-anchor="middle" x="318" y="-1043" font-family="Helvetica,sans-Serif" font-size="10.00"> +crystal_currentFrame</text>
<text text-anchor="middle" x="318" y="-1032" font-family="Helvetica,sans-Serif" font-size="10.00">+crystal_framescounter</text>
<text text-anchor="middle" x="318" y="-1021" font-family="Helvetica,sans-Serif" font-size="10.00">+crystal_framesspeed</text>
<text text-anchor="middle" x="318" y="-1010" font-family="Helvetica,sans-Serif" font-size="10.00">+currentFrame</text>
<text text-anchor="middle" x="318" y="-999" font-family="Helvetica,sans-Serif" font-size="10.00">+epanox_currentFrame</text>
<text text-anchor="middle" x="318" y="-988" font-family="Helvetica,sans-Serif" font-size="10.00">+epanox_framescounter</text>
<text text-anchor="middle" x="318" y="-977" font-family="Helvetica,sans-Serif" font-size="10.00">+epanox_framesspeed</text>
<text text-anchor="middle" x="318" y="-966" font-family="Helvetica,sans-Serif" font-size="10.00">+framesCounter</text>
<text text-anchor="middle" x="318" y="-955" font-family="Helvetica,sans-Serif" font-size="10.00">+framesSpeed</text>
<text text-anchor="middle" x="318" y="-944" font-family="Helvetica,sans-Serif" font-size="10.00">+framesSpeed4</text>
<text text-anchor="middle" x="318" y="-933" font-family="Helvetica,sans-Serif" font-size="10.00">...</text>
</g>
<!-- Node3&#45;&gt;Node2 -->
<g id="edge2" class="edge">
<title>Node3&#45;&gt;Node2</title>
<path fill="none" stroke="#404040" d="M260.96,-1142.39C270.57,-1118.8 287.87,-1086.05 314.5,-1069 368.07,-1034.69 400.49,-1081.17 456.5,-1051 462.41,-1047.81 467.94,-1043.64 473.02,-1038.99"/>
<polygon fill="none" stroke="#404040" points="473.24,-1038.76 474.59,-1031.67 481.64,-1030.19 480.3,-1037.27 473.24,-1038.76"/>
<text text-anchor="middle" x="349.5" y="-1110.5" font-family="Helvetica,sans-Serif" font-size="10.00"> +HP</text>
<text text-anchor="middle" x="349.5" y="-1099.5" font-family="Helvetica,sans-Serif" font-size="10.00">+currentFrame</text>
<text text-anchor="middle" x="349.5" y="-1088.5" font-family="Helvetica,sans-Serif" font-size="10.00">+framesCounter</text>
<text text-anchor="middle" x="349.5" y="-1077.5" font-family="Helvetica,sans-Serif" font-size="10.00">+framesSpeed</text>
</g>
<!-- Node4 -->
<g id="node4" class="node">
<title>Node4</title>
<g id="a_node4"><a xlink:title=" ">
<polygon fill="none" stroke="black" points="0,-1142.5 0,-1199.5 35,-1199.5 35,-1142.5 0,-1142.5"/>
<text text-anchor="middle" x="17.5" y="-1187.5" font-family="Helvetica,sans-Serif" font-size="10.00">float</text>
<polyline fill="none" stroke="black" points="0,-1180.5 35,-1180.5 "/>
<text text-anchor="middle" x="17.5" y="-1168.5" font-family="Helvetica,sans-Serif" font-size="10.00"> </text>
<polyline fill="none" stroke="black" points="0,-1161.5 35,-1161.5 "/>
<text text-anchor="middle" x="17.5" y="-1149.5" font-family="Helvetica,sans-Serif" font-size="10.00"> </text>
</a>
</g>
</g>
<!-- Node4&#45;&gt;Node1 -->
<g id="edge12" class="edge">
<title>Node4&#45;&gt;Node1</title>
<path fill="none" stroke="#404040" d="M20.3,-1142.45C25.8,-1096.44 40.65,-1001.95 75.5,-930 151.92,-772.23 275.38,-608.1 349.17,-516.24"/>
<polygon fill="none" stroke="#404040" points="349.28,-516.11 349.93,-508.93 356.81,-506.77 356.16,-513.95 349.28,-516.11"/>
<text text-anchor="middle" x="107.5" y="-999" font-family="Helvetica,sans-Serif" font-size="10.00"> +fontSize</text>
<text text-anchor="middle" x="107.5" y="-988" font-family="Helvetica,sans-Serif" font-size="10.00">+fontSpacing</text>
<text text-anchor="middle" x="107.5" y="-977" font-family="Helvetica,sans-Serif" font-size="10.00">+timesinceIdle</text>
</g>
<!-- Node4&#45;&gt;Node2 -->
<g id="edge3" class="edge">
<title>Node4&#45;&gt;Node2</title>
<path fill="none" stroke="#404040" d="M26.72,-1142.33C36.32,-1118.36 53.87,-1085.08 81.5,-1069 153.61,-1027.04 381.56,-1087.67 456.5,-1051 462.84,-1047.9 468.71,-1043.61 474.03,-1038.74"/>
<polygon fill="none" stroke="#404040" points="474.08,-1038.69 475.41,-1031.6 482.46,-1030.11 481.13,-1037.2 474.08,-1038.69"/>
<text text-anchor="middle" x="113.5" y="-1110.5" font-family="Helvetica,sans-Serif" font-size="10.00"> +nemoheight</text>
<text text-anchor="middle" x="113.5" y="-1099.5" font-family="Helvetica,sans-Serif" font-size="10.00">+nemowidth</text>
<text text-anchor="middle" x="113.5" y="-1088.5" font-family="Helvetica,sans-Serif" font-size="10.00">+timesinceIdle</text>
<text text-anchor="middle" x="113.5" y="-1077.5" font-family="Helvetica,sans-Serif" font-size="10.00">+walkspeed</text>
</g>
<!-- Node5 -->
<g id="node5" class="node">
<title>Node5</title>
<g id="a_node5"><a xlink:title=" ">
<polygon fill="none" stroke="black" points="103.5,-1142.5 103.5,-1199.5 153.5,-1199.5 153.5,-1142.5 103.5,-1142.5"/>
<text text-anchor="middle" x="128.5" y="-1187.5" font-family="Helvetica,sans-Serif" font-size="10.00">Vector2</text>
<polyline fill="none" stroke="black" points="103.5,-1180.5 153.5,-1180.5 "/>
<text text-anchor="middle" x="128.5" y="-1168.5" font-family="Helvetica,sans-Serif" font-size="10.00"> </text>
<polyline fill="none" stroke="black" points="103.5,-1161.5 153.5,-1161.5 "/>
<text text-anchor="middle" x="128.5" y="-1149.5" font-family="Helvetica,sans-Serif" font-size="10.00"> </text>
</a>
</g>
</g>
<!-- Node5&#45;&gt;Node1 -->
<g id="edge13" class="edge">
<title>Node5&#45;&gt;Node1</title>
<path fill="none" stroke="#404040" d="M130.86,-1142.38C135.3,-1097.06 146.77,-1004.53 171.5,-930 217.85,-790.31 296.57,-639.66 350.94,-543.39"/>
<polygon fill="none" stroke="#404040" points="351.02,-543.23 350.5,-536.04 356.94,-532.79 357.46,-539.99 351.02,-543.23"/>
<text text-anchor="middle" x="210.5" y="-1043" font-family="Helvetica,sans-Serif" font-size="10.00"> +EpanoxPosition</text>
<text text-anchor="middle" x="210.5" y="-1032" font-family="Helvetica,sans-Serif" font-size="10.00">+PortalPosition</text>
<text text-anchor="middle" x="210.5" y="-1021" font-family="Helvetica,sans-Serif" font-size="10.00">+TorchPosition</text>
<text text-anchor="middle" x="210.5" y="-1010" font-family="Helvetica,sans-Serif" font-size="10.00">+TorchPosition10</text>
<text text-anchor="middle" x="210.5" y="-999" font-family="Helvetica,sans-Serif" font-size="10.00">+TorchPosition11</text>
<text text-anchor="middle" x="210.5" y="-988" font-family="Helvetica,sans-Serif" font-size="10.00">+TorchPosition12</text>
<text text-anchor="middle" x="210.5" y="-977" font-family="Helvetica,sans-Serif" font-size="10.00">+TorchPosition13</text>
<text text-anchor="middle" x="210.5" y="-966" font-family="Helvetica,sans-Serif" font-size="10.00">+TorchPosition14</text>
<text text-anchor="middle" x="210.5" y="-955" font-family="Helvetica,sans-Serif" font-size="10.00">+TorchPosition15</text>
<text text-anchor="middle" x="210.5" y="-944" font-family="Helvetica,sans-Serif" font-size="10.00">+TorchPosition16</text>
<text text-anchor="middle" x="210.5" y="-933" font-family="Helvetica,sans-Serif" font-size="10.00">...</text>
</g>
<!-- Node5&#45;&gt;Node2 -->
<g id="edge4" class="edge">
<title>Node5&#45;&gt;Node2</title>
<path fill="none" stroke="#404040" d="M138.86,-1142.43C149.43,-1118.52 168.31,-1085.28 196.5,-1069 246.65,-1040.04 404.75,-1077 456.5,-1051 462.58,-1047.95 468.23,-1043.81 473.38,-1039.14"/>
<polygon fill="none" stroke="#404040" points="473.7,-1038.82 475.06,-1031.74 482.12,-1030.27 480.76,-1037.35 473.7,-1038.82"/>
<text text-anchor="middle" x="231.5" y="-1094" font-family="Helvetica,sans-Serif" font-size="10.00"> +NemoPosition</text>
</g>
<!-- Node6 -->
<g id="node6" class="node">
<title>Node6</title>
<g id="a_node6"><a xlink:title=" ">
<polygon fill="none" stroke="black" points="528,-1142.5 528,-1199.5 563,-1199.5 563,-1142.5 528,-1142.5"/>
<text text-anchor="middle" x="545.5" y="-1187.5" font-family="Helvetica,sans-Serif" font-size="10.00">bool</text>
<polyline fill="none" stroke="black" points="528,-1180.5 563,-1180.5 "/>
<text text-anchor="middle" x="545.5" y="-1168.5" font-family="Helvetica,sans-Serif" font-size="10.00"> </text>
<polyline fill="none" stroke="black" points="528,-1161.5 563,-1161.5 "/>
<text text-anchor="middle" x="545.5" y="-1149.5" font-family="Helvetica,sans-Serif" font-size="10.00"> </text>
</a>
</g>
</g>
<!-- Node6&#45;&gt;Node1 -->
<g id="edge15" class="edge">
<title>Node6&#45;&gt;Node1</title>
<path fill="none" stroke="#404040" d="M563.16,-1154.83C571.33,-1146.64 580.17,-1135.8 584.5,-1124 592.92,-1101.05 587.18,-1093.3 584.5,-1069 566.28,-903.61 511.36,-720.98 468.04,-595.79"/>
<polygon fill="none" stroke="#404040" points="467.96,-595.57 462.21,-591.22 464.02,-584.24 469.77,-588.59 467.96,-595.57"/>
<text text-anchor="middle" x="625.5" y="-1043" font-family="Helvetica,sans-Serif" font-size="10.00"> +EpanoxCollision</text>
<text text-anchor="middle" x="625.5" y="-1032" font-family="Helvetica,sans-Serif" font-size="10.00">+EpanoxCollision2</text>
<text text-anchor="middle" x="625.5" y="-1021" font-family="Helvetica,sans-Serif" font-size="10.00">+chest2IsDrawn</text>
<text text-anchor="middle" x="625.5" y="-1010" font-family="Helvetica,sans-Serif" font-size="10.00">+chest3IsDrawn</text>
<text text-anchor="middle" x="625.5" y="-999" font-family="Helvetica,sans-Serif" font-size="10.00">+chestCollision</text>
<text text-anchor="middle" x="625.5" y="-988" font-family="Helvetica,sans-Serif" font-size="10.00">+chestCollision2</text>
<text text-anchor="middle" x="625.5" y="-977" font-family="Helvetica,sans-Serif" font-size="10.00">+chestCollision3</text>
<text text-anchor="middle" x="625.5" y="-966" font-family="Helvetica,sans-Serif" font-size="10.00">+chestCollisionNS1</text>
<text text-anchor="middle" x="625.5" y="-955" font-family="Helvetica,sans-Serif" font-size="10.00">+chestCollisionNS2</text>
<text text-anchor="middle" x="625.5" y="-944" font-family="Helvetica,sans-Serif" font-size="10.00">+chestCollisionNS3</text>
<text text-anchor="middle" x="625.5" y="-933" font-family="Helvetica,sans-Serif" font-size="10.00">...</text>
</g>
<!-- Node6&#45;&gt;Node2 -->
<g id="edge5" class="edge">
<title>Node6&#45;&gt;Node2</title>
<path fill="none" stroke="#404040" d="M533.44,-1142.11C531.22,-1136.21 529.1,-1129.96 527.5,-1124 520.4,-1097.47 515.6,-1067.23 512.48,-1042.34"/>
<polygon fill="none" stroke="#404040" points="512.46,-1042.15 507.78,-1036.66 511.04,-1030.23 515.72,-1035.72 512.46,-1042.15"/>
<text text-anchor="middle" x="556" y="-1116" font-family="Helvetica,sans-Serif" font-size="10.00"> +active</text>
<text text-anchor="middle" x="556" y="-1105" font-family="Helvetica,sans-Serif" font-size="10.00">+alive</text>
<text text-anchor="middle" x="556" y="-1094" font-family="Helvetica,sans-Serif" font-size="10.00">+keypressed</text>
<text text-anchor="middle" x="556" y="-1083" font-family="Helvetica,sans-Serif" font-size="10.00">+sound</text>
<text text-anchor="middle" x="556" y="-1072" font-family="Helvetica,sans-Serif" font-size="10.00">+standing</text>
</g>
<!-- Node7 -->
<g id="node7" class="node">
<title>Node7</title>
<g id="a_node7"><a xlink:title=" ">
<polygon fill="none" stroke="black" points="429,-1142.5 429,-1199.5 482,-1199.5 482,-1142.5 429,-1142.5"/>
<text text-anchor="middle" x="455.5" y="-1187.5" font-family="Helvetica,sans-Serif" font-size="10.00">direction</text>
<polyline fill="none" stroke="black" points="429,-1180.5 482,-1180.5 "/>
<text text-anchor="middle" x="455.5" y="-1168.5" font-family="Helvetica,sans-Serif" font-size="10.00"> </text>
<polyline fill="none" stroke="black" points="429,-1161.5 482,-1161.5 "/>
<text text-anchor="middle" x="455.5" y="-1149.5" font-family="Helvetica,sans-Serif" font-size="10.00"> </text>
</a>
</g>
</g>
<!-- Node7&#45;&gt;Node2 -->
<g id="edge6" class="edge">
<title>Node7&#45;&gt;Node2</title>
<path fill="none" stroke="#404040" d="M454.9,-1142.4C455.17,-1121.76 457.12,-1093.07 464.5,-1069 467.39,-1059.59 471.52,-1050.04 476.09,-1041.01"/>
<polygon fill="none" stroke="#404040" points="476.16,-1040.88 475.47,-1033.7 481.83,-1030.3 482.52,-1037.48 476.16,-1040.88"/>
<text text-anchor="middle" x="488.5" y="-1094" font-family="Helvetica,sans-Serif" font-size="10.00"> +Direction</text>
</g>
<!-- Node8 -->
<g id="node8" class="node">
<title>Node8</title>
<g id="a_node8"><a xlink:title=" ">
<polygon fill="none" stroke="black" points="343,-1142.5 343,-1199.5 404,-1199.5 404,-1142.5 343,-1142.5"/>
<text text-anchor="middle" x="373.5" y="-1187.5" font-family="Helvetica,sans-Serif" font-size="10.00">Texture2D</text>
<polyline fill="none" stroke="black" points="343,-1180.5 404,-1180.5 "/>
<text text-anchor="middle" x="373.5" y="-1168.5" font-family="Helvetica,sans-Serif" font-size="10.00"> </text>
<polyline fill="none" stroke="black" points="343,-1161.5 404,-1161.5 "/>
<text text-anchor="middle" x="373.5" y="-1149.5" font-family="Helvetica,sans-Serif" font-size="10.00"> </text>
</a>
</g>
</g>
<!-- Node8&#45;&gt;Node1 -->
<g id="edge9" class="edge">
<title>Node8&#45;&gt;Node1</title>
<path fill="none" stroke="#404040" d="M373.33,-1142.27C373.18,-1097.57 373.34,-1006.82 376.5,-930 376.98,-918.44 377.5,-906.73 378.06,-894.91"/>
<polygon fill="none" stroke="#404040" points="378.07,-894.55 374.37,-888.36 378.65,-882.56 382.36,-888.75 378.07,-894.55"/>
<text text-anchor="middle" x="419" y="-1043" font-family="Helvetica,sans-Serif" font-size="10.00"> +ChestOpen</text>
<text text-anchor="middle" x="419" y="-1032" font-family="Helvetica,sans-Serif" font-size="10.00">+ChestplateTexture</text>
<text text-anchor="middle" x="419" y="-1021" font-family="Helvetica,sans-Serif" font-size="10.00">+CircleTrapDoor</text>
<text text-anchor="middle" x="419" y="-1010" font-family="Helvetica,sans-Serif" font-size="10.00">+Dialogbox</text>
<text text-anchor="middle" x="419" y="-999" font-family="Helvetica,sans-Serif" font-size="10.00">+DungeonFloorTile</text>
<text text-anchor="middle" x="419" y="-988" font-family="Helvetica,sans-Serif" font-size="10.00">+EpanoxSheet</text>
<text text-anchor="middle" x="419" y="-977" font-family="Helvetica,sans-Serif" font-size="10.00">+HelmetItem</text>
<text text-anchor="middle" x="419" y="-966" font-family="Helvetica,sans-Serif" font-size="10.00">+HelmetTexture</text>
<text text-anchor="middle" x="419" y="-955" font-family="Helvetica,sans-Serif" font-size="10.00">+HpPotionTexture</text>
<text text-anchor="middle" x="419" y="-944" font-family="Helvetica,sans-Serif" font-size="10.00">+KeyTexture</text>
<text text-anchor="middle" x="419" y="-933" font-family="Helvetica,sans-Serif" font-size="10.00">...</text>
</g>
<!-- Node8&#45;&gt;Node2 -->
<g id="edge7" class="edge">
<title>Node8&#45;&gt;Node2</title>
<path fill="none" stroke="#404040" d="M380.88,-1142.2C387.96,-1120.07 400.55,-1089.52 420.5,-1069 432.97,-1056.17 442.4,-1062.01 456.5,-1051 461.08,-1047.42 465.56,-1043.38 469.83,-1039.13"/>
<polygon fill="none" stroke="#404040" points="470.05,-1038.9 471.27,-1031.79 478.3,-1030.18 477.08,-1037.29 470.05,-1038.9"/>
<text text-anchor="middle" x="436.5" y="-1116" font-family="Helvetica,sans-Serif" font-size="10.00"> +Back</text>
<text text-anchor="middle" x="436.5" y="-1105" font-family="Helvetica,sans-Serif" font-size="10.00">+Front</text>
<text text-anchor="middle" x="436.5" y="-1094" font-family="Helvetica,sans-Serif" font-size="10.00">+Left</text>
<text text-anchor="middle" x="436.5" y="-1083" font-family="Helvetica,sans-Serif" font-size="10.00">+Right</text>
<text text-anchor="middle" x="436.5" y="-1072" font-family="Helvetica,sans-Serif" font-size="10.00">+Stand</text>
</g>
<!-- Node9 -->
<g id="node9" class="node">
<title>Node9</title>
<g id="a_node9"><a xlink:title=" ">
<polygon fill="none" stroke="black" points="646.5,-1142.5 646.5,-1199.5 706.5,-1199.5 706.5,-1142.5 646.5,-1142.5"/>
<text text-anchor="middle" x="676.5" y="-1187.5" font-family="Helvetica,sans-Serif" font-size="10.00">Rectangle</text>
<polyline fill="none" stroke="black" points="646.5,-1180.5 706.5,-1180.5 "/>
<text text-anchor="middle" x="676.5" y="-1168.5" font-family="Helvetica,sans-Serif" font-size="10.00"> </text>
<polyline fill="none" stroke="black" points="646.5,-1161.5 706.5,-1161.5 "/>
<text text-anchor="middle" x="676.5" y="-1149.5" font-family="Helvetica,sans-Serif" font-size="10.00"> </text>
</a>
</g>
</g>
<!-- Node9&#45;&gt;Node1 -->
<g id="edge10" class="edge">
<title>Node9&#45;&gt;Node1</title>
<path fill="none" stroke="#404040" d="M699.56,-1142.48C703.24,-1136.7 706.49,-1130.41 708.5,-1124 734.74,-1040.32 704.48,-1011.66 672.5,-930 616.63,-787.35 528.73,-633.29 470.36,-537.37"/>
<polygon fill="none" stroke="#404040" points="470.35,-537.36 463.81,-534.32 464.1,-527.11 470.64,-530.15 470.35,-537.36"/>
<text text-anchor="middle" x="760" y="-1043" font-family="Helvetica,sans-Serif" font-size="10.00"> +Chest</text>
<text text-anchor="middle" x="760" y="-1032" font-family="Helvetica,sans-Serif" font-size="10.00">+Chest2</text>
<text text-anchor="middle" x="760" y="-1021" font-family="Helvetica,sans-Serif" font-size="10.00">+Chest3</text>
<text text-anchor="middle" x="760" y="-1010" font-family="Helvetica,sans-Serif" font-size="10.00">+ChestNS</text>
<text text-anchor="middle" x="760" y="-999" font-family="Helvetica,sans-Serif" font-size="10.00">+ChestNS2</text>
<text text-anchor="middle" x="760" y="-988" font-family="Helvetica,sans-Serif" font-size="10.00">+ChestNS3</text>
<text text-anchor="middle" x="760" y="-977" font-family="Helvetica,sans-Serif" font-size="10.00">+Chestplate</text>
<text text-anchor="middle" x="760" y="-966" font-family="Helvetica,sans-Serif" font-size="10.00">+CrystalFrameRec</text>
<text text-anchor="middle" x="760" y="-955" font-family="Helvetica,sans-Serif" font-size="10.00">+Crystalrec</text>
<text text-anchor="middle" x="760" y="-944" font-family="Helvetica,sans-Serif" font-size="10.00">+EpanoxFrameRec</text>
<text text-anchor="middle" x="760" y="-933" font-family="Helvetica,sans-Serif" font-size="10.00">...</text>
</g>
<!-- Node9&#45;&gt;Node2 -->
<g id="edge8" class="edge">
<title>Node9&#45;&gt;Node2</title>
<path fill="none" stroke="#404040" d="M649.11,-1142.15C643.51,-1136.25 637.74,-1129.99 632.5,-1124 611.88,-1100.44 609.63,-1092.09 588.5,-1069 577.61,-1057.1 565.28,-1044.78 553.59,-1033.57"/>
<polygon fill="none" stroke="#404040" points="553.51,-1033.49 546.4,-1032.26 544.81,-1025.23 551.91,-1026.46 553.51,-1033.49"/>
<text text-anchor="middle" x="670.5" y="-1105" font-family="Helvetica,sans-Serif" font-size="10.00"> +StandframeRec</text>
<text text-anchor="middle" x="670.5" y="-1094" font-family="Helvetica,sans-Serif" font-size="10.00">+frameRec</text>
<text text-anchor="middle" x="670.5" y="-1083" font-family="Helvetica,sans-Serif" font-size="10.00">+nemorec</text>
</g>
<!-- Node10 -->
<g id="node10" class="node">
<title>Node10</title>
<g id="a_node10"><a xlink:title=" ">
<polygon fill="none" stroke="black" points="825.5,-962 825.5,-1019 861.5,-1019 861.5,-962 825.5,-962"/>
<text text-anchor="middle" x="843.5" y="-1007" font-family="Helvetica,sans-Serif" font-size="10.00">Font</text>
<polyline fill="none" stroke="black" points="825.5,-1000 861.5,-1000 "/>
<text text-anchor="middle" x="843.5" y="-988" font-family="Helvetica,sans-Serif" font-size="10.00"> </text>
<polyline fill="none" stroke="black" points="825.5,-981 861.5,-981 "/>
<text text-anchor="middle" x="843.5" y="-969" font-family="Helvetica,sans-Serif" font-size="10.00"> </text>
</a>
</g>
</g>
<!-- Node10&#45;&gt;Node1 -->
<g id="edge14" class="edge">
<title>Node10&#45;&gt;Node1</title>
<path fill="none" stroke="#404040" d="M830.08,-961.9C824.73,-951.62 818.23,-940.03 811.5,-930 704.22,-770.09 555.29,-600.02 472.43,-509.08"/>
<polygon fill="none" stroke="#404040" points="472.22,-508.86 465.22,-507.13 464.13,-500 471.13,-501.73 472.22,-508.86"/>
<text text-anchor="middle" x="814.5" y="-904" font-family="Helvetica,sans-Serif" font-size="10.00"> +textFont</text>
</g>
</g>
</svg>
