<?xml version="1.0" encoding="UTF-8" standalone="no"?>
<!DOCTYPE svg PUBLIC "-//W3C//DTD SVG 1.1//EN"
 "http://www.w3.org/Graphics/SVG/1.1/DTD/svg11.dtd">
<!-- Generated by graphviz version 3.0.0 (20220226.1711)
 -->
<!-- Title: Game::Sprite Pages: 1 -->
<svg width="307pt" height="237pt"
 viewBox="0.00 0.00 306.50 237.00" xmlns="http://www.w3.org/2000/svg" xmlns:xlink="http://www.w3.org/1999/xlink">
<g id="graph0" class="graph" transform="scale(1 1) rotate(0) translate(4 233)">
<title>Game::Sprite</title>
<!-- Node1 -->
<g id="node1" class="node">
<title>Node1</title>
<g id="a_node1"><a xlink:title=" ">
<polygon fill="#bfbfbf" stroke="black" points="74.5,-0.5 74.5,-112.5 160.5,-112.5 160.5,-0.5 74.5,-0.5"/>
<text text-anchor="middle" x="117.5" y="-100.5" font-family="Helvetica,sans-Serif" font-size="10.00">Game::Sprite</text>
<polyline fill="none" stroke="black" points="74.5,-93.5 160.5,-93.5 "/>
<text text-anchor="middle" x="117.5" y="-81.5" font-family="Helvetica,sans-Serif" font-size="10.00"> </text>
<polyline fill="none" stroke="black" points="74.5,-74.5 160.5,-74.5 "/>
<text text-anchor="start" x="82.5" y="-62.5" font-family="Helvetica,sans-Serif" font-size="10.00">+ EpanoxDraw()</text>
<text text-anchor="start" x="82.5" y="-51.5" font-family="Helvetica,sans-Serif" font-size="10.00">+ Sprite()</text>
<text text-anchor="start" x="82.5" y="-40.5" font-family="Helvetica,sans-Serif" font-size="10.00">+ Sprite()</text>
<text text-anchor="start" x="82.5" y="-29.5" font-family="Helvetica,sans-Serif" font-size="10.00">+ Sprite()</text>
<text text-anchor="start" x="82.5" y="-18.5" font-family="Helvetica,sans-Serif" font-size="10.00">+ Sprite()</text>
<text text-anchor="start" x="82.5" y="-7.5" font-family="Helvetica,sans-Serif" font-size="10.00">+ ~Sprite()</text>
</a>
</g>
</g>
<!-- Node2 -->
<g id="node2" class="node">
<title>Node2</title>
<g id="a_node2"><a xlink:title=" ">
<polygon fill="none" stroke="black" points="0,-171.5 0,-228.5 29,-228.5 29,-171.5 0,-171.5"/>
<text text-anchor="middle" x="14.5" y="-216.5" font-family="Helvetica,sans-Serif" font-size="10.00">int</text>
<polyline fill="none" stroke="black" points="0,-209.5 29,-209.5 "/>
<text text-anchor="middle" x="14.5" y="-197.5" font-family="Helvetica,sans-Serif" font-size="10.00"> </text>
<polyline fill="none" stroke="black" points="0,-190.5 29,-190.5 "/>
<text text-anchor="middle" x="14.5" y="-178.5" font-family="Helvetica,sans-Serif" font-size="10.00"> </text>
</a>
</g>
</g>
<!-- Node2&#45;&gt;Node1 -->
<g id="edge1" class="edge">
<title>Node2&#45;&gt;Node1</title>
<path fill="none" stroke="#404040" d="M18.96,-171.38C21.94,-158.4 26.78,-143.15 34.5,-131 42.64,-118.18 53.65,-106.28 64.99,-95.95"/>
<polygon fill="none" stroke="#404040" points="65.05,-95.9 66.95,-88.94 74.1,-88.02 72.2,-94.98 65.05,-95.9"/>
<text text-anchor="middle" x="52.5" y="-145" font-family="Helvetica,sans-Serif" font-size="10.00"> +pos_x</text>
<text text-anchor="middle" x="52.5" y="-134" font-family="Helvetica,sans-Serif" font-size="10.00">+pos_y</text>
</g>
<!-- Node3 -->
<g id="node3" class="node">
<title>Node3</title>
<g id="a_node3"><a xlink:title=" ">
<polygon fill="none" stroke="black" points="47,-171.5 47,-228.5 108,-228.5 108,-171.5 47,-171.5"/>
<text text-anchor="middle" x="77.5" y="-216.5" font-family="Helvetica,sans-Serif" font-size="10.00">Texture2D</text>
<polyline fill="none" stroke="black" points="47,-209.5 108,-209.5 "/>
<text text-anchor="middle" x="77.5" y="-197.5" font-family="Helvetica,sans-Serif" font-size="10.00"> </text>
<polyline fill="none" stroke="black" points="47,-190.5 108,-190.5 "/>
<text text-anchor="middle" x="77.5" y="-178.5" font-family="Helvetica,sans-Serif" font-size="10.00"> </text>
</a>
</g>
</g>
<!-- Node3&#45;&gt;Node1 -->
<g id="edge2" class="edge">
<title>Node3&#45;&gt;Node1</title>
<path fill="none" stroke="#404040" d="M74.99,-171.48C74.59,-158.95 75.15,-144.04 78.5,-131 79.09,-128.69 79.77,-126.37 80.52,-124.06"/>
<polygon fill="none" stroke="#404040" points="80.62,-123.81 78.97,-116.79 84.81,-112.57 86.46,-119.59 80.62,-123.81"/>
<text text-anchor="middle" x="107" y="-145" font-family="Helvetica,sans-Serif" font-size="10.00"> +EpanoxStil</text>
<text text-anchor="middle" x="107" y="-134" font-family="Helvetica,sans-Serif" font-size="10.00">+texture_</text>
</g>
<!-- Node4 -->
<g id="node4" class="node">
<title>Node4</title>
<g id="a_node4"><a xlink:title=" ">
<polygon fill="none" stroke="black" points="127.5,-171.5 127.5,-228.5 187.5,-228.5 187.5,-171.5 127.5,-171.5"/>
<text text-anchor="middle" x="157.5" y="-216.5" font-family="Helvetica,sans-Serif" font-size="10.00">Rectangle</text>
<polyline fill="none" stroke="black" points="127.5,-209.5 187.5,-209.5 "/>
<text text-anchor="middle" x="157.5" y="-197.5" font-family="Helvetica,sans-Serif" font-size="10.00"> </text>
<polyline fill="none" stroke="black" points="127.5,-190.5 187.5,-190.5 "/>
<text text-anchor="middle" x="157.5" y="-178.5" font-family="Helvetica,sans-Serif" font-size="10.00"> </text>
</a>
</g>
</g>
<!-- Node4&#45;&gt;Node1 -->
<g id="edge3" class="edge">
<title>Node4&#45;&gt;Node1</title>
<path fill="none" stroke="#404040" d="M149.69,-171.38C145.89,-157.92 141.13,-141.09 136.45,-124.53"/>
<polygon fill="none" stroke="#404040" points="136.33,-124.12 130.85,-119.44 133.07,-112.57 138.55,-117.26 136.33,-124.12"/>
<text text-anchor="middle" x="172.5" y="-139.5" font-family="Helvetica,sans-Serif" font-size="10.00"> +EpanoxRec</text>
</g>
<!-- Node5 -->
<g id="node5" class="node">
<title>Node5</title>
<g id="a_node5"><a xlink:title=" ">
<polygon fill="none" stroke="black" points="223,-171.5 223,-228.5 258,-228.5 258,-171.5 223,-171.5"/>
<text text-anchor="middle" x="240.5" y="-216.5" font-family="Helvetica,sans-Serif" font-size="10.00">bool</text>
<polyline fill="none" stroke="black" points="223,-209.5 258,-209.5 "/>
<text text-anchor="middle" x="240.5" y="-197.5" font-family="Helvetica,sans-Serif" font-size="10.00"> </text>
<polyline fill="none" stroke="black" points="223,-190.5 258,-190.5 "/>
<text text-anchor="middle" x="240.5" y="-178.5" font-family="Helvetica,sans-Serif" font-size="10.00"> </text>
</a>
</g>
</g>
<!-- Node5&#45;&gt;Node1 -->
<g id="edge4" class="edge">
<title>Node5&#45;&gt;Node1</title>
<path fill="none" stroke="#404040" d="M229.82,-171.32C224.04,-158.33 216.11,-143.08 206.5,-131 196.16,-118 183.19,-105.72 170.37,-95.05"/>
<polygon fill="none" stroke="#404040" points="169.99,-94.74 162.81,-94.1 160.65,-87.22 167.83,-87.86 169.99,-94.74"/>
<text text-anchor="middle" x="259" y="-139.5" font-family="Helvetica,sans-Serif" font-size="10.00"> +EpanoxCollision</text>
</g>
</g>
</svg>
