<?xml version="1.0" encoding="UTF-8" standalone="no"?>
<!DOCTYPE svg PUBLIC "-//W3C//DTD SVG 1.1//EN"
 "http://www.w3.org/Graphics/SVG/1.1/DTD/svg11.dtd">
<!-- Generated by graphviz version 3.0.0 (20220226.1711)
 -->
<!-- Title: Game::GameCharacter Pages: 1 -->
<svg width="282pt" height="402pt"
 viewBox="0.00 0.00 281.50 402.00" xmlns="http://www.w3.org/2000/svg" xmlns:xlink="http://www.w3.org/1999/xlink">
<g id="graph0" class="graph" transform="scale(1 1) rotate(0) translate(4 398)">
<title>Game::GameCharacter</title>
<!-- Node1 -->
<g id="node1" class="node">
<title>Node1</title>
<g id="a_node1"><a xlink:title=" ">
<polygon fill="#bfbfbf" stroke="black" points="73,-0.5 73,-233.5 190,-233.5 190,-0.5 73,-0.5"/>
<text text-anchor="middle" x="131.5" y="-221.5" font-family="Helvetica,sans-Serif" font-size="10.00">Game::GameCharacter</text>
<polyline fill="none" stroke="black" points="73,-214.5 190,-214.5 "/>
<text text-anchor="middle" x="131.5" y="-202.5" font-family="Helvetica,sans-Serif" font-size="10.00"> </text>
<polyline fill="none" stroke="black" points="73,-195.5 190,-195.5 "/>
<text text-anchor="start" x="81" y="-183.5" font-family="Helvetica,sans-Serif" font-size="10.00">+ GameCharacter()</text>
<text text-anchor="start" x="81" y="-172.5" font-family="Helvetica,sans-Serif" font-size="10.00">+ get_Name()</text>
<text text-anchor="start" x="81" y="-161.5" font-family="Helvetica,sans-Serif" font-size="10.00">+ attack()</text>
<text text-anchor="start" x="81" y="-150.5" font-family="Helvetica,sans-Serif" font-size="10.00">+ getDamage()</text>
<text text-anchor="start" x="81" y="-139.5" font-family="Helvetica,sans-Serif" font-size="10.00">+ updateCharacter()</text>
<text text-anchor="start" x="81" y="-128.5" font-family="Helvetica,sans-Serif" font-size="10.00">+ getLives()</text>
<text text-anchor="start" x="81" y="-117.5" font-family="Helvetica,sans-Serif" font-size="10.00">+ getArmor()</text>
<text text-anchor="start" x="81" y="-106.5" font-family="Helvetica,sans-Serif" font-size="10.00">+ getStrength()</text>
<text text-anchor="start" x="81" y="-95.5" font-family="Helvetica,sans-Serif" font-size="10.00">+ getDefense()</text>
<text text-anchor="start" x="81" y="-84.5" font-family="Helvetica,sans-Serif" font-size="10.00">+ get_rec()</text>
<text text-anchor="start" x="81" y="-73.5" font-family="Helvetica,sans-Serif" font-size="10.00">+ set_rec()</text>
<text text-anchor="start" x="81" y="-62.5" font-family="Helvetica,sans-Serif" font-size="10.00">+ heal()</text>
<text text-anchor="start" x="81" y="-51.5" font-family="Helvetica,sans-Serif" font-size="10.00">+ get_turnnumb()</text>
<text text-anchor="start" x="81" y="-40.5" font-family="Helvetica,sans-Serif" font-size="10.00">+ set_turnnumb()</text>
<text text-anchor="start" x="81" y="-29.5" font-family="Helvetica,sans-Serif" font-size="10.00">+ draw()</text>
<text text-anchor="start" x="81" y="-18.5" font-family="Helvetica,sans-Serif" font-size="10.00">+ ~GameCharacter()</text>
<text text-anchor="start" x="81" y="-7.5" font-family="Helvetica,sans-Serif" font-size="10.00"># getDamageNumber()</text>
</a>
</g>
</g>
<!-- Node2 -->
<g id="node2" class="node">
<title>Node2</title>
<g id="a_node2"><a xlink:title=" ">
<polygon fill="none" stroke="black" points="0,-336.5 0,-393.5 35,-393.5 35,-336.5 0,-336.5"/>
<text text-anchor="middle" x="17.5" y="-381.5" font-family="Helvetica,sans-Serif" font-size="10.00">bool</text>
<polyline fill="none" stroke="black" points="0,-374.5 35,-374.5 "/>
<text text-anchor="middle" x="17.5" y="-362.5" font-family="Helvetica,sans-Serif" font-size="10.00"> </text>
<polyline fill="none" stroke="black" points="0,-355.5 35,-355.5 "/>
<text text-anchor="middle" x="17.5" y="-343.5" font-family="Helvetica,sans-Serif" font-size="10.00"> </text>
</a>
</g>
</g>
<!-- Node2&#45;&gt;Node1 -->
<g id="edge1" class="edge">
<title>Node2&#45;&gt;Node1</title>
<path fill="none" stroke="#404040" d="M17.74,-336.33C18.81,-313.05 22.39,-279.29 33.5,-252 41.62,-232.07 53.34,-212.36 65.87,-194.45"/>
<polygon fill="none" stroke="#404040" points="65.88,-194.43 66.14,-187.22 72.89,-184.69 72.63,-191.9 65.88,-194.43"/>
<text text-anchor="middle" x="58" y="-282.5" font-family="Helvetica,sans-Serif" font-size="10.00"> +damaged</text>
</g>
<!-- Node3 -->
<g id="node3" class="node">
<title>Node3</title>
<g id="a_node3"><a xlink:title=" ">
<polygon fill="none" stroke="black" points="75,-336.5 75,-393.5 104,-393.5 104,-336.5 75,-336.5"/>
<text text-anchor="middle" x="89.5" y="-381.5" font-family="Helvetica,sans-Serif" font-size="10.00">int</text>
<polyline fill="none" stroke="black" points="75,-374.5 104,-374.5 "/>
<text text-anchor="middle" x="89.5" y="-362.5" font-family="Helvetica,sans-Serif" font-size="10.00"> </text>
<polyline fill="none" stroke="black" points="75,-355.5 104,-355.5 "/>
<text text-anchor="middle" x="89.5" y="-343.5" font-family="Helvetica,sans-Serif" font-size="10.00"> </text>
</a>
</g>
</g>
<!-- Node3&#45;&gt;Node1 -->
<g id="edge2" class="edge">
<title>Node3&#45;&gt;Node1</title>
<path fill="none" stroke="#404040" d="M87.54,-336.2C86.47,-313.43 86.12,-280.44 90.5,-252 90.82,-249.93 91.16,-247.86 91.53,-245.77"/>
<polygon fill="none" stroke="#404040" points="91.58,-245.51 88.79,-238.86 93.86,-233.73 96.65,-240.38 91.58,-245.51"/>
<text text-anchor="middle" x="121.5" y="-310" font-family="Helvetica,sans-Serif" font-size="10.00"> #c_DEF</text>
<text text-anchor="middle" x="121.5" y="-299" font-family="Helvetica,sans-Serif" font-size="10.00">#c_HP</text>
<text text-anchor="middle" x="121.5" y="-288" font-family="Helvetica,sans-Serif" font-size="10.00">#c_MaxHP</text>
<text text-anchor="middle" x="121.5" y="-277" font-family="Helvetica,sans-Serif" font-size="10.00">#c_STR</text>
<text text-anchor="middle" x="121.5" y="-266" font-family="Helvetica,sans-Serif" font-size="10.00">#c_timeattack</text>
<text text-anchor="middle" x="121.5" y="-255" font-family="Helvetica,sans-Serif" font-size="10.00">#turnnumb</text>
</g>
<!-- Node4 -->
<g id="node4" class="node">
<title>Node4</title>
<g id="a_node4"><a xlink:title=" ">
<polygon fill="none" stroke="black" points="154,-336.5 154,-393.5 195,-393.5 195,-336.5 154,-336.5"/>
<text text-anchor="middle" x="174.5" y="-381.5" font-family="Helvetica,sans-Serif" font-size="10.00">string</text>
<polyline fill="none" stroke="black" points="154,-374.5 195,-374.5 "/>
<text text-anchor="middle" x="174.5" y="-362.5" font-family="Helvetica,sans-Serif" font-size="10.00"> </text>
<polyline fill="none" stroke="black" points="154,-355.5 195,-355.5 "/>
<text text-anchor="middle" x="174.5" y="-343.5" font-family="Helvetica,sans-Serif" font-size="10.00"> </text>
</a>
</g>
</g>
<!-- Node4&#45;&gt;Node1 -->
<g id="edge3" class="edge">
<title>Node4&#45;&gt;Node1</title>
<path fill="none" stroke="#404040" d="M169.65,-336.26C165.69,-313.61 159.79,-279.86 153.81,-245.63"/>
<polygon fill="none" stroke="#404040" points="153.76,-245.34 148.78,-240.12 151.69,-233.52 156.67,-238.74 153.76,-245.34"/>
<text text-anchor="middle" x="182" y="-282.5" font-family="Helvetica,sans-Serif" font-size="10.00"> #name</text>
</g>
<!-- Node5 -->
<g id="node5" class="node">
<title>Node5</title>
<g id="a_node5"><a xlink:title=" ">
<polygon fill="none" stroke="black" points="213.5,-336.5 213.5,-393.5 273.5,-393.5 273.5,-336.5 213.5,-336.5"/>
<text text-anchor="middle" x="243.5" y="-381.5" font-family="Helvetica,sans-Serif" font-size="10.00">Rectangle</text>
<polyline fill="none" stroke="black" points="213.5,-374.5 273.5,-374.5 "/>
<text text-anchor="middle" x="243.5" y="-362.5" font-family="Helvetica,sans-Serif" font-size="10.00"> </text>
<polyline fill="none" stroke="black" points="213.5,-355.5 273.5,-355.5 "/>
<text text-anchor="middle" x="243.5" y="-343.5" font-family="Helvetica,sans-Serif" font-size="10.00"> </text>
</a>
</g>
</g>
<!-- Node5&#45;&gt;Node1 -->
<g id="edge4" class="edge">
<title>Node5&#45;&gt;Node1</title>
<path fill="none" stroke="#404040" d="M234.58,-336.43C226.88,-313.5 215.05,-280.18 202.5,-252 200.27,-246.99 197.93,-241.92 195.52,-236.81"/>
<polygon fill="none" stroke="#404040" points="195.34,-236.43 189.13,-232.75 190.14,-225.61 196.34,-229.29 195.34,-236.43"/>
<text text-anchor="middle" x="237.5" y="-282.5" font-family="Helvetica,sans-Serif" font-size="10.00"> #rec</text>
</g>
</g>
</svg>
