<?xml version="1.0" encoding="UTF-8" standalone="no"?>
<!DOCTYPE svg PUBLIC "-//W3C//DTD SVG 1.1//EN"
 "http://www.w3.org/Graphics/SVG/1.1/DTD/svg11.dtd">
<!-- Generated by graphviz version 3.0.0 (20220226.1711)
 -->
<!-- Title: Game::Nemo Pages: 1 -->
<svg width="606pt" height="281pt"
 viewBox="0.00 0.00 605.50 281.00" xmlns="http://www.w3.org/2000/svg" xmlns:xlink="http://www.w3.org/1999/xlink">
<g id="graph0" class="graph" transform="scale(1 1) rotate(0) translate(4 277)">
<title>Game::Nemo</title>
<!-- Node1 -->
<g id="node1" class="node">
<title>Node1</title>
<g id="a_node1"><a xlink:title=" ">
<polygon fill="#bfbfbf" stroke="black" points="250.5,-0.5 250.5,-79.5 324.5,-79.5 324.5,-0.5 250.5,-0.5"/>
<text text-anchor="middle" x="287.5" y="-67.5" font-family="Helvetica,sans-Serif" font-size="10.00">Game::Nemo</text>
<polyline fill="none" stroke="black" points="250.5,-60.5 324.5,-60.5 "/>
<text text-anchor="middle" x="287.5" y="-48.5" font-family="Helvetica,sans-Serif" font-size="10.00"> </text>
<polyline fill="none" stroke="black" points="250.5,-41.5 324.5,-41.5 "/>
<text text-anchor="start" x="258.5" y="-29.5" font-family="Helvetica,sans-Serif" font-size="10.00">+ Update()</text>
<text text-anchor="start" x="258.5" y="-18.5" font-family="Helvetica,sans-Serif" font-size="10.00">+ Draw()</text>
<text text-anchor="start" x="258.5" y="-7.5" font-family="Helvetica,sans-Serif" font-size="10.00">+ ~Nemo()</text>
</a>
</g>
</g>
<!-- Node2 -->
<g id="node2" class="node">
<title>Node2</title>
<g id="a_node2"><a xlink:title=" ">
<polygon fill="none" stroke="black" points="0,-215.5 0,-272.5 29,-272.5 29,-215.5 0,-215.5"/>
<text text-anchor="middle" x="14.5" y="-260.5" font-family="Helvetica,sans-Serif" font-size="10.00">int</text>
<polyline fill="none" stroke="black" points="0,-253.5 29,-253.5 "/>
<text text-anchor="middle" x="14.5" y="-241.5" font-family="Helvetica,sans-Serif" font-size="10.00"> </text>
<polyline fill="none" stroke="black" points="0,-234.5 29,-234.5 "/>
<text text-anchor="middle" x="14.5" y="-222.5" font-family="Helvetica,sans-Serif" font-size="10.00"> </text>
</a>
</g>
</g>
<!-- Node2&#45;&gt;Node1 -->
<g id="edge1" class="edge">
<title>Node2&#45;&gt;Node1</title>
<path fill="none" stroke="#404040" d="M7.97,-215.27C2.16,-183.02 -1.62,-130.12 26.5,-98 53.86,-66.75 170.69,-51.33 238.41,-44.88"/>
<polygon fill="none" stroke="#404040" points="238.49,-44.87 244.11,-40.34 250.45,-43.78 244.83,-48.31 238.49,-44.87"/>
<text text-anchor="middle" x="61.5" y="-161.5" font-family="Helvetica,sans-Serif" font-size="10.00"> +HP</text>
<text text-anchor="middle" x="61.5" y="-150.5" font-family="Helvetica,sans-Serif" font-size="10.00">+currentFrame</text>
<text text-anchor="middle" x="61.5" y="-139.5" font-family="Helvetica,sans-Serif" font-size="10.00">+framesCounter</text>
<text text-anchor="middle" x="61.5" y="-128.5" font-family="Helvetica,sans-Serif" font-size="10.00">+framesSpeed</text>
</g>
<!-- Node3 -->
<g id="node3" class="node">
<title>Node3</title>
<g id="a_node3"><a xlink:title=" ">
<polygon fill="none" stroke="black" points="90,-215.5 90,-272.5 125,-272.5 125,-215.5 90,-215.5"/>
<text text-anchor="middle" x="107.5" y="-260.5" font-family="Helvetica,sans-Serif" font-size="10.00">float</text>
<polyline fill="none" stroke="black" points="90,-253.5 125,-253.5 "/>
<text text-anchor="middle" x="107.5" y="-241.5" font-family="Helvetica,sans-Serif" font-size="10.00"> </text>
<polyline fill="none" stroke="black" points="90,-234.5 125,-234.5 "/>
<text text-anchor="middle" x="107.5" y="-222.5" font-family="Helvetica,sans-Serif" font-size="10.00"> </text>
</a>
</g>
</g>
<!-- Node3&#45;&gt;Node1 -->
<g id="edge2" class="edge">
<title>Node3&#45;&gt;Node1</title>
<path fill="none" stroke="#404040" d="M102.51,-215.46C98.38,-183.63 96.9,-131.37 123.5,-98 151.02,-63.48 200.72,-49.81 238.22,-44.42"/>
<polygon fill="none" stroke="#404040" points="238.51,-44.38 243.97,-39.67 250.42,-42.89 244.96,-47.61 238.51,-44.38"/>
<text text-anchor="middle" x="155.5" y="-161.5" font-family="Helvetica,sans-Serif" font-size="10.00"> +nemoheight</text>
<text text-anchor="middle" x="155.5" y="-150.5" font-family="Helvetica,sans-Serif" font-size="10.00">+nemowidth</text>
<text text-anchor="middle" x="155.5" y="-139.5" font-family="Helvetica,sans-Serif" font-size="10.00">+timesinceIdle</text>
<text text-anchor="middle" x="155.5" y="-128.5" font-family="Helvetica,sans-Serif" font-size="10.00">+walkspeed</text>
</g>
<!-- Node4 -->
<g id="node4" class="node">
<title>Node4</title>
<g id="a_node4"><a xlink:title=" ">
<polygon fill="none" stroke="black" points="169.5,-215.5 169.5,-272.5 219.5,-272.5 219.5,-215.5 169.5,-215.5"/>
<text text-anchor="middle" x="194.5" y="-260.5" font-family="Helvetica,sans-Serif" font-size="10.00">Vector2</text>
<polyline fill="none" stroke="black" points="169.5,-253.5 219.5,-253.5 "/>
<text text-anchor="middle" x="194.5" y="-241.5" font-family="Helvetica,sans-Serif" font-size="10.00"> </text>
<polyline fill="none" stroke="black" points="169.5,-234.5 219.5,-234.5 "/>
<text text-anchor="middle" x="194.5" y="-222.5" font-family="Helvetica,sans-Serif" font-size="10.00"> </text>
</a>
</g>
</g>
<!-- Node4&#45;&gt;Node1 -->
<g id="edge3" class="edge">
<title>Node4&#45;&gt;Node1</title>
<path fill="none" stroke="#404040" d="M192.1,-215.38C190.73,-184.65 192.47,-134.52 213.5,-98 220.13,-86.49 230.09,-76.51 240.58,-68.25"/>
<polygon fill="none" stroke="#404040" points="240.59,-68.25 243.07,-61.48 250.27,-61.17 247.79,-67.94 240.59,-68.25"/>
<text text-anchor="middle" x="248.5" y="-145" font-family="Helvetica,sans-Serif" font-size="10.00"> +NemoPosition</text>
</g>
<!-- Node5 -->
<g id="node5" class="node">
<title>Node5</title>
<g id="a_node5"><a xlink:title=" ">
<polygon fill="none" stroke="black" points="270,-215.5 270,-272.5 305,-272.5 305,-215.5 270,-215.5"/>
<text text-anchor="middle" x="287.5" y="-260.5" font-family="Helvetica,sans-Serif" font-size="10.00">bool</text>
<polyline fill="none" stroke="black" points="270,-253.5 305,-253.5 "/>
<text text-anchor="middle" x="287.5" y="-241.5" font-family="Helvetica,sans-Serif" font-size="10.00"> </text>
<polyline fill="none" stroke="black" points="270,-234.5 305,-234.5 "/>
<text text-anchor="middle" x="287.5" y="-222.5" font-family="Helvetica,sans-Serif" font-size="10.00"> </text>
</a>
</g>
</g>
<!-- Node5&#45;&gt;Node1 -->
<g id="edge4" class="edge">
<title>Node5&#45;&gt;Node1</title>
<path fill="none" stroke="#404040" d="M287.5,-215.34C287.5,-183.65 287.5,-131.07 287.5,-91.92"/>
<polygon fill="none" stroke="#404040" points="287.5,-91.73 283.5,-85.73 287.5,-79.73 291.5,-85.73 287.5,-91.73"/>
<text text-anchor="middle" x="316" y="-167" font-family="Helvetica,sans-Serif" font-size="10.00"> +active</text>
<text text-anchor="middle" x="316" y="-156" font-family="Helvetica,sans-Serif" font-size="10.00">+alive</text>
<text text-anchor="middle" x="316" y="-145" font-family="Helvetica,sans-Serif" font-size="10.00">+keypressed</text>
<text text-anchor="middle" x="316" y="-134" font-family="Helvetica,sans-Serif" font-size="10.00">+sound</text>
<text text-anchor="middle" x="316" y="-123" font-family="Helvetica,sans-Serif" font-size="10.00">+standing</text>
</g>
<!-- Node6 -->
<g id="node6" class="node">
<title>Node6</title>
<g id="a_node6"><a xlink:title=" ">
<polygon fill="none" stroke="black" points="339,-215.5 339,-272.5 392,-272.5 392,-215.5 339,-215.5"/>
<text text-anchor="middle" x="365.5" y="-260.5" font-family="Helvetica,sans-Serif" font-size="10.00">direction</text>
<polyline fill="none" stroke="black" points="339,-253.5 392,-253.5 "/>
<text text-anchor="middle" x="365.5" y="-241.5" font-family="Helvetica,sans-Serif" font-size="10.00"> </text>
<polyline fill="none" stroke="black" points="339,-234.5 392,-234.5 "/>
<text text-anchor="middle" x="365.5" y="-222.5" font-family="Helvetica,sans-Serif" font-size="10.00"> </text>
</a>
</g>
</g>
<!-- Node6&#45;&gt;Node1 -->
<g id="edge5" class="edge">
<title>Node6&#45;&gt;Node1</title>
<path fill="none" stroke="#404040" d="M366.85,-215.26C367.19,-184.87 364.32,-135.47 345.5,-98 342.13,-91.29 337.66,-84.92 332.69,-79.02"/>
<polygon fill="none" stroke="#404040" points="332.68,-79 325.67,-77.29 324.56,-70.17 331.56,-71.88 332.68,-79"/>
<text text-anchor="middle" x="390.5" y="-145" font-family="Helvetica,sans-Serif" font-size="10.00"> +Direction</text>
</g>
<!-- Node7 -->
<g id="node7" class="node">
<title>Node7</title>
<g id="a_node7"><a xlink:title=" ">
<polygon fill="none" stroke="black" points="410,-215.5 410,-272.5 471,-272.5 471,-215.5 410,-215.5"/>
<text text-anchor="middle" x="440.5" y="-260.5" font-family="Helvetica,sans-Serif" font-size="10.00">Texture2D</text>
<polyline fill="none" stroke="black" points="410,-253.5 471,-253.5 "/>
<text text-anchor="middle" x="440.5" y="-241.5" font-family="Helvetica,sans-Serif" font-size="10.00"> </text>
<polyline fill="none" stroke="black" points="410,-234.5 471,-234.5 "/>
<text text-anchor="middle" x="440.5" y="-222.5" font-family="Helvetica,sans-Serif" font-size="10.00"> </text>
</a>
</g>
</g>
<!-- Node7&#45;&gt;Node1 -->
<g id="edge6" class="edge">
<title>Node7&#45;&gt;Node1</title>
<path fill="none" stroke="#404040" d="M443.73,-215.4C445.9,-183.76 444.57,-131.91 418.5,-98 398.66,-72.19 364.73,-57.87 336.37,-50.03"/>
<polygon fill="none" stroke="#404040" points="336.25,-50 329.45,-52.4 324.62,-47.05 331.41,-44.65 336.25,-50"/>
<text text-anchor="middle" x="465" y="-189" font-family="Helvetica,sans-Serif" font-size="10.00"> +Back</text>
<text text-anchor="middle" x="465" y="-178" font-family="Helvetica,sans-Serif" font-size="10.00">+BackStil</text>
<text text-anchor="middle" x="465" y="-167" font-family="Helvetica,sans-Serif" font-size="10.00">+Front</text>
<text text-anchor="middle" x="465" y="-156" font-family="Helvetica,sans-Serif" font-size="10.00">+FrontStil</text>
<text text-anchor="middle" x="465" y="-145" font-family="Helvetica,sans-Serif" font-size="10.00">+Left</text>
<text text-anchor="middle" x="465" y="-134" font-family="Helvetica,sans-Serif" font-size="10.00">+LeftStil</text>
<text text-anchor="middle" x="465" y="-123" font-family="Helvetica,sans-Serif" font-size="10.00">+Right</text>
<text text-anchor="middle" x="465" y="-112" font-family="Helvetica,sans-Serif" font-size="10.00">+RightStil</text>
<text text-anchor="middle" x="465" y="-101" font-family="Helvetica,sans-Serif" font-size="10.00">+Stand</text>
</g>
<!-- Node8 -->
<g id="node8" class="node">
<title>Node8</title>
<g id="a_node8"><a xlink:title=" ">
<polygon fill="none" stroke="black" points="489.5,-215.5 489.5,-272.5 549.5,-272.5 549.5,-215.5 489.5,-215.5"/>
<text text-anchor="middle" x="519.5" y="-260.5" font-family="Helvetica,sans-Serif" font-size="10.00">Rectangle</text>
<polyline fill="none" stroke="black" points="489.5,-253.5 549.5,-253.5 "/>
<text text-anchor="middle" x="519.5" y="-241.5" font-family="Helvetica,sans-Serif" font-size="10.00"> </text>
<polyline fill="none" stroke="black" points="489.5,-234.5 549.5,-234.5 "/>
<text text-anchor="middle" x="519.5" y="-222.5" font-family="Helvetica,sans-Serif" font-size="10.00"> </text>
</a>
</g>
</g>
<!-- Node8&#45;&gt;Node1 -->
<g id="edge7" class="edge">
<title>Node8&#45;&gt;Node1</title>
<path fill="none" stroke="#404040" d="M521.93,-215.46C523.2,-183.14 520.07,-129.92 490.5,-98 451.19,-55.57 383.07,-43.8 336.68,-41.01"/>
<polygon fill="none" stroke="#404040" points="336.49,-41 330.32,-44.72 324.51,-40.45 330.68,-36.73 336.49,-41"/>
<text text-anchor="middle" x="559.5" y="-156" font-family="Helvetica,sans-Serif" font-size="10.00"> +StandframeRec</text>
<text text-anchor="middle" x="559.5" y="-145" font-family="Helvetica,sans-Serif" font-size="10.00">+frameRec</text>
<text text-anchor="middle" x="559.5" y="-134" font-family="Helvetica,sans-Serif" font-size="10.00">+nemorec</text>
</g>
</g>
</svg>
