<?xml version="1.0" encoding="UTF-8" standalone="no"?>
<!DOCTYPE svg PUBLIC "-//W3C//DTD SVG 1.1//EN"
 "http://www.w3.org/Graphics/SVG/1.1/DTD/svg11.dtd">
<!-- Generated by graphviz version 3.0.0 (20220226.1711)
 -->
<!-- Title: Game::Pharaoh Pages: 1 -->
<svg width="497pt" height="639pt"
 viewBox="0.00 0.00 497.12 639.00" xmlns="http://www.w3.org/2000/svg" xmlns:xlink="http://www.w3.org/1999/xlink">
<g id="graph0" class="graph" transform="scale(1 1) rotate(0) translate(4 635)">
<title>Game::Pharaoh</title>
<!-- Node1 -->
<g id="node1" class="node">
<title>Node1</title>
<g id="a_node1"><a xlink:title=" ">
<polygon fill="#bfbfbf" stroke="black" points="244.12,-0.5 244.12,-156.5 347.12,-156.5 347.12,-0.5 244.12,-0.5"/>
<text text-anchor="middle" x="295.62" y="-144.5" font-family="Helvetica,sans-Serif" font-size="10.00">Game::Pharaoh</text>
<polyline fill="none" stroke="black" points="244.12,-137.5 347.12,-137.5 "/>
<text text-anchor="middle" x="295.62" y="-125.5" font-family="Helvetica,sans-Serif" font-size="10.00"> </text>
<polyline fill="none" stroke="black" points="244.12,-118.5 347.12,-118.5 "/>
<text text-anchor="start" x="252.12" y="-106.5" font-family="Helvetica,sans-Serif" font-size="10.00">+ Pharaoh()</text>
<text text-anchor="start" x="252.12" y="-95.5" font-family="Helvetica,sans-Serif" font-size="10.00">+ attack()</text>
<text text-anchor="start" x="252.12" y="-84.5" font-family="Helvetica,sans-Serif" font-size="10.00">+ getDamage()</text>
<text text-anchor="start" x="252.12" y="-73.5" font-family="Helvetica,sans-Serif" font-size="10.00">+ get_turnnumb()</text>
<text text-anchor="start" x="252.12" y="-62.5" font-family="Helvetica,sans-Serif" font-size="10.00">+ updateCharacter()</text>
<text text-anchor="start" x="252.12" y="-51.5" font-family="Helvetica,sans-Serif" font-size="10.00">+ getStrength()</text>
<text text-anchor="start" x="252.12" y="-40.5" font-family="Helvetica,sans-Serif" font-size="10.00">+ getDefense()</text>
<text text-anchor="start" x="252.12" y="-29.5" font-family="Helvetica,sans-Serif" font-size="10.00">+ get_rec()</text>
<text text-anchor="start" x="252.12" y="-18.5" font-family="Helvetica,sans-Serif" font-size="10.00">+ set_rec()</text>
<text text-anchor="start" x="252.12" y="-7.5" font-family="Helvetica,sans-Serif" font-size="10.00">+ draw()</text>
</a>
</g>
</g>
<!-- Node2 -->
<g id="node2" class="node">
<title>Node2</title>
<g id="a_node2"><a xlink:href="class_game_1_1_game_character.html" target="_top" xlink:title=" ">
<polygon fill="none" stroke="black" points="128.12,-237.5 128.12,-470.5 245.12,-470.5 245.12,-237.5 128.12,-237.5"/>
<text text-anchor="middle" x="186.62" y="-458.5" font-family="Helvetica,sans-Serif" font-size="10.00">Game::GameCharacter</text>
<polyline fill="none" stroke="black" points="128.12,-451.5 245.12,-451.5 "/>
<text text-anchor="middle" x="186.62" y="-439.5" font-family="Helvetica,sans-Serif" font-size="10.00"> </text>
<polyline fill="none" stroke="black" points="128.12,-432.5 245.12,-432.5 "/>
<text text-anchor="start" x="136.12" y="-420.5" font-family="Helvetica,sans-Serif" font-size="10.00">+ GameCharacter()</text>
<text text-anchor="start" x="136.12" y="-409.5" font-family="Helvetica,sans-Serif" font-size="10.00">+ get_Name()</text>
<text text-anchor="start" x="136.12" y="-398.5" font-family="Helvetica,sans-Serif" font-size="10.00">+ attack()</text>
<text text-anchor="start" x="136.12" y="-387.5" font-family="Helvetica,sans-Serif" font-size="10.00">+ getDamage()</text>
<text text-anchor="start" x="136.12" y="-376.5" font-family="Helvetica,sans-Serif" font-size="10.00">+ updateCharacter()</text>
<text text-anchor="start" x="136.12" y="-365.5" font-family="Helvetica,sans-Serif" font-size="10.00">+ getLives()</text>
<text text-anchor="start" x="136.12" y="-354.5" font-family="Helvetica,sans-Serif" font-size="10.00">+ getArmor()</text>
<text text-anchor="start" x="136.12" y="-343.5" font-family="Helvetica,sans-Serif" font-size="10.00">+ getStrength()</text>
<text text-anchor="start" x="136.12" y="-332.5" font-family="Helvetica,sans-Serif" font-size="10.00">+ getDefense()</text>
<text text-anchor="start" x="136.12" y="-321.5" font-family="Helvetica,sans-Serif" font-size="10.00">+ get_rec()</text>
<text text-anchor="start" x="136.12" y="-310.5" font-family="Helvetica,sans-Serif" font-size="10.00">+ set_rec()</text>
<text text-anchor="start" x="136.12" y="-299.5" font-family="Helvetica,sans-Serif" font-size="10.00">+ heal()</text>
<text text-anchor="start" x="136.12" y="-288.5" font-family="Helvetica,sans-Serif" font-size="10.00">+ get_turnnumb()</text>
<text text-anchor="start" x="136.12" y="-277.5" font-family="Helvetica,sans-Serif" font-size="10.00">+ set_turnnumb()</text>
<text text-anchor="start" x="136.12" y="-266.5" font-family="Helvetica,sans-Serif" font-size="10.00">+ draw()</text>
<text text-anchor="start" x="136.12" y="-255.5" font-family="Helvetica,sans-Serif" font-size="10.00">+ ~GameCharacter()</text>
<text text-anchor="start" x="136.12" y="-244.5" font-family="Helvetica,sans-Serif" font-size="10.00"># getDamageNumber()</text>
</a>
</g>
</g>
<!-- Node2&#45;&gt;Node1 -->
<g id="edge1" class="edge">
<title>Node2&#45;&gt;Node1</title>
<path fill="none" stroke="midnightblue" d="M236.4,-228.1C246.1,-203.75 256.01,-178.89 264.88,-156.65"/>
<polygon fill="none" stroke="midnightblue" points="233.14,-226.82 232.69,-237.41 239.64,-229.41 233.14,-226.82"/>
</g>
<!-- Node3 -->
<g id="node3" class="node">
<title>Node3</title>
<g id="a_node3"><a xlink:title=" ">
<polygon fill="none" stroke="black" points="169.12,-573.5 169.12,-630.5 204.12,-630.5 204.12,-573.5 169.12,-573.5"/>
<text text-anchor="middle" x="186.62" y="-618.5" font-family="Helvetica,sans-Serif" font-size="10.00">bool</text>
<polyline fill="none" stroke="black" points="169.12,-611.5 204.12,-611.5 "/>
<text text-anchor="middle" x="186.62" y="-599.5" font-family="Helvetica,sans-Serif" font-size="10.00"> </text>
<polyline fill="none" stroke="black" points="169.12,-592.5 204.12,-592.5 "/>
<text text-anchor="middle" x="186.62" y="-580.5" font-family="Helvetica,sans-Serif" font-size="10.00"> </text>
</a>
</g>
</g>
<!-- Node3&#45;&gt;Node2 -->
<g id="edge2" class="edge">
<title>Node3&#45;&gt;Node2</title>
<path fill="none" stroke="#404040" d="M186.62,-573.26C186.62,-550.61 186.62,-516.86 186.62,-482.63"/>
<polygon fill="none" stroke="#404040" points="186.62,-482.52 182.62,-476.52 186.62,-470.52 190.62,-476.52 186.62,-482.52"/>
<text text-anchor="middle" x="211.12" y="-519.5" font-family="Helvetica,sans-Serif" font-size="10.00"> +damaged</text>
</g>
<!-- Node4 -->
<g id="node4" class="node">
<title>Node4</title>
<g id="a_node4"><a xlink:title=" ">
<polygon fill="none" stroke="black" points="15.12,-573.5 15.12,-630.5 44.12,-630.5 44.12,-573.5 15.12,-573.5"/>
<text text-anchor="middle" x="29.62" y="-618.5" font-family="Helvetica,sans-Serif" font-size="10.00">int</text>
<polyline fill="none" stroke="black" points="15.12,-611.5 44.12,-611.5 "/>
<text text-anchor="middle" x="29.62" y="-599.5" font-family="Helvetica,sans-Serif" font-size="10.00"> </text>
<polyline fill="none" stroke="black" points="15.12,-592.5 44.12,-592.5 "/>
<text text-anchor="middle" x="29.62" y="-580.5" font-family="Helvetica,sans-Serif" font-size="10.00"> </text>
</a>
</g>
</g>
<!-- Node4&#45;&gt;Node1 -->
<g id="edge7" class="edge">
<title>Node4&#45;&gt;Node1</title>
<path fill="none" stroke="#404040" d="M21.9,-573.06C5.81,-508.7 -24.83,-347.08 38.62,-237 80.54,-164.27 170.83,-120.85 232.42,-98.56"/>
<polygon fill="none" stroke="#404040" points="232.63,-98.49 236.96,-92.72 243.95,-94.51 239.61,-100.27 232.63,-98.49"/>
<text text-anchor="middle" x="78.62" y="-384.5" font-family="Helvetica,sans-Serif" font-size="10.00"> +currentFrame</text>
<text text-anchor="middle" x="78.62" y="-373.5" font-family="Helvetica,sans-Serif" font-size="10.00">+framesCounter</text>
<text text-anchor="middle" x="78.62" y="-362.5" font-family="Helvetica,sans-Serif" font-size="10.00">+framesSpeed</text>
<text text-anchor="middle" x="78.62" y="-351.5" font-family="Helvetica,sans-Serif" font-size="10.00">+framescounter</text>
<text text-anchor="middle" x="78.62" y="-340.5" font-family="Helvetica,sans-Serif" font-size="10.00">+s_currentFrame</text>
<text text-anchor="middle" x="78.62" y="-329.5" font-family="Helvetica,sans-Serif" font-size="10.00">+s_framesCounter</text>
<text text-anchor="middle" x="78.62" y="-318.5" font-family="Helvetica,sans-Serif" font-size="10.00">+s_framesSpeed</text>
</g>
<!-- Node4&#45;&gt;Node2 -->
<g id="edge3" class="edge">
<title>Node4&#45;&gt;Node2</title>
<path fill="none" stroke="#404040" d="M35.7,-573.07C41.96,-549.01 53.54,-514.26 72.62,-489 80.66,-478.36 87.12,-480.35 96.62,-471 104.65,-463.11 112.58,-454.48 120.22,-445.62"/>
<polygon fill="none" stroke="#404040" points="120.32,-445.49 121.13,-438.32 128.06,-436.31 127.25,-443.48 120.32,-445.49"/>
<text text-anchor="middle" x="103.62" y="-547" font-family="Helvetica,sans-Serif" font-size="10.00"> #c_DEF</text>
<text text-anchor="middle" x="103.62" y="-536" font-family="Helvetica,sans-Serif" font-size="10.00">#c_HP</text>
<text text-anchor="middle" x="103.62" y="-525" font-family="Helvetica,sans-Serif" font-size="10.00">#c_MaxHP</text>
<text text-anchor="middle" x="103.62" y="-514" font-family="Helvetica,sans-Serif" font-size="10.00">#c_STR</text>
<text text-anchor="middle" x="103.62" y="-503" font-family="Helvetica,sans-Serif" font-size="10.00">#c_timeattack</text>
<text text-anchor="middle" x="103.62" y="-492" font-family="Helvetica,sans-Serif" font-size="10.00">#turnnumb</text>
</g>
<!-- Node5 -->
<g id="node5" class="node">
<title>Node5</title>
<g id="a_node5"><a xlink:title=" ">
<polygon fill="none" stroke="black" points="110.12,-573.5 110.12,-630.5 151.12,-630.5 151.12,-573.5 110.12,-573.5"/>
<text text-anchor="middle" x="130.62" y="-618.5" font-family="Helvetica,sans-Serif" font-size="10.00">string</text>
<polyline fill="none" stroke="black" points="110.12,-611.5 151.12,-611.5 "/>
<text text-anchor="middle" x="130.62" y="-599.5" font-family="Helvetica,sans-Serif" font-size="10.00"> </text>
<polyline fill="none" stroke="black" points="110.12,-592.5 151.12,-592.5 "/>
<text text-anchor="middle" x="130.62" y="-580.5" font-family="Helvetica,sans-Serif" font-size="10.00"> </text>
</a>
</g>
</g>
<!-- Node5&#45;&gt;Node2 -->
<g id="edge4" class="edge">
<title>Node5&#45;&gt;Node2</title>
<path fill="none" stroke="#404040" d="M134.53,-573.23C137.93,-550.47 143.29,-517.49 149.62,-489 150.1,-486.84 150.59,-484.66 151.1,-482.48"/>
<polygon fill="none" stroke="#404040" points="151.13,-482.34 148.62,-475.58 153.9,-470.66 156.41,-477.43 151.13,-482.34"/>
<text text-anchor="middle" x="166.12" y="-519.5" font-family="Helvetica,sans-Serif" font-size="10.00"> #name</text>
</g>
<!-- Node6 -->
<g id="node6" class="node">
<title>Node6</title>
<g id="a_node6"><a xlink:title=" ">
<polygon fill="none" stroke="black" points="246.62,-573.5 246.62,-630.5 306.62,-630.5 306.62,-573.5 246.62,-573.5"/>
<text text-anchor="middle" x="276.62" y="-618.5" font-family="Helvetica,sans-Serif" font-size="10.00">Rectangle</text>
<polyline fill="none" stroke="black" points="246.62,-611.5 306.62,-611.5 "/>
<text text-anchor="middle" x="276.62" y="-599.5" font-family="Helvetica,sans-Serif" font-size="10.00"> </text>
<polyline fill="none" stroke="black" points="246.62,-592.5 306.62,-592.5 "/>
<text text-anchor="middle" x="276.62" y="-580.5" font-family="Helvetica,sans-Serif" font-size="10.00"> </text>
</a>
</g>
</g>
<!-- Node6&#45;&gt;Node1 -->
<g id="edge9" class="edge">
<title>Node6&#45;&gt;Node1</title>
<path fill="none" stroke="#404040" d="M279.99,-573.3C280.62,-567.28 281.21,-560.93 281.62,-555 290.89,-420.62 294.03,-264.46 295.09,-168.82"/>
<polygon fill="none" stroke="#404040" points="295.09,-168.59 291.16,-162.55 295.22,-156.6 299.15,-162.64 295.09,-168.59"/>
<text text-anchor="middle" x="323.62" y="-373.5" font-family="Helvetica,sans-Serif" font-size="10.00"> +frameRec</text>
<text text-anchor="middle" x="323.62" y="-362.5" font-family="Helvetica,sans-Serif" font-size="10.00">+healthrec</text>
<text text-anchor="middle" x="323.62" y="-351.5" font-family="Helvetica,sans-Serif" font-size="10.00">+pharaohrec</text>
<text text-anchor="middle" x="323.62" y="-340.5" font-family="Helvetica,sans-Serif" font-size="10.00">+s_frameRec</text>
<text text-anchor="middle" x="323.62" y="-329.5" font-family="Helvetica,sans-Serif" font-size="10.00">+shadowrec</text>
</g>
<!-- Node6&#45;&gt;Node2 -->
<g id="edge5" class="edge">
<title>Node6&#45;&gt;Node2</title>
<path fill="none" stroke="#404040" d="M266.29,-573.3C264.07,-567.28 261.75,-560.93 259.62,-555 249.13,-525.76 247.16,-518.22 236.62,-489 235.82,-486.77 235,-484.51 234.18,-482.24"/>
<polygon fill="none" stroke="#404040" points="234.11,-482.07 228.3,-477.8 230.01,-470.79 235.82,-475.06 234.11,-482.07"/>
<text text-anchor="middle" x="270.62" y="-519.5" font-family="Helvetica,sans-Serif" font-size="10.00"> #rec</text>
</g>
<!-- Node7 -->
<g id="node7" class="node">
<title>Node7</title>
<g id="a_node7"><a xlink:title=" ">
<polygon fill="none" stroke="black" points="371.62,-325.5 371.62,-382.5 409.62,-382.5 409.62,-325.5 371.62,-325.5"/>
<text text-anchor="middle" x="390.62" y="-370.5" font-family="Helvetica,sans-Serif" font-size="10.00">state</text>
<polyline fill="none" stroke="black" points="371.62,-363.5 409.62,-363.5 "/>
<text text-anchor="middle" x="390.62" y="-351.5" font-family="Helvetica,sans-Serif" font-size="10.00"> </text>
<polyline fill="none" stroke="black" points="371.62,-344.5 409.62,-344.5 "/>
<text text-anchor="middle" x="390.62" y="-332.5" font-family="Helvetica,sans-Serif" font-size="10.00"> </text>
</a>
</g>
</g>
<!-- Node7&#45;&gt;Node1 -->
<g id="edge6" class="edge">
<title>Node7&#45;&gt;Node1</title>
<path fill="none" stroke="#404040" d="M383.51,-325.11C377.28,-301.46 367.68,-266.75 357.62,-237 349.97,-214.38 340.93,-190.24 332.15,-167.84"/>
<polygon fill="none" stroke="#404040" points="332.14,-167.81 326.22,-163.7 327.73,-156.65 333.66,-160.76 332.14,-167.81"/>
<text text-anchor="middle" x="366.12" y="-194.5" font-family="Helvetica,sans-Serif" font-size="10.00"> +State</text>
</g>
<!-- Node8 -->
<g id="node8" class="node">
<title>Node8</title>
<g id="a_node8"><a xlink:title=" ">
<polygon fill="none" stroke="black" points="428.12,-325.5 428.12,-382.5 489.12,-382.5 489.12,-325.5 428.12,-325.5"/>
<text text-anchor="middle" x="458.62" y="-370.5" font-family="Helvetica,sans-Serif" font-size="10.00">Texture2D</text>
<polyline fill="none" stroke="black" points="428.12,-363.5 489.12,-363.5 "/>
<text text-anchor="middle" x="458.62" y="-351.5" font-family="Helvetica,sans-Serif" font-size="10.00"> </text>
<polyline fill="none" stroke="black" points="428.12,-344.5 489.12,-344.5 "/>
<text text-anchor="middle" x="458.62" y="-332.5" font-family="Helvetica,sans-Serif" font-size="10.00"> </text>
</a>
</g>
</g>
<!-- Node8&#45;&gt;Node1 -->
<g id="edge8" class="edge">
<title>Node8&#45;&gt;Node1</title>
<path fill="none" stroke="#404040" d="M451.81,-325.4C441.8,-288.62 420.56,-222.65 386.62,-175 377.41,-162.07 366.52,-149.14 355.52,-137.15"/>
<polygon fill="none" stroke="#404040" points="355.33,-136.95 348.31,-135.3 347.12,-128.19 354.15,-129.83 355.33,-136.95"/>
<text text-anchor="middle" x="440.62" y="-211" font-family="Helvetica,sans-Serif" font-size="10.00"> +health</text>
<text text-anchor="middle" x="440.62" y="-200" font-family="Helvetica,sans-Serif" font-size="10.00">+healthbar</text>
<text text-anchor="middle" x="440.62" y="-189" font-family="Helvetica,sans-Serif" font-size="10.00">+shadow</text>
<text text-anchor="middle" x="440.62" y="-178" font-family="Helvetica,sans-Serif" font-size="10.00">+spr_pharaoh</text>
</g>
</g>
</svg>
