<?xml version="1.0" encoding="UTF-8" standalone="no"?>
<!DOCTYPE svg PUBLIC "-//W3C//DTD SVG 1.1//EN"
 "http://www.w3.org/Graphics/SVG/1.1/DTD/svg11.dtd">
<!-- Generated by graphviz version 3.0.0 (20220226.1711)
 -->
<!-- Title: Game::Nemo Pages: 1 -->
<svg width="116pt" height="215pt"
 viewBox="0.00 0.00 116.00 215.00" xmlns="http://www.w3.org/2000/svg" xmlns:xlink="http://www.w3.org/1999/xlink">
<g id="graph0" class="graph" transform="scale(1 1) rotate(0) translate(4 211)">
<title>Game::Nemo</title>
<!-- Node1 -->
<g id="node1" class="node">
<title>Node1</title>
<g id="a_node1"><a xlink:title=" ">
<polygon fill="#bfbfbf" stroke="black" points="8.5,-0.5 8.5,-68.5 82.5,-68.5 82.5,-0.5 8.5,-0.5"/>
<text text-anchor="middle" x="45.5" y="-56.5" font-family="Helvetica,sans-Serif" font-size="10.00">Game::Nemo</text>
<polyline fill="none" stroke="black" points="8.5,-49.5 82.5,-49.5 "/>
<text text-anchor="middle" x="45.5" y="-37.5" font-family="Helvetica,sans-Serif" font-size="10.00"> </text>
<polyline fill="none" stroke="black" points="8.5,-30.5 82.5,-30.5 "/>
<text text-anchor="start" x="16.5" y="-18.5" font-family="Helvetica,sans-Serif" font-size="10.00">+ Draw()</text>
<text text-anchor="start" x="16.5" y="-7.5" font-family="Helvetica,sans-Serif" font-size="10.00">+ Update()</text>
</a>
</g>
</g>
<!-- Node2 -->
<g id="node2" class="node">
<title>Node2</title>
<g id="a_node2"><a xlink:title=" ">
<polygon fill="none" stroke="black" points="0,-149.5 0,-206.5 29,-206.5 29,-149.5 0,-149.5"/>
<text text-anchor="middle" x="14.5" y="-194.5" font-family="Helvetica,sans-Serif" font-size="10.00">int</text>
<polyline fill="none" stroke="black" points="0,-187.5 29,-187.5 "/>
<text text-anchor="middle" x="14.5" y="-175.5" font-family="Helvetica,sans-Serif" font-size="10.00"> </text>
<polyline fill="none" stroke="black" points="0,-168.5 29,-168.5 "/>
<text text-anchor="middle" x="14.5" y="-156.5" font-family="Helvetica,sans-Serif" font-size="10.00"> </text>
</a>
</g>
</g>
<!-- Node2&#45;&gt;Node1 -->
<g id="edge1" class="edge">
<title>Node2&#45;&gt;Node1</title>
<path fill="none" stroke="#404040" d="M19.66,-149.35C23.08,-131.51 27.79,-107.83 32.5,-87 32.98,-84.87 33.49,-82.69 34.01,-80.49"/>
<polygon fill="none" stroke="#404040" points="34.04,-80.35 31.56,-73.58 36.86,-68.69 39.34,-75.46 34.04,-80.35"/>
<text text-anchor="middle" x="44" y="-106.5" font-family="Helvetica,sans-Serif" font-size="10.00"> +HP</text>
</g>
<!-- Node3 -->
<g id="node3" class="node">
<title>Node3</title>
<g id="a_node3"><a xlink:title=" ">
<polygon fill="none" stroke="black" points="47,-149.5 47,-206.5 108,-206.5 108,-149.5 47,-149.5"/>
<text text-anchor="middle" x="77.5" y="-194.5" font-family="Helvetica,sans-Serif" font-size="10.00">Texture2D</text>
<polyline fill="none" stroke="black" points="47,-187.5 108,-187.5 "/>
<text text-anchor="middle" x="77.5" y="-175.5" font-family="Helvetica,sans-Serif" font-size="10.00"> </text>
<polyline fill="none" stroke="black" points="47,-168.5 108,-168.5 "/>
<text text-anchor="middle" x="77.5" y="-156.5" font-family="Helvetica,sans-Serif" font-size="10.00"> </text>
</a>
</g>
</g>
<!-- Node3&#45;&gt;Node1 -->
<g id="edge2" class="edge">
<title>Node3&#45;&gt;Node1</title>
<path fill="none" stroke="#404040" d="M71.25,-149.38C66.81,-129.75 60.75,-102.95 55.63,-80.28"/>
<polygon fill="none" stroke="#404040" points="55.61,-80.22 50.39,-75.25 52.97,-68.52 58.19,-73.49 55.61,-80.22"/>
<text text-anchor="middle" x="81.5" y="-123" font-family="Helvetica,sans-Serif" font-size="10.00"> +Back</text>
<text text-anchor="middle" x="81.5" y="-112" font-family="Helvetica,sans-Serif" font-size="10.00">+Front</text>
<text text-anchor="middle" x="81.5" y="-101" font-family="Helvetica,sans-Serif" font-size="10.00">+Left</text>
<text text-anchor="middle" x="81.5" y="-90" font-family="Helvetica,sans-Serif" font-size="10.00">+Right</text>
</g>
</g>
</svg>
