<?xml version="1.0" encoding="UTF-8" standalone="no"?>
<!DOCTYPE svg PUBLIC "-//W3C//DTD SVG 1.1//EN"
 "http://www.w3.org/Graphics/SVG/1.1/DTD/svg11.dtd">
<!-- Generated by graphviz version 3.0.0 (20220226.1711)
 -->
<!-- Title: Game::Player Pages: 1 -->
<svg width="484pt" height="639pt"
 viewBox="0.00 0.00 483.92 639.00" xmlns="http://www.w3.org/2000/svg" xmlns:xlink="http://www.w3.org/1999/xlink">
<g id="graph0" class="graph" transform="scale(1 1) rotate(0) translate(4 635)">
<title>Game::Player</title>
<!-- Node1 -->
<g id="node1" class="node">
<title>Node1</title>
<g id="a_node1"><a xlink:title=" ">
<polygon fill="#bfbfbf" stroke="black" points="237.92,-0.5 237.92,-167.5 340.92,-167.5 340.92,-0.5 237.92,-0.5"/>
<text text-anchor="middle" x="289.42" y="-155.5" font-family="Helvetica,sans-Serif" font-size="10.00">Game::Player</text>
<polyline fill="none" stroke="black" points="237.92,-148.5 340.92,-148.5 "/>
<text text-anchor="middle" x="289.42" y="-136.5" font-family="Helvetica,sans-Serif" font-size="10.00"> </text>
<polyline fill="none" stroke="black" points="237.92,-129.5 340.92,-129.5 "/>
<text text-anchor="start" x="245.92" y="-117.5" font-family="Helvetica,sans-Serif" font-size="10.00">+ Player()</text>
<text text-anchor="start" x="245.92" y="-106.5" font-family="Helvetica,sans-Serif" font-size="10.00">+ attack()</text>
<text text-anchor="start" x="245.92" y="-95.5" font-family="Helvetica,sans-Serif" font-size="10.00">+ getDamage()</text>
<text text-anchor="start" x="245.92" y="-84.5" font-family="Helvetica,sans-Serif" font-size="10.00">+ get_turnnumb()</text>
<text text-anchor="start" x="245.92" y="-73.5" font-family="Helvetica,sans-Serif" font-size="10.00">+ getStrength()</text>
<text text-anchor="start" x="245.92" y="-62.5" font-family="Helvetica,sans-Serif" font-size="10.00">+ getDefense()</text>
<text text-anchor="start" x="245.92" y="-51.5" font-family="Helvetica,sans-Serif" font-size="10.00">+ updateCharacter()</text>
<text text-anchor="start" x="245.92" y="-40.5" font-family="Helvetica,sans-Serif" font-size="10.00">+ get_rec()</text>
<text text-anchor="start" x="245.92" y="-29.5" font-family="Helvetica,sans-Serif" font-size="10.00">+ set_rec()</text>
<text text-anchor="start" x="245.92" y="-18.5" font-family="Helvetica,sans-Serif" font-size="10.00">+ heal()</text>
<text text-anchor="start" x="245.92" y="-7.5" font-family="Helvetica,sans-Serif" font-size="10.00">+ draw()</text>
</a>
</g>
</g>
<!-- Node2 -->
<g id="node2" class="node">
<title>Node2</title>
<g id="a_node2"><a xlink:href="class_game_1_1_game_character.html" target="_top" xlink:title=" ">
<polygon fill="none" stroke="black" points="121.92,-237.5 121.92,-470.5 238.92,-470.5 238.92,-237.5 121.92,-237.5"/>
<text text-anchor="middle" x="180.42" y="-458.5" font-family="Helvetica,sans-Serif" font-size="10.00">Game::GameCharacter</text>
<polyline fill="none" stroke="black" points="121.92,-451.5 238.92,-451.5 "/>
<text text-anchor="middle" x="180.42" y="-439.5" font-family="Helvetica,sans-Serif" font-size="10.00"> </text>
<polyline fill="none" stroke="black" points="121.92,-432.5 238.92,-432.5 "/>
<text text-anchor="start" x="129.92" y="-420.5" font-family="Helvetica,sans-Serif" font-size="10.00">+ GameCharacter()</text>
<text text-anchor="start" x="129.92" y="-409.5" font-family="Helvetica,sans-Serif" font-size="10.00">+ get_Name()</text>
<text text-anchor="start" x="129.92" y="-398.5" font-family="Helvetica,sans-Serif" font-size="10.00">+ attack()</text>
<text text-anchor="start" x="129.92" y="-387.5" font-family="Helvetica,sans-Serif" font-size="10.00">+ getDamage()</text>
<text text-anchor="start" x="129.92" y="-376.5" font-family="Helvetica,sans-Serif" font-size="10.00">+ updateCharacter()</text>
<text text-anchor="start" x="129.92" y="-365.5" font-family="Helvetica,sans-Serif" font-size="10.00">+ getLives()</text>
<text text-anchor="start" x="129.92" y="-354.5" font-family="Helvetica,sans-Serif" font-size="10.00">+ getArmor()</text>
<text text-anchor="start" x="129.92" y="-343.5" font-family="Helvetica,sans-Serif" font-size="10.00">+ getStrength()</text>
<text text-anchor="start" x="129.92" y="-332.5" font-family="Helvetica,sans-Serif" font-size="10.00">+ getDefense()</text>
<text text-anchor="start" x="129.92" y="-321.5" font-family="Helvetica,sans-Serif" font-size="10.00">+ get_rec()</text>
<text text-anchor="start" x="129.92" y="-310.5" font-family="Helvetica,sans-Serif" font-size="10.00">+ set_rec()</text>
<text text-anchor="start" x="129.92" y="-299.5" font-family="Helvetica,sans-Serif" font-size="10.00">+ heal()</text>
<text text-anchor="start" x="129.92" y="-288.5" font-family="Helvetica,sans-Serif" font-size="10.00">+ get_turnnumb()</text>
<text text-anchor="start" x="129.92" y="-277.5" font-family="Helvetica,sans-Serif" font-size="10.00">+ set_turnnumb()</text>
<text text-anchor="start" x="129.92" y="-266.5" font-family="Helvetica,sans-Serif" font-size="10.00">+ draw()</text>
<text text-anchor="start" x="129.92" y="-255.5" font-family="Helvetica,sans-Serif" font-size="10.00">+ ~GameCharacter()</text>
<text text-anchor="start" x="129.92" y="-244.5" font-family="Helvetica,sans-Serif" font-size="10.00"># getDamageNumber()</text>
</a>
</g>
</g>
<!-- Node2&#45;&gt;Node1 -->
<g id="edge1" class="edge">
<title>Node2&#45;&gt;Node1</title>
<path fill="none" stroke="midnightblue" d="M231.26,-228C239.61,-207.47 248.07,-186.66 255.86,-167.51"/>
<polygon fill="none" stroke="midnightblue" points="227.96,-226.82 227.43,-237.4 234.44,-229.45 227.96,-226.82"/>
</g>
<!-- Node3 -->
<g id="node3" class="node">
<title>Node3</title>
<g id="a_node3"><a xlink:title=" ">
<polygon fill="none" stroke="black" points="162.92,-573.5 162.92,-630.5 197.92,-630.5 197.92,-573.5 162.92,-573.5"/>
<text text-anchor="middle" x="180.42" y="-618.5" font-family="Helvetica,sans-Serif" font-size="10.00">bool</text>
<polyline fill="none" stroke="black" points="162.92,-611.5 197.92,-611.5 "/>
<text text-anchor="middle" x="180.42" y="-599.5" font-family="Helvetica,sans-Serif" font-size="10.00"> </text>
<polyline fill="none" stroke="black" points="162.92,-592.5 197.92,-592.5 "/>
<text text-anchor="middle" x="180.42" y="-580.5" font-family="Helvetica,sans-Serif" font-size="10.00"> </text>
</a>
</g>
</g>
<!-- Node3&#45;&gt;Node2 -->
<g id="edge2" class="edge">
<title>Node3&#45;&gt;Node2</title>
<path fill="none" stroke="#404040" d="M180.42,-573.26C180.42,-550.61 180.42,-516.86 180.42,-482.63"/>
<polygon fill="none" stroke="#404040" points="180.42,-482.52 176.42,-476.52 180.42,-470.52 184.42,-476.52 180.42,-482.52"/>
<text text-anchor="middle" x="204.92" y="-519.5" font-family="Helvetica,sans-Serif" font-size="10.00"> +damaged</text>
</g>
<!-- Node4 -->
<g id="node4" class="node">
<title>Node4</title>
<g id="a_node4"><a xlink:title=" ">
<polygon fill="none" stroke="black" points="8.92,-573.5 8.92,-630.5 37.92,-630.5 37.92,-573.5 8.92,-573.5"/>
<text text-anchor="middle" x="23.42" y="-618.5" font-family="Helvetica,sans-Serif" font-size="10.00">int</text>
<polyline fill="none" stroke="black" points="8.92,-611.5 37.92,-611.5 "/>
<text text-anchor="middle" x="23.42" y="-599.5" font-family="Helvetica,sans-Serif" font-size="10.00"> </text>
<polyline fill="none" stroke="black" points="8.92,-592.5 37.92,-592.5 "/>
<text text-anchor="middle" x="23.42" y="-580.5" font-family="Helvetica,sans-Serif" font-size="10.00"> </text>
</a>
</g>
</g>
<!-- Node4&#45;&gt;Node1 -->
<g id="edge7" class="edge">
<title>Node4&#45;&gt;Node1</title>
<path fill="none" stroke="#404040" d="M16.78,-573.44C2.93,-509.2 -22.66,-346.65 42.42,-237 83.01,-168.6 167.56,-126.74 226.36,-104.71"/>
<polygon fill="none" stroke="#404040" points="226.47,-104.66 230.74,-98.85 237.75,-100.56 233.48,-106.37 226.47,-104.66"/>
<text text-anchor="middle" x="77.42" y="-368" font-family="Helvetica,sans-Serif" font-size="10.00"> +currentFrame</text>
<text text-anchor="middle" x="77.42" y="-357" font-family="Helvetica,sans-Serif" font-size="10.00">+framesCounter</text>
<text text-anchor="middle" x="77.42" y="-346" font-family="Helvetica,sans-Serif" font-size="10.00">+framesSpeed</text>
<text text-anchor="middle" x="77.42" y="-335" font-family="Helvetica,sans-Serif" font-size="10.00">+framescounter</text>
</g>
<!-- Node4&#45;&gt;Node2 -->
<g id="edge3" class="edge">
<title>Node4&#45;&gt;Node2</title>
<path fill="none" stroke="#404040" d="M31.22,-573.11C38.45,-549.7 50.47,-515.86 66.42,-489 68.56,-485.39 89.93,-460.11 113.6,-432.47"/>
<polygon fill="none" stroke="#404040" points="113.88,-432.14 114.75,-424.99 121.69,-423.03 120.82,-430.19 113.88,-432.14"/>
<text text-anchor="middle" x="97.42" y="-547" font-family="Helvetica,sans-Serif" font-size="10.00"> #c_DEF</text>
<text text-anchor="middle" x="97.42" y="-536" font-family="Helvetica,sans-Serif" font-size="10.00">#c_HP</text>
<text text-anchor="middle" x="97.42" y="-525" font-family="Helvetica,sans-Serif" font-size="10.00">#c_MaxHP</text>
<text text-anchor="middle" x="97.42" y="-514" font-family="Helvetica,sans-Serif" font-size="10.00">#c_STR</text>
<text text-anchor="middle" x="97.42" y="-503" font-family="Helvetica,sans-Serif" font-size="10.00">#c_timeattack</text>
<text text-anchor="middle" x="97.42" y="-492" font-family="Helvetica,sans-Serif" font-size="10.00">#turnnumb</text>
</g>
<!-- Node5 -->
<g id="node5" class="node">
<title>Node5</title>
<g id="a_node5"><a xlink:title=" ">
<polygon fill="none" stroke="black" points="103.92,-573.5 103.92,-630.5 144.92,-630.5 144.92,-573.5 103.92,-573.5"/>
<text text-anchor="middle" x="124.42" y="-618.5" font-family="Helvetica,sans-Serif" font-size="10.00">string</text>
<polyline fill="none" stroke="black" points="103.92,-611.5 144.92,-611.5 "/>
<text text-anchor="middle" x="124.42" y="-599.5" font-family="Helvetica,sans-Serif" font-size="10.00"> </text>
<polyline fill="none" stroke="black" points="103.92,-592.5 144.92,-592.5 "/>
<text text-anchor="middle" x="124.42" y="-580.5" font-family="Helvetica,sans-Serif" font-size="10.00"> </text>
</a>
</g>
</g>
<!-- Node5&#45;&gt;Node2 -->
<g id="edge4" class="edge">
<title>Node5&#45;&gt;Node2</title>
<path fill="none" stroke="#404040" d="M128.33,-573.23C131.72,-550.47 137.08,-517.49 143.42,-489 143.9,-486.84 144.39,-484.66 144.89,-482.48"/>
<polygon fill="none" stroke="#404040" points="144.92,-482.34 142.42,-475.58 147.69,-470.66 150.2,-477.43 144.92,-482.34"/>
<text text-anchor="middle" x="159.92" y="-519.5" font-family="Helvetica,sans-Serif" font-size="10.00"> #name</text>
</g>
<!-- Node6 -->
<g id="node6" class="node">
<title>Node6</title>
<g id="a_node6"><a xlink:title=" ">
<polygon fill="none" stroke="black" points="240.42,-573.5 240.42,-630.5 300.42,-630.5 300.42,-573.5 240.42,-573.5"/>
<text text-anchor="middle" x="270.42" y="-618.5" font-family="Helvetica,sans-Serif" font-size="10.00">Rectangle</text>
<polyline fill="none" stroke="black" points="240.42,-611.5 300.42,-611.5 "/>
<text text-anchor="middle" x="270.42" y="-599.5" font-family="Helvetica,sans-Serif" font-size="10.00"> </text>
<polyline fill="none" stroke="black" points="240.42,-592.5 300.42,-592.5 "/>
<text text-anchor="middle" x="270.42" y="-580.5" font-family="Helvetica,sans-Serif" font-size="10.00"> </text>
</a>
</g>
</g>
<!-- Node6&#45;&gt;Node1 -->
<g id="edge9" class="edge">
<title>Node6&#45;&gt;Node1</title>
<path fill="none" stroke="#404040" d="M273.78,-573.3C274.42,-567.28 275.01,-560.93 275.42,-555 284.38,-425.29 287.61,-275.06 288.77,-180.04"/>
<polygon fill="none" stroke="#404040" points="288.77,-179.87 284.84,-173.83 288.91,-167.88 292.84,-173.92 288.77,-179.87"/>
<text text-anchor="middle" x="313.92" y="-362.5" font-family="Helvetica,sans-Serif" font-size="10.00"> +Playerrec</text>
<text text-anchor="middle" x="313.92" y="-351.5" font-family="Helvetica,sans-Serif" font-size="10.00">+frameRec</text>
<text text-anchor="middle" x="313.92" y="-340.5" font-family="Helvetica,sans-Serif" font-size="10.00">+healthrec</text>
</g>
<!-- Node6&#45;&gt;Node2 -->
<g id="edge5" class="edge">
<title>Node6&#45;&gt;Node2</title>
<path fill="none" stroke="#404040" d="M260.08,-573.3C257.86,-567.28 255.54,-560.93 253.42,-555 242.92,-525.76 240.96,-518.22 230.42,-489 229.61,-486.77 228.79,-484.51 227.97,-482.24"/>
<polygon fill="none" stroke="#404040" points="227.91,-482.07 222.1,-477.8 223.8,-470.79 229.61,-475.06 227.91,-482.07"/>
<text text-anchor="middle" x="264.42" y="-519.5" font-family="Helvetica,sans-Serif" font-size="10.00"> #rec</text>
</g>
<!-- Node7 -->
<g id="node7" class="node">
<title>Node7</title>
<g id="a_node7"><a xlink:title=" ">
<polygon fill="none" stroke="black" points="358.42,-325.5 358.42,-382.5 396.42,-382.5 396.42,-325.5 358.42,-325.5"/>
<text text-anchor="middle" x="377.42" y="-370.5" font-family="Helvetica,sans-Serif" font-size="10.00">state</text>
<polyline fill="none" stroke="black" points="358.42,-363.5 396.42,-363.5 "/>
<text text-anchor="middle" x="377.42" y="-351.5" font-family="Helvetica,sans-Serif" font-size="10.00"> </text>
<polyline fill="none" stroke="black" points="358.42,-344.5 396.42,-344.5 "/>
<text text-anchor="middle" x="377.42" y="-332.5" font-family="Helvetica,sans-Serif" font-size="10.00"> </text>
</a>
</g>
</g>
<!-- Node7&#45;&gt;Node1 -->
<g id="edge6" class="edge">
<title>Node7&#45;&gt;Node1</title>
<path fill="none" stroke="#404040" d="M370.09,-325.18C363.73,-301.58 354.06,-266.89 344.42,-237 338.36,-218.22 331.48,-198.3 324.68,-179.27"/>
<polygon fill="none" stroke="#404040" points="324.65,-179.16 318.85,-174.87 320.59,-167.87 326.38,-172.16 324.65,-179.16"/>
<text text-anchor="middle" x="353.92" y="-200" font-family="Helvetica,sans-Serif" font-size="10.00"> +State</text>
</g>
<!-- Node8 -->
<g id="node8" class="node">
<title>Node8</title>
<g id="a_node8"><a xlink:title=" ">
<polygon fill="none" stroke="black" points="414.92,-325.5 414.92,-382.5 475.92,-382.5 475.92,-325.5 414.92,-325.5"/>
<text text-anchor="middle" x="445.42" y="-370.5" font-family="Helvetica,sans-Serif" font-size="10.00">Texture2D</text>
<polyline fill="none" stroke="black" points="414.92,-363.5 475.92,-363.5 "/>
<text text-anchor="middle" x="445.42" y="-351.5" font-family="Helvetica,sans-Serif" font-size="10.00"> </text>
<polyline fill="none" stroke="black" points="414.92,-344.5 475.92,-344.5 "/>
<text text-anchor="middle" x="445.42" y="-332.5" font-family="Helvetica,sans-Serif" font-size="10.00"> </text>
</a>
</g>
</g>
<!-- Node8&#45;&gt;Node1 -->
<g id="edge8" class="edge">
<title>Node8&#45;&gt;Node1</title>
<path fill="none" stroke="#404040" d="M437.65,-325.16C430.55,-301.24 419.09,-266.12 405.42,-237 390.96,-206.23 369.51,-175.75 348.97,-150.26"/>
<polygon fill="none" stroke="#404040" points="348.77,-150.01 341.87,-147.91 341.16,-140.74 348.05,-142.84 348.77,-150.01"/>
<text text-anchor="middle" x="421.92" y="-211" font-family="Helvetica,sans-Serif" font-size="10.00"> +health</text>
<text text-anchor="middle" x="421.92" y="-200" font-family="Helvetica,sans-Serif" font-size="10.00">+healthbar</text>
<text text-anchor="middle" x="421.92" y="-189" font-family="Helvetica,sans-Serif" font-size="10.00">+spr_Player</text>
</g>
</g>
</svg>
