<?xml version="1.0" encoding="UTF-8" standalone="no"?>
<!DOCTYPE svg PUBLIC "-//W3C//DTD SVG 1.1//EN"
 "http://www.w3.org/Graphics/SVG/1.1/DTD/svg11.dtd">
<!-- Generated by graphviz version 3.0.0 (20220226.1711)
 -->
<!-- Title: Inventory Pages: 1 -->
<svg width="401pt" height="270pt"
 viewBox="0.00 0.00 401.00 270.00" xmlns="http://www.w3.org/2000/svg" xmlns:xlink="http://www.w3.org/1999/xlink">
<g id="graph0" class="graph" transform="scale(1 1) rotate(0) translate(4 266)">
<title>Inventory</title>
<!-- Node1 -->
<g id="node1" class="node">
<title>Node1</title>
<g id="a_node1"><a xlink:title=" ">
<polygon fill="#bfbfbf" stroke="black" points="127,-0.5 127,-145.5 255,-145.5 255,-0.5 127,-0.5"/>
<text text-anchor="middle" x="191" y="-133.5" font-family="Helvetica,sans-Serif" font-size="10.00">Inventory</text>
<polyline fill="none" stroke="black" points="127,-126.5 255,-126.5 "/>
<text text-anchor="middle" x="191" y="-114.5" font-family="Helvetica,sans-Serif" font-size="10.00"> </text>
<polyline fill="none" stroke="black" points="127,-107.5 255,-107.5 "/>
<text text-anchor="start" x="135" y="-95.5" font-family="Helvetica,sans-Serif" font-size="10.00">+ add_item()</text>
<text text-anchor="start" x="135" y="-84.5" font-family="Helvetica,sans-Serif" font-size="10.00">&#45; is_slot_empty()</text>
<text text-anchor="start" x="135" y="-73.5" font-family="Helvetica,sans-Serif" font-size="10.00">&#45; find_indexes_of()</text>
<text text-anchor="start" x="135" y="-62.5" font-family="Helvetica,sans-Serif" font-size="10.00">&#45; find_next_empty_slot()</text>
<text text-anchor="start" x="135" y="-51.5" font-family="Helvetica,sans-Serif" font-size="10.00">&#45; add_item_to_existing</text>
<text text-anchor="start" x="135" y="-40.5" font-family="Helvetica,sans-Serif" font-size="10.00">_stack_if_possible()</text>
<text text-anchor="start" x="135" y="-29.5" font-family="Helvetica,sans-Serif" font-size="10.00">&#45; add_item_to_new_stack</text>
<text text-anchor="start" x="135" y="-18.5" font-family="Helvetica,sans-Serif" font-size="10.00">_if_possible()</text>
<text text-anchor="start" x="135" y="-7.5" font-family="Helvetica,sans-Serif" font-size="10.00">&#45; print()</text>
</a>
</g>
</g>
<!-- Node2 -->
<g id="node2" class="node">
<title>Node2</title>
<g id="a_node2"><a xlink:title=" ">
<polygon fill="none" stroke="black" points="0,-199 0,-256 116,-256 116,-199 0,-199"/>
<text text-anchor="middle" x="58" y="-244" font-family="Helvetica,sans-Serif" font-size="10.00">static constexpr size_t</text>
<polyline fill="none" stroke="black" points="0,-237 116,-237 "/>
<text text-anchor="middle" x="58" y="-225" font-family="Helvetica,sans-Serif" font-size="10.00"> </text>
<polyline fill="none" stroke="black" points="0,-218 116,-218 "/>
<text text-anchor="middle" x="58" y="-206" font-family="Helvetica,sans-Serif" font-size="10.00"> </text>
</a>
</g>
</g>
<!-- Node2&#45;&gt;Node1 -->
<g id="edge1" class="edge">
<title>Node2&#45;&gt;Node1</title>
<path fill="none" stroke="#404040" d="M82.09,-198.88C93.04,-186.33 106.62,-170.75 120.44,-154.91"/>
<polygon fill="none" stroke="#404040" points="120.7,-154.61 121.63,-147.46 128.59,-145.57 127.66,-152.72 120.7,-154.61"/>
<text text-anchor="middle" x="146" y="-167" font-family="Helvetica,sans-Serif" font-size="10.00"> &#45;MAX_INV_SIZE</text>
</g>
<!-- Node3 -->
<g id="node3" class="node">
<title>Node3</title>
<g id="a_node3"><a xlink:title=" ">
<polygon fill="none" stroke="black" points="134.5,-193.5 134.5,-261.5 247.5,-261.5 247.5,-193.5 134.5,-193.5"/>
<text text-anchor="start" x="142.5" y="-249.5" font-family="Helvetica,sans-Serif" font-size="10.00">array&lt; Item, MAX_INV</text>
<text text-anchor="middle" x="191" y="-238.5" font-family="Helvetica,sans-Serif" font-size="10.00">_SIZE &gt;</text>
<polyline fill="none" stroke="black" points="134.5,-231.5 247.5,-231.5 "/>
<text text-anchor="middle" x="191" y="-219.5" font-family="Helvetica,sans-Serif" font-size="10.00"> </text>
<polyline fill="none" stroke="black" points="134.5,-212.5 247.5,-212.5 "/>
<text text-anchor="middle" x="191" y="-200.5" font-family="Helvetica,sans-Serif" font-size="10.00"> </text>
</a>
</g>
</g>
<!-- Node3&#45;&gt;Node1 -->
<g id="edge2" class="edge">
<title>Node3&#45;&gt;Node1</title>
<path fill="none" stroke="#404040" d="M191,-193.41C191,-182.72 191,-170.35 191,-157.7"/>
<polygon fill="none" stroke="#404040" points="191,-157.53 187,-151.53 191,-145.53 195,-151.53 191,-157.53"/>
<text text-anchor="middle" x="206.5" y="-167" font-family="Helvetica,sans-Serif" font-size="10.00"> &#45;items</text>
</g>
<!-- Node4 -->
<g id="node4" class="node">
<title>Node4</title>
<g id="a_node4"><a xlink:title=" ">
<polygon fill="none" stroke="black" points="265.5,-199 265.5,-256 294.5,-256 294.5,-199 265.5,-199"/>
<text text-anchor="middle" x="280" y="-244" font-family="Helvetica,sans-Serif" font-size="10.00">int</text>
<polyline fill="none" stroke="black" points="265.5,-237 294.5,-237 "/>
<text text-anchor="middle" x="280" y="-225" font-family="Helvetica,sans-Serif" font-size="10.00"> </text>
<polyline fill="none" stroke="black" points="265.5,-218 294.5,-218 "/>
<text text-anchor="middle" x="280" y="-206" font-family="Helvetica,sans-Serif" font-size="10.00"> </text>
</a>
</g>
</g>
<!-- Node4&#45;&gt;Node1 -->
<g id="edge3" class="edge">
<title>Node4&#45;&gt;Node1</title>
<path fill="none" stroke="#404040" d="M265.3,-201.32C257.97,-188.76 248.65,-172.77 239.1,-156.41"/>
<polygon fill="none" stroke="#404040" points="238.86,-156 232.38,-152.83 232.81,-145.63 239.29,-148.8 238.86,-156"/>
<text text-anchor="middle" x="320.5" y="-167" font-family="Helvetica,sans-Serif" font-size="10.00"> &#45;INVENTORY_EMPTY_SLOT_ID</text>
</g>
</g>
</svg>
