<?xml version="1.0" encoding="UTF-8" standalone="no"?>
<!DOCTYPE svg PUBLIC "-//W3C//DTD SVG 1.1//EN"
 "http://www.w3.org/Graphics/SVG/1.1/DTD/svg11.dtd">
<!-- Generated by graphviz version 3.0.0 (20220226.1711)
 -->
<!-- Title: Game::Level Pages: 1 -->
<svg width="1744pt" height="738pt"
 viewBox="0.00 0.00 1744.09 738.00" xmlns="http://www.w3.org/2000/svg" xmlns:xlink="http://www.w3.org/1999/xlink">
<g id="graph0" class="graph" transform="scale(1 1) rotate(0) translate(4 734)">
<title>Game::Level</title>
<!-- Node1 -->
<g id="node1" class="node">
<title>Node1</title>
<g id="a_node1"><a xlink:title=" ">
<polygon fill="#bfbfbf" stroke="black" points="864.09,-0.5 864.09,-255.5 1052.09,-255.5 1052.09,-0.5 864.09,-0.5"/>
<text text-anchor="middle" x="958.09" y="-243.5" font-family="Helvetica,sans-Serif" font-size="10.00">Game::Level</text>
<polyline fill="none" stroke="black" points="864.09,-236.5 1052.09,-236.5 "/>
<text text-anchor="start" x="872.09" y="-224.5" font-family="Helvetica,sans-Serif" font-size="10.00">+ TitlescreenText</text>
<text text-anchor="start" x="872.09" y="-213.5" font-family="Helvetica,sans-Serif" font-size="10.00">+ spr_Battery</text>
<text text-anchor="start" x="872.09" y="-202.5" font-family="Helvetica,sans-Serif" font-size="10.00">+ gameover</text>
<text text-anchor="start" x="872.09" y="-191.5" font-family="Helvetica,sans-Serif" font-size="10.00">+ teleportrecOVERWORLDtoPYRAMID</text>
<text text-anchor="start" x="872.09" y="-180.5" font-family="Helvetica,sans-Serif" font-size="10.00">+ teleportrecPYRAMIDtoOVERWORLD</text>
<text text-anchor="start" x="872.09" y="-169.5" font-family="Helvetica,sans-Serif" font-size="10.00">+ teleportrecPYRAMIDtoENDSCREEN</text>
<text text-anchor="start" x="872.09" y="-158.5" font-family="Helvetica,sans-Serif" font-size="10.00">+ t_rec_start</text>
<text text-anchor="start" x="872.09" y="-147.5" font-family="Helvetica,sans-Serif" font-size="10.00">+ t_rec_settings</text>
<text text-anchor="start" x="872.09" y="-136.5" font-family="Helvetica,sans-Serif" font-size="10.00">+ t_rec_exit_game</text>
<text text-anchor="start" x="872.09" y="-125.5" font-family="Helvetica,sans-Serif" font-size="10.00">+ t_rec_attack</text>
<text text-anchor="start" x="872.09" y="-114.5" font-family="Helvetica,sans-Serif" font-size="10.00">+ t_rec_time</text>
<text text-anchor="start" x="872.09" y="-103.5" font-family="Helvetica,sans-Serif" font-size="10.00">+ t_rec_item</text>
<text text-anchor="start" x="872.09" y="-92.5" font-family="Helvetica,sans-Serif" font-size="10.00">+ t_rec_escape</text>
<polyline fill="none" stroke="black" points="864.09,-85.5 1052.09,-85.5 "/>
<text text-anchor="start" x="872.09" y="-73.5" font-family="Helvetica,sans-Serif" font-size="10.00">+ combat()</text>
<text text-anchor="start" x="872.09" y="-62.5" font-family="Helvetica,sans-Serif" font-size="10.00">+ ScreenDraw()</text>
<text text-anchor="start" x="872.09" y="-51.5" font-family="Helvetica,sans-Serif" font-size="10.00">+ Draw()</text>
<text text-anchor="start" x="872.09" y="-40.5" font-family="Helvetica,sans-Serif" font-size="10.00">+ Teleport()</text>
<text text-anchor="start" x="872.09" y="-29.5" font-family="Helvetica,sans-Serif" font-size="10.00">+ ~Level()</text>
<text text-anchor="start" x="872.09" y="-18.5" font-family="Helvetica,sans-Serif" font-size="10.00">+ damaged()</text>
<text text-anchor="start" x="872.09" y="-7.5" font-family="Helvetica,sans-Serif" font-size="10.00">+ Draw9Slice()</text>
</a>
</g>
</g>
<!-- Node1&#45;&gt;Node1 -->
<g id="edge18" class="edge">
<title>Node1&#45;&gt;Node1</title>
<path fill="none" stroke="#404040" d="M1052.47,-153.74C1063.16,-148.92 1070.09,-140.34 1070.09,-128 1070.09,-120.29 1067.39,-114.04 1062.74,-109.27"/>
<polygon fill="none" stroke="#404040" points="1062.38,-109.02 1055.17,-108.95 1052.47,-102.26 1059.68,-102.34 1062.38,-109.02"/>
<text text-anchor="middle" x="1084.09" y="-125.5" font-family="Helvetica,sans-Serif" font-size="10.00"> +level</text>
</g>
<!-- Node2 -->
<g id="node2" class="node">
<title>Node2</title>
<g id="a_node2"><a xlink:title=" ">
<polygon fill="none" stroke="black" points="229.59,-672.5 229.59,-729.5 290.59,-729.5 290.59,-672.5 229.59,-672.5"/>
<text text-anchor="middle" x="260.09" y="-717.5" font-family="Helvetica,sans-Serif" font-size="10.00">Texture2D</text>
<polyline fill="none" stroke="black" points="229.59,-710.5 290.59,-710.5 "/>
<text text-anchor="middle" x="260.09" y="-698.5" font-family="Helvetica,sans-Serif" font-size="10.00"> </text>
<polyline fill="none" stroke="black" points="229.59,-691.5 290.59,-691.5 "/>
<text text-anchor="middle" x="260.09" y="-679.5" font-family="Helvetica,sans-Serif" font-size="10.00"> </text>
</a>
</g>
</g>
<!-- Node2&#45;&gt;Node1 -->
<g id="edge1" class="edge">
<title>Node2&#45;&gt;Node1</title>
<path fill="none" stroke="#404040" d="M229.23,-690.61C179.45,-673.6 82.96,-632.44 43.09,-559 -6.52,-467.6 -21,-406.9 43.09,-325 141.91,-198.73 632.35,-150.66 851.72,-135.26"/>
<polygon fill="none" stroke="#404040" points="851.9,-135.25 857.61,-130.84 863.87,-134.42 858.16,-138.83 851.9,-135.25"/>
<text text-anchor="middle" x="75.09" y="-494.5" font-family="Helvetica,sans-Serif" font-size="10.00"> +Attack</text>
<text text-anchor="middle" x="75.09" y="-483.5" font-family="Helvetica,sans-Serif" font-size="10.00">+Battlescreen</text>
<text text-anchor="middle" x="75.09" y="-472.5" font-family="Helvetica,sans-Serif" font-size="10.00">+Blue_Clock</text>
<text text-anchor="middle" x="75.09" y="-461.5" font-family="Helvetica,sans-Serif" font-size="10.00">+Box</text>
<text text-anchor="middle" x="75.09" y="-450.5" font-family="Helvetica,sans-Serif" font-size="10.00">+Box_S</text>
<text text-anchor="middle" x="75.09" y="-439.5" font-family="Helvetica,sans-Serif" font-size="10.00">+Fish</text>
<text text-anchor="middle" x="75.09" y="-428.5" font-family="Helvetica,sans-Serif" font-size="10.00">+Map</text>
<text text-anchor="middle" x="75.09" y="-417.5" font-family="Helvetica,sans-Serif" font-size="10.00">+Pausescreen</text>
<text text-anchor="middle" x="75.09" y="-406.5" font-family="Helvetica,sans-Serif" font-size="10.00">+Red_Clock</text>
<text text-anchor="middle" x="75.09" y="-395.5" font-family="Helvetica,sans-Serif" font-size="10.00">+Titlescreen</text>
<text text-anchor="middle" x="75.09" y="-384.5" font-family="Helvetica,sans-Serif" font-size="10.00">...</text>
</g>
<!-- Node9 -->
<g id="node9" class="node">
<title>Node9</title>
<g id="a_node9"><a xlink:href="class_game_1_1_nemo.html" target="_top" xlink:title=" ">
<polygon fill="none" stroke="black" points="1216.09,-402.5 1216.09,-481.5 1290.09,-481.5 1290.09,-402.5 1216.09,-402.5"/>
<text text-anchor="middle" x="1253.09" y="-469.5" font-family="Helvetica,sans-Serif" font-size="10.00">Game::Nemo</text>
<polyline fill="none" stroke="black" points="1216.09,-462.5 1290.09,-462.5 "/>
<text text-anchor="middle" x="1253.09" y="-450.5" font-family="Helvetica,sans-Serif" font-size="10.00"> </text>
<polyline fill="none" stroke="black" points="1216.09,-443.5 1290.09,-443.5 "/>
<text text-anchor="start" x="1224.09" y="-431.5" font-family="Helvetica,sans-Serif" font-size="10.00">+ Update()</text>
<text text-anchor="start" x="1224.09" y="-420.5" font-family="Helvetica,sans-Serif" font-size="10.00">+ Draw()</text>
<text text-anchor="start" x="1224.09" y="-409.5" font-family="Helvetica,sans-Serif" font-size="10.00">+ ~Nemo()</text>
</a>
</g>
</g>
<!-- Node2&#45;&gt;Node9 -->
<g id="edge14" class="edge">
<title>Node2&#45;&gt;Node9</title>
<path fill="none" stroke="#404040" d="M290.8,-693.28C322.51,-686.65 373.5,-676.82 418.09,-672 443.08,-669.3 850.62,-669.89 870.09,-654 897.41,-631.72 861.98,-599.52 889.09,-577 942.69,-532.48 1144.87,-598.74 1202.09,-559 1223.81,-543.92 1236.38,-517.43 1243.6,-493.57"/>
<polygon fill="none" stroke="#404040" points="1243.66,-493.34 1241.38,-486.5 1246.82,-481.76 1249.1,-488.61 1243.66,-493.34"/>
<text text-anchor="middle" x="905.09" y="-635" font-family="Helvetica,sans-Serif" font-size="10.00"> +Back</text>
<text text-anchor="middle" x="905.09" y="-624" font-family="Helvetica,sans-Serif" font-size="10.00">+Front</text>
<text text-anchor="middle" x="905.09" y="-613" font-family="Helvetica,sans-Serif" font-size="10.00">+Left</text>
<text text-anchor="middle" x="905.09" y="-602" font-family="Helvetica,sans-Serif" font-size="10.00">+Right</text>
<text text-anchor="middle" x="905.09" y="-591" font-family="Helvetica,sans-Serif" font-size="10.00">+Stand</text>
</g>
<!-- Node13 -->
<g id="node13" class="node">
<title>Node13</title>
<g id="a_node13"><a xlink:href="class_game_1_1_sprite.html" target="_top" xlink:title=" ">
<polygon fill="none" stroke="black" points="477.09,-386 477.09,-498 563.09,-498 563.09,-386 477.09,-386"/>
<text text-anchor="middle" x="520.09" y="-486" font-family="Helvetica,sans-Serif" font-size="10.00">Game::Sprite</text>
<polyline fill="none" stroke="black" points="477.09,-479 563.09,-479 "/>
<text text-anchor="middle" x="520.09" y="-467" font-family="Helvetica,sans-Serif" font-size="10.00"> </text>
<polyline fill="none" stroke="black" points="477.09,-460 563.09,-460 "/>
<text text-anchor="start" x="485.09" y="-448" font-family="Helvetica,sans-Serif" font-size="10.00">+ EpanoxDraw()</text>
<text text-anchor="start" x="485.09" y="-437" font-family="Helvetica,sans-Serif" font-size="10.00">+ Sprite()</text>
<text text-anchor="start" x="485.09" y="-426" font-family="Helvetica,sans-Serif" font-size="10.00">+ Sprite()</text>
<text text-anchor="start" x="485.09" y="-415" font-family="Helvetica,sans-Serif" font-size="10.00">+ Sprite()</text>
<text text-anchor="start" x="485.09" y="-404" font-family="Helvetica,sans-Serif" font-size="10.00">+ Sprite()</text>
<text text-anchor="start" x="485.09" y="-393" font-family="Helvetica,sans-Serif" font-size="10.00">+ ~Sprite()</text>
</a>
</g>
</g>
<!-- Node2&#45;&gt;Node13 -->
<g id="edge21" class="edge">
<title>Node2&#45;&gt;Node13</title>
<path fill="none" stroke="#404040" d="M258.65,-672.4C258.82,-643.95 263.97,-600.51 291.09,-577 349.18,-526.66 400.06,-602.98 463.09,-559 480.32,-546.98 492.57,-528.24 501.18,-509.29"/>
<polygon fill="none" stroke="#404040" points="501.21,-509.24 499.84,-502.16 505.84,-498.17 507.21,-505.25 501.21,-509.24"/>
<text text-anchor="middle" x="319.59" y="-618.5" font-family="Helvetica,sans-Serif" font-size="10.00"> +EpanoxStil</text>
<text text-anchor="middle" x="319.59" y="-607.5" font-family="Helvetica,sans-Serif" font-size="10.00">+texture_</text>
</g>
<!-- Node3 -->
<g id="node3" class="node">
<title>Node3</title>
<g id="a_node3"><a xlink:title=" ">
<polygon fill="none" stroke="black" points="116.09,-413.5 116.09,-470.5 296.09,-470.5 296.09,-413.5 116.09,-413.5"/>
<text text-anchor="middle" x="206.09" y="-458.5" font-family="Helvetica,sans-Serif" font-size="10.00">unique_ptr&lt; Game::GameCharacter &gt;</text>
<polyline fill="none" stroke="black" points="116.09,-451.5 296.09,-451.5 "/>
<text text-anchor="middle" x="206.09" y="-439.5" font-family="Helvetica,sans-Serif" font-size="10.00"> </text>
<polyline fill="none" stroke="black" points="116.09,-432.5 296.09,-432.5 "/>
<text text-anchor="middle" x="206.09" y="-420.5" font-family="Helvetica,sans-Serif" font-size="10.00"> </text>
</a>
</g>
</g>
<!-- Node3&#45;&gt;Node1 -->
<g id="edge2" class="edge">
<title>Node3&#45;&gt;Node1</title>
<path fill="none" stroke="#404040" d="M210.79,-413.2C218.65,-375.65 238.16,-309.34 282.09,-274 368.76,-204.28 684.24,-159.51 851.81,-140.11"/>
<polygon fill="none" stroke="#404040" points="851.94,-140.09 857.44,-135.44 863.86,-138.73 858.35,-143.38 851.94,-140.09"/>
<text text-anchor="middle" x="300.09" y="-288" font-family="Helvetica,sans-Serif" font-size="10.00"> +player</text>
</g>
<!-- Node4 -->
<g id="node4" class="node">
<title>Node4</title>
<g id="a_node4"><a xlink:href="class_game_1_1_game_character.html" target="_top" xlink:title=" ">
<polygon fill="none" stroke="black" points="595.59,-325.5 595.59,-558.5 712.59,-558.5 712.59,-325.5 595.59,-325.5"/>
<text text-anchor="middle" x="654.09" y="-546.5" font-family="Helvetica,sans-Serif" font-size="10.00">Game::GameCharacter</text>
<polyline fill="none" stroke="black" points="595.59,-539.5 712.59,-539.5 "/>
<text text-anchor="middle" x="654.09" y="-527.5" font-family="Helvetica,sans-Serif" font-size="10.00"> </text>
<polyline fill="none" stroke="black" points="595.59,-520.5 712.59,-520.5 "/>
<text text-anchor="start" x="603.59" y="-508.5" font-family="Helvetica,sans-Serif" font-size="10.00">+ GameCharacter()</text>
<text text-anchor="start" x="603.59" y="-497.5" font-family="Helvetica,sans-Serif" font-size="10.00">+ get_Name()</text>
<text text-anchor="start" x="603.59" y="-486.5" font-family="Helvetica,sans-Serif" font-size="10.00">+ attack()</text>
<text text-anchor="start" x="603.59" y="-475.5" font-family="Helvetica,sans-Serif" font-size="10.00">+ getDamage()</text>
<text text-anchor="start" x="603.59" y="-464.5" font-family="Helvetica,sans-Serif" font-size="10.00">+ updateCharacter()</text>
<text text-anchor="start" x="603.59" y="-453.5" font-family="Helvetica,sans-Serif" font-size="10.00">+ getLives()</text>
<text text-anchor="start" x="603.59" y="-442.5" font-family="Helvetica,sans-Serif" font-size="10.00">+ getArmor()</text>
<text text-anchor="start" x="603.59" y="-431.5" font-family="Helvetica,sans-Serif" font-size="10.00">+ getStrength()</text>
<text text-anchor="start" x="603.59" y="-420.5" font-family="Helvetica,sans-Serif" font-size="10.00">+ getDefense()</text>
<text text-anchor="start" x="603.59" y="-409.5" font-family="Helvetica,sans-Serif" font-size="10.00">+ get_rec()</text>
<text text-anchor="start" x="603.59" y="-398.5" font-family="Helvetica,sans-Serif" font-size="10.00">+ set_rec()</text>
<text text-anchor="start" x="603.59" y="-387.5" font-family="Helvetica,sans-Serif" font-size="10.00">+ heal()</text>
<text text-anchor="start" x="603.59" y="-376.5" font-family="Helvetica,sans-Serif" font-size="10.00">+ get_turnnumb()</text>
<text text-anchor="start" x="603.59" y="-365.5" font-family="Helvetica,sans-Serif" font-size="10.00">+ set_turnnumb()</text>
<text text-anchor="start" x="603.59" y="-354.5" font-family="Helvetica,sans-Serif" font-size="10.00">+ draw()</text>
<text text-anchor="start" x="603.59" y="-343.5" font-family="Helvetica,sans-Serif" font-size="10.00">+ ~GameCharacter()</text>
<text text-anchor="start" x="603.59" y="-332.5" font-family="Helvetica,sans-Serif" font-size="10.00"># getDamageNumber()</text>
</a>
</g>
</g>
<!-- Node4&#45;&gt;Node1 -->
<g id="edge3" class="edge">
<title>Node4&#45;&gt;Node1</title>
<path fill="none" stroke="#404040" d="M712.77,-334.13C726.6,-313.12 742.26,-292.02 759.09,-274 786.86,-244.27 821.47,-216.61 854.02,-193.58"/>
<polygon fill="none" stroke="#404040" points="854.2,-193.46 856.83,-186.74 864.04,-186.59 861.41,-193.3 854.2,-193.46"/>
<text text-anchor="middle" x="779.59" y="-299" font-family="Helvetica,sans-Serif" font-size="10.00"> +enemy</text>
<text text-anchor="middle" x="779.59" y="-288" font-family="Helvetica,sans-Serif" font-size="10.00">+pharaoh</text>
<text text-anchor="middle" x="779.59" y="-277" font-family="Helvetica,sans-Serif" font-size="10.00">+shadow</text>
</g>
<!-- Node5 -->
<g id="node5" class="node">
<title>Node5</title>
<g id="a_node5"><a xlink:title=" ">
<polygon fill="none" stroke="black" points="427.59,-672.5 427.59,-729.5 462.59,-729.5 462.59,-672.5 427.59,-672.5"/>
<text text-anchor="middle" x="445.09" y="-717.5" font-family="Helvetica,sans-Serif" font-size="10.00">bool</text>
<polyline fill="none" stroke="black" points="427.59,-710.5 462.59,-710.5 "/>
<text text-anchor="middle" x="445.09" y="-698.5" font-family="Helvetica,sans-Serif" font-size="10.00"> </text>
<polyline fill="none" stroke="black" points="427.59,-691.5 462.59,-691.5 "/>
<text text-anchor="middle" x="445.09" y="-679.5" font-family="Helvetica,sans-Serif" font-size="10.00"> </text>
</a>
</g>
</g>
<!-- Node5&#45;&gt;Node1 -->
<g id="edge26" class="edge">
<title>Node5&#45;&gt;Node1</title>
<path fill="none" stroke="#404040" d="M427.26,-697.1C404.65,-692.39 366.43,-680.75 348.09,-654 309.4,-597.54 287.75,-397.91 341.09,-325 401.89,-241.9 691.73,-177.35 851.6,-147.36"/>
<polygon fill="none" stroke="#404040" points="852.03,-147.29 857.19,-142.26 863.82,-145.09 858.66,-150.12 852.03,-147.29"/>
<text text-anchor="middle" x="404.59" y="-494.5" font-family="Helvetica,sans-Serif" font-size="10.00"> +T_damaged</text>
<text text-anchor="middle" x="404.59" y="-483.5" font-family="Helvetica,sans-Serif" font-size="10.00">+e_damaged</text>
<text text-anchor="middle" x="404.59" y="-472.5" font-family="Helvetica,sans-Serif" font-size="10.00">+input</text>
<text text-anchor="middle" x="404.59" y="-461.5" font-family="Helvetica,sans-Serif" font-size="10.00">+p_damaged</text>
<text text-anchor="start" x="341.09" y="-450.5" font-family="Helvetica,sans-Serif" font-size="10.00">+teleportcollision</text>
<text text-anchor="middle" x="404.59" y="-439.5" font-family="Helvetica,sans-Serif" font-size="10.00">OVERWORLDtoPYRAMID</text>
<text text-anchor="start" x="341.09" y="-428.5" font-family="Helvetica,sans-Serif" font-size="10.00">+teleportcollisionPYRAMIDto</text>
<text text-anchor="middle" x="404.59" y="-417.5" font-family="Helvetica,sans-Serif" font-size="10.00">ENDSCREEN</text>
<text text-anchor="start" x="341.09" y="-406.5" font-family="Helvetica,sans-Serif" font-size="10.00">+teleportcollisionPYRAMIDto</text>
<text text-anchor="middle" x="404.59" y="-395.5" font-family="Helvetica,sans-Serif" font-size="10.00">OVERWORLD</text>
<text text-anchor="middle" x="404.59" y="-384.5" font-family="Helvetica,sans-Serif" font-size="10.00">+timer</text>
</g>
<!-- Node5&#45;&gt;Node4 -->
<g id="edge4" class="edge">
<title>Node5&#45;&gt;Node4</title>
<path fill="none" stroke="#404040" d="M462.62,-689.48C475.4,-681.12 492.44,-668.46 504.09,-654 527.92,-624.44 515.32,-604.88 541.09,-577 551.91,-565.3 560.34,-569.75 572.09,-559 577.34,-554.2 582.45,-549.01 587.37,-543.58"/>
<polygon fill="none" stroke="#404040" points="587.62,-543.3 588.54,-536.15 595.5,-534.24 594.58,-541.4 587.62,-543.3"/>
<text text-anchor="middle" x="565.59" y="-613" font-family="Helvetica,sans-Serif" font-size="10.00"> +damaged</text>
</g>
<!-- Node5&#45;&gt;Node9 -->
<g id="edge12" class="edge">
<title>Node5&#45;&gt;Node9</title>
<path fill="none" stroke="#404040" d="M462.84,-694.94C486.59,-688.4 530.13,-677.24 568.09,-672 607.44,-666.57 894.45,-679.27 925.09,-654 952.29,-631.57 917.12,-599.69 944.09,-577 988.08,-540.01 1155.09,-592.07 1202.09,-559 1223.72,-543.78 1236.28,-517.29 1243.52,-493.45"/>
<polygon fill="none" stroke="#404040" points="1243.58,-493.24 1241.31,-486.4 1246.75,-481.67 1249.02,-488.51 1243.58,-493.24"/>
<text text-anchor="middle" x="961.09" y="-624" font-family="Helvetica,sans-Serif" font-size="10.00"> +active</text>
<text text-anchor="middle" x="961.09" y="-613" font-family="Helvetica,sans-Serif" font-size="10.00">+alive</text>
<text text-anchor="middle" x="961.09" y="-602" font-family="Helvetica,sans-Serif" font-size="10.00">+sound</text>
</g>
<!-- Node5&#45;&gt;Node13 -->
<g id="edge23" class="edge">
<title>Node5&#45;&gt;Node13</title>
<path fill="none" stroke="#404040" d="M427.54,-695.41C408.54,-689.4 379.22,-676.84 366.09,-654 349.04,-624.33 344.21,-603.31 366.09,-577 394.13,-543.29 428.16,-585.49 463.09,-559 479.61,-546.48 491.62,-527.89 500.24,-509.25"/>
<polygon fill="none" stroke="#404040" points="500.33,-509.04 499.01,-501.95 505.05,-498 506.37,-505.09 500.33,-509.04"/>
<text text-anchor="middle" x="405.59" y="-613" font-family="Helvetica,sans-Serif" font-size="10.00"> +EpanoxCollision</text>
</g>
<!-- Node6 -->
<g id="node6" class="node">
<title>Node6</title>
<g id="a_node6"><a xlink:title=" ">
<polygon fill="none" stroke="black" points="704.59,-672.5 704.59,-729.5 733.59,-729.5 733.59,-672.5 704.59,-672.5"/>
<text text-anchor="middle" x="719.09" y="-717.5" font-family="Helvetica,sans-Serif" font-size="10.00">int</text>
<polyline fill="none" stroke="black" points="704.59,-710.5 733.59,-710.5 "/>
<text text-anchor="middle" x="719.09" y="-698.5" font-family="Helvetica,sans-Serif" font-size="10.00"> </text>
<polyline fill="none" stroke="black" points="704.59,-691.5 733.59,-691.5 "/>
<text text-anchor="middle" x="719.09" y="-679.5" font-family="Helvetica,sans-Serif" font-size="10.00"> </text>
</a>
</g>
</g>
<!-- Node6&#45;&gt;Node1 -->
<g id="edge16" class="edge">
<title>Node6&#45;&gt;Node1</title>
<path fill="none" stroke="#404040" d="M733.61,-695.53C751.79,-689.19 782.65,-675.87 800.09,-654 812.55,-638.39 876.61,-417.48 919.24,-267.25"/>
<polygon fill="none" stroke="#404040" points="919.26,-267.2 917.05,-260.34 922.53,-255.66 924.74,-262.52 919.26,-267.2"/>
<text text-anchor="middle" x="940.59" y="-494.5" font-family="Helvetica,sans-Serif" font-size="10.00"> +b1_c_frame</text>
<text text-anchor="middle" x="940.59" y="-483.5" font-family="Helvetica,sans-Serif" font-size="10.00">+b2_c_frame</text>
<text text-anchor="middle" x="940.59" y="-472.5" font-family="Helvetica,sans-Serif" font-size="10.00">+b_currentFrame</text>
<text text-anchor="middle" x="940.59" y="-461.5" font-family="Helvetica,sans-Serif" font-size="10.00">+e_framescounter</text>
<text text-anchor="middle" x="940.59" y="-450.5" font-family="Helvetica,sans-Serif" font-size="10.00">+energy</text>
<text text-anchor="middle" x="940.59" y="-439.5" font-family="Helvetica,sans-Serif" font-size="10.00">+framescounter</text>
<text text-anchor="middle" x="940.59" y="-428.5" font-family="Helvetica,sans-Serif" font-size="10.00">+h_amount</text>
<text text-anchor="middle" x="940.59" y="-417.5" font-family="Helvetica,sans-Serif" font-size="10.00">+p_framescounter</text>
<text text-anchor="middle" x="940.59" y="-406.5" font-family="Helvetica,sans-Serif" font-size="10.00">+r_currentFrame</text>
<text text-anchor="middle" x="940.59" y="-395.5" font-family="Helvetica,sans-Serif" font-size="10.00">+t_framescounter</text>
<text text-anchor="middle" x="940.59" y="-384.5" font-family="Helvetica,sans-Serif" font-size="10.00">...</text>
</g>
<!-- Node6&#45;&gt;Node4 -->
<g id="edge5" class="edge">
<title>Node6&#45;&gt;Node4</title>
<path fill="none" stroke="#404040" d="M704.51,-694.3C689.04,-687.38 665.44,-674.07 655.09,-654 642.05,-628.72 636.83,-599.36 635.89,-570.72"/>
<polygon fill="none" stroke="#404040" points="635.89,-570.5 631.81,-564.56 635.73,-558.51 639.81,-564.46 635.89,-570.5"/>
<text text-anchor="middle" x="686.09" y="-640.5" font-family="Helvetica,sans-Serif" font-size="10.00"> #c_DEF</text>
<text text-anchor="middle" x="686.09" y="-629.5" font-family="Helvetica,sans-Serif" font-size="10.00">#c_HP</text>
<text text-anchor="middle" x="686.09" y="-618.5" font-family="Helvetica,sans-Serif" font-size="10.00">#c_MaxHP</text>
<text text-anchor="middle" x="686.09" y="-607.5" font-family="Helvetica,sans-Serif" font-size="10.00">#c_STR</text>
<text text-anchor="middle" x="686.09" y="-596.5" font-family="Helvetica,sans-Serif" font-size="10.00">#c_timeattack</text>
<text text-anchor="middle" x="686.09" y="-585.5" font-family="Helvetica,sans-Serif" font-size="10.00">#turnnumb</text>
</g>
<!-- Node6&#45;&gt;Node9 -->
<g id="edge9" class="edge">
<title>Node6&#45;&gt;Node9</title>
<path fill="none" stroke="#404040" d="M733.69,-699.07C782.79,-695.68 941.22,-682.71 982.09,-654 1014.35,-631.34 993.05,-598.49 1026.09,-577 1092,-534.12 1138.52,-605.28 1202.09,-559 1223.39,-543.49 1235.93,-517.11 1243.23,-493.41"/>
<polygon fill="none" stroke="#404040" points="1243.28,-493.26 1241.04,-486.4 1246.51,-481.7 1248.74,-488.56 1243.28,-493.26"/>
<text text-anchor="middle" x="1076.09" y="-646" font-family="Helvetica,sans-Serif" font-size="10.00"> +HP</text>
<text text-anchor="middle" x="1076.09" y="-635" font-family="Helvetica,sans-Serif" font-size="10.00">+Stand_currentFrame</text>
<text text-anchor="middle" x="1076.09" y="-624" font-family="Helvetica,sans-Serif" font-size="10.00">+Stand_framesCounter</text>
<text text-anchor="middle" x="1076.09" y="-613" font-family="Helvetica,sans-Serif" font-size="10.00">+Stand_framesSpeed</text>
<text text-anchor="middle" x="1076.09" y="-602" font-family="Helvetica,sans-Serif" font-size="10.00">+currentFrame</text>
<text text-anchor="middle" x="1076.09" y="-591" font-family="Helvetica,sans-Serif" font-size="10.00">+framesCounter</text>
<text text-anchor="middle" x="1076.09" y="-580" font-family="Helvetica,sans-Serif" font-size="10.00">+framesSpeed</text>
</g>
<!-- Node6&#45;&gt;Node13 -->
<g id="edge20" class="edge">
<title>Node6&#45;&gt;Node13</title>
<path fill="none" stroke="#404040" d="M704.33,-694.59C686.34,-688.21 654.89,-677.75 627.09,-672 592.27,-664.79 491.78,-680.52 468.09,-654 445.3,-628.48 461.8,-610.64 468.09,-577 472.36,-554.23 480.36,-530.36 488.84,-509.18"/>
<polygon fill="none" stroke="#404040" points="488.86,-509.13 487.45,-502.06 493.44,-498.04 494.85,-505.11 488.86,-509.13"/>
<text text-anchor="middle" x="486.09" y="-618.5" font-family="Helvetica,sans-Serif" font-size="10.00"> +pos_x</text>
<text text-anchor="middle" x="486.09" y="-607.5" font-family="Helvetica,sans-Serif" font-size="10.00">+pos_y</text>
</g>
<!-- Node7 -->
<g id="node7" class="node">
<title>Node7</title>
<g id="a_node7"><a xlink:title=" ">
<polygon fill="none" stroke="black" points="577.59,-672.5 577.59,-729.5 618.59,-729.5 618.59,-672.5 577.59,-672.5"/>
<text text-anchor="middle" x="598.09" y="-717.5" font-family="Helvetica,sans-Serif" font-size="10.00">string</text>
<polyline fill="none" stroke="black" points="577.59,-710.5 618.59,-710.5 "/>
<text text-anchor="middle" x="598.09" y="-698.5" font-family="Helvetica,sans-Serif" font-size="10.00"> </text>
<polyline fill="none" stroke="black" points="577.59,-691.5 618.59,-691.5 "/>
<text text-anchor="middle" x="598.09" y="-679.5" font-family="Helvetica,sans-Serif" font-size="10.00"> </text>
</a>
</g>
</g>
<!-- Node7&#45;&gt;Node4 -->
<g id="edge6" class="edge">
<title>Node7&#45;&gt;Node4</title>
<path fill="none" stroke="#404040" d="M595.35,-672.33C593.56,-647.2 592.6,-609.24 599.09,-577 599.53,-574.83 600,-572.65 600.51,-570.46"/>
<polygon fill="none" stroke="#404040" points="600.53,-570.36 598.14,-563.56 603.49,-558.74 605.89,-565.54 600.53,-570.36"/>
<text text-anchor="middle" x="615.59" y="-613" font-family="Helvetica,sans-Serif" font-size="10.00"> #name</text>
</g>
<!-- Node8 -->
<g id="node8" class="node">
<title>Node8</title>
<g id="a_node8"><a xlink:title=" ">
<polygon fill="none" stroke="black" points="953.09,-672.5 953.09,-729.5 1013.09,-729.5 1013.09,-672.5 953.09,-672.5"/>
<text text-anchor="middle" x="983.09" y="-717.5" font-family="Helvetica,sans-Serif" font-size="10.00">Rectangle</text>
<polyline fill="none" stroke="black" points="953.09,-710.5 1013.09,-710.5 "/>
<text text-anchor="middle" x="983.09" y="-698.5" font-family="Helvetica,sans-Serif" font-size="10.00"> </text>
<polyline fill="none" stroke="black" points="953.09,-691.5 1013.09,-691.5 "/>
<text text-anchor="middle" x="983.09" y="-679.5" font-family="Helvetica,sans-Serif" font-size="10.00"> </text>
</a>
</g>
</g>
<!-- Node8&#45;&gt;Node1 -->
<g id="edge17" class="edge">
<title>Node8&#45;&gt;Node1</title>
<path fill="none" stroke="#404040" d="M1013.28,-697.98C1042.25,-694.24 1084.56,-683.69 1105.09,-654 1124.56,-625.85 1110.5,-610.79 1105.09,-577 1088.01,-470.14 1049.37,-354.17 1015.99,-267"/>
<polygon fill="none" stroke="#404040" points="1015.95,-266.9 1010.06,-262.74 1011.63,-255.7 1017.52,-259.86 1015.95,-266.9"/>
<text text-anchor="middle" x="1150.09" y="-494.5" font-family="Helvetica,sans-Serif" font-size="10.00"> +B1rec</text>
<text text-anchor="middle" x="1150.09" y="-483.5" font-family="Helvetica,sans-Serif" font-size="10.00">+B2rec</text>
<text text-anchor="middle" x="1150.09" y="-472.5" font-family="Helvetica,sans-Serif" font-size="10.00">+BlueClockFrameRec</text>
<text text-anchor="middle" x="1150.09" y="-461.5" font-family="Helvetica,sans-Serif" font-size="10.00">+Bluerec</text>
<text text-anchor="middle" x="1150.09" y="-450.5" font-family="Helvetica,sans-Serif" font-size="10.00">+RedClockFrameRec</text>
<text text-anchor="middle" x="1150.09" y="-439.5" font-family="Helvetica,sans-Serif" font-size="10.00">+Redrec</text>
<text text-anchor="middle" x="1150.09" y="-428.5" font-family="Helvetica,sans-Serif" font-size="10.00">+batteryrec1</text>
<text text-anchor="middle" x="1150.09" y="-417.5" font-family="Helvetica,sans-Serif" font-size="10.00">+batteryrec2</text>
<text text-anchor="middle" x="1150.09" y="-406.5" font-family="Helvetica,sans-Serif" font-size="10.00">+box_rec</text>
<text text-anchor="middle" x="1150.09" y="-395.5" font-family="Helvetica,sans-Serif" font-size="10.00">+box_rec_titlescreen</text>
<text text-anchor="middle" x="1150.09" y="-384.5" font-family="Helvetica,sans-Serif" font-size="10.00">...</text>
</g>
<!-- Node8&#45;&gt;Node4 -->
<g id="edge7" class="edge">
<title>Node8&#45;&gt;Node4</title>
<path fill="none" stroke="#404040" d="M953.04,-695.97C923.55,-690.7 878.67,-678.99 848.09,-654 817.4,-628.92 828.13,-607.73 803.09,-577 779.41,-547.93 749.25,-519.58 722.27,-496.5"/>
<polygon fill="none" stroke="#404040" points="722.05,-496.31 714.88,-495.49 712.88,-488.57 720.04,-489.38 722.05,-496.31"/>
<text text-anchor="middle" x="859.09" y="-613" font-family="Helvetica,sans-Serif" font-size="10.00"> #rec</text>
</g>
<!-- Node8&#45;&gt;Node9 -->
<g id="edge15" class="edge">
<title>Node8&#45;&gt;Node9</title>
<path fill="none" stroke="#404040" d="M1013.32,-697.29C1045.5,-693 1096.34,-682 1130.09,-654 1159.94,-629.25 1144.19,-604.91 1171.09,-577 1182.15,-565.53 1191.48,-570.88 1202.09,-559 1218.81,-540.3 1230.75,-515.25 1238.86,-493.21"/>
<polygon fill="none" stroke="#404040" points="1238.93,-493.02 1237.11,-486.04 1242.86,-481.68 1244.67,-488.66 1238.93,-493.02"/>
<text text-anchor="middle" x="1210.09" y="-629.5" font-family="Helvetica,sans-Serif" font-size="10.00"> +Stand_nemorec</text>
<text text-anchor="middle" x="1210.09" y="-618.5" font-family="Helvetica,sans-Serif" font-size="10.00">+StandframeRec</text>
<text text-anchor="middle" x="1210.09" y="-607.5" font-family="Helvetica,sans-Serif" font-size="10.00">+frameRec</text>
<text text-anchor="middle" x="1210.09" y="-596.5" font-family="Helvetica,sans-Serif" font-size="10.00">+nemorec</text>
</g>
<!-- Node8&#45;&gt;Node13 -->
<g id="edge22" class="edge">
<title>Node8&#45;&gt;Node13</title>
<path fill="none" stroke="#404040" d="M952.98,-698.2C894.82,-694.13 770.07,-682.25 739.09,-654 712.8,-630.02 743.98,-600.32 717.09,-577 672.7,-538.49 634.76,-591.94 586.09,-559 568.04,-546.78 554.35,-527.88 544.24,-508.86"/>
<polygon fill="none" stroke="#404040" points="544.19,-508.76 537.94,-505.16 538.85,-498.01 545.1,-501.6 544.19,-508.76"/>
<text text-anchor="middle" x="769.09" y="-613" font-family="Helvetica,sans-Serif" font-size="10.00"> +EpanoxRec</text>
</g>
<!-- Node9&#45;&gt;Node1 -->
<g id="edge8" class="edge">
<title>Node9&#45;&gt;Node1</title>
<path fill="none" stroke="#404040" d="M1241.42,-402.48C1232.97,-378.62 1219.9,-348.22 1202.09,-325 1163.59,-274.78 1109.62,-229.69 1062.22,-195.45"/>
<polygon fill="none" stroke="#404040" points="1061.98,-195.28 1054.78,-195.05 1052.21,-188.31 1059.42,-188.54 1061.98,-195.28"/>
<text text-anchor="middle" x="1203.09" y="-288" font-family="Helvetica,sans-Serif" font-size="10.00"> +nemo</text>
</g>
<!-- Node10 -->
<g id="node10" class="node">
<title>Node10</title>
<g id="a_node10"><a xlink:title=" ">
<polygon fill="none" stroke="black" points="1474.59,-672.5 1474.59,-729.5 1509.59,-729.5 1509.59,-672.5 1474.59,-672.5"/>
<text text-anchor="middle" x="1492.09" y="-717.5" font-family="Helvetica,sans-Serif" font-size="10.00">float</text>
<polyline fill="none" stroke="black" points="1474.59,-710.5 1509.59,-710.5 "/>
<text text-anchor="middle" x="1492.09" y="-698.5" font-family="Helvetica,sans-Serif" font-size="10.00"> </text>
<polyline fill="none" stroke="black" points="1474.59,-691.5 1509.59,-691.5 "/>
<text text-anchor="middle" x="1492.09" y="-679.5" font-family="Helvetica,sans-Serif" font-size="10.00"> </text>
</a>
</g>
</g>
<!-- Node10&#45;&gt;Node1 -->
<g id="edge27" class="edge">
<title>Node10&#45;&gt;Node1</title>
<path fill="none" stroke="#404040" d="M1496.99,-672.43C1500.19,-645.02 1500.34,-603.37 1478.09,-577 1459.59,-555.07 1438.13,-577.37 1416.09,-559 1326.78,-484.55 1375.64,-412.52 1299.09,-325 1235.49,-252.28 1138.03,-200.07 1063.56,-167.92"/>
<polygon fill="none" stroke="#404040" points="1063.33,-167.82 1056.24,-169.15 1052.29,-163.12 1059.37,-161.79 1063.33,-167.82"/>
<text text-anchor="middle" x="1450.59" y="-467" font-family="Helvetica,sans-Serif" font-size="10.00"> +doorPositionX</text>
<text text-anchor="middle" x="1450.59" y="-456" font-family="Helvetica,sans-Serif" font-size="10.00">+doorPositionY</text>
<text text-anchor="middle" x="1450.59" y="-445" font-family="Helvetica,sans-Serif" font-size="10.00">+doortileX</text>
<text text-anchor="middle" x="1450.59" y="-434" font-family="Helvetica,sans-Serif" font-size="10.00">+doortileY</text>
<text text-anchor="middle" x="1450.59" y="-423" font-family="Helvetica,sans-Serif" font-size="10.00">+thick</text>
<text text-anchor="middle" x="1450.59" y="-412" font-family="Helvetica,sans-Serif" font-size="10.00">+thickness</text>
</g>
<!-- Node10&#45;&gt;Node9 -->
<g id="edge10" class="edge">
<title>Node10&#45;&gt;Node9</title>
<path fill="none" stroke="#404040" d="M1474.39,-693.17C1457.65,-685.86 1432.94,-672.73 1418.09,-654 1395.66,-625.69 1411.42,-607.51 1392.09,-577 1367.65,-538.42 1329.85,-502.95 1299.84,-478.2"/>
<polygon fill="none" stroke="#404040" points="1299.72,-478.11 1292.54,-477.44 1290.39,-470.56 1297.57,-471.22 1299.72,-478.11"/>
<text text-anchor="middle" x="1448.09" y="-624" font-family="Helvetica,sans-Serif" font-size="10.00"> +nemoheight</text>
<text text-anchor="middle" x="1448.09" y="-613" font-family="Helvetica,sans-Serif" font-size="10.00">+nemowidth</text>
<text text-anchor="middle" x="1448.09" y="-602" font-family="Helvetica,sans-Serif" font-size="10.00">+walkspeed</text>
</g>
<!-- Node14 -->
<g id="node14" class="node">
<title>Node14</title>
<g id="a_node14"><a xlink:href="class_endscreen.html" target="_top" xlink:title=" ">
<polygon fill="none" stroke="black" points="1493.59,-408 1493.59,-476 1556.59,-476 1556.59,-408 1493.59,-408"/>
<text text-anchor="middle" x="1525.09" y="-464" font-family="Helvetica,sans-Serif" font-size="10.00">Endscreen</text>
<polyline fill="none" stroke="black" points="1493.59,-457 1556.59,-457 "/>
<text text-anchor="middle" x="1525.09" y="-445" font-family="Helvetica,sans-Serif" font-size="10.00"> </text>
<polyline fill="none" stroke="black" points="1493.59,-438 1556.59,-438 "/>
<text text-anchor="start" x="1501.59" y="-426" font-family="Helvetica,sans-Serif" font-size="10.00">+ update()</text>
<text text-anchor="start" x="1501.59" y="-415" font-family="Helvetica,sans-Serif" font-size="10.00">+ draw()</text>
</a>
</g>
</g>
<!-- Node10&#45;&gt;Node14 -->
<g id="edge25" class="edge">
<title>Node10&#45;&gt;Node14</title>
<path fill="none" stroke="#404040" d="M1499.32,-672.39C1500.72,-666.36 1502.07,-659.99 1503.09,-654 1512.81,-597.17 1518.87,-530.94 1522.11,-488.06"/>
<polygon fill="none" stroke="#404040" points="1522.11,-488.04 1518.56,-481.77 1522.99,-476.08 1526.54,-482.35 1522.11,-488.04"/>
<text text-anchor="middle" x="1542.09" y="-613" font-family="Helvetica,sans-Serif" font-size="10.00"> +creditPosY</text>
</g>
<!-- Node11 -->
<g id="node11" class="node">
<title>Node11</title>
<g id="a_node11"><a xlink:title=" ">
<polygon fill="none" stroke="black" points="1228.09,-672.5 1228.09,-729.5 1278.09,-729.5 1278.09,-672.5 1228.09,-672.5"/>
<text text-anchor="middle" x="1253.09" y="-717.5" font-family="Helvetica,sans-Serif" font-size="10.00">Vector2</text>
<polyline fill="none" stroke="black" points="1228.09,-710.5 1278.09,-710.5 "/>
<text text-anchor="middle" x="1253.09" y="-698.5" font-family="Helvetica,sans-Serif" font-size="10.00"> </text>
<polyline fill="none" stroke="black" points="1228.09,-691.5 1278.09,-691.5 "/>
<text text-anchor="middle" x="1253.09" y="-679.5" font-family="Helvetica,sans-Serif" font-size="10.00"> </text>
</a>
</g>
</g>
<!-- Node11&#45;&gt;Node9 -->
<g id="edge11" class="edge">
<title>Node11&#45;&gt;Node9</title>
<path fill="none" stroke="#404040" d="M1253.09,-672.5C1253.09,-629.94 1253.09,-547.46 1253.09,-493.84"/>
<polygon fill="none" stroke="#404040" points="1253.09,-493.54 1249.09,-487.54 1253.09,-481.54 1257.09,-487.54 1253.09,-493.54"/>
<text text-anchor="middle" x="1288.09" y="-613" font-family="Helvetica,sans-Serif" font-size="10.00"> +NemoPosition</text>
</g>
<!-- Node12 -->
<g id="node12" class="node">
<title>Node12</title>
<g id="a_node12"><a xlink:title=" ">
<polygon fill="none" stroke="black" points="1319.59,-672.5 1319.59,-729.5 1372.59,-729.5 1372.59,-672.5 1319.59,-672.5"/>
<text text-anchor="middle" x="1346.09" y="-717.5" font-family="Helvetica,sans-Serif" font-size="10.00">direction</text>
<polyline fill="none" stroke="black" points="1319.59,-710.5 1372.59,-710.5 "/>
<text text-anchor="middle" x="1346.09" y="-698.5" font-family="Helvetica,sans-Serif" font-size="10.00"> </text>
<polyline fill="none" stroke="black" points="1319.59,-691.5 1372.59,-691.5 "/>
<text text-anchor="middle" x="1346.09" y="-679.5" font-family="Helvetica,sans-Serif" font-size="10.00"> </text>
</a>
</g>
</g>
<!-- Node12&#45;&gt;Node9 -->
<g id="edge13" class="edge">
<title>Node12&#45;&gt;Node9</title>
<path fill="none" stroke="#404040" d="M1343.59,-672.02C1340.73,-646.68 1334.99,-608.58 1324.09,-577 1313.96,-547.62 1298.08,-516.85 1283.9,-492.21"/>
<polygon fill="none" stroke="#404040" points="1283.81,-492.06 1277.33,-488.9 1277.75,-481.7 1284.23,-484.86 1283.81,-492.06"/>
<text text-anchor="middle" x="1364.09" y="-613" font-family="Helvetica,sans-Serif" font-size="10.00"> +Direction</text>
</g>
<!-- Node13&#45;&gt;Node1 -->
<g id="edge19" class="edge">
<title>Node13&#45;&gt;Node1</title>
<path fill="none" stroke="#404040" d="M543.34,-385.79C554.1,-364.91 568.45,-342.08 586.09,-325 662.33,-251.2 771.91,-198.02 852.41,-165.83"/>
<polygon fill="none" stroke="#404040" points="852.9,-165.64 857.02,-159.72 864.06,-161.24 859.95,-167.16 852.9,-165.64"/>
<text text-anchor="middle" x="659.59" y="-288" font-family="Helvetica,sans-Serif" font-size="10.00"> +spr</text>
</g>
<!-- Node14&#45;&gt;Node1 -->
<g id="edge24" class="edge">
<title>Node14&#45;&gt;Node1</title>
<path fill="none" stroke="#404040" d="M1516.61,-407.91C1509.29,-383.49 1497.04,-350.25 1479.09,-325 1459.02,-296.75 1450.37,-290.87 1420.09,-274 1306.43,-210.65 1161.3,-170.9 1064.33,-149.36"/>
<polygon fill="none" stroke="#404040" points="1064.17,-149.33 1057.45,-151.96 1052.45,-146.77 1059.16,-144.14 1064.17,-149.33"/>
<text text-anchor="middle" x="1492.59" y="-288" font-family="Helvetica,sans-Serif" font-size="10.00"> +endscreen</text>
</g>
<!-- Node15 -->
<g id="node15" class="node">
<title>Node15</title>
<g id="a_node15"><a xlink:title=" ">
<polygon fill="none" stroke="black" points="1575.09,-413.5 1575.09,-470.5 1649.09,-470.5 1649.09,-413.5 1575.09,-413.5"/>
<text text-anchor="middle" x="1612.09" y="-458.5" font-family="Helvetica,sans-Serif" font-size="10.00">GameScreen</text>
<polyline fill="none" stroke="black" points="1575.09,-451.5 1649.09,-451.5 "/>
<text text-anchor="middle" x="1612.09" y="-439.5" font-family="Helvetica,sans-Serif" font-size="10.00"> </text>
<polyline fill="none" stroke="black" points="1575.09,-432.5 1649.09,-432.5 "/>
<text text-anchor="middle" x="1612.09" y="-420.5" font-family="Helvetica,sans-Serif" font-size="10.00"> </text>
</a>
</g>
</g>
<!-- Node15&#45;&gt;Node1 -->
<g id="edge28" class="edge">
<title>Node15&#45;&gt;Node1</title>
<path fill="none" stroke="#404040" d="M1606.43,-413.31C1596.9,-374.58 1573.6,-305.47 1524.09,-274 1381.34,-183.23 1184.37,-149.19 1064.41,-136.49"/>
<polygon fill="none" stroke="#404040" points="1064.27,-136.47 1057.89,-139.84 1052.33,-135.25 1058.71,-131.88 1064.27,-136.47"/>
<text text-anchor="middle" x="1591.59" y="-288" font-family="Helvetica,sans-Serif" font-size="10.00"> +currentscreen</text>
</g>
<!-- Node16 -->
<g id="node16" class="node">
<title>Node16</title>
<g id="a_node16"><a xlink:title=" ">
<polygon fill="none" stroke="black" points="1668.09,-413.5 1668.09,-470.5 1736.09,-470.5 1736.09,-413.5 1668.09,-413.5"/>
<text text-anchor="middle" x="1702.09" y="-458.5" font-family="Helvetica,sans-Serif" font-size="10.00">EnemyType</text>
<polyline fill="none" stroke="black" points="1668.09,-451.5 1736.09,-451.5 "/>
<text text-anchor="middle" x="1702.09" y="-439.5" font-family="Helvetica,sans-Serif" font-size="10.00"> </text>
<polyline fill="none" stroke="black" points="1668.09,-432.5 1736.09,-432.5 "/>
<text text-anchor="middle" x="1702.09" y="-420.5" font-family="Helvetica,sans-Serif" font-size="10.00"> </text>
</a>
</g>
</g>
<!-- Node16&#45;&gt;Node1 -->
<g id="edge29" class="edge">
<title>Node16&#45;&gt;Node1</title>
<path fill="none" stroke="#404040" d="M1698.66,-413.29C1692.36,-375.21 1675.15,-307.59 1630.09,-274 1541.64,-208.06 1230.48,-161.74 1064.41,-141.09"/>
<polygon fill="none" stroke="#404040" points="1064.13,-141.05 1057.68,-144.29 1052.22,-139.59 1058.66,-136.35 1064.13,-141.05"/>
<text text-anchor="middle" x="1683.59" y="-288" font-family="Helvetica,sans-Serif" font-size="10.00"> +opponent</text>
</g>
</g>
</svg>
