<?xml version="1.0" encoding="UTF-8" standalone="no"?>
<!DOCTYPE svg PUBLIC "-//W3C//DTD SVG 1.1//EN"
 "http://www.w3.org/Graphics/SVG/1.1/DTD/svg11.dtd">
<!-- Generated by graphviz version 3.0.0 (20220226.1711)
 -->
<!-- Title: Endscreen Pages: 1 -->
<svg width="428pt" height="226pt"
 viewBox="0.00 0.00 427.50 226.00" xmlns="http://www.w3.org/2000/svg" xmlns:xlink="http://www.w3.org/1999/xlink">
<g id="graph0" class="graph" transform="scale(1 1) rotate(0) translate(4 222)">
<title>Endscreen</title>
<!-- Node1 -->
<g id="node1" class="node">
<title>Node1</title>
<g id="a_node1"><a xlink:title=" ">
<polygon fill="#bfbfbf" stroke="black" points="147,-0.5 147,-68.5 210,-68.5 210,-0.5 147,-0.5"/>
<text text-anchor="middle" x="178.5" y="-56.5" font-family="Helvetica,sans-Serif" font-size="10.00">Endscreen</text>
<polyline fill="none" stroke="black" points="147,-49.5 210,-49.5 "/>
<text text-anchor="middle" x="178.5" y="-37.5" font-family="Helvetica,sans-Serif" font-size="10.00"> </text>
<polyline fill="none" stroke="black" points="147,-30.5 210,-30.5 "/>
<text text-anchor="start" x="155" y="-18.5" font-family="Helvetica,sans-Serif" font-size="10.00">+ update()</text>
<text text-anchor="start" x="155" y="-7.5" font-family="Helvetica,sans-Serif" font-size="10.00">+ draw()</text>
</a>
</g>
</g>
<!-- Node2 -->
<g id="node2" class="node">
<title>Node2</title>
<g id="a_node2"><a xlink:title=" ">
<polygon fill="none" stroke="black" points="0,-160.5 0,-217.5 61,-217.5 61,-160.5 0,-160.5"/>
<text text-anchor="middle" x="30.5" y="-205.5" font-family="Helvetica,sans-Serif" font-size="10.00">Texture2D</text>
<polyline fill="none" stroke="black" points="0,-198.5 61,-198.5 "/>
<text text-anchor="middle" x="30.5" y="-186.5" font-family="Helvetica,sans-Serif" font-size="10.00"> </text>
<polyline fill="none" stroke="black" points="0,-179.5 61,-179.5 "/>
<text text-anchor="middle" x="30.5" y="-167.5" font-family="Helvetica,sans-Serif" font-size="10.00"> </text>
</a>
</g>
</g>
<!-- Node2&#45;&gt;Node1 -->
<g id="edge1" class="edge">
<title>Node2&#45;&gt;Node1</title>
<path fill="none" stroke="#404040" d="M30.15,-160.09C31.31,-137.9 36.31,-107.32 53.5,-87 73.94,-62.83 107.53,-49.84 134.74,-42.95"/>
<polygon fill="none" stroke="#404040" points="135.03,-42.88 139.98,-37.64 146.73,-40.19 141.78,-45.44 135.03,-42.88"/>
<text text-anchor="middle" x="81.5" y="-112" font-family="Helvetica,sans-Serif" font-size="10.00"> +Endscreen</text>
</g>
<!-- Node3 -->
<g id="node3" class="node">
<title>Node3</title>
<g id="a_node3"><a xlink:title=" ">
<polygon fill="none" stroke="black" points="91.5,-160.5 91.5,-217.5 127.5,-217.5 127.5,-160.5 91.5,-160.5"/>
<text text-anchor="middle" x="109.5" y="-205.5" font-family="Helvetica,sans-Serif" font-size="10.00">Font</text>
<polyline fill="none" stroke="black" points="91.5,-198.5 127.5,-198.5 "/>
<text text-anchor="middle" x="109.5" y="-186.5" font-family="Helvetica,sans-Serif" font-size="10.00"> </text>
<polyline fill="none" stroke="black" points="91.5,-179.5 127.5,-179.5 "/>
<text text-anchor="middle" x="109.5" y="-167.5" font-family="Helvetica,sans-Serif" font-size="10.00"> </text>
</a>
</g>
</g>
<!-- Node3&#45;&gt;Node1 -->
<g id="edge2" class="edge">
<title>Node3&#45;&gt;Node1</title>
<path fill="none" stroke="#404040" d="M110.4,-160.46C112.08,-139.32 116.59,-109.97 128.5,-87 131.33,-81.54 134.93,-76.27 138.89,-71.32"/>
<polygon fill="none" stroke="#404040" points="138.95,-71.26 139.9,-64.11 146.86,-62.23 145.91,-69.38 138.95,-71.26"/>
<text text-anchor="middle" x="151.5" y="-112" font-family="Helvetica,sans-Serif" font-size="10.00"> +textFont</text>
</g>
<!-- Node4 -->
<g id="node4" class="node">
<title>Node4</title>
<g id="a_node4"><a xlink:title=" ">
<polygon fill="none" stroke="black" points="164,-160.5 164,-217.5 193,-217.5 193,-160.5 164,-160.5"/>
<text text-anchor="middle" x="178.5" y="-205.5" font-family="Helvetica,sans-Serif" font-size="10.00">int</text>
<polyline fill="none" stroke="black" points="164,-198.5 193,-198.5 "/>
<text text-anchor="middle" x="178.5" y="-186.5" font-family="Helvetica,sans-Serif" font-size="10.00"> </text>
<polyline fill="none" stroke="black" points="164,-179.5 193,-179.5 "/>
<text text-anchor="middle" x="178.5" y="-167.5" font-family="Helvetica,sans-Serif" font-size="10.00"> </text>
</a>
</g>
</g>
<!-- Node4&#45;&gt;Node1 -->
<g id="edge3" class="edge">
<title>Node4&#45;&gt;Node1</title>
<path fill="none" stroke="#404040" d="M178.5,-160.38C178.5,-138.25 178.5,-106.75 178.5,-80.92"/>
<polygon fill="none" stroke="#404040" points="178.5,-80.76 174.5,-74.76 178.5,-68.76 182.5,-74.76 178.5,-80.76"/>
<text text-anchor="middle" x="214.5" y="-128.5" font-family="Helvetica,sans-Serif" font-size="10.00"> +positionTitle2X</text>
<text text-anchor="middle" x="214.5" y="-117.5" font-family="Helvetica,sans-Serif" font-size="10.00">+positionTitle3X</text>
<text text-anchor="middle" x="214.5" y="-106.5" font-family="Helvetica,sans-Serif" font-size="10.00">+positionTitleX</text>
<text text-anchor="middle" x="214.5" y="-95.5" font-family="Helvetica,sans-Serif" font-size="10.00">+positionX</text>
</g>
<!-- Node5 -->
<g id="node5" class="node">
<title>Node5</title>
<g id="a_node5"><a xlink:title=" ">
<polygon fill="none" stroke="black" points="256,-160.5 256,-217.5 291,-217.5 291,-160.5 256,-160.5"/>
<text text-anchor="middle" x="273.5" y="-205.5" font-family="Helvetica,sans-Serif" font-size="10.00">float</text>
<polyline fill="none" stroke="black" points="256,-198.5 291,-198.5 "/>
<text text-anchor="middle" x="273.5" y="-186.5" font-family="Helvetica,sans-Serif" font-size="10.00"> </text>
<polyline fill="none" stroke="black" points="256,-179.5 291,-179.5 "/>
<text text-anchor="middle" x="273.5" y="-167.5" font-family="Helvetica,sans-Serif" font-size="10.00"> </text>
</a>
</g>
</g>
<!-- Node5&#45;&gt;Node1 -->
<g id="edge4" class="edge">
<title>Node5&#45;&gt;Node1</title>
<path fill="none" stroke="#404040" d="M272.82,-160.18C271.1,-138.62 265.98,-108.84 251.5,-87 243.61,-75.1 231.96,-65.1 220.27,-57.17"/>
<polygon fill="none" stroke="#404040" points="220.23,-57.15 213.02,-57.33 210.08,-50.74 217.29,-50.56 220.23,-57.15"/>
<text text-anchor="middle" x="300.5" y="-134" font-family="Helvetica,sans-Serif" font-size="10.00"> +add40</text>
<text text-anchor="middle" x="300.5" y="-123" font-family="Helvetica,sans-Serif" font-size="10.00">+creditPosY</text>
<text text-anchor="middle" x="300.5" y="-112" font-family="Helvetica,sans-Serif" font-size="10.00">+fontSize</text>
<text text-anchor="middle" x="300.5" y="-101" font-family="Helvetica,sans-Serif" font-size="10.00">+fontSpacing</text>
<text text-anchor="middle" x="300.5" y="-90" font-family="Helvetica,sans-Serif" font-size="10.00">+fontTitleSize</text>
</g>
<!-- Node6 -->
<g id="node6" class="node">
<title>Node6</title>
<g id="a_node6"><a xlink:title=" ">
<polygon fill="none" stroke="black" points="331.5,-160.5 331.5,-217.5 381.5,-217.5 381.5,-160.5 331.5,-160.5"/>
<text text-anchor="middle" x="356.5" y="-205.5" font-family="Helvetica,sans-Serif" font-size="10.00">Vector2</text>
<polyline fill="none" stroke="black" points="331.5,-198.5 381.5,-198.5 "/>
<text text-anchor="middle" x="356.5" y="-186.5" font-family="Helvetica,sans-Serif" font-size="10.00"> </text>
<polyline fill="none" stroke="black" points="331.5,-179.5 381.5,-179.5 "/>
<text text-anchor="middle" x="356.5" y="-167.5" font-family="Helvetica,sans-Serif" font-size="10.00"> </text>
</a>
</g>
</g>
<!-- Node6&#45;&gt;Node1 -->
<g id="edge5" class="edge">
<title>Node6&#45;&gt;Node1</title>
<path fill="none" stroke="#404040" d="M357.56,-160.23C356.91,-137.82 352.4,-106.87 334.5,-87 306.02,-55.39 257.76,-43.13 222.44,-38.4"/>
<polygon fill="none" stroke="#404040" points="222,-38.35 215.58,-41.64 210.08,-36.98 216.5,-33.69 222,-38.35"/>
<text text-anchor="middle" x="387.5" y="-128.5" font-family="Helvetica,sans-Serif" font-size="10.00"> +textPos</text>
<text text-anchor="middle" x="387.5" y="-117.5" font-family="Helvetica,sans-Serif" font-size="10.00">+textPosTitle</text>
<text text-anchor="middle" x="387.5" y="-106.5" font-family="Helvetica,sans-Serif" font-size="10.00">+textPosTitle2</text>
<text text-anchor="middle" x="387.5" y="-95.5" font-family="Helvetica,sans-Serif" font-size="10.00">+textPosTitle3</text>
</g>
</g>
</svg>
