<?xml version="1.0" encoding="UTF-8" standalone="no"?>
<!DOCTYPE svg PUBLIC "-//W3C//DTD SVG 1.1//EN"
 "http://www.w3.org/Graphics/SVG/1.1/DTD/svg11.dtd">
<!-- Generated by graphviz version 3.0.0 (20220226.1711)
 -->
<!-- Title: Game::Level Pages: 1 -->
<svg width="130pt" height="182pt"
 viewBox="0.00 0.00 130.00 182.00" xmlns="http://www.w3.org/2000/svg" xmlns:xlink="http://www.w3.org/1999/xlink">
<g id="graph0" class="graph" transform="scale(1 1) rotate(0) translate(4 178)">
<title>Game::Level</title>
<!-- Node1 -->
<g id="node1" class="node">
<title>Node1</title>
<g id="a_node1"><a xlink:title=" ">
<polygon fill="#bfbfbf" stroke="black" points="30,-0.5 30,-68.5 101,-68.5 101,-0.5 30,-0.5"/>
<text text-anchor="middle" x="65.5" y="-56.5" font-family="Helvetica,sans-Serif" font-size="10.00">Game::Level</text>
<polyline fill="none" stroke="black" points="30,-49.5 101,-49.5 "/>
<text text-anchor="middle" x="65.5" y="-37.5" font-family="Helvetica,sans-Serif" font-size="10.00"> </text>
<polyline fill="none" stroke="black" points="30,-30.5 101,-30.5 "/>
<text text-anchor="start" x="38" y="-18.5" font-family="Helvetica,sans-Serif" font-size="10.00">+ Draw()</text>
<text text-anchor="start" x="38" y="-7.5" font-family="Helvetica,sans-Serif" font-size="10.00">+ Music()</text>
</a>
</g>
</g>
<!-- Node2 -->
<g id="node2" class="node">
<title>Node2</title>
<g id="a_node2"><a xlink:title=" ">
<polygon fill="none" stroke="black" points="0,-116.5 0,-173.5 61,-173.5 61,-116.5 0,-116.5"/>
<text text-anchor="middle" x="30.5" y="-161.5" font-family="Helvetica,sans-Serif" font-size="10.00">Texture2D</text>
<polyline fill="none" stroke="black" points="0,-154.5 61,-154.5 "/>
<text text-anchor="middle" x="30.5" y="-142.5" font-family="Helvetica,sans-Serif" font-size="10.00"> </text>
<polyline fill="none" stroke="black" points="0,-135.5 61,-135.5 "/>
<text text-anchor="middle" x="30.5" y="-123.5" font-family="Helvetica,sans-Serif" font-size="10.00"> </text>
</a>
</g>
</g>
<!-- Node2&#45;&gt;Node1 -->
<g id="edge1" class="edge">
<title>Node2&#45;&gt;Node1</title>
<path fill="none" stroke="#404040" d="M39.42,-116.34C42.98,-105.3 47.17,-92.31 51.14,-80.01"/>
<polygon fill="none" stroke="#404040" points="51.16,-79.94 49.2,-73 54.85,-68.52 56.81,-75.46 51.16,-79.94"/>
<text text-anchor="middle" x="62.5" y="-90" font-family="Helvetica,sans-Serif" font-size="10.00"> +Map</text>
</g>
<!-- Node3 -->
<g id="node3" class="node">
<title>Node3</title>
<g id="a_node3"><a xlink:title=" ">
<polygon fill="none" stroke="black" points="79,-116.5 79,-173.5 122,-173.5 122,-116.5 79,-116.5"/>
<text text-anchor="middle" x="100.5" y="-161.5" font-family="Helvetica,sans-Serif" font-size="10.00">Music</text>
<polyline fill="none" stroke="black" points="79,-154.5 122,-154.5 "/>
<text text-anchor="middle" x="100.5" y="-142.5" font-family="Helvetica,sans-Serif" font-size="10.00"> </text>
<polyline fill="none" stroke="black" points="79,-135.5 122,-135.5 "/>
<text text-anchor="middle" x="100.5" y="-123.5" font-family="Helvetica,sans-Serif" font-size="10.00"> </text>
</a>
</g>
</g>
<!-- Node3&#45;&gt;Node1 -->
<g id="edge2" class="edge">
<title>Node3&#45;&gt;Node1</title>
<path fill="none" stroke="#404040" d="M91.58,-116.34C88.02,-105.3 83.83,-92.31 79.86,-80.01"/>
<polygon fill="none" stroke="#404040" points="79.84,-79.94 74.19,-75.46 76.15,-68.52 81.8,-73 79.84,-79.94"/>
<text text-anchor="middle" x="102.5" y="-90" font-family="Helvetica,sans-Serif" font-size="10.00"> +music</text>
</g>
</g>
</svg>
