<?xml version="1.0" encoding="UTF-8" standalone="no"?>
<!DOCTYPE svg PUBLIC "-//W3C//DTD SVG 1.1//EN"
 "http://www.w3.org/Graphics/SVG/1.1/DTD/svg11.dtd">
<!-- Generated by graphviz version 3.0.0 (20220226.1711)
 -->
<!-- Title: Game::Nemo Pages: 1 -->
<svg width="598pt" height="226pt"
 viewBox="0.00 0.00 597.50 226.00" xmlns="http://www.w3.org/2000/svg" xmlns:xlink="http://www.w3.org/1999/xlink">
<g id="graph0" class="graph" transform="scale(1 1) rotate(0) translate(4 222)">
<title>Game::Nemo</title>
<!-- Node1 -->
<g id="node1" class="node">
<title>Node1</title>
<g id="a_node1"><a xlink:title=" ">
<polygon fill="#bfbfbf" stroke="black" points="274.5,-0.5 274.5,-79.5 348.5,-79.5 348.5,-0.5 274.5,-0.5"/>
<text text-anchor="middle" x="311.5" y="-67.5" font-family="Helvetica,sans-Serif" font-size="10.00">Game::Nemo</text>
<polyline fill="none" stroke="black" points="274.5,-60.5 348.5,-60.5 "/>
<text text-anchor="middle" x="311.5" y="-48.5" font-family="Helvetica,sans-Serif" font-size="10.00"> </text>
<polyline fill="none" stroke="black" points="274.5,-41.5 348.5,-41.5 "/>
<text text-anchor="start" x="282.5" y="-29.5" font-family="Helvetica,sans-Serif" font-size="10.00">+ Update()</text>
<text text-anchor="start" x="282.5" y="-18.5" font-family="Helvetica,sans-Serif" font-size="10.00">+ Draw()</text>
<text text-anchor="start" x="282.5" y="-7.5" font-family="Helvetica,sans-Serif" font-size="10.00">+ ~Nemo()</text>
</a>
</g>
</g>
<!-- Node2 -->
<g id="node2" class="node">
<title>Node2</title>
<g id="a_node2"><a xlink:title=" ">
<polygon fill="none" stroke="black" points="0,-160.5 0,-217.5 29,-217.5 29,-160.5 0,-160.5"/>
<text text-anchor="middle" x="14.5" y="-205.5" font-family="Helvetica,sans-Serif" font-size="10.00">int</text>
<polyline fill="none" stroke="black" points="0,-198.5 29,-198.5 "/>
<text text-anchor="middle" x="14.5" y="-186.5" font-family="Helvetica,sans-Serif" font-size="10.00"> </text>
<polyline fill="none" stroke="black" points="0,-179.5 29,-179.5 "/>
<text text-anchor="middle" x="14.5" y="-167.5" font-family="Helvetica,sans-Serif" font-size="10.00"> </text>
</a>
</g>
</g>
<!-- Node2&#45;&gt;Node1 -->
<g id="edge1" class="edge">
<title>Node2&#45;&gt;Node1</title>
<path fill="none" stroke="#404040" d="M12.53,-160.31C12.69,-140.34 16.42,-114.15 32.5,-98 64.13,-66.23 190.97,-50.87 262.25,-44.61"/>
<polygon fill="none" stroke="#404040" points="262.49,-44.59 268.14,-40.1 274.45,-43.58 268.81,-48.07 262.49,-44.59"/>
<text text-anchor="middle" x="67.5" y="-134" font-family="Helvetica,sans-Serif" font-size="10.00"> +HP</text>
<text text-anchor="middle" x="67.5" y="-123" font-family="Helvetica,sans-Serif" font-size="10.00">+currentFrame</text>
<text text-anchor="middle" x="67.5" y="-112" font-family="Helvetica,sans-Serif" font-size="10.00">+framesCounter</text>
<text text-anchor="middle" x="67.5" y="-101" font-family="Helvetica,sans-Serif" font-size="10.00">+framesSpeed</text>
</g>
<!-- Node3 -->
<g id="node3" class="node">
<title>Node3</title>
<g id="a_node3"><a xlink:title=" ">
<polygon fill="none" stroke="black" points="90,-160.5 90,-217.5 125,-217.5 125,-160.5 90,-160.5"/>
<text text-anchor="middle" x="107.5" y="-205.5" font-family="Helvetica,sans-Serif" font-size="10.00">float</text>
<polyline fill="none" stroke="black" points="90,-198.5 125,-198.5 "/>
<text text-anchor="middle" x="107.5" y="-186.5" font-family="Helvetica,sans-Serif" font-size="10.00"> </text>
<polyline fill="none" stroke="black" points="90,-179.5 125,-179.5 "/>
<text text-anchor="middle" x="107.5" y="-167.5" font-family="Helvetica,sans-Serif" font-size="10.00"> </text>
</a>
</g>
</g>
<!-- Node3&#45;&gt;Node1 -->
<g id="edge2" class="edge">
<title>Node3&#45;&gt;Node1</title>
<path fill="none" stroke="#404040" d="M105.64,-160.36C105.85,-140.67 109.43,-114.81 124.5,-98 159.24,-59.24 219.47,-46.46 262.18,-42.45"/>
<polygon fill="none" stroke="#404040" points="262.31,-42.44 267.98,-37.98 274.27,-41.5 268.6,-45.96 262.31,-42.44"/>
<text text-anchor="middle" x="154.5" y="-128.5" font-family="Helvetica,sans-Serif" font-size="10.00"> +nemoheight</text>
<text text-anchor="middle" x="154.5" y="-117.5" font-family="Helvetica,sans-Serif" font-size="10.00">+nemowidth</text>
<text text-anchor="middle" x="154.5" y="-106.5" font-family="Helvetica,sans-Serif" font-size="10.00">+walkspeed</text>
</g>
<!-- Node4 -->
<g id="node4" class="node">
<title>Node4</title>
<g id="a_node4"><a xlink:title=" ">
<polygon fill="none" stroke="black" points="165.5,-160.5 165.5,-217.5 215.5,-217.5 215.5,-160.5 165.5,-160.5"/>
<text text-anchor="middle" x="190.5" y="-205.5" font-family="Helvetica,sans-Serif" font-size="10.00">Vector2</text>
<polyline fill="none" stroke="black" points="165.5,-198.5 215.5,-198.5 "/>
<text text-anchor="middle" x="190.5" y="-186.5" font-family="Helvetica,sans-Serif" font-size="10.00"> </text>
<polyline fill="none" stroke="black" points="165.5,-179.5 215.5,-179.5 "/>
<text text-anchor="middle" x="190.5" y="-167.5" font-family="Helvetica,sans-Serif" font-size="10.00"> </text>
</a>
</g>
</g>
<!-- Node4&#45;&gt;Node1 -->
<g id="edge3" class="edge">
<title>Node4&#45;&gt;Node1</title>
<path fill="none" stroke="#404040" d="M188.24,-160.43C188.07,-141.28 190.76,-116.06 203.5,-98 217.74,-77.81 241.4,-64.19 262.95,-55.34"/>
<polygon fill="none" stroke="#404040" points="263.09,-55.29 267.27,-49.42 274.3,-51.02 270.12,-56.89 263.09,-55.29"/>
<text text-anchor="middle" x="238.5" y="-117.5" font-family="Helvetica,sans-Serif" font-size="10.00"> +NemoPosition</text>
</g>
<!-- Node5 -->
<g id="node5" class="node">
<title>Node5</title>
<g id="a_node5"><a xlink:title=" ">
<polygon fill="none" stroke="black" points="261,-160.5 261,-217.5 296,-217.5 296,-160.5 261,-160.5"/>
<text text-anchor="middle" x="278.5" y="-205.5" font-family="Helvetica,sans-Serif" font-size="10.00">bool</text>
<polyline fill="none" stroke="black" points="261,-198.5 296,-198.5 "/>
<text text-anchor="middle" x="278.5" y="-186.5" font-family="Helvetica,sans-Serif" font-size="10.00"> </text>
<polyline fill="none" stroke="black" points="261,-179.5 296,-179.5 "/>
<text text-anchor="middle" x="278.5" y="-167.5" font-family="Helvetica,sans-Serif" font-size="10.00"> </text>
</a>
</g>
</g>
<!-- Node5&#45;&gt;Node1 -->
<g id="edge4" class="edge">
<title>Node5&#45;&gt;Node1</title>
<path fill="none" stroke="#404040" d="M277.69,-160.4C277.8,-142.37 279.18,-118.46 284.5,-98 285.12,-95.6 285.85,-93.18 286.65,-90.76"/>
<polygon fill="none" stroke="#404040" points="286.66,-90.74 285.04,-83.72 290.9,-79.52 292.52,-86.54 286.66,-90.74"/>
<text text-anchor="middle" x="301.5" y="-123" font-family="Helvetica,sans-Serif" font-size="10.00"> +active</text>
<text text-anchor="middle" x="301.5" y="-112" font-family="Helvetica,sans-Serif" font-size="10.00">+alive</text>
</g>
<!-- Node6 -->
<g id="node6" class="node">
<title>Node6</title>
<g id="a_node6"><a xlink:title=" ">
<polygon fill="none" stroke="black" points="314,-160.5 314,-217.5 367,-217.5 367,-160.5 314,-160.5"/>
<text text-anchor="middle" x="340.5" y="-205.5" font-family="Helvetica,sans-Serif" font-size="10.00">direction</text>
<polyline fill="none" stroke="black" points="314,-198.5 367,-198.5 "/>
<text text-anchor="middle" x="340.5" y="-186.5" font-family="Helvetica,sans-Serif" font-size="10.00"> </text>
<polyline fill="none" stroke="black" points="314,-179.5 367,-179.5 "/>
<text text-anchor="middle" x="340.5" y="-167.5" font-family="Helvetica,sans-Serif" font-size="10.00"> </text>
</a>
</g>
</g>
<!-- Node6&#45;&gt;Node1 -->
<g id="edge5" class="edge">
<title>Node6&#45;&gt;Node1</title>
<path fill="none" stroke="#404040" d="M335.05,-160.35C331.23,-141.03 326.04,-114.68 321.49,-91.65"/>
<polygon fill="none" stroke="#404040" points="321.44,-91.39 316.36,-86.28 319.12,-79.62 324.2,-84.73 321.44,-91.39"/>
<text text-anchor="middle" x="354.5" y="-117.5" font-family="Helvetica,sans-Serif" font-size="10.00"> +Direction</text>
</g>
<!-- Node7 -->
<g id="node7" class="node">
<title>Node7</title>
<g id="a_node7"><a xlink:title=" ">
<polygon fill="none" stroke="black" points="385,-160.5 385,-217.5 446,-217.5 446,-160.5 385,-160.5"/>
<text text-anchor="middle" x="415.5" y="-205.5" font-family="Helvetica,sans-Serif" font-size="10.00">Texture2D</text>
<polyline fill="none" stroke="black" points="385,-198.5 446,-198.5 "/>
<text text-anchor="middle" x="415.5" y="-186.5" font-family="Helvetica,sans-Serif" font-size="10.00"> </text>
<polyline fill="none" stroke="black" points="385,-179.5 446,-179.5 "/>
<text text-anchor="middle" x="415.5" y="-167.5" font-family="Helvetica,sans-Serif" font-size="10.00"> </text>
</a>
</g>
</g>
<!-- Node7&#45;&gt;Node1 -->
<g id="edge6" class="edge">
<title>Node7&#45;&gt;Node1</title>
<path fill="none" stroke="#404040" d="M409.47,-160.15C404.44,-141.35 395.9,-116.65 382.5,-98 375.72,-88.57 366.99,-79.85 357.98,-72.22"/>
<polygon fill="none" stroke="#404040" points="357.92,-72.18 350.74,-71.55 348.56,-64.68 355.74,-65.31 357.92,-72.18"/>
<text text-anchor="middle" x="418.5" y="-134" font-family="Helvetica,sans-Serif" font-size="10.00"> +Back</text>
<text text-anchor="middle" x="418.5" y="-123" font-family="Helvetica,sans-Serif" font-size="10.00">+Front</text>
<text text-anchor="middle" x="418.5" y="-112" font-family="Helvetica,sans-Serif" font-size="10.00">+Left</text>
<text text-anchor="middle" x="418.5" y="-101" font-family="Helvetica,sans-Serif" font-size="10.00">+Right</text>
</g>
<!-- Node8 -->
<g id="node8" class="node">
<title>Node8</title>
<g id="a_node8"><a xlink:title=" ">
<polygon fill="none" stroke="black" points="464.5,-160.5 464.5,-217.5 508.5,-217.5 508.5,-160.5 464.5,-160.5"/>
<text text-anchor="middle" x="486.5" y="-205.5" font-family="Helvetica,sans-Serif" font-size="10.00">Sound</text>
<polyline fill="none" stroke="black" points="464.5,-198.5 508.5,-198.5 "/>
<text text-anchor="middle" x="486.5" y="-186.5" font-family="Helvetica,sans-Serif" font-size="10.00"> </text>
<polyline fill="none" stroke="black" points="464.5,-179.5 508.5,-179.5 "/>
<text text-anchor="middle" x="486.5" y="-167.5" font-family="Helvetica,sans-Serif" font-size="10.00"> </text>
</a>
</g>
</g>
<!-- Node8&#45;&gt;Node1 -->
<g id="edge7" class="edge">
<title>Node8&#45;&gt;Node1</title>
<path fill="none" stroke="#404040" d="M477.19,-160.15C469.45,-140.62 456.75,-115.04 438.5,-98 416.45,-77.4 385.69,-63.33 359.97,-54.33"/>
<polygon fill="none" stroke="#404040" points="359.94,-54.32 352.99,-56.23 348.55,-50.54 355.51,-48.64 359.94,-54.32"/>
<text text-anchor="middle" x="486.5" y="-117.5" font-family="Helvetica,sans-Serif" font-size="10.00"> +fxMp3</text>
</g>
<!-- Node9 -->
<g id="node9" class="node">
<title>Node9</title>
<g id="a_node9"><a xlink:title=" ">
<polygon fill="none" stroke="black" points="526.5,-160.5 526.5,-217.5 586.5,-217.5 586.5,-160.5 526.5,-160.5"/>
<text text-anchor="middle" x="556.5" y="-205.5" font-family="Helvetica,sans-Serif" font-size="10.00">Rectangle</text>
<polyline fill="none" stroke="black" points="526.5,-198.5 586.5,-198.5 "/>
<text text-anchor="middle" x="556.5" y="-186.5" font-family="Helvetica,sans-Serif" font-size="10.00"> </text>
<polyline fill="none" stroke="black" points="526.5,-179.5 586.5,-179.5 "/>
<text text-anchor="middle" x="556.5" y="-167.5" font-family="Helvetica,sans-Serif" font-size="10.00"> </text>
</a>
</g>
</g>
<!-- Node9&#45;&gt;Node1 -->
<g id="edge8" class="edge">
<title>Node9&#45;&gt;Node1</title>
<path fill="none" stroke="#404040" d="M548.2,-160.2C540.84,-140.16 528.17,-113.95 508.5,-98 466.21,-63.72 404.16,-50.05 361.04,-44.61"/>
<polygon fill="none" stroke="#404040" points="360.78,-44.58 354.37,-47.87 348.86,-43.22 355.27,-39.93 360.78,-44.58"/>
<text text-anchor="middle" x="564" y="-123" font-family="Helvetica,sans-Serif" font-size="10.00"> +frameRec</text>
<text text-anchor="middle" x="564" y="-112" font-family="Helvetica,sans-Serif" font-size="10.00">+nemorec</text>
</g>
</g>
</svg>
