<?xml version="1.0" encoding="UTF-8" standalone="no"?>
<!DOCTYPE svg PUBLIC "-//W3C//DTD SVG 1.1//EN"
 "http://www.w3.org/Graphics/SVG/1.1/DTD/svg11.dtd">
<!-- Generated by graphviz version 3.0.0 (20220226.1711)
 -->
<!-- Title: Game::Nemo Pages: 1 -->
<svg width="591pt" height="237pt"
 viewBox="0.00 0.00 590.50 237.00" xmlns="http://www.w3.org/2000/svg" xmlns:xlink="http://www.w3.org/1999/xlink">
<g id="graph0" class="graph" transform="scale(1 1) rotate(0) translate(4 233)">
<title>Game::Nemo</title>
<!-- Node1 -->
<g id="node1" class="node">
<title>Node1</title>
<g id="a_node1"><a xlink:title=" ">
<polygon fill="#bfbfbf" stroke="black" points="250.5,-0.5 250.5,-79.5 324.5,-79.5 324.5,-0.5 250.5,-0.5"/>
<text text-anchor="middle" x="287.5" y="-67.5" font-family="Helvetica,sans-Serif" font-size="10.00">Game::Nemo</text>
<polyline fill="none" stroke="black" points="250.5,-60.5 324.5,-60.5 "/>
<text text-anchor="middle" x="287.5" y="-48.5" font-family="Helvetica,sans-Serif" font-size="10.00"> </text>
<polyline fill="none" stroke="black" points="250.5,-41.5 324.5,-41.5 "/>
<text text-anchor="start" x="258.5" y="-29.5" font-family="Helvetica,sans-Serif" font-size="10.00">+ Update()</text>
<text text-anchor="start" x="258.5" y="-18.5" font-family="Helvetica,sans-Serif" font-size="10.00">+ Draw()</text>
<text text-anchor="start" x="258.5" y="-7.5" font-family="Helvetica,sans-Serif" font-size="10.00">+ ~Nemo()</text>
</a>
</g>
</g>
<!-- Node2 -->
<g id="node2" class="node">
<title>Node2</title>
<g id="a_node2"><a xlink:title=" ">
<polygon fill="none" stroke="black" points="0,-171.5 0,-228.5 29,-228.5 29,-171.5 0,-171.5"/>
<text text-anchor="middle" x="14.5" y="-216.5" font-family="Helvetica,sans-Serif" font-size="10.00">int</text>
<polyline fill="none" stroke="black" points="0,-209.5 29,-209.5 "/>
<text text-anchor="middle" x="14.5" y="-197.5" font-family="Helvetica,sans-Serif" font-size="10.00"> </text>
<polyline fill="none" stroke="black" points="0,-190.5 29,-190.5 "/>
<text text-anchor="middle" x="14.5" y="-178.5" font-family="Helvetica,sans-Serif" font-size="10.00"> </text>
</a>
</g>
</g>
<!-- Node2&#45;&gt;Node1 -->
<g id="edge1" class="edge">
<title>Node2&#45;&gt;Node1</title>
<path fill="none" stroke="#404040" d="M12.01,-171.29C11.58,-148.62 14.91,-117.25 33.5,-98 61.34,-69.18 172.47,-52.94 238.16,-45.68"/>
<polygon fill="none" stroke="#404040" points="238.33,-45.66 243.87,-41.04 250.26,-44.38 244.72,-49 238.33,-45.66"/>
<text text-anchor="middle" x="68.5" y="-139.5" font-family="Helvetica,sans-Serif" font-size="10.00"> +HP</text>
<text text-anchor="middle" x="68.5" y="-128.5" font-family="Helvetica,sans-Serif" font-size="10.00">+currentFrame</text>
<text text-anchor="middle" x="68.5" y="-117.5" font-family="Helvetica,sans-Serif" font-size="10.00">+framesCounter</text>
<text text-anchor="middle" x="68.5" y="-106.5" font-family="Helvetica,sans-Serif" font-size="10.00">+framesSpeed</text>
</g>
<!-- Node3 -->
<g id="node3" class="node">
<title>Node3</title>
<g id="a_node3"><a xlink:title=" ">
<polygon fill="none" stroke="black" points="90,-171.5 90,-228.5 125,-228.5 125,-171.5 90,-171.5"/>
<text text-anchor="middle" x="107.5" y="-216.5" font-family="Helvetica,sans-Serif" font-size="10.00">float</text>
<polyline fill="none" stroke="black" points="90,-209.5 125,-209.5 "/>
<text text-anchor="middle" x="107.5" y="-197.5" font-family="Helvetica,sans-Serif" font-size="10.00"> </text>
<polyline fill="none" stroke="black" points="90,-190.5 125,-190.5 "/>
<text text-anchor="middle" x="107.5" y="-178.5" font-family="Helvetica,sans-Serif" font-size="10.00"> </text>
</a>
</g>
</g>
<!-- Node3&#45;&gt;Node1 -->
<g id="edge2" class="edge">
<title>Node3&#45;&gt;Node1</title>
<path fill="none" stroke="#404040" d="M105.94,-171.38C106.18,-149.07 110.1,-118.16 127.5,-98 155.16,-65.95 202.12,-51.92 238.03,-45.78"/>
<polygon fill="none" stroke="#404040" points="238.36,-45.73 243.69,-40.87 250.22,-43.92 244.9,-48.78 238.36,-45.73"/>
<text text-anchor="middle" x="159.5" y="-139.5" font-family="Helvetica,sans-Serif" font-size="10.00"> +nemoheight</text>
<text text-anchor="middle" x="159.5" y="-128.5" font-family="Helvetica,sans-Serif" font-size="10.00">+nemowidth</text>
<text text-anchor="middle" x="159.5" y="-117.5" font-family="Helvetica,sans-Serif" font-size="10.00">+timesinceIdle</text>
<text text-anchor="middle" x="159.5" y="-106.5" font-family="Helvetica,sans-Serif" font-size="10.00">+walkspeed</text>
</g>
<!-- Node4 -->
<g id="node4" class="node">
<title>Node4</title>
<g id="a_node4"><a xlink:title=" ">
<polygon fill="none" stroke="black" points="169.5,-171.5 169.5,-228.5 219.5,-228.5 219.5,-171.5 169.5,-171.5"/>
<text text-anchor="middle" x="194.5" y="-216.5" font-family="Helvetica,sans-Serif" font-size="10.00">Vector2</text>
<polyline fill="none" stroke="black" points="169.5,-209.5 219.5,-209.5 "/>
<text text-anchor="middle" x="194.5" y="-197.5" font-family="Helvetica,sans-Serif" font-size="10.00"> </text>
<polyline fill="none" stroke="black" points="169.5,-190.5 219.5,-190.5 "/>
<text text-anchor="middle" x="194.5" y="-178.5" font-family="Helvetica,sans-Serif" font-size="10.00"> </text>
</a>
</g>
</g>
<!-- Node4&#45;&gt;Node1 -->
<g id="edge3" class="edge">
<title>Node4&#45;&gt;Node1</title>
<path fill="none" stroke="#404040" d="M194.47,-171.38C195.62,-149.93 199.88,-120.21 213.5,-98 220.31,-86.9 230.13,-77.15 240.41,-69"/>
<polygon fill="none" stroke="#404040" points="240.66,-68.81 243.11,-62.03 250.31,-61.68 247.86,-68.47 240.66,-68.81"/>
<text text-anchor="middle" x="248.5" y="-123" font-family="Helvetica,sans-Serif" font-size="10.00"> +NemoPosition</text>
</g>
<!-- Node5 -->
<g id="node5" class="node">
<title>Node5</title>
<g id="a_node5"><a xlink:title=" ">
<polygon fill="none" stroke="black" points="270,-171.5 270,-228.5 305,-228.5 305,-171.5 270,-171.5"/>
<text text-anchor="middle" x="287.5" y="-216.5" font-family="Helvetica,sans-Serif" font-size="10.00">bool</text>
<polyline fill="none" stroke="black" points="270,-209.5 305,-209.5 "/>
<text text-anchor="middle" x="287.5" y="-197.5" font-family="Helvetica,sans-Serif" font-size="10.00"> </text>
<polyline fill="none" stroke="black" points="270,-190.5 305,-190.5 "/>
<text text-anchor="middle" x="287.5" y="-178.5" font-family="Helvetica,sans-Serif" font-size="10.00"> </text>
</a>
</g>
</g>
<!-- Node5&#45;&gt;Node1 -->
<g id="edge4" class="edge">
<title>Node5&#45;&gt;Node1</title>
<path fill="none" stroke="#404040" d="M287.5,-171.48C287.5,-149.57 287.5,-118.31 287.5,-91.88"/>
<polygon fill="none" stroke="#404040" points="287.5,-91.75 283.5,-85.75 287.5,-79.75 291.5,-85.75 287.5,-91.75"/>
<text text-anchor="middle" x="316" y="-145" font-family="Helvetica,sans-Serif" font-size="10.00"> +active</text>
<text text-anchor="middle" x="316" y="-134" font-family="Helvetica,sans-Serif" font-size="10.00">+alive</text>
<text text-anchor="middle" x="316" y="-123" font-family="Helvetica,sans-Serif" font-size="10.00">+keypressed</text>
<text text-anchor="middle" x="316" y="-112" font-family="Helvetica,sans-Serif" font-size="10.00">+sound</text>
<text text-anchor="middle" x="316" y="-101" font-family="Helvetica,sans-Serif" font-size="10.00">+standing</text>
</g>
<!-- Node6 -->
<g id="node6" class="node">
<title>Node6</title>
<g id="a_node6"><a xlink:title=" ">
<polygon fill="none" stroke="black" points="339,-171.5 339,-228.5 392,-228.5 392,-171.5 339,-171.5"/>
<text text-anchor="middle" x="365.5" y="-216.5" font-family="Helvetica,sans-Serif" font-size="10.00">direction</text>
<polyline fill="none" stroke="black" points="339,-209.5 392,-209.5 "/>
<text text-anchor="middle" x="365.5" y="-197.5" font-family="Helvetica,sans-Serif" font-size="10.00"> </text>
<polyline fill="none" stroke="black" points="339,-190.5 392,-190.5 "/>
<text text-anchor="middle" x="365.5" y="-178.5" font-family="Helvetica,sans-Serif" font-size="10.00"> </text>
</a>
</g>
</g>
<!-- Node6&#45;&gt;Node1 -->
<g id="edge5" class="edge">
<title>Node6&#45;&gt;Node1</title>
<path fill="none" stroke="#404040" d="M364.42,-171.37C362.59,-150.18 357.81,-120.81 345.5,-98 342.11,-91.71 337.79,-85.68 333.04,-80.05"/>
<polygon fill="none" stroke="#404040" points="332.85,-79.84 325.85,-78.12 324.74,-70.99 331.75,-72.71 332.85,-79.84"/>
<text text-anchor="middle" x="385.5" y="-123" font-family="Helvetica,sans-Serif" font-size="10.00"> +Direction</text>
</g>
<!-- Node7 -->
<g id="node7" class="node">
<title>Node7</title>
<g id="a_node7"><a xlink:title=" ">
<polygon fill="none" stroke="black" points="410,-171.5 410,-228.5 471,-228.5 471,-171.5 410,-171.5"/>
<text text-anchor="middle" x="440.5" y="-216.5" font-family="Helvetica,sans-Serif" font-size="10.00">Texture2D</text>
<polyline fill="none" stroke="black" points="410,-209.5 471,-209.5 "/>
<text text-anchor="middle" x="440.5" y="-197.5" font-family="Helvetica,sans-Serif" font-size="10.00"> </text>
<polyline fill="none" stroke="black" points="410,-190.5 471,-190.5 "/>
<text text-anchor="middle" x="440.5" y="-178.5" font-family="Helvetica,sans-Serif" font-size="10.00"> </text>
</a>
</g>
</g>
<!-- Node7&#45;&gt;Node1 -->
<g id="edge6" class="edge">
<title>Node7&#45;&gt;Node1</title>
<path fill="none" stroke="#404040" d="M439.42,-171.18C437.19,-149.04 430.88,-118.48 413.5,-98 393.83,-74.82 362.8,-60.63 336.45,-52.2"/>
<polygon fill="none" stroke="#404040" points="336.24,-52.14 329.35,-54.26 324.74,-48.72 331.63,-46.6 336.24,-52.14"/>
<text text-anchor="middle" x="452.5" y="-145" font-family="Helvetica,sans-Serif" font-size="10.00"> +Back</text>
<text text-anchor="middle" x="452.5" y="-134" font-family="Helvetica,sans-Serif" font-size="10.00">+Front</text>
<text text-anchor="middle" x="452.5" y="-123" font-family="Helvetica,sans-Serif" font-size="10.00">+Left</text>
<text text-anchor="middle" x="452.5" y="-112" font-family="Helvetica,sans-Serif" font-size="10.00">+Right</text>
<text text-anchor="middle" x="452.5" y="-101" font-family="Helvetica,sans-Serif" font-size="10.00">+Stand</text>
</g>
<!-- Node8 -->
<g id="node8" class="node">
<title>Node8</title>
<g id="a_node8"><a xlink:title=" ">
<polygon fill="none" stroke="black" points="489.5,-171.5 489.5,-228.5 549.5,-228.5 549.5,-171.5 489.5,-171.5"/>
<text text-anchor="middle" x="519.5" y="-216.5" font-family="Helvetica,sans-Serif" font-size="10.00">Rectangle</text>
<polyline fill="none" stroke="black" points="489.5,-209.5 549.5,-209.5 "/>
<text text-anchor="middle" x="519.5" y="-197.5" font-family="Helvetica,sans-Serif" font-size="10.00"> </text>
<polyline fill="none" stroke="black" points="489.5,-190.5 549.5,-190.5 "/>
<text text-anchor="middle" x="519.5" y="-178.5" font-family="Helvetica,sans-Serif" font-size="10.00"> </text>
</a>
</g>
</g>
<!-- Node8&#45;&gt;Node1 -->
<g id="edge7" class="edge">
<title>Node8&#45;&gt;Node1</title>
<path fill="none" stroke="#404040" d="M513.25,-171.2C506.74,-148.46 494.37,-117.06 472.5,-98 434.51,-64.87 377.53,-51 336.86,-45.19"/>
<polygon fill="none" stroke="#404040" points="336.7,-45.17 330.23,-48.36 324.8,-43.63 331.26,-40.43 336.7,-45.17"/>
<text text-anchor="middle" x="544.5" y="-134" font-family="Helvetica,sans-Serif" font-size="10.00"> +StandframeRec</text>
<text text-anchor="middle" x="544.5" y="-123" font-family="Helvetica,sans-Serif" font-size="10.00">+frameRec</text>
<text text-anchor="middle" x="544.5" y="-112" font-family="Helvetica,sans-Serif" font-size="10.00">+nemorec</text>
</g>
</g>
</svg>
