<?xml version="1.0" encoding="UTF-8" standalone="no"?>
<!DOCTYPE svg PUBLIC "-//W3C//DTD SVG 1.1//EN"
 "http://www.w3.org/Graphics/SVG/1.1/DTD/svg11.dtd">
<!-- Generated by graphviz version 3.0.0 (20220226.1711)
 -->
<!-- Title: Game::Level Pages: 1 -->
<svg width="1926pt" height="859pt"
 viewBox="0.00 0.00 1925.91 859.00" xmlns="http://www.w3.org/2000/svg" xmlns:xlink="http://www.w3.org/1999/xlink">
<g id="graph0" class="graph" transform="scale(1 1) rotate(0) translate(4 855)">
<title>Game::Level</title>
<!-- Node1 -->
<g id="node1" class="node">
<title>Node1</title>
<g id="a_node1"><a xlink:title=" ">
<polygon fill="#bfbfbf" stroke="black" points="798.91,-0.5 798.91,-387.5 986.91,-387.5 986.91,-0.5 798.91,-0.5"/>
<text text-anchor="middle" x="892.91" y="-375.5" font-family="Helvetica,sans-Serif" font-size="10.00">Game::Level</text>
<polyline fill="none" stroke="black" points="798.91,-368.5 986.91,-368.5 "/>
<text text-anchor="start" x="806.91" y="-356.5" font-family="Helvetica,sans-Serif" font-size="10.00">+ Titlescreen</text>
<text text-anchor="start" x="806.91" y="-345.5" font-family="Helvetica,sans-Serif" font-size="10.00">+ TitlescreenWithoutText</text>
<text text-anchor="start" x="806.91" y="-334.5" font-family="Helvetica,sans-Serif" font-size="10.00">+ spr_Battery</text>
<text text-anchor="start" x="806.91" y="-323.5" font-family="Helvetica,sans-Serif" font-size="10.00">+ gameover</text>
<text text-anchor="start" x="806.91" y="-312.5" font-family="Helvetica,sans-Serif" font-size="10.00">+ logoPositionX</text>
<text text-anchor="start" x="806.91" y="-301.5" font-family="Helvetica,sans-Serif" font-size="10.00">+ logoPositionY</text>
<text text-anchor="start" x="806.91" y="-290.5" font-family="Helvetica,sans-Serif" font-size="10.00">+ lettersCount</text>
<text text-anchor="start" x="806.91" y="-279.5" font-family="Helvetica,sans-Serif" font-size="10.00">+ topSideRecWidth</text>
<text text-anchor="start" x="806.91" y="-268.5" font-family="Helvetica,sans-Serif" font-size="10.00">+ leftSideRecHeight</text>
<text text-anchor="start" x="806.91" y="-257.5" font-family="Helvetica,sans-Serif" font-size="10.00">+ rightSideRecHeight</text>
<text text-anchor="start" x="806.91" y="-246.5" font-family="Helvetica,sans-Serif" font-size="10.00">+ state</text>
<text text-anchor="start" x="806.91" y="-235.5" font-family="Helvetica,sans-Serif" font-size="10.00">+ h_amount</text>
<text text-anchor="start" x="806.91" y="-224.5" font-family="Helvetica,sans-Serif" font-size="10.00">+ p_framescounter</text>
<text text-anchor="start" x="806.91" y="-213.5" font-family="Helvetica,sans-Serif" font-size="10.00">+ teleportrecOVERWORLDtoPYRAMID</text>
<text text-anchor="start" x="806.91" y="-202.5" font-family="Helvetica,sans-Serif" font-size="10.00">+ teleportrecPYRAMIDtoOVERWORLD</text>
<text text-anchor="start" x="806.91" y="-191.5" font-family="Helvetica,sans-Serif" font-size="10.00">+ teleportrecPYRAMIDtoENDSCREEN</text>
<text text-anchor="start" x="806.91" y="-180.5" font-family="Helvetica,sans-Serif" font-size="10.00">+ t_rec_start</text>
<text text-anchor="start" x="806.91" y="-169.5" font-family="Helvetica,sans-Serif" font-size="10.00">+ t_rec_settings</text>
<text text-anchor="start" x="806.91" y="-158.5" font-family="Helvetica,sans-Serif" font-size="10.00">+ t_rec_exit_game</text>
<text text-anchor="start" x="806.91" y="-147.5" font-family="Helvetica,sans-Serif" font-size="10.00">+ t_rec_attack</text>
<text text-anchor="start" x="806.91" y="-136.5" font-family="Helvetica,sans-Serif" font-size="10.00">+ t_rec_time</text>
<text text-anchor="start" x="806.91" y="-125.5" font-family="Helvetica,sans-Serif" font-size="10.00">+ t_rec_item</text>
<text text-anchor="start" x="806.91" y="-114.5" font-family="Helvetica,sans-Serif" font-size="10.00">+ t_rec_escape</text>
<text text-anchor="start" x="806.91" y="-103.5" font-family="Helvetica,sans-Serif" font-size="10.00">+ t_framescounter</text>
<text text-anchor="start" x="806.91" y="-92.5" font-family="Helvetica,sans-Serif" font-size="10.00">+ r_currentFrame</text>
<polyline fill="none" stroke="black" points="798.91,-85.5 986.91,-85.5 "/>
<text text-anchor="start" x="806.91" y="-73.5" font-family="Helvetica,sans-Serif" font-size="10.00">+ combat()</text>
<text text-anchor="start" x="806.91" y="-62.5" font-family="Helvetica,sans-Serif" font-size="10.00">+ ScreenDraw()</text>
<text text-anchor="start" x="806.91" y="-51.5" font-family="Helvetica,sans-Serif" font-size="10.00">+ Draw()</text>
<text text-anchor="start" x="806.91" y="-40.5" font-family="Helvetica,sans-Serif" font-size="10.00">+ Teleport()</text>
<text text-anchor="start" x="806.91" y="-29.5" font-family="Helvetica,sans-Serif" font-size="10.00">+ ~Level()</text>
<text text-anchor="start" x="806.91" y="-18.5" font-family="Helvetica,sans-Serif" font-size="10.00">+ damaged()</text>
<text text-anchor="start" x="806.91" y="-7.5" font-family="Helvetica,sans-Serif" font-size="10.00">+ Draw9Slice()</text>
</a>
</g>
</g>
<!-- Node1&#45;&gt;Node1 -->
<g id="edge22" class="edge">
<title>Node1&#45;&gt;Node1</title>
<path fill="none" stroke="#404040" d="M987.28,-230.23C997.98,-223.44 1004.91,-211.37 1004.91,-194 1004.91,-182.33 1001.78,-173.05 996.48,-166.16"/>
<polygon fill="none" stroke="#404040" points="996.15,-165.86 989.02,-164.77 987.28,-157.77 994.41,-158.86 996.15,-165.86"/>
<text text-anchor="middle" x="1018.91" y="-191.5" font-family="Helvetica,sans-Serif" font-size="10.00"> +level</text>
</g>
<!-- Node2 -->
<g id="node2" class="node">
<title>Node2</title>
<g id="a_node2"><a xlink:title=" ">
<polygon fill="none" stroke="black" points="465.41,-793.5 465.41,-850.5 526.41,-850.5 526.41,-793.5 465.41,-793.5"/>
<text text-anchor="middle" x="495.91" y="-838.5" font-family="Helvetica,sans-Serif" font-size="10.00">Texture2D</text>
<polyline fill="none" stroke="black" points="465.41,-831.5 526.41,-831.5 "/>
<text text-anchor="middle" x="495.91" y="-819.5" font-family="Helvetica,sans-Serif" font-size="10.00"> </text>
<polyline fill="none" stroke="black" points="465.41,-812.5 526.41,-812.5 "/>
<text text-anchor="middle" x="495.91" y="-800.5" font-family="Helvetica,sans-Serif" font-size="10.00"> </text>
</a>
</g>
</g>
<!-- Node2&#45;&gt;Node1 -->
<g id="edge1" class="edge">
<title>Node2&#45;&gt;Node1</title>
<path fill="none" stroke="#404040" d="M465.18,-810.64C447.19,-804.85 423.94,-797.85 402.91,-793 378.56,-787.39 308.1,-794.03 291.91,-775 272.9,-752.66 276.35,-733.87 291.91,-709 301.61,-693.5 315.8,-703.75 328.91,-691 412.99,-609.23 370.26,-542.16 450.91,-457 546.73,-355.81 690.21,-280.55 787.49,-237.26"/>
<polygon fill="none" stroke="#404040" points="787.55,-237.23 791.43,-231.15 798.53,-232.39 794.65,-238.47 787.55,-237.23"/>
<text text-anchor="middle" x="503.91" y="-632" font-family="Helvetica,sans-Serif" font-size="10.00"> +Attack</text>
<text text-anchor="middle" x="503.91" y="-621" font-family="Helvetica,sans-Serif" font-size="10.00">+Battlescreen</text>
<text text-anchor="middle" x="503.91" y="-610" font-family="Helvetica,sans-Serif" font-size="10.00">+Blue_Clock</text>
<text text-anchor="middle" x="503.91" y="-599" font-family="Helvetica,sans-Serif" font-size="10.00">+Box</text>
<text text-anchor="middle" x="503.91" y="-588" font-family="Helvetica,sans-Serif" font-size="10.00">+Box_S</text>
<text text-anchor="middle" x="503.91" y="-577" font-family="Helvetica,sans-Serif" font-size="10.00">+Map</text>
<text text-anchor="start" x="450.91" y="-566" font-family="Helvetica,sans-Serif" font-size="10.00">+OVERWORLD</text>
<text text-anchor="middle" x="503.91" y="-555" font-family="Helvetica,sans-Serif" font-size="10.00">_Screenshot</text>
<text text-anchor="middle" x="503.91" y="-544" font-family="Helvetica,sans-Serif" font-size="10.00">+PYRAMID_Screenshot</text>
<text text-anchor="middle" x="503.91" y="-533" font-family="Helvetica,sans-Serif" font-size="10.00">+Pausescreen</text>
<text text-anchor="middle" x="503.91" y="-522" font-family="Helvetica,sans-Serif" font-size="10.00">+Red_Clock</text>
<text text-anchor="middle" x="503.91" y="-511" font-family="Helvetica,sans-Serif" font-size="10.00">...</text>
</g>
<!-- Node12 -->
<g id="node12" class="node">
<title>Node12</title>
<g id="a_node12"><a xlink:href="class_game_1_1_nemo.html" target="_top" xlink:title=" ">
<polygon fill="none" stroke="black" points="647.91,-534.5 647.91,-613.5 721.91,-613.5 721.91,-534.5 647.91,-534.5"/>
<text text-anchor="middle" x="684.91" y="-601.5" font-family="Helvetica,sans-Serif" font-size="10.00">Game::Nemo</text>
<polyline fill="none" stroke="black" points="647.91,-594.5 721.91,-594.5 "/>
<text text-anchor="middle" x="684.91" y="-582.5" font-family="Helvetica,sans-Serif" font-size="10.00"> </text>
<polyline fill="none" stroke="black" points="647.91,-575.5 721.91,-575.5 "/>
<text text-anchor="start" x="655.91" y="-563.5" font-family="Helvetica,sans-Serif" font-size="10.00">+ Update()</text>
<text text-anchor="start" x="655.91" y="-552.5" font-family="Helvetica,sans-Serif" font-size="10.00">+ Draw()</text>
<text text-anchor="start" x="655.91" y="-541.5" font-family="Helvetica,sans-Serif" font-size="10.00">+ ~Nemo()</text>
</a>
</g>
</g>
<!-- Node2&#45;&gt;Node12 -->
<g id="edge19" class="edge">
<title>Node2&#45;&gt;Node12</title>
<path fill="none" stroke="#404040" d="M526.66,-795.77C533.45,-789.4 540.29,-782.28 545.91,-775 566.19,-748.72 555.4,-730.25 580.91,-709 601.32,-692 618.39,-709.03 637.91,-691 656.59,-673.73 668.02,-648 674.92,-625.15"/>
<polygon fill="none" stroke="#404040" points="674.93,-625.09 672.67,-618.24 678.12,-613.52 680.38,-620.37 674.93,-625.09"/>
<text text-anchor="middle" x="596.91" y="-761.5" font-family="Helvetica,sans-Serif" font-size="10.00"> +Back</text>
<text text-anchor="middle" x="596.91" y="-750.5" font-family="Helvetica,sans-Serif" font-size="10.00">+Front</text>
<text text-anchor="middle" x="596.91" y="-739.5" font-family="Helvetica,sans-Serif" font-size="10.00">+Left</text>
<text text-anchor="middle" x="596.91" y="-728.5" font-family="Helvetica,sans-Serif" font-size="10.00">+Right</text>
<text text-anchor="middle" x="596.91" y="-717.5" font-family="Helvetica,sans-Serif" font-size="10.00">+Stand</text>
</g>
<!-- Node14 -->
<g id="node14" class="node">
<title>Node14</title>
<g id="a_node14"><a xlink:href="class_game_1_1_sprite.html" target="_top" xlink:title=" ">
<polygon fill="none" stroke="black" points="1072.91,-518 1072.91,-630 1158.91,-630 1158.91,-518 1072.91,-518"/>
<text text-anchor="middle" x="1115.91" y="-618" font-family="Helvetica,sans-Serif" font-size="10.00">Game::Sprite</text>
<polyline fill="none" stroke="black" points="1072.91,-611 1158.91,-611 "/>
<text text-anchor="middle" x="1115.91" y="-599" font-family="Helvetica,sans-Serif" font-size="10.00"> </text>
<polyline fill="none" stroke="black" points="1072.91,-592 1158.91,-592 "/>
<text text-anchor="start" x="1080.91" y="-580" font-family="Helvetica,sans-Serif" font-size="10.00">+ EpanoxDraw()</text>
<text text-anchor="start" x="1080.91" y="-569" font-family="Helvetica,sans-Serif" font-size="10.00">+ Sprite()</text>
<text text-anchor="start" x="1080.91" y="-558" font-family="Helvetica,sans-Serif" font-size="10.00">+ Sprite()</text>
<text text-anchor="start" x="1080.91" y="-547" font-family="Helvetica,sans-Serif" font-size="10.00">+ Sprite()</text>
<text text-anchor="start" x="1080.91" y="-536" font-family="Helvetica,sans-Serif" font-size="10.00">+ Sprite()</text>
<text text-anchor="start" x="1080.91" y="-525" font-family="Helvetica,sans-Serif" font-size="10.00">+ ~Sprite()</text>
</a>
</g>
</g>
<!-- Node2&#45;&gt;Node14 -->
<g id="edge25" class="edge">
<title>Node2&#45;&gt;Node14</title>
<path fill="none" stroke="#404040" d="M526.6,-809.44C544.02,-803.42 566.39,-796.58 586.91,-793 628.55,-785.73 933.75,-801.21 966.91,-775 990.85,-756.07 963.91,-730.16 985.91,-709 1009.99,-685.83 1032.88,-711.96 1058.91,-691 1074.9,-678.12 1086.75,-659.62 1095.36,-641.17"/>
<polygon fill="none" stroke="#404040" points="1095.41,-641.06 1094.13,-633.96 1100.19,-630.05 1101.47,-637.15 1095.41,-641.06"/>
<text text-anchor="middle" x="1014.41" y="-745" font-family="Helvetica,sans-Serif" font-size="10.00"> +EpanoxStil</text>
<text text-anchor="middle" x="1014.41" y="-734" font-family="Helvetica,sans-Serif" font-size="10.00">+texture_</text>
</g>
<!-- Node15 -->
<g id="node15" class="node">
<title>Node15</title>
<g id="a_node15"><a xlink:href="class_endscreen.html" target="_top" xlink:title=" ">
<polygon fill="none" stroke="black" points="566.41,-540 566.41,-608 629.41,-608 629.41,-540 566.41,-540"/>
<text text-anchor="middle" x="597.91" y="-596" font-family="Helvetica,sans-Serif" font-size="10.00">Endscreen</text>
<polyline fill="none" stroke="black" points="566.41,-589 629.41,-589 "/>
<text text-anchor="middle" x="597.91" y="-577" font-family="Helvetica,sans-Serif" font-size="10.00"> </text>
<polyline fill="none" stroke="black" points="566.41,-570 629.41,-570 "/>
<text text-anchor="start" x="574.41" y="-558" font-family="Helvetica,sans-Serif" font-size="10.00">+ update()</text>
<text text-anchor="start" x="574.41" y="-547" font-family="Helvetica,sans-Serif" font-size="10.00">+ draw()</text>
</a>
</g>
</g>
<!-- Node2&#45;&gt;Node15 -->
<g id="edge29" class="edge">
<title>Node2&#45;&gt;Node15</title>
<path fill="none" stroke="#404040" d="M465.12,-810.88C447.11,-805.17 423.86,-798.17 402.91,-793 362.03,-782.92 336.7,-807.47 309.91,-775 291.24,-752.37 290.35,-730.86 309.91,-709 333.91,-682.17 438.12,-705.87 470.91,-691 507.48,-674.41 540.68,-643.24 563.95,-617.39"/>
<polygon fill="none" stroke="#404040" points="564.15,-617.16 565.1,-610.01 572.06,-608.14 571.11,-615.29 564.15,-617.16"/>
<text text-anchor="middle" x="337.91" y="-739.5" font-family="Helvetica,sans-Serif" font-size="10.00"> +Endscreen</text>
</g>
<!-- Node3 -->
<g id="node3" class="node">
<title>Node3</title>
<g id="a_node3"><a xlink:title=" ">
<polygon fill="none" stroke="black" points="175.91,-545.5 175.91,-602.5 211.91,-602.5 211.91,-545.5 175.91,-545.5"/>
<text text-anchor="middle" x="193.91" y="-590.5" font-family="Helvetica,sans-Serif" font-size="10.00">Font</text>
<polyline fill="none" stroke="black" points="175.91,-583.5 211.91,-583.5 "/>
<text text-anchor="middle" x="193.91" y="-571.5" font-family="Helvetica,sans-Serif" font-size="10.00"> </text>
<polyline fill="none" stroke="black" points="175.91,-564.5 211.91,-564.5 "/>
<text text-anchor="middle" x="193.91" y="-552.5" font-family="Helvetica,sans-Serif" font-size="10.00"> </text>
</a>
</g>
</g>
<!-- Node3&#45;&gt;Node1 -->
<g id="edge2" class="edge">
<title>Node3&#45;&gt;Node1</title>
<path fill="none" stroke="#404040" d="M184.49,-545.35C174.16,-509.45 162.73,-446.61 192.91,-406 264.18,-310.08 609.32,-241.11 786.88,-211.34"/>
<polygon fill="none" stroke="#404040" points="787.02,-211.32 792.28,-206.39 798.85,-209.35 793.59,-214.28 787.02,-211.32"/>
<text text-anchor="middle" x="215.91" y="-420" font-family="Helvetica,sans-Serif" font-size="10.00"> +textFont</text>
</g>
<!-- Node4 -->
<g id="node4" class="node">
<title>Node4</title>
<g id="a_node4"><a xlink:title=" ">
<polygon fill="none" stroke="black" points="359.41,-793.5 359.41,-850.5 394.41,-850.5 394.41,-793.5 359.41,-793.5"/>
<text text-anchor="middle" x="376.91" y="-838.5" font-family="Helvetica,sans-Serif" font-size="10.00">float</text>
<polyline fill="none" stroke="black" points="359.41,-831.5 394.41,-831.5 "/>
<text text-anchor="middle" x="376.91" y="-819.5" font-family="Helvetica,sans-Serif" font-size="10.00"> </text>
<polyline fill="none" stroke="black" points="359.41,-812.5 394.41,-812.5 "/>
<text text-anchor="middle" x="376.91" y="-800.5" font-family="Helvetica,sans-Serif" font-size="10.00"> </text>
</a>
</g>
</g>
<!-- Node4&#45;&gt;Node1 -->
<g id="edge3" class="edge">
<title>Node4&#45;&gt;Node1</title>
<path fill="none" stroke="#404040" d="M359.23,-817.65C336.67,-812.45 297.92,-800.29 275.91,-775 209.92,-699.21 242.93,-468.86 250.91,-457 371.15,-278.05 637.35,-221.26 786.45,-203.28"/>
<polygon fill="none" stroke="#404040" points="786.82,-203.24 792.32,-198.57 798.74,-201.85 793.24,-206.52 786.82,-203.24"/>
<text text-anchor="middle" x="287.91" y="-626.5" font-family="Helvetica,sans-Serif" font-size="10.00"> +alpha</text>
<text text-anchor="middle" x="287.91" y="-615.5" font-family="Helvetica,sans-Serif" font-size="10.00">+doorPositionX</text>
<text text-anchor="middle" x="287.91" y="-604.5" font-family="Helvetica,sans-Serif" font-size="10.00">+doorPositionY</text>
<text text-anchor="middle" x="287.91" y="-593.5" font-family="Helvetica,sans-Serif" font-size="10.00">+doortileX</text>
<text text-anchor="middle" x="287.91" y="-582.5" font-family="Helvetica,sans-Serif" font-size="10.00">+doortileY</text>
<text text-anchor="middle" x="287.91" y="-571.5" font-family="Helvetica,sans-Serif" font-size="10.00">+fontSize</text>
<text text-anchor="middle" x="287.91" y="-560.5" font-family="Helvetica,sans-Serif" font-size="10.00">+fontSpacing</text>
<text text-anchor="middle" x="287.91" y="-549.5" font-family="Helvetica,sans-Serif" font-size="10.00">+fontSpecialSize</text>
<text text-anchor="middle" x="287.91" y="-538.5" font-family="Helvetica,sans-Serif" font-size="10.00">+thick</text>
<text text-anchor="middle" x="287.91" y="-527.5" font-family="Helvetica,sans-Serif" font-size="10.00">+thickness</text>
<text text-anchor="middle" x="287.91" y="-516.5" font-family="Helvetica,sans-Serif" font-size="10.00">...</text>
</g>
<!-- Node4&#45;&gt;Node12 -->
<g id="edge15" class="edge">
<title>Node4&#45;&gt;Node12</title>
<path fill="none" stroke="#404040" d="M394.63,-815.58C413.31,-808.96 442.28,-795.98 458.91,-775 477.86,-751.07 454.59,-728.69 477.91,-709 532.58,-662.83 580.89,-734.25 637.91,-691 658.64,-675.27 670.26,-648.87 676.76,-625.23"/>
<polygon fill="none" stroke="#404040" points="676.77,-625.2 674.31,-618.41 679.63,-613.54 682.08,-620.33 676.77,-625.2"/>
<text text-anchor="middle" x="509.91" y="-756" font-family="Helvetica,sans-Serif" font-size="10.00"> +nemoheight</text>
<text text-anchor="middle" x="509.91" y="-745" font-family="Helvetica,sans-Serif" font-size="10.00">+nemowidth</text>
<text text-anchor="middle" x="509.91" y="-734" font-family="Helvetica,sans-Serif" font-size="10.00">+timesinceIdle</text>
<text text-anchor="middle" x="509.91" y="-723" font-family="Helvetica,sans-Serif" font-size="10.00">+walkspeed</text>
</g>
<!-- Node5 -->
<g id="node5" class="node">
<title>Node5</title>
<g id="a_node5"><a xlink:title=" ">
<polygon fill="none" stroke="black" points="185.91,-793.5 185.91,-850.5 235.91,-850.5 235.91,-793.5 185.91,-793.5"/>
<text text-anchor="middle" x="210.91" y="-838.5" font-family="Helvetica,sans-Serif" font-size="10.00">Vector2</text>
<polyline fill="none" stroke="black" points="185.91,-831.5 235.91,-831.5 "/>
<text text-anchor="middle" x="210.91" y="-819.5" font-family="Helvetica,sans-Serif" font-size="10.00"> </text>
<polyline fill="none" stroke="black" points="185.91,-812.5 235.91,-812.5 "/>
<text text-anchor="middle" x="210.91" y="-800.5" font-family="Helvetica,sans-Serif" font-size="10.00"> </text>
</a>
</g>
</g>
<!-- Node5&#45;&gt;Node1 -->
<g id="edge4" class="edge">
<title>Node5&#45;&gt;Node1</title>
<path fill="none" stroke="#404040" d="M185.82,-810.81C146.21,-793.17 70.56,-752.81 39.91,-691 -6.3,-597.83 -19.23,-542.55 39.91,-457 125.99,-332.46 577.86,-245.36 786.79,-211.13"/>
<polygon fill="none" stroke="#404040" points="786.83,-211.13 792.11,-206.22 798.67,-209.2 793.39,-214.11 786.83,-211.13"/>
<text text-anchor="middle" x="103.41" y="-610" font-family="Helvetica,sans-Serif" font-size="10.00"> +fontTextPosBACK</text>
<text text-anchor="middle" x="103.41" y="-599" font-family="Helvetica,sans-Serif" font-size="10.00">+fontTextPosEXIT</text>
<text text-anchor="middle" x="103.41" y="-588" font-family="Helvetica,sans-Serif" font-size="10.00">+fontTextPosFULLSCREEN</text>
<text text-anchor="middle" x="103.41" y="-577" font-family="Helvetica,sans-Serif" font-size="10.00">+fontTextPosFULLSCREEN2</text>
<text text-anchor="middle" x="103.41" y="-566" font-family="Helvetica,sans-Serif" font-size="10.00">+fontTextPosMENU</text>
<text text-anchor="middle" x="103.41" y="-555" font-family="Helvetica,sans-Serif" font-size="10.00">+fontTextPosRESUME</text>
<text text-anchor="middle" x="103.41" y="-544" font-family="Helvetica,sans-Serif" font-size="10.00">+fontTextPosSETTINGS</text>
<text text-anchor="middle" x="103.41" y="-533" font-family="Helvetica,sans-Serif" font-size="10.00">+fontTextPosSTART</text>
</g>
<!-- Node5&#45;&gt;Node12 -->
<g id="edge16" class="edge">
<title>Node5&#45;&gt;Node12</title>
<path fill="none" stroke="#404040" d="M236.08,-820.64C270.22,-818.76 330.92,-810.28 365.91,-775 387.4,-753.33 361.19,-728.21 384.91,-709 428.71,-673.53 592.31,-724.14 637.91,-691 659.03,-675.65 670.68,-649.14 677.1,-625.34"/>
<polygon fill="none" stroke="#404040" points="677.12,-625.24 674.63,-618.47 679.92,-613.57 682.41,-620.34 677.12,-625.24"/>
<text text-anchor="middle" x="419.91" y="-739.5" font-family="Helvetica,sans-Serif" font-size="10.00"> +NemoPosition</text>
</g>
<!-- Node6 -->
<g id="node6" class="node">
<title>Node6</title>
<g id="a_node6"><a xlink:title=" ">
<polygon fill="none" stroke="black" points="941.41,-793.5 941.41,-850.5 970.41,-850.5 970.41,-793.5 941.41,-793.5"/>
<text text-anchor="middle" x="955.91" y="-838.5" font-family="Helvetica,sans-Serif" font-size="10.00">int</text>
<polyline fill="none" stroke="black" points="941.41,-831.5 970.41,-831.5 "/>
<text text-anchor="middle" x="955.91" y="-819.5" font-family="Helvetica,sans-Serif" font-size="10.00"> </text>
<polyline fill="none" stroke="black" points="941.41,-812.5 970.41,-812.5 "/>
<text text-anchor="middle" x="955.91" y="-800.5" font-family="Helvetica,sans-Serif" font-size="10.00"> </text>
</a>
</g>
</g>
<!-- Node6&#45;&gt;Node1 -->
<g id="edge5" class="edge">
<title>Node6&#45;&gt;Node1</title>
<path fill="none" stroke="#404040" d="M954.43,-793.09C951.08,-732.04 942.13,-582.09 928.91,-457 926.94,-438.38 924.68,-419.04 922.28,-399.69"/>
<polygon fill="none" stroke="#404040" points="922.27,-399.55 917.55,-394.09 920.77,-387.64 925.49,-393.09 922.27,-399.55"/>
<text text-anchor="middle" x="998.41" y="-626.5" font-family="Helvetica,sans-Serif" font-size="10.00"> +GO_timer</text>
<text text-anchor="middle" x="998.41" y="-615.5" font-family="Helvetica,sans-Serif" font-size="10.00">+b1_c_frame</text>
<text text-anchor="middle" x="998.41" y="-604.5" font-family="Helvetica,sans-Serif" font-size="10.00">+b2_c_frame</text>
<text text-anchor="middle" x="998.41" y="-593.5" font-family="Helvetica,sans-Serif" font-size="10.00">+b_currentFrame</text>
<text text-anchor="middle" x="998.41" y="-582.5" font-family="Helvetica,sans-Serif" font-size="10.00">+bottomSideRecWidth</text>
<text text-anchor="middle" x="998.41" y="-571.5" font-family="Helvetica,sans-Serif" font-size="10.00">+e_framescounter</text>
<text text-anchor="middle" x="998.41" y="-560.5" font-family="Helvetica,sans-Serif" font-size="10.00">+energy</text>
<text text-anchor="middle" x="998.41" y="-549.5" font-family="Helvetica,sans-Serif" font-size="10.00">+finisher_timer</text>
<text text-anchor="middle" x="998.41" y="-538.5" font-family="Helvetica,sans-Serif" font-size="10.00">+framesCounter</text>
<text text-anchor="middle" x="998.41" y="-527.5" font-family="Helvetica,sans-Serif" font-size="10.00">+framescounter</text>
<text text-anchor="middle" x="998.41" y="-516.5" font-family="Helvetica,sans-Serif" font-size="10.00">...</text>
</g>
<!-- Node9 -->
<g id="node9" class="node">
<title>Node9</title>
<g id="a_node9"><a xlink:href="class_game_1_1_game_character.html" target="_top" xlink:title=" ">
<polygon fill="none" stroke="black" points="1397.41,-457.5 1397.41,-690.5 1514.41,-690.5 1514.41,-457.5 1397.41,-457.5"/>
<text text-anchor="middle" x="1455.91" y="-678.5" font-family="Helvetica,sans-Serif" font-size="10.00">Game::GameCharacter</text>
<polyline fill="none" stroke="black" points="1397.41,-671.5 1514.41,-671.5 "/>
<text text-anchor="middle" x="1455.91" y="-659.5" font-family="Helvetica,sans-Serif" font-size="10.00"> </text>
<polyline fill="none" stroke="black" points="1397.41,-652.5 1514.41,-652.5 "/>
<text text-anchor="start" x="1405.41" y="-640.5" font-family="Helvetica,sans-Serif" font-size="10.00">+ GameCharacter()</text>
<text text-anchor="start" x="1405.41" y="-629.5" font-family="Helvetica,sans-Serif" font-size="10.00">+ get_Name()</text>
<text text-anchor="start" x="1405.41" y="-618.5" font-family="Helvetica,sans-Serif" font-size="10.00">+ attack()</text>
<text text-anchor="start" x="1405.41" y="-607.5" font-family="Helvetica,sans-Serif" font-size="10.00">+ getDamage()</text>
<text text-anchor="start" x="1405.41" y="-596.5" font-family="Helvetica,sans-Serif" font-size="10.00">+ updateCharacter()</text>
<text text-anchor="start" x="1405.41" y="-585.5" font-family="Helvetica,sans-Serif" font-size="10.00">+ getLives()</text>
<text text-anchor="start" x="1405.41" y="-574.5" font-family="Helvetica,sans-Serif" font-size="10.00">+ getArmor()</text>
<text text-anchor="start" x="1405.41" y="-563.5" font-family="Helvetica,sans-Serif" font-size="10.00">+ getStrength()</text>
<text text-anchor="start" x="1405.41" y="-552.5" font-family="Helvetica,sans-Serif" font-size="10.00">+ getDefense()</text>
<text text-anchor="start" x="1405.41" y="-541.5" font-family="Helvetica,sans-Serif" font-size="10.00">+ get_rec()</text>
<text text-anchor="start" x="1405.41" y="-530.5" font-family="Helvetica,sans-Serif" font-size="10.00">+ set_rec()</text>
<text text-anchor="start" x="1405.41" y="-519.5" font-family="Helvetica,sans-Serif" font-size="10.00">+ heal()</text>
<text text-anchor="start" x="1405.41" y="-508.5" font-family="Helvetica,sans-Serif" font-size="10.00">+ get_turnnumb()</text>
<text text-anchor="start" x="1405.41" y="-497.5" font-family="Helvetica,sans-Serif" font-size="10.00">+ set_turnnumb()</text>
<text text-anchor="start" x="1405.41" y="-486.5" font-family="Helvetica,sans-Serif" font-size="10.00">+ draw()</text>
<text text-anchor="start" x="1405.41" y="-475.5" font-family="Helvetica,sans-Serif" font-size="10.00">+ ~GameCharacter()</text>
<text text-anchor="start" x="1405.41" y="-464.5" font-family="Helvetica,sans-Serif" font-size="10.00"># getDamageNumber()</text>
</a>
</g>
</g>
<!-- Node6&#45;&gt;Node9 -->
<g id="edge10" class="edge">
<title>Node6&#45;&gt;Node9</title>
<path fill="none" stroke="#404040" d="M970.81,-819C1032.56,-810.71 1265.47,-779.21 1271.91,-775 1300.8,-756.08 1285.07,-729.44 1312.91,-709 1338.8,-689.99 1356.96,-709.94 1382.91,-691 1384.66,-689.72 1386.38,-688.39 1388.06,-687"/>
<polygon fill="none" stroke="#404040" points="1388.48,-686.63 1390.24,-679.63 1397.37,-678.57 1395.61,-685.56 1388.48,-686.63"/>
<text text-anchor="middle" x="1343.91" y="-767" font-family="Helvetica,sans-Serif" font-size="10.00"> #c_DEF</text>
<text text-anchor="middle" x="1343.91" y="-756" font-family="Helvetica,sans-Serif" font-size="10.00">#c_HP</text>
<text text-anchor="middle" x="1343.91" y="-745" font-family="Helvetica,sans-Serif" font-size="10.00">#c_MaxHP</text>
<text text-anchor="middle" x="1343.91" y="-734" font-family="Helvetica,sans-Serif" font-size="10.00">#c_STR</text>
<text text-anchor="middle" x="1343.91" y="-723" font-family="Helvetica,sans-Serif" font-size="10.00">#c_timeattack</text>
<text text-anchor="middle" x="1343.91" y="-712" font-family="Helvetica,sans-Serif" font-size="10.00">#turnnumb</text>
</g>
<!-- Node6&#45;&gt;Node12 -->
<g id="edge14" class="edge">
<title>Node6&#45;&gt;Node12</title>
<path fill="none" stroke="#404040" d="M941.18,-821.69C907.02,-822.47 821.61,-819.55 772.91,-775 749.99,-754.03 766.77,-735.09 749.91,-709 743.59,-699.23 737.43,-700.63 730.91,-691 717.38,-671.02 706.92,-646.47 699.41,-625.1"/>
<polygon fill="none" stroke="#404040" points="699.37,-624.99 693.67,-620.57 695.55,-613.61 701.25,-618.02 699.37,-624.99"/>
<text text-anchor="middle" x="807.91" y="-756" font-family="Helvetica,sans-Serif" font-size="10.00"> +HP</text>
<text text-anchor="middle" x="807.91" y="-745" font-family="Helvetica,sans-Serif" font-size="10.00">+currentFrame</text>
<text text-anchor="middle" x="807.91" y="-734" font-family="Helvetica,sans-Serif" font-size="10.00">+framesCounter</text>
<text text-anchor="middle" x="807.91" y="-723" font-family="Helvetica,sans-Serif" font-size="10.00">+framesSpeed</text>
</g>
<!-- Node6&#45;&gt;Node14 -->
<g id="edge24" class="edge">
<title>Node6&#45;&gt;Node14</title>
<path fill="none" stroke="#404040" d="M970.41,-817.47C990.46,-811.86 1026.48,-798.99 1046.91,-775 1066.86,-751.56 1058.05,-738.16 1067.91,-709 1075.35,-686.97 1083.81,-663.04 1091.53,-641.57"/>
<polygon fill="none" stroke="#404040" points="1091.54,-641.55 1089.81,-634.55 1095.61,-630.26 1097.34,-637.26 1091.54,-641.55"/>
<text text-anchor="middle" x="1085.91" y="-745" font-family="Helvetica,sans-Serif" font-size="10.00"> +pos_x</text>
<text text-anchor="middle" x="1085.91" y="-734" font-family="Helvetica,sans-Serif" font-size="10.00">+pos_y</text>
</g>
<!-- Node6&#45;&gt;Node15 -->
<g id="edge30" class="edge">
<title>Node6&#45;&gt;Node15</title>
<path fill="none" stroke="#404040" d="M941.27,-820.45C891.3,-818.27 728.45,-808.68 690.91,-775 668.18,-754.62 691,-732.81 671.91,-709 661.46,-695.97 649.74,-703.72 638.91,-691 621.8,-670.92 611.66,-643.23 605.74,-619.93"/>
<polygon fill="none" stroke="#404040" points="605.74,-619.9 600.48,-614.97 603.02,-608.22 608.27,-613.15 605.74,-619.9"/>
<text text-anchor="middle" x="718.41" y="-750.5" font-family="Helvetica,sans-Serif" font-size="10.00"> +Textsize</text>
<text text-anchor="middle" x="718.41" y="-739.5" font-family="Helvetica,sans-Serif" font-size="10.00">+creditPosY</text>
<text text-anchor="middle" x="718.41" y="-728.5" font-family="Helvetica,sans-Serif" font-size="10.00">+positionX</text>
</g>
<!-- Node7 -->
<g id="node7" class="node">
<title>Node7</title>
<g id="a_node7"><a xlink:title=" ">
<polygon fill="none" stroke="black" points="1479.41,-793.5 1479.41,-850.5 1514.41,-850.5 1514.41,-793.5 1479.41,-793.5"/>
<text text-anchor="middle" x="1496.91" y="-838.5" font-family="Helvetica,sans-Serif" font-size="10.00">bool</text>
<polyline fill="none" stroke="black" points="1479.41,-831.5 1514.41,-831.5 "/>
<text text-anchor="middle" x="1496.91" y="-819.5" font-family="Helvetica,sans-Serif" font-size="10.00"> </text>
<polyline fill="none" stroke="black" points="1479.41,-812.5 1514.41,-812.5 "/>
<text text-anchor="middle" x="1496.91" y="-800.5" font-family="Helvetica,sans-Serif" font-size="10.00"> </text>
</a>
</g>
</g>
<!-- Node7&#45;&gt;Node1 -->
<g id="edge6" class="edge">
<title>Node7&#45;&gt;Node1</title>
<path fill="none" stroke="#404040" d="M1514.69,-817.34C1535.47,-812 1568.92,-799.88 1583.91,-775 1631.81,-695.48 1625.15,-577.61 1523.91,-457 1389.42,-296.77 1140.76,-232.96 999.07,-208.77"/>
<polygon fill="none" stroke="#404040" points="998.79,-208.73 992.22,-211.69 986.96,-206.76 993.53,-203.8 998.79,-208.73"/>
<text text-anchor="middle" x="1675.41" y="-643" font-family="Helvetica,sans-Serif" font-size="10.00"> +GameOver</text>
<text text-anchor="middle" x="1675.41" y="-632" font-family="Helvetica,sans-Serif" font-size="10.00">+T_damaged</text>
<text text-anchor="middle" x="1675.41" y="-621" font-family="Helvetica,sans-Serif" font-size="10.00">+battleEnd</text>
<text text-anchor="middle" x="1675.41" y="-610" font-family="Helvetica,sans-Serif" font-size="10.00">+e_damaged</text>
<text text-anchor="middle" x="1675.41" y="-599" font-family="Helvetica,sans-Serif" font-size="10.00">+input</text>
<text text-anchor="middle" x="1675.41" y="-588" font-family="Helvetica,sans-Serif" font-size="10.00">+p_damaged</text>
<text text-anchor="start" x="1611.91" y="-577" font-family="Helvetica,sans-Serif" font-size="10.00">+teleportcollision</text>
<text text-anchor="middle" x="1675.41" y="-566" font-family="Helvetica,sans-Serif" font-size="10.00">OVERWORLDtoPYRAMID</text>
<text text-anchor="start" x="1611.91" y="-555" font-family="Helvetica,sans-Serif" font-size="10.00">+teleportcollisionPYRAMIDto</text>
<text text-anchor="middle" x="1675.41" y="-544" font-family="Helvetica,sans-Serif" font-size="10.00">ENDSCREEN</text>
<text text-anchor="start" x="1611.91" y="-533" font-family="Helvetica,sans-Serif" font-size="10.00">+teleportcollisionPYRAMIDto</text>
<text text-anchor="middle" x="1675.41" y="-522" font-family="Helvetica,sans-Serif" font-size="10.00">OVERWORLD</text>
<text text-anchor="middle" x="1675.41" y="-511" font-family="Helvetica,sans-Serif" font-size="10.00">+timer</text>
<text text-anchor="middle" x="1675.41" y="-500" font-family="Helvetica,sans-Serif" font-size="10.00">...</text>
</g>
<!-- Node7&#45;&gt;Node9 -->
<g id="edge9" class="edge">
<title>Node7&#45;&gt;Node9</title>
<path fill="none" stroke="#404040" d="M1514.7,-798.36C1519.26,-791.27 1523.55,-783.16 1525.91,-775 1534.05,-746.82 1532.9,-737.49 1525.91,-709 1524.02,-701.29 1521.59,-693.54 1518.79,-685.85"/>
<polygon fill="none" stroke="#404040" points="1518.79,-685.84 1512.89,-681.7 1514.44,-674.66 1520.34,-678.8 1518.79,-685.84"/>
<text text-anchor="middle" x="1555.41" y="-739.5" font-family="Helvetica,sans-Serif" font-size="10.00"> +damaged</text>
</g>
<!-- Node7&#45;&gt;Node12 -->
<g id="edge17" class="edge">
<title>Node7&#45;&gt;Node12</title>
<path fill="none" stroke="#404040" d="M1479.26,-820.49C1423.41,-818.54 1251.82,-809.76 1210.91,-775 1187.34,-754.98 1213.63,-727.57 1188.91,-709 1148.18,-678.42 772.47,-720.44 730.91,-691 709.58,-675.9 698.14,-649.27 692,-625.34"/>
<polygon fill="none" stroke="#404040" points="691.97,-625.21 686.75,-620.24 689.32,-613.51 694.55,-618.47 691.97,-625.21"/>
<text text-anchor="middle" x="1239.41" y="-761.5" font-family="Helvetica,sans-Serif" font-size="10.00"> +active</text>
<text text-anchor="middle" x="1239.41" y="-750.5" font-family="Helvetica,sans-Serif" font-size="10.00">+alive</text>
<text text-anchor="middle" x="1239.41" y="-739.5" font-family="Helvetica,sans-Serif" font-size="10.00">+keypressed</text>
<text text-anchor="middle" x="1239.41" y="-728.5" font-family="Helvetica,sans-Serif" font-size="10.00">+sound</text>
<text text-anchor="middle" x="1239.41" y="-717.5" font-family="Helvetica,sans-Serif" font-size="10.00">+standing</text>
</g>
<!-- Node7&#45;&gt;Node14 -->
<g id="edge27" class="edge">
<title>Node7&#45;&gt;Node14</title>
<path fill="none" stroke="#404040" d="M1479.19,-809.97C1467.31,-801.71 1452.18,-789.39 1442.91,-775 1426.36,-749.35 1447.25,-728.67 1423.91,-709 1396.04,-685.52 1294.58,-704.93 1260.91,-691 1226.68,-676.84 1193.97,-652.02 1168.31,-628.97"/>
<polygon fill="none" stroke="#404040" points="1168.02,-628.7 1160.89,-627.59 1159.19,-620.58 1166.31,-621.7 1168.02,-628.7"/>
<text text-anchor="middle" x="1482.41" y="-739.5" font-family="Helvetica,sans-Serif" font-size="10.00"> +EpanoxCollision</text>
</g>
<!-- Node8 -->
<g id="node8" class="node">
<title>Node8</title>
<g id="a_node8"><a xlink:title=" ">
<polygon fill="none" stroke="black" points="739.91,-545.5 739.91,-602.5 919.91,-602.5 919.91,-545.5 739.91,-545.5"/>
<text text-anchor="middle" x="829.91" y="-590.5" font-family="Helvetica,sans-Serif" font-size="10.00">unique_ptr&lt; Game::GameCharacter &gt;</text>
<polyline fill="none" stroke="black" points="739.91,-583.5 919.91,-583.5 "/>
<text text-anchor="middle" x="829.91" y="-571.5" font-family="Helvetica,sans-Serif" font-size="10.00"> </text>
<polyline fill="none" stroke="black" points="739.91,-564.5 919.91,-564.5 "/>
<text text-anchor="middle" x="829.91" y="-552.5" font-family="Helvetica,sans-Serif" font-size="10.00"> </text>
</a>
</g>
</g>
<!-- Node8&#45;&gt;Node1 -->
<g id="edge7" class="edge">
<title>Node8&#45;&gt;Node1</title>
<path fill="none" stroke="#404040" d="M834.54,-545.2C839.88,-513.14 849.17,-457.39 858.79,-399.68"/>
<polygon fill="none" stroke="#404040" points="858.81,-399.57 855.85,-392.99 860.78,-387.73 863.74,-394.31 858.81,-399.57"/>
<text text-anchor="middle" x="875.91" y="-420" font-family="Helvetica,sans-Serif" font-size="10.00"> +player</text>
</g>
<!-- Node9&#45;&gt;Node1 -->
<g id="edge8" class="edge">
<title>Node9&#45;&gt;Node1</title>
<path fill="none" stroke="#404040" d="M1397.4,-472.77C1392.77,-467.21 1387.94,-461.9 1382.91,-457 1271.39,-348.39 1105.76,-272.6 998.56,-231.41"/>
<polygon fill="none" stroke="#404040" points="998.29,-231.31 991.26,-232.92 987.07,-227.05 994.1,-225.44 998.29,-231.31"/>
<text text-anchor="middle" x="1381.41" y="-431" font-family="Helvetica,sans-Serif" font-size="10.00"> +enemy</text>
<text text-anchor="middle" x="1381.41" y="-420" font-family="Helvetica,sans-Serif" font-size="10.00">+pharaoh</text>
<text text-anchor="middle" x="1381.41" y="-409" font-family="Helvetica,sans-Serif" font-size="10.00">+shadow</text>
</g>
<!-- Node10 -->
<g id="node10" class="node">
<title>Node10</title>
<g id="a_node10"><a xlink:title=" ">
<polygon fill="none" stroke="black" points="1624.41,-793.5 1624.41,-850.5 1665.41,-850.5 1665.41,-793.5 1624.41,-793.5"/>
<text text-anchor="middle" x="1644.91" y="-838.5" font-family="Helvetica,sans-Serif" font-size="10.00">string</text>
<polyline fill="none" stroke="black" points="1624.41,-831.5 1665.41,-831.5 "/>
<text text-anchor="middle" x="1644.91" y="-819.5" font-family="Helvetica,sans-Serif" font-size="10.00"> </text>
<polyline fill="none" stroke="black" points="1624.41,-812.5 1665.41,-812.5 "/>
<text text-anchor="middle" x="1644.91" y="-800.5" font-family="Helvetica,sans-Serif" font-size="10.00"> </text>
</a>
</g>
</g>
<!-- Node10&#45;&gt;Node9 -->
<g id="edge11" class="edge">
<title>Node10&#45;&gt;Node9</title>
<path fill="none" stroke="#404040" d="M1632.27,-793.09C1621.07,-769.67 1603.49,-735.82 1583.91,-709 1565.98,-684.45 1543.85,-659.77 1523.07,-638.4"/>
<polygon fill="none" stroke="#404040" points="1522.98,-638.31 1515.92,-636.84 1514.56,-629.76 1521.62,-631.23 1522.98,-638.31"/>
<text text-anchor="middle" x="1638.41" y="-739.5" font-family="Helvetica,sans-Serif" font-size="10.00"> #name</text>
</g>
<!-- Node11 -->
<g id="node11" class="node">
<title>Node11</title>
<g id="a_node11"><a xlink:title=" ">
<polygon fill="none" stroke="black" points="1174.91,-793.5 1174.91,-850.5 1234.91,-850.5 1234.91,-793.5 1174.91,-793.5"/>
<text text-anchor="middle" x="1204.91" y="-838.5" font-family="Helvetica,sans-Serif" font-size="10.00">Rectangle</text>
<polyline fill="none" stroke="black" points="1174.91,-831.5 1234.91,-831.5 "/>
<text text-anchor="middle" x="1204.91" y="-819.5" font-family="Helvetica,sans-Serif" font-size="10.00"> </text>
<polyline fill="none" stroke="black" points="1174.91,-812.5 1234.91,-812.5 "/>
<text text-anchor="middle" x="1204.91" y="-800.5" font-family="Helvetica,sans-Serif" font-size="10.00"> </text>
</a>
</g>
</g>
<!-- Node11&#45;&gt;Node1 -->
<g id="edge21" class="edge">
<title>Node11&#45;&gt;Node1</title>
<path fill="none" stroke="#404040" d="M1235.23,-807.25C1248.08,-799.71 1261.73,-789 1268.91,-775 1282.29,-748.9 1274.46,-737.8 1268.91,-709 1246.05,-590.52 1235.58,-556.9 1167.91,-457 1120.96,-387.7 1052.96,-322.71 996.33,-274.79"/>
<polygon fill="none" stroke="#404040" points="996.17,-274.66 989.01,-273.87 986.98,-266.95 994.15,-267.74 996.17,-274.66"/>
<text text-anchor="middle" x="1312.91" y="-626.5" font-family="Helvetica,sans-Serif" font-size="10.00"> +B1rec</text>
<text text-anchor="middle" x="1312.91" y="-615.5" font-family="Helvetica,sans-Serif" font-size="10.00">+B2rec</text>
<text text-anchor="middle" x="1312.91" y="-604.5" font-family="Helvetica,sans-Serif" font-size="10.00">+BlueClockFrameRec</text>
<text text-anchor="middle" x="1312.91" y="-593.5" font-family="Helvetica,sans-Serif" font-size="10.00">+Bluerec</text>
<text text-anchor="middle" x="1312.91" y="-582.5" font-family="Helvetica,sans-Serif" font-size="10.00">+RedClockFrameRec</text>
<text text-anchor="middle" x="1312.91" y="-571.5" font-family="Helvetica,sans-Serif" font-size="10.00">+Redrec</text>
<text text-anchor="middle" x="1312.91" y="-560.5" font-family="Helvetica,sans-Serif" font-size="10.00">+batteryrec1</text>
<text text-anchor="middle" x="1312.91" y="-549.5" font-family="Helvetica,sans-Serif" font-size="10.00">+batteryrec2</text>
<text text-anchor="middle" x="1312.91" y="-538.5" font-family="Helvetica,sans-Serif" font-size="10.00">+box_rec</text>
<text text-anchor="middle" x="1312.91" y="-527.5" font-family="Helvetica,sans-Serif" font-size="10.00">+box_rec_titlescreen</text>
<text text-anchor="middle" x="1312.91" y="-516.5" font-family="Helvetica,sans-Serif" font-size="10.00">...</text>
</g>
<!-- Node11&#45;&gt;Node9 -->
<g id="edge12" class="edge">
<title>Node11&#45;&gt;Node9</title>
<path fill="none" stroke="#404040" d="M1235.08,-821.22C1273.35,-819.87 1339.13,-811.83 1378.91,-775 1401.7,-753.9 1390.99,-738.08 1401.91,-709 1402.78,-706.66 1403.68,-704.3 1404.58,-701.93"/>
<polygon fill="none" stroke="#404040" points="1404.58,-701.92 1402.99,-694.89 1408.88,-690.71 1410.46,-697.75 1404.58,-701.92"/>
<text text-anchor="middle" x="1412.91" y="-739.5" font-family="Helvetica,sans-Serif" font-size="10.00"> #rec</text>
</g>
<!-- Node11&#45;&gt;Node12 -->
<g id="edge20" class="edge">
<title>Node11&#45;&gt;Node12</title>
<path fill="none" stroke="#404040" d="M1174.76,-817.23C1098.5,-807.59 903.03,-782.33 890.91,-775 859.87,-756.24 873.82,-727.98 842.91,-709 799.94,-682.62 770.23,-722.56 730.91,-691 710.91,-674.95 699.57,-648.94 693.16,-625.62"/>
<polygon fill="none" stroke="#404040" points="693.1,-625.38 687.78,-620.51 690.23,-613.73 695.55,-618.6 693.1,-625.38"/>
<text text-anchor="middle" x="928.91" y="-750.5" font-family="Helvetica,sans-Serif" font-size="10.00"> +StandframeRec</text>
<text text-anchor="middle" x="928.91" y="-739.5" font-family="Helvetica,sans-Serif" font-size="10.00">+frameRec</text>
<text text-anchor="middle" x="928.91" y="-728.5" font-family="Helvetica,sans-Serif" font-size="10.00">+nemorec</text>
</g>
<!-- Node11&#45;&gt;Node14 -->
<g id="edge26" class="edge">
<title>Node11&#45;&gt;Node14</title>
<path fill="none" stroke="#404040" d="M1174.59,-810.66C1158.15,-803.37 1139.15,-791.87 1128.91,-775 1105.04,-735.7 1102.35,-683.68 1105.33,-642.55"/>
<polygon fill="none" stroke="#404040" points="1105.35,-642.39 1101.89,-636.06 1106.39,-630.43 1109.86,-636.76 1105.35,-642.39"/>
<text text-anchor="middle" x="1158.91" y="-739.5" font-family="Helvetica,sans-Serif" font-size="10.00"> +EpanoxRec</text>
</g>
<!-- Node12&#45;&gt;Node1 -->
<g id="edge13" class="edge">
<title>Node12&#45;&gt;Node1</title>
<path fill="none" stroke="#404040" d="M698.27,-534.38C706.69,-511.46 718.31,-482.07 730.91,-457 749.21,-420.58 770.98,-382.61 792.52,-347.26"/>
<polygon fill="none" stroke="#404040" points="792.62,-347.1 792.34,-339.89 798.89,-336.87 799.16,-344.08 792.62,-347.1"/>
<text text-anchor="middle" x="771.91" y="-420" font-family="Helvetica,sans-Serif" font-size="10.00"> +nemo</text>
</g>
<!-- Node13 -->
<g id="node13" class="node">
<title>Node13</title>
<g id="a_node13"><a xlink:title=" ">
<polygon fill="none" stroke="black" points="596.41,-793.5 596.41,-850.5 649.41,-850.5 649.41,-793.5 596.41,-793.5"/>
<text text-anchor="middle" x="622.91" y="-838.5" font-family="Helvetica,sans-Serif" font-size="10.00">direction</text>
<polyline fill="none" stroke="black" points="596.41,-831.5 649.41,-831.5 "/>
<text text-anchor="middle" x="622.91" y="-819.5" font-family="Helvetica,sans-Serif" font-size="10.00"> </text>
<polyline fill="none" stroke="black" points="596.41,-812.5 649.41,-812.5 "/>
<text text-anchor="middle" x="622.91" y="-800.5" font-family="Helvetica,sans-Serif" font-size="10.00"> </text>
</a>
</g>
</g>
<!-- Node13&#45;&gt;Node12 -->
<g id="edge18" class="edge">
<title>Node13&#45;&gt;Node12</title>
<path fill="none" stroke="#404040" d="M618.35,-793.46C615.62,-770.26 614.32,-736.55 623.91,-709 627.24,-699.43 632.84,-699.78 637.91,-691 649.86,-670.27 660.22,-645.92 668.16,-624.89"/>
<polygon fill="none" stroke="#404040" points="668.17,-624.85 666.48,-617.84 672.31,-613.59 673.99,-620.6 668.17,-624.85"/>
<text text-anchor="middle" x="647.91" y="-739.5" font-family="Helvetica,sans-Serif" font-size="10.00"> +Direction</text>
</g>
<!-- Node14&#45;&gt;Node1 -->
<g id="edge23" class="edge">
<title>Node14&#45;&gt;Node1</title>
<path fill="none" stroke="#404040" d="M1090.28,-517.79C1080.86,-498.34 1069.82,-476.48 1058.91,-457 1038.78,-421.09 1015.87,-383.26 993.64,-347.86"/>
<polygon fill="none" stroke="#404040" points="993.48,-347.6 986.89,-344.66 987.08,-337.45 993.66,-340.39 993.48,-347.6"/>
<text text-anchor="middle" x="1058.41" y="-420" font-family="Helvetica,sans-Serif" font-size="10.00"> +spr</text>
</g>
<!-- Node15&#45;&gt;Node1 -->
<g id="edge28" class="edge">
<title>Node15&#45;&gt;Node1</title>
<path fill="none" stroke="#404040" d="M605.98,-539.78C612.68,-515.75 623.59,-483.06 638.91,-457 678.28,-390.01 738.23,-327.07 790,-279.67"/>
<polygon fill="none" stroke="#404040" points="790.01,-279.67 791.77,-272.67 798.9,-271.61 797.14,-278.6 790.01,-279.67"/>
<text text-anchor="middle" x="700.41" y="-420" font-family="Helvetica,sans-Serif" font-size="10.00"> +endscreen</text>
</g>
<!-- Node16 -->
<g id="node16" class="node">
<title>Node16</title>
<g id="a_node16"><a xlink:title=" ">
<polygon fill="none" stroke="black" points="1756.91,-545.5 1756.91,-602.5 1830.91,-602.5 1830.91,-545.5 1756.91,-545.5"/>
<text text-anchor="middle" x="1793.91" y="-590.5" font-family="Helvetica,sans-Serif" font-size="10.00">GameScreen</text>
<polyline fill="none" stroke="black" points="1756.91,-583.5 1830.91,-583.5 "/>
<text text-anchor="middle" x="1793.91" y="-571.5" font-family="Helvetica,sans-Serif" font-size="10.00"> </text>
<polyline fill="none" stroke="black" points="1756.91,-564.5 1830.91,-564.5 "/>
<text text-anchor="middle" x="1793.91" y="-552.5" font-family="Helvetica,sans-Serif" font-size="10.00"> </text>
</a>
</g>
</g>
<!-- Node16&#45;&gt;Node1 -->
<g id="edge31" class="edge">
<title>Node16&#45;&gt;Node1</title>
<path fill="none" stroke="#404040" d="M1787.9,-545.31C1781.01,-519.49 1767.37,-481.38 1742.91,-457 1702.73,-416.95 1679.28,-425.22 1625.91,-406 1406.71,-327.06 1142.61,-256.97 998.85,-220.85"/>
<polygon fill="none" stroke="#404040" points="998.65,-220.8 991.86,-223.22 987.01,-217.88 993.8,-215.46 998.65,-220.8"/>
<text text-anchor="middle" x="1754.41" y="-420" font-family="Helvetica,sans-Serif" font-size="10.00"> +currentscreen</text>
</g>
<!-- Node17 -->
<g id="node17" class="node">
<title>Node17</title>
<g id="a_node17"><a xlink:title=" ">
<polygon fill="none" stroke="black" points="1849.91,-545.5 1849.91,-602.5 1917.91,-602.5 1917.91,-545.5 1849.91,-545.5"/>
<text text-anchor="middle" x="1883.91" y="-590.5" font-family="Helvetica,sans-Serif" font-size="10.00">EnemyType</text>
<polyline fill="none" stroke="black" points="1849.91,-583.5 1917.91,-583.5 "/>
<text text-anchor="middle" x="1883.91" y="-571.5" font-family="Helvetica,sans-Serif" font-size="10.00"> </text>
<polyline fill="none" stroke="black" points="1849.91,-564.5 1917.91,-564.5 "/>
<text text-anchor="middle" x="1883.91" y="-552.5" font-family="Helvetica,sans-Serif" font-size="10.00"> </text>
</a>
</g>
</g>
<!-- Node17&#45;&gt;Node1 -->
<g id="edge32" class="edge">
<title>Node17&#45;&gt;Node1</title>
<path fill="none" stroke="#404040" d="M1878.1,-545.18C1868.24,-505.96 1844.1,-435.87 1792.91,-406 1534.57,-255.25 1175.37,-212.16 999.09,-199.88"/>
<polygon fill="none" stroke="#404040" points="998.95,-199.87 992.69,-203.46 986.98,-199.06 993.23,-195.48 998.95,-199.87"/>
<text text-anchor="middle" x="1851.41" y="-420" font-family="Helvetica,sans-Serif" font-size="10.00"> +opponent</text>
</g>
</g>
</svg>
