<?xml version="1.0" encoding="UTF-8" standalone="no"?>
<!DOCTYPE svg PUBLIC "-//W3C//DTD SVG 1.1//EN"
 "http://www.w3.org/Graphics/SVG/1.1/DTD/svg11.dtd">
<!-- Generated by graphviz version 3.0.0 (20220226.1711)
 -->
<!-- Title: Shadow Pages: 1 -->
<svg width="262pt" height="215pt"
 viewBox="0.00 0.00 261.50 215.00" xmlns="http://www.w3.org/2000/svg" xmlns:xlink="http://www.w3.org/1999/xlink">
<g id="graph0" class="graph" transform="scale(1 1) rotate(0) translate(4 211)">
<title>Shadow</title>
<!-- Node1 -->
<g id="node1" class="node">
<title>Node1</title>
<g id="a_node1"><a xlink:title=" ">
<polygon fill="#bfbfbf" stroke="black" points="66,-0.5 66,-79.5 163,-79.5 163,-0.5 66,-0.5"/>
<text text-anchor="middle" x="114.5" y="-67.5" font-family="Helvetica,sans-Serif" font-size="10.00">Shadow</text>
<polyline fill="none" stroke="black" points="66,-60.5 163,-60.5 "/>
<text text-anchor="middle" x="114.5" y="-48.5" font-family="Helvetica,sans-Serif" font-size="10.00"> </text>
<polyline fill="none" stroke="black" points="66,-41.5 163,-41.5 "/>
<text text-anchor="start" x="74" y="-29.5" font-family="Helvetica,sans-Serif" font-size="10.00">+ Update()</text>
<text text-anchor="start" x="74" y="-18.5" font-family="Helvetica,sans-Serif" font-size="10.00">+ Draw()</text>
<text text-anchor="start" x="74" y="-7.5" font-family="Helvetica,sans-Serif" font-size="10.00">+ getShadowRec()</text>
</a>
</g>
</g>
<!-- Node2 -->
<g id="node2" class="node">
<title>Node2</title>
<g id="a_node2"><a xlink:title=" ">
<polygon fill="none" stroke="black" points="0,-149.5 0,-206.5 61,-206.5 61,-149.5 0,-149.5"/>
<text text-anchor="middle" x="30.5" y="-194.5" font-family="Helvetica,sans-Serif" font-size="10.00">Texture2D</text>
<polyline fill="none" stroke="black" points="0,-187.5 61,-187.5 "/>
<text text-anchor="middle" x="30.5" y="-175.5" font-family="Helvetica,sans-Serif" font-size="10.00"> </text>
<polyline fill="none" stroke="black" points="0,-168.5 61,-168.5 "/>
<text text-anchor="middle" x="30.5" y="-156.5" font-family="Helvetica,sans-Serif" font-size="10.00"> </text>
</a>
</g>
</g>
<!-- Node2&#45;&gt;Node1 -->
<g id="edge1" class="edge">
<title>Node2&#45;&gt;Node1</title>
<path fill="none" stroke="#404040" d="M32.94,-149.46C35.34,-133.51 40.09,-113.58 49.5,-98 51.85,-94.11 54.55,-90.34 57.49,-86.72"/>
<polygon fill="none" stroke="#404040" points="57.74,-86.44 58.77,-79.31 65.75,-77.51 64.73,-84.64 57.74,-86.44"/>
<text text-anchor="middle" x="80" y="-112" font-family="Helvetica,sans-Serif" font-size="10.00"> +spr_shadow</text>
</g>
<!-- Node3 -->
<g id="node3" class="node">
<title>Node3</title>
<g id="a_node3"><a xlink:title=" ">
<polygon fill="none" stroke="black" points="84.5,-149.5 84.5,-206.5 144.5,-206.5 144.5,-149.5 84.5,-149.5"/>
<text text-anchor="middle" x="114.5" y="-194.5" font-family="Helvetica,sans-Serif" font-size="10.00">Rectangle</text>
<polyline fill="none" stroke="black" points="84.5,-187.5 144.5,-187.5 "/>
<text text-anchor="middle" x="114.5" y="-175.5" font-family="Helvetica,sans-Serif" font-size="10.00"> </text>
<polyline fill="none" stroke="black" points="84.5,-168.5 144.5,-168.5 "/>
<text text-anchor="middle" x="114.5" y="-156.5" font-family="Helvetica,sans-Serif" font-size="10.00"> </text>
</a>
</g>
</g>
<!-- Node3&#45;&gt;Node1 -->
<g id="edge2" class="edge">
<title>Node3&#45;&gt;Node1</title>
<path fill="none" stroke="#404040" d="M114.5,-149.48C114.5,-132.91 114.5,-111.3 114.5,-91.73"/>
<polygon fill="none" stroke="#404040" points="114.5,-91.56 110.5,-85.56 114.5,-79.56 118.5,-85.56 114.5,-91.56"/>
<text text-anchor="middle" x="143.5" y="-123" font-family="Helvetica,sans-Serif" font-size="10.00"> +Shadowrec</text>
<text text-anchor="middle" x="143.5" y="-112" font-family="Helvetica,sans-Serif" font-size="10.00">&#45;frameRec</text>
<text text-anchor="middle" x="143.5" y="-101" font-family="Helvetica,sans-Serif" font-size="10.00">&#45;shadowrec</text>
</g>
<!-- Node4 -->
<g id="node4" class="node">
<title>Node4</title>
<g id="a_node4"><a xlink:title=" ">
<polygon fill="none" stroke="black" points="181,-149.5 181,-206.5 210,-206.5 210,-149.5 181,-149.5"/>
<text text-anchor="middle" x="195.5" y="-194.5" font-family="Helvetica,sans-Serif" font-size="10.00">int</text>
<polyline fill="none" stroke="black" points="181,-187.5 210,-187.5 "/>
<text text-anchor="middle" x="195.5" y="-175.5" font-family="Helvetica,sans-Serif" font-size="10.00"> </text>
<polyline fill="none" stroke="black" points="181,-168.5 210,-168.5 "/>
<text text-anchor="middle" x="195.5" y="-156.5" font-family="Helvetica,sans-Serif" font-size="10.00"> </text>
</a>
</g>
</g>
<!-- Node4&#45;&gt;Node1 -->
<g id="edge3" class="edge">
<title>Node4&#45;&gt;Node1</title>
<path fill="none" stroke="#404040" d="M191.49,-149.24C188.32,-133.41 182.82,-113.66 173.5,-98 171.72,-95.02 169.75,-92.09 167.63,-89.22"/>
<polygon fill="none" stroke="#404040" points="167.53,-89.09 160.64,-86.96 159.97,-79.78 166.85,-81.91 167.53,-89.09"/>
<text text-anchor="middle" x="220" y="-123" font-family="Helvetica,sans-Serif" font-size="10.00"> &#45;currentFrame</text>
<text text-anchor="middle" x="220" y="-112" font-family="Helvetica,sans-Serif" font-size="10.00">&#45;framesCounter</text>
<text text-anchor="middle" x="220" y="-101" font-family="Helvetica,sans-Serif" font-size="10.00">&#45;framesSpeed</text>
</g>
</g>
</svg>
