<?xml version="1.0" encoding="UTF-8" standalone="no"?>
<!DOCTYPE svg PUBLIC "-//W3C//DTD SVG 1.1//EN"
 "http://www.w3.org/Graphics/SVG/1.1/DTD/svg11.dtd">
<!-- Generated by graphviz version 3.0.0 (20220226.1711)
 -->
<!-- Title: Game::Nemo Pages: 1 -->
<svg width="359pt" height="226pt"
 viewBox="0.00 0.00 358.50 226.00" xmlns="http://www.w3.org/2000/svg" xmlns:xlink="http://www.w3.org/1999/xlink">
<g id="graph0" class="graph" transform="scale(1 1) rotate(0) translate(4 222)">
<title>Game::Nemo</title>
<!-- Node1 -->
<g id="node1" class="node">
<title>Node1</title>
<g id="a_node1"><a xlink:title=" ">
<polygon fill="#bfbfbf" stroke="black" points="140.5,-0.5 140.5,-79.5 214.5,-79.5 214.5,-0.5 140.5,-0.5"/>
<text text-anchor="middle" x="177.5" y="-67.5" font-family="Helvetica,sans-Serif" font-size="10.00">Game::Nemo</text>
<polyline fill="none" stroke="black" points="140.5,-60.5 214.5,-60.5 "/>
<text text-anchor="middle" x="177.5" y="-48.5" font-family="Helvetica,sans-Serif" font-size="10.00"> </text>
<polyline fill="none" stroke="black" points="140.5,-41.5 214.5,-41.5 "/>
<text text-anchor="start" x="148.5" y="-29.5" font-family="Helvetica,sans-Serif" font-size="10.00">+ Update()</text>
<text text-anchor="start" x="148.5" y="-18.5" font-family="Helvetica,sans-Serif" font-size="10.00">+ Draw()</text>
<text text-anchor="start" x="148.5" y="-7.5" font-family="Helvetica,sans-Serif" font-size="10.00">+ ~Nemo()</text>
</a>
</g>
</g>
<!-- Node2 -->
<g id="node2" class="node">
<title>Node2</title>
<g id="a_node2"><a xlink:title=" ">
<polygon fill="none" stroke="black" points="0,-160.5 0,-217.5 29,-217.5 29,-160.5 0,-160.5"/>
<text text-anchor="middle" x="14.5" y="-205.5" font-family="Helvetica,sans-Serif" font-size="10.00">int</text>
<polyline fill="none" stroke="black" points="0,-198.5 29,-198.5 "/>
<text text-anchor="middle" x="14.5" y="-186.5" font-family="Helvetica,sans-Serif" font-size="10.00"> </text>
<polyline fill="none" stroke="black" points="0,-179.5 29,-179.5 "/>
<text text-anchor="middle" x="14.5" y="-167.5" font-family="Helvetica,sans-Serif" font-size="10.00"> </text>
</a>
</g>
</g>
<!-- Node2&#45;&gt;Node1 -->
<g id="edge1" class="edge">
<title>Node2&#45;&gt;Node1</title>
<path fill="none" stroke="#404040" d="M15.92,-160.19C18.29,-140.68 24.34,-115.11 39.5,-98 62.39,-72.17 98.8,-57.79 128.48,-49.93"/>
<polygon fill="none" stroke="#404040" points="128.65,-49.89 133.53,-44.58 140.31,-47.05 135.43,-52.35 128.65,-49.89"/>
<text text-anchor="middle" x="74.5" y="-134" font-family="Helvetica,sans-Serif" font-size="10.00"> +HP</text>
<text text-anchor="middle" x="74.5" y="-123" font-family="Helvetica,sans-Serif" font-size="10.00">+currentFrame</text>
<text text-anchor="middle" x="74.5" y="-112" font-family="Helvetica,sans-Serif" font-size="10.00">+framesCounter</text>
<text text-anchor="middle" x="74.5" y="-101" font-family="Helvetica,sans-Serif" font-size="10.00">+framesSpeed</text>
</g>
<!-- Node3 -->
<g id="node3" class="node">
<title>Node3</title>
<g id="a_node3"><a xlink:title=" ">
<polygon fill="none" stroke="black" points="78.5,-160.5 78.5,-217.5 128.5,-217.5 128.5,-160.5 78.5,-160.5"/>
<text text-anchor="middle" x="103.5" y="-205.5" font-family="Helvetica,sans-Serif" font-size="10.00">Vector2</text>
<polyline fill="none" stroke="black" points="78.5,-198.5 128.5,-198.5 "/>
<text text-anchor="middle" x="103.5" y="-186.5" font-family="Helvetica,sans-Serif" font-size="10.00"> </text>
<polyline fill="none" stroke="black" points="78.5,-179.5 128.5,-179.5 "/>
<text text-anchor="middle" x="103.5" y="-167.5" font-family="Helvetica,sans-Serif" font-size="10.00"> </text>
</a>
</g>
</g>
<!-- Node3&#45;&gt;Node1 -->
<g id="edge2" class="edge">
<title>Node3&#45;&gt;Node1</title>
<path fill="none" stroke="#404040" d="M108.85,-160.11C113.08,-141.75 120.05,-117.57 130.5,-98 131.95,-95.28 133.55,-92.56 135.25,-89.88"/>
<polygon fill="none" stroke="#404040" points="135.43,-89.62 135.53,-82.41 142.22,-79.73 142.12,-86.94 135.43,-89.62"/>
<text text-anchor="middle" x="152" y="-117.5" font-family="Helvetica,sans-Serif" font-size="10.00"> +position</text>
</g>
<!-- Node4 -->
<g id="node4" class="node">
<title>Node4</title>
<g id="a_node4"><a xlink:title=" ">
<polygon fill="none" stroke="black" points="147,-160.5 147,-217.5 208,-217.5 208,-160.5 147,-160.5"/>
<text text-anchor="middle" x="177.5" y="-205.5" font-family="Helvetica,sans-Serif" font-size="10.00">Texture2D</text>
<polyline fill="none" stroke="black" points="147,-198.5 208,-198.5 "/>
<text text-anchor="middle" x="177.5" y="-186.5" font-family="Helvetica,sans-Serif" font-size="10.00"> </text>
<polyline fill="none" stroke="black" points="147,-179.5 208,-179.5 "/>
<text text-anchor="middle" x="177.5" y="-167.5" font-family="Helvetica,sans-Serif" font-size="10.00"> </text>
</a>
</g>
</g>
<!-- Node4&#45;&gt;Node1 -->
<g id="edge3" class="edge">
<title>Node4&#45;&gt;Node1</title>
<path fill="none" stroke="#404040" d="M177.5,-160.35C177.5,-141.03 177.5,-114.68 177.5,-91.65"/>
<polygon fill="none" stroke="#404040" points="177.5,-91.62 173.5,-85.62 177.5,-79.62 181.5,-85.62 177.5,-91.62"/>
<text text-anchor="middle" x="193.5" y="-134" font-family="Helvetica,sans-Serif" font-size="10.00"> +Back</text>
<text text-anchor="middle" x="193.5" y="-123" font-family="Helvetica,sans-Serif" font-size="10.00">+Front</text>
<text text-anchor="middle" x="193.5" y="-112" font-family="Helvetica,sans-Serif" font-size="10.00">+Left</text>
<text text-anchor="middle" x="193.5" y="-101" font-family="Helvetica,sans-Serif" font-size="10.00">+Right</text>
</g>
<!-- Node5 -->
<g id="node5" class="node">
<title>Node5</title>
<g id="a_node5"><a xlink:title=" ">
<polygon fill="none" stroke="black" points="226.5,-160.5 226.5,-217.5 270.5,-217.5 270.5,-160.5 226.5,-160.5"/>
<text text-anchor="middle" x="248.5" y="-205.5" font-family="Helvetica,sans-Serif" font-size="10.00">Sound</text>
<polyline fill="none" stroke="black" points="226.5,-198.5 270.5,-198.5 "/>
<text text-anchor="middle" x="248.5" y="-186.5" font-family="Helvetica,sans-Serif" font-size="10.00"> </text>
<polyline fill="none" stroke="black" points="226.5,-179.5 270.5,-179.5 "/>
<text text-anchor="middle" x="248.5" y="-167.5" font-family="Helvetica,sans-Serif" font-size="10.00"> </text>
</a>
</g>
</g>
<!-- Node5&#45;&gt;Node1 -->
<g id="edge4" class="edge">
<title>Node5&#45;&gt;Node1</title>
<path fill="none" stroke="#404040" d="M239.26,-160.23C232.87,-142.13 223.69,-118.21 213.5,-98 212.21,-95.44 210.84,-92.85 209.41,-90.26"/>
<polygon fill="none" stroke="#404040" points="209.3,-90.07 202.84,-86.87 203.31,-79.67 209.77,-82.87 209.3,-90.07"/>
<text text-anchor="middle" x="249.5" y="-117.5" font-family="Helvetica,sans-Serif" font-size="10.00"> +fxMp3</text>
</g>
<!-- Node6 -->
<g id="node6" class="node">
<title>Node6</title>
<g id="a_node6"><a xlink:title=" ">
<polygon fill="none" stroke="black" points="288.5,-160.5 288.5,-217.5 348.5,-217.5 348.5,-160.5 288.5,-160.5"/>
<text text-anchor="middle" x="318.5" y="-205.5" font-family="Helvetica,sans-Serif" font-size="10.00">Rectangle</text>
<polyline fill="none" stroke="black" points="288.5,-198.5 348.5,-198.5 "/>
<text text-anchor="middle" x="318.5" y="-186.5" font-family="Helvetica,sans-Serif" font-size="10.00"> </text>
<polyline fill="none" stroke="black" points="288.5,-179.5 348.5,-179.5 "/>
<text text-anchor="middle" x="318.5" y="-167.5" font-family="Helvetica,sans-Serif" font-size="10.00"> </text>
</a>
</g>
</g>
<!-- Node6&#45;&gt;Node1 -->
<g id="edge5" class="edge">
<title>Node6&#45;&gt;Node1</title>
<path fill="none" stroke="#404040" d="M308.7,-160.4C300.86,-141.23 288.38,-116 271.5,-98 258.56,-84.2 241.54,-72.54 225.55,-63.44"/>
<polygon fill="none" stroke="#404040" points="225.25,-63.27 218.07,-63.92 214.71,-57.54 221.89,-56.89 225.25,-63.27"/>
<text text-anchor="middle" x="325" y="-117.5" font-family="Helvetica,sans-Serif" font-size="10.00"> +frameRec</text>
</g>
</g>
</svg>
