<?xml version="1.0" encoding="UTF-8" standalone="no"?>
<!DOCTYPE svg PUBLIC "-//W3C//DTD SVG 1.1//EN"
 "http://www.w3.org/Graphics/SVG/1.1/DTD/svg11.dtd">
<!-- Generated by graphviz version 3.0.0 (20220226.1711)
 -->
<!-- Title: Level Pages: 1 -->
<svg width="238pt" height="167pt"
 viewBox="0.00 0.00 238.00 167.00" xmlns="http://www.w3.org/2000/svg" xmlns:xlink="http://www.w3.org/1999/xlink">
<g id="graph0" class="graph" transform="scale(1 1) rotate(0) translate(4 163)">
<title>Level</title>
<g id="clust1" class="cluster">
<title>clusterdir_68267d1309a1af8e8297ef4c3efbcdba</title>
<g id="a_clust1"><a xlink:href="dir_68267d1309a1af8e8297ef4c3efbcdba.html" target="_top" xlink:title="src">
<polygon fill="#edf0f7" stroke="#404040" stroke-dasharray="5,2" points="8,-8 8,-151 222,-151 222,-8 8,-8"/>
<text text-anchor="middle" x="115" y="-139" font-family="Helvetica,sans-Serif" font-size="10.00">src</text>
</a>
</g>
</g>
<!-- dir_03ad476b150b4410ef7c03d72a245de4 -->
<g id="node1" class="node">
<title>dir_03ad476b150b4410ef7c03d72a245de4</title>
<g id="a_node1"><a xlink:href="dir_03ad476b150b4410ef7c03d72a245de4.html" target="_top" xlink:title="Combat">
<polygon fill="#a2b4d6" stroke="#404040" points="70,-52 16,-52 16,-16 70,-16 70,-52"/>
<text text-anchor="middle" x="43" y="-31.5" font-family="Helvetica,sans-Serif" font-size="10.00">Combat</text>
</a>
</g>
</g>
<!-- dir_909c286288939002c1b25213a067bdba -->
<g id="node2" class="node">
<title>dir_909c286288939002c1b25213a067bdba</title>
<g id="a_node2"><a xlink:href="dir_909c286288939002c1b25213a067bdba.html" target="_top" xlink:title="Sprite">
<polygon fill="#a2b4d6" stroke="#404040" points="142,-52 88,-52 88,-16 142,-16 142,-52"/>
<text text-anchor="middle" x="115" y="-31.5" font-family="Helvetica,sans-Serif" font-size="10.00">Sprite</text>
</a>
</g>
</g>
<!-- dir_4998621c1c5dc7c07a022c0c5b821bc6 -->
<g id="node3" class="node">
<title>dir_4998621c1c5dc7c07a022c0c5b821bc6</title>
<g id="a_node3"><a xlink:href="dir_4998621c1c5dc7c07a022c0c5b821bc6.html" target="_top" xlink:title="Player">
<polygon fill="#a2b4d6" stroke="#404040" points="214,-52 160,-52 160,-16 214,-16 214,-52"/>
<text text-anchor="middle" x="187" y="-31.5" font-family="Helvetica,sans-Serif" font-size="10.00">Player</text>
</a>
</g>
</g>
<!-- dir_f5b2029e7f5ef321e23f1af6d7704298 -->
<g id="node4" class="node">
<title>dir_f5b2029e7f5ef321e23f1af6d7704298</title>
<g id="a_node4"><a xlink:href="dir_f5b2029e7f5ef321e23f1af6d7704298.html" target="_top" xlink:title="Level">
<polygon fill="#edf0f7" stroke="#404040" stroke-width="2" points="142,-124 88,-124 88,-88 142,-88 142,-124"/>
<text text-anchor="middle" x="115" y="-103.5" font-family="Helvetica,sans-Serif" font-size="10.00">Level</text>
</a>
</g>
</g>
<!-- dir_f5b2029e7f5ef321e23f1af6d7704298&#45;&gt;dir_03ad476b150b4410ef7c03d72a245de4 -->
<g id="edge1" class="edge">
<title>dir_f5b2029e7f5ef321e23f1af6d7704298&#45;&gt;dir_03ad476b150b4410ef7c03d72a245de4</title>
<path fill="none" stroke="black" d="M97.2,-87.7C88.4,-79.14 77.62,-68.66 68,-59.3"/>
<polygon fill="black" stroke="black" points="70.2,-56.57 60.59,-52.1 65.32,-61.58 70.2,-56.57"/>
<g id="a_edge1&#45;headlabel"><a xlink:href="dir_000003_000000.html" target="_top" xlink:title="4">
<text text-anchor="middle" x="74.76" y="-54.54" font-family="Helvetica,sans-Serif" font-size="10.00">4</text>
</a>
</g>
</g>
<!-- dir_f5b2029e7f5ef321e23f1af6d7704298&#45;&gt;dir_909c286288939002c1b25213a067bdba -->
<g id="edge3" class="edge">
<title>dir_f5b2029e7f5ef321e23f1af6d7704298&#45;&gt;dir_909c286288939002c1b25213a067bdba</title>
<path fill="none" stroke="black" d="M115,-87.7C115,-79.98 115,-70.71 115,-62.11"/>
<polygon fill="black" stroke="black" points="118.5,-62.1 115,-52.1 111.5,-62.1 118.5,-62.1"/>
<g id="a_edge3&#45;headlabel"><a xlink:href="dir_000003_000005.html" target="_top" xlink:title="1">
<text text-anchor="middle" x="121.34" y="-63.2" font-family="Helvetica,sans-Serif" font-size="10.00">1</text>
</a>
</g>
</g>
<!-- dir_f5b2029e7f5ef321e23f1af6d7704298&#45;&gt;dir_4998621c1c5dc7c07a022c0c5b821bc6 -->
<g id="edge2" class="edge">
<title>dir_f5b2029e7f5ef321e23f1af6d7704298&#45;&gt;dir_4998621c1c5dc7c07a022c0c5b821bc6</title>
<path fill="none" stroke="black" d="M132.8,-87.7C141.6,-79.14 152.38,-68.66 162,-59.3"/>
<polygon fill="black" stroke="black" points="164.68,-61.58 169.41,-52.1 159.8,-56.57 164.68,-61.58"/>
<g id="a_edge2&#45;headlabel"><a xlink:href="dir_000003_000004.html" target="_top" xlink:title="3">
<text text-anchor="middle" x="164.08" y="-63.63" font-family="Helvetica,sans-Serif" font-size="10.00">3</text>
</a>
</g>
</g>
</g>
</svg>
