<?xml version="1.0" encoding="UTF-8" standalone="no"?>
<!DOCTYPE svg PUBLIC "-//W3C//DTD SVG 1.1//EN"
 "http://www.w3.org/Graphics/SVG/1.1/DTD/svg11.dtd">
<!-- Generated by graphviz version 3.0.0 (20220226.1711)
 -->
<!-- Title: src Pages: 1 -->
<svg width="278pt" height="292pt"
 viewBox="0.00 0.00 278.00 292.00" xmlns="http://www.w3.org/2000/svg" xmlns:xlink="http://www.w3.org/1999/xlink">
<g id="graph0" class="graph" transform="scale(1 1) rotate(0) translate(4 288)">
<title>src</title>
<g id="clust1" class="cluster">
<title>clusterdir_68267d1309a1af8e8297ef4c3efbcdba</title>
<g id="a_clust1"><a xlink:href="dir_68267d1309a1af8e8297ef4c3efbcdba.html" target="_top">
<polygon fill="#edf0f7" stroke="#404040" stroke-width="2" points="8,-8 8,-276 262,-276 262,-8 8,-8"/>
</a>
</g>
</g>
<!-- dir_68267d1309a1af8e8297ef4c3efbcdba -->
<g id="node1" class="node">
<title>dir_68267d1309a1af8e8297ef4c3efbcdba</title>
<text text-anchor="middle" x="207" y="-247.5" font-family="Helvetica,sans-Serif" font-size="10.00">src</text>
</g>
<!-- dir_302a4c7dad6c37e7a46db629fc66a772 -->
<g id="node3" class="node">
<title>dir_302a4c7dad6c37e7a46db629fc66a772</title>
<g id="a_node3"><a xlink:href="dir_302a4c7dad6c37e7a46db629fc66a772.html" target="_top" xlink:title="Enemy Overworld Sprites">
<polygon fill="#a2b4d6" stroke="#404040" points="142,-196 16,-196 16,-160 142,-160 142,-196"/>
<text text-anchor="middle" x="79" y="-175.5" font-family="Helvetica,sans-Serif" font-size="10.00">Enemy Overworld Sprites</text>
</a>
</g>
</g>
<!-- dir_68267d1309a1af8e8297ef4c3efbcdba&#45;&gt;dir_302a4c7dad6c37e7a46db629fc66a772 -->
<g id="edge1" class="edge">
<title>dir_68267d1309a1af8e8297ef4c3efbcdba&#45;&gt;dir_302a4c7dad6c37e7a46db629fc66a772</title>
<path fill="none" stroke="black" d="M179.85,-234.15C162.16,-224.48 138.77,-211.69 118.97,-200.86"/>
<polygon fill="black" stroke="black" points="120.61,-197.77 110.16,-196.04 117.25,-203.91 120.61,-197.77"/>
<g id="a_edge1&#45;headlabel"><a xlink:href="dir_000006_000002.html" target="_top" xlink:title="3">
<text text-anchor="middle" x="125.13" y="-194.5" font-family="Helvetica,sans-Serif" font-size="10.00">3</text>
</a>
</g>
</g>
<!-- dir_f5b2029e7f5ef321e23f1af6d7704298 -->
<g id="node4" class="node">
<title>dir_f5b2029e7f5ef321e23f1af6d7704298</title>
<g id="a_node4"><a xlink:href="dir_f5b2029e7f5ef321e23f1af6d7704298.html" target="_top" xlink:title="Level">
<polygon fill="#a2b4d6" stroke="#404040" points="214,-196 160,-196 160,-160 214,-160 214,-196"/>
<text text-anchor="middle" x="187" y="-175.5" font-family="Helvetica,sans-Serif" font-size="10.00">Level</text>
</a>
</g>
</g>
<!-- dir_68267d1309a1af8e8297ef4c3efbcdba&#45;&gt;dir_f5b2029e7f5ef321e23f1af6d7704298 -->
<g id="edge4" class="edge">
<title>dir_68267d1309a1af8e8297ef4c3efbcdba&#45;&gt;dir_f5b2029e7f5ef321e23f1af6d7704298</title>
<path fill="none" stroke="black" d="M202.06,-231.7C199.83,-223.9 197.15,-214.51 194.67,-205.83"/>
<polygon fill="black" stroke="black" points="198,-204.76 191.89,-196.1 191.27,-206.68 198,-204.76"/>
<g id="a_edge4&#45;headlabel"><a xlink:href="dir_000006_000003.html" target="_top" xlink:title="11">
<text text-anchor="middle" x="201.72" y="-204.93" font-family="Helvetica,sans-Serif" font-size="10.00">11</text>
</a>
</g>
</g>
<!-- dir_4998621c1c5dc7c07a022c0c5b821bc6 -->
<g id="node5" class="node">
<title>dir_4998621c1c5dc7c07a022c0c5b821bc6</title>
<g id="a_node5"><a xlink:href="dir_4998621c1c5dc7c07a022c0c5b821bc6.html" target="_top" xlink:title="Player">
<polygon fill="#a2b4d6" stroke="#404040" points="234,-124 180,-124 180,-88 234,-88 234,-124"/>
<text text-anchor="middle" x="207" y="-103.5" font-family="Helvetica,sans-Serif" font-size="10.00">Player</text>
</a>
</g>
</g>
<!-- dir_68267d1309a1af8e8297ef4c3efbcdba&#45;&gt;dir_4998621c1c5dc7c07a022c0c5b821bc6 -->
<g id="edge2" class="edge">
<title>dir_68267d1309a1af8e8297ef4c3efbcdba&#45;&gt;dir_4998621c1c5dc7c07a022c0c5b821bc6</title>
<path fill="none" stroke="black" d="M213.65,-231.63C217.2,-221.42 221.2,-208.17 223,-196 225.34,-180.17 225.34,-175.83 223,-160 221.72,-151.35 219.33,-142.15 216.78,-133.89"/>
<polygon fill="black" stroke="black" points="220.1,-132.78 213.65,-124.37 213.45,-134.96 220.1,-132.78"/>
<g id="a_edge2&#45;headlabel"><a xlink:href="dir_000006_000004.html" target="_top" xlink:title="4">
<text text-anchor="middle" x="223.92" y="-132.81" font-family="Helvetica,sans-Serif" font-size="10.00">4</text>
</a>
</g>
</g>
<!-- dir_909c286288939002c1b25213a067bdba -->
<g id="node6" class="node">
<title>dir_909c286288939002c1b25213a067bdba</title>
<g id="a_node6"><a xlink:href="dir_909c286288939002c1b25213a067bdba.html" target="_top" xlink:title="Sprite">
<polygon fill="#a2b4d6" stroke="#404040" points="198,-52 144,-52 144,-16 198,-16 198,-52"/>
<text text-anchor="middle" x="171" y="-31.5" font-family="Helvetica,sans-Serif" font-size="10.00">Sprite</text>
</a>
</g>
</g>
<!-- dir_68267d1309a1af8e8297ef4c3efbcdba&#45;&gt;dir_909c286288939002c1b25213a067bdba -->
<g id="edge3" class="edge">
<title>dir_68267d1309a1af8e8297ef4c3efbcdba&#45;&gt;dir_909c286288939002c1b25213a067bdba</title>
<path fill="none" stroke="black" d="M218.13,-231.62C236.16,-201.04 267.43,-136.31 243,-88 235.3,-72.77 220.94,-60.85 207.06,-52.2"/>
<polygon fill="black" stroke="black" points="208.48,-48.98 198.08,-46.99 204.97,-55.04 208.48,-48.98"/>
<g id="a_edge3&#45;headlabel"><a xlink:href="dir_000006_000005.html" target="_top" xlink:title="5">
<text text-anchor="middle" x="213.02" y="-45.83" font-family="Helvetica,sans-Serif" font-size="10.00">5</text>
</a>
</g>
</g>
<!-- dir_03ad476b150b4410ef7c03d72a245de4 -->
<g id="node2" class="node">
<title>dir_03ad476b150b4410ef7c03d72a245de4</title>
<g id="a_node2"><a xlink:href="dir_03ad476b150b4410ef7c03d72a245de4.html" target="_top" xlink:title="Combat">
<polygon fill="#a2b4d6" stroke="#404040" points="162,-124 108,-124 108,-88 162,-88 162,-124"/>
<text text-anchor="middle" x="135" y="-103.5" font-family="Helvetica,sans-Serif" font-size="10.00">Combat</text>
</a>
</g>
</g>
<!-- dir_03ad476b150b4410ef7c03d72a245de4&#45;&gt;dir_909c286288939002c1b25213a067bdba -->
<g id="edge5" class="edge">
<title>dir_03ad476b150b4410ef7c03d72a245de4&#45;&gt;dir_909c286288939002c1b25213a067bdba</title>
<path fill="none" stroke="black" d="M143.9,-87.7C148,-79.73 152.95,-70.1 157.49,-61.26"/>
<polygon fill="black" stroke="black" points="160.74,-62.6 162.2,-52.1 154.52,-59.4 160.74,-62.6"/>
<g id="a_edge5&#45;headlabel"><a xlink:href="dir_000000_000005.html" target="_top" xlink:title="2">
<text text-anchor="middle" x="161.62" y="-64.59" font-family="Helvetica,sans-Serif" font-size="10.00">2</text>
</a>
</g>
</g>
<!-- dir_f5b2029e7f5ef321e23f1af6d7704298&#45;&gt;dir_03ad476b150b4410ef7c03d72a245de4 -->
<g id="edge6" class="edge">
<title>dir_f5b2029e7f5ef321e23f1af6d7704298&#45;&gt;dir_03ad476b150b4410ef7c03d72a245de4</title>
<path fill="none" stroke="black" d="M174.15,-159.7C167.97,-151.39 160.46,-141.28 153.68,-132.14"/>
<polygon fill="black" stroke="black" points="156.48,-130.04 147.71,-124.1 150.86,-134.22 156.48,-130.04"/>
<g id="a_edge6&#45;headlabel"><a xlink:href="dir_000003_000000.html" target="_top" xlink:title="4">
<text text-anchor="middle" x="160.9" y="-128.74" font-family="Helvetica,sans-Serif" font-size="10.00">4</text>
</a>
</g>
</g>
<!-- dir_f5b2029e7f5ef321e23f1af6d7704298&#45;&gt;dir_4998621c1c5dc7c07a022c0c5b821bc6 -->
<g id="edge7" class="edge">
<title>dir_f5b2029e7f5ef321e23f1af6d7704298&#45;&gt;dir_4998621c1c5dc7c07a022c0c5b821bc6</title>
<path fill="none" stroke="black" d="M186.03,-159.7C187.47,-151.81 189.97,-142.3 192.84,-133.55"/>
<polygon fill="black" stroke="black" points="196.15,-134.7 196.22,-124.1 189.56,-132.34 196.15,-134.7"/>
<g id="a_edge7&#45;headlabel"><a xlink:href="dir_000003_000004.html" target="_top" xlink:title="3">
<text text-anchor="middle" x="197.61" y="-136.54" font-family="Helvetica,sans-Serif" font-size="10.00">3</text>
</a>
</g>
</g>
<!-- dir_f5b2029e7f5ef321e23f1af6d7704298&#45;&gt;dir_909c286288939002c1b25213a067bdba -->
<g id="edge8" class="edge">
<title>dir_f5b2029e7f5ef321e23f1af6d7704298&#45;&gt;dir_909c286288939002c1b25213a067bdba</title>
<path fill="none" stroke="black" d="M159.89,-164.38C136.63,-152.92 105.8,-136.03 99,-124 91.13,-110.07 91.78,-102.28 99,-88 106.7,-72.77 121.06,-60.85 134.94,-52.2"/>
<polygon fill="black" stroke="black" points="137.03,-55.04 143.92,-46.99 133.52,-48.98 137.03,-55.04"/>
<g id="a_edge8&#45;headlabel"><a xlink:href="dir_000003_000005.html" target="_top" xlink:title="1">
<text text-anchor="middle" x="135.35" y="-56.8" font-family="Helvetica,sans-Serif" font-size="10.00">1</text>
</a>
</g>
</g>
<!-- dir_4998621c1c5dc7c07a022c0c5b821bc6&#45;&gt;dir_f5b2029e7f5ef321e23f1af6d7704298 -->
<g id="edge10" class="edge">
<title>dir_4998621c1c5dc7c07a022c0c5b821bc6&#45;&gt;dir_f5b2029e7f5ef321e23f1af6d7704298</title>
<path fill="none" stroke="black" d="M208.01,-124.1C206.59,-131.96 204.1,-141.46 201.23,-150.23"/>
<polygon fill="black" stroke="black" points="197.92,-149.1 197.86,-159.7 204.51,-151.45 197.92,-149.1"/>
<g id="a_edge10&#45;headlabel"><a xlink:href="dir_000004_000003.html" target="_top" xlink:title="2">
<text text-anchor="middle" x="196.45" y="-142.26" font-family="Helvetica,sans-Serif" font-size="10.00">2</text>
</a>
</g>
</g>
<!-- dir_4998621c1c5dc7c07a022c0c5b821bc6&#45;&gt;dir_909c286288939002c1b25213a067bdba -->
<g id="edge9" class="edge">
<title>dir_4998621c1c5dc7c07a022c0c5b821bc6&#45;&gt;dir_909c286288939002c1b25213a067bdba</title>
<path fill="none" stroke="black" d="M198.1,-87.7C194,-79.73 189.05,-70.1 184.51,-61.26"/>
<polygon fill="black" stroke="black" points="187.48,-59.4 179.8,-52.1 181.26,-62.6 187.48,-59.4"/>
<g id="a_edge9&#45;headlabel"><a xlink:href="dir_000004_000005.html" target="_top" xlink:title="1">
<text text-anchor="middle" x="191.65" y="-58.79" font-family="Helvetica,sans-Serif" font-size="10.00">1</text>
</a>
</g>
</g>
</g>
</svg>
