<?xml version="1.0" encoding="UTF-8" standalone="no"?>
<!DOCTYPE svg PUBLIC "-//W3C//DTD SVG 1.1//EN"
 "http://www.w3.org/Graphics/SVG/1.1/DTD/svg11.dtd">
<!-- Generated by graphviz version 3.0.0 (20220226.1711)
 -->
<!-- Title: Player Pages: 1 -->
<svg width="166pt" height="167pt"
 viewBox="0.00 0.00 166.00 167.00" xmlns="http://www.w3.org/2000/svg" xmlns:xlink="http://www.w3.org/1999/xlink">
<g id="graph0" class="graph" transform="scale(1 1) rotate(0) translate(4 163)">
<title>Player</title>
<g id="clust1" class="cluster">
<title>clusterdir_68267d1309a1af8e8297ef4c3efbcdba</title>
<g id="a_clust1"><a xlink:href="dir_68267d1309a1af8e8297ef4c3efbcdba.html" target="_top" xlink:title="src">
<polygon fill="#edf0f7" stroke="#404040" stroke-dasharray="5,2" points="8,-8 8,-151 150,-151 150,-8 8,-8"/>
<text text-anchor="middle" x="79" y="-139" font-family="Helvetica,sans-Serif" font-size="10.00">src</text>
</a>
</g>
</g>
<!-- dir_909c286288939002c1b25213a067bdba -->
<g id="node1" class="node">
<title>dir_909c286288939002c1b25213a067bdba</title>
<g id="a_node1"><a xlink:href="dir_909c286288939002c1b25213a067bdba.html" target="_top" xlink:title="Sprite">
<polygon fill="#a2b4d6" stroke="#404040" points="70,-52 16,-52 16,-16 70,-16 70,-52"/>
<text text-anchor="middle" x="43" y="-31.5" font-family="Helvetica,sans-Serif" font-size="10.00">Sprite</text>
</a>
</g>
</g>
<!-- dir_f5b2029e7f5ef321e23f1af6d7704298 -->
<g id="node2" class="node">
<title>dir_f5b2029e7f5ef321e23f1af6d7704298</title>
<g id="a_node2"><a xlink:href="dir_f5b2029e7f5ef321e23f1af6d7704298.html" target="_top" xlink:title="Level">
<polygon fill="#a2b4d6" stroke="#404040" points="142,-52 88,-52 88,-16 142,-16 142,-52"/>
<text text-anchor="middle" x="115" y="-31.5" font-family="Helvetica,sans-Serif" font-size="10.00">Level</text>
</a>
</g>
</g>
<!-- dir_4998621c1c5dc7c07a022c0c5b821bc6 -->
<g id="node3" class="node">
<title>dir_4998621c1c5dc7c07a022c0c5b821bc6</title>
<g id="a_node3"><a xlink:href="dir_4998621c1c5dc7c07a022c0c5b821bc6.html" target="_top" xlink:title="Player">
<polygon fill="#edf0f7" stroke="#404040" stroke-width="2" points="106,-124 52,-124 52,-88 106,-88 106,-124"/>
<text text-anchor="middle" x="79" y="-103.5" font-family="Helvetica,sans-Serif" font-size="10.00">Player</text>
</a>
</g>
</g>
<!-- dir_4998621c1c5dc7c07a022c0c5b821bc6&#45;&gt;dir_909c286288939002c1b25213a067bdba -->
<g id="edge1" class="edge">
<title>dir_4998621c1c5dc7c07a022c0c5b821bc6&#45;&gt;dir_909c286288939002c1b25213a067bdba</title>
<path fill="none" stroke="black" d="M70.1,-87.7C66,-79.73 61.05,-70.1 56.51,-61.26"/>
<polygon fill="black" stroke="black" points="59.48,-59.4 51.8,-52.1 53.26,-62.6 59.48,-59.4"/>
<g id="a_edge1&#45;headlabel"><a xlink:href="dir_000004_000005.html" target="_top" xlink:title="1">
<text text-anchor="middle" x="63.65" y="-58.79" font-family="Helvetica,sans-Serif" font-size="10.00">1</text>
</a>
</g>
</g>
<!-- dir_4998621c1c5dc7c07a022c0c5b821bc6&#45;&gt;dir_f5b2029e7f5ef321e23f1af6d7704298 -->
<g id="edge2" class="edge">
<title>dir_4998621c1c5dc7c07a022c0c5b821bc6&#45;&gt;dir_f5b2029e7f5ef321e23f1af6d7704298</title>
<path fill="none" stroke="black" d="M87.9,-87.7C92,-79.73 96.95,-70.1 101.49,-61.26"/>
<polygon fill="black" stroke="black" points="104.74,-62.6 106.2,-52.1 98.52,-59.4 104.74,-62.6"/>
<g id="a_edge2&#45;headlabel"><a xlink:href="dir_000004_000003.html" target="_top" xlink:title="1">
<text text-anchor="middle" x="105.62" y="-64.59" font-family="Helvetica,sans-Serif" font-size="10.00">1</text>
</a>
</g>
</g>
</g>
</svg>
