<?xml version="1.0" encoding="UTF-8" standalone="no"?>
<!DOCTYPE svg PUBLIC "-//W3C//DTD SVG 1.1//EN"
 "http://www.w3.org/Graphics/SVG/1.1/DTD/svg11.dtd">
<!-- Generated by graphviz version 3.0.0 (20220226.1711)
 -->
<!-- Title: Graphical Class Hierarchy Pages: 1 -->
<svg width="246pt" height="142pt"
 viewBox="0.00 0.00 246.00 142.00" xmlns="http://www.w3.org/2000/svg" xmlns:xlink="http://www.w3.org/1999/xlink">
<g id="graph0" class="graph" transform="scale(1 1) rotate(0) translate(4 138)">
<title>Graphical Class Hierarchy</title>
<!-- Node0 -->
<g id="node1" class="node">
<title>Node0</title>
<g id="a_node1"><a xlink:href="class_game_1_1_game_character.html" target="_top" xlink:title=" ">
<polygon fill="none" stroke="black" points="0,-57.5 0,-76.5 117,-76.5 117,-57.5 0,-57.5"/>
<text text-anchor="middle" x="58.5" y="-64.5" font-family="Helvetica,sans-Serif" font-size="10.00">Game::GameCharacter</text>
</a>
</g>
</g>
<!-- Node1 -->
<g id="node2" class="node">
<title>Node1</title>
<g id="a_node2"><a xlink:href="class_game_1_1_mumy.html" target="_top" xlink:title=" ">
<polygon fill="none" stroke="black" points="157.5,-114.5 157.5,-133.5 233.5,-133.5 233.5,-114.5 157.5,-114.5"/>
<text text-anchor="middle" x="195.5" y="-121.5" font-family="Helvetica,sans-Serif" font-size="10.00">Game::Mumy</text>
</a>
</g>
</g>
<!-- Node0&#45;&gt;Node1 -->
<g id="edge1" class="edge">
<title>Node0&#45;&gt;Node1</title>
<path fill="none" stroke="midnightblue" d="M91.42,-80.48C116.15,-90.92 149.8,-105.13 171.83,-114.43"/>
<polygon fill="midnightblue" stroke="midnightblue" points="92.67,-77.21 82.1,-76.54 89.95,-83.65 92.67,-77.21"/>
</g>
<!-- Node2 -->
<g id="node3" class="node">
<title>Node2</title>
<g id="a_node3"><a xlink:href="class_game_1_1_pharaoh.html" target="_top" xlink:title=" ">
<polygon fill="none" stroke="black" points="153,-76.5 153,-95.5 238,-95.5 238,-76.5 153,-76.5"/>
<text text-anchor="middle" x="195.5" y="-83.5" font-family="Helvetica,sans-Serif" font-size="10.00">Game::Pharaoh</text>
</a>
</g>
</g>
<!-- Node0&#45;&gt;Node2 -->
<g id="edge2" class="edge">
<title>Node0&#45;&gt;Node2</title>
<path fill="none" stroke="midnightblue" d="M127.08,-76.51C135.92,-77.75 144.75,-79 152.97,-80.15"/>
<polygon fill="midnightblue" stroke="midnightblue" points="127.53,-73.04 117.14,-75.11 126.56,-79.97 127.53,-73.04"/>
</g>
<!-- Node3 -->
<g id="node4" class="node">
<title>Node3</title>
<g id="a_node4"><a xlink:href="class_game_1_1_player.html" target="_top" xlink:title=" ">
<polygon fill="none" stroke="black" points="157,-38.5 157,-57.5 234,-57.5 234,-38.5 157,-38.5"/>
<text text-anchor="middle" x="195.5" y="-45.5" font-family="Helvetica,sans-Serif" font-size="10.00">Game::Player</text>
</a>
</g>
</g>
<!-- Node0&#45;&gt;Node3 -->
<g id="edge3" class="edge">
<title>Node0&#45;&gt;Node3</title>
<path fill="none" stroke="midnightblue" d="M127.31,-57.46C137.52,-56.02 147.71,-54.59 156.96,-53.28"/>
<polygon fill="midnightblue" stroke="midnightblue" points="126.56,-54.03 117.14,-58.89 127.53,-60.96 126.56,-54.03"/>
</g>
<!-- Node4 -->
<g id="node5" class="node">
<title>Node4</title>
<g id="a_node5"><a xlink:href="class_game_1_1_shadow.html" target="_top" xlink:title=" ">
<polygon fill="none" stroke="black" points="154,-0.5 154,-19.5 237,-19.5 237,-0.5 154,-0.5"/>
<text text-anchor="middle" x="195.5" y="-7.5" font-family="Helvetica,sans-Serif" font-size="10.00">Game::Shadow</text>
</a>
</g>
</g>
<!-- Node0&#45;&gt;Node4 -->
<g id="edge4" class="edge">
<title>Node0&#45;&gt;Node4</title>
<path fill="none" stroke="midnightblue" d="M91.42,-53.52C116.15,-43.08 149.8,-28.87 171.83,-19.57"/>
<polygon fill="midnightblue" stroke="midnightblue" points="89.95,-50.35 82.1,-57.46 92.67,-56.79 89.95,-50.35"/>
</g>
</g>
</svg>
