<?xml version="1.0" encoding="UTF-8" standalone="no"?>
<!DOCTYPE svg PUBLIC "-//W3C//DTD SVG 1.1//EN"
 "http://www.w3.org/Graphics/SVG/1.1/DTD/svg11.dtd">
<!-- Generated by graphviz version 3.0.0 (20220226.1711)
 -->
<!-- Title: main.cpp Pages: 1 -->
<svg width="474pt" height="140pt"
 viewBox="0.00 0.00 474.00 140.00" xmlns="http://www.w3.org/2000/svg" xmlns:xlink="http://www.w3.org/1999/xlink">
<g id="graph0" class="graph" transform="scale(1 1) rotate(0) translate(4 136)">
<title>main.cpp</title>
<!-- Node1 -->
<g id="node1" class="node">
<title>Node1</title>
<g id="a_node1"><a xlink:title=" ">
<polygon fill="#bfbfbf" stroke="black" points="179,-112.5 179,-131.5 235,-131.5 235,-112.5 179,-112.5"/>
<text text-anchor="middle" x="207" y="-119.5" font-family="Helvetica,sans-Serif" font-size="10.00">main.cpp</text>
</a>
</g>
</g>
<!-- Node2 -->
<g id="node2" class="node">
<title>Node2</title>
<g id="a_node2"><a xlink:href="_nemo_8h.html" target="_top" xlink:title=" ">
<polygon fill="none" stroke="black" points="54,-56.5 54,-75.5 104,-75.5 104,-56.5 54,-56.5"/>
<text text-anchor="middle" x="79" y="-63.5" font-family="Helvetica,sans-Serif" font-size="10.00">Nemo.h</text>
</a>
</g>
</g>
<!-- Node1&#45;&gt;Node2 -->
<g id="edge1" class="edge">
<title>Node1&#45;&gt;Node2</title>
<path fill="none" stroke="midnightblue" d="M186.72,-112.44C165.65,-103.56 132.48,-89.56 108.51,-79.45"/>
<polygon fill="midnightblue" stroke="midnightblue" points="109.76,-76.18 99.19,-75.52 107.04,-82.63 109.76,-76.18"/>
</g>
<!-- Node3 -->
<g id="node3" class="node">
<title>Node3</title>
<g id="a_node3"><a xlink:title=" ">
<polygon fill="none" stroke="#bfbfbf" points="0,-0.5 0,-19.5 52,-19.5 52,-0.5 0,-0.5"/>
<text text-anchor="middle" x="26" y="-7.5" font-family="Helvetica,sans-Serif" font-size="10.00">memory</text>
</a>
</g>
</g>
<!-- Node1&#45;&gt;Node3 -->
<g id="edge14" class="edge">
<title>Node1&#45;&gt;Node3</title>
<path fill="none" stroke="midnightblue" d="M178.91,-121.09C143,-119.64 81.15,-111.67 45,-76 32.85,-64.01 28.37,-44.71 26.77,-30.25"/>
<polygon fill="midnightblue" stroke="midnightblue" points="30.23,-29.64 26.01,-19.93 23.25,-30.16 30.23,-29.64"/>
</g>
<!-- Node4 -->
<g id="node4" class="node">
<title>Node4</title>
<g id="a_node4"><a xlink:title=" ">
<polygon fill="none" stroke="#bfbfbf" points="140,-0.5 140,-19.5 188,-19.5 188,-0.5 140,-0.5"/>
<text text-anchor="middle" x="164" y="-7.5" font-family="Helvetica,sans-Serif" font-size="10.00">raylib.h</text>
</a>
</g>
</g>
<!-- Node1&#45;&gt;Node4 -->
<g id="edge11" class="edge">
<title>Node1&#45;&gt;Node4</title>
<path fill="none" stroke="midnightblue" d="M189.5,-112.46C176.21,-104.92 158.92,-92.53 151,-76 143.87,-61.11 148.81,-42.5 154.53,-29.02"/>
<polygon fill="midnightblue" stroke="midnightblue" points="157.76,-30.38 158.88,-19.85 151.43,-27.38 157.76,-30.38"/>
</g>
<!-- Node6 -->
<g id="node6" class="node">
<title>Node6</title>
<g id="a_node6"><a xlink:href="_sprite_8h.html" target="_top" xlink:title=" ">
<polygon fill="none" stroke="black" points="212,-56.5 212,-75.5 262,-75.5 262,-56.5 212,-56.5"/>
<text text-anchor="middle" x="237" y="-63.5" font-family="Helvetica,sans-Serif" font-size="10.00">Sprite.h</text>
</a>
</g>
</g>
<!-- Node1&#45;&gt;Node6 -->
<g id="edge5" class="edge">
<title>Node1&#45;&gt;Node6</title>
<path fill="none" stroke="midnightblue" d="M211.95,-112.08C216.1,-104.61 222.15,-93.72 227.27,-84.52"/>
<polygon fill="midnightblue" stroke="midnightblue" points="230.34,-86.19 232.14,-75.75 224.22,-82.79 230.34,-86.19"/>
</g>
<!-- Node8 -->
<g id="node8" class="node">
<title>Node8</title>
<g id="a_node8"><a xlink:href="_u_i_8h.html" target="_top" xlink:title=" ">
<polygon fill="none" stroke="black" points="160,-56.5 160,-75.5 194,-75.5 194,-56.5 160,-56.5"/>
<text text-anchor="middle" x="177" y="-63.5" font-family="Helvetica,sans-Serif" font-size="10.00">UI.h</text>
</a>
</g>
</g>
<!-- Node1&#45;&gt;Node8 -->
<g id="edge8" class="edge">
<title>Node1&#45;&gt;Node8</title>
<path fill="none" stroke="midnightblue" d="M202.05,-112.08C197.9,-104.61 191.85,-93.72 186.73,-84.52"/>
<polygon fill="midnightblue" stroke="midnightblue" points="189.78,-82.79 181.86,-75.75 183.66,-86.19 189.78,-82.79"/>
</g>
<!-- Node9 -->
<g id="node9" class="node">
<title>Node9</title>
<g id="a_node9"><a xlink:title=" ">
<polygon fill="none" stroke="#bfbfbf" points="280,-56.5 280,-75.5 330,-75.5 330,-56.5 280,-56.5"/>
<text text-anchor="middle" x="305" y="-63.5" font-family="Helvetica,sans-Serif" font-size="10.00">config.h</text>
</a>
</g>
</g>
<!-- Node1&#45;&gt;Node9 -->
<g id="edge10" class="edge">
<title>Node1&#45;&gt;Node9</title>
<path fill="none" stroke="midnightblue" d="M222.75,-112.32C238.32,-103.74 262.38,-90.49 280.46,-80.52"/>
<polygon fill="midnightblue" stroke="midnightblue" points="282.22,-83.55 289.29,-75.65 278.85,-77.42 282.22,-83.55"/>
</g>
<!-- Node10 -->
<g id="node10" class="node">
<title>Node10</title>
<g id="a_node10"><a xlink:title=" ">
<polygon fill="none" stroke="#bfbfbf" points="348.5,-56.5 348.5,-75.5 393.5,-75.5 393.5,-56.5 348.5,-56.5"/>
<text text-anchor="middle" x="371" y="-63.5" font-family="Helvetica,sans-Serif" font-size="10.00">cstdlib</text>
</a>
</g>
</g>
<!-- Node1&#45;&gt;Node10 -->
<g id="edge12" class="edge">
<title>Node1&#45;&gt;Node10</title>
<path fill="none" stroke="midnightblue" d="M232.99,-112.44C261.55,-103.04 307.48,-87.91 338.43,-77.72"/>
<polygon fill="midnightblue" stroke="midnightblue" points="339.9,-80.93 348.3,-74.47 337.71,-74.28 339.9,-80.93"/>
</g>
<!-- Node11 -->
<g id="node11" class="node">
<title>Node11</title>
<g id="a_node11"><a xlink:title=" ">
<polygon fill="none" stroke="#bfbfbf" points="412,-56.5 412,-75.5 466,-75.5 466,-56.5 412,-56.5"/>
<text text-anchor="middle" x="439" y="-63.5" font-family="Helvetica,sans-Serif" font-size="10.00">iostream</text>
</a>
</g>
</g>
<!-- Node1&#45;&gt;Node11 -->
<g id="edge13" class="edge">
<title>Node1&#45;&gt;Node11</title>
<path fill="none" stroke="midnightblue" d="M235.28,-114.69C271.55,-106.55 336.66,-91.82 401.85,-76.24"/>
<polygon fill="midnightblue" stroke="midnightblue" points="402.98,-79.57 411.89,-73.84 401.35,-72.76 402.98,-79.57"/>
</g>
<!-- Node2&#45;&gt;Node3 -->
<g id="edge2" class="edge">
<title>Node2&#45;&gt;Node3</title>
<path fill="none" stroke="midnightblue" d="M70.25,-56.08C62.53,-48.22 51.1,-36.57 41.78,-27.08"/>
<polygon fill="midnightblue" stroke="midnightblue" points="44.09,-24.44 34.59,-19.75 39.1,-29.34 44.09,-24.44"/>
</g>
<!-- Node2&#45;&gt;Node4 -->
<g id="edge3" class="edge">
<title>Node2&#45;&gt;Node4</title>
<path fill="none" stroke="midnightblue" d="M92.66,-56.32C105.92,-47.9 126.27,-34.97 141.85,-25.07"/>
<polygon fill="midnightblue" stroke="midnightblue" points="143.81,-27.97 150.38,-19.65 140.06,-22.06 143.81,-27.97"/>
</g>
<!-- Node5 -->
<g id="node5" class="node">
<title>Node5</title>
<g id="a_node5"><a xlink:title=" ">
<polygon fill="none" stroke="#bfbfbf" points="70,-0.5 70,-19.5 112,-19.5 112,-0.5 70,-0.5"/>
<text text-anchor="middle" x="91" y="-7.5" font-family="Helvetica,sans-Serif" font-size="10.00">vector</text>
</a>
</g>
</g>
<!-- Node2&#45;&gt;Node5 -->
<g id="edge4" class="edge">
<title>Node2&#45;&gt;Node5</title>
<path fill="none" stroke="midnightblue" d="M80.98,-56.08C82.57,-48.93 84.86,-38.64 86.85,-29.69"/>
<polygon fill="midnightblue" stroke="midnightblue" points="90.3,-30.27 89.06,-19.75 83.47,-28.75 90.3,-30.27"/>
</g>
<!-- Node6&#45;&gt;Node4 -->
<g id="edge6" class="edge">
<title>Node6&#45;&gt;Node4</title>
<path fill="none" stroke="midnightblue" d="M225.27,-56.32C214.16,-48.11 197.26,-35.6 184.02,-25.81"/>
<polygon fill="midnightblue" stroke="midnightblue" points="186.06,-22.97 175.94,-19.83 181.9,-28.59 186.06,-22.97"/>
</g>
<!-- Node7 -->
<g id="node7" class="node">
<title>Node7</title>
<g id="a_node7"><a xlink:title=" ">
<polygon fill="none" stroke="#bfbfbf" points="216.5,-0.5 216.5,-19.5 257.5,-19.5 257.5,-0.5 216.5,-0.5"/>
<text text-anchor="middle" x="237" y="-7.5" font-family="Helvetica,sans-Serif" font-size="10.00">string</text>
</a>
</g>
</g>
<!-- Node6&#45;&gt;Node7 -->
<g id="edge7" class="edge">
<title>Node6&#45;&gt;Node7</title>
<path fill="none" stroke="midnightblue" d="M237,-56.08C237,-49.01 237,-38.86 237,-29.99"/>
<polygon fill="midnightblue" stroke="midnightblue" points="240.5,-29.75 237,-19.75 233.5,-29.75 240.5,-29.75"/>
</g>
<!-- Node8&#45;&gt;Node4 -->
<g id="edge9" class="edge">
<title>Node8&#45;&gt;Node4</title>
<path fill="none" stroke="midnightblue" d="M174.85,-56.08C173.13,-48.93 170.65,-38.64 168.5,-29.69"/>
<polygon fill="midnightblue" stroke="midnightblue" points="171.85,-28.65 166.11,-19.75 165.04,-30.29 171.85,-28.65"/>
</g>
</g>
</svg>
