<?xml version="1.0" encoding="UTF-8" standalone="no"?>
<!DOCTYPE svg PUBLIC "-//W3C//DTD SVG 1.1//EN"
 "http://www.w3.org/Graphics/SVG/1.1/DTD/svg11.dtd">
<!-- Generated by graphviz version 3.0.0 (20220226.1711)
 -->
<!-- Title: main.cpp Pages: 1 -->
<svg width="1548pt" height="565pt"
 viewBox="0.00 0.00 1548.00 565.00" xmlns="http://www.w3.org/2000/svg" xmlns:xlink="http://www.w3.org/1999/xlink">
<g id="graph0" class="graph" transform="scale(1 1) rotate(0) translate(4 561)">
<title>main.cpp</title>
<!-- Node1 -->
<g id="node1" class="node">
<title>Node1</title>
<g id="a_node1"><a xlink:title=" ">
<polygon fill="#bfbfbf" stroke="black" points="1068.5,-537.5 1068.5,-556.5 1124.5,-556.5 1124.5,-537.5 1068.5,-537.5"/>
<text text-anchor="middle" x="1096.5" y="-544.5" font-family="Helvetica,sans-Serif" font-size="10.00">main.cpp</text>
</a>
</g>
</g>
<!-- Node2 -->
<g id="node2" class="node">
<title>Node2</title>
<g id="a_node2"><a xlink:href="_i_n_c_l_u_d_e_s_8h.html" target="_top" xlink:title=" ">
<polygon fill="none" stroke="black" points="805,-56.5 805,-75.5 878,-75.5 878,-56.5 805,-56.5"/>
<text text-anchor="middle" x="841.5" y="-63.5" font-family="Helvetica,sans-Serif" font-size="10.00">INCLUDES.h</text>
</a>
</g>
</g>
<!-- Node1&#45;&gt;Node2 -->
<g id="edge1" class="edge">
<title>Node1&#45;&gt;Node2</title>
<path fill="none" stroke="midnightblue" d="M1101.01,-537.37C1111.07,-517.29 1134.5,-465.59 1134.5,-419.5 1134.5,-419.5 1134.5,-419.5 1134.5,-177 1134.5,-124.97 970.52,-89.23 887.91,-74.52"/>
<polygon fill="midnightblue" stroke="midnightblue" points="888.47,-71.06 878.02,-72.79 887.26,-77.96 888.47,-71.06"/>
</g>
<!-- Node24 -->
<g id="node24" class="node">
<title>Node24</title>
<g id="a_node24"><a xlink:href="_game_audio_8h.html" target="_top" xlink:title=" ">
<polygon fill="none" stroke="black" points="1439,-0.5 1439,-19.5 1540,-19.5 1540,-0.5 1439,-0.5"/>
<text text-anchor="middle" x="1489.5" y="-7.5" font-family="Helvetica,sans-Serif" font-size="10.00">Level/GameAudio.h</text>
</a>
</g>
</g>
<!-- Node1&#45;&gt;Node24 -->
<g id="edge25" class="edge">
<title>Node1&#45;&gt;Node24</title>
<path fill="none" stroke="midnightblue" d="M1124.63,-544.49C1193.71,-540.42 1369.79,-527.64 1421.5,-501 1465.8,-478.18 1498.5,-469.33 1498.5,-419.5 1498.5,-419.5 1498.5,-419.5 1498.5,-121 1498.5,-88.84 1494.63,-51.57 1491.97,-29.71"/>
<polygon fill="midnightblue" stroke="midnightblue" points="1495.41,-29.02 1490.68,-19.54 1488.46,-29.9 1495.41,-29.02"/>
</g>
<!-- Node25 -->
<g id="node25" class="node">
<title>Node25</title>
<g id="a_node25"><a xlink:href="_inventory_8h.html" target="_top" xlink:title=" ">
<polygon fill="none" stroke="black" points="1382.5,-112.5 1382.5,-131.5 1470.5,-131.5 1470.5,-112.5 1382.5,-112.5"/>
<text text-anchor="middle" x="1426.5" y="-119.5" font-family="Helvetica,sans-Serif" font-size="10.00">Level/Inventory.h</text>
</a>
</g>
</g>
<!-- Node1&#45;&gt;Node25 -->
<g id="edge26" class="edge">
<title>Node1&#45;&gt;Node25</title>
<path fill="none" stroke="midnightblue" d="M1124.89,-545.41C1191.42,-543.47 1354.85,-535.25 1395.5,-501 1424.68,-476.41 1422.5,-457.66 1422.5,-419.5 1422.5,-419.5 1422.5,-419.5 1422.5,-233 1422.5,-200.93 1424.22,-163.63 1425.4,-141.74"/>
<polygon fill="midnightblue" stroke="midnightblue" points="1428.91,-141.73 1425.98,-131.55 1421.92,-141.34 1428.91,-141.73"/>
</g>
<!-- Node26 -->
<g id="node26" class="node">
<title>Node26</title>
<g id="a_node26"><a xlink:href="_level_8h.html" target="_top" xlink:title=" ">
<polygon fill="none" stroke="black" points="581,-286 581,-305 652,-305 652,-286 581,-286"/>
<text text-anchor="middle" x="616.5" y="-293" font-family="Helvetica,sans-Serif" font-size="10.00">Level/Level.h</text>
</a>
</g>
</g>
<!-- Node1&#45;&gt;Node26 -->
<g id="edge28" class="edge">
<title>Node1&#45;&gt;Node26</title>
<path fill="none" stroke="midnightblue" d="M1068.35,-545.82C1020.41,-544.48 920.87,-537.15 846.5,-501 749.1,-453.66 661.77,-353.1 629.6,-313.26"/>
<polygon fill="midnightblue" stroke="midnightblue" points="632.24,-310.96 623.27,-305.31 626.77,-315.32 632.24,-310.96"/>
</g>
<!-- Node30 -->
<g id="node30" class="node">
<title>Node30</title>
<g id="a_node30"><a xlink:href="_sprite_8h.html" target="_top" xlink:title=" ">
<polygon fill="none" stroke="black" points="422.5,-112.5 422.5,-131.5 510.5,-131.5 510.5,-112.5 422.5,-112.5"/>
<text text-anchor="middle" x="466.5" y="-119.5" font-family="Helvetica,sans-Serif" font-size="10.00">../Sprite/Sprite.h</text>
</a>
</g>
</g>
<!-- Node1&#45;&gt;Node30 -->
<g id="edge81" class="edge">
<title>Node1&#45;&gt;Node30</title>
<path fill="none" stroke="midnightblue" d="M1068.36,-545.11C915.27,-539.92 189.5,-510.52 189.5,-419.5 189.5,-419.5 189.5,-419.5 189.5,-294.5 189.5,-235.12 187.72,-207 232.5,-168 258.75,-145.14 351.58,-132.89 412.13,-127.18"/>
<polygon fill="midnightblue" stroke="midnightblue" points="412.66,-130.65 422.3,-126.25 412.02,-123.67 412.66,-130.65"/>
</g>
<!-- Node34 -->
<g id="node34" class="node">
<title>Node34</title>
<g id="a_node34"><a xlink:href="_nemo_8h.html" target="_top" xlink:title=" ">
<polygon fill="none" stroke="black" points="964.5,-224.5 964.5,-243.5 1054.5,-243.5 1054.5,-224.5 964.5,-224.5"/>
<text text-anchor="middle" x="1009.5" y="-231.5" font-family="Helvetica,sans-Serif" font-size="10.00">../Player/Nemo.h</text>
</a>
</g>
</g>
<!-- Node1&#45;&gt;Node34 -->
<g id="edge74" class="edge">
<title>Node1&#45;&gt;Node34</title>
<path fill="none" stroke="midnightblue" d="M1091.99,-537.37C1081.93,-517.29 1058.5,-465.59 1058.5,-419.5 1058.5,-419.5 1058.5,-419.5 1058.5,-356 1058.5,-316.54 1035.83,-274.78 1021.33,-252.1"/>
<polygon fill="midnightblue" stroke="midnightblue" points="1024.15,-250.02 1015.71,-243.62 1018.31,-253.89 1024.15,-250.02"/>
</g>
<!-- Node35 -->
<g id="node35" class="node">
<title>Node35</title>
<g id="a_node35"><a xlink:href="_u_i_8h.html" target="_top" xlink:title=" ">
<polygon fill="none" stroke="black" points="1072.5,-224.5 1072.5,-243.5 1106.5,-243.5 1106.5,-224.5 1072.5,-224.5"/>
<text text-anchor="middle" x="1089.5" y="-231.5" font-family="Helvetica,sans-Serif" font-size="10.00">UI.h</text>
</a>
</g>
</g>
<!-- Node1&#45;&gt;Node35 -->
<g id="edge62" class="edge">
<title>Node1&#45;&gt;Node35</title>
<path fill="none" stroke="midnightblue" d="M1096.5,-537.41C1096.5,-516.98 1096.5,-463.86 1096.5,-419.5 1096.5,-419.5 1096.5,-419.5 1096.5,-356 1096.5,-319.83 1093.34,-277.69 1091.27,-253.9"/>
<polygon fill="midnightblue" stroke="midnightblue" points="1094.74,-253.44 1090.36,-243.8 1087.77,-254.07 1094.74,-253.44"/>
</g>
<!-- Node37 -->
<g id="node37" class="node">
<title>Node37</title>
<g id="a_node37"><a xlink:href="_map_8h.html" target="_top" xlink:title=" ">
<polygon fill="none" stroke="black" points="93.5,-347.5 93.5,-366.5 161.5,-366.5 161.5,-347.5 93.5,-347.5"/>
<text text-anchor="middle" x="127.5" y="-354.5" font-family="Helvetica,sans-Serif" font-size="10.00">Level/Map.h</text>
</a>
</g>
</g>
<!-- Node1&#45;&gt;Node37 -->
<g id="edge57" class="edge">
<title>Node1&#45;&gt;Node37</title>
<path fill="none" stroke="midnightblue" d="M1068.16,-545.51C917.09,-542.78 211.96,-528.59 175.5,-501 136.26,-471.3 128.76,-408.15 127.55,-376.66"/>
<polygon fill="midnightblue" stroke="midnightblue" points="131.05,-376.54 127.34,-366.61 124.05,-376.68 131.05,-376.54"/>
</g>
<!-- Node38 -->
<g id="node38" class="node">
<title>Node38</title>
<g id="a_node38"><a xlink:href="_dialogue_8h.html" target="_top" xlink:title=" ">
<polygon fill="none" stroke="black" points="905,-347.5 905,-366.5 992,-366.5 992,-347.5 905,-347.5"/>
<text text-anchor="middle" x="948.5" y="-354.5" font-family="Helvetica,sans-Serif" font-size="10.00">Level/Dialogue.h</text>
</a>
</g>
</g>
<!-- Node1&#45;&gt;Node38 -->
<g id="edge63" class="edge">
<title>Node1&#45;&gt;Node38</title>
<path fill="none" stroke="midnightblue" d="M1084.97,-537.48C1073.88,-528.96 1057,-515.13 1044.5,-501 1007.97,-459.71 974.27,-403.73 958.26,-375.63"/>
<polygon fill="midnightblue" stroke="midnightblue" points="961.15,-373.62 953.2,-366.62 955.05,-377.05 961.15,-373.62"/>
</g>
<!-- Node39 -->
<g id="node39" class="node">
<title>Node39</title>
<g id="a_node39"><a xlink:href="_puzzle_8h.html" target="_top" xlink:title=" ">
<polygon fill="none" stroke="black" points="855.5,-476 855.5,-495 935.5,-495 935.5,-476 855.5,-476"/>
<text text-anchor="middle" x="895.5" y="-483" font-family="Helvetica,sans-Serif" font-size="10.00">Level/Puzzle.h</text>
</a>
</g>
</g>
<!-- Node1&#45;&gt;Node39 -->
<g id="edge65" class="edge">
<title>Node1&#45;&gt;Node39</title>
<path fill="none" stroke="midnightblue" d="M1068.13,-537.6C1033.09,-527.23 973.32,-509.54 934.12,-497.93"/>
<polygon fill="midnightblue" stroke="midnightblue" points="934.96,-494.53 924.38,-495.05 932.97,-501.24 934.96,-494.53"/>
</g>
<!-- Node41 -->
<g id="node41" class="node">
<title>Node41</title>
<g id="a_node41"><a xlink:href="_enemy_01_overworld_01_sprites_2_mumy_8h.html" target="_top" xlink:title=" ">
<polygon fill="none" stroke="black" points="1162.5,-280.5 1162.5,-310.5 1288.5,-310.5 1288.5,-280.5 1162.5,-280.5"/>
<text text-anchor="start" x="1170.5" y="-298.5" font-family="Helvetica,sans-Serif" font-size="10.00">Enemy Overworld Sprites</text>
<text text-anchor="middle" x="1225.5" y="-287.5" font-family="Helvetica,sans-Serif" font-size="10.00">/Mumy.h</text>
</a>
</g>
</g>
<!-- Node1&#45;&gt;Node41 -->
<g id="edge75" class="edge">
<title>Node1&#45;&gt;Node41</title>
<path fill="none" stroke="midnightblue" d="M1109.68,-537.44C1121.3,-529.3 1137.99,-516.08 1148.5,-501 1169.68,-470.62 1203.34,-367.64 1218.12,-320.46"/>
<polygon fill="midnightblue" stroke="midnightblue" points="1221.51,-321.36 1221.14,-310.77 1214.83,-319.28 1221.51,-321.36"/>
</g>
<!-- Node42 -->
<g id="node42" class="node">
<title>Node42</title>
<g id="a_node42"><a xlink:href="_enemy_01_overworld_01_sprites_2_shadow_8h.html" target="_top" xlink:title=" ">
<polygon fill="none" stroke="black" points="1200.5,-403.5 1200.5,-433.5 1326.5,-433.5 1326.5,-403.5 1200.5,-403.5"/>
<text text-anchor="start" x="1208.5" y="-421.5" font-family="Helvetica,sans-Serif" font-size="10.00">Enemy Overworld Sprites</text>
<text text-anchor="middle" x="1263.5" y="-410.5" font-family="Helvetica,sans-Serif" font-size="10.00">/Shadow.h</text>
</a>
</g>
</g>
<!-- Node1&#45;&gt;Node42 -->
<g id="edge77" class="edge">
<title>Node1&#45;&gt;Node42</title>
<path fill="none" stroke="midnightblue" d="M1118.81,-537.44C1137.81,-529.56 1165.32,-516.73 1186.5,-501 1209.6,-483.85 1231.7,-459.33 1246.24,-441.67"/>
<polygon fill="midnightblue" stroke="midnightblue" points="1249.19,-443.6 1252.75,-433.62 1243.75,-439.2 1249.19,-443.6"/>
</g>
<!-- Node43 -->
<g id="node43" class="node">
<title>Node43</title>
<g id="a_node43"><a xlink:href="_enemy_01_overworld_01_sprites_2_pharaoh_8h.html" target="_top" xlink:title=" ">
<polygon fill="none" stroke="black" points="1260.5,-470.5 1260.5,-500.5 1386.5,-500.5 1386.5,-470.5 1260.5,-470.5"/>
<text text-anchor="start" x="1268.5" y="-488.5" font-family="Helvetica,sans-Serif" font-size="10.00">Enemy Overworld Sprites</text>
<text text-anchor="middle" x="1323.5" y="-477.5" font-family="Helvetica,sans-Serif" font-size="10.00">/Pharaoh.h</text>
</a>
</g>
</g>
<!-- Node1&#45;&gt;Node43 -->
<g id="edge79" class="edge">
<title>Node1&#45;&gt;Node43</title>
<path fill="none" stroke="midnightblue" d="M1124.79,-538.58C1158.38,-529.78 1215.44,-514.83 1259.81,-503.19"/>
<polygon fill="midnightblue" stroke="midnightblue" points="1260.86,-506.54 1269.65,-500.61 1259.09,-499.76 1260.86,-506.54"/>
</g>
<!-- Node3 -->
<g id="node3" class="node">
<title>Node3</title>
<g id="a_node3"><a xlink:title=" ">
<polygon fill="none" stroke="#bfbfbf" points="1227,-0.5 1227,-19.5 1276,-19.5 1276,-0.5 1227,-0.5"/>
<text text-anchor="middle" x="1251.5" y="-7.5" font-family="Helvetica,sans-Serif" font-size="10.00">string.h</text>
</a>
</g>
</g>
<!-- Node2&#45;&gt;Node3 -->
<g id="edge2" class="edge">
<title>Node2&#45;&gt;Node3</title>
<path fill="none" stroke="midnightblue" d="M878.06,-62.33C943.85,-57.16 1086.67,-44.26 1216.58,-19.92"/>
<polygon fill="midnightblue" stroke="midnightblue" points="1217.54,-23.3 1226.71,-17.99 1216.23,-16.42 1217.54,-23.3"/>
</g>
<!-- Node4 -->
<g id="node4" class="node">
<title>Node4</title>
<g id="a_node4"><a xlink:title=" ">
<polygon fill="none" stroke="#bfbfbf" points="1294.5,-0.5 1294.5,-19.5 1342.5,-19.5 1342.5,-0.5 1294.5,-0.5"/>
<text text-anchor="middle" x="1318.5" y="-7.5" font-family="Helvetica,sans-Serif" font-size="10.00">raylib.h</text>
</a>
</g>
</g>
<!-- Node2&#45;&gt;Node4 -->
<g id="edge3" class="edge">
<title>Node2&#45;&gt;Node4</title>
<path fill="none" stroke="midnightblue" d="M878.24,-63.23C954.48,-59.12 1135.24,-47.16 1284.5,-20 1284.6,-19.98 1284.7,-19.96 1284.8,-19.94"/>
<polygon fill="midnightblue" stroke="midnightblue" points="1285.42,-23.39 1294.46,-17.86 1283.95,-16.55 1285.42,-23.39"/>
</g>
<!-- Node5 -->
<g id="node5" class="node">
<title>Node5</title>
<g id="a_node5"><a xlink:title=" ">
<polygon fill="none" stroke="#bfbfbf" points="1360.5,-0.5 1360.5,-19.5 1420.5,-19.5 1420.5,-0.5 1360.5,-0.5"/>
<text text-anchor="middle" x="1390.5" y="-7.5" font-family="Helvetica,sans-Serif" font-size="10.00">raymath.h</text>
</a>
</g>
</g>
<!-- Node2&#45;&gt;Node5 -->
<g id="edge4" class="edge">
<title>Node2&#45;&gt;Node5</title>
<path fill="none" stroke="midnightblue" d="M878.2,-63.51C960.82,-59.78 1167.83,-48.36 1350.3,-19.98"/>
<polygon fill="midnightblue" stroke="midnightblue" points="1351.01,-23.41 1360.35,-18.39 1349.92,-16.49 1351.01,-23.41"/>
</g>
<!-- Node6 -->
<g id="node6" class="node">
<title>Node6</title>
<g id="a_node6"><a xlink:title=" ">
<polygon fill="none" stroke="#bfbfbf" points="251.5,-0.5 251.5,-19.5 299.5,-19.5 299.5,-0.5 251.5,-0.5"/>
<text text-anchor="middle" x="275.5" y="-7.5" font-family="Helvetica,sans-Serif" font-size="10.00">stdlib.h</text>
</a>
</g>
</g>
<!-- Node2&#45;&gt;Node6 -->
<g id="edge5" class="edge">
<title>Node2&#45;&gt;Node6</title>
<path fill="none" stroke="midnightblue" d="M804.69,-64.19C719.21,-61.83 500.62,-52.97 309.48,-19.85"/>
<polygon fill="midnightblue" stroke="midnightblue" points="309.99,-16.38 299.54,-18.1 308.78,-23.28 309.99,-16.38"/>
</g>
<!-- Node7 -->
<g id="node7" class="node">
<title>Node7</title>
<g id="a_node7"><a xlink:title=" ">
<polygon fill="none" stroke="#bfbfbf" points="318,-0.5 318,-19.5 363,-19.5 363,-0.5 318,-0.5"/>
<text text-anchor="middle" x="340.5" y="-7.5" font-family="Helvetica,sans-Serif" font-size="10.00">cstdlib</text>
</a>
</g>
</g>
<!-- Node2&#45;&gt;Node7 -->
<g id="edge6" class="edge">
<title>Node2&#45;&gt;Node7</title>
<path fill="none" stroke="midnightblue" d="M804.7,-63.7C726.75,-60.48 539.21,-50.19 373.01,-19.74"/>
<polygon fill="midnightblue" stroke="midnightblue" points="373.58,-16.29 363.11,-17.9 372.3,-23.17 373.58,-16.29"/>
</g>
<!-- Node8 -->
<g id="node8" class="node">
<title>Node8</title>
<g id="a_node8"><a xlink:title=" ">
<polygon fill="none" stroke="#bfbfbf" points="381.5,-0.5 381.5,-19.5 427.5,-19.5 427.5,-0.5 381.5,-0.5"/>
<text text-anchor="middle" x="404.5" y="-7.5" font-family="Helvetica,sans-Serif" font-size="10.00">stdio.h</text>
</a>
</g>
</g>
<!-- Node2&#45;&gt;Node8 -->
<g id="edge7" class="edge">
<title>Node2&#45;&gt;Node8</title>
<path fill="none" stroke="midnightblue" d="M804.89,-62.94C735.17,-58.6 578.44,-46.75 437.9,-19.99"/>
<polygon fill="midnightblue" stroke="midnightblue" points="438.3,-16.5 427.81,-18.03 436.97,-23.37 438.3,-16.5"/>
</g>
<!-- Node9 -->
<g id="node9" class="node">
<title>Node9</title>
<g id="a_node9"><a xlink:title=" ">
<polygon fill="none" stroke="#bfbfbf" points="183.5,-0.5 183.5,-19.5 233.5,-19.5 233.5,-0.5 183.5,-0.5"/>
<text text-anchor="middle" x="208.5" y="-7.5" font-family="Helvetica,sans-Serif" font-size="10.00">config.h</text>
</a>
</g>
</g>
<!-- Node2&#45;&gt;Node9 -->
<g id="edge8" class="edge">
<title>Node2&#45;&gt;Node9</title>
<path fill="none" stroke="midnightblue" d="M804.75,-64.58C712.03,-63.03 461.07,-55.74 243.64,-19.88"/>
<polygon fill="midnightblue" stroke="midnightblue" points="244.08,-16.4 233.64,-18.21 242.92,-23.31 244.08,-16.4"/>
</g>
<!-- Node10 -->
<g id="node10" class="node">
<title>Node10</title>
<g id="a_node10"><a xlink:title=" ">
<polygon fill="none" stroke="#bfbfbf" points="446,-0.5 446,-19.5 505,-19.5 505,-0.5 446,-0.5"/>
<text text-anchor="middle" x="475.5" y="-7.5" font-family="Helvetica,sans-Serif" font-size="10.00">process.h</text>
</a>
</g>
</g>
<!-- Node2&#45;&gt;Node10 -->
<g id="edge9" class="edge">
<title>Node2&#45;&gt;Node10</title>
<path fill="none" stroke="midnightblue" d="M804.91,-61.14C745.9,-54.67 625.89,-40.47 515.3,-20.2"/>
<polygon fill="midnightblue" stroke="midnightblue" points="515.78,-16.73 505.31,-18.35 514.51,-23.61 515.78,-16.73"/>
</g>
<!-- Node11 -->
<g id="node11" class="node">
<title>Node11</title>
<g id="a_node11"><a xlink:title=" ">
<polygon fill="none" stroke="#bfbfbf" points="523,-0.5 523,-19.5 564,-19.5 564,-0.5 523,-0.5"/>
<text text-anchor="middle" x="543.5" y="-7.5" font-family="Helvetica,sans-Serif" font-size="10.00">string</text>
</a>
</g>
</g>
<!-- Node2&#45;&gt;Node11 -->
<g id="edge10" class="edge">
<title>Node2&#45;&gt;Node11</title>
<path fill="none" stroke="midnightblue" d="M804.8,-60.32C754.78,-53.62 662.28,-40.08 573.98,-19.84"/>
<polygon fill="midnightblue" stroke="midnightblue" points="574.6,-16.39 564.07,-17.54 573.01,-23.21 574.6,-16.39"/>
</g>
<!-- Node12 -->
<g id="node12" class="node">
<title>Node12</title>
<g id="a_node12"><a xlink:title=" ">
<polygon fill="none" stroke="#bfbfbf" points="582.5,-0.5 582.5,-19.5 620.5,-19.5 620.5,-0.5 582.5,-0.5"/>
<text text-anchor="middle" x="601.5" y="-7.5" font-family="Helvetica,sans-Serif" font-size="10.00">array</text>
</a>
</g>
</g>
<!-- Node2&#45;&gt;Node12 -->
<g id="edge11" class="edge">
<title>Node2&#45;&gt;Node12</title>
<path fill="none" stroke="midnightblue" d="M804.84,-58.4C764.36,-50.84 697.09,-37.53 630.52,-20.06"/>
<polygon fill="midnightblue" stroke="midnightblue" points="631.27,-16.64 620.7,-17.46 629.47,-23.41 631.27,-16.64"/>
</g>
<!-- Node13 -->
<g id="node13" class="node">
<title>Node13</title>
<g id="a_node13"><a xlink:title=" ">
<polygon fill="none" stroke="#bfbfbf" points="638.5,-0.5 638.5,-19.5 680.5,-19.5 680.5,-0.5 638.5,-0.5"/>
<text text-anchor="middle" x="659.5" y="-7.5" font-family="Helvetica,sans-Serif" font-size="10.00">vector</text>
</a>
</g>
</g>
<!-- Node2&#45;&gt;Node13 -->
<g id="edge12" class="edge">
<title>Node2&#45;&gt;Node13</title>
<path fill="none" stroke="midnightblue" d="M812.63,-56.49C783.96,-48.03 738.5,-34.59 690.44,-20.27"/>
<polygon fill="midnightblue" stroke="midnightblue" points="691.39,-16.9 680.8,-17.4 689.39,-23.61 691.39,-16.9"/>
</g>
<!-- Node14 -->
<g id="node14" class="node">
<title>Node14</title>
<g id="a_node14"><a xlink:title=" ">
<polygon fill="none" stroke="#bfbfbf" points="698.5,-0.5 698.5,-19.5 742.5,-19.5 742.5,-0.5 698.5,-0.5"/>
<text text-anchor="middle" x="720.5" y="-7.5" font-family="Helvetica,sans-Serif" font-size="10.00">cmath</text>
</a>
</g>
</g>
<!-- Node2&#45;&gt;Node14 -->
<g id="edge13" class="edge">
<title>Node2&#45;&gt;Node14</title>
<path fill="none" stroke="midnightblue" d="M822.33,-56.44C802.59,-47.64 771.61,-33.81 749.01,-23.72"/>
<polygon fill="midnightblue" stroke="midnightblue" points="750.14,-20.4 739.58,-19.52 747.29,-26.79 750.14,-20.4"/>
</g>
<!-- Node15 -->
<g id="node15" class="node">
<title>Node15</title>
<g id="a_node15"><a xlink:title=" ">
<polygon fill="none" stroke="#bfbfbf" points="760.5,-0.5 760.5,-19.5 812.5,-19.5 812.5,-0.5 760.5,-0.5"/>
<text text-anchor="middle" x="786.5" y="-7.5" font-family="Helvetica,sans-Serif" font-size="10.00">memory</text>
</a>
</g>
</g>
<!-- Node2&#45;&gt;Node15 -->
<g id="edge14" class="edge">
<title>Node2&#45;&gt;Node15</title>
<path fill="none" stroke="midnightblue" d="M832.42,-56.08C824.33,-48.14 812.3,-36.34 802.59,-26.8"/>
<polygon fill="midnightblue" stroke="midnightblue" points="805,-24.26 795.41,-19.75 800.1,-29.25 805,-24.26"/>
</g>
<!-- Node16 -->
<g id="node16" class="node">
<title>Node16</title>
<g id="a_node16"><a xlink:title=" ">
<polygon fill="none" stroke="#bfbfbf" points="831,-0.5 831,-19.5 872,-19.5 872,-0.5 831,-0.5"/>
<text text-anchor="middle" x="851.5" y="-7.5" font-family="Helvetica,sans-Serif" font-size="10.00">ctime</text>
</a>
</g>
</g>
<!-- Node2&#45;&gt;Node16 -->
<g id="edge15" class="edge">
<title>Node2&#45;&gt;Node16</title>
<path fill="none" stroke="midnightblue" d="M843.15,-56.08C844.48,-48.93 846.38,-38.64 848.04,-29.69"/>
<polygon fill="midnightblue" stroke="midnightblue" points="851.5,-30.22 849.88,-19.75 844.62,-28.95 851.5,-30.22"/>
</g>
<!-- Node17 -->
<g id="node17" class="node">
<title>Node17</title>
<g id="a_node17"><a xlink:title=" ">
<polygon fill="none" stroke="#bfbfbf" points="890.5,-0.5 890.5,-19.5 936.5,-19.5 936.5,-0.5 890.5,-0.5"/>
<text text-anchor="middle" x="913.5" y="-7.5" font-family="Helvetica,sans-Serif" font-size="10.00">chrono</text>
</a>
</g>
</g>
<!-- Node2&#45;&gt;Node17 -->
<g id="edge16" class="edge">
<title>Node2&#45;&gt;Node17</title>
<path fill="none" stroke="midnightblue" d="M853.07,-56.32C863.92,-48.18 880.38,-35.84 893.38,-26.09"/>
<polygon fill="midnightblue" stroke="midnightblue" points="895.82,-28.63 901.72,-19.83 891.62,-23.03 895.82,-28.63"/>
</g>
<!-- Node18 -->
<g id="node18" class="node">
<title>Node18</title>
<g id="a_node18"><a xlink:title=" ">
<polygon fill="none" stroke="#bfbfbf" points="954.5,-0.5 954.5,-19.5 1006.5,-19.5 1006.5,-0.5 954.5,-0.5"/>
<text text-anchor="middle" x="980.5" y="-7.5" font-family="Helvetica,sans-Serif" font-size="10.00">sstream</text>
</a>
</g>
</g>
<!-- Node2&#45;&gt;Node18 -->
<g id="edge17" class="edge">
<title>Node2&#45;&gt;Node18</title>
<path fill="none" stroke="midnightblue" d="M863.52,-56.44C886.6,-47.48 923.06,-33.31 949.14,-23.18"/>
<polygon fill="midnightblue" stroke="midnightblue" points="950.52,-26.4 958.58,-19.52 947.99,-19.88 950.52,-26.4"/>
</g>
<!-- Node19 -->
<g id="node19" class="node">
<title>Node19</title>
<g id="a_node19"><a xlink:title=" ">
<polygon fill="none" stroke="#bfbfbf" points="0,-0.5 0,-19.5 49,-19.5 49,-0.5 0,-0.5"/>
<text text-anchor="middle" x="24.5" y="-7.5" font-family="Helvetica,sans-Serif" font-size="10.00">fstream</text>
</a>
</g>
</g>
<!-- Node2&#45;&gt;Node19 -->
<g id="edge18" class="edge">
<title>Node2&#45;&gt;Node19</title>
<path fill="none" stroke="midnightblue" d="M804.93,-65.5C693.9,-66.47 351.05,-65.42 59.18,-19.74"/>
<polygon fill="midnightblue" stroke="midnightblue" points="59.68,-16.28 49.26,-18.17 58.59,-23.19 59.68,-16.28"/>
</g>
<!-- Node20 -->
<g id="node20" class="node">
<title>Node20</title>
<g id="a_node20"><a xlink:title=" ">
<polygon fill="none" stroke="#bfbfbf" points="1024.5,-0.5 1024.5,-19.5 1078.5,-19.5 1078.5,-0.5 1024.5,-0.5"/>
<text text-anchor="middle" x="1051.5" y="-7.5" font-family="Helvetica,sans-Serif" font-size="10.00">iostream</text>
</a>
</g>
</g>
<!-- Node2&#45;&gt;Node20 -->
<g id="edge19" class="edge">
<title>Node2&#45;&gt;Node20</title>
<path fill="none" stroke="midnightblue" d="M874.78,-56.44C912.86,-46.65 975.07,-30.65 1014.61,-20.49"/>
<polygon fill="midnightblue" stroke="midnightblue" points="1015.58,-23.85 1024.39,-17.97 1013.83,-17.07 1015.58,-23.85"/>
</g>
<!-- Node21 -->
<g id="node21" class="node">
<title>Node21</title>
<g id="a_node21"><a xlink:title=" ">
<polygon fill="none" stroke="#bfbfbf" points="1096.5,-0.5 1096.5,-19.5 1146.5,-19.5 1146.5,-0.5 1096.5,-0.5"/>
<text text-anchor="middle" x="1121.5" y="-7.5" font-family="Helvetica,sans-Serif" font-size="10.00">iomanip</text>
</a>
</g>
</g>
<!-- Node2&#45;&gt;Node21 -->
<g id="edge20" class="edge">
<title>Node2&#45;&gt;Node21</title>
<path fill="none" stroke="midnightblue" d="M878.36,-59.18C924.64,-51.66 1006.69,-37.68 1086.13,-20.17"/>
<polygon fill="midnightblue" stroke="midnightblue" points="1087.3,-23.49 1096.3,-17.9 1085.78,-16.66 1087.3,-23.49"/>
</g>
<!-- Node22 -->
<g id="node22" class="node">
<title>Node22</title>
<g id="a_node22"><a xlink:title=" ">
<polygon fill="none" stroke="#bfbfbf" points="1164.5,-0.5 1164.5,-19.5 1208.5,-19.5 1208.5,-0.5 1164.5,-0.5"/>
<text text-anchor="middle" x="1186.5" y="-7.5" font-family="Helvetica,sans-Serif" font-size="10.00">thread</text>
</a>
</g>
</g>
<!-- Node2&#45;&gt;Node22 -->
<g id="edge21" class="edge">
<title>Node2&#45;&gt;Node22</title>
<path fill="none" stroke="midnightblue" d="M878.06,-61.44C935.14,-55.53 1049.01,-42.26 1154.4,-19.98"/>
<polygon fill="midnightblue" stroke="midnightblue" points="1155.2,-23.39 1164.24,-17.87 1153.73,-16.54 1155.2,-23.39"/>
</g>
<!-- Node23 -->
<g id="node23" class="node">
<title>Node23</title>
<g id="a_node23"><a xlink:title=" ">
<polygon fill="none" stroke="#bfbfbf" points="67.5,-0.5 67.5,-19.5 165.5,-19.5 165.5,-0.5 67.5,-0.5"/>
<text text-anchor="middle" x="116.5" y="-7.5" font-family="Helvetica,sans-Serif" font-size="10.00">nlohmann/json.hpp</text>
</a>
</g>
</g>
<!-- Node2&#45;&gt;Node23 -->
<g id="edge22" class="edge">
<title>Node2&#45;&gt;Node23</title>
<path fill="none" stroke="midnightblue" d="M804.89,-63.64C705.48,-59.73 422.04,-46.98 175.73,-20.04"/>
<polygon fill="midnightblue" stroke="midnightblue" points="175.83,-16.53 165.51,-18.91 175.06,-23.49 175.83,-16.53"/>
</g>
<!-- Node2&#45;&gt;Node24 -->
<g id="edge23" class="edge">
<title>Node2&#45;&gt;Node24</title>
<path fill="none" stroke="midnightblue" d="M878.3,-62.86C970.15,-57.68 1216.02,-43.13 1420.5,-20 1423.16,-19.7 1425.87,-19.37 1428.63,-19.02"/>
<polygon fill="midnightblue" stroke="midnightblue" points="1429.23,-22.47 1438.68,-17.68 1428.31,-15.53 1429.23,-22.47"/>
</g>
<!-- Node24&#45;&gt;Node2 -->
<g id="edge24" class="edge">
<title>Node24&#45;&gt;Node2</title>
<path fill="none" stroke="midnightblue" d="M1442.63,-19.52C1441.24,-19.68 1439.86,-19.85 1438.5,-20 1234.62,-43.06 989.6,-57.59 888.48,-62.82"/>
<polygon fill="midnightblue" stroke="midnightblue" points="888.1,-59.33 878.29,-63.34 888.46,-66.32 888.1,-59.33"/>
</g>
<!-- Node25&#45;&gt;Node2 -->
<g id="edge27" class="edge">
<title>Node25&#45;&gt;Node2</title>
<path fill="none" stroke="midnightblue" d="M1382.21,-113.81C1377.59,-113.15 1372.95,-112.53 1368.5,-112 1191.61,-90.75 980.13,-75.86 888.11,-69.9"/>
<polygon fill="midnightblue" stroke="midnightblue" points="888.21,-66.4 878.01,-69.25 887.76,-73.38 888.21,-66.4"/>
</g>
<!-- Node26&#45;&gt;Node2 -->
<g id="edge46" class="edge">
<title>Node26&#45;&gt;Node2</title>
<path fill="none" stroke="midnightblue" d="M652.08,-295.17C694.11,-293.94 763.26,-285.18 802.5,-244 844.42,-200.01 845.29,-121.68 843.19,-85.84"/>
<polygon fill="midnightblue" stroke="midnightblue" points="846.67,-85.51 842.45,-75.79 839.69,-86.02 846.67,-85.51"/>
</g>
<!-- Node26&#45;&gt;Node9 -->
<g id="edge56" class="edge">
<title>Node26&#45;&gt;Node9</title>
<path fill="none" stroke="midnightblue" d="M580.76,-292.4C504.73,-287.41 329.73,-273.04 278.5,-244 203.14,-201.28 203.6,-77.47 206.76,-29.91"/>
<polygon fill="midnightblue" stroke="midnightblue" points="210.26,-30.03 207.56,-19.79 203.29,-29.49 210.26,-30.03"/>
</g>
<!-- Node27 -->
<g id="node27" class="node">
<title>Node27</title>
<g id="a_node27"><a xlink:href="_combat_2_mumy_8h.html" target="_top" xlink:title=" ">
<polygon fill="none" stroke="black" points="447.5,-224.5 447.5,-243.5 545.5,-243.5 545.5,-224.5 447.5,-224.5"/>
<text text-anchor="middle" x="496.5" y="-231.5" font-family="Helvetica,sans-Serif" font-size="10.00">../Combat/Mumy.h</text>
</a>
</g>
</g>
<!-- Node26&#45;&gt;Node27 -->
<g id="edge29" class="edge">
<title>Node26&#45;&gt;Node27</title>
<path fill="none" stroke="midnightblue" d="M599.31,-285.98C579.26,-276.03 545.9,-259.49 522.64,-247.96"/>
<polygon fill="midnightblue" stroke="midnightblue" points="524.18,-244.82 513.66,-243.51 521.07,-251.09 524.18,-244.82"/>
</g>
<!-- Node26&#45;&gt;Node30 -->
<g id="edge53" class="edge">
<title>Node26&#45;&gt;Node30</title>
<path fill="none" stroke="midnightblue" d="M580.74,-293.87C509.77,-291.77 355.17,-282.76 322.5,-244 316.77,-237.2 318.4,-231.89 322.5,-224 335.46,-199.09 404.12,-157.84 441.76,-136.59"/>
<polygon fill="midnightblue" stroke="midnightblue" points="443.59,-139.58 450.61,-131.64 440.17,-133.47 443.59,-139.58"/>
</g>
<!-- Node31 -->
<g id="node31" class="node">
<title>Node31</title>
<g id="a_node31"><a xlink:href="_player_8h.html" target="_top" xlink:title=" ">
<polygon fill="none" stroke="black" points="331.5,-224.5 331.5,-243.5 429.5,-243.5 429.5,-224.5 331.5,-224.5"/>
<text text-anchor="middle" x="380.5" y="-231.5" font-family="Helvetica,sans-Serif" font-size="10.00">../Combat/Player.h</text>
</a>
</g>
</g>
<!-- Node26&#45;&gt;Node31 -->
<g id="edge36" class="edge">
<title>Node26&#45;&gt;Node31</title>
<path fill="none" stroke="midnightblue" d="M582.69,-285.98C540.98,-275.46 469.99,-257.56 424.19,-246.01"/>
<polygon fill="midnightblue" stroke="midnightblue" points="424.8,-242.56 414.25,-243.51 423.09,-249.35 424.8,-242.56"/>
</g>
<!-- Node32 -->
<g id="node32" class="node">
<title>Node32</title>
<g id="a_node32"><a xlink:href="_combat_2_shadow_8h.html" target="_top" xlink:title=" ">
<polygon fill="none" stroke="black" points="564,-224.5 564,-243.5 669,-243.5 669,-224.5 564,-224.5"/>
<text text-anchor="middle" x="616.5" y="-231.5" font-family="Helvetica,sans-Serif" font-size="10.00">../Combat/Shadow.h</text>
</a>
</g>
</g>
<!-- Node26&#45;&gt;Node32 -->
<g id="edge40" class="edge">
<title>Node26&#45;&gt;Node32</title>
<path fill="none" stroke="midnightblue" d="M616.5,-285.98C616.5,-277.58 616.5,-264.48 616.5,-253.66"/>
<polygon fill="midnightblue" stroke="midnightblue" points="620,-253.51 616.5,-243.51 613,-253.51 620,-253.51"/>
</g>
<!-- Node33 -->
<g id="node33" class="node">
<title>Node33</title>
<g id="a_node33"><a xlink:href="_combat_2_pharaoh_8h.html" target="_top" xlink:title=" ">
<polygon fill="none" stroke="black" points="687,-224.5 687,-243.5 794,-243.5 794,-224.5 687,-224.5"/>
<text text-anchor="middle" x="740.5" y="-231.5" font-family="Helvetica,sans-Serif" font-size="10.00">../Combat/Pharaoh.h</text>
</a>
</g>
</g>
<!-- Node26&#45;&gt;Node33 -->
<g id="edge43" class="edge">
<title>Node26&#45;&gt;Node33</title>
<path fill="none" stroke="midnightblue" d="M634.27,-285.98C654.98,-276.03 689.45,-259.49 713.49,-247.96"/>
<polygon fill="midnightblue" stroke="midnightblue" points="715.27,-250.99 722.77,-243.51 712.24,-244.68 715.27,-250.99"/>
</g>
<!-- Node26&#45;&gt;Node34 -->
<g id="edge47" class="edge">
<title>Node26&#45;&gt;Node34</title>
<path fill="none" stroke="midnightblue" d="M652.07,-289.11C720.83,-278.7 872.43,-255.75 954.36,-243.35"/>
<polygon fill="midnightblue" stroke="midnightblue" points="955.12,-246.77 964.48,-241.82 954.07,-239.85 955.12,-246.77"/>
</g>
<!-- Node26&#45;&gt;Node35 -->
<g id="edge51" class="edge">
<title>Node26&#45;&gt;Node35</title>
<path fill="none" stroke="midnightblue" d="M652,-293.15C726.67,-289.74 905.35,-278.61 1062.47,-243.76"/>
<polygon fill="midnightblue" stroke="midnightblue" points="1063.33,-247.16 1072.31,-241.54 1061.79,-240.33 1063.33,-247.16"/>
</g>
<!-- Node36 -->
<g id="node36" class="node">
<title>Node36</title>
<g id="a_node36"><a xlink:href="_endscreen_8h.html" target="_top" xlink:title=" ">
<polygon fill="none" stroke="black" points="242,-168.5 242,-187.5 347,-187.5 347,-168.5 242,-168.5"/>
<text text-anchor="middle" x="294.5" y="-175.5" font-family="Helvetica,sans-Serif" font-size="10.00">../Level/Endscreen.h</text>
</a>
</g>
</g>
<!-- Node26&#45;&gt;Node36 -->
<g id="edge54" class="edge">
<title>Node26&#45;&gt;Node36</title>
<path fill="none" stroke="midnightblue" d="M580.91,-294.56C504.11,-293.85 326.75,-287.45 289.5,-244 278.59,-231.28 281.97,-211.53 286.77,-197.14"/>
<polygon fill="midnightblue" stroke="midnightblue" points="290.04,-198.37 290.32,-187.78 283.5,-195.89 290.04,-198.37"/>
</g>
<!-- Node27&#45;&gt;Node2 -->
<g id="edge30" class="edge">
<title>Node27&#45;&gt;Node2</title>
<path fill="none" stroke="midnightblue" d="M505.37,-224.36C519.08,-211.27 546.54,-186.02 572.5,-168 614.66,-138.73 625.91,-131.23 673.5,-112 713.21,-95.96 760.48,-83.88 794.75,-76.3"/>
<polygon fill="midnightblue" stroke="midnightblue" points="795.92,-79.62 804.95,-74.09 794.43,-72.78 795.92,-79.62"/>
</g>
<!-- Node28 -->
<g id="node28" class="node">
<title>Node28</title>
<g id="a_node28"><a xlink:title=" ">
<polygon fill="none" stroke="#bfbfbf" points="479.5,-168.5 479.5,-187.5 525.5,-187.5 525.5,-168.5 479.5,-168.5"/>
<text text-anchor="middle" x="502.5" y="-175.5" font-family="Helvetica,sans-Serif" font-size="10.00">cstring</text>
</a>
</g>
</g>
<!-- Node27&#45;&gt;Node28 -->
<g id="edge31" class="edge">
<title>Node27&#45;&gt;Node28</title>
<path fill="none" stroke="midnightblue" d="M497.49,-224.08C498.29,-216.93 499.43,-206.64 500.42,-197.69"/>
<polygon fill="midnightblue" stroke="midnightblue" points="503.9,-198.08 501.53,-187.75 496.94,-197.3 503.9,-198.08"/>
</g>
<!-- Node29 -->
<g id="node29" class="node">
<title>Node29</title>
<g id="a_node29"><a xlink:href="_game_character_8h.html" target="_top" xlink:title=" ">
<polygon fill="none" stroke="black" points="582,-168.5 582,-187.5 675,-187.5 675,-168.5 582,-168.5"/>
<text text-anchor="middle" x="628.5" y="-175.5" font-family="Helvetica,sans-Serif" font-size="10.00">GameCharacter.h</text>
</a>
</g>
</g>
<!-- Node27&#45;&gt;Node29 -->
<g id="edge32" class="edge">
<title>Node27&#45;&gt;Node29</title>
<path fill="none" stroke="midnightblue" d="M517.42,-224.44C539.24,-215.52 573.65,-201.44 598.39,-191.32"/>
<polygon fill="midnightblue" stroke="midnightblue" points="599.75,-194.54 607.68,-187.52 597.1,-188.06 599.75,-194.54"/>
</g>
<!-- Node29&#45;&gt;Node2 -->
<g id="edge33" class="edge">
<title>Node29&#45;&gt;Node2</title>
<path fill="none" stroke="midnightblue" d="M636.55,-168.18C649.58,-154.39 676.66,-127.66 704.5,-112 732.87,-96.04 767.77,-84.68 795.24,-77.37"/>
<polygon fill="midnightblue" stroke="midnightblue" points="796.19,-80.74 805,-74.86 794.44,-73.96 796.19,-80.74"/>
</g>
<!-- Node29&#45;&gt;Node30 -->
<g id="edge34" class="edge">
<title>Node29&#45;&gt;Node30</title>
<path fill="none" stroke="midnightblue" d="M602.83,-168.44C575.58,-159.36 532.32,-144.94 501.85,-134.78"/>
<polygon fill="midnightblue" stroke="midnightblue" points="502.64,-131.36 492.05,-131.52 500.43,-138 502.64,-131.36"/>
</g>
<!-- Node30&#45;&gt;Node2 -->
<g id="edge35" class="edge">
<title>Node30&#45;&gt;Node2</title>
<path fill="none" stroke="midnightblue" d="M510.62,-114.65C581.85,-104.39 721.56,-84.27 794.55,-73.76"/>
<polygon fill="midnightblue" stroke="midnightblue" points="795.43,-77.17 804.82,-72.28 794.43,-70.24 795.43,-77.17"/>
</g>
<!-- Node31&#45;&gt;Node2 -->
<g id="edge37" class="edge">
<title>Node31&#45;&gt;Node2</title>
<path fill="none" stroke="midnightblue" d="M379.87,-224.28C378.78,-201.7 379.33,-141.06 413.5,-112 442.11,-87.67 689.77,-73.8 794.77,-68.97"/>
<polygon fill="midnightblue" stroke="midnightblue" points="794.94,-72.46 804.77,-68.51 794.62,-65.47 794.94,-72.46"/>
</g>
<!-- Node31&#45;&gt;Node29 -->
<g id="edge38" class="edge">
<title>Node31&#45;&gt;Node29</title>
<path fill="none" stroke="midnightblue" d="M419.8,-224.44C463.06,-215.02 532.67,-199.87 579.47,-189.68"/>
<polygon fill="midnightblue" stroke="midnightblue" points="580.36,-193.06 589.39,-187.52 578.87,-186.22 580.36,-193.06"/>
</g>
<!-- Node31&#45;&gt;Node30 -->
<g id="edge39" class="edge">
<title>Node31&#45;&gt;Node30</title>
<path fill="none" stroke="midnightblue" d="M390.99,-224.4C401.07,-215.82 416.36,-201.95 427.5,-188 439.28,-173.25 450.1,-154.62 457.34,-141.09"/>
<polygon fill="midnightblue" stroke="midnightblue" points="460.62,-142.38 462.14,-131.89 454.41,-139.14 460.62,-142.38"/>
</g>
<!-- Node32&#45;&gt;Node2 -->
<g id="edge41" class="edge">
<title>Node32&#45;&gt;Node2</title>
<path fill="none" stroke="midnightblue" d="M629.76,-224.44C643.4,-215.56 665.17,-201.15 683.5,-188 734.63,-151.3 792.99,-105.57 822.41,-82.24"/>
<polygon fill="midnightblue" stroke="midnightblue" points="824.92,-84.71 830.57,-75.75 820.56,-79.23 824.92,-84.71"/>
</g>
<!-- Node32&#45;&gt;Node29 -->
<g id="edge42" class="edge">
<title>Node32&#45;&gt;Node29</title>
<path fill="none" stroke="midnightblue" d="M618.48,-224.08C620.07,-216.93 622.36,-206.64 624.35,-197.69"/>
<polygon fill="midnightblue" stroke="midnightblue" points="627.8,-198.27 626.56,-187.75 620.97,-196.75 627.8,-198.27"/>
</g>
<!-- Node33&#45;&gt;Node2 -->
<g id="edge44" class="edge">
<title>Node33&#45;&gt;Node2</title>
<path fill="none" stroke="midnightblue" d="M744.93,-224.28C755.31,-204.09 782.27,-152.72 808.5,-112 814.67,-102.43 822.12,-92.17 828.39,-83.86"/>
<polygon fill="midnightblue" stroke="midnightblue" points="831.3,-85.81 834.6,-75.74 825.74,-81.56 831.3,-85.81"/>
</g>
<!-- Node33&#45;&gt;Node29 -->
<g id="edge45" class="edge">
<title>Node33&#45;&gt;Node29</title>
<path fill="none" stroke="midnightblue" d="M722.51,-224.32C704.46,-215.62 676.45,-202.12 655.7,-192.11"/>
<polygon fill="midnightblue" stroke="midnightblue" points="656.98,-188.84 646.45,-187.65 653.94,-195.15 656.98,-188.84"/>
</g>
<!-- Node34&#45;&gt;Node2 -->
<g id="edge50" class="edge">
<title>Node34&#45;&gt;Node2</title>
<path fill="none" stroke="midnightblue" d="M1010.77,-224.41C1013.49,-202.65 1017.41,-144.78 988.5,-112 963.49,-83.64 921.14,-72.89 888.31,-68.94"/>
<polygon fill="midnightblue" stroke="midnightblue" points="888.32,-65.42 878.01,-67.89 887.6,-72.39 888.32,-65.42"/>
</g>
<!-- Node34&#45;&gt;Node24 -->
<g id="edge49" class="edge">
<title>Node34&#45;&gt;Node24</title>
<path fill="none" stroke="midnightblue" d="M1028.02,-224.43C1101.67,-190.37 1374.03,-64.41 1461.94,-23.75"/>
<polygon fill="midnightblue" stroke="midnightblue" points="1463.43,-26.92 1471.03,-19.54 1460.49,-20.56 1463.43,-26.92"/>
</g>
<!-- Node34&#45;&gt;Node30 -->
<g id="edge48" class="edge">
<title>Node34&#45;&gt;Node30</title>
<path fill="none" stroke="midnightblue" d="M967.34,-224.46C869.22,-204.58 625.75,-155.26 518.57,-133.55"/>
<polygon fill="midnightblue" stroke="midnightblue" points="519.13,-130.09 508.63,-131.53 517.74,-136.95 519.13,-130.09"/>
</g>
<!-- Node35&#45;&gt;Node2 -->
<g id="edge52" class="edge">
<title>Node35&#45;&gt;Node2</title>
<path fill="none" stroke="midnightblue" d="M1086.35,-224.43C1077.75,-202.19 1051.6,-142.32 1009.5,-112 973.82,-86.3 924.37,-75.28 888.36,-70.55"/>
<polygon fill="midnightblue" stroke="midnightblue" points="888.46,-67.04 878.12,-69.33 887.63,-73.99 888.46,-67.04"/>
</g>
<!-- Node36&#45;&gt;Node2 -->
<g id="edge55" class="edge">
<title>Node36&#45;&gt;Node2</title>
<path fill="none" stroke="midnightblue" d="M300.31,-168.38C310.67,-153.83 333.83,-124.75 361.5,-112 437.75,-76.86 689.25,-69.16 794.52,-67.47"/>
<polygon fill="midnightblue" stroke="midnightblue" points="794.89,-70.97 804.83,-67.32 794.78,-63.97 794.89,-70.97"/>
</g>
<!-- Node37&#45;&gt;Node2 -->
<g id="edge58" class="edge">
<title>Node37&#45;&gt;Node2</title>
<path fill="none" stroke="midnightblue" d="M128.37,-347.18C131.74,-317.66 146.49,-221.26 199.5,-168 243.59,-123.7 267.92,-127.37 328.5,-112 496.22,-69.44 703.55,-65.51 794.74,-66.13"/>
<polygon fill="midnightblue" stroke="midnightblue" points="794.73,-69.63 804.76,-66.22 794.79,-62.63 794.73,-69.63"/>
</g>
<!-- Node37&#45;&gt;Node19 -->
<g id="edge60" class="edge">
<title>Node37&#45;&gt;Node19</title>
<path fill="none" stroke="midnightblue" d="M116.1,-347.37C93.57,-329.24 45.5,-284.74 45.5,-235 45.5,-235 45.5,-235 45.5,-121 45.5,-88.38 36.48,-51.28 30.27,-29.57"/>
<polygon fill="midnightblue" stroke="midnightblue" points="33.54,-28.32 27.33,-19.73 26.83,-30.32 33.54,-28.32"/>
</g>
<!-- Node37&#45;&gt;Node23 -->
<g id="edge61" class="edge">
<title>Node37&#45;&gt;Node23</title>
<path fill="none" stroke="midnightblue" d="M124.07,-347.35C116.59,-327.72 99.5,-278.12 99.5,-235 99.5,-235 99.5,-235 99.5,-121 99.5,-88.58 106.8,-51.42 111.83,-29.64"/>
<polygon fill="midnightblue" stroke="midnightblue" points="115.27,-30.31 114.21,-19.77 108.47,-28.67 115.27,-30.31"/>
</g>
<!-- Node37&#45;&gt;Node26 -->
<g id="edge59" class="edge">
<title>Node37&#45;&gt;Node26</title>
<path fill="none" stroke="midnightblue" d="M161.89,-351.82C248.09,-341.33 473.47,-313.9 570.73,-302.07"/>
<polygon fill="midnightblue" stroke="midnightblue" points="571.33,-305.52 580.84,-300.84 570.49,-298.57 571.33,-305.52"/>
</g>
<!-- Node38&#45;&gt;Node2 -->
<g id="edge64" class="edge">
<title>Node38&#45;&gt;Node2</title>
<path fill="none" stroke="midnightblue" d="M949.66,-347.11C953.61,-313.3 963.59,-190.63 912.5,-112 903.39,-97.98 888.22,-87.5 874.23,-80.19"/>
<polygon fill="midnightblue" stroke="midnightblue" points="875.35,-76.85 864.82,-75.64 872.3,-83.15 875.35,-76.85"/>
</g>
<!-- Node39&#45;&gt;Node2 -->
<g id="edge66" class="edge">
<title>Node39&#45;&gt;Node2</title>
<path fill="none" stroke="midnightblue" d="M875.88,-475.92C859.86,-467.72 838.31,-453.68 828.5,-434 822.35,-421.67 827.92,-416.77 828.5,-403 832.5,-307.19 842.5,-283.81 846.5,-188 847.91,-154.25 848.37,-145.73 846.5,-112 846.02,-103.36 845.03,-93.83 844.05,-85.77"/>
<polygon fill="midnightblue" stroke="midnightblue" points="847.49,-85.07 842.74,-75.6 840.55,-85.97 847.49,-85.07"/>
</g>
<!-- Node39&#45;&gt;Node34 -->
<g id="edge67" class="edge">
<title>Node39&#45;&gt;Node34</title>
<path fill="none" stroke="midnightblue" d="M907.37,-475.77C930.22,-458.17 979.9,-415.91 1000.5,-367 1016.35,-329.38 1014.53,-280.39 1011.94,-253.93"/>
<polygon fill="midnightblue" stroke="midnightblue" points="1015.39,-253.32 1010.79,-243.78 1008.43,-254.11 1015.39,-253.32"/>
</g>
<!-- Node40 -->
<g id="node40" class="node">
<title>Node40</title>
<g id="a_node40"><a xlink:href="_collision_8h.html" target="_top" xlink:title=" ">
<polygon fill="none" stroke="black" points="837.5,-409 837.5,-428 899.5,-428 899.5,-409 837.5,-409"/>
<text text-anchor="middle" x="868.5" y="-416" font-family="Helvetica,sans-Serif" font-size="10.00">Collision.h</text>
</a>
</g>
</g>
<!-- Node39&#45;&gt;Node40 -->
<g id="edge68" class="edge">
<title>Node39&#45;&gt;Node40</title>
<path fill="none" stroke="midnightblue" d="M891.86,-475.73C887.81,-465.99 881.16,-449.98 875.99,-437.53"/>
<polygon fill="midnightblue" stroke="midnightblue" points="879.15,-436.02 872.08,-428.13 872.69,-438.7 879.15,-436.02"/>
</g>
<!-- Node40&#45;&gt;Node2 -->
<g id="edge69" class="edge">
<title>Node40&#45;&gt;Node2</title>
<path fill="none" stroke="midnightblue" d="M870.11,-408.74C876.34,-374.75 898.5,-252.66 898.5,-235 898.5,-235 898.5,-235 898.5,-177 898.5,-140.3 873.18,-103.66 856.29,-83.3"/>
<polygon fill="midnightblue" stroke="midnightblue" points="858.85,-80.9 849.67,-75.62 853.55,-85.48 858.85,-80.9"/>
</g>
<!-- Node40&#45;&gt;Node26 -->
<g id="edge70" class="edge">
<title>Node40&#45;&gt;Node26</title>
<path fill="none" stroke="midnightblue" d="M850.78,-408.99C807.42,-388.17 695.73,-334.54 643.8,-309.61"/>
<polygon fill="midnightblue" stroke="midnightblue" points="645.07,-306.33 634.54,-305.16 642.04,-312.64 645.07,-306.33"/>
</g>
<!-- Node40&#45;&gt;Node34 -->
<g id="edge72" class="edge">
<title>Node40&#45;&gt;Node34</title>
<path fill="none" stroke="midnightblue" d="M870.57,-408.69C874.12,-394.77 882.28,-367.17 895.5,-347 921.89,-306.73 964.89,-269.59 989.85,-249.84"/>
<polygon fill="midnightblue" stroke="midnightblue" points="992.12,-252.5 997.87,-243.6 987.83,-246.98 992.12,-252.5"/>
</g>
<!-- Node40&#45;&gt;Node37 -->
<g id="edge71" class="edge">
<title>Node40&#45;&gt;Node37</title>
<path fill="none" stroke="midnightblue" d="M837.13,-414.98C720.08,-405.58 308.52,-372.54 171.93,-361.57"/>
<polygon fill="midnightblue" stroke="midnightblue" points="172.07,-358.07 161.83,-360.76 171.51,-365.05 172.07,-358.07"/>
</g>
<!-- Node40&#45;&gt;Node38 -->
<g id="edge73" class="edge">
<title>Node40&#45;&gt;Node38</title>
<path fill="none" stroke="midnightblue" d="M879.96,-408.98C892.67,-399.52 913.41,-384.1 928.75,-372.69"/>
<polygon fill="midnightblue" stroke="midnightblue" points="931.12,-375.29 937.06,-366.51 926.95,-369.67 931.12,-375.29"/>
</g>
<!-- Node41&#45;&gt;Node2 -->
<g id="edge76" class="edge">
<title>Node41&#45;&gt;Node2</title>
<path fill="none" stroke="midnightblue" d="M1224.13,-280.28C1219.94,-245.33 1203.98,-154.93 1148.5,-112 1108.78,-81.26 964.03,-71.43 888.34,-68.35"/>
<polygon fill="midnightblue" stroke="midnightblue" points="888.26,-64.85 878.13,-67.96 887.99,-71.84 888.26,-64.85"/>
</g>
<!-- Node42&#45;&gt;Node2 -->
<g id="edge78" class="edge">
<title>Node42&#45;&gt;Node2</title>
<path fill="none" stroke="midnightblue" d="M1272.27,-403.24C1286.62,-378.04 1312.11,-324.12 1297.5,-280 1268.24,-191.65 1252.65,-159.3 1172.5,-112 1125.36,-84.18 967.76,-72.92 888.24,-68.92"/>
<polygon fill="midnightblue" stroke="midnightblue" points="888.17,-65.42 878.01,-68.43 887.83,-72.41 888.17,-65.42"/>
</g>
<!-- Node43&#45;&gt;Node2 -->
<g id="edge80" class="edge">
<title>Node43&#45;&gt;Node2</title>
<path fill="none" stroke="midnightblue" d="M1329.33,-470.36C1338.31,-447.27 1354.5,-399.83 1354.5,-358 1354.5,-358 1354.5,-358 1354.5,-177 1354.5,-82.2 1015.36,-68.84 888.57,-67.16"/>
<polygon fill="midnightblue" stroke="midnightblue" points="888.43,-63.65 878.39,-67.04 888.35,-70.65 888.43,-63.65"/>
</g>
</g>
</svg>
