<?xml version="1.0" encoding="UTF-8" standalone="no"?>
<!DOCTYPE svg PUBLIC "-//W3C//DTD SVG 1.1//EN"
 "http://www.w3.org/Graphics/SVG/1.1/DTD/svg11.dtd">
<!-- Generated by graphviz version 3.0.0 (20220226.1711)
 -->
<!-- Title: main.cpp Pages: 1 -->
<svg width="1549pt" height="509pt"
 viewBox="0.00 0.00 1548.50 509.00" xmlns="http://www.w3.org/2000/svg" xmlns:xlink="http://www.w3.org/1999/xlink">
<g id="graph0" class="graph" transform="scale(1 1) rotate(0) translate(4 505)">
<title>main.cpp</title>
<!-- Node1 -->
<g id="node1" class="node">
<title>Node1</title>
<g id="a_node1"><a xlink:title=" ">
<polygon fill="#bfbfbf" stroke="black" points="947,-481.5 947,-500.5 1003,-500.5 1003,-481.5 947,-481.5"/>
<text text-anchor="middle" x="975" y="-488.5" font-family="Helvetica,sans-Serif" font-size="10.00">main.cpp</text>
</a>
</g>
</g>
<!-- Node2 -->
<g id="node2" class="node">
<title>Node2</title>
<g id="a_node2"><a xlink:href="_i_n_c_l_u_d_e_s_8h.html" target="_top" xlink:title=" ">
<polygon fill="none" stroke="black" points="726.5,-56.5 726.5,-75.5 799.5,-75.5 799.5,-56.5 726.5,-56.5"/>
<text text-anchor="middle" x="763" y="-63.5" font-family="Helvetica,sans-Serif" font-size="10.00">INCLUDES.h</text>
</a>
</g>
</g>
<!-- Node1&#45;&gt;Node2 -->
<g id="edge1" class="edge">
<title>Node1&#45;&gt;Node2</title>
<path fill="none" stroke="midnightblue" d="M975,-481.41C975,-460.98 975,-407.86 975,-363.5 975,-363.5 975,-363.5 975,-177 975,-103.16 872.41,-78.82 809.96,-70.85"/>
<polygon fill="midnightblue" stroke="midnightblue" points="810.27,-67.36 799.93,-69.66 809.45,-74.31 810.27,-67.36"/>
</g>
<!-- Node24 -->
<g id="node24" class="node">
<title>Node24</title>
<g id="a_node24"><a xlink:href="_game_audio_8h.html" target="_top" xlink:title=" ">
<polygon fill="none" stroke="black" points="1439.5,-0.5 1439.5,-19.5 1540.5,-19.5 1540.5,-0.5 1439.5,-0.5"/>
<text text-anchor="middle" x="1490" y="-7.5" font-family="Helvetica,sans-Serif" font-size="10.00">Level/GameAudio.h</text>
</a>
</g>
</g>
<!-- Node1&#45;&gt;Node24 -->
<g id="edge25" class="edge">
<title>Node1&#45;&gt;Node24</title>
<path fill="none" stroke="midnightblue" d="M1003.11,-488.12C1100.71,-480.82 1419,-450.36 1419,-363.5 1419,-363.5 1419,-363.5 1419,-121 1419,-82.1 1450.73,-46.05 1471.77,-26.43"/>
<polygon fill="midnightblue" stroke="midnightblue" points="1474.11,-29.02 1479.22,-19.74 1469.44,-23.81 1474.11,-29.02"/>
</g>
<!-- Node25 -->
<g id="node25" class="node">
<title>Node25</title>
<g id="a_node25"><a xlink:href="_inventory_8h.html" target="_top" xlink:title=" ">
<polygon fill="none" stroke="black" points="1223,-112.5 1223,-131.5 1311,-131.5 1311,-112.5 1223,-112.5"/>
<text text-anchor="middle" x="1267" y="-119.5" font-family="Helvetica,sans-Serif" font-size="10.00">Level/Inventory.h</text>
</a>
</g>
</g>
<!-- Node1&#45;&gt;Node25 -->
<g id="edge26" class="edge">
<title>Node1&#45;&gt;Node25</title>
<path fill="none" stroke="midnightblue" d="M1003.35,-488.72C1063.54,-485.43 1201.42,-474.78 1236,-445 1264.92,-420.1 1263,-401.66 1263,-363.5 1263,-363.5 1263,-363.5 1263,-233 1263,-200.93 1264.72,-163.63 1265.9,-141.74"/>
<polygon fill="midnightblue" stroke="midnightblue" points="1269.41,-141.73 1266.48,-131.55 1262.42,-141.34 1269.41,-141.73"/>
</g>
<!-- Node26 -->
<g id="node26" class="node">
<title>Node26</title>
<g id="a_node26"><a xlink:href="_level_8h.html" target="_top" xlink:title=" ">
<polygon fill="none" stroke="black" points="580.5,-286 580.5,-305 651.5,-305 651.5,-286 580.5,-286"/>
<text text-anchor="middle" x="616" y="-293" font-family="Helvetica,sans-Serif" font-size="10.00">Level/Level.h</text>
</a>
</g>
</g>
<!-- Node1&#45;&gt;Node26 -->
<g id="edge28" class="edge">
<title>Node1&#45;&gt;Node26</title>
<path fill="none" stroke="midnightblue" d="M946.77,-487.41C890.2,-481.81 765.26,-467.26 729,-445 676.44,-412.73 639.55,-346.32 624.1,-314.4"/>
<polygon fill="midnightblue" stroke="midnightblue" points="627.27,-312.9 619.85,-305.34 620.93,-315.88 627.27,-312.9"/>
</g>
<!-- Node30 -->
<g id="node30" class="node">
<title>Node30</title>
<g id="a_node30"><a xlink:href="_sprite_8h.html" target="_top" xlink:title=" ">
<polygon fill="none" stroke="black" points="467,-112.5 467,-131.5 555,-131.5 555,-112.5 467,-112.5"/>
<text text-anchor="middle" x="511" y="-119.5" font-family="Helvetica,sans-Serif" font-size="10.00">../Sprite/Sprite.h</text>
</a>
</g>
</g>
<!-- Node1&#45;&gt;Node30 -->
<g id="edge72" class="edge">
<title>Node1&#45;&gt;Node30</title>
<path fill="none" stroke="midnightblue" d="M946.82,-489.04C840.68,-484.68 471,-462.4 471,-363.5 471,-363.5 471,-363.5 471,-233 471,-198.62 488.47,-161.63 500.32,-140.5"/>
<polygon fill="midnightblue" stroke="midnightblue" points="503.42,-142.13 505.44,-131.73 497.38,-138.61 503.42,-142.13"/>
</g>
<!-- Node34 -->
<g id="node34" class="node">
<title>Node34</title>
<g id="a_node34"><a xlink:href="_nemo_8h.html" target="_top" xlink:title=" ">
<polygon fill="none" stroke="black" points="781,-224.5 781,-243.5 871,-243.5 871,-224.5 781,-224.5"/>
<text text-anchor="middle" x="826" y="-231.5" font-family="Helvetica,sans-Serif" font-size="10.00">../Player/Nemo.h</text>
</a>
</g>
</g>
<!-- Node1&#45;&gt;Node34 -->
<g id="edge65" class="edge">
<title>Node1&#45;&gt;Node34</title>
<path fill="none" stroke="midnightblue" d="M969.87,-481.22C948.38,-444.44 865.33,-302.32 836.18,-252.43"/>
<polygon fill="midnightblue" stroke="midnightblue" points="839.17,-250.61 831.11,-243.74 833.13,-254.14 839.17,-250.61"/>
</g>
<!-- Node35 -->
<g id="node35" class="node">
<title>Node35</title>
<g id="a_node35"><a xlink:href="_u_i_8h.html" target="_top" xlink:title=" ">
<polygon fill="none" stroke="black" points="729,-224.5 729,-243.5 763,-243.5 763,-224.5 729,-224.5"/>
<text text-anchor="middle" x="746" y="-231.5" font-family="Helvetica,sans-Serif" font-size="10.00">UI.h</text>
</a>
</g>
</g>
<!-- Node1&#45;&gt;Node35 -->
<g id="edge57" class="edge">
<title>Node1&#45;&gt;Node35</title>
<path fill="none" stroke="midnightblue" d="M946.97,-490.53C909.71,-489.67 844.13,-482.44 806,-445 752.21,-392.17 745.78,-294.72 745.59,-253.83"/>
<polygon fill="midnightblue" stroke="midnightblue" points="749.09,-253.71 745.68,-243.68 742.09,-253.65 749.09,-253.71"/>
</g>
<!-- Node37 -->
<g id="node37" class="node">
<title>Node37</title>
<g id="a_node37"><a xlink:href="_puzzle_8h.html" target="_top" xlink:title=" ">
<polygon fill="none" stroke="black" points="815,-420 815,-439 895,-439 895,-420 815,-420"/>
<text text-anchor="middle" x="855" y="-427" font-family="Helvetica,sans-Serif" font-size="10.00">Level/Puzzle.h</text>
</a>
</g>
</g>
<!-- Node1&#45;&gt;Node37 -->
<g id="edge58" class="edge">
<title>Node1&#45;&gt;Node37</title>
<path fill="none" stroke="midnightblue" d="M957.81,-481.48C937.76,-471.53 904.4,-454.99 881.14,-443.46"/>
<polygon fill="midnightblue" stroke="midnightblue" points="882.68,-440.32 872.16,-439.01 879.57,-446.59 882.68,-440.32"/>
</g>
<!-- Node39 -->
<g id="node39" class="node">
<title>Node39</title>
<g id="a_node39"><a xlink:href="_enemy_01_overworld_01_sprites_2_mumy_8h.html" target="_top" xlink:title=" ">
<polygon fill="none" stroke="black" points="1003,-280.5 1003,-310.5 1129,-310.5 1129,-280.5 1003,-280.5"/>
<text text-anchor="start" x="1011" y="-298.5" font-family="Helvetica,sans-Serif" font-size="10.00">Enemy Overworld Sprites</text>
<text text-anchor="middle" x="1066" y="-287.5" font-family="Helvetica,sans-Serif" font-size="10.00">/Mumy.h</text>
</a>
</g>
</g>
<!-- Node1&#45;&gt;Node39 -->
<g id="edge66" class="edge">
<title>Node1&#45;&gt;Node39</title>
<path fill="none" stroke="midnightblue" d="M977.73,-481.34C985.05,-458.61 1006.29,-395.68 1032,-347 1037.06,-337.43 1043.51,-327.43 1049.43,-318.88"/>
<polygon fill="midnightblue" stroke="midnightblue" points="1052.39,-320.76 1055.33,-310.58 1046.69,-316.7 1052.39,-320.76"/>
</g>
<!-- Node40 -->
<g id="node40" class="node">
<title>Node40</title>
<g id="a_node40"><a xlink:href="_enemy_01_overworld_01_sprites_2_shadow_8h.html" target="_top" xlink:title=" ">
<polygon fill="none" stroke="black" points="1041,-347.5 1041,-377.5 1167,-377.5 1167,-347.5 1041,-347.5"/>
<text text-anchor="start" x="1049" y="-365.5" font-family="Helvetica,sans-Serif" font-size="10.00">Enemy Overworld Sprites</text>
<text text-anchor="middle" x="1104" y="-354.5" font-family="Helvetica,sans-Serif" font-size="10.00">/Shadow.h</text>
</a>
</g>
</g>
<!-- Node1&#45;&gt;Node40 -->
<g id="edge68" class="edge">
<title>Node1&#45;&gt;Node40</title>
<path fill="none" stroke="midnightblue" d="M985.63,-481.33C996.34,-472.49 1013.2,-458.21 1027,-445 1047.3,-425.57 1069.19,-402.13 1084.43,-385.39"/>
<polygon fill="midnightblue" stroke="midnightblue" points="1087.22,-387.52 1091.33,-377.75 1082.03,-382.82 1087.22,-387.52"/>
</g>
<!-- Node41 -->
<g id="node41" class="node">
<title>Node41</title>
<g id="a_node41"><a xlink:href="_enemy_01_overworld_01_sprites_2_pharaoh_8h.html" target="_top" xlink:title=" ">
<polygon fill="none" stroke="black" points="1101,-414.5 1101,-444.5 1227,-444.5 1227,-414.5 1101,-414.5"/>
<text text-anchor="start" x="1109" y="-432.5" font-family="Helvetica,sans-Serif" font-size="10.00">Enemy Overworld Sprites</text>
<text text-anchor="middle" x="1164" y="-421.5" font-family="Helvetica,sans-Serif" font-size="10.00">/Pharaoh.h</text>
</a>
</g>
</g>
<!-- Node1&#45;&gt;Node41 -->
<g id="edge70" class="edge">
<title>Node1&#45;&gt;Node41</title>
<path fill="none" stroke="midnightblue" d="M1002.08,-481.48C1030.07,-472.66 1074.52,-458.67 1109.78,-447.57"/>
<polygon fill="midnightblue" stroke="midnightblue" points="1110.97,-450.86 1119.46,-444.52 1108.87,-444.19 1110.97,-450.86"/>
</g>
<!-- Node3 -->
<g id="node3" class="node">
<title>Node3</title>
<g id="a_node3"><a xlink:title=" ">
<polygon fill="none" stroke="#bfbfbf" points="1227.5,-0.5 1227.5,-19.5 1276.5,-19.5 1276.5,-0.5 1227.5,-0.5"/>
<text text-anchor="middle" x="1252" y="-7.5" font-family="Helvetica,sans-Serif" font-size="10.00">string.h</text>
</a>
</g>
</g>
<!-- Node2&#45;&gt;Node3 -->
<g id="edge2" class="edge">
<title>Node2&#45;&gt;Node3</title>
<path fill="none" stroke="midnightblue" d="M799.55,-63.37C875.56,-59.57 1056.3,-48.3 1217.15,-19.86"/>
<polygon fill="midnightblue" stroke="midnightblue" points="1218,-23.26 1227.22,-18.05 1216.76,-16.37 1218,-23.26"/>
</g>
<!-- Node4 -->
<g id="node4" class="node">
<title>Node4</title>
<g id="a_node4"><a xlink:title=" ">
<polygon fill="none" stroke="#bfbfbf" points="1295,-0.5 1295,-19.5 1343,-19.5 1343,-0.5 1295,-0.5"/>
<text text-anchor="middle" x="1319" y="-7.5" font-family="Helvetica,sans-Serif" font-size="10.00">raylib.h</text>
</a>
</g>
</g>
<!-- Node2&#45;&gt;Node4 -->
<g id="edge3" class="edge">
<title>Node2&#45;&gt;Node4</title>
<path fill="none" stroke="midnightblue" d="M799.75,-64.11C884.04,-61.59 1097.74,-52.45 1284.94,-19.87"/>
<polygon fill="midnightblue" stroke="midnightblue" points="1285.73,-23.28 1294.96,-18.09 1284.51,-16.39 1285.73,-23.28"/>
</g>
<!-- Node5 -->
<g id="node5" class="node">
<title>Node5</title>
<g id="a_node5"><a xlink:title=" ">
<polygon fill="none" stroke="#bfbfbf" points="1361,-0.5 1361,-19.5 1421,-19.5 1421,-0.5 1361,-0.5"/>
<text text-anchor="middle" x="1391" y="-7.5" font-family="Helvetica,sans-Serif" font-size="10.00">raymath.h</text>
</a>
</g>
</g>
<!-- Node2&#45;&gt;Node5 -->
<g id="edge4" class="edge">
<title>Node2&#45;&gt;Node5</title>
<path fill="none" stroke="midnightblue" d="M799.75,-64.11C891.28,-61.49 1136.84,-51.96 1350.69,-19.97"/>
<polygon fill="midnightblue" stroke="midnightblue" points="1351.49,-23.39 1360.85,-18.43 1350.44,-16.47 1351.49,-23.39"/>
</g>
<!-- Node6 -->
<g id="node6" class="node">
<title>Node6</title>
<g id="a_node6"><a xlink:title=" ">
<polygon fill="none" stroke="#bfbfbf" points="68,-0.5 68,-19.5 116,-19.5 116,-0.5 68,-0.5"/>
<text text-anchor="middle" x="92" y="-7.5" font-family="Helvetica,sans-Serif" font-size="10.00">stdlib.h</text>
</a>
</g>
</g>
<!-- Node2&#45;&gt;Node6 -->
<g id="edge5" class="edge">
<title>Node2&#45;&gt;Node6</title>
<path fill="none" stroke="midnightblue" d="M726.38,-64.91C629.61,-64.16 359.13,-58.62 126.05,-19.83"/>
<polygon fill="midnightblue" stroke="midnightblue" points="126.47,-16.35 116.03,-18.14 125.31,-23.25 126.47,-16.35"/>
</g>
<!-- Node7 -->
<g id="node7" class="node">
<title>Node7</title>
<g id="a_node7"><a xlink:title=" ">
<polygon fill="none" stroke="#bfbfbf" points="134.5,-0.5 134.5,-19.5 179.5,-19.5 179.5,-0.5 134.5,-0.5"/>
<text text-anchor="middle" x="157" y="-7.5" font-family="Helvetica,sans-Serif" font-size="10.00">cstdlib</text>
</a>
</g>
</g>
<!-- Node2&#45;&gt;Node7 -->
<g id="edge6" class="edge">
<title>Node2&#45;&gt;Node7</title>
<path fill="none" stroke="midnightblue" d="M726.42,-64.61C636.48,-63.12 397.39,-55.97 189.47,-19.7"/>
<polygon fill="midnightblue" stroke="midnightblue" points="190.06,-16.25 179.6,-17.95 188.83,-23.14 190.06,-16.25"/>
</g>
<!-- Node8 -->
<g id="node8" class="node">
<title>Node8</title>
<g id="a_node8"><a xlink:title=" ">
<polygon fill="none" stroke="#bfbfbf" points="198,-0.5 198,-19.5 244,-19.5 244,-0.5 198,-0.5"/>
<text text-anchor="middle" x="221" y="-7.5" font-family="Helvetica,sans-Serif" font-size="10.00">stdio.h</text>
</a>
</g>
</g>
<!-- Node2&#45;&gt;Node8 -->
<g id="edge7" class="edge">
<title>Node2&#45;&gt;Node8</title>
<path fill="none" stroke="midnightblue" d="M726.2,-64.1C643.37,-61.57 435.98,-52.43 254.3,-19.91"/>
<polygon fill="midnightblue" stroke="midnightblue" points="254.77,-16.44 244.3,-18.09 253.51,-23.33 254.77,-16.44"/>
</g>
<!-- Node9 -->
<g id="node9" class="node">
<title>Node9</title>
<g id="a_node9"><a xlink:title=" ">
<polygon fill="none" stroke="#bfbfbf" points="0,-0.5 0,-19.5 50,-19.5 50,-0.5 0,-0.5"/>
<text text-anchor="middle" x="25" y="-7.5" font-family="Helvetica,sans-Serif" font-size="10.00">config.h</text>
</a>
</g>
</g>
<!-- Node2&#45;&gt;Node9 -->
<g id="edge8" class="edge">
<title>Node2&#45;&gt;Node9</title>
<path fill="none" stroke="midnightblue" d="M726.45,-65.16C623.07,-65.1 319.78,-61.26 60.13,-19.85"/>
<polygon fill="midnightblue" stroke="midnightblue" points="60.56,-16.38 50.13,-18.24 59.45,-23.29 60.56,-16.38"/>
</g>
<!-- Node10 -->
<g id="node10" class="node">
<title>Node10</title>
<g id="a_node10"><a xlink:title=" ">
<polygon fill="none" stroke="#bfbfbf" points="262.5,-0.5 262.5,-19.5 321.5,-19.5 321.5,-0.5 262.5,-0.5"/>
<text text-anchor="middle" x="292" y="-7.5" font-family="Helvetica,sans-Serif" font-size="10.00">process.h</text>
</a>
</g>
</g>
<!-- Node2&#45;&gt;Node10 -->
<g id="edge9" class="edge">
<title>Node2&#45;&gt;Node10</title>
<path fill="none" stroke="midnightblue" d="M726.29,-62.79C652.99,-58.03 483.18,-45.28 331.74,-20.12"/>
<polygon fill="midnightblue" stroke="midnightblue" points="332.24,-16.65 321.8,-18.44 331.08,-23.55 332.24,-16.65"/>
</g>
<!-- Node11 -->
<g id="node11" class="node">
<title>Node11</title>
<g id="a_node11"><a xlink:title=" ">
<polygon fill="none" stroke="#bfbfbf" points="339.5,-0.5 339.5,-19.5 380.5,-19.5 380.5,-0.5 339.5,-0.5"/>
<text text-anchor="middle" x="360" y="-7.5" font-family="Helvetica,sans-Serif" font-size="10.00">string</text>
</a>
</g>
</g>
<!-- Node2&#45;&gt;Node11 -->
<g id="edge10" class="edge">
<title>Node2&#45;&gt;Node11</title>
<path fill="none" stroke="midnightblue" d="M726.39,-62.67C660.88,-58.06 519.23,-46.05 390.57,-19.75"/>
<polygon fill="midnightblue" stroke="midnightblue" points="391.04,-16.28 380.54,-17.67 389.62,-23.13 391.04,-16.28"/>
</g>
<!-- Node12 -->
<g id="node12" class="node">
<title>Node12</title>
<g id="a_node12"><a xlink:title=" ">
<polygon fill="none" stroke="#bfbfbf" points="399,-0.5 399,-19.5 437,-19.5 437,-0.5 399,-0.5"/>
<text text-anchor="middle" x="418" y="-7.5" font-family="Helvetica,sans-Serif" font-size="10.00">array</text>
</a>
</g>
</g>
<!-- Node2&#45;&gt;Node12 -->
<g id="edge11" class="edge">
<title>Node2&#45;&gt;Node12</title>
<path fill="none" stroke="midnightblue" d="M726.02,-61.81C668.29,-56.38 553.19,-43.78 447.07,-19.9"/>
<polygon fill="midnightblue" stroke="midnightblue" points="447.69,-16.45 437.16,-17.63 446.13,-23.28 447.69,-16.45"/>
</g>
<!-- Node13 -->
<g id="node13" class="node">
<title>Node13</title>
<g id="a_node13"><a xlink:title=" ">
<polygon fill="none" stroke="#bfbfbf" points="455,-0.5 455,-19.5 497,-19.5 497,-0.5 455,-0.5"/>
<text text-anchor="middle" x="476" y="-7.5" font-family="Helvetica,sans-Serif" font-size="10.00">vector</text>
</a>
</g>
</g>
<!-- Node2&#45;&gt;Node13 -->
<g id="edge12" class="edge">
<title>Node2&#45;&gt;Node13</title>
<path fill="none" stroke="midnightblue" d="M726.12,-59.94C677.87,-53.02 590.55,-39.45 507.11,-20.04"/>
<polygon fill="midnightblue" stroke="midnightblue" points="507.76,-16.59 497.22,-17.7 506.15,-23.41 507.76,-16.59"/>
</g>
<!-- Node14 -->
<g id="node14" class="node">
<title>Node14</title>
<g id="a_node14"><a xlink:title=" ">
<polygon fill="none" stroke="#bfbfbf" points="515,-0.5 515,-19.5 559,-19.5 559,-0.5 515,-0.5"/>
<text text-anchor="middle" x="537" y="-7.5" font-family="Helvetica,sans-Serif" font-size="10.00">cmath</text>
</a>
</g>
</g>
<!-- Node2&#45;&gt;Node14 -->
<g id="edge13" class="edge">
<title>Node2&#45;&gt;Node14</title>
<path fill="none" stroke="midnightblue" d="M726.19,-57.15C688.95,-49.06 629.49,-35.76 569.36,-20.25"/>
<polygon fill="midnightblue" stroke="midnightblue" points="569.87,-16.77 559.31,-17.64 568.11,-23.54 569.87,-16.77"/>
</g>
<!-- Node15 -->
<g id="node15" class="node">
<title>Node15</title>
<g id="a_node15"><a xlink:title=" ">
<polygon fill="none" stroke="#bfbfbf" points="577,-0.5 577,-19.5 629,-19.5 629,-0.5 577,-0.5"/>
<text text-anchor="middle" x="603" y="-7.5" font-family="Helvetica,sans-Serif" font-size="10.00">memory</text>
</a>
</g>
</g>
<!-- Node2&#45;&gt;Node15 -->
<g id="edge14" class="edge">
<title>Node2&#45;&gt;Node15</title>
<path fill="none" stroke="midnightblue" d="M737.65,-56.44C710.73,-47.36 668,-32.94 637.91,-22.78"/>
<polygon fill="midnightblue" stroke="midnightblue" points="638.83,-19.4 628.23,-19.52 636.59,-26.03 638.83,-19.4"/>
</g>
<!-- Node16 -->
<g id="node16" class="node">
<title>Node16</title>
<g id="a_node16"><a xlink:title=" ">
<polygon fill="none" stroke="#bfbfbf" points="647.5,-0.5 647.5,-19.5 688.5,-19.5 688.5,-0.5 647.5,-0.5"/>
<text text-anchor="middle" x="668" y="-7.5" font-family="Helvetica,sans-Serif" font-size="10.00">ctime</text>
</a>
</g>
</g>
<!-- Node2&#45;&gt;Node16 -->
<g id="edge15" class="edge">
<title>Node2&#45;&gt;Node16</title>
<path fill="none" stroke="midnightblue" d="M747.74,-56.32C732.78,-47.82 709.75,-34.73 692.27,-24.8"/>
<polygon fill="midnightblue" stroke="midnightblue" points="693.65,-21.55 683.23,-19.65 690.19,-27.64 693.65,-21.55"/>
</g>
<!-- Node17 -->
<g id="node17" class="node">
<title>Node17</title>
<g id="a_node17"><a xlink:title=" ">
<polygon fill="none" stroke="#bfbfbf" points="707,-0.5 707,-19.5 753,-19.5 753,-0.5 707,-0.5"/>
<text text-anchor="middle" x="730" y="-7.5" font-family="Helvetica,sans-Serif" font-size="10.00">chrono</text>
</a>
</g>
</g>
<!-- Node2&#45;&gt;Node17 -->
<g id="edge16" class="edge">
<title>Node2&#45;&gt;Node17</title>
<path fill="none" stroke="midnightblue" d="M757.55,-56.08C752.99,-48.61 746.33,-37.72 740.71,-28.52"/>
<polygon fill="midnightblue" stroke="midnightblue" points="743.55,-26.46 735.35,-19.75 737.58,-30.11 743.55,-26.46"/>
</g>
<!-- Node18 -->
<g id="node18" class="node">
<title>Node18</title>
<g id="a_node18"><a xlink:title=" ">
<polygon fill="none" stroke="#bfbfbf" points="771,-0.5 771,-19.5 823,-19.5 823,-0.5 771,-0.5"/>
<text text-anchor="middle" x="797" y="-7.5" font-family="Helvetica,sans-Serif" font-size="10.00">sstream</text>
</a>
</g>
</g>
<!-- Node2&#45;&gt;Node18 -->
<g id="edge17" class="edge">
<title>Node2&#45;&gt;Node18</title>
<path fill="none" stroke="midnightblue" d="M768.61,-56.08C773.37,-48.53 780.32,-37.49 786.15,-28.23"/>
<polygon fill="midnightblue" stroke="midnightblue" points="789.12,-30.08 791.49,-19.75 783.2,-26.35 789.12,-30.08"/>
</g>
<!-- Node19 -->
<g id="node19" class="node">
<title>Node19</title>
<g id="a_node19"><a xlink:title=" ">
<polygon fill="none" stroke="#bfbfbf" points="841.5,-0.5 841.5,-19.5 890.5,-19.5 890.5,-0.5 841.5,-0.5"/>
<text text-anchor="middle" x="866" y="-7.5" font-family="Helvetica,sans-Serif" font-size="10.00">fstream</text>
</a>
</g>
</g>
<!-- Node2&#45;&gt;Node19 -->
<g id="edge18" class="edge">
<title>Node2&#45;&gt;Node19</title>
<path fill="none" stroke="midnightblue" d="M779.55,-56.32C795.99,-47.7 821.43,-34.36 840.47,-24.39"/>
<polygon fill="midnightblue" stroke="midnightblue" points="842.26,-27.4 849.49,-19.65 839.01,-21.2 842.26,-27.4"/>
</g>
<!-- Node20 -->
<g id="node20" class="node">
<title>Node20</title>
<g id="a_node20"><a xlink:title=" ">
<polygon fill="none" stroke="#bfbfbf" points="909,-0.5 909,-19.5 963,-19.5 963,-0.5 909,-0.5"/>
<text text-anchor="middle" x="936" y="-7.5" font-family="Helvetica,sans-Serif" font-size="10.00">iostream</text>
</a>
</g>
</g>
<!-- Node2&#45;&gt;Node20 -->
<g id="edge19" class="edge">
<title>Node2&#45;&gt;Node20</title>
<path fill="none" stroke="midnightblue" d="M790.41,-56.44C819.77,-47.28 866.52,-32.69 899.1,-22.52"/>
<polygon fill="midnightblue" stroke="midnightblue" points="900.21,-25.84 908.72,-19.52 898.13,-19.16 900.21,-25.84"/>
</g>
<!-- Node21 -->
<g id="node21" class="node">
<title>Node21</title>
<g id="a_node21"><a xlink:title=" ">
<polygon fill="none" stroke="#bfbfbf" points="981,-0.5 981,-19.5 1031,-19.5 1031,-0.5 981,-0.5"/>
<text text-anchor="middle" x="1006" y="-7.5" font-family="Helvetica,sans-Serif" font-size="10.00">iomanip</text>
</a>
</g>
</g>
<!-- Node2&#45;&gt;Node21 -->
<g id="edge20" class="edge">
<title>Node2&#45;&gt;Node21</title>
<path fill="none" stroke="midnightblue" d="M799.74,-57.63C839.53,-49.53 905.11,-35.84 970.69,-20.23"/>
<polygon fill="midnightblue" stroke="midnightblue" points="971.87,-23.55 980.78,-17.82 970.24,-16.74 971.87,-23.55"/>
</g>
<!-- Node22 -->
<g id="node22" class="node">
<title>Node22</title>
<g id="a_node22"><a xlink:title=" ">
<polygon fill="none" stroke="#bfbfbf" points="1049,-0.5 1049,-19.5 1093,-19.5 1093,-0.5 1049,-0.5"/>
<text text-anchor="middle" x="1071" y="-7.5" font-family="Helvetica,sans-Serif" font-size="10.00">thread</text>
</a>
</g>
</g>
<!-- Node2&#45;&gt;Node22 -->
<g id="edge21" class="edge">
<title>Node2&#45;&gt;Node22</title>
<path fill="none" stroke="midnightblue" d="M799.57,-60.5C850.96,-53.86 947.59,-40.24 1038.79,-20.05"/>
<polygon fill="midnightblue" stroke="midnightblue" points="1039.74,-23.42 1048.73,-17.82 1038.21,-16.59 1039.74,-23.42"/>
</g>
<!-- Node23 -->
<g id="node23" class="node">
<title>Node23</title>
<g id="a_node23"><a xlink:title=" ">
<polygon fill="none" stroke="#bfbfbf" points="1111,-0.5 1111,-19.5 1209,-19.5 1209,-0.5 1111,-0.5"/>
<text text-anchor="middle" x="1160" y="-7.5" font-family="Helvetica,sans-Serif" font-size="10.00">nlohmann/json.hpp</text>
</a>
</g>
</g>
<!-- Node2&#45;&gt;Node23 -->
<g id="edge22" class="edge">
<title>Node2&#45;&gt;Node23</title>
<path fill="none" stroke="midnightblue" d="M799.66,-60.4C860.12,-52.76 984.79,-36.76 1100.84,-20.14"/>
<polygon fill="midnightblue" stroke="midnightblue" points="1101.56,-23.57 1110.96,-18.69 1100.57,-16.64 1101.56,-23.57"/>
</g>
<!-- Node2&#45;&gt;Node24 -->
<g id="edge23" class="edge">
<title>Node2&#45;&gt;Node24</title>
<path fill="none" stroke="midnightblue" d="M799.69,-63.39C899.74,-59.05 1184.75,-45.64 1421,-20 1423.66,-19.71 1426.38,-19.39 1429.13,-19.05"/>
<polygon fill="midnightblue" stroke="midnightblue" points="1429.73,-22.5 1439.19,-17.73 1428.82,-15.56 1429.73,-22.5"/>
</g>
<!-- Node24&#45;&gt;Node2 -->
<g id="edge24" class="edge">
<title>Node24&#45;&gt;Node2</title>
<path fill="none" stroke="midnightblue" d="M1443.13,-19.53C1441.74,-19.7 1440.36,-19.85 1439,-20 1203.71,-45.54 920.04,-58.95 809.82,-63.34"/>
<polygon fill="midnightblue" stroke="midnightblue" points="809.55,-59.85 799.7,-63.74 809.83,-66.84 809.55,-59.85"/>
</g>
<!-- Node25&#45;&gt;Node2 -->
<g id="edge27" class="edge">
<title>Node25&#45;&gt;Node2</title>
<path fill="none" stroke="midnightblue" d="M1222.7,-113.88C1218.08,-113.21 1213.45,-112.57 1209,-112 1064.02,-93.45 891.71,-77.9 810.21,-70.93"/>
<polygon fill="midnightblue" stroke="midnightblue" points="810.05,-67.4 799.79,-70.04 809.46,-74.38 810.05,-67.4"/>
</g>
<!-- Node26&#45;&gt;Node2 -->
<g id="edge46" class="edge">
<title>Node26&#45;&gt;Node2</title>
<path fill="none" stroke="midnightblue" d="M622.65,-285.79C629.55,-276.17 639.88,-259.92 644,-244 652.46,-211.29 627.68,-198.61 642,-168 661.25,-126.85 706.43,-96.59 735.8,-80.41"/>
<polygon fill="midnightblue" stroke="midnightblue" points="737.55,-83.44 744.73,-75.65 734.26,-77.26 737.55,-83.44"/>
</g>
<!-- Node26&#45;&gt;Node9 -->
<g id="edge56" class="edge">
<title>Node26&#45;&gt;Node9</title>
<path fill="none" stroke="midnightblue" d="M580.39,-293.18C468.15,-288.75 126.8,-273 87,-244 61.58,-225.48 59,-210.46 59,-179 59,-179 59,-179 59,-121 59,-87.16 44.13,-49.97 34.06,-28.66"/>
<polygon fill="midnightblue" stroke="midnightblue" points="37.14,-26.99 29.59,-19.56 30.86,-30.08 37.14,-26.99"/>
</g>
<!-- Node27 -->
<g id="node27" class="node">
<title>Node27</title>
<g id="a_node27"><a xlink:href="_combat_2_mumy_8h.html" target="_top" xlink:title=" ">
<polygon fill="none" stroke="black" points="96,-224.5 96,-243.5 194,-243.5 194,-224.5 96,-224.5"/>
<text text-anchor="middle" x="145" y="-231.5" font-family="Helvetica,sans-Serif" font-size="10.00">../Combat/Mumy.h</text>
</a>
</g>
</g>
<!-- Node26&#45;&gt;Node27 -->
<g id="edge29" class="edge">
<title>Node26&#45;&gt;Node27</title>
<path fill="none" stroke="midnightblue" d="M580.32,-290.53C510.3,-282.65 349.77,-264.18 204.05,-244.11"/>
<polygon fill="midnightblue" stroke="midnightblue" points="204.42,-240.63 194.03,-242.72 203.46,-247.56 204.42,-240.63"/>
</g>
<!-- Node26&#45;&gt;Node30 -->
<g id="edge53" class="edge">
<title>Node26&#45;&gt;Node30</title>
<path fill="none" stroke="midnightblue" d="M587.95,-285.86C567.92,-278.18 542.11,-264.86 528,-244 506.97,-212.92 506.89,-167.01 508.84,-141.61"/>
<polygon fill="midnightblue" stroke="midnightblue" points="512.34,-141.8 509.82,-131.51 505.37,-141.13 512.34,-141.8"/>
</g>
<!-- Node31 -->
<g id="node31" class="node">
<title>Node31</title>
<g id="a_node31"><a xlink:href="_player_8h.html" target="_top" xlink:title=" ">
<polygon fill="none" stroke="black" points="537,-224.5 537,-243.5 635,-243.5 635,-224.5 537,-224.5"/>
<text text-anchor="middle" x="586" y="-231.5" font-family="Helvetica,sans-Serif" font-size="10.00">../Combat/Player.h</text>
</a>
</g>
</g>
<!-- Node26&#45;&gt;Node31 -->
<g id="edge36" class="edge">
<title>Node26&#45;&gt;Node31</title>
<path fill="none" stroke="midnightblue" d="M611.7,-285.98C607.34,-277.32 600.44,-263.65 594.9,-252.65"/>
<polygon fill="midnightblue" stroke="midnightblue" points="597.92,-250.86 590.29,-243.51 591.67,-254.01 597.92,-250.86"/>
</g>
<!-- Node32 -->
<g id="node32" class="node">
<title>Node32</title>
<g id="a_node32"><a xlink:href="_combat_2_shadow_8h.html" target="_top" xlink:title=" ">
<polygon fill="none" stroke="black" points="212.5,-224.5 212.5,-243.5 317.5,-243.5 317.5,-224.5 212.5,-224.5"/>
<text text-anchor="middle" x="265" y="-231.5" font-family="Helvetica,sans-Serif" font-size="10.00">../Combat/Shadow.h</text>
</a>
</g>
</g>
<!-- Node26&#45;&gt;Node32 -->
<g id="edge40" class="edge">
<title>Node26&#45;&gt;Node32</title>
<path fill="none" stroke="midnightblue" d="M580.41,-288.47C520.49,-278.31 398.81,-257.68 325.34,-245.23"/>
<polygon fill="midnightblue" stroke="midnightblue" points="325.75,-241.75 315.3,-243.53 324.58,-248.65 325.75,-241.75"/>
</g>
<!-- Node33 -->
<g id="node33" class="node">
<title>Node33</title>
<g id="a_node33"><a xlink:href="_combat_2_pharaoh_8h.html" target="_top" xlink:title=" ">
<polygon fill="none" stroke="black" points="335.5,-224.5 335.5,-243.5 442.5,-243.5 442.5,-224.5 335.5,-224.5"/>
<text text-anchor="middle" x="389" y="-231.5" font-family="Helvetica,sans-Serif" font-size="10.00">../Combat/Pharaoh.h</text>
</a>
</g>
</g>
<!-- Node26&#45;&gt;Node33 -->
<g id="edge43" class="edge">
<title>Node26&#45;&gt;Node33</title>
<path fill="none" stroke="midnightblue" d="M583.48,-285.98C543.44,-275.48 475.36,-257.64 431.3,-246.09"/>
<polygon fill="midnightblue" stroke="midnightblue" points="432.02,-242.66 421.46,-243.51 430.25,-249.43 432.02,-242.66"/>
</g>
<!-- Node26&#45;&gt;Node34 -->
<g id="edge47" class="edge">
<title>Node26&#45;&gt;Node34</title>
<path fill="none" stroke="midnightblue" d="M646.09,-285.98C682.89,-275.55 745.31,-257.86 786.09,-246.31"/>
<polygon fill="midnightblue" stroke="midnightblue" points="787.3,-249.6 795.97,-243.51 785.39,-242.87 787.3,-249.6"/>
</g>
<!-- Node26&#45;&gt;Node35 -->
<g id="edge51" class="edge">
<title>Node26&#45;&gt;Node35</title>
<path fill="none" stroke="midnightblue" d="M634.63,-285.98C656.81,-275.82 694.05,-258.78 719.3,-247.22"/>
<polygon fill="midnightblue" stroke="midnightblue" points="721.02,-250.28 728.66,-242.94 718.11,-243.92 721.02,-250.28"/>
</g>
<!-- Node36 -->
<g id="node36" class="node">
<title>Node36</title>
<g id="a_node36"><a xlink:href="_endscreen_8h.html" target="_top" xlink:title=" ">
<polygon fill="none" stroke="black" points="651.5,-168.5 651.5,-187.5 756.5,-187.5 756.5,-168.5 651.5,-168.5"/>
<text text-anchor="middle" x="704" y="-175.5" font-family="Helvetica,sans-Serif" font-size="10.00">../Level/Endscreen.h</text>
</a>
</g>
</g>
<!-- Node26&#45;&gt;Node36 -->
<g id="edge54" class="edge">
<title>Node26&#45;&gt;Node36</title>
<path fill="none" stroke="midnightblue" d="M629.78,-285.98C643.37,-276.99 663.93,-261.69 677,-244 687.43,-229.89 694.66,-211.15 698.99,-197.42"/>
<polygon fill="midnightblue" stroke="midnightblue" points="702.39,-198.25 701.85,-187.67 695.68,-196.28 702.39,-198.25"/>
</g>
<!-- Node27&#45;&gt;Node2 -->
<g id="edge30" class="edge">
<title>Node27&#45;&gt;Node2</title>
<path fill="none" stroke="midnightblue" d="M145.08,-224.14C145.68,-210.28 148.89,-183.48 164,-168 221.35,-109.27 259.67,-128.87 340,-112 474.88,-83.67 637.9,-72.73 716.35,-68.88"/>
<polygon fill="midnightblue" stroke="midnightblue" points="716.58,-72.38 726.4,-68.41 716.25,-65.38 716.58,-72.38"/>
</g>
<!-- Node28 -->
<g id="node28" class="node">
<title>Node28</title>
<g id="a_node28"><a xlink:title=" ">
<polygon fill="none" stroke="#bfbfbf" points="173,-168.5 173,-187.5 219,-187.5 219,-168.5 173,-168.5"/>
<text text-anchor="middle" x="196" y="-175.5" font-family="Helvetica,sans-Serif" font-size="10.00">cstring</text>
</a>
</g>
</g>
<!-- Node27&#45;&gt;Node28 -->
<g id="edge31" class="edge">
<title>Node27&#45;&gt;Node28</title>
<path fill="none" stroke="midnightblue" d="M153.42,-224.08C160.85,-216.22 171.85,-204.57 180.81,-195.08"/>
<polygon fill="midnightblue" stroke="midnightblue" points="183.41,-197.42 187.74,-187.75 178.32,-192.62 183.41,-197.42"/>
</g>
<!-- Node29 -->
<g id="node29" class="node">
<title>Node29</title>
<g id="a_node29"><a xlink:href="_game_character_8h.html" target="_top" xlink:title=" ">
<polygon fill="none" stroke="black" points="311.5,-168.5 311.5,-187.5 404.5,-187.5 404.5,-168.5 311.5,-168.5"/>
<text text-anchor="middle" x="358" y="-175.5" font-family="Helvetica,sans-Serif" font-size="10.00">GameCharacter.h</text>
</a>
</g>
</g>
<!-- Node27&#45;&gt;Node29 -->
<g id="edge32" class="edge">
<title>Node27&#45;&gt;Node29</title>
<path fill="none" stroke="midnightblue" d="M178.75,-224.44C215.52,-215.12 274.45,-200.18 314.62,-190"/>
<polygon fill="midnightblue" stroke="midnightblue" points="315.57,-193.37 324.41,-187.52 313.85,-186.58 315.57,-193.37"/>
</g>
<!-- Node29&#45;&gt;Node2 -->
<g id="edge33" class="edge">
<title>Node29&#45;&gt;Node2</title>
<path fill="none" stroke="midnightblue" d="M363.14,-168.49C372.35,-154.1 393.11,-125.27 419,-112 469.95,-85.89 634.95,-73.74 716.5,-69.22"/>
<polygon fill="midnightblue" stroke="midnightblue" points="716.7,-72.71 726.49,-68.68 716.32,-65.72 716.7,-72.71"/>
</g>
<!-- Node29&#45;&gt;Node30 -->
<g id="edge34" class="edge">
<title>Node29&#45;&gt;Node30</title>
<path fill="none" stroke="midnightblue" d="M382.24,-168.44C407.87,-159.4 448.49,-145.06 477.24,-134.92"/>
<polygon fill="midnightblue" stroke="midnightblue" points="478.61,-138.15 486.87,-131.52 476.28,-131.54 478.61,-138.15"/>
</g>
<!-- Node30&#45;&gt;Node2 -->
<g id="edge35" class="edge">
<title>Node30&#45;&gt;Node2</title>
<path fill="none" stroke="midnightblue" d="M550.93,-112.44C595.8,-102.83 668.55,-87.24 716.09,-77.05"/>
<polygon fill="midnightblue" stroke="midnightblue" points="717.08,-80.42 726.13,-74.9 715.61,-73.57 717.08,-80.42"/>
</g>
<!-- Node31&#45;&gt;Node2 -->
<g id="edge37" class="edge">
<title>Node31&#45;&gt;Node2</title>
<path fill="none" stroke="midnightblue" d="M584.87,-224.37C582.51,-202.52 579.53,-144.45 609,-112 635.98,-82.28 681.38,-71.76 715.91,-68.24"/>
<polygon fill="midnightblue" stroke="midnightblue" points="716.58,-71.7 726.25,-67.36 715.99,-64.73 716.58,-71.7"/>
</g>
<!-- Node31&#45;&gt;Node29 -->
<g id="edge38" class="edge">
<title>Node31&#45;&gt;Node29</title>
<path fill="none" stroke="midnightblue" d="M549.87,-224.44C510.35,-215.08 446.9,-200.06 403.89,-189.87"/>
<polygon fill="midnightblue" stroke="midnightblue" points="404.5,-186.42 393.96,-187.52 402.88,-193.23 404.5,-186.42"/>
</g>
<!-- Node31&#45;&gt;Node30 -->
<g id="edge39" class="edge">
<title>Node31&#45;&gt;Node30</title>
<path fill="none" stroke="midnightblue" d="M580.11,-224.37C567.74,-206.22 538.82,-163.8 522.58,-139.99"/>
<polygon fill="midnightblue" stroke="midnightblue" points="525.38,-137.88 516.86,-131.59 519.6,-141.83 525.38,-137.88"/>
</g>
<!-- Node32&#45;&gt;Node2 -->
<g id="edge41" class="edge">
<title>Node32&#45;&gt;Node2</title>
<path fill="none" stroke="midnightblue" d="M268.4,-224.14C273.88,-210.75 285.71,-185.12 302,-168 333.96,-134.42 346.35,-127.61 390,-112 502.1,-71.92 643.96,-66.12 716.16,-66.09"/>
<polygon fill="midnightblue" stroke="midnightblue" points="716.28,-69.59 726.3,-66.12 716.31,-62.59 716.28,-69.59"/>
</g>
<!-- Node32&#45;&gt;Node29 -->
<g id="edge42" class="edge">
<title>Node32&#45;&gt;Node29</title>
<path fill="none" stroke="midnightblue" d="M279.94,-224.32C294.59,-215.82 317.13,-202.73 334.24,-192.8"/>
<polygon fill="midnightblue" stroke="midnightblue" points="336.2,-195.7 343.1,-187.65 332.69,-189.65 336.2,-195.7"/>
</g>
<!-- Node33&#45;&gt;Node2 -->
<g id="edge44" class="edge">
<title>Node33&#45;&gt;Node2</title>
<path fill="none" stroke="midnightblue" d="M393.74,-224.21C408.45,-196.99 452.68,-115.63 458,-112 499.1,-83.91 641.48,-72.88 716.28,-68.95"/>
<polygon fill="midnightblue" stroke="midnightblue" points="716.55,-72.44 726.37,-68.45 716.2,-65.45 716.55,-72.44"/>
</g>
<!-- Node33&#45;&gt;Node29 -->
<g id="edge45" class="edge">
<title>Node33&#45;&gt;Node29</title>
<path fill="none" stroke="midnightblue" d="M383.88,-224.08C379.59,-216.61 373.34,-205.72 368.06,-196.52"/>
<polygon fill="midnightblue" stroke="midnightblue" points="371.04,-194.68 363.02,-187.75 364.97,-198.17 371.04,-194.68"/>
</g>
<!-- Node34&#45;&gt;Node2 -->
<g id="edge50" class="edge">
<title>Node34&#45;&gt;Node2</title>
<path fill="none" stroke="midnightblue" d="M823.2,-224.41C816.65,-204.48 799.61,-153.62 783,-112 779.39,-102.96 775.03,-93.05 771.31,-84.84"/>
<polygon fill="midnightblue" stroke="midnightblue" points="774.39,-83.17 767.03,-75.54 768.03,-86.09 774.39,-83.17"/>
</g>
<!-- Node34&#45;&gt;Node24 -->
<g id="edge49" class="edge">
<title>Node34&#45;&gt;Node24</title>
<path fill="none" stroke="midnightblue" d="M851.62,-224.43C954.33,-190.09 1336.39,-62.36 1454.79,-22.77"/>
<polygon fill="midnightblue" stroke="midnightblue" points="1456.08,-26.03 1464.45,-19.54 1453.86,-19.39 1456.08,-26.03"/>
</g>
<!-- Node34&#45;&gt;Node30 -->
<g id="edge48" class="edge">
<title>Node34&#45;&gt;Node30</title>
<path fill="none" stroke="midnightblue" d="M820.49,-224.15C811.04,-209.81 790.31,-181.71 765,-168 702.1,-133.95 618.83,-124.87 565.08,-122.86"/>
<polygon fill="midnightblue" stroke="midnightblue" points="565.17,-119.36 555.07,-122.55 564.96,-126.35 565.17,-119.36"/>
</g>
<!-- Node35&#45;&gt;Node2 -->
<g id="edge52" class="edge">
<title>Node35&#45;&gt;Node2</title>
<path fill="none" stroke="midnightblue" d="M750.88,-224.37C755.56,-215.55 762.31,-201.3 765,-188 772.2,-152.43 768.77,-109.77 765.78,-85.79"/>
<polygon fill="midnightblue" stroke="midnightblue" points="769.22,-85.06 764.4,-75.62 762.28,-86.01 769.22,-85.06"/>
</g>
<!-- Node36&#45;&gt;Node2 -->
<g id="edge55" class="edge">
<title>Node36&#45;&gt;Node2</title>
<path fill="none" stroke="midnightblue" d="M708.63,-168.37C718.28,-150.38 740.71,-108.55 753.55,-84.63"/>
<polygon fill="midnightblue" stroke="midnightblue" points="756.75,-86.06 758.39,-75.59 750.58,-82.75 756.75,-86.06"/>
</g>
<!-- Node37&#45;&gt;Node2 -->
<g id="edge59" class="edge">
<title>Node37&#45;&gt;Node2</title>
<path fill="none" stroke="midnightblue" d="M861.71,-419.8C881.29,-393.52 937,-311.98 937,-235 937,-235 937,-235 937,-177 937,-116.69 861.39,-88.09 809.86,-75.61"/>
<polygon fill="midnightblue" stroke="midnightblue" points="810.43,-72.15 799.9,-73.32 808.86,-78.97 810.43,-72.15"/>
</g>
<!-- Node37&#45;&gt;Node34 -->
<g id="edge60" class="edge">
<title>Node37&#45;&gt;Node34</title>
<path fill="none" stroke="midnightblue" d="M840.1,-419.88C826.78,-411.22 808.14,-396.51 800,-378 781.38,-335.62 802.8,-280.53 816.44,-252.73"/>
<polygon fill="midnightblue" stroke="midnightblue" points="819.57,-254.28 821.02,-243.79 813.34,-251.09 819.57,-254.28"/>
</g>
<!-- Node38 -->
<g id="node38" class="node">
<title>Node38</title>
<g id="a_node38"><a xlink:href="_collision_8h.html" target="_top" xlink:title=" ">
<polygon fill="none" stroke="black" points="809,-353 809,-372 871,-372 871,-353 809,-353"/>
<text text-anchor="middle" x="840" y="-360" font-family="Helvetica,sans-Serif" font-size="10.00">Collision.h</text>
</a>
</g>
</g>
<!-- Node37&#45;&gt;Node38 -->
<g id="edge61" class="edge">
<title>Node37&#45;&gt;Node38</title>
<path fill="none" stroke="midnightblue" d="M852.98,-419.73C850.75,-410.09 847.11,-394.3 844.25,-381.91"/>
<polygon fill="midnightblue" stroke="midnightblue" points="847.65,-381.08 841.99,-372.13 840.83,-382.66 847.65,-381.08"/>
</g>
<!-- Node38&#45;&gt;Node2 -->
<g id="edge62" class="edge">
<title>Node38&#45;&gt;Node2</title>
<path fill="none" stroke="midnightblue" d="M846.18,-352.77C860.83,-330.95 895.33,-272.34 880,-224 860.92,-163.84 807.97,-108.36 780.32,-82.42"/>
<polygon fill="midnightblue" stroke="midnightblue" points="782.66,-79.81 772.93,-75.62 777.92,-84.96 782.66,-79.81"/>
</g>
<!-- Node38&#45;&gt;Node26 -->
<g id="edge63" class="edge">
<title>Node38&#45;&gt;Node26</title>
<path fill="none" stroke="midnightblue" d="M810.25,-352.87C770.4,-341.3 699.57,-320.75 655.34,-307.91"/>
<polygon fill="midnightblue" stroke="midnightblue" points="656.09,-304.49 645.51,-305.06 654.14,-311.21 656.09,-304.49"/>
</g>
<!-- Node38&#45;&gt;Node34 -->
<g id="edge64" class="edge">
<title>Node38&#45;&gt;Node34</title>
<path fill="none" stroke="midnightblue" d="M839.04,-352.81C836.79,-332.49 831.15,-281.55 828.08,-253.78"/>
<polygon fill="midnightblue" stroke="midnightblue" points="831.55,-253.31 826.97,-243.76 824.59,-254.08 831.55,-253.31"/>
</g>
<!-- Node39&#45;&gt;Node2 -->
<g id="edge67" class="edge">
<title>Node39&#45;&gt;Node2</title>
<path fill="none" stroke="midnightblue" d="M1064.49,-280.46C1059.98,-245.9 1043.37,-156.33 989,-112 962.09,-90.06 867.77,-77.18 809.83,-71.17"/>
<polygon fill="midnightblue" stroke="midnightblue" points="810.11,-67.68 799.81,-70.16 809.4,-74.64 810.11,-67.68"/>
</g>
<!-- Node40&#45;&gt;Node2 -->
<g id="edge69" class="edge">
<title>Node40&#45;&gt;Node2</title>
<path fill="none" stroke="midnightblue" d="M1116.99,-347.25C1124.74,-337.75 1133.86,-324.55 1138,-311 1142.02,-297.82 1142.33,-293.08 1138,-280 1108.74,-191.65 1092.12,-161.01 1013,-112 979.71,-91.38 872.27,-77.71 809.6,-71.27"/>
<polygon fill="midnightblue" stroke="midnightblue" points="809.87,-67.78 799.57,-70.27 809.17,-74.75 809.87,-67.78"/>
</g>
<!-- Node41&#45;&gt;Node2 -->
<g id="edge71" class="edge">
<title>Node41&#45;&gt;Node2</title>
<path fill="none" stroke="midnightblue" d="M1169.54,-414.49C1178.46,-390.66 1195,-340.52 1195,-296.5 1195,-296.5 1195,-296.5 1195,-177 1195,-98.2 921.64,-75.16 809.82,-69.03"/>
<polygon fill="midnightblue" stroke="midnightblue" points="810,-65.54 799.83,-68.51 809.63,-72.53 810,-65.54"/>
</g>
</g>
</svg>
