<?xml version="1.0" encoding="UTF-8" standalone="no"?>
<!DOCTYPE svg PUBLIC "-//W3C//DTD SVG 1.1//EN"
 "http://www.w3.org/Graphics/SVG/1.1/DTD/svg11.dtd">
<!-- Generated by graphviz version 3.0.0 (20220226.1711)
 -->
<!-- Title: main.cpp Pages: 1 -->
<svg width="1548pt" height="453pt"
 viewBox="0.00 0.00 1547.50 453.00" xmlns="http://www.w3.org/2000/svg" xmlns:xlink="http://www.w3.org/1999/xlink">
<g id="graph0" class="graph" transform="scale(1 1) rotate(0) translate(4 449)">
<title>main.cpp</title>
<!-- Node1 -->
<g id="node1" class="node">
<title>Node1</title>
<g id="a_node1"><a xlink:title=" ">
<polygon fill="#bfbfbf" stroke="black" points="992,-425.5 992,-444.5 1048,-444.5 1048,-425.5 992,-425.5"/>
<text text-anchor="middle" x="1020" y="-432.5" font-family="Helvetica,sans-Serif" font-size="10.00">main.cpp</text>
</a>
</g>
</g>
<!-- Node2 -->
<g id="node2" class="node">
<title>Node2</title>
<g id="a_node2"><a xlink:href="_i_n_c_l_u_d_e_s_8h.html" target="_top" xlink:title=" ">
<polygon fill="none" stroke="black" points="720.5,-56.5 720.5,-75.5 793.5,-75.5 793.5,-56.5 720.5,-56.5"/>
<text text-anchor="middle" x="757" y="-63.5" font-family="Helvetica,sans-Serif" font-size="10.00">INCLUDES.h</text>
</a>
</g>
</g>
<!-- Node1&#45;&gt;Node2 -->
<g id="edge1" class="edge">
<title>Node1&#45;&gt;Node2</title>
<path fill="none" stroke="midnightblue" d="M991.58,-433.23C925.68,-429.79 768,-411.28 768,-313 768,-313 768,-313 768,-193.5 768,-155.06 762.9,-110.29 759.64,-85.65"/>
<polygon fill="midnightblue" stroke="midnightblue" points="763.08,-85 758.26,-75.57 756.15,-85.95 763.08,-85"/>
</g>
<!-- Node24 -->
<g id="node24" class="node">
<title>Node24</title>
<g id="a_node24"><a xlink:href="_game_audio_8h.html" target="_top" xlink:title=" ">
<polygon fill="none" stroke="black" points="1438.5,-0.5 1438.5,-19.5 1539.5,-19.5 1539.5,-0.5 1438.5,-0.5"/>
<text text-anchor="middle" x="1489" y="-7.5" font-family="Helvetica,sans-Serif" font-size="10.00">Level/GameAudio.h</text>
</a>
</g>
</g>
<!-- Node1&#45;&gt;Node24 -->
<g id="edge25" class="edge">
<title>Node1&#45;&gt;Node24</title>
<path fill="none" stroke="midnightblue" d="M1048.02,-434.34C1131.73,-434.84 1378.15,-432.52 1443,-389 1474.87,-367.61 1484,-351.38 1484,-313 1484,-313 1484,-313 1484,-126.5 1484,-92.33 1486.21,-52.53 1487.69,-29.7"/>
<polygon fill="midnightblue" stroke="midnightblue" points="1491.19,-29.9 1488.37,-19.69 1484.2,-29.43 1491.19,-29.9"/>
</g>
<!-- Node25 -->
<g id="node25" class="node">
<title>Node25</title>
<g id="a_node25"><a xlink:href="_inventory_8h.html" target="_top" xlink:title=" ">
<polygon fill="none" stroke="black" points="1349,-118 1349,-137 1437,-137 1437,-118 1349,-118"/>
<text text-anchor="middle" x="1393" y="-125" font-family="Helvetica,sans-Serif" font-size="10.00">Level/Inventory.h</text>
</a>
</g>
</g>
<!-- Node1&#45;&gt;Node25 -->
<g id="edge26" class="edge">
<title>Node1&#45;&gt;Node25</title>
<path fill="none" stroke="midnightblue" d="M1048.23,-432.66C1134.61,-428.3 1391.14,-413.39 1419,-389 1445.2,-366.07 1438,-347.82 1438,-313 1438,-313 1438,-313 1438,-255 1438,-214 1416.76,-169.63 1403.47,-145.87"/>
<polygon fill="midnightblue" stroke="midnightblue" points="1406.38,-143.92 1398.34,-137.02 1400.32,-147.43 1406.38,-143.92"/>
</g>
<!-- Node26 -->
<g id="node26" class="node">
<title>Node26</title>
<g id="a_node26"><a xlink:href="_level_8h.html" target="_top" xlink:title=" ">
<polygon fill="none" stroke="black" points="403.5,-302.5 403.5,-321.5 474.5,-321.5 474.5,-302.5 403.5,-302.5"/>
<text text-anchor="middle" x="439" y="-309.5" font-family="Helvetica,sans-Serif" font-size="10.00">Level/Level.h</text>
</a>
</g>
</g>
<!-- Node1&#45;&gt;Node26 -->
<g id="edge28" class="edge">
<title>Node1&#45;&gt;Node26</title>
<path fill="none" stroke="midnightblue" d="M991.72,-430.97C937.75,-424.93 816.5,-410.15 716,-389 628.67,-370.63 528.06,-340.8 475.43,-324.51"/>
<polygon fill="midnightblue" stroke="midnightblue" points="476.45,-321.17 465.86,-321.54 474.37,-327.85 476.45,-321.17"/>
</g>
<!-- Node30 -->
<g id="node30" class="node">
<title>Node30</title>
<g id="a_node30"><a xlink:href="_sprite_8h.html" target="_top" xlink:title=" ">
<polygon fill="none" stroke="black" points="612,-118 612,-137 700,-137 700,-118 612,-118"/>
<text text-anchor="middle" x="656" y="-125" font-family="Helvetica,sans-Serif" font-size="10.00">../Sprite/Sprite.h</text>
</a>
</g>
</g>
<!-- Node1&#45;&gt;Node30 -->
<g id="edge78" class="edge">
<title>Node1&#45;&gt;Node30</title>
<path fill="none" stroke="midnightblue" d="M991.97,-432.91C931,-429.98 789.03,-419.92 754,-389 704.24,-345.08 734.69,-308 711,-246 697.13,-209.69 676.97,-168.94 665.3,-146.24"/>
<polygon fill="midnightblue" stroke="midnightblue" points="668.3,-144.42 660.59,-137.15 662.08,-147.64 668.3,-144.42"/>
</g>
<!-- Node34 -->
<g id="node34" class="node">
<title>Node34</title>
<g id="a_node34"><a xlink:href="_nemo_8h.html" target="_top" xlink:title=" ">
<polygon fill="none" stroke="black" points="796,-246.5 796,-265.5 886,-265.5 886,-246.5 796,-246.5"/>
<text text-anchor="middle" x="841" y="-253.5" font-family="Helvetica,sans-Serif" font-size="10.00">../Player/Nemo.h</text>
</a>
</g>
</g>
<!-- Node1&#45;&gt;Node34 -->
<g id="edge71" class="edge">
<title>Node1&#45;&gt;Node34</title>
<path fill="none" stroke="midnightblue" d="M991.84,-431.33C944.97,-426.25 854.2,-413.43 835,-389 809.1,-356.04 823.23,-302.87 833.44,-275.14"/>
<polygon fill="midnightblue" stroke="midnightblue" points="836.81,-276.14 837.2,-265.55 830.29,-273.59 836.81,-276.14"/>
</g>
<!-- Node35 -->
<g id="node35" class="node">
<title>Node35</title>
<g id="a_node35"><a xlink:href="_u_i_8h.html" target="_top" xlink:title=" ">
<polygon fill="none" stroke="black" points="73,-246.5 73,-265.5 107,-265.5 107,-246.5 73,-246.5"/>
<text text-anchor="middle" x="90" y="-253.5" font-family="Helvetica,sans-Serif" font-size="10.00">UI.h</text>
</a>
</g>
</g>
<!-- Node1&#45;&gt;Node35 -->
<g id="edge59" class="edge">
<title>Node1&#45;&gt;Node35</title>
<path fill="none" stroke="midnightblue" d="M991.87,-432.54C922.9,-428.64 740.09,-416.37 590,-389 406.48,-355.53 191.48,-289.44 117,-265.72"/>
<polygon fill="midnightblue" stroke="midnightblue" points="117.64,-262.25 107.05,-262.54 115.51,-268.92 117.64,-262.25"/>
</g>
<!-- Node37 -->
<g id="node37" class="node">
<title>Node37</title>
<g id="a_node37"><a xlink:href="_map_8h.html" target="_top" xlink:title=" ">
<polygon fill="none" stroke="black" points="910,-302.5 910,-321.5 978,-321.5 978,-302.5 910,-302.5"/>
<text text-anchor="middle" x="944" y="-309.5" font-family="Helvetica,sans-Serif" font-size="10.00">Level/Map.h</text>
</a>
</g>
</g>
<!-- Node1&#45;&gt;Node37 -->
<g id="edge57" class="edge">
<title>Node1&#45;&gt;Node37</title>
<path fill="none" stroke="midnightblue" d="M1014.53,-425.3C1002.05,-405.41 971.23,-356.35 954.77,-330.15"/>
<polygon fill="midnightblue" stroke="midnightblue" points="957.7,-328.23 949.42,-321.62 951.77,-331.95 957.7,-328.23"/>
</g>
<!-- Node38 -->
<g id="node38" class="node">
<title>Node38</title>
<g id="a_node38"><a xlink:href="_collision_8h.html" target="_top" xlink:title=" ">
<polygon fill="none" stroke="black" points="844,-364 844,-383 930,-383 930,-364 844,-364"/>
<text text-anchor="middle" x="887" y="-371" font-family="Helvetica,sans-Serif" font-size="10.00">Level/Collision.h</text>
</a>
</g>
</g>
<!-- Node1&#45;&gt;Node38 -->
<g id="edge60" class="edge">
<title>Node1&#45;&gt;Node38</title>
<path fill="none" stroke="midnightblue" d="M1000.94,-425.48C978.53,-415.45 941.09,-398.7 915.29,-387.15"/>
<polygon fill="midnightblue" stroke="midnightblue" points="916.58,-383.9 906.02,-383.01 913.72,-390.29 916.58,-383.9"/>
</g>
<!-- Node39 -->
<g id="node39" class="node">
<title>Node39</title>
<g id="a_node39"><a xlink:href="_dialogue_8h.html" target="_top" xlink:title=" ">
<polygon fill="none" stroke="black" points="1094,-302.5 1094,-321.5 1190,-321.5 1190,-302.5 1094,-302.5"/>
<text text-anchor="middle" x="1142" y="-309.5" font-family="Helvetica,sans-Serif" font-size="10.00">../Level/Dialogue.h</text>
</a>
</g>
</g>
<!-- Node1&#45;&gt;Node39 -->
<g id="edge67" class="edge">
<title>Node1&#45;&gt;Node39</title>
<path fill="none" stroke="midnightblue" d="M1028.77,-425.3C1049.17,-405.07 1100.03,-354.62 1126.08,-328.79"/>
<polygon fill="midnightblue" stroke="midnightblue" points="1128.67,-331.15 1133.31,-321.62 1123.74,-326.18 1128.67,-331.15"/>
</g>
<!-- Node40 -->
<g id="node40" class="node">
<title>Node40</title>
<g id="a_node40"><a xlink:href="_puzzle_8h.html" target="_top" xlink:title=" ">
<polygon fill="none" stroke="black" points="996,-302.5 996,-321.5 1076,-321.5 1076,-302.5 996,-302.5"/>
<text text-anchor="middle" x="1036" y="-309.5" font-family="Helvetica,sans-Serif" font-size="10.00">Level/Puzzle.h</text>
</a>
</g>
</g>
<!-- Node1&#45;&gt;Node40 -->
<g id="edge68" class="edge">
<title>Node1&#45;&gt;Node40</title>
<path fill="none" stroke="midnightblue" d="M1021.15,-425.3C1023.73,-405.76 1030.04,-358.06 1033.55,-331.55"/>
<polygon fill="midnightblue" stroke="midnightblue" points="1037.02,-332 1034.86,-321.62 1030.08,-331.08 1037.02,-332"/>
</g>
<!-- Node41 -->
<g id="node41" class="node">
<title>Node41</title>
<g id="a_node41"><a xlink:href="_enemy_01_overworld_01_sprites_2_mumy_8h.html" target="_top" xlink:title=" ">
<polygon fill="none" stroke="black" points="1099,-179.5 1099,-209.5 1225,-209.5 1225,-179.5 1099,-179.5"/>
<text text-anchor="start" x="1107" y="-197.5" font-family="Helvetica,sans-Serif" font-size="10.00">Enemy Overworld Sprites</text>
<text text-anchor="middle" x="1162" y="-186.5" font-family="Helvetica,sans-Serif" font-size="10.00">/Mumy.h</text>
</a>
</g>
</g>
<!-- Node1&#45;&gt;Node41 -->
<g id="edge72" class="edge">
<title>Node1&#45;&gt;Node41</title>
<path fill="none" stroke="midnightblue" d="M1048.22,-426.02C1090.06,-412.47 1167.06,-380.57 1199,-322 1217.42,-288.22 1195.67,-244.23 1178.58,-218.02"/>
<polygon fill="midnightblue" stroke="midnightblue" points="1181.33,-215.83 1172.8,-209.54 1175.54,-219.78 1181.33,-215.83"/>
</g>
<!-- Node42 -->
<g id="node42" class="node">
<title>Node42</title>
<g id="a_node42"><a xlink:href="_enemy_01_overworld_01_sprites_2_shadow_8h.html" target="_top" xlink:title=" ">
<polygon fill="none" stroke="black" points="1151,-112.5 1151,-142.5 1277,-142.5 1277,-112.5 1151,-112.5"/>
<text text-anchor="start" x="1159" y="-130.5" font-family="Helvetica,sans-Serif" font-size="10.00">Enemy Overworld Sprites</text>
<text text-anchor="middle" x="1214" y="-119.5" font-family="Helvetica,sans-Serif" font-size="10.00">/Shadow.h</text>
</a>
</g>
</g>
<!-- Node1&#45;&gt;Node42 -->
<g id="edge74" class="edge">
<title>Node1&#45;&gt;Node42</title>
<path fill="none" stroke="midnightblue" d="M1048.47,-432.42C1111.24,-427.25 1256,-405.32 1256,-313 1256,-313 1256,-313 1256,-255 1256,-217.41 1239.09,-176.59 1226.73,-151.78"/>
<polygon fill="midnightblue" stroke="midnightblue" points="1229.79,-150.07 1222.1,-142.79 1223.57,-153.28 1229.79,-150.07"/>
</g>
<!-- Node43 -->
<g id="node43" class="node">
<title>Node43</title>
<g id="a_node43"><a xlink:href="_enemy_01_overworld_01_sprites_2_pharaoh_8h.html" target="_top" xlink:title=" ">
<polygon fill="none" stroke="black" points="1284,-358.5 1284,-388.5 1410,-388.5 1410,-358.5 1284,-358.5"/>
<text text-anchor="start" x="1292" y="-376.5" font-family="Helvetica,sans-Serif" font-size="10.00">Enemy Overworld Sprites</text>
<text text-anchor="middle" x="1347" y="-365.5" font-family="Helvetica,sans-Serif" font-size="10.00">/Pharaoh.h</text>
</a>
</g>
</g>
<!-- Node1&#45;&gt;Node43 -->
<g id="edge76" class="edge">
<title>Node1&#45;&gt;Node43</title>
<path fill="none" stroke="midnightblue" d="M1048.13,-429.01C1094.42,-420.79 1189.55,-403.82 1270,-389 1271.28,-388.76 1272.57,-388.53 1273.87,-388.29"/>
<polygon fill="midnightblue" stroke="midnightblue" points="1274.78,-391.68 1283.98,-386.41 1273.5,-384.79 1274.78,-391.68"/>
</g>
<!-- Node3 -->
<g id="node3" class="node">
<title>Node3</title>
<g id="a_node3"><a xlink:title=" ">
<polygon fill="none" stroke="#bfbfbf" points="1371.5,-0.5 1371.5,-19.5 1420.5,-19.5 1420.5,-0.5 1371.5,-0.5"/>
<text text-anchor="middle" x="1396" y="-7.5" font-family="Helvetica,sans-Serif" font-size="10.00">string.h</text>
</a>
</g>
</g>
<!-- Node2&#45;&gt;Node3 -->
<g id="edge2" class="edge">
<title>Node2&#45;&gt;Node3</title>
<path fill="none" stroke="midnightblue" d="M793.77,-64.62C887.14,-63.15 1140.97,-56.05 1361.11,-19.81"/>
<polygon fill="midnightblue" stroke="midnightblue" points="1361.95,-23.22 1371.23,-18.12 1360.79,-16.32 1361.95,-23.22"/>
</g>
<!-- Node4 -->
<g id="node4" class="node">
<title>Node4</title>
<g id="a_node4"><a xlink:title=" ">
<polygon fill="none" stroke="#bfbfbf" points="68,-0.5 68,-19.5 116,-19.5 116,-0.5 68,-0.5"/>
<text text-anchor="middle" x="92" y="-7.5" font-family="Helvetica,sans-Serif" font-size="10.00">raylib.h</text>
</a>
</g>
</g>
<!-- Node2&#45;&gt;Node4 -->
<g id="edge3" class="edge">
<title>Node2&#45;&gt;Node4</title>
<path fill="none" stroke="midnightblue" d="M720.37,-64.88C624.2,-64.04 356.65,-58.3 125.95,-19.81"/>
<polygon fill="midnightblue" stroke="midnightblue" points="126.47,-16.35 116.03,-18.14 125.3,-23.26 126.47,-16.35"/>
</g>
<!-- Node5 -->
<g id="node5" class="node">
<title>Node5</title>
<g id="a_node5"><a xlink:title=" ">
<polygon fill="none" stroke="#bfbfbf" points="134,-0.5 134,-19.5 194,-19.5 194,-0.5 134,-0.5"/>
<text text-anchor="middle" x="164" y="-7.5" font-family="Helvetica,sans-Serif" font-size="10.00">raymath.h</text>
</a>
</g>
</g>
<!-- Node2&#45;&gt;Node5 -->
<g id="edge4" class="edge">
<title>Node2&#45;&gt;Node5</title>
<path fill="none" stroke="midnightblue" d="M720.49,-63.87C632.98,-60.78 404.33,-50.39 204.26,-19.97"/>
<polygon fill="midnightblue" stroke="midnightblue" points="204.57,-16.48 194.15,-18.41 203.5,-23.4 204.57,-16.48"/>
</g>
<!-- Node6 -->
<g id="node6" class="node">
<title>Node6</title>
<g id="a_node6"><a xlink:title=" ">
<polygon fill="none" stroke="#bfbfbf" points="212,-0.5 212,-19.5 260,-19.5 260,-0.5 212,-0.5"/>
<text text-anchor="middle" x="236" y="-7.5" font-family="Helvetica,sans-Serif" font-size="10.00">stdlib.h</text>
</a>
</g>
</g>
<!-- Node2&#45;&gt;Node6 -->
<g id="edge5" class="edge">
<title>Node2&#45;&gt;Node6</title>
<path fill="none" stroke="midnightblue" d="M720.28,-63.8C640.14,-60.71 443.49,-50.6 270.11,-19.89"/>
<polygon fill="midnightblue" stroke="midnightblue" points="270.5,-16.4 260.04,-18.08 269.26,-23.29 270.5,-16.4"/>
</g>
<!-- Node7 -->
<g id="node7" class="node">
<title>Node7</title>
<g id="a_node7"><a xlink:title=" ">
<polygon fill="none" stroke="#bfbfbf" points="278.5,-0.5 278.5,-19.5 323.5,-19.5 323.5,-0.5 278.5,-0.5"/>
<text text-anchor="middle" x="301" y="-7.5" font-family="Helvetica,sans-Serif" font-size="10.00">cstdlib</text>
</a>
</g>
</g>
<!-- Node2&#45;&gt;Node7 -->
<g id="edge6" class="edge">
<title>Node2&#45;&gt;Node7</title>
<path fill="none" stroke="midnightblue" d="M720.4,-63.19C648.22,-59.19 482.42,-47.78 333.83,-19.82"/>
<polygon fill="midnightblue" stroke="midnightblue" points="334.09,-16.31 323.61,-17.87 332.78,-23.18 334.09,-16.31"/>
</g>
<!-- Node8 -->
<g id="node8" class="node">
<title>Node8</title>
<g id="a_node8"><a xlink:title=" ">
<polygon fill="none" stroke="#bfbfbf" points="342,-0.5 342,-19.5 388,-19.5 388,-0.5 342,-0.5"/>
<text text-anchor="middle" x="365" y="-7.5" font-family="Helvetica,sans-Serif" font-size="10.00">stdio.h</text>
</a>
</g>
</g>
<!-- Node2&#45;&gt;Node8 -->
<g id="edge7" class="edge">
<title>Node2&#45;&gt;Node8</title>
<path fill="none" stroke="midnightblue" d="M720.43,-62.25C656.77,-57.07 521.38,-44.32 398.29,-20"/>
<polygon fill="midnightblue" stroke="midnightblue" points="398.81,-16.53 388.32,-17.99 397.44,-23.39 398.81,-16.53"/>
</g>
<!-- Node9 -->
<g id="node9" class="node">
<title>Node9</title>
<g id="a_node9"><a xlink:title=" ">
<polygon fill="none" stroke="#bfbfbf" points="0,-0.5 0,-19.5 50,-19.5 50,-0.5 0,-0.5"/>
<text text-anchor="middle" x="25" y="-7.5" font-family="Helvetica,sans-Serif" font-size="10.00">config.h</text>
</a>
</g>
</g>
<!-- Node2&#45;&gt;Node9 -->
<g id="edge8" class="edge">
<title>Node2&#45;&gt;Node9</title>
<path fill="none" stroke="midnightblue" d="M720.39,-65.14C617.53,-64.99 317.24,-60.93 60.03,-19.84"/>
<polygon fill="midnightblue" stroke="midnightblue" points="60.56,-16.38 50.13,-18.24 59.44,-23.29 60.56,-16.38"/>
</g>
<!-- Node10 -->
<g id="node10" class="node">
<title>Node10</title>
<g id="a_node10"><a xlink:title=" ">
<polygon fill="none" stroke="#bfbfbf" points="406.5,-0.5 406.5,-19.5 465.5,-19.5 465.5,-0.5 406.5,-0.5"/>
<text text-anchor="middle" x="436" y="-7.5" font-family="Helvetica,sans-Serif" font-size="10.00">process.h</text>
</a>
</g>
</g>
<!-- Node2&#45;&gt;Node10 -->
<g id="edge9" class="edge">
<title>Node2&#45;&gt;Node10</title>
<path fill="none" stroke="midnightblue" d="M720.21,-60.05C667.92,-52.81 568.92,-38.39 475.7,-20.23"/>
<polygon fill="midnightblue" stroke="midnightblue" points="476.31,-16.78 465.82,-18.29 474.96,-23.65 476.31,-16.78"/>
</g>
<!-- Node11 -->
<g id="node11" class="node">
<title>Node11</title>
<g id="a_node11"><a xlink:title=" ">
<polygon fill="none" stroke="#bfbfbf" points="483.5,-0.5 483.5,-19.5 524.5,-19.5 524.5,-0.5 483.5,-0.5"/>
<text text-anchor="middle" x="504" y="-7.5" font-family="Helvetica,sans-Serif" font-size="10.00">string</text>
</a>
</g>
</g>
<!-- Node2&#45;&gt;Node11 -->
<g id="edge10" class="edge">
<title>Node2&#45;&gt;Node11</title>
<path fill="none" stroke="midnightblue" d="M720.46,-58.7C678.09,-51.15 605.98,-37.59 534.65,-19.96"/>
<polygon fill="midnightblue" stroke="midnightblue" points="535.14,-16.48 524.59,-17.45 533.44,-23.27 535.14,-16.48"/>
</g>
<!-- Node12 -->
<g id="node12" class="node">
<title>Node12</title>
<g id="a_node12"><a xlink:title=" ">
<polygon fill="none" stroke="#bfbfbf" points="543,-0.5 543,-19.5 581,-19.5 581,-0.5 543,-0.5"/>
<text text-anchor="middle" x="562" y="-7.5" font-family="Helvetica,sans-Serif" font-size="10.00">array</text>
</a>
</g>
</g>
<!-- Node2&#45;&gt;Node12 -->
<g id="edge11" class="edge">
<title>Node2&#45;&gt;Node12</title>
<path fill="none" stroke="midnightblue" d="M723.28,-56.42C691.44,-48.2 642.14,-35.2 590.84,-20.15"/>
<polygon fill="midnightblue" stroke="midnightblue" points="591.82,-16.79 581.24,-17.32 589.84,-23.51 591.82,-16.79"/>
</g>
<!-- Node13 -->
<g id="node13" class="node">
<title>Node13</title>
<g id="a_node13"><a xlink:title=" ">
<polygon fill="none" stroke="#bfbfbf" points="599,-0.5 599,-19.5 641,-19.5 641,-0.5 599,-0.5"/>
<text text-anchor="middle" x="620" y="-7.5" font-family="Helvetica,sans-Serif" font-size="10.00">vector</text>
</a>
</g>
</g>
<!-- Node2&#45;&gt;Node13 -->
<g id="edge12" class="edge">
<title>Node2&#45;&gt;Node13</title>
<path fill="none" stroke="midnightblue" d="M735.29,-56.44C712.51,-47.46 676.51,-33.27 650.8,-23.14"/>
<polygon fill="midnightblue" stroke="midnightblue" points="651.74,-19.75 641.16,-19.34 649.18,-26.26 651.74,-19.75"/>
</g>
<!-- Node14 -->
<g id="node14" class="node">
<title>Node14</title>
<g id="a_node14"><a xlink:title=" ">
<polygon fill="none" stroke="#bfbfbf" points="659,-0.5 659,-19.5 703,-19.5 703,-0.5 659,-0.5"/>
<text text-anchor="middle" x="681" y="-7.5" font-family="Helvetica,sans-Serif" font-size="10.00">cmath</text>
</a>
</g>
</g>
<!-- Node2&#45;&gt;Node14 -->
<g id="edge13" class="edge">
<title>Node2&#45;&gt;Node14</title>
<path fill="none" stroke="midnightblue" d="M744.79,-56.32C733.22,-48.11 715.62,-35.6 701.84,-25.81"/>
<polygon fill="midnightblue" stroke="midnightblue" points="703.61,-22.77 693.43,-19.83 699.56,-28.48 703.61,-22.77"/>
</g>
<!-- Node15 -->
<g id="node15" class="node">
<title>Node15</title>
<g id="a_node15"><a xlink:title=" ">
<polygon fill="none" stroke="#bfbfbf" points="721,-0.5 721,-19.5 773,-19.5 773,-0.5 721,-0.5"/>
<text text-anchor="middle" x="747" y="-7.5" font-family="Helvetica,sans-Serif" font-size="10.00">memory</text>
</a>
</g>
</g>
<!-- Node2&#45;&gt;Node15 -->
<g id="edge14" class="edge">
<title>Node2&#45;&gt;Node15</title>
<path fill="none" stroke="midnightblue" d="M755.35,-56.08C754.02,-48.93 752.12,-38.64 750.46,-29.69"/>
<polygon fill="midnightblue" stroke="midnightblue" points="753.88,-28.95 748.62,-19.75 747,-30.22 753.88,-28.95"/>
</g>
<!-- Node16 -->
<g id="node16" class="node">
<title>Node16</title>
<g id="a_node16"><a xlink:title=" ">
<polygon fill="none" stroke="#bfbfbf" points="791.5,-0.5 791.5,-19.5 832.5,-19.5 832.5,-0.5 791.5,-0.5"/>
<text text-anchor="middle" x="812" y="-7.5" font-family="Helvetica,sans-Serif" font-size="10.00">ctime</text>
</a>
</g>
</g>
<!-- Node2&#45;&gt;Node16 -->
<g id="edge15" class="edge">
<title>Node2&#45;&gt;Node16</title>
<path fill="none" stroke="midnightblue" d="M766.08,-56.08C774.17,-48.14 786.2,-36.34 795.91,-26.8"/>
<polygon fill="midnightblue" stroke="midnightblue" points="798.4,-29.25 803.09,-19.75 793.5,-24.26 798.4,-29.25"/>
</g>
<!-- Node17 -->
<g id="node17" class="node">
<title>Node17</title>
<g id="a_node17"><a xlink:title=" ">
<polygon fill="none" stroke="#bfbfbf" points="851,-0.5 851,-19.5 897,-19.5 897,-0.5 851,-0.5"/>
<text text-anchor="middle" x="874" y="-7.5" font-family="Helvetica,sans-Serif" font-size="10.00">chrono</text>
</a>
</g>
</g>
<!-- Node2&#45;&gt;Node17 -->
<g id="edge16" class="edge">
<title>Node2&#45;&gt;Node17</title>
<path fill="none" stroke="midnightblue" d="M775.54,-56.44C794.62,-47.64 824.57,-33.81 846.44,-23.72"/>
<polygon fill="midnightblue" stroke="midnightblue" points="847.93,-26.88 855.55,-19.52 845,-20.53 847.93,-26.88"/>
</g>
<!-- Node18 -->
<g id="node18" class="node">
<title>Node18</title>
<g id="a_node18"><a xlink:title=" ">
<polygon fill="none" stroke="#bfbfbf" points="915,-0.5 915,-19.5 967,-19.5 967,-0.5 915,-0.5"/>
<text text-anchor="middle" x="941" y="-7.5" font-family="Helvetica,sans-Serif" font-size="10.00">sstream</text>
</a>
</g>
</g>
<!-- Node2&#45;&gt;Node18 -->
<g id="edge17" class="edge">
<title>Node2&#45;&gt;Node18</title>
<path fill="none" stroke="midnightblue" d="M786.16,-56.44C818.44,-46.97 870.49,-31.69 905.21,-21.5"/>
<polygon fill="midnightblue" stroke="midnightblue" points="906.35,-24.82 914.96,-18.64 904.38,-18.1 906.35,-24.82"/>
</g>
<!-- Node19 -->
<g id="node19" class="node">
<title>Node19</title>
<g id="a_node19"><a xlink:title=" ">
<polygon fill="none" stroke="#bfbfbf" points="985.5,-0.5 985.5,-19.5 1034.5,-19.5 1034.5,-0.5 985.5,-0.5"/>
<text text-anchor="middle" x="1010" y="-7.5" font-family="Helvetica,sans-Serif" font-size="10.00">fstream</text>
</a>
</g>
</g>
<!-- Node2&#45;&gt;Node19 -->
<g id="edge18" class="edge">
<title>Node2&#45;&gt;Node19</title>
<path fill="none" stroke="midnightblue" d="M793.56,-58.14C835.2,-50.18 905.47,-36.32 975.31,-20.06"/>
<polygon fill="midnightblue" stroke="midnightblue" points="976.22,-23.44 985.16,-17.75 974.62,-16.62 976.22,-23.44"/>
</g>
<!-- Node20 -->
<g id="node20" class="node">
<title>Node20</title>
<g id="a_node20"><a xlink:title=" ">
<polygon fill="none" stroke="#bfbfbf" points="1053,-0.5 1053,-19.5 1107,-19.5 1107,-0.5 1053,-0.5"/>
<text text-anchor="middle" x="1080" y="-7.5" font-family="Helvetica,sans-Serif" font-size="10.00">iostream</text>
</a>
</g>
</g>
<!-- Node2&#45;&gt;Node20 -->
<g id="edge19" class="edge">
<title>Node2&#45;&gt;Node20</title>
<path fill="none" stroke="midnightblue" d="M793.74,-60.21C848.34,-52.86 954.03,-37.79 1043,-20 1043.1,-19.98 1043.2,-19.96 1043.3,-19.94"/>
<polygon fill="midnightblue" stroke="midnightblue" points="1043.95,-23.38 1052.98,-17.85 1042.47,-16.54 1043.95,-23.38"/>
</g>
<!-- Node21 -->
<g id="node21" class="node">
<title>Node21</title>
<g id="a_node21"><a xlink:title=" ">
<polygon fill="none" stroke="#bfbfbf" points="1125,-0.5 1125,-19.5 1175,-19.5 1175,-0.5 1125,-0.5"/>
<text text-anchor="middle" x="1150" y="-7.5" font-family="Helvetica,sans-Serif" font-size="10.00">iomanip</text>
</a>
</g>
</g>
<!-- Node2&#45;&gt;Node21 -->
<g id="edge20" class="edge">
<title>Node2&#45;&gt;Node21</title>
<path fill="none" stroke="midnightblue" d="M793.69,-62.04C857.23,-56.55 991.95,-43.37 1114.88,-19.99"/>
<polygon fill="midnightblue" stroke="midnightblue" points="1115.68,-23.4 1124.84,-18.06 1114.35,-16.52 1115.68,-23.4"/>
</g>
<!-- Node22 -->
<g id="node22" class="node">
<title>Node22</title>
<g id="a_node22"><a xlink:title=" ">
<polygon fill="none" stroke="#bfbfbf" points="1193,-0.5 1193,-19.5 1237,-19.5 1237,-0.5 1193,-0.5"/>
<text text-anchor="middle" x="1215" y="-7.5" font-family="Helvetica,sans-Serif" font-size="10.00">thread</text>
</a>
</g>
</g>
<!-- Node2&#45;&gt;Node22 -->
<g id="edge21" class="edge">
<title>Node2&#45;&gt;Node22</title>
<path fill="none" stroke="midnightblue" d="M793.6,-63.34C866.16,-59.57 1033.44,-48.54 1182.52,-19.97"/>
<polygon fill="midnightblue" stroke="midnightblue" points="1183.62,-23.32 1192.77,-17.97 1182.28,-16.45 1183.62,-23.32"/>
</g>
<!-- Node23 -->
<g id="node23" class="node">
<title>Node23</title>
<g id="a_node23"><a xlink:title=" ">
<polygon fill="none" stroke="#bfbfbf" points="1255,-0.5 1255,-19.5 1353,-19.5 1353,-0.5 1255,-0.5"/>
<text text-anchor="middle" x="1304" y="-7.5" font-family="Helvetica,sans-Serif" font-size="10.00">nlohmann/json.hpp</text>
</a>
</g>
</g>
<!-- Node2&#45;&gt;Node23 -->
<g id="edge22" class="edge">
<title>Node2&#45;&gt;Node23</title>
<path fill="none" stroke="midnightblue" d="M793.58,-62.42C873.48,-56.6 1069.75,-41.41 1244.81,-20.07"/>
<polygon fill="midnightblue" stroke="midnightblue" points="1245.48,-23.52 1254.98,-18.83 1244.63,-16.57 1245.48,-23.52"/>
</g>
<!-- Node2&#45;&gt;Node24 -->
<g id="edge23" class="edge">
<title>Node2&#45;&gt;Node24</title>
<path fill="none" stroke="midnightblue" d="M793.63,-63.43C894.13,-59.14 1181.69,-45.81 1420,-20 1422.66,-19.71 1425.38,-19.39 1428.13,-19.05"/>
<polygon fill="midnightblue" stroke="midnightblue" points="1428.73,-22.5 1438.19,-17.73 1427.82,-15.56 1428.73,-22.5"/>
</g>
<!-- Node24&#45;&gt;Node2 -->
<g id="edge24" class="edge">
<title>Node24&#45;&gt;Node2</title>
<path fill="none" stroke="midnightblue" d="M1442.13,-19.53C1440.74,-19.7 1439.36,-19.85 1438,-20 1200.66,-45.7 914.47,-59.03 803.74,-63.37"/>
<polygon fill="midnightblue" stroke="midnightblue" points="803.44,-59.88 793.58,-63.77 803.71,-66.88 803.44,-59.88"/>
</g>
<!-- Node25&#45;&gt;Node2 -->
<g id="edge27" class="edge">
<title>Node25&#45;&gt;Node2</title>
<path fill="none" stroke="midnightblue" d="M1355.03,-117.97C1344.09,-115.76 1332.11,-113.56 1321,-112 1130.23,-85.28 900.77,-73.09 803.85,-68.85"/>
<polygon fill="midnightblue" stroke="midnightblue" points="803.93,-65.35 793.79,-68.42 803.63,-72.34 803.93,-65.35"/>
</g>
<!-- Node26&#45;&gt;Node2 -->
<g id="edge46" class="edge">
<title>Node26&#45;&gt;Node2</title>
<path fill="none" stroke="midnightblue" d="M403.47,-308.83C341.44,-304.38 216.8,-292.37 183,-266 151.28,-241.26 139.14,-214.54 158,-179 182.91,-132.07 206.95,-129.84 257,-112 339.73,-82.52 602.09,-71.56 709.97,-68.24"/>
<polygon fill="midnightblue" stroke="midnightblue" points="710.33,-71.73 720.23,-67.93 710.12,-64.73 710.33,-71.73"/>
</g>
<!-- Node26&#45;&gt;Node9 -->
<g id="edge56" class="edge">
<title>Node26&#45;&gt;Node9</title>
<path fill="none" stroke="midnightblue" d="M403.43,-311.45C320.09,-311.77 115.31,-308.13 64,-266 38.53,-245.09 41,-228.46 41,-195.5 41,-195.5 41,-195.5 41,-126.5 41,-92.04 33.92,-52.33 29.18,-29.6"/>
<polygon fill="midnightblue" stroke="midnightblue" points="32.56,-28.67 27.03,-19.64 25.72,-30.15 32.56,-28.67"/>
</g>
<!-- Node27 -->
<g id="node27" class="node">
<title>Node27</title>
<g id="a_node27"><a xlink:href="_combat_2_mumy_8h.html" target="_top" xlink:title=" ">
<polygon fill="none" stroke="black" points="450,-246.5 450,-265.5 548,-265.5 548,-246.5 450,-246.5"/>
<text text-anchor="middle" x="499" y="-253.5" font-family="Helvetica,sans-Serif" font-size="10.00">../Combat/Mumy.h</text>
</a>
</g>
</g>
<!-- Node26&#45;&gt;Node27 -->
<g id="edge29" class="edge">
<title>Node26&#45;&gt;Node27</title>
<path fill="none" stroke="midnightblue" d="M448.64,-302.32C457.51,-294.34 470.87,-282.31 481.61,-272.65"/>
<polygon fill="midnightblue" stroke="midnightblue" points="484.09,-275.13 489.18,-265.83 479.41,-269.92 484.09,-275.13"/>
</g>
<!-- Node26&#45;&gt;Node30 -->
<g id="edge53" class="edge">
<title>Node26&#45;&gt;Node30</title>
<path fill="none" stroke="midnightblue" d="M474.74,-303.18C499.66,-296.42 532.67,-284.71 557,-266 600.2,-232.78 632.72,-175.64 647.39,-146.59"/>
<polygon fill="midnightblue" stroke="midnightblue" points="650.71,-147.77 651.98,-137.26 644.43,-144.69 650.71,-147.77"/>
</g>
<!-- Node31 -->
<g id="node31" class="node">
<title>Node31</title>
<g id="a_node31"><a xlink:href="_player_8h.html" target="_top" xlink:title=" ">
<polygon fill="none" stroke="black" points="604,-246.5 604,-265.5 702,-265.5 702,-246.5 604,-246.5"/>
<text text-anchor="middle" x="653" y="-253.5" font-family="Helvetica,sans-Serif" font-size="10.00">../Combat/Player.h</text>
</a>
</g>
</g>
<!-- Node26&#45;&gt;Node31 -->
<g id="edge36" class="edge">
<title>Node26&#45;&gt;Node31</title>
<path fill="none" stroke="midnightblue" d="M472.91,-302.44C509.85,-293.12 569.05,-278.18 609.42,-268"/>
<polygon fill="midnightblue" stroke="midnightblue" points="610.41,-271.36 619.25,-265.52 608.7,-264.57 610.41,-271.36"/>
</g>
<!-- Node32 -->
<g id="node32" class="node">
<title>Node32</title>
<g id="a_node32"><a xlink:href="_combat_2_shadow_8h.html" target="_top" xlink:title=" ">
<polygon fill="none" stroke="black" points="201.5,-246.5 201.5,-265.5 306.5,-265.5 306.5,-246.5 201.5,-246.5"/>
<text text-anchor="middle" x="254" y="-253.5" font-family="Helvetica,sans-Serif" font-size="10.00">../Combat/Shadow.h</text>
</a>
</g>
</g>
<!-- Node26&#45;&gt;Node32 -->
<g id="edge40" class="edge">
<title>Node26&#45;&gt;Node32</title>
<path fill="none" stroke="midnightblue" d="M409.69,-302.44C378.16,-293.24 327.87,-278.56 293.01,-268.39"/>
<polygon fill="midnightblue" stroke="midnightblue" points="293.76,-264.96 283.18,-265.52 291.8,-271.68 293.76,-264.96"/>
</g>
<!-- Node33 -->
<g id="node33" class="node">
<title>Node33</title>
<g id="a_node33"><a xlink:href="_combat_2_pharaoh_8h.html" target="_top" xlink:title=" ">
<polygon fill="none" stroke="black" points="324.5,-246.5 324.5,-265.5 431.5,-265.5 431.5,-246.5 324.5,-246.5"/>
<text text-anchor="middle" x="378" y="-253.5" font-family="Helvetica,sans-Serif" font-size="10.00">../Combat/Pharaoh.h</text>
</a>
</g>
</g>
<!-- Node26&#45;&gt;Node33 -->
<g id="edge43" class="edge">
<title>Node26&#45;&gt;Node33</title>
<path fill="none" stroke="midnightblue" d="M429.2,-302.32C420.18,-294.34 406.59,-282.31 395.68,-272.65"/>
<polygon fill="midnightblue" stroke="midnightblue" points="397.79,-269.84 387.98,-265.83 393.15,-275.08 397.79,-269.84"/>
</g>
<!-- Node26&#45;&gt;Node34 -->
<g id="edge47" class="edge">
<title>Node26&#45;&gt;Node34</title>
<path fill="none" stroke="midnightblue" d="M474.67,-306.21C544.96,-296.77 701.76,-275.7 785.61,-264.44"/>
<polygon fill="midnightblue" stroke="midnightblue" points="786.26,-267.88 795.71,-263.08 785.33,-260.95 786.26,-267.88"/>
</g>
<!-- Node26&#45;&gt;Node35 -->
<g id="edge51" class="edge">
<title>Node26&#45;&gt;Node35</title>
<path fill="none" stroke="midnightblue" d="M403.42,-307.63C344.32,-301.67 222.4,-287.78 121,-266 119.74,-265.73 118.45,-265.43 117.15,-265.12"/>
<polygon fill="midnightblue" stroke="midnightblue" points="117.83,-261.68 107.27,-262.48 116.03,-268.44 117.83,-261.68"/>
</g>
<!-- Node36 -->
<g id="node36" class="node">
<title>Node36</title>
<g id="a_node36"><a xlink:href="_endscreen_8h.html" target="_top" xlink:title=" ">
<polygon fill="none" stroke="black" points="167.5,-185 167.5,-204 272.5,-204 272.5,-185 167.5,-185"/>
<text text-anchor="middle" x="220" y="-192" font-family="Helvetica,sans-Serif" font-size="10.00">../Level/Endscreen.h</text>
</a>
</g>
</g>
<!-- Node26&#45;&gt;Node36 -->
<g id="edge54" class="edge">
<title>Node26&#45;&gt;Node36</title>
<path fill="none" stroke="midnightblue" d="M403.01,-309.89C341.09,-307.13 218.46,-297.71 192,-266 178.76,-250.13 192.28,-227.22 204.72,-211.87"/>
<polygon fill="midnightblue" stroke="midnightblue" points="207.45,-214.06 211.34,-204.21 202.16,-209.48 207.45,-214.06"/>
</g>
<!-- Node27&#45;&gt;Node2 -->
<g id="edge30" class="edge">
<title>Node27&#45;&gt;Node2</title>
<path fill="none" stroke="midnightblue" d="M500.57,-246.37C503.56,-231.54 511.18,-200.76 526,-179 551.54,-141.51 563.19,-133.76 603,-112 636.74,-93.56 678.88,-81.92 710.54,-75.11"/>
<polygon fill="midnightblue" stroke="midnightblue" points="711.35,-78.52 720.43,-73.07 709.93,-71.66 711.35,-78.52"/>
</g>
<!-- Node28 -->
<g id="node28" class="node">
<title>Node28</title>
<g id="a_node28"><a xlink:title=" ">
<polygon fill="none" stroke="#bfbfbf" points="535,-185 535,-204 581,-204 581,-185 535,-185"/>
<text text-anchor="middle" x="558" y="-192" font-family="Helvetica,sans-Serif" font-size="10.00">cstring</text>
</a>
</g>
</g>
<!-- Node27&#45;&gt;Node28 -->
<g id="edge31" class="edge">
<title>Node27&#45;&gt;Node28</title>
<path fill="none" stroke="midnightblue" d="M507.45,-246.48C516.57,-237.28 531.27,-222.46 542.48,-211.16"/>
<polygon fill="midnightblue" stroke="midnightblue" points="545.01,-213.57 549.56,-204.01 540.04,-208.65 545.01,-213.57"/>
</g>
<!-- Node29 -->
<g id="node29" class="node">
<title>Node29</title>
<g id="a_node29"><a xlink:href="_game_character_8h.html" target="_top" xlink:title=" ">
<polygon fill="none" stroke="black" points="385.5,-185 385.5,-204 478.5,-204 478.5,-185 385.5,-185"/>
<text text-anchor="middle" x="432" y="-192" font-family="Helvetica,sans-Serif" font-size="10.00">GameCharacter.h</text>
</a>
</g>
</g>
<!-- Node27&#45;&gt;Node29 -->
<g id="edge32" class="edge">
<title>Node27&#45;&gt;Node29</title>
<path fill="none" stroke="midnightblue" d="M489.4,-246.48C478.95,-237.2 462.03,-222.17 449.26,-210.83"/>
<polygon fill="midnightblue" stroke="midnightblue" points="451.38,-208.03 441.58,-204.01 446.73,-213.27 451.38,-208.03"/>
</g>
<!-- Node29&#45;&gt;Node2 -->
<g id="edge33" class="edge">
<title>Node29&#45;&gt;Node2</title>
<path fill="none" stroke="midnightblue" d="M435.73,-184.88C443.59,-167.85 463.59,-129.97 493,-112 528.68,-90.19 644.56,-76.82 710.32,-70.79"/>
<polygon fill="midnightblue" stroke="midnightblue" points="710.77,-74.26 720.42,-69.88 710.15,-67.29 710.77,-74.26"/>
</g>
<!-- Node29&#45;&gt;Node30 -->
<g id="edge34" class="edge">
<title>Node29&#45;&gt;Node30</title>
<path fill="none" stroke="midnightblue" d="M461.75,-184.87C501.6,-173.3 572.43,-152.75 616.66,-139.91"/>
<polygon fill="midnightblue" stroke="midnightblue" points="617.86,-143.21 626.49,-137.06 615.91,-136.49 617.86,-143.21"/>
</g>
<!-- Node30&#45;&gt;Node2 -->
<g id="edge35" class="edge">
<title>Node30&#45;&gt;Node2</title>
<path fill="none" stroke="midnightblue" d="M670.47,-117.98C686.97,-108.25 714.18,-92.23 733.68,-80.74"/>
<polygon fill="midnightblue" stroke="midnightblue" points="735.72,-83.6 742.56,-75.51 732.16,-77.57 735.72,-83.6"/>
</g>
<!-- Node31&#45;&gt;Node2 -->
<g id="edge37" class="edge">
<title>Node31&#45;&gt;Node2</title>
<path fill="none" stroke="midnightblue" d="M657.74,-246.43C673.68,-217.62 725.56,-123.84 747.29,-84.56"/>
<polygon fill="midnightblue" stroke="midnightblue" points="750.46,-86.06 752.23,-75.62 744.33,-82.67 750.46,-86.06"/>
</g>
<!-- Node31&#45;&gt;Node29 -->
<g id="edge38" class="edge">
<title>Node31&#45;&gt;Node29</title>
<path fill="none" stroke="midnightblue" d="M621.34,-246.48C582.44,-236 516.36,-218.21 473.45,-206.66"/>
<polygon fill="midnightblue" stroke="midnightblue" points="474.17,-203.23 463.61,-204.01 472.35,-209.99 474.17,-203.23"/>
</g>
<!-- Node31&#45;&gt;Node30 -->
<g id="edge39" class="edge">
<title>Node31&#45;&gt;Node30</title>
<path fill="none" stroke="midnightblue" d="M653.21,-246.31C653.69,-225.99 654.9,-175.05 655.55,-147.28"/>
<polygon fill="midnightblue" stroke="midnightblue" points="659.05,-147.34 655.79,-137.26 652.06,-147.17 659.05,-147.34"/>
</g>
<!-- Node32&#45;&gt;Node2 -->
<g id="edge41" class="edge">
<title>Node32&#45;&gt;Node2</title>
<path fill="none" stroke="midnightblue" d="M259.59,-246.32C276.68,-220.59 331.17,-144.56 398,-112 452.07,-85.66 626.16,-73.54 710.43,-69.11"/>
<polygon fill="midnightblue" stroke="midnightblue" points="710.68,-72.61 720.49,-68.6 710.32,-65.61 710.68,-72.61"/>
</g>
<!-- Node32&#45;&gt;Node29 -->
<g id="edge42" class="edge">
<title>Node32&#45;&gt;Node29</title>
<path fill="none" stroke="midnightblue" d="M279.5,-246.48C310.3,-236.18 362.27,-218.81 396.85,-207.25"/>
<polygon fill="midnightblue" stroke="midnightblue" points="398.17,-210.5 406.54,-204.01 395.95,-203.86 398.17,-210.5"/>
</g>
<!-- Node33&#45;&gt;Node2 -->
<g id="edge44" class="edge">
<title>Node33&#45;&gt;Node2</title>
<path fill="none" stroke="midnightblue" d="M375.27,-246.04C371.3,-231.25 365.48,-201.18 376,-179 396.17,-136.48 414.97,-131.07 458,-112 541.47,-75 649.55,-67.5 710.26,-66.5"/>
<polygon fill="midnightblue" stroke="midnightblue" points="710.34,-70 720.3,-66.39 710.27,-63 710.34,-70"/>
</g>
<!-- Node33&#45;&gt;Node29 -->
<g id="edge45" class="edge">
<title>Node33&#45;&gt;Node29</title>
<path fill="none" stroke="midnightblue" d="M385.74,-246.48C394,-237.37 407.28,-222.74 417.49,-211.48"/>
<polygon fill="midnightblue" stroke="midnightblue" points="420.15,-213.77 424.28,-204.01 414.97,-209.06 420.15,-213.77"/>
</g>
<!-- Node34&#45;&gt;Node2 -->
<g id="edge50" class="edge">
<title>Node34&#45;&gt;Node2</title>
<path fill="none" stroke="midnightblue" d="M837.88,-246.47C829.59,-224.06 806.02,-161.84 782,-112 777.54,-102.74 772.04,-92.72 767.34,-84.49"/>
<polygon fill="midnightblue" stroke="midnightblue" points="770.34,-82.69 762.29,-75.8 764.29,-86.21 770.34,-82.69"/>
</g>
<!-- Node34&#45;&gt;Node24 -->
<g id="edge49" class="edge">
<title>Node34&#45;&gt;Node24</title>
<path fill="none" stroke="midnightblue" d="M856.6,-246.49C900.5,-222.77 1029.25,-154.87 1142,-112 1247.29,-71.96 1375.56,-38.41 1442.8,-21.93"/>
<polygon fill="midnightblue" stroke="midnightblue" points="1443.77,-25.3 1452.66,-19.53 1442.12,-18.5 1443.77,-25.3"/>
</g>
<!-- Node34&#45;&gt;Node30 -->
<g id="edge48" class="edge">
<title>Node34&#45;&gt;Node30</title>
<path fill="none" stroke="midnightblue" d="M828.28,-246.31C797,-224.91 716.01,-169.53 677.26,-143.04"/>
<polygon fill="midnightblue" stroke="midnightblue" points="679.04,-140.01 668.8,-137.26 675.08,-145.79 679.04,-140.01"/>
</g>
<!-- Node35&#45;&gt;Node2 -->
<g id="edge52" class="edge">
<title>Node35&#45;&gt;Node2</title>
<path fill="none" stroke="midnightblue" d="M88.74,-246.19C85.65,-220.78 80.68,-146.93 121,-112 165.23,-73.67 570.45,-67.96 710.02,-67.13"/>
<polygon fill="midnightblue" stroke="midnightblue" points="710.39,-70.63 720.38,-67.08 710.36,-63.63 710.39,-70.63"/>
</g>
<!-- Node36&#45;&gt;Node2 -->
<g id="edge55" class="edge">
<title>Node36&#45;&gt;Node2</title>
<path fill="none" stroke="midnightblue" d="M225.44,-184.93C236.96,-167.64 265.68,-128.78 301,-112 372.57,-78.01 608.86,-69.67 710.19,-67.64"/>
<polygon fill="midnightblue" stroke="midnightblue" points="710.49,-71.14 720.42,-67.45 710.36,-64.14 710.49,-71.14"/>
</g>
<!-- Node37&#45;&gt;Node2 -->
<g id="edge58" class="edge">
<title>Node37&#45;&gt;Node2</title>
<path fill="none" stroke="midnightblue" d="M946.47,-302.15C954.41,-271.61 976.05,-169.41 928,-112 912.14,-93.05 848.62,-80.14 803.65,-73.17"/>
<polygon fill="midnightblue" stroke="midnightblue" points="803.91,-69.67 793.51,-71.65 802.88,-76.59 803.91,-69.67"/>
</g>
<!-- Node38&#45;&gt;Node2 -->
<g id="edge61" class="edge">
<title>Node38&#45;&gt;Node2</title>
<path fill="none" stroke="midnightblue" d="M889.59,-363.97C895.45,-343.21 908.24,-288.67 895,-246 872.91,-174.79 807.58,-110.67 775.37,-82.35"/>
<polygon fill="midnightblue" stroke="midnightblue" points="777.45,-79.52 767.59,-75.64 772.87,-84.82 777.45,-79.52"/>
</g>
<!-- Node38&#45;&gt;Node26 -->
<g id="edge62" class="edge">
<title>Node38&#45;&gt;Node26</title>
<path fill="none" stroke="midnightblue" d="M843.64,-366.74C758.81,-355.47 571.64,-330.62 484.86,-319.09"/>
<polygon fill="midnightblue" stroke="midnightblue" points="485.16,-315.6 474.78,-317.75 484.23,-322.54 485.16,-315.6"/>
</g>
<!-- Node38&#45;&gt;Node34 -->
<g id="edge64" class="edge">
<title>Node38&#45;&gt;Node34</title>
<path fill="none" stroke="midnightblue" d="M883.54,-363.82C876.08,-345.09 858.34,-300.55 848.29,-275.29"/>
<polygon fill="midnightblue" stroke="midnightblue" points="851.45,-273.78 844.5,-265.78 844.95,-276.37 851.45,-273.78"/>
</g>
<!-- Node38&#45;&gt;Node37 -->
<g id="edge63" class="edge">
<title>Node38&#45;&gt;Node37</title>
<path fill="none" stroke="midnightblue" d="M895.17,-363.98C903.89,-354.87 917.9,-340.24 928.69,-328.98"/>
<polygon fill="midnightblue" stroke="midnightblue" points="931.46,-331.15 935.85,-321.51 926.4,-326.31 931.46,-331.15"/>
</g>
<!-- Node38&#45;&gt;Node39 -->
<g id="edge65" class="edge">
<title>Node38&#45;&gt;Node39</title>
<path fill="none" stroke="midnightblue" d="M923.54,-363.98C968.89,-353.39 1046.28,-335.34 1095.73,-323.8"/>
<polygon fill="midnightblue" stroke="midnightblue" points="1096.59,-327.19 1105.53,-321.51 1095,-320.37 1096.59,-327.19"/>
</g>
<!-- Node39&#45;&gt;Node2 -->
<g id="edge66" class="edge">
<title>Node39&#45;&gt;Node2</title>
<path fill="none" stroke="midnightblue" d="M1137.8,-302.47C1121.96,-271.22 1062.39,-162.24 979,-112 924.98,-79.45 851.52,-70.02 804.18,-67.52"/>
<polygon fill="midnightblue" stroke="midnightblue" points="804.05,-64.01 793.9,-67.07 803.74,-71.01 804.05,-64.01"/>
</g>
<!-- Node40&#45;&gt;Node2 -->
<g id="edge69" class="edge">
<title>Node40&#45;&gt;Node2</title>
<path fill="none" stroke="midnightblue" d="M1031.61,-302.45C1027.04,-293.46 1019.76,-278.85 1014,-266 983.74,-198.52 1007.31,-159.93 951,-112 929.08,-93.34 853.59,-79.91 803.49,-72.81"/>
<polygon fill="midnightblue" stroke="midnightblue" points="803.91,-69.33 793.53,-71.43 802.96,-76.27 803.91,-69.33"/>
</g>
<!-- Node40&#45;&gt;Node34 -->
<g id="edge70" class="edge">
<title>Node40&#45;&gt;Node34</title>
<path fill="none" stroke="midnightblue" d="M1005.1,-302.44C971.73,-293.2 918.41,-278.44 881.65,-268.26"/>
<polygon fill="midnightblue" stroke="midnightblue" points="882.33,-264.81 871.75,-265.52 880.46,-271.56 882.33,-264.81"/>
</g>
<!-- Node41&#45;&gt;Node2 -->
<g id="edge73" class="edge">
<title>Node41&#45;&gt;Node2</title>
<path fill="none" stroke="midnightblue" d="M1146.24,-179.37C1124.48,-160.71 1083.22,-128.3 1042,-112 962.41,-80.52 862.1,-71.02 804.19,-68.18"/>
<polygon fill="midnightblue" stroke="midnightblue" points="804.03,-64.67 793.88,-67.72 803.72,-71.66 804.03,-64.67"/>
</g>
<!-- Node42&#45;&gt;Node2 -->
<g id="edge75" class="edge">
<title>Node42&#45;&gt;Node2</title>
<path fill="none" stroke="midnightblue" d="M1150.83,-114.83C1144.81,-113.82 1138.79,-112.86 1133,-112 1014.78,-94.36 874.84,-79.08 803.65,-71.7"/>
<polygon fill="midnightblue" stroke="midnightblue" points="803.96,-68.22 793.66,-70.67 803.24,-75.18 803.96,-68.22"/>
</g>
<!-- Node43&#45;&gt;Node2 -->
<g id="edge77" class="edge">
<title>Node43&#45;&gt;Node2</title>
<path fill="none" stroke="midnightblue" d="M1338.71,-358.46C1327,-337.24 1307,-295.41 1307,-257 1307,-257 1307,-257 1307,-193.5 1307,-156.09 1314.57,-136.15 1286,-112 1249.58,-81.21 926.28,-70.79 803.78,-67.93"/>
<polygon fill="midnightblue" stroke="midnightblue" points="803.67,-64.43 793.59,-67.7 803.51,-71.43 803.67,-64.43"/>
</g>
</g>
</svg>
