<?xml version="1.0" encoding="UTF-8" standalone="no"?>
<!DOCTYPE svg PUBLIC "-//W3C//DTD SVG 1.1//EN"
 "http://www.w3.org/Graphics/SVG/1.1/DTD/svg11.dtd">
<!-- Generated by graphviz version 3.0.0 (20220226.1711)
 -->
<!-- Title: main.cpp Pages: 1 -->
<svg width="479pt" height="196pt"
 viewBox="0.00 0.00 479.00 196.00" xmlns="http://www.w3.org/2000/svg" xmlns:xlink="http://www.w3.org/1999/xlink">
<g id="graph0" class="graph" transform="scale(1 1) rotate(0) translate(4 192)">
<title>main.cpp</title>
<!-- Node1 -->
<g id="node1" class="node">
<title>Node1</title>
<g id="a_node1"><a xlink:title=" ">
<polygon fill="#bfbfbf" stroke="black" points="206,-168.5 206,-187.5 262,-187.5 262,-168.5 206,-168.5"/>
<text text-anchor="middle" x="234" y="-175.5" font-family="Helvetica,sans-Serif" font-size="10.00">main.cpp</text>
</a>
</g>
</g>
<!-- Node2 -->
<g id="node2" class="node">
<title>Node2</title>
<g id="a_node2"><a xlink:href="_level_8h.html" target="_top" xlink:title=" ">
<polygon fill="none" stroke="black" points="90.5,-56.5 90.5,-75.5 137.5,-75.5 137.5,-56.5 90.5,-56.5"/>
<text text-anchor="middle" x="114" y="-63.5" font-family="Helvetica,sans-Serif" font-size="10.00">Level.h</text>
</a>
</g>
</g>
<!-- Node1&#45;&gt;Node2 -->
<g id="edge1" class="edge">
<title>Node1&#45;&gt;Node2</title>
<path fill="none" stroke="midnightblue" d="M224.58,-168.37C204.34,-149.81 156.45,-105.91 130.84,-82.44"/>
<polygon fill="midnightblue" stroke="midnightblue" points="133.11,-79.77 123.37,-75.59 128.38,-84.93 133.11,-79.77"/>
</g>
<!-- Node3 -->
<g id="node3" class="node">
<title>Node3</title>
<g id="a_node3"><a xlink:title=" ">
<polygon fill="none" stroke="#bfbfbf" points="90,-0.5 90,-19.5 138,-19.5 138,-0.5 90,-0.5"/>
<text text-anchor="middle" x="114" y="-7.5" font-family="Helvetica,sans-Serif" font-size="10.00">raylib.h</text>
</a>
</g>
</g>
<!-- Node1&#45;&gt;Node3 -->
<g id="edge15" class="edge">
<title>Node1&#45;&gt;Node3</title>
<path fill="none" stroke="midnightblue" d="M206.98,-168.49C170.46,-155.33 106.94,-126.19 81,-76 72.43,-59.43 84.67,-40.39 96.6,-27.22"/>
<polygon fill="midnightblue" stroke="midnightblue" points="99.31,-29.45 103.8,-19.85 94.3,-24.56 99.31,-29.45"/>
</g>
<!-- Node4 -->
<g id="node4" class="node">
<title>Node4</title>
<g id="a_node4"><a xlink:href="_nemo_8h.html" target="_top" xlink:title=" ">
<polygon fill="none" stroke="black" points="209,-112.5 209,-131.5 259,-131.5 259,-112.5 209,-112.5"/>
<text text-anchor="middle" x="234" y="-119.5" font-family="Helvetica,sans-Serif" font-size="10.00">Nemo.h</text>
</a>
</g>
</g>
<!-- Node1&#45;&gt;Node4 -->
<g id="edge3" class="edge">
<title>Node1&#45;&gt;Node4</title>
<path fill="none" stroke="midnightblue" d="M234,-168.08C234,-161.01 234,-150.86 234,-141.99"/>
<polygon fill="midnightblue" stroke="midnightblue" points="237.5,-141.75 234,-131.75 230.5,-141.75 237.5,-141.75"/>
</g>
<!-- Node5 -->
<g id="node5" class="node">
<title>Node5</title>
<g id="a_node5"><a xlink:href="_sprite_8h.html" target="_top" xlink:title=" ">
<polygon fill="none" stroke="black" points="392,-56.5 392,-75.5 442,-75.5 442,-56.5 392,-56.5"/>
<text text-anchor="middle" x="417" y="-63.5" font-family="Helvetica,sans-Serif" font-size="10.00">Sprite.h</text>
</a>
</g>
</g>
<!-- Node1&#45;&gt;Node5 -->
<g id="edge11" class="edge">
<title>Node1&#45;&gt;Node5</title>
<path fill="none" stroke="midnightblue" d="M248.36,-168.37C279.9,-149.41 355.44,-104 393.8,-80.94"/>
<polygon fill="midnightblue" stroke="midnightblue" points="395.94,-83.74 402.71,-75.59 392.33,-77.74 395.94,-83.74"/>
</g>
<!-- Node7 -->
<g id="node7" class="node">
<title>Node7</title>
<g id="a_node7"><a xlink:title=" ">
<polygon fill="none" stroke="#bfbfbf" points="156,-56.5 156,-75.5 206,-75.5 206,-56.5 156,-56.5"/>
<text text-anchor="middle" x="181" y="-63.5" font-family="Helvetica,sans-Serif" font-size="10.00">config.h</text>
</a>
</g>
</g>
<!-- Node1&#45;&gt;Node7 -->
<g id="edge14" class="edge">
<title>Node1&#45;&gt;Node7</title>
<path fill="none" stroke="midnightblue" d="M225.92,-168.34C218.27,-159.72 206.95,-145.82 200,-132 192.58,-117.23 187.57,-99.07 184.57,-85.71"/>
<polygon fill="midnightblue" stroke="midnightblue" points="187.98,-84.87 182.52,-75.79 181.12,-86.29 187.98,-84.87"/>
</g>
<!-- Node8 -->
<g id="node8" class="node">
<title>Node8</title>
<g id="a_node8"><a xlink:title=" ">
<polygon fill="none" stroke="#bfbfbf" points="322,-56.5 322,-75.5 374,-75.5 374,-56.5 322,-56.5"/>
<text text-anchor="middle" x="348" y="-63.5" font-family="Helvetica,sans-Serif" font-size="10.00">memory</text>
</a>
</g>
</g>
<!-- Node1&#45;&gt;Node8 -->
<g id="edge18" class="edge">
<title>Node1&#45;&gt;Node8</title>
<path fill="none" stroke="midnightblue" d="M242.95,-168.37C262.09,-149.89 307.28,-106.29 331.68,-82.74"/>
<polygon fill="midnightblue" stroke="midnightblue" points="334.33,-85.05 339.1,-75.59 329.47,-80.02 334.33,-85.05"/>
</g>
<!-- Node10 -->
<g id="node10" class="node">
<title>Node10</title>
<g id="a_node10"><a xlink:href="_u_i_8h.html" target="_top" xlink:title=" ">
<polygon fill="none" stroke="black" points="0,-112.5 0,-131.5 34,-131.5 34,-112.5 0,-112.5"/>
<text text-anchor="middle" x="17" y="-119.5" font-family="Helvetica,sans-Serif" font-size="10.00">UI.h</text>
</a>
</g>
</g>
<!-- Node1&#45;&gt;Node10 -->
<g id="edge12" class="edge">
<title>Node1&#45;&gt;Node10</title>
<path fill="none" stroke="midnightblue" d="M205.86,-170.61C169.34,-162.22 103.71,-146.82 48,-132 46.58,-131.62 45.12,-131.23 43.65,-130.82"/>
<polygon fill="midnightblue" stroke="midnightblue" points="44.59,-127.45 34.02,-128.09 42.68,-134.18 44.59,-127.45"/>
</g>
<!-- Node11 -->
<g id="node11" class="node">
<title>Node11</title>
<g id="a_node11"><a xlink:title=" ">
<polygon fill="none" stroke="#bfbfbf" points="353.5,-112.5 353.5,-131.5 398.5,-131.5 398.5,-112.5 353.5,-112.5"/>
<text text-anchor="middle" x="376" y="-119.5" font-family="Helvetica,sans-Serif" font-size="10.00">cstdlib</text>
</a>
</g>
</g>
<!-- Node1&#45;&gt;Node11 -->
<g id="edge16" class="edge">
<title>Node1&#45;&gt;Node11</title>
<path fill="none" stroke="midnightblue" d="M256.5,-168.44C280.08,-159.48 317.32,-145.31 343.96,-135.18"/>
<polygon fill="midnightblue" stroke="midnightblue" points="345.5,-138.34 353.6,-131.52 343.01,-131.8 345.5,-138.34"/>
</g>
<!-- Node12 -->
<g id="node12" class="node">
<title>Node12</title>
<g id="a_node12"><a xlink:title=" ">
<polygon fill="none" stroke="#bfbfbf" points="417,-112.5 417,-131.5 471,-131.5 471,-112.5 417,-112.5"/>
<text text-anchor="middle" x="444" y="-119.5" font-family="Helvetica,sans-Serif" font-size="10.00">iostream</text>
</a>
</g>
</g>
<!-- Node1&#45;&gt;Node12 -->
<g id="edge17" class="edge">
<title>Node1&#45;&gt;Node12</title>
<path fill="none" stroke="midnightblue" d="M262.32,-169.72C299.68,-160.11 365.52,-143.18 406.85,-132.55"/>
<polygon fill="midnightblue" stroke="midnightblue" points="407.98,-135.88 416.79,-130 406.24,-129.1 407.98,-135.88"/>
</g>
<!-- Node2&#45;&gt;Node3 -->
<g id="edge2" class="edge">
<title>Node2&#45;&gt;Node3</title>
<path fill="none" stroke="midnightblue" d="M114,-56.08C114,-49.01 114,-38.86 114,-29.99"/>
<polygon fill="midnightblue" stroke="midnightblue" points="117.5,-29.75 114,-19.75 110.5,-29.75 117.5,-29.75"/>
</g>
<!-- Node4&#45;&gt;Node3 -->
<g id="edge9" class="edge">
<title>Node4&#45;&gt;Node3</title>
<path fill="none" stroke="midnightblue" d="M233.71,-112.33C232.82,-98.74 229.23,-72.29 215,-56 197.7,-36.19 169.98,-24.7 147.96,-18.29"/>
<polygon fill="midnightblue" stroke="midnightblue" points="148.86,-14.91 138.3,-15.69 147.05,-21.67 148.86,-14.91"/>
</g>
<!-- Node4&#45;&gt;Node5 -->
<g id="edge4" class="edge">
<title>Node4&#45;&gt;Node5</title>
<path fill="none" stroke="midnightblue" d="M259.06,-113.6C291,-104.18 346.39,-87.84 382.35,-77.22"/>
<polygon fill="midnightblue" stroke="midnightblue" points="383.35,-80.58 391.95,-74.39 381.37,-73.87 383.35,-80.58"/>
</g>
<!-- Node4&#45;&gt;Node7 -->
<g id="edge7" class="edge">
<title>Node4&#45;&gt;Node7</title>
<path fill="none" stroke="midnightblue" d="M225.25,-112.08C217.53,-104.22 206.1,-92.57 196.78,-83.08"/>
<polygon fill="midnightblue" stroke="midnightblue" points="199.09,-80.44 189.59,-75.75 194.1,-85.34 199.09,-80.44"/>
</g>
<!-- Node4&#45;&gt;Node8 -->
<g id="edge8" class="edge">
<title>Node4&#45;&gt;Node8</title>
<path fill="none" stroke="midnightblue" d="M252.06,-112.44C270.57,-103.68 299.58,-89.94 320.86,-79.86"/>
<polygon fill="midnightblue" stroke="midnightblue" points="322.48,-82.96 330.02,-75.52 319.49,-76.63 322.48,-82.96"/>
</g>
<!-- Node9 -->
<g id="node9" class="node">
<title>Node9</title>
<g id="a_node9"><a xlink:title=" ">
<polygon fill="none" stroke="#bfbfbf" points="262,-56.5 262,-75.5 304,-75.5 304,-56.5 262,-56.5"/>
<text text-anchor="middle" x="283" y="-63.5" font-family="Helvetica,sans-Serif" font-size="10.00">vector</text>
</a>
</g>
</g>
<!-- Node4&#45;&gt;Node9 -->
<g id="edge10" class="edge">
<title>Node4&#45;&gt;Node9</title>
<path fill="none" stroke="midnightblue" d="M242.09,-112.08C249.16,-104.3 259.59,-92.8 268.15,-83.37"/>
<polygon fill="midnightblue" stroke="midnightblue" points="270.93,-85.51 275.06,-75.75 265.75,-80.8 270.93,-85.51"/>
</g>
<!-- Node5&#45;&gt;Node3 -->
<g id="edge5" class="edge">
<title>Node5&#45;&gt;Node3</title>
<path fill="none" stroke="midnightblue" d="M391.81,-58.05C388.85,-57.32 385.87,-56.62 383,-56 299.38,-37.98 199.82,-22.98 148.46,-15.72"/>
<polygon fill="midnightblue" stroke="midnightblue" points="148.65,-12.21 138.26,-14.29 147.67,-19.14 148.65,-12.21"/>
</g>
<!-- Node6 -->
<g id="node6" class="node">
<title>Node6</title>
<g id="a_node6"><a xlink:title=" ">
<polygon fill="none" stroke="#bfbfbf" points="396.5,-0.5 396.5,-19.5 437.5,-19.5 437.5,-0.5 396.5,-0.5"/>
<text text-anchor="middle" x="417" y="-7.5" font-family="Helvetica,sans-Serif" font-size="10.00">string</text>
</a>
</g>
</g>
<!-- Node5&#45;&gt;Node6 -->
<g id="edge6" class="edge">
<title>Node5&#45;&gt;Node6</title>
<path fill="none" stroke="midnightblue" d="M417,-56.08C417,-49.01 417,-38.86 417,-29.99"/>
<polygon fill="midnightblue" stroke="midnightblue" points="420.5,-29.75 417,-19.75 413.5,-29.75 420.5,-29.75"/>
</g>
<!-- Node10&#45;&gt;Node3 -->
<g id="edge13" class="edge">
<title>Node10&#45;&gt;Node3</title>
<path fill="none" stroke="midnightblue" d="M19.56,-112.18C23.77,-98.84 33.19,-73.28 48,-56 58.89,-43.29 74.19,-32.56 87.31,-24.77"/>
<polygon fill="midnightblue" stroke="midnightblue" points="89.41,-27.61 96.39,-19.63 85.96,-21.51 89.41,-27.61"/>
</g>
</g>
</svg>
