<?xml version="1.0" encoding="UTF-8" standalone="no"?>
<!DOCTYPE svg PUBLIC "-//W3C//DTD SVG 1.1//EN"
 "http://www.w3.org/Graphics/SVG/1.1/DTD/svg11.dtd">
<!-- Generated by graphviz version 3.0.0 (20220226.1711)
 -->
<!-- Title: Item Pages: 1 -->
<svg width="203pt" height="226pt"
 viewBox="0.00 0.00 202.50 226.00" xmlns="http://www.w3.org/2000/svg" xmlns:xlink="http://www.w3.org/1999/xlink">
<g id="graph0" class="graph" transform="scale(1 1) rotate(0) translate(4 222)">
<title>Item</title>
<!-- Node1 -->
<g id="node1" class="node">
<title>Node1</title>
<g id="a_node1"><a xlink:title=" ">
<polygon fill="#bfbfbf" stroke="black" points="57,-0.5 57,-57.5 92,-57.5 92,-0.5 57,-0.5"/>
<text text-anchor="middle" x="74.5" y="-45.5" font-family="Helvetica,sans-Serif" font-size="10.00">Item</text>
<polyline fill="none" stroke="black" points="57,-38.5 92,-38.5 "/>
<text text-anchor="middle" x="74.5" y="-26.5" font-family="Helvetica,sans-Serif" font-size="10.00"> </text>
<polyline fill="none" stroke="black" points="57,-19.5 92,-19.5 "/>
<text text-anchor="middle" x="74.5" y="-7.5" font-family="Helvetica,sans-Serif" font-size="10.00"> </text>
</a>
</g>
</g>
<!-- Node2 -->
<g id="node2" class="node">
<title>Node2</title>
<g id="a_node2"><a xlink:title=" ">
<polygon fill="none" stroke="black" points="0,-160.5 0,-217.5 29,-217.5 29,-160.5 0,-160.5"/>
<text text-anchor="middle" x="14.5" y="-205.5" font-family="Helvetica,sans-Serif" font-size="10.00">int</text>
<polyline fill="none" stroke="black" points="0,-198.5 29,-198.5 "/>
<text text-anchor="middle" x="14.5" y="-186.5" font-family="Helvetica,sans-Serif" font-size="10.00"> </text>
<polyline fill="none" stroke="black" points="0,-179.5 29,-179.5 "/>
<text text-anchor="middle" x="14.5" y="-167.5" font-family="Helvetica,sans-Serif" font-size="10.00"> </text>
</a>
</g>
</g>
<!-- Node2&#45;&gt;Node1 -->
<g id="edge1" class="edge">
<title>Node2&#45;&gt;Node1</title>
<path fill="none" stroke="#404040" d="M8.3,-160.22C4.49,-136.56 2.5,-102.33 15.5,-76 22.11,-62.63 34.66,-51.99 46.49,-44.34"/>
<polygon fill="none" stroke="#404040" points="46.64,-44.25 49.77,-37.75 56.97,-38.14 53.84,-44.64 46.64,-44.25"/>
<text text-anchor="start" x="15.5" y="-134" font-family="Helvetica,sans-Serif" font-size="10.00"> +curr_num_of_blocks</text>
<text text-anchor="middle" x="64" y="-123" font-family="Helvetica,sans-Serif" font-size="10.00">_in_stack</text>
<text text-anchor="middle" x="64" y="-112" font-family="Helvetica,sans-Serif" font-size="10.00">+id</text>
<text text-anchor="start" x="15.5" y="-101" font-family="Helvetica,sans-Serif" font-size="10.00">+max_num_blocks</text>
<text text-anchor="middle" x="64" y="-90" font-family="Helvetica,sans-Serif" font-size="10.00">_in_stack</text>
<text text-anchor="middle" x="64" y="-79" font-family="Helvetica,sans-Serif" font-size="10.00">+type</text>
</g>
<!-- Node3 -->
<g id="node3" class="node">
<title>Node3</title>
<g id="a_node3"><a xlink:title=" ">
<polygon fill="none" stroke="black" points="117,-160.5 117,-217.5 152,-217.5 152,-160.5 117,-160.5"/>
<text text-anchor="middle" x="134.5" y="-205.5" font-family="Helvetica,sans-Serif" font-size="10.00">bool</text>
<polyline fill="none" stroke="black" points="117,-198.5 152,-198.5 "/>
<text text-anchor="middle" x="134.5" y="-186.5" font-family="Helvetica,sans-Serif" font-size="10.00"> </text>
<polyline fill="none" stroke="black" points="117,-179.5 152,-179.5 "/>
<text text-anchor="middle" x="134.5" y="-167.5" font-family="Helvetica,sans-Serif" font-size="10.00"> </text>
</a>
</g>
</g>
<!-- Node3&#45;&gt;Node1 -->
<g id="edge2" class="edge">
<title>Node3&#45;&gt;Node1</title>
<path fill="none" stroke="#404040" d="M132.85,-160.11C130.59,-136.7 125.22,-102.86 112.5,-76 109.32,-69.28 104.94,-62.72 100.28,-56.75"/>
<polygon fill="none" stroke="#404040" points="100.07,-56.51 93.15,-54.5 92.33,-47.34 99.26,-49.34 100.07,-56.51"/>
<text text-anchor="middle" x="162.5" y="-106.5" font-family="Helvetica,sans-Serif" font-size="10.00"> +is_stackable</text>
</g>
</g>
</svg>
